<?xml version="1.0" encoding="UTF-8" standalone="no"?>
<svg
   width="263.79999mm"
   height="192.10001mm"
   viewBox="0 0 263.79999 192.10001"
   version="1.1"
   id="svg1998"
   sodipodi:docname="box.svg"
   inkscape:version="1.2.1 (9c6d41e, 2022-07-14)"
   xmlns:inkscape="http://www.inkscape.org/namespaces/inkscape"
   xmlns:sodipodi="http://sodipodi.sourceforge.net/DTD/sodipodi-0.dtd"
   xmlns="http://www.w3.org/2000/svg"
   xmlns:svg="http://www.w3.org/2000/svg"
   xmlns:rdf="http://www.w3.org/1999/02/22-rdf-syntax-ns#"
   xmlns:cc="http://creativecommons.org/ns#"
   xmlns:dc="http://purl.org/dc/elements/1.1/">
  <defs
     id="defs2002" />
  <sodipodi:namedview
     id="namedview2000"
     pagecolor="#ffffff"
     bordercolor="#666666"
     borderopacity="1.0"
     inkscape:showpageshadow="2"
     inkscape:pageopacity="0.0"
     inkscape:pagecheckerboard="0"
     inkscape:deskcolor="#d1d1d1"
     inkscape:document-units="mm"
     showgrid="false"
     inkscape:zoom="0.86565017"
     inkscape:cx="359.84513"
     inkscape:cy="221.22101"
     inkscape:window-width="1280"
     inkscape:window-height="747"
     inkscape:window-x="0"
     inkscape:window-y="25"
     inkscape:window-maximized="1"
     inkscape:current-layer="svg1998" />
  <!--
ABox - A simple Box


This box is kept simple on purpose. If you need more features have a look at the UniversalBox.


Created with Boxes.py (https://festi.info/boxes.py)
Creation date: 2023-08-10 18:01:05
Command line (remove spaces between dashes): boxes ABox - -FingerJoint_finger=3.0 - -x=110 - -y=80 - -h=90
Url: http://festi.info/boxes.py/ABox?FingerJoint_angle=90.0&FingerJoint_style=rectangular&FingerJoint_surroundingspaces=2.0&FingerJoint_bottom_lip=0.0&FingerJoint_edge_width=1.0&FingerJoint_extra_length=0.0&FingerJoint_finger=3.0&FingerJoint_play=0.0&FingerJoint_space=2.0&FingerJoint_width=1.0&Lid_handle=none&Lid_style=none&Lid_handle_height=8.0&Lid_height=4.0&Lid_play=0.1&x=110&y=80&h=90&outside=0&outside=1&bottom_edge=h&thickness=3.0&format=svg&tabs=0.0&qr_code=0&debug=0&labels=0&labels=1&reference=100&inner_corners=loop&burn=0.1&language=en&render=2
Url short: http://festi.info/boxes.py/ABox?FingerJoint_finger=3.0&x=110&y=80&h=90
SettingsUrl: http://festi.info/boxes.py/ABox?FingerJoint_angle=90.0&FingerJoint_style=rectangular&FingerJoint_surroundingspaces=2.0&FingerJoint_bottom_lip=0.0&FingerJoint_edge_width=1.0&FingerJoint_extra_length=0.0&FingerJoint_finger=3.0&FingerJoint_play=0.0&FingerJoint_space=2.0&FingerJoint_width=1.0&Lid_handle=none&Lid_style=none&Lid_handle_height=8.0&Lid_height=4.0&Lid_play=0.1&x=110&y=80&h=90&outside=0&outside=1&bottom_edge=h&thickness=3.0&format=svg&tabs=0.0&qr_code=0&debug=0&labels=0&labels=1&reference=100&inner_corners=loop&burn=0.1&language=en&render=2
SettingsUrl short: http://festi.info/boxes.py/ABox?FingerJoint_finger=3.0&x=110&y=80&h=90
-->
  <title
     id="title1934">ABox</title>
  <metadata
     id="metadata1936">
    <rdf:RDF>
      <cc:Work>
        <dc:title>ABox</dc:title>
        <dc:date>2023-08-10 18:01:05</dc:date>
        <dc:source>http://festi.info/boxes.py/ABox?FingerJoint_angle=90.0&amp;FingerJoint_style=rectangular&amp;FingerJoint_surroundingspaces=2.0&amp;FingerJoint_bottom_lip=0.0&amp;FingerJoint_edge_width=1.0&amp;FingerJoint_extra_length=0.0&amp;FingerJoint_finger=3.0&amp;FingerJoint_play=0.0&amp;FingerJoint_space=2.0&amp;FingerJoint_width=1.0&amp;Lid_handle=none&amp;Lid_style=none&amp;Lid_handle_height=8.0&amp;Lid_height=4.0&amp;Lid_play=0.1&amp;x=110&amp;y=80&amp;h=90&amp;outside=0&amp;outside=1&amp;bottom_edge=h&amp;thickness=3.0&amp;format=svg&amp;tabs=0.0&amp;qr_code=0&amp;debug=0&amp;labels=0&amp;labels=1&amp;reference=100&amp;inner_corners=loop&amp;burn=0.1&amp;language=en&amp;render=2</dc:source>
        <dc:source>http://festi.info/boxes.py/ABox?FingerJoint_finger=3.0&amp;x=110&amp;y=80&amp;h=90</dc:source>
        <dc:description>A simple Box

This box is kept simple on purpose. If you need more features have a look at the UniversalBox.

Created with Boxes.py (https://festi.info/boxes.py)
Command line: boxes ABox --FingerJoint_angle=90.0 --FingerJoint_style=rectangular --FingerJoint_surroundingspaces=2.0 --FingerJoint_bottom_lip=0.0 --FingerJoint_edge_width=1.0 --FingerJoint_extra_length=0.0 --FingerJoint_finger=3.0 --FingerJoint_play=0.0 --FingerJoint_space=2.0 --FingerJoint_width=1.0 --Lid_handle=none --Lid_style=none --Lid_handle_height=8.0 --Lid_height=4.0 --Lid_play=0.1 --x=110 --y=80 --h=90 --outside=0 --outside=1 --bottom_edge=h --thickness=3.0 --format=svg --tabs=0.0 --qr_code=0 --debug=0 --labels=0 --labels=1 --reference=100 --inner_corners=loop --burn=0.1
Command line short: boxes ABox --FingerJoint_finger=3.0 --x=110 --y=80 --h=90
Url: http://festi.info/boxes.py/ABox?FingerJoint_angle=90.0&amp;FingerJoint_style=rectangular&amp;FingerJoint_surroundingspaces=2.0&amp;FingerJoint_bottom_lip=0.0&amp;FingerJoint_edge_width=1.0&amp;FingerJoint_extra_length=0.0&amp;FingerJoint_finger=3.0&amp;FingerJoint_play=0.0&amp;FingerJoint_space=2.0&amp;FingerJoint_width=1.0&amp;Lid_handle=none&amp;Lid_style=none&amp;Lid_handle_height=8.0&amp;Lid_height=4.0&amp;Lid_play=0.1&amp;x=110&amp;y=80&amp;h=90&amp;outside=0&amp;outside=1&amp;bottom_edge=h&amp;thickness=3.0&amp;format=svg&amp;tabs=0.0&amp;qr_code=0&amp;debug=0&amp;labels=0&amp;labels=1&amp;reference=100&amp;inner_corners=loop&amp;burn=0.1&amp;language=en&amp;render=2
Url short: http://festi.info/boxes.py/ABox?FingerJoint_finger=3.0&amp;x=110&amp;y=80&amp;h=90
SettingsUrl: http://festi.info/boxes.py/ABox?FingerJoint_angle=90.0&amp;FingerJoint_style=rectangular&amp;FingerJoint_surroundingspaces=2.0&amp;FingerJoint_bottom_lip=0.0&amp;FingerJoint_edge_width=1.0&amp;FingerJoint_extra_length=0.0&amp;FingerJoint_finger=3.0&amp;FingerJoint_play=0.0&amp;FingerJoint_space=2.0&amp;FingerJoint_width=1.0&amp;Lid_handle=none&amp;Lid_style=none&amp;Lid_handle_height=8.0&amp;Lid_height=4.0&amp;Lid_play=0.1&amp;x=110&amp;y=80&amp;h=90&amp;outside=0&amp;outside=1&amp;bottom_edge=h&amp;thickness=3.0&amp;format=svg&amp;tabs=0.0&amp;qr_code=0&amp;debug=0&amp;labels=0&amp;labels=1&amp;reference=100&amp;inner_corners=loop&amp;burn=0.1&amp;language=en&amp;render=2
SettingsUrl short: http://festi.info/boxes.py/ABox?FingerJoint_finger=3.0&amp;x=110&amp;y=80&amp;h=90
</dc:description>
      </cc:Work>
    </rdf:RDF>
  </metadata>
  <path
     d="m 260.5,174.4 v 4.4 c 0,0.1 0.1,0 0,0 h -2.8 c -0.1,0 0,0.1 0,0 V 170 c 0,-0.1 -0.1,0 0,0 h 2.8 c 0.1,0 0,-0.1 0,0 z"
     stroke="#0000ff"
     stroke-width="0.2"
     id="path1943"
     style="fill:none;stroke-linecap:round;stroke-linejoin:round;stroke:#ff0000;stroke-opacity:1;vector-effect:non-scaling-stroke;-inkscape-stroke:hairline;stroke-width:0.26458333;stroke-dasharray:none" />
  <path
     d="m 260.5,159.4 v 4.4 c 0,0.1 0.1,0 0,0 h -2.8 c -0.1,0 0,0.1 0,0 V 155 c 0,-0.1 -0.1,0 0,0 h 2.8 c 0.1,0 0,-0.1 0,0 z"
     stroke="#0000ff"
     stroke-width="0.2"
     id="path1945"
     style="fill:none;stroke-linecap:round;stroke-linejoin:round;stroke:#ff0000;stroke-opacity:1;vector-effect:non-scaling-stroke;-inkscape-stroke:hairline;stroke-width:0.26458333;stroke-dasharray:none" />
  <path
     d="m 260.5,144.4 v 4.4 c 0,0.1 0.1,0 0,0 h -2.8 c -0.1,0 0,0.1 0,0 V 140 c 0,-0.1 -0.1,0 0,0 h 2.8 c 0.1,0 0,-0.1 0,0 z"
     stroke="#0000ff"
     stroke-width="0.2"
     id="path1947"
     style="fill:none;stroke-linecap:round;stroke-linejoin:round;stroke:#ff0000;stroke-opacity:1;vector-effect:non-scaling-stroke;-inkscape-stroke:hairline;stroke-width:0.26458333;stroke-dasharray:none" />
  <path
     d="m 260.5,129.4 v 4.4 c 0,0.1 0.1,0 0,0 h -2.8 c -0.1,0 0,0.1 0,0 V 125 c 0,-0.1 -0.1,0 0,0 h 2.8 c 0.1,0 0,-0.1 0,0 z"
     stroke="#0000ff"
     stroke-width="0.2"
     id="path1949"
     style="fill:none;stroke-linecap:round;stroke-linejoin:round;stroke:#ff0000;stroke-opacity:1;vector-effect:non-scaling-stroke;-inkscape-stroke:hairline;stroke-width:0.26458333;stroke-dasharray:none" />
  <path
     d="m 260.5,114.4 v 4.4 c 0,0.1 0.1,0 0,0 h -2.8 c -0.1,0 0,0.1 0,0 V 110 c 0,-0.1 -0.1,0 0,0 h 2.8 c 0.1,0 0,-0.1 0,0 z"
     stroke="#0000ff"
     stroke-width="0.2"
     id="path1951"
     style="fill:none;stroke-linecap:round;stroke-linejoin:round;stroke:#ff0000;stroke-opacity:1;vector-effect:non-scaling-stroke;-inkscape-stroke:hairline;stroke-width:0.26458333;stroke-dasharray:none" />
  <path
     d="m 260.5,99.4 v 4.4 c 0,0.1 0.1,0 0,0 h -2.8 c -0.1,0 0,0.1 0,0 V 95 c 0,-0.1 -0.1,0 0,0 h 2.8 c 0.1,0 0,-0.1 0,0 z"
     stroke="#0000ff"
     stroke-width="0.2"
     id="path1953"
     style="fill:none;stroke-linecap:round;stroke-linejoin:round;stroke:#ff0000;stroke-opacity:1;vector-effect:non-scaling-stroke;-inkscape-stroke:hairline;stroke-width:0.26458333;stroke-dasharray:none" />
  <path
     d="m 263.7,188.9 v -104 -3 c 0,-0.055 -0.045,-0.1 -0.1,-0.1 h -10.5 c -0.055,0 -0.1,0.045 -0.1,0.1 v 2.9 c 0,0.1 0.1,0 0,0 h -8.8 c -0.1,0 0,0.1 0,0 v -2.9 c 0,-0.055 -0.045,-0.1 -0.1,-0.1 h -6 c -0.055,0 -0.1,0.045 -0.1,0.1 v 2.9 c 0,0.1 0.1,0 0,0 h -8.8 c -0.1,0 0,0.1 0,0 v -2.9 c 0,-0.055 -0.045,-0.1 -0.1,-0.1 h -6 c -0.055,0 -0.1,0.045 -0.1,0.1 v 2.9 c 0,0.1 0.1,0 0,0 h -8.8 c -0.1,0 0,0.1 0,0 v -2.9 c 0,-0.055 -0.045,-0.1 -0.1,-0.1 h -6 c -0.055,0 -0.1,0.045 -0.1,0.1 v 2.9 c 0,0.1 0.1,0 0,0 h -8.8 c -0.1,0 0,0.1 0,0 v -2.9 c 0,-0.055 -0.045,-0.1 -0.1,-0.1 h -6 c -0.055,0 -0.1,0.045 -0.1,0.1 v 2.9 c 0,0.1 0.1,0 0,0 h -8.8 c -0.1,0 0,0.1 0,0 v -2.9 c 0,-0.055 -0.045,-0.1 -0.1,-0.1 h -10.5 c -0.055,0 -0.1,0.045 -0.1,0.1 v 3 104 3 c 0,0.055 0.045,0.1 0.1,0.1 h 10.5 c 0.055,0 0.1,-0.045 0.1,-0.1 V 189 c 0,-0.1 -0.1,0 0,0 h 8.8 c 0.1,0 0,-0.1 0,0 v 2.9 c 0,0.055 0.045,0.1 0.1,0.1 h 6 c 0.055,0 0.1,-0.045 0.1,-0.1 V 189 c 0,-0.1 -0.1,0 0,0 h 8.8 c 0.1,0 0,-0.1 0,0 v 2.9 c 0,0.055 0.045,0.1 0.1,0.1 h 6 c 0.055,0 0.1,-0.045 0.1,-0.1 V 189 c 0,-0.1 -0.1,0 0,0 h 8.8 c 0.1,0 0,-0.1 0,0 v 2.9 c 0,0.055 0.045,0.1 0.1,0.1 h 6 c 0.055,0 0.1,-0.045 0.1,-0.1 V 189 c 0,-0.1 -0.1,0 0,0 h 8.8 c 0.1,0 0,-0.1 0,0 v 2.9 c 0,0.055 0.045,0.1 0.1,0.1 h 6 c 0.055,0 0.1,-0.045 0.1,-0.1 V 189 c 0,-0.1 -0.1,0 0,0 h 8.8 c 0.1,0 0,-0.1 0,0 v 2.9 c 0,0.055 0.045,0.1 0.1,0.1 h 10.5 c 0.055,0 0.1,-0.045 0.1,-0.1 z"
     stroke="#000000"
     stroke-width="0.2"
     id="path1955"
     style="fill:none;stroke-linecap:round;stroke-linejoin:round;stroke:#ff0000;stroke-opacity:1;vector-effect:non-scaling-stroke;-inkscape-stroke:hairline;stroke-width:0.26458333;stroke-dasharray:none" />
  <path
     d="m 168.8,174.4 v 4.4 c 0,0.1 0.1,0 0,0 H 166 c -0.1,0 0,0.1 0,0 V 170 c 0,-0.1 -0.1,0 0,0 h 2.8 c 0.1,0 0,-0.1 0,0 z"
     stroke="#0000ff"
     stroke-width="0.2"
     id="path1958"
     style="fill:none;stroke-linecap:round;stroke-linejoin:round;stroke:#ff0000;stroke-opacity:1;vector-effect:non-scaling-stroke;-inkscape-stroke:hairline;stroke-width:0.26458333;stroke-dasharray:none" />
  <path
     d="m 168.8,159.4 v 4.4 c 0,0.1 0.1,0 0,0 H 166 c -0.1,0 0,0.1 0,0 V 155 c 0,-0.1 -0.1,0 0,0 h 2.8 c 0.1,0 0,-0.1 0,0 z"
     stroke="#0000ff"
     stroke-width="0.2"
     id="path1960"
     style="fill:none;stroke-linecap:round;stroke-linejoin:round;stroke:#ff0000;stroke-opacity:1;vector-effect:non-scaling-stroke;-inkscape-stroke:hairline;stroke-width:0.26458333;stroke-dasharray:none" />
  <path
     d="m 168.8,144.4 v 4.4 c 0,0.1 0.1,0 0,0 H 166 c -0.1,0 0,0.1 0,0 V 140 c 0,-0.1 -0.1,0 0,0 h 2.8 c 0.1,0 0,-0.1 0,0 z"
     stroke="#0000ff"
     stroke-width="0.2"
     id="path1962"
     style="fill:none;stroke-linecap:round;stroke-linejoin:round;stroke:#ff0000;stroke-opacity:1;vector-effect:non-scaling-stroke;-inkscape-stroke:hairline;stroke-width:0.26458333;stroke-dasharray:none" />
  <path
     d="m 168.8,129.4 v 4.4 c 0,0.1 0.1,0 0,0 H 166 c -0.1,0 0,0.1 0,0 V 125 c 0,-0.1 -0.1,0 0,0 h 2.8 c 0.1,0 0,-0.1 0,0 z"
     stroke="#0000ff"
     stroke-width="0.2"
     id="path1964"
     style="fill:none;stroke-linecap:round;stroke-linejoin:round;stroke:#ff0000;stroke-opacity:1;vector-effect:non-scaling-stroke;-inkscape-stroke:hairline;stroke-width:0.26458333;stroke-dasharray:none" />
  <path
     d="m 168.8,114.4 v 4.4 c 0,0.1 0.1,0 0,0 H 166 c -0.1,0 0,0.1 0,0 V 110 c 0,-0.1 -0.1,0 0,0 h 2.8 c 0.1,0 0,-0.1 0,0 z"
     stroke="#0000ff"
     stroke-width="0.2"
     id="path1966"
     style="fill:none;stroke-linecap:round;stroke-linejoin:round;stroke:#ff0000;stroke-opacity:1;vector-effect:non-scaling-stroke;-inkscape-stroke:hairline;stroke-width:0.26458333;stroke-dasharray:none" />
  <path
     d="m 168.8,99.4 v 4.4 c 0,0.1 0.1,0 0,0 H 166 c -0.1,0 0,0.1 0,0 V 95 c 0,-0.1 -0.1,0 0,0 h 2.8 c 0.1,0 0,-0.1 0,0 z"
     stroke="#0000ff"
     stroke-width="0.2"
     id="path1968"
     style="fill:none;stroke-linecap:round;stroke-linejoin:round;stroke:#ff0000;stroke-opacity:1;vector-effect:non-scaling-stroke;-inkscape-stroke:hairline;stroke-width:0.26458333;stroke-dasharray:none" />
  <path
     d="m 172,188.9 v -104 -3 c 0,-0.055 -0.045,-0.1 -0.1,-0.1 h -10.5 c -0.055,0 -0.1,0.045 -0.1,0.1 v 2.9 c 0,0.1 0.1,0 0,0 h -8.8 c -0.1,0 0,0.1 0,0 v -2.9 c 0,-0.055 -0.045,-0.1 -0.1,-0.1 h -6 c -0.055,0 -0.1,0.045 -0.1,0.1 v 2.9 c 0,0.1 0.1,0 0,0 h -8.8 c -0.1,0 0,0.1 0,0 v -2.9 c 0,-0.055 -0.045,-0.1 -0.1,-0.1 h -6 c -0.055,0 -0.1,0.045 -0.1,0.1 v 2.9 c 0,0.1 0.1,0 0,0 h -8.8 c -0.1,0 0,0.1 0,0 v -2.9 c 0,-0.055 -0.045,-0.1 -0.1,-0.1 h -6 c -0.055,0 -0.1,0.045 -0.1,0.1 v 2.9 c 0,0.1 0.1,0 0,0 h -8.8 c -0.1,0 0,0.1 0,0 v -2.9 c 0,-0.055 -0.045,-0.1 -0.1,-0.1 h -6 c -0.055,0 -0.1,0.045 -0.1,0.1 v 2.9 c 0,0.1 0.1,0 0,0 h -8.8 c -0.1,0 0,0.1 0,0 v -2.9 c 0,-0.055 -0.045,-0.1 -0.1,-0.1 H 81.9 c -0.055,0 -0.1,0.045 -0.1,0.1 v 3 104 3 c 0,0.055 0.045,0.1 0.1,0.1 h 10.5 c 0.055,0 0.1,-0.045 0.1,-0.1 V 189 c 0,-0.1 -0.1,0 0,0 h 8.8 c 0.1,0 0,-0.1 0,0 v 2.9 c 0,0.055 0.045,0.1 0.1,0.1 h 6 c 0.055,0 0.1,-0.045 0.1,-0.1 V 189 c 0,-0.1 -0.1,0 0,0 h 8.8 c 0.1,0 0,-0.1 0,0 v 2.9 c 0,0.055 0.045,0.1 0.1,0.1 h 6 c 0.055,0 0.1,-0.045 0.1,-0.1 V 189 c 0,-0.1 -0.1,0 0,0 h 8.8 c 0.1,0 0,-0.1 0,0 v 2.9 c 0,0.055 0.045,0.1 0.1,0.1 h 6 c 0.055,0 0.1,-0.045 0.1,-0.1 V 189 c 0,-0.1 -0.1,0 0,0 h 8.8 c 0.1,0 0,-0.1 0,0 v 2.9 c 0,0.055 0.045,0.1 0.1,0.1 h 6 c 0.055,0 0.1,-0.045 0.1,-0.1 V 189 c 0,-0.1 -0.1,0 0,0 h 8.8 c 0.1,0 0,-0.1 0,0 v 2.9 c 0,0.055 0.045,0.1 0.1,0.1 h 10.5 c 0.055,0 0.1,-0.045 0.1,-0.1 z"
     stroke="#000000"
     stroke-width="0.2"
     id="path1970"
     style="fill:none;stroke-linecap:round;stroke-linejoin:round;stroke:#ff0000;stroke-opacity:1;vector-effect:non-scaling-stroke;-inkscape-stroke:hairline;stroke-width:0.26458333;stroke-dasharray:none" />
  <path
     d="M 77.3,188.9 V 179 c 0,-0.1 -0.1,0 0,0 h 2.9 c 0.055,0 0.1,-0.045 0.1,-0.1 v -9 c 0,-0.055 -0.045,-0.1 -0.1,-0.1 h -2.9 c -0.1,0 0,0.1 0,0 V 164 c 0,-0.1 -0.1,0 0,0 h 2.9 c 0.055,0 0.1,-0.045 0.1,-0.1 v -9 c 0,-0.055 -0.045,-0.1 -0.1,-0.1 h -2.9 c -0.1,0 0,0.1 0,0 V 149 c 0,-0.1 -0.1,0 0,0 h 2.9 c 0.055,0 0.1,-0.045 0.1,-0.1 v -9 c 0,-0.055 -0.045,-0.1 -0.1,-0.1 h -2.9 c -0.1,0 0,0.1 0,0 V 134 c 0,-0.1 -0.1,0 0,0 h 2.9 c 0.055,0 0.1,-0.045 0.1,-0.1 v -9 c 0,-0.055 -0.045,-0.1 -0.1,-0.1 h -2.9 c -0.1,0 0,0.1 0,0 V 119 c 0,-0.1 -0.1,0 0,0 h 2.9 c 0.055,0 0.1,-0.045 0.1,-0.1 v -9 c 0,-0.055 -0.045,-0.1 -0.1,-0.1 h -2.9 c -0.1,0 0,0.1 0,0 V 104 c 0,-0.1 -0.1,0 0,0 h 2.9 c 0.055,0 0.1,-0.045 0.1,-0.1 v -9 c 0,-0.055 -0.045,-0.1 -0.1,-0.1 h -2.9 c -0.1,0 0,0.1 0,0 v -9.9 c 0,-0.055 -0.045,-0.1 -0.1,-0.1 h -9.9 c -0.1,0 0,0.1 0,0 v -2.9 c 0,-0.055 -0.045,-0.1 -0.1,-0.1 h -9 c -0.055,0 -0.1,0.045 -0.1,0.1 v 2.9 c 0,0.1 0.1,0 0,0 h -5.8 c -0.1,0 0,0.1 0,0 v -2.9 c 0,-0.055 -0.045,-0.1 -0.1,-0.1 h -9 c -0.055,0 -0.1,0.045 -0.1,0.1 v 2.9 c 0,0.1 0.1,0 0,0 h -5.8 c -0.1,0 0,0.1 0,0 v -2.9 c 0,-0.055 -0.045,-0.1 -0.1,-0.1 h -9 c -0.055,0 -0.1,0.045 -0.1,0.1 v 2.9 c 0,0.1 0.1,0 0,0 h -5.8 c -0.1,0 0,0.1 0,0 v -2.9 c 0,-0.055 -0.045,-0.1 -0.1,-0.1 h -9 c -0.055,0 -0.1,0.045 -0.1,0.1 v 2.9 c 0,0.1 0.1,0 0,0 H 3.2 c -0.055,0 -0.1,0.045 -0.1,0.1 v 9.9 c 0,0.1 0.1,0 0,0 H 0.2 c -0.055,0 -0.1,0.045 -0.1,0.1 v 9 c 0,0.055 0.045,0.1 0.1,0.1 h 2.9 c 0.1,0 0,-0.1 0,0 v 5.8 c 0,0.1 0.1,0 0,0 H 0.2 c -0.055,0 -0.1,0.045 -0.1,0.1 v 9 c 0,0.055 0.045,0.1 0.1,0.1 h 2.9 c 0.1,0 0,-0.1 0,0 v 5.8 c 0,0.1 0.1,0 0,0 H 0.2 c -0.055,0 -0.1,0.045 -0.1,0.1 v 9 c 0,0.055 0.045,0.1 0.1,0.1 h 2.9 c 0.1,0 0,-0.1 0,0 v 5.8 c 0,0.1 0.1,0 0,0 H 0.2 c -0.055,0 -0.1,0.045 -0.1,0.1 v 9 c 0,0.055 0.045,0.1 0.1,0.1 h 2.9 c 0.1,0 0,-0.1 0,0 v 5.8 c 0,0.1 0.1,0 0,0 H 0.2 c -0.055,0 -0.1,0.045 -0.1,0.1 v 9 c 0,0.055 0.045,0.1 0.1,0.1 h 2.9 c 0.1,0 0,-0.1 0,0 v 5.8 c 0,0.1 0.1,0 0,0 H 0.2 c -0.055,0 -0.1,0.045 -0.1,0.1 v 9 c 0,0.055 0.045,0.1 0.1,0.1 h 2.9 c 0.1,0 0,-0.1 0,0 v 9.9 c 0,0.055 0.045,0.1 0.1,0.1 h 9.9 c 0.1,0 0,-0.1 0,0 v 2.9 c 0,0.055 0.045,0.1 0.1,0.1 h 9 c 0.055,0 0.1,-0.045 0.1,-0.1 V 189 c 0,-0.1 -0.1,0 0,0 h 5.8 c 0.1,0 0,-0.1 0,0 v 2.9 c 0,0.055 0.045,0.1 0.1,0.1 h 9 c 0.055,0 0.1,-0.045 0.1,-0.1 V 189 c 0,-0.1 -0.1,0 0,0 h 5.8 c 0.1,0 0,-0.1 0,0 v 2.9 c 0,0.055 0.045,0.1 0.1,0.1 h 9 c 0.055,0 0.1,-0.045 0.1,-0.1 V 189 c 0,-0.1 -0.1,0 0,0 h 5.8 c 0.1,0 0,-0.1 0,0 v 2.9 c 0,0.055 0.045,0.1 0.1,0.1 h 9 c 0.055,0 0.1,-0.045 0.1,-0.1 V 189 c 0,-0.1 -0.1,0 0,0 h 9.9 c 0.055,0 0.1,-0.045 0.1,-0.1 z"
     stroke="#000000"
     stroke-width="0.2"
     id="path1973"
     style="fill:none;stroke-linecap:round;stroke-linejoin:round;stroke:#ff0000;stroke-opacity:1;vector-effect:non-scaling-stroke;-inkscape-stroke:hairline;stroke-width:0.26458333;stroke-dasharray:none" />
  <path
     d="m 260.5,62.7 v 4.4 c 0,0.1 0.1,0 0,0 h -2.8 c -0.1,0 0,0.1 0,0 v -8.8 c 0,-0.1 -0.1,0 0,0 h 2.8 c 0.1,0 0,-0.1 0,0 z"
     stroke="#0000ff"
     stroke-width="0.2"
     id="path1976"
     style="fill:none;stroke-linecap:round;stroke-linejoin:round;stroke:#ff0000;stroke-opacity:1;vector-effect:non-scaling-stroke;-inkscape-stroke:hairline;stroke-width:0.26458333;stroke-dasharray:none" />
  <path
     d="m 260.5,47.7 v 4.4 c 0,0.1 0.1,0 0,0 h -2.8 c -0.1,0 0,0.1 0,0 v -8.8 c 0,-0.1 -0.1,0 0,0 h 2.8 c 0.1,0 0,-0.1 0,0 z"
     stroke="#0000ff"
     stroke-width="0.2"
     id="path1978"
     style="fill:none;stroke-linecap:round;stroke-linejoin:round;stroke:#ff0000;stroke-opacity:1;vector-effect:non-scaling-stroke;-inkscape-stroke:hairline;stroke-width:0.26458333;stroke-dasharray:none" />
  <path
     d="m 260.5,32.7 v 4.4 c 0,0.1 0.1,0 0,0 h -2.8 c -0.1,0 0,0.1 0,0 v -8.8 c 0,-0.1 -0.1,0 0,0 h 2.8 c 0.1,0 0,-0.1 0,0 z"
     stroke="#0000ff"
     stroke-width="0.2"
     id="path1980"
     style="fill:none;stroke-linecap:round;stroke-linejoin:round;stroke:#ff0000;stroke-opacity:1;vector-effect:non-scaling-stroke;-inkscape-stroke:hairline;stroke-width:0.26458333;stroke-dasharray:none" />
  <path
     d="m 260.5,17.7 v 4.4 c 0,0.1 0.1,0 0,0 h -2.8 c -0.1,0 0,0.1 0,0 v -8.8 c 0,-0.1 -0.1,0 0,0 h 2.8 c 0.1,0 0,-0.1 0,0 z"
     stroke="#0000ff"
     stroke-width="0.2"
     id="path1982"
     style="fill:none;stroke-linecap:round;stroke-linejoin:round;stroke:#ff0000;stroke-opacity:1;vector-effect:non-scaling-stroke;-inkscape-stroke:hairline;stroke-width:0.26458333;stroke-dasharray:none" />
  <path
     d="m 263.7,77.2 v -74 c 0,-0.055 -0.045,-0.1 -0.1,-0.1 h -10.4 c -0.1,0 0,0.1 0,0 V 0.2 c 0,-0.055 -0.045,-0.1 -0.1,-0.1 h -9 c -0.055,0 -0.1,0.045 -0.1,0.1 v 2.9 c 0,0.1 0.1,0 0,0 h -5.8 c -0.1,0 0,0.1 0,0 V 0.2 c 0,-0.055 -0.045,-0.1 -0.1,-0.1 h -9 c -0.055,0 -0.1,0.045 -0.1,0.1 v 2.9 c 0,0.1 0.1,0 0,0 h -5.8 c -0.1,0 0,0.1 0,0 V 0.2 c 0,-0.055 -0.045,-0.1 -0.1,-0.1 h -9 c -0.055,0 -0.1,0.045 -0.1,0.1 v 2.9 c 0,0.1 0.1,0 0,0 h -5.8 c -0.1,0 0,0.1 0,0 V 0.2 c 0,-0.055 -0.045,-0.1 -0.1,-0.1 h -9 c -0.055,0 -0.1,0.045 -0.1,0.1 v 2.9 c 0,0.1 0.1,0 0,0 h -5.8 c -0.1,0 0,0.1 0,0 V 0.2 c 0,-0.055 -0.045,-0.1 -0.1,-0.1 h -9 c -0.055,0 -0.1,0.045 -0.1,0.1 v 2.9 c 0,0.1 0.1,0 0,0 h -10.4 c -0.055,0 -0.1,0.045 -0.1,0.1 v 74 c 0,0.055 0.045,0.1 0.1,0.1 H 184 c 0.1,0 0,-0.1 0,0 v 2.9 c 0,0.055 0.045,0.1 0.1,0.1 h 9 c 0.055,0 0.1,-0.045 0.1,-0.1 v -2.9 c 0,-0.1 -0.1,0 0,0 h 5.8 c 0.1,0 0,-0.1 0,0 v 2.9 c 0,0.055 0.045,0.1 0.1,0.1 h 9 c 0.055,0 0.1,-0.045 0.1,-0.1 v -2.9 c 0,-0.1 -0.1,0 0,0 h 5.8 c 0.1,0 0,-0.1 0,0 v 2.9 c 0,0.055 0.045,0.1 0.1,0.1 h 9 c 0.055,0 0.1,-0.045 0.1,-0.1 v -2.9 c 0,-0.1 -0.1,0 0,0 h 5.8 c 0.1,0 0,-0.1 0,0 v 2.9 c 0,0.055 0.045,0.1 0.1,0.1 h 9 c 0.055,0 0.1,-0.045 0.1,-0.1 v -2.9 c 0,-0.1 -0.1,0 0,0 h 5.8 c 0.1,0 0,-0.1 0,0 v 2.9 c 0,0.055 0.045,0.1 0.1,0.1 h 9 c 0.055,0 0.1,-0.045 0.1,-0.1 v -2.9 c 0,-0.1 -0.1,0 0,0 h 10.4 c 0.055,0 0.1,-0.045 0.1,-0.1 z"
     stroke="#000000"
     stroke-width="0.2"
     id="path1984"
     style="fill:none;stroke-linecap:round;stroke-linejoin:round;stroke:#ff0000;stroke-opacity:1;vector-effect:non-scaling-stroke;-inkscape-stroke:hairline;stroke-width:0.26458333;stroke-dasharray:none" />
  <path
     d="m 168.8,62.7 v 4.4 c 0,0.1 0.1,0 0,0 H 166 c -0.1,0 0,0.1 0,0 v -8.8 c 0,-0.1 -0.1,0 0,0 h 2.8 c 0.1,0 0,-0.1 0,0 z"
     stroke="#0000ff"
     stroke-width="0.2"
     id="path1987"
     style="fill:none;stroke-linecap:round;stroke-linejoin:round;stroke:#ff0000;stroke-opacity:1;vector-effect:non-scaling-stroke;-inkscape-stroke:hairline;stroke-width:0.26458333;stroke-dasharray:none" />
  <path
     d="m 168.8,47.7 v 4.4 c 0,0.1 0.1,0 0,0 H 166 c -0.1,0 0,0.1 0,0 v -8.8 c 0,-0.1 -0.1,0 0,0 h 2.8 c 0.1,0 0,-0.1 0,0 z"
     stroke="#0000ff"
     stroke-width="0.2"
     id="path1989"
     style="fill:none;stroke-linecap:round;stroke-linejoin:round;stroke:#ff0000;stroke-opacity:1;vector-effect:non-scaling-stroke;-inkscape-stroke:hairline;stroke-width:0.26458333;stroke-dasharray:none" />
  <path
     d="m 168.8,32.7 v 4.4 c 0,0.1 0.1,0 0,0 H 166 c -0.1,0 0,0.1 0,0 v -8.8 c 0,-0.1 -0.1,0 0,0 h 2.8 c 0.1,0 0,-0.1 0,0 z"
     stroke="#0000ff"
     stroke-width="0.2"
     id="path1991"
     style="fill:none;stroke-linecap:round;stroke-linejoin:round;stroke:#ff0000;stroke-opacity:1;vector-effect:non-scaling-stroke;-inkscape-stroke:hairline;stroke-width:0.26458333;stroke-dasharray:none" />
  <path
     d="m 168.8,17.7 v 4.4 c 0,0.1 0.1,0 0,0 H 166 c -0.1,0 0,0.1 0,0 v -8.8 c 0,-0.1 -0.1,0 0,0 h 2.8 c 0.1,0 0,-0.1 0,0 z"
     stroke="#0000ff"
     stroke-width="0.2"
     id="path1993"
     style="fill:none;stroke-linecap:round;stroke-linejoin:round;stroke:#ff0000;stroke-opacity:1;vector-effect:non-scaling-stroke;-inkscape-stroke:hairline;stroke-width:0.26458333;stroke-dasharray:none" />
  <path
     d="m 172,77.2 v -74 c 0,-0.055 -0.045,-0.1 -0.1,-0.1 h -10.4 c -0.1,0 0,0.1 0,0 V 0.2 c 0,-0.055 -0.045,-0.1 -0.1,-0.1 h -9 c -0.055,0 -0.1,0.045 -0.1,0.1 v 2.9 c 0,0.1 0.1,0 0,0 h -5.8 c -0.1,0 0,0.1 0,0 V 0.2 c 0,-0.055 -0.045,-0.1 -0.1,-0.1 h -9 c -0.055,0 -0.1,0.045 -0.1,0.1 v 2.9 c 0,0.1 0.1,0 0,0 h -5.8 c -0.1,0 0,0.1 0,0 V 0.2 c 0,-0.055 -0.045,-0.1 -0.1,-0.1 h -9 c -0.055,0 -0.1,0.045 -0.1,0.1 v 2.9 c 0,0.1 0.1,0 0,0 h -5.8 c -0.1,0 0,0.1 0,0 V 0.2 c 0,-0.055 -0.045,-0.1 -0.1,-0.1 h -9 c -0.055,0 -0.1,0.045 -0.1,0.1 v 2.9 c 0,0.1 0.1,0 0,0 h -5.8 c -0.1,0 0,0.1 0,0 V 0.2 c 0,-0.055 -0.045,-0.1 -0.1,-0.1 h -9 c -0.055,0 -0.1,0.045 -0.1,0.1 v 2.9 c 0,0.1 0.1,0 0,0 H 81.9 c -0.055,0 -0.1,0.045 -0.1,0.1 v 74 c 0,0.055 0.045,0.1 0.1,0.1 h 10.4 c 0.1,0 0,-0.1 0,0 v 2.9 c 0,0.055 0.045,0.1 0.1,0.1 h 9 c 0.055,0 0.1,-0.045 0.1,-0.1 v -2.9 c 0,-0.1 -0.1,0 0,0 h 5.8 c 0.1,0 0,-0.1 0,0 v 2.9 c 0,0.055 0.045,0.1 0.1,0.1 h 9 c 0.055,0 0.1,-0.045 0.1,-0.1 v -2.9 c 0,-0.1 -0.1,0 0,0 h 5.8 c 0.1,0 0,-0.1 0,0 v 2.9 c 0,0.055 0.045,0.1 0.1,0.1 h 9 c 0.055,0 0.1,-0.045 0.1,-0.1 v -2.9 c 0,-0.1 -0.1,0 0,0 h 5.8 c 0.1,0 0,-0.1 0,0 v 2.9 c 0,0.055 0.045,0.1 0.1,0.1 h 9 c 0.055,0 0.1,-0.045 0.1,-0.1 v -2.9 c 0,-0.1 -0.1,0 0,0 h 5.8 c 0.1,0 0,-0.1 0,0 v 2.9 c 0,0.055 0.045,0.1 0.1,0.1 h 9 c 0.055,0 0.1,-0.045 0.1,-0.1 v -2.9 c 0,-0.1 -0.1,0 0,0 h 10.4 c 0.055,0 0.1,-0.045 0.1,-0.1 z"
     stroke="#000000"
     stroke-width="0.2"
     id="path1995"
     style="fill:none;stroke-linecap:round;stroke-linejoin:round;stroke:#ff0000;stroke-opacity:1;vector-effect:non-scaling-stroke;-inkscape-stroke:hairline;stroke-width:0.26458333;stroke-dasharray:none" />
  <path
     d="m 28.72243,25.368696 h -3.307294 v -5.64996 H 20.53171 v 5.64996 H 17.224416 V 12.54432 h 3.307294 v 4.693945 h 4.883426 V 12.54432 h 3.307294 z"
     style="font-weight:bold;font-size:17.6389px;line-height:1.25;-inkscape-font-specification:'sans-serif Bold';fill:none;stroke:#ff0000;stroke-width:0.26458333;stroke-opacity:1;vector-effect:non-scaling-stroke;-inkscape-stroke:hairline;stroke-dasharray:none"
     id="path2966" />
  <path
     d="m 38.928532,25.368696 h -7.510313 v -2.273764 h 2.10151 v -8.276848 h -2.10151 V 12.54432 h 7.510313 v 2.273764 h -2.101509 v 8.276848 h 2.101509 z"
     style="font-weight:bold;font-size:17.6389px;line-height:1.25;-inkscape-font-specification:'sans-serif Bold';fill:none;stroke:#ff0000;stroke-width:0.26458333;stroke-opacity:1;vector-effect:non-scaling-stroke;-inkscape-stroke:hairline;stroke-dasharray:none"
     id="path2968" />
  <path
     d="M 51.65817,15.02479 H 47.653243 V 25.368696 H 44.345949 V 15.02479 H 40.341023 V 12.54432 H 51.65817 Z"
     style="font-weight:bold;font-size:17.6389px;line-height:1.25;-inkscape-font-specification:'sans-serif Bold';fill:none;stroke:#ff0000;stroke-width:0.26458333;stroke-opacity:1;vector-effect:non-scaling-stroke;-inkscape-stroke:hairline;stroke-dasharray:none"
     id="path2970" />
  <path
     d="m 57.359807,12.54432 -0.396186,9.129509 H 54.155866 L 53.75968,12.54432 Z m -0.06029,12.824376 h -3.479549 v -2.273764 h 3.479549 z"
     style="font-weight:bold;font-size:17.6389px;line-height:1.25;-inkscape-font-specification:'sans-serif Bold';fill:none;stroke:#ff0000;stroke-width:0.26458333;stroke-opacity:1;vector-effect:non-scaling-stroke;-inkscape-stroke:hairline;stroke-dasharray:none"
     id="path2972" />
  <rect
     style="fill:none;stroke:#ff0000;stroke-width:0.26458333;stroke-linecap:round;stroke-dasharray:none;stroke-opacity:1;stop-color:#000000;vector-effect:non-scaling-stroke;-inkscape-stroke:hairline"
     id="rect2939"
     width="71.827034"
     height="36.066338"
     x="2.1395288"
     y="0.61129391" />
  <path
     d="m 20.692258,61.708458 h -2.632051 v -6.869515 l -1.901692,4.45795 h -1.825899 l -1.901691,-4.45795 v 6.869515 H 9.9366778 V 51.448972 h 3.0730232 l 2.308212,5.146968 2.301322,-5.146968 h 3.073023 z"
     style="font-weight:bold;font-size:14.1111px;line-height:1.25;-inkscape-font-specification:'sans-serif Bold';fill:none;stroke:#ff0000;stroke-width:0.26458333;stroke-opacity:1;vector-effect:non-scaling-stroke;-inkscape-stroke:hairline;stroke-dasharray:none"
     id="path2947" />
  <path
     d="m 28.857127,61.708458 h -6.008242 v -1.819009 h 1.681205 v -6.621468 h -1.681205 v -1.819009 h 6.008242 v 1.819009 h -1.681205 v 6.621468 h 1.681205 z"
     style="font-weight:bold;font-size:14.1111px;line-height:1.25;-inkscape-font-specification:'sans-serif Bold';fill:none;stroke:#ff0000;stroke-width:0.26458333;stroke-opacity:1;vector-effect:non-scaling-stroke;-inkscape-stroke:hairline;stroke-dasharray:none"
     id="path2949" />
  <path
     d="m 39.226857,58.483851 q 0,1.515841 -1.288465,2.466687 -1.281574,0.943955 -3.486434,0.943955 -1.274684,0 -2.22553,-0.220486 -0.943955,-0.227376 -1.770777,-0.571885 v -2.459797 h 0.289387 q 0.819932,0.654568 1.83279,1.005967 1.019747,0.3514 1.956812,0.3514 0.241157,0 0.633898,-0.04134 0.39274,-0.04134 0.640787,-0.137804 0.303168,-0.124023 0.496093,-0.310058 0.199816,-0.186035 0.199816,-0.551215 0,-0.337619 -0.289388,-0.578776 -0.282498,-0.248046 -0.833713,-0.37896 -0.578775,-0.137804 -1.226453,-0.254937 -0.640787,-0.124023 -1.205782,-0.310058 -1.295355,-0.420301 -1.867241,-1.136881 -0.564995,-0.723469 -0.564995,-1.791448 0,-1.433159 1.281575,-2.335773 1.288465,-0.909504 3.307289,-0.909504 1.012857,0 1.998154,0.199815 0.992186,0.192925 1.715656,0.489203 v 2.363334 h -0.282498 q -0.620116,-0.496094 -1.522731,-0.826823 -0.895724,-0.337619 -1.832789,-0.337619 -0.330729,0 -0.661458,0.04823 -0.323839,0.04134 -0.627007,0.165364 -0.268717,0.103353 -0.461642,0.316949 -0.192925,0.206705 -0.192925,0.475422 0,0.406521 0.310058,0.627007 0.310058,0.213596 1.171332,0.392741 0.564995,0.117133 1.081759,0.227376 0.523654,0.110243 1.1231,0.303168 1.178222,0.385851 1.736327,1.054199 0.564995,0.661457 0.564995,1.722547 z"
     style="font-weight:bold;font-size:14.1111px;line-height:1.25;-inkscape-font-specification:'sans-serif Bold';fill:none;stroke:#ff0000;stroke-width:0.26458333;stroke-opacity:1;vector-effect:non-scaling-stroke;-inkscape-stroke:hairline;stroke-dasharray:none"
     id="path2951" />
  <path
     d="m 49.252076,58.483851 q 0,1.515841 -1.288465,2.466687 -1.281574,0.943955 -3.486434,0.943955 -1.274684,0 -2.22553,-0.220486 -0.943955,-0.227376 -1.770777,-0.571885 v -2.459797 h 0.289387 q 0.819932,0.654568 1.83279,1.005967 1.019747,0.3514 1.956812,0.3514 0.241157,0 0.633898,-0.04134 0.39274,-0.04134 0.640787,-0.137804 0.303168,-0.124023 0.496093,-0.310058 0.199816,-0.186035 0.199816,-0.551215 0,-0.337619 -0.289388,-0.578776 -0.282498,-0.248046 -0.833713,-0.37896 -0.578775,-0.137804 -1.226453,-0.254937 -0.640787,-0.124023 -1.205782,-0.310058 -1.295355,-0.420301 -1.867241,-1.136881 -0.564995,-0.723469 -0.564995,-1.791448 0,-1.433159 1.281575,-2.335773 1.288464,-0.909504 3.307289,-0.909504 1.012857,0 1.998154,0.199815 0.992186,0.192925 1.715656,0.489203 v 2.363334 h -0.282498 q -0.620116,-0.496094 -1.522731,-0.826823 -0.895724,-0.337619 -1.832789,-0.337619 -0.330729,0 -0.661458,0.04823 -0.323839,0.04134 -0.627007,0.165364 -0.268717,0.103353 -0.461642,0.316949 -0.192925,0.206705 -0.192925,0.475422 0,0.406521 0.310058,0.627007 0.310058,0.213596 1.171331,0.392741 0.564996,0.117133 1.08176,0.227376 0.523654,0.110243 1.1231,0.303168 1.178222,0.385851 1.736327,1.054199 0.564995,0.661457 0.564995,1.722547 z"
     style="font-weight:bold;font-size:14.1111px;line-height:1.25;-inkscape-font-specification:'sans-serif Bold';fill:none;stroke:#ff0000;stroke-width:0.26458333;stroke-opacity:1;vector-effect:non-scaling-stroke;-inkscape-stroke:hairline;stroke-dasharray:none"
     id="path2953" />
  <path
     d="M 58.705409,56.678622 H 56.12848 v -2.707843 h 2.576929 z m 0,5.029836 H 56.12848 v -2.707843 h 2.576929 z"
     style="font-weight:bold;font-size:14.1111px;line-height:1.25;-inkscape-font-specification:'sans-serif Bold';fill:none;stroke:#ff0000;stroke-width:0.26458333;stroke-opacity:1;vector-effect:non-scaling-stroke;-inkscape-stroke:hairline;stroke-dasharray:none"
     id="path2955" />
  <path
     d="m 66.780707,64.547214 h -2.5976 q -1.322916,-1.550291 -1.963703,-3.190156 -0.633897,-1.639864 -0.633897,-3.589786 0,-1.949923 0.633897,-3.589787 0.640787,-1.639864 1.963703,-3.190156 h 2.5976 v 0.199815 q -0.558105,0.502984 -1.067979,1.143771 -0.502983,0.633897 -0.937065,1.48828 -0.413411,0.819932 -0.675238,1.819009 -0.254937,0.999077 -0.254937,2.129068 0,1.178222 0.248046,2.135957 0.254937,0.957736 0.682129,1.812119 0.413411,0.813042 0.930175,1.4745 0.523654,0.668348 1.074869,1.157551 z"
     style="font-weight:bold;font-size:14.1111px;line-height:1.25;-inkscape-font-specification:'sans-serif Bold';fill:none;stroke:#ff0000;stroke-width:0.26458333;stroke-opacity:1;vector-effect:non-scaling-stroke;-inkscape-stroke:hairline;stroke-dasharray:none"
     id="path2957" />
  <rect
     style="fill:none;stroke:#ff0000;stroke-width:0.26458333;stroke-linecap:round;stroke-dasharray:none;stroke-opacity:1;stop-color:#000000;vector-effect:non-scaling-stroke;-inkscape-stroke:hairline"
     id="rect2945"
     width="71.827034"
     height="36.066338"
     x="2.4451756"
     y="39.734104" />
</svg>
