<?xml version="1.0" encoding="UTF-8" standalone="no"?>
<!-- Created with Inkscape (http://www.inkscape.org/) -->

<svg
   width="281.64691mm"
   height="53.700085mm"
   viewBox="0 0 281.64691 53.700085"
   version="1.1"
   id="svg2354"
   inkscape:version="1.2.1 (9c6d41e, 2022-07-14)"
   sodipodi:docname="letters.svg"
   xmlns:inkscape="http://www.inkscape.org/namespaces/inkscape"
   xmlns:sodipodi="http://sodipodi.sourceforge.net/DTD/sodipodi-0.dtd"
   xmlns="http://www.w3.org/2000/svg"
   xmlns:svg="http://www.w3.org/2000/svg">
  <sodipodi:namedview
     id="namedview2356"
     pagecolor="#ffffff"
     bordercolor="#666666"
     borderopacity="1.0"
     inkscape:showpageshadow="2"
     inkscape:pageopacity="0.0"
     inkscape:pagecheckerboard="0"
     inkscape:deskcolor="#d1d1d1"
     inkscape:document-units="mm"
     showgrid="false"
     inkscape:zoom="0.77236049"
     inkscape:cx="374.82497"
     inkscape:cy="117.82063"
     inkscape:window-width="1280"
     inkscape:window-height="430"
     inkscape:window-x="0"
     inkscape:window-y="25"
     inkscape:window-maximized="0"
     inkscape:current-layer="layer1" />
  <defs
     id="defs2351" />
  <g
     inkscape:label="Layer 1"
     inkscape:groupmode="layer"
     id="layer1"
     transform="translate(-3.8137054,-5.7029457)">
    <g
       aria-label="ABCDEFGHIJKL"
       id="text6475"
       style="font-size:31.75px;line-height:1.25;vector-effect:non-scaling-stroke;fill:none;stroke:#ff0000;stroke-width:0.264583;stroke-dasharray:none;-inkscape-stroke:hairline">
      <path
         d="M 20.091782,25.066105 H 12.09227 l -1.100708,3.751709 H 3.8137054 L 12.35582,6.090519 h 7.658447 l 8.542114,22.727295 h -7.348388 z m -1.472779,-4.914429 -2.511474,-8.170044 -2.495972,8.170044 z"
         style="font-family:'Arial Black';-inkscape-font-specification:'Arial Black, ';text-align:center;text-anchor:middle;vector-effect:non-scaling-stroke;stroke-width:0.264583;stroke-dasharray:none;-inkscape-stroke:hairline"
         id="path27851" />
      <path
         d="m 30.819809,6.090519 h 13.146484 q 3.286621,0 5.038452,1.6278076 1.767334,1.6278076 1.767334,4.0307614 0,2.015381 -1.255737,3.457154 -0.837158,0.961181 -2.449463,1.519287 2.449463,0.589111 3.59668,2.030884 1.16272,1.426269 1.16272,3.596679 0,1.767334 -0.821656,3.178101 -0.821655,1.410766 -2.247924,2.232422 -0.883667,0.511596 -2.666504,0.74414 -2.371949,0.310059 -3.147095,0.310059 H 30.819809 Z m 7.084839,8.914185 h 3.054077 q 1.643311,0 2.278931,-0.558106 0.651123,-0.573608 0.651123,-1.64331 0,-0.992188 -0.651123,-1.550293 -0.63562,-0.558106 -2.232422,-0.558106 h -3.100586 z m 0,8.929687 h 3.581177 q 1.813842,0 2.557983,-0.63562 0.744141,-0.651123 0.744141,-1.736328 0,-1.007691 -0.744141,-1.612305 -0.728638,-0.620117 -2.573486,-0.620117 h -3.565674 z"
         style="font-family:'Arial Black';-inkscape-font-specification:'Arial Black, ';text-align:center;text-anchor:middle;vector-effect:non-scaling-stroke;stroke-width:0.264583;stroke-dasharray:none;-inkscape-stroke:hairline"
         id="path27853" />
      <path
         d="m 70.631332,19.531559 6.154663,1.860352 q -0.620117,2.588989 -1.953369,4.325317 -1.333252,1.736328 -3.317627,2.619995 -1.968872,0.883667 -5.022949,0.883667 -3.7052,0 -6.061645,-1.069702 -2.340943,-1.085205 -4.046265,-3.798218 -1.705322,-2.713013 -1.705322,-6.945312 0,-5.643067 2.992065,-8.6661381 3.007569,-3.0385742 8.495606,-3.0385742 4.294311,0 6.743774,1.7363281 2.464966,1.7363282 3.658691,5.3330082 l -6.201171,1.37976 q -0.325562,-1.038696 -0.682129,-1.519287 -0.589112,-0.806152 -1.441773,-1.240234 -0.852661,-0.434082 -1.90686,-0.434082 -2.387451,0 -3.658692,1.922363 -0.961181,1.42627 -0.961181,4.480347 0,3.782715 1.147217,5.193481 1.147216,1.395264 3.224609,1.395264 2.015381,0 3.038574,-1.131714 1.038697,-1.131714 1.503784,-3.286621 z"
         style="font-family:'Arial Black';-inkscape-font-specification:'Arial Black, ';text-align:center;text-anchor:middle;vector-effect:non-scaling-stroke;stroke-width:0.264583;stroke-dasharray:none;-inkscape-stroke:hairline"
         id="path27855" />
      <path
         d="m 80.289658,6.090519 h 10.433471 q 3.085083,0 4.976441,0.8371582 1.90686,0.8371582 3.147094,2.4029541 1.240236,1.5657957 1.798336,3.6431887 0.55811,2.077392 0.55811,4.402832 0,3.643188 -0.83716,5.658569 -0.821654,1.999878 -2.294432,3.364136 -1.472778,1.348755 -3.162598,1.79834 -2.309936,0.620117 -4.185791,0.620117 H 80.289658 Z m 7.022827,5.146973 v 12.417846 h 1.720825 q 2.201416,0 3.131592,-0.480591 0.930176,-0.496093 1.457275,-1.705322 0.5271,-1.224731 0.5271,-3.953247 0,-3.612182 -1.178223,-4.945434 -1.178223,-1.333252 -3.906738,-1.333252 z"
         style="font-family:'Arial Black';-inkscape-font-specification:'Arial Black, ';text-align:center;text-anchor:middle;vector-effect:non-scaling-stroke;stroke-width:0.264583;stroke-dasharray:none;-inkscape-stroke:hairline"
         id="path27857" />
      <path
         d="m 104.8773,6.090519 h 18.82056 v 4.852417 h -11.78223 v 3.612183 h 10.92957 v 4.635376 h -10.92957 v 4.480346 h 12.1233 v 5.146973 H 104.8773 Z"
         style="font-family:'Arial Black';-inkscape-font-specification:'Arial Black, ';text-align:center;text-anchor:middle;vector-effect:non-scaling-stroke;stroke-width:0.264583;stroke-dasharray:none;-inkscape-stroke:hairline"
         id="path27859" />
      <path
         d="m 127.85265,6.090519 h 17.36328 v 4.883423 h -10.30945 v 3.96875 h 8.80566 v 4.588867 h -8.80566 v 9.286255 h -7.05383 z"
         style="font-family:'Arial Black';-inkscape-font-specification:'Arial Black, ';text-align:center;text-anchor:middle;vector-effect:non-scaling-stroke;stroke-width:0.264583;stroke-dasharray:none;-inkscape-stroke:hairline"
         id="path27861" />
      <path
         d="m 160.4243,20.585758 v -4.728393 h 10.85205 v 9.689331 q -3.11609,2.123901 -5.51904,2.899048 -2.38745,0.759643 -5.67407,0.759643 -4.04627,0 -6.60425,-1.379761 -2.54248,-1.37976 -3.95325,-4.108276 -1.39526,-2.728516 -1.39526,-6.263184 0,-3.720703 1.53479,-6.464721 1.53479,-2.7595218 4.49585,-4.1857913 2.30993,-1.100708 6.21667,-1.100708 3.76721,0 5.62757,0.6821289 1.87585,0.6821289 3.10058,2.1239014 1.24024,1.4262695 1.86035,3.627686 l -6.77478,1.209228 q -0.41858,-1.286743 -1.42627,-1.968872 -0.99218,-0.682129 -2.54248,-0.682129 -2.30993,0 -3.68969,1.612305 -1.36426,1.596802 -1.36426,5.069458 0,3.689697 1.37976,5.270996 1.39526,1.581299 3.87573,1.581299 1.17822,0 2.24793,-0.341065 1.0697,-0.341064 2.44946,-1.162719 v -2.139405 z"
         style="font-family:'Arial Black';-inkscape-font-specification:'Arial Black, ';text-align:center;text-anchor:middle;vector-effect:non-scaling-stroke;stroke-width:0.264583;stroke-dasharray:none;-inkscape-stroke:hairline"
         id="path27863" />
      <path
         d="m 175.47765,6.090519 h 7.02282 v 7.953003 h 7.67395 V 6.090519 h 7.05384 v 22.727295 h -7.05384 v -9.193237 h -7.67395 v 9.193237 h -7.02282 z"
         style="font-family:'Arial Black';-inkscape-font-specification:'Arial Black, ';text-align:center;text-anchor:middle;vector-effect:non-scaling-stroke;stroke-width:0.264583;stroke-dasharray:none;-inkscape-stroke:hairline"
         id="path27865" />
      <path
         d="m 202.17369,6.090519 h 7.03833 v 22.727295 h -7.03833 z"
         style="font-family:'Arial Black';-inkscape-font-specification:'Arial Black, ';text-align:center;text-anchor:middle;vector-effect:non-scaling-stroke;stroke-width:0.264583;stroke-dasharray:none;-inkscape-stroke:hairline"
         id="path27867" />
      <path
         d="m 223.70726,6.090519 h 7.03833 v 12.355835 q 0,3.891235 -0.69763,5.922119 -0.68213,2.030884 -2.77503,3.44165 -2.07739,1.410767 -5.333,1.410767 -3.44165,0 -5.33301,-0.930176 -1.89136,-0.930176 -2.93006,-2.713012 -1.02319,-1.79834 -1.20922,-4.433838 l 6.71276,-0.914673 q 0.0155,1.503784 0.26355,2.232422 0.24805,0.728637 0.83716,1.178222 0.40308,0.294556 1.14722,0.294556 1.17822,0 1.72082,-0.868164 0.55811,-0.883667 0.55811,-2.96106 z"
         style="font-family:'Arial Black';-inkscape-font-specification:'Arial Black, ';text-align:center;text-anchor:middle;vector-effect:non-scaling-stroke;stroke-width:0.264583;stroke-dasharray:none;-inkscape-stroke:hairline"
         id="path27869" />
      <path
         d="m 235.45848,6.090519 h 7.02283 v 8.588623 l 7.36389,-8.588623 h 9.33276 l -8.27856,8.57312 8.65063,14.154175 h -8.65063 l -4.79041,-9.348267 -3.62768,3.798218 v 5.550049 h -7.02283 z"
         style="font-family:'Arial Black';-inkscape-font-specification:'Arial Black, ';text-align:center;text-anchor:middle;vector-effect:non-scaling-stroke;stroke-width:0.264583;stroke-dasharray:none;-inkscape-stroke:hairline"
         id="path27871" />
      <path
         d="m 261.87547,6.090519 h 7.02283 v 17.130737 h 10.96057 v 5.596558 h -17.9834 z"
         style="font-family:'Arial Black';-inkscape-font-specification:'Arial Black, ';text-align:center;text-anchor:middle;vector-effect:non-scaling-stroke;stroke-width:0.264583;stroke-dasharray:none;-inkscape-stroke:hairline"
         id="path27873" />
    </g>
    <g
       aria-label="123456789"
       id="text7056"
       style="font-size:31.75px;line-height:1.25;vector-effect:non-scaling-stroke;fill:none;stroke:#ff0000;stroke-width:0.264583;stroke-dasharray:none;-inkscape-stroke:hairline">
      <path
         d="M 16.862434,35.900589 V 59.015457 H 10.475227 V 43.869095 q -1.5502926,1.178223 -3.007568,1.90686 -1.4417725,0.728638 -3.6276856,1.395264 V 41.99324 q 3.2246094,-1.038696 5.0074463,-2.495971 1.7828373,-1.457276 2.7905273,-3.59668 z"
         style="font-family:'Arial Black';-inkscape-font-specification:'Arial Black, ';text-align:center;text-anchor:middle;vector-effect:non-scaling-stroke;stroke-width:0.264583;stroke-dasharray:none;-inkscape-stroke:hairline"
         id="path27832" />
      <path
         d="m 42.209724,59.015457 h -18.94458 q 0.325562,-2.80603 1.968872,-5.270996 1.658814,-2.480469 6.201172,-5.844604 2.775025,-2.06189 3.550171,-3.131592 0.775147,-1.069702 0.775147,-2.030884 0,-1.038696 -0.775147,-1.767334 -0.759643,-0.744141 -1.922363,-0.744141 -1.209229,0 -1.984375,0.759644 -0.759644,0.759643 -1.023193,2.682007 L 23.730232,43.15596 q 0.372071,-2.666504 1.364258,-4.154785 0.992188,-1.503784 2.790527,-2.294434 1.813843,-0.806152 5.007447,-0.806152 3.33313,0 5.177978,0.759644 1.860352,0.759643 2.914551,2.340942 1.069702,1.565796 1.069702,3.519165 0,2.077393 -1.224731,3.96875 -1.209229,1.891357 -4.418335,4.154785 -1.906861,1.317749 -2.557984,1.844849 -0.63562,0.527099 -1.503784,1.37976 h 9.859863 z"
         style="font-family:'Arial Black';-inkscape-font-specification:'Arial Black, ';text-align:center;text-anchor:middle;vector-effect:non-scaling-stroke;stroke-width:0.264583;stroke-dasharray:none;-inkscape-stroke:hairline"
         id="path27834" />
      <path
         d="m 51.030891,42.861404 -5.968628,-1.069702 q 0.744141,-2.852539 2.85254,-4.371826 2.123901,-1.519287 5.999633,-1.519287 4.449341,0 6.433716,1.658813 1.984375,1.658814 1.984375,4.170289 0,1.472778 -0.806152,2.666503 -0.806153,1.193726 -2.43396,2.092896 1.317749,0.325561 2.015381,0.759644 1.131714,0.697631 1.751831,1.844848 0.63562,1.131714 0.63562,2.713013 0,1.984375 -1.038696,3.813721 -1.038697,1.813842 -2.992066,2.80603 -1.953369,0.976684 -5.13147,0.976684 -3.100585,0 -4.898925,-0.728637 -1.782837,-0.728638 -2.945557,-2.123902 -1.147217,-1.410766 -1.767334,-3.534668 l 6.309692,-0.837158 q 0.372071,1.906861 1.147217,2.651001 0.79065,0.728638 1.999878,0.728638 1.27124,0 2.108399,-0.930176 0.852661,-0.930176 0.852661,-2.480469 0,-1.581299 -0.821656,-2.449463 -0.806152,-0.868164 -2.201416,-0.868164 -0.74414,0 -2.046386,0.372071 l 0.325561,-4.511353 q 0.5271,0.07751 0.821656,0.07751 1.240234,0 2.061889,-0.79065 0.837158,-0.790649 0.837158,-1.875854 0,-1.038696 -0.620117,-1.658814 -0.620117,-0.620117 -1.705322,-0.620117 -1.116211,0 -1.813843,0.682129 -0.697632,0.666626 -0.945679,2.356445 z"
         style="font-family:'Arial Black';-inkscape-font-specification:'Arial Black, ';text-align:center;text-anchor:middle;vector-effect:non-scaling-stroke;stroke-width:0.264583;stroke-dasharray:none;-inkscape-stroke:hairline"
         id="path27836" />
      <path
         d="M 76.936287,54.767654 H 65.433113 V 49.574173 L 76.936287,35.900589 h 5.50354 v 13.96814 h 2.852539 v 4.898925 h -2.852539 v 4.247803 h -5.50354 z m 0,-4.898925 v -7.146851 l -6.077149,7.146851 z"
         style="font-family:'Arial Black';-inkscape-font-specification:'Arial Black, ';text-align:center;text-anchor:middle;vector-effect:non-scaling-stroke;stroke-width:0.264583;stroke-dasharray:none;-inkscape-stroke:hairline"
         id="path27838" />
      <path
         d="m 89.819221,36.288162 h 14.991329 v 5.038452 H 94.656136 l -0.542603,3.410645 q 1.054199,-0.496094 2.077393,-0.744141 1.038696,-0.248047 2.046386,-0.248047 3.410648,0 5.534548,2.06189 2.1239,2.06189 2.1239,5.193482 0,2.201416 -1.10071,4.232299 -1.0852,2.030884 -3.10058,3.100586 -1.999882,1.069702 -5.131474,1.069702 -2.247925,0 -3.86023,-0.418579 -1.596801,-0.434082 -2.728515,-1.27124 -1.116211,-0.852661 -1.813843,-1.922363 -0.697632,-1.069702 -1.16272,-2.666504 l 6.387207,-0.697632 q 0.232544,1.53479 1.085205,2.340942 0.852662,0.79065 2.030884,0.79065 1.317749,0 2.17041,-0.992188 0.868164,-1.00769 0.868164,-2.992065 0,-2.030884 -0.868164,-2.976563 -0.868164,-0.945678 -2.309936,-0.945678 -0.914673,0 -1.767334,0.449585 -0.63562,0.325561 -1.395264,1.178222 l -5.379516,-0.775146 z"
         style="font-family:'Arial Black';-inkscape-font-specification:'Arial Black, ';text-align:center;text-anchor:middle;vector-effect:non-scaling-stroke;stroke-width:0.264583;stroke-dasharray:none;-inkscape-stroke:hairline"
         id="path27840" />
      <path
         d="m 126.71619,41.404129 -6.27868,0.775147 q -0.24805,-1.31775 -0.83716,-1.860352 -0.57361,-0.542603 -1.42627,-0.542603 -1.53479,0 -2.38745,1.550293 -0.62012,1.116211 -0.91467,4.774903 1.13171,-1.147217 2.32544,-1.68982 1.19372,-0.558105 2.75952,-0.558105 3.03857,0 5.13147,2.17041 2.10839,2.17041 2.10839,5.50354 0,2.247925 -1.0697,4.108276 -1.0542,1.860352 -2.94555,2.821534 -1.87586,0.945678 -4.71289,0.945678 -3.41065,0 -5.47254,-1.162719 -2.06189,-1.16272 -3.30212,-3.705201 -1.22473,-2.557983 -1.22473,-6.759277 0,-6.154663 2.58899,-9.007202 2.58898,-2.868042 7.17785,-2.868042 2.71301,0 4.27881,0.63562 1.5813,0.620117 2.62,1.829346 1.03869,1.209228 1.58129,3.038574 z M 115.089,51.527542 q 0,1.844849 0.93017,2.899048 0.93018,1.038696 2.27893,1.038696 1.24024,0 2.0774,-0.945678 0.83715,-0.945679 0.83715,-2.821534 0,-1.922363 -0.86816,-2.930053 -0.86816,-1.007691 -2.15491,-1.007691 -1.31775,0 -2.21692,0.976685 -0.88366,0.976684 -0.88366,2.790527 z"
         style="font-family:'Arial Black';-inkscape-font-specification:'Arial Black, ';text-align:center;text-anchor:middle;vector-effect:non-scaling-stroke;stroke-width:0.264583;stroke-dasharray:none;-inkscape-stroke:hairline"
         id="path27842" />
      <path
         d="m 129.72376,36.288162 h 18.43299 v 4.263306 q -2.40296,2.17041 -4.01526,4.697388 -1.95337,3.06958 -3.08509,6.836792 -0.89917,2.930053 -1.20922,6.929809 h -6.29419 q 0.74414,-5.565552 2.34094,-9.332764 1.5968,-3.767211 5.05395,-8.061523 h -11.22412 z"
         style="font-family:'Arial Black';-inkscape-font-specification:'Arial Black, ';text-align:center;text-anchor:middle;vector-effect:non-scaling-stroke;stroke-width:0.264583;stroke-dasharray:none;-inkscape-stroke:hairline"
         id="path27844" />
      <path
         d="m 154.59046,46.799149 q -1.48828,-0.79065 -2.17041,-1.767334 -0.93017,-1.333252 -0.93017,-3.069581 0,-2.852539 2.682,-4.666381 2.0929,-1.395264 5.53455,-1.395264 4.55786,0 6.72827,1.736328 2.18591,1.736328 2.18591,4.371826 0,1.53479 -0.86816,2.868042 -0.65112,0.992188 -2.04639,1.922364 1.84485,0.883667 2.74402,2.340942 0.91467,1.457275 0.91467,3.224609 0,1.705323 -0.79065,3.193604 -0.77514,1.472778 -1.92236,2.27893 -1.13171,0.806153 -2.83704,1.178223 -1.68981,0.387573 -3.61218,0.387573 -3.61218,0 -5.51904,-0.852661 -1.90686,-0.852661 -2.89905,-2.511474 -0.99219,-1.658814 -0.99219,-3.705201 0,-1.999877 0.93018,-3.379638 0.93018,-1.395264 2.86804,-2.154907 z m 2.83704,-4.464844 q 0,1.178222 0.72864,1.90686 0.74414,0.713135 1.96887,0.713135 1.0852,0 1.78283,-0.713135 0.69764,-0.713135 0.69764,-1.844848 0,-1.178223 -0.72864,-1.906861 -0.72864,-0.74414 -1.86035,-0.74414 -1.14722,0 -1.87586,0.728637 -0.71313,0.713135 -0.71313,1.860352 z m -0.34107,9.782348 q 0,1.503785 0.91468,2.464966 0.91467,0.945679 2.09289,0.945679 1.13172,0 2.03089,-0.961182 0.89917,-0.976684 0.89917,-2.464965 0,-1.503785 -0.91468,-2.464966 -0.89917,-0.961182 -2.09289,-0.961182 -1.17823,0 -2.06189,0.930176 -0.86817,0.930176 -0.86817,2.511474 z"
         style="font-family:'Arial Black';-inkscape-font-specification:'Arial Black, ';text-align:center;text-anchor:middle;vector-effect:non-scaling-stroke;stroke-width:0.264583;stroke-dasharray:none;-inkscape-stroke:hairline"
         id="path27846" />
      <path
         d="m 172.2483,53.914993 6.27869,-0.790649 q 0.24804,1.317749 0.83715,1.860351 0.58911,0.542603 1.44178,0.542603 1.51928,0 2.37194,-1.53479 0.62012,-1.131714 0.93018,-4.790405 -1.13171,1.162719 -2.32544,1.705322 -1.19373,0.542602 -2.75952,0.542602 -3.05408,0 -5.16248,-2.17041 -2.09289,-2.17041 -2.09289,-5.488037 0,-2.263428 1.0697,-4.123779 1.0697,-1.860352 2.94556,-2.80603 1.87585,-0.961182 4.71289,-0.961182 3.41064,0 5.47253,1.178223 2.06189,1.162719 3.28662,3.720703 1.24024,2.54248 1.24024,6.728271 0,6.154663 -2.58899,9.022705 -2.58899,2.852539 -7.17786,2.852539 -2.71301,0 -4.27881,-0.620117 -1.56579,-0.63562 -2.60449,-1.844848 -1.0387,-1.209229 -1.5968,-3.023072 z m 11.6272,-10.138916 q 0,-1.844848 -0.93018,-2.883545 -0.93018,-1.054199 -2.26343,-1.054199 -1.25573,0 -2.09289,0.945679 -0.82166,0.945679 -0.82166,2.837036 0,1.90686 0.85266,2.914551 0.86817,1.00769 2.15491,1.00769 1.33325,0 2.21692,-0.976684 0.88367,-0.976685 0.88367,-2.790528 z"
         style="font-family:'Arial Black';-inkscape-font-specification:'Arial Black, ';text-align:center;text-anchor:middle;vector-effect:non-scaling-stroke;stroke-width:0.264583;stroke-dasharray:none;-inkscape-stroke:hairline"
         id="path27848" />
    </g>
    <path
       id="path27810"
       style="font-size:31.75px;line-height:1.25;font-family:'Arial Black';-inkscape-font-specification:'Arial Black, ';text-align:center;letter-spacing:-7.9375px;word-spacing:0px;text-anchor:middle;vector-effect:non-scaling-stroke;fill:none;stroke:#ff0000;stroke-width:0.264583;stroke-dasharray:none;-inkscape-stroke:hairline"
       d="m 200.97843,35.276917 c -0.67179,1.426268 -1.60197,2.625163 -2.79053,3.596679 -1.18856,0.971516 -2.85771,1.803508 -5.00744,2.495972 v 5.177978 c 1.45728,-0.444417 2.6665,-0.909506 3.62768,-1.395263 0.97151,-0.485758 1.97404,-1.121379 3.00757,-1.906861 v 15.146363 h 6.38721 v -4.524272 c 0.19828,0.499899 0.42025,0.938627 0.66662,1.315165 0.75448,1.178222 1.72083,2.072226 2.89905,2.682007 1.17822,0.609781 2.72335,0.914673 4.63538,0.914673 3.41064,0 5.81359,-0.956016 7.20886,-2.868042 1.39526,-1.912026 2.0929,-4.929936 2.0929,-9.053711 0,-1.83968 -0.21188,-3.607017 -0.63563,-5.302002 -0.21703,-0.888834 -0.50643,-1.663981 -0.86816,-2.325439 -0.3514,-0.671793 -0.83716,-1.307415 -1.45727,-1.906861 -0.62012,-0.609781 -1.42111,-1.100708 -2.40296,-1.472778 -0.98185,-0.382406 -2.23759,-0.573608 -3.76721,-0.573608 -3.18327,0 -5.55522,0.862997 -7.11585,2.588989 -0.49909,0.555654 -0.91732,1.246675 -1.25573,2.071191 v -4.66018 z m 13.37903,4.201293 c 1.02319,0 1.78801,0.521933 2.29443,1.565796 0.51677,1.033528 0.77515,3.059248 0.77515,6.077149 0,2.05672 -0.11369,3.570842 -0.34107,4.542358 -0.21704,0.971516 -0.56327,1.684652 -1.03869,2.139404 -0.4651,0.444417 -1.01803,0.666626 -1.65882,0.666626 -0.97151,0 -1.71565,-0.5271 -2.23242,-1.581298 -0.50642,-1.064533 -0.75964,-3.043745 -0.75964,-5.937622 0,-2.862872 0.23254,-4.821413 0.69763,-5.875611 0.46509,-1.064533 1.21956,-1.596802 2.26343,-1.596802 z" />
    <path
       id="path27814"
       style="font-size:31.75px;line-height:1.25;letter-spacing:-8.36613px;word-spacing:0px;vector-effect:non-scaling-stroke;fill:none;stroke:#ff0000;stroke-width:0.264583;stroke-dasharray:none;-inkscape-stroke:hairline"
       d="m 232.75944,35.276917 c -0.6718,1.426268 -1.60198,2.625163 -2.79053,3.596679 -1.18856,0.971516 -2.85771,1.803508 -5.00745,2.495972 v 5.177978 c 1.45727,-0.444417 2.6665,-0.909506 3.62769,-1.395263 0.97151,-0.485758 1.97404,-1.121379 3.00757,-1.906861 v 15.146363 h 6.3872 V 46.481401 c 1.362,-0.424407 2.50262,-0.867355 3.41633,-1.329118 0.97151,-0.485758 1.97405,-1.121379 3.00757,-1.906861 v 15.146363 h 6.38721 V 35.276917 h -5.22449 c -0.67179,1.426268 -1.60197,2.625163 -2.79053,3.596679 -1.14905,0.939224 -2.74869,1.747794 -4.79609,2.426209 v -6.022888 z" />
    <path
       id="path27818"
       style="font-size:31.75px;line-height:1.25;font-family:'Arial Black';-inkscape-font-specification:'Arial Black, ';text-align:center;letter-spacing:-7.9375px;word-spacing:0px;text-anchor:middle;vector-effect:non-scaling-stroke;fill:none;stroke:#ff0000;stroke-width:0.264583;stroke-dasharray:none;-inkscape-stroke:hairline"
       d="m 262.82633,35.276917 c -0.67179,1.426268 -1.60196,2.625163 -2.79052,3.596679 -1.18855,0.971516 -2.85771,1.803508 -5.00745,2.495972 v 5.177978 c 1.45727,-0.444417 2.66651,-0.909506 3.62769,-1.395263 0.97152,-0.485758 1.97404,-1.121379 3.00756,-1.906861 v 15.146363 h 4.85242 1.53479 17.40979 v -5.146973 h -9.85986 c 0.57877,-0.56844 1.08004,-1.028361 1.50378,-1.379761 0.43409,-0.351399 1.28675,-0.966349 2.55799,-1.844848 2.13939,-1.50895 3.61218,-2.893881 4.41833,-4.154786 0.81649,-1.260903 1.22473,-2.583822 1.22473,-3.96875 0,-1.302244 -0.35657,-2.475302 -1.0697,-3.519165 -0.7028,-1.054198 -1.67432,-1.834514 -2.91455,-2.340942 -1.2299,-0.506429 -2.95589,-0.759643 -5.17798,-0.759643 -2.12906,0 -3.79822,0.268717 -5.00745,0.806152 -1.19889,0.527099 -2.12906,1.291912 -2.79052,2.294433 -0.10336,0.15503 -0.2013,0.320855 -0.29456,0.495061 v -3.595646 z m 13.48755,4.325317 c 0.77515,0 1.41593,0.248048 1.92237,0.744141 0.51676,0.485758 0.77514,1.07487 0.77514,1.767333 0,0.640788 -0.25838,1.31775 -0.77514,2.030884 -0.51677,0.713134 -1.70016,1.757 -3.55017,3.131592 -3.02824,2.242755 -5.0953,4.190961 -6.20118,5.844605 -0.15348,0.230222 -0.29784,0.462946 -0.43408,0.697631 V 42.618587 l 5.2555,0.425297 c 0.17569,-1.281574 0.51676,-2.175578 1.02319,-2.682007 0.51676,-0.506428 1.17823,-0.759643 1.98437,-0.759643 z" />
  </g>
</svg>
