<?xml version="1.0" encoding="UTF-8" standalone="no"?>
<!-- Created with Inkscape (http://www.inkscape.org/) -->

<svg
   width="289.27438mm"
   height="195.09326mm"
   viewBox="0 0 289.27438 195.09326"
   version="1.1"
   id="svg33488"
   inkscape:version="1.2.1 (9c6d41e, 2022-07-14)"
   sodipodi:docname="miss-hits-caps-s1 copy.svg"
   xmlns:inkscape="http://www.inkscape.org/namespaces/inkscape"
   xmlns:sodipodi="http://sodipodi.sourceforge.net/DTD/sodipodi-0.dtd"
   xmlns="http://www.w3.org/2000/svg"
   xmlns:svg="http://www.w3.org/2000/svg">
  <sodipodi:namedview
     id="namedview33490"
     pagecolor="#ffffff"
     bordercolor="#666666"
     borderopacity="1.0"
     inkscape:showpageshadow="2"
     inkscape:pageopacity="0.0"
     inkscape:pagecheckerboard="0"
     inkscape:deskcolor="#d1d1d1"
     inkscape:document-units="mm"
     showgrid="false"
     inkscape:zoom="0.6377093"
     inkscape:cx="516.69311"
     inkscape:cy="375.56297"
     inkscape:window-width="1280"
     inkscape:window-height="695"
     inkscape:window-x="0"
     inkscape:window-y="25"
     inkscape:window-maximized="0"
     inkscape:current-layer="layer1" />
  <defs
     id="defs33485" />
  <g
     inkscape:label="Layer 1"
     inkscape:groupmode="layer"
     id="layer1"
     transform="translate(-7.7518281,-1.5274954)">
    <g
       id="g43749"
       transform="translate(29.872545,12.446894)">
      <circle
         style="fill:none;stroke:#ff0000;stroke-width:0.264583;stroke-dasharray:none;stroke-opacity:1;stop-color:#000000"
         id="circle43745"
         cx="17.340055"
         cy="17.340027"
         r="2.8" />
      <path
         id="path43747"
         style="fill:none;stroke:#ff0000;stroke-width:0.264583;stroke-dasharray:none;stroke-opacity:1;stop-color:#000000"
         d="m 4.872254,2.01e-4 c -1.244225,0 -2.488779,0.476495 -3.442169,1.429884 -1.906779,1.906779 -1.90678,4.977038 -3e-6,6.883815 l 9.026328,9.025811 -9.026322,9.026322 c -1.906779,1.906779 -1.90678,4.97704 -3e-6,6.88382 1.906777,1.90677 4.977036,1.90677 6.883815,-1e-5 l 9.026322,-9.02632 9.026324,9.02632 c 1.906777,1.90678 4.977043,1.90679 6.883822,1e-5 1.906779,-1.90678 1.906773,-4.977046 -5e-6,-6.883823 l -9.026324,-9.026324 9.026326,-9.025803 c 1.906779,-1.906779 1.90678,-4.977037 3e-6,-6.883814 -1.906784,-1.906785 -4.977043,-1.906784 -6.883822,-5e-6 L 17.340224,10.456406 8.3139,1.430082 C 7.360515,0.476697 6.116479,2.01e-4 4.872254,2.01e-4 Z" />
    </g>
    <g
       id="g43767"
       transform="translate(41.074749,42.734336)">
      <circle
         style="fill:none;stroke:#ff0000;stroke-width:0.264583;stroke-dasharray:none;stroke-opacity:1;stop-color:#000000"
         id="circle43763"
         cx="17.340055"
         cy="17.340027"
         r="2.8" />
      <path
         id="path43765"
         style="fill:none;stroke:#ff0000;stroke-width:0.264583;stroke-dasharray:none;stroke-opacity:1;stop-color:#000000"
         d="m 4.872254,2.01e-4 c -1.244225,0 -2.488779,0.476495 -3.442169,1.429884 -1.906779,1.906779 -1.90678,4.977038 -3e-6,6.883815 l 9.026328,9.025811 -9.026322,9.026322 c -1.906779,1.906779 -1.90678,4.97704 -3e-6,6.88382 1.906777,1.90677 4.977036,1.90677 6.883815,-1e-5 l 9.026322,-9.02632 9.026324,9.02632 c 1.906777,1.90678 4.977043,1.90679 6.883822,1e-5 1.906779,-1.90678 1.906773,-4.977046 -5e-6,-6.883823 l -9.026324,-9.026324 9.026326,-9.025803 c 1.906779,-1.906779 1.90678,-4.977037 3e-6,-6.883814 -1.906784,-1.906785 -4.977043,-1.906784 -6.883822,-5e-6 L 17.340224,10.456406 8.3139,1.430082 C 7.360515,0.476697 6.116479,2.01e-4 4.872254,2.01e-4 Z" />
    </g>
    <g
       id="g43785"
       transform="translate(53.521643,73.436674)">
      <circle
         style="fill:none;stroke:#ff0000;stroke-width:0.264583;stroke-dasharray:none;stroke-opacity:1;stop-color:#000000"
         id="circle43781"
         cx="17.340055"
         cy="17.340027"
         r="2.8" />
      <path
         id="path43783"
         style="fill:none;stroke:#ff0000;stroke-width:0.264583;stroke-dasharray:none;stroke-opacity:1;stop-color:#000000"
         d="m 4.872254,2.01e-4 c -1.244225,0 -2.488779,0.476495 -3.442169,1.429884 -1.906779,1.906779 -1.90678,4.977038 -3e-6,6.883815 l 9.026328,9.025811 -9.026322,9.026322 c -1.906779,1.906779 -1.90678,4.97704 -3e-6,6.88382 1.906777,1.90677 4.977036,1.90677 6.883815,-1e-5 l 9.026322,-9.02632 9.026324,9.02632 c 1.906777,1.90678 4.977043,1.90679 6.883822,1e-5 1.906779,-1.90678 1.906773,-4.977046 -5e-6,-6.883823 l -9.026324,-9.026324 9.026326,-9.025803 c 1.906779,-1.906779 1.90678,-4.977037 3e-6,-6.883814 -1.906784,-1.906785 -4.977043,-1.906784 -6.883822,-5e-6 L 17.340224,10.456406 8.3139,1.430082 C 7.360515,0.476697 6.116479,2.01e-4 4.872254,2.01e-4 Z" />
    </g>
    <g
       id="g43791"
       transform="translate(66.383433,102.89432)">
      <circle
         style="fill:none;stroke:#ff0000;stroke-width:0.264583;stroke-dasharray:none;stroke-opacity:1;stop-color:#000000"
         id="circle43787"
         cx="17.340055"
         cy="17.340027"
         r="2.8" />
      <path
         id="path43789"
         style="fill:none;stroke:#ff0000;stroke-width:0.264583;stroke-dasharray:none;stroke-opacity:1;stop-color:#000000"
         d="m 4.872254,2.01e-4 c -1.244225,0 -2.488779,0.476495 -3.442169,1.429884 -1.906779,1.906779 -1.90678,4.977038 -3e-6,6.883815 l 9.026328,9.025811 -9.026322,9.026322 c -1.906779,1.906779 -1.90678,4.97704 -3e-6,6.88382 1.906777,1.90677 4.977036,1.90677 6.883815,-1e-5 l 9.026322,-9.02632 9.026324,9.02632 c 1.906777,1.90678 4.977043,1.90679 6.883822,1e-5 1.906779,-1.90678 1.906773,-4.977046 -5e-6,-6.883823 l -9.026324,-9.026324 9.026326,-9.025803 c 1.906779,-1.906779 1.90678,-4.977037 3e-6,-6.883814 -1.906784,-1.906785 -4.977043,-1.906784 -6.883822,-5e-6 L 17.340224,10.456406 8.3139,1.430082 C 7.360515,0.476697 6.116479,2.01e-4 4.872254,2.01e-4 Z" />
    </g>
    <g
       id="g43797"
       transform="translate(78.41543,132.76687)">
      <circle
         style="fill:none;stroke:#ff0000;stroke-width:0.264583;stroke-dasharray:none;stroke-opacity:1;stop-color:#000000"
         id="circle43793"
         cx="17.340055"
         cy="17.340027"
         r="2.8" />
      <path
         id="path43795"
         style="fill:none;stroke:#ff0000;stroke-width:0.264583;stroke-dasharray:none;stroke-opacity:1;stop-color:#000000"
         d="m 4.872254,2.01e-4 c -1.244225,0 -2.488779,0.476495 -3.442169,1.429884 -1.906779,1.906779 -1.90678,4.977038 -3e-6,6.883815 l 9.026328,9.025811 -9.026322,9.026322 c -1.906779,1.906779 -1.90678,4.97704 -3e-6,6.88382 1.906777,1.90677 4.977036,1.90677 6.883815,-1e-5 l 9.026322,-9.02632 9.026324,9.02632 c 1.906777,1.90678 4.977043,1.90679 6.883822,1e-5 1.906779,-1.90678 1.906773,-4.977046 -5e-6,-6.883823 l -9.026324,-9.026324 9.026326,-9.025803 c 1.906779,-1.906779 1.90678,-4.977037 3e-6,-6.883814 -1.906784,-1.906785 -4.977043,-1.906784 -6.883822,-5e-6 L 17.340224,10.456406 8.3139,1.430082 C 7.360515,0.476697 6.116479,2.01e-4 4.872254,2.01e-4 Z" />
    </g>
    <g
       id="g43803"
       transform="translate(90.862324,161.80962)">
      <circle
         style="fill:none;stroke:#ff0000;stroke-width:0.264583;stroke-dasharray:none;stroke-opacity:1;stop-color:#000000"
         id="circle43799"
         cx="17.340055"
         cy="17.340027"
         r="2.8" />
      <path
         id="path43801"
         style="fill:none;stroke:#ff0000;stroke-width:0.264583;stroke-dasharray:none;stroke-opacity:1;stop-color:#000000"
         d="m 4.872254,2.01e-4 c -1.244225,0 -2.488779,0.476495 -3.442169,1.429884 -1.906779,1.906779 -1.90678,4.977038 -3e-6,6.883815 l 9.026328,9.025811 -9.026322,9.026322 c -1.906779,1.906779 -1.90678,4.97704 -3e-6,6.88382 1.906777,1.90677 4.977036,1.90677 6.883815,-1e-5 l 9.026322,-9.02632 9.026324,9.02632 c 1.906777,1.90678 4.977043,1.90679 6.883822,1e-5 1.906779,-1.90678 1.906773,-4.977046 -5e-6,-6.883823 l -9.026324,-9.026324 9.026326,-9.025803 c 1.906779,-1.906779 1.90678,-4.977037 3e-6,-6.883814 -1.906784,-1.906785 -4.977043,-1.906784 -6.883822,-5e-6 L 17.340224,10.456406 8.3139,1.430082 C 7.360515,0.476697 6.116479,2.01e-4 4.872254,2.01e-4 Z" />
    </g>
    <g
       id="g43815"
       transform="translate(60.98978,1.6595859)">
      <circle
         style="fill:none;stroke:#ff0000;stroke-width:0.264583;stroke-dasharray:none;stroke-opacity:1;stop-color:#000000"
         id="circle43811"
         cx="17.340055"
         cy="17.340027"
         r="2.8" />
      <path
         id="path43813"
         style="fill:none;stroke:#ff0000;stroke-width:0.264583;stroke-dasharray:none;stroke-opacity:1;stop-color:#000000"
         d="m 4.872254,2.01e-4 c -1.244225,0 -2.488779,0.476495 -3.442169,1.429884 -1.906779,1.906779 -1.90678,4.977038 -3e-6,6.883815 l 9.026328,9.025811 -9.026322,9.026322 c -1.906779,1.906779 -1.90678,4.97704 -3e-6,6.88382 1.906777,1.90677 4.977036,1.90677 6.883815,-1e-5 l 9.026322,-9.02632 9.026324,9.02632 c 1.906777,1.90678 4.977043,1.90679 6.883822,1e-5 1.906779,-1.90678 1.906773,-4.977046 -5e-6,-6.883823 l -9.026324,-9.026324 9.026326,-9.025803 c 1.906779,-1.906779 1.90678,-4.977037 3e-6,-6.883814 -1.906784,-1.906785 -4.977043,-1.906784 -6.883822,-5e-6 L 17.340224,10.456406 8.3139,1.430082 C 7.360515,0.476697 6.116479,2.01e-4 4.872254,2.01e-4 Z" />
    </g>
    <g
       id="g43821"
       transform="translate(72.191984,31.947028)">
      <circle
         style="fill:none;stroke:#ff0000;stroke-width:0.264583;stroke-dasharray:none;stroke-opacity:1;stop-color:#000000"
         id="circle43817"
         cx="17.340055"
         cy="17.340027"
         r="2.8" />
      <path
         id="path43819"
         style="fill:none;stroke:#ff0000;stroke-width:0.264583;stroke-dasharray:none;stroke-opacity:1;stop-color:#000000"
         d="m 4.872254,2.01e-4 c -1.244225,0 -2.488779,0.476495 -3.442169,1.429884 -1.906779,1.906779 -1.90678,4.977038 -3e-6,6.883815 l 9.026328,9.025811 -9.026322,9.026322 c -1.906779,1.906779 -1.90678,4.97704 -3e-6,6.88382 1.906777,1.90677 4.977036,1.90677 6.883815,-1e-5 l 9.026322,-9.02632 9.026324,9.02632 c 1.906777,1.90678 4.977043,1.90679 6.883822,1e-5 1.906779,-1.90678 1.906773,-4.977046 -5e-6,-6.883823 l -9.026324,-9.026324 9.026326,-9.025803 c 1.906779,-1.906779 1.90678,-4.977037 3e-6,-6.883814 -1.906784,-1.906785 -4.977043,-1.906784 -6.883822,-5e-6 L 17.340224,10.456406 8.3139,1.430082 C 7.360515,0.476697 6.116479,2.01e-4 4.872254,2.01e-4 Z" />
    </g>
    <g
       id="g43827"
       transform="translate(84.638878,62.649366)">
      <circle
         style="fill:none;stroke:#ff0000;stroke-width:0.264583;stroke-dasharray:none;stroke-opacity:1;stop-color:#000000"
         id="circle43823"
         cx="17.340055"
         cy="17.340027"
         r="2.8" />
      <path
         id="path43825"
         style="fill:none;stroke:#ff0000;stroke-width:0.264583;stroke-dasharray:none;stroke-opacity:1;stop-color:#000000"
         d="m 4.872254,2.01e-4 c -1.244225,0 -2.488779,0.476495 -3.442169,1.429884 -1.906779,1.906779 -1.90678,4.977038 -3e-6,6.883815 l 9.026328,9.025811 -9.026322,9.026322 c -1.906779,1.906779 -1.90678,4.97704 -3e-6,6.88382 1.906777,1.90677 4.977036,1.90677 6.883815,-1e-5 l 9.026322,-9.02632 9.026324,9.02632 c 1.906777,1.90678 4.977043,1.90679 6.883822,1e-5 1.906779,-1.90678 1.906773,-4.977046 -5e-6,-6.883823 l -9.026324,-9.026324 9.026326,-9.025803 c 1.906779,-1.906779 1.90678,-4.977037 3e-6,-6.883814 -1.906784,-1.906785 -4.977043,-1.906784 -6.883822,-5e-6 L 17.340224,10.456406 8.3139,1.430082 C 7.360515,0.476697 6.116479,2.01e-4 4.872254,2.01e-4 Z" />
    </g>
    <g
       id="g43833"
       transform="translate(97.500668,92.107012)">
      <circle
         style="fill:none;stroke:#ff0000;stroke-width:0.264583;stroke-dasharray:none;stroke-opacity:1;stop-color:#000000"
         id="circle43829"
         cx="17.340055"
         cy="17.340027"
         r="2.8" />
      <path
         id="path43831"
         style="fill:none;stroke:#ff0000;stroke-width:0.264583;stroke-dasharray:none;stroke-opacity:1;stop-color:#000000"
         d="m 4.872254,2.01e-4 c -1.244225,0 -2.488779,0.476495 -3.442169,1.429884 -1.906779,1.906779 -1.90678,4.977038 -3e-6,6.883815 l 9.026328,9.025811 -9.026322,9.026322 c -1.906779,1.906779 -1.90678,4.97704 -3e-6,6.88382 1.906777,1.90677 4.977036,1.90677 6.883815,-1e-5 l 9.026322,-9.02632 9.026324,9.02632 c 1.906777,1.90678 4.977043,1.90679 6.883822,1e-5 1.906779,-1.90678 1.906773,-4.977046 -5e-6,-6.883823 l -9.026324,-9.026324 9.026326,-9.025803 c 1.906779,-1.906779 1.90678,-4.977037 3e-6,-6.883814 -1.906784,-1.906785 -4.977043,-1.906784 -6.883822,-5e-6 L 17.340224,10.456406 8.3139,1.430082 C 7.360515,0.476697 6.116479,2.01e-4 4.872254,2.01e-4 Z" />
    </g>
    <g
       id="g43839"
       transform="translate(109.53266,121.97956)">
      <circle
         style="fill:none;stroke:#ff0000;stroke-width:0.264583;stroke-dasharray:none;stroke-opacity:1;stop-color:#000000"
         id="circle43835"
         cx="17.340055"
         cy="17.340027"
         r="2.8" />
      <path
         id="path43837"
         style="fill:none;stroke:#ff0000;stroke-width:0.264583;stroke-dasharray:none;stroke-opacity:1;stop-color:#000000"
         d="m 4.872254,2.01e-4 c -1.244225,0 -2.488779,0.476495 -3.442169,1.429884 -1.906779,1.906779 -1.90678,4.977038 -3e-6,6.883815 l 9.026328,9.025811 -9.026322,9.026322 c -1.906779,1.906779 -1.90678,4.97704 -3e-6,6.88382 1.906777,1.90677 4.977036,1.90677 6.883815,-1e-5 l 9.026322,-9.02632 9.026324,9.02632 c 1.906777,1.90678 4.977043,1.90679 6.883822,1e-5 1.906779,-1.90678 1.906773,-4.977046 -5e-6,-6.883823 l -9.026324,-9.026324 9.026326,-9.025803 c 1.906779,-1.906779 1.90678,-4.977037 3e-6,-6.883814 -1.906784,-1.906785 -4.977043,-1.906784 -6.883822,-5e-6 L 17.340224,10.456406 8.3139,1.430082 C 7.360515,0.476697 6.116479,2.01e-4 4.872254,2.01e-4 Z" />
    </g>
    <g
       id="g43845"
       transform="translate(121.97956,151.02231)">
      <circle
         style="fill:none;stroke:#ff0000;stroke-width:0.264583;stroke-dasharray:none;stroke-opacity:1;stop-color:#000000"
         id="circle43841"
         cx="17.340055"
         cy="17.340027"
         r="2.8" />
      <path
         id="path43843"
         style="fill:none;stroke:#ff0000;stroke-width:0.264583;stroke-dasharray:none;stroke-opacity:1;stop-color:#000000"
         d="m 4.872254,2.01e-4 c -1.244225,0 -2.488779,0.476495 -3.442169,1.429884 -1.906779,1.906779 -1.90678,4.977038 -3e-6,6.883815 l 9.026328,9.025811 -9.026322,9.026322 c -1.906779,1.906779 -1.90678,4.97704 -3e-6,6.88382 1.906777,1.90677 4.977036,1.90677 6.883815,-1e-5 l 9.026322,-9.02632 9.026324,9.02632 c 1.906777,1.90678 4.977043,1.90679 6.883822,1e-5 1.906779,-1.90678 1.906773,-4.977046 -5e-6,-6.883823 l -9.026324,-9.026324 9.026326,-9.025803 c 1.906779,-1.906779 1.90678,-4.977037 3e-6,-6.883814 -1.906784,-1.906785 -4.977043,-1.906784 -6.883822,-5e-6 L 17.340224,10.456406 8.3139,1.430082 C 7.360515,0.476697 6.116479,2.01e-4 4.872254,2.01e-4 Z" />
    </g>
    <g
       id="g43857"
       transform="translate(105.3837,18.670341)">
      <circle
         style="fill:none;stroke:#ff0000;stroke-width:0.264583;stroke-dasharray:none;stroke-opacity:1;stop-color:#000000"
         id="circle43853"
         cx="17.340055"
         cy="17.340027"
         r="2.8" />
      <path
         id="path43855"
         style="fill:none;stroke:#ff0000;stroke-width:0.264583;stroke-dasharray:none;stroke-opacity:1;stop-color:#000000"
         d="m 4.872254,2.01e-4 c -1.244225,0 -2.488779,0.476495 -3.442169,1.429884 -1.906779,1.906779 -1.90678,4.977038 -3e-6,6.883815 l 9.026328,9.025811 -9.026322,9.026322 c -1.906779,1.906779 -1.90678,4.97704 -3e-6,6.88382 1.906777,1.90677 4.977036,1.90677 6.883815,-1e-5 l 9.026322,-9.02632 9.026324,9.02632 c 1.906777,1.90678 4.977043,1.90679 6.883822,1e-5 1.906779,-1.90678 1.906773,-4.977046 -5e-6,-6.883823 l -9.026324,-9.026324 9.026326,-9.025803 c 1.906779,-1.906779 1.90678,-4.977037 3e-6,-6.883814 -1.906784,-1.906785 -4.977043,-1.906784 -6.883822,-5e-6 L 17.340224,10.456406 8.3139,1.430082 C 7.360515,0.476697 6.116479,2.01e-4 4.872254,2.01e-4 Z" />
    </g>
    <g
       id="g43863"
       transform="translate(116.58591,48.957783)">
      <circle
         style="fill:none;stroke:#ff0000;stroke-width:0.264583;stroke-dasharray:none;stroke-opacity:1;stop-color:#000000"
         id="circle43859"
         cx="17.340055"
         cy="17.340027"
         r="2.8" />
      <path
         id="path43861"
         style="fill:none;stroke:#ff0000;stroke-width:0.264583;stroke-dasharray:none;stroke-opacity:1;stop-color:#000000"
         d="m 4.872254,2.01e-4 c -1.244225,0 -2.488779,0.476495 -3.442169,1.429884 -1.906779,1.906779 -1.90678,4.977038 -3e-6,6.883815 l 9.026328,9.025811 -9.026322,9.026322 c -1.906779,1.906779 -1.90678,4.97704 -3e-6,6.88382 1.906777,1.90677 4.977036,1.90677 6.883815,-1e-5 l 9.026322,-9.02632 9.026324,9.02632 c 1.906777,1.90678 4.977043,1.90679 6.883822,1e-5 1.906779,-1.90678 1.906773,-4.977046 -5e-6,-6.883823 l -9.026324,-9.026324 9.026326,-9.025803 c 1.906779,-1.906779 1.90678,-4.977037 3e-6,-6.883814 -1.906784,-1.906785 -4.977043,-1.906784 -6.883822,-5e-6 L 17.340224,10.456406 8.3139,1.430082 C 7.360515,0.476697 6.116479,2.01e-4 4.872254,2.01e-4 Z" />
    </g>
    <g
       id="g43869"
       transform="translate(129.0328,79.660121)">
      <circle
         style="fill:none;stroke:#ff0000;stroke-width:0.264583;stroke-dasharray:none;stroke-opacity:1;stop-color:#000000"
         id="circle43865"
         cx="17.340055"
         cy="17.340027"
         r="2.8" />
      <path
         id="path43867"
         style="fill:none;stroke:#ff0000;stroke-width:0.264583;stroke-dasharray:none;stroke-opacity:1;stop-color:#000000"
         d="m 4.872254,2.01e-4 c -1.244225,0 -2.488779,0.476495 -3.442169,1.429884 -1.906779,1.906779 -1.90678,4.977038 -3e-6,6.883815 l 9.026328,9.025811 -9.026322,9.026322 c -1.906779,1.906779 -1.90678,4.97704 -3e-6,6.88382 1.906777,1.90677 4.977036,1.90677 6.883815,-1e-5 l 9.026322,-9.02632 9.026324,9.02632 c 1.906777,1.90678 4.977043,1.90679 6.883822,1e-5 1.906779,-1.90678 1.906773,-4.977046 -5e-6,-6.883823 l -9.026324,-9.026324 9.026326,-9.025803 c 1.906779,-1.906779 1.90678,-4.977037 3e-6,-6.883814 -1.906784,-1.906785 -4.977043,-1.906784 -6.883822,-5e-6 L 17.340224,10.456406 8.3139,1.430082 C 7.360515,0.476697 6.116479,2.01e-4 4.872254,2.01e-4 Z" />
    </g>
    <g
       id="g43875"
       transform="translate(141.89459,109.11777)">
      <circle
         style="fill:none;stroke:#ff0000;stroke-width:0.264583;stroke-dasharray:none;stroke-opacity:1;stop-color:#000000"
         id="circle43871"
         cx="17.340055"
         cy="17.340027"
         r="2.8" />
      <path
         id="path43873"
         style="fill:none;stroke:#ff0000;stroke-width:0.264583;stroke-dasharray:none;stroke-opacity:1;stop-color:#000000"
         d="m 4.872254,2.01e-4 c -1.244225,0 -2.488779,0.476495 -3.442169,1.429884 -1.906779,1.906779 -1.90678,4.977038 -3e-6,6.883815 l 9.026328,9.025811 -9.026322,9.026322 c -1.906779,1.906779 -1.90678,4.97704 -3e-6,6.88382 1.906777,1.90677 4.977036,1.90677 6.883815,-1e-5 l 9.026322,-9.02632 9.026324,9.02632 c 1.906777,1.90678 4.977043,1.90679 6.883822,1e-5 1.906779,-1.90678 1.906773,-4.977046 -5e-6,-6.883823 l -9.026324,-9.026324 9.026326,-9.025803 c 1.906779,-1.906779 1.90678,-4.977037 3e-6,-6.883814 -1.906784,-1.906785 -4.977043,-1.906784 -6.883822,-5e-6 L 17.340224,10.456406 8.3139,1.430082 C 7.360515,0.476697 6.116479,2.01e-4 4.872254,2.01e-4 Z" />
    </g>
    <g
       id="g43881"
       transform="translate(153.92658,138.99032)">
      <circle
         style="fill:none;stroke:#ff0000;stroke-width:0.264583;stroke-dasharray:none;stroke-opacity:1;stop-color:#000000"
         id="circle43877"
         cx="17.340055"
         cy="17.340027"
         r="2.8" />
      <path
         id="path43879"
         style="fill:none;stroke:#ff0000;stroke-width:0.264583;stroke-dasharray:none;stroke-opacity:1;stop-color:#000000"
         d="m 4.872254,2.01e-4 c -1.244225,0 -2.488779,0.476495 -3.442169,1.429884 -1.906779,1.906779 -1.90678,4.977038 -3e-6,6.883815 l 9.026328,9.025811 -9.026322,9.026322 c -1.906779,1.906779 -1.90678,4.97704 -3e-6,6.88382 1.906777,1.90677 4.977036,1.90677 6.883815,-1e-5 l 9.026322,-9.02632 9.026324,9.02632 c 1.906777,1.90678 4.977043,1.90679 6.883822,1e-5 1.906779,-1.90678 1.906773,-4.977046 -5e-6,-6.883823 l -9.026324,-9.026324 9.026326,-9.025803 c 1.906779,-1.906779 1.90678,-4.977037 3e-6,-6.883814 -1.906784,-1.906785 -4.977043,-1.906784 -6.883822,-5e-6 L 17.340224,10.456406 8.3139,1.430082 C 7.360515,0.476697 6.116479,2.01e-4 4.872254,2.01e-4 Z" />
    </g>
    <g
       id="g43899"
       transform="translate(136.91583,6.2234471)">
      <circle
         style="fill:none;stroke:#ff0000;stroke-width:0.264583;stroke-dasharray:none;stroke-opacity:1;stop-color:#000000"
         id="circle43895"
         cx="17.340055"
         cy="17.340027"
         r="2.8" />
      <path
         id="path43897"
         style="fill:none;stroke:#ff0000;stroke-width:0.264583;stroke-dasharray:none;stroke-opacity:1;stop-color:#000000"
         d="m 4.872254,2.01e-4 c -1.244225,0 -2.488779,0.476495 -3.442169,1.429884 -1.906779,1.906779 -1.90678,4.977038 -3e-6,6.883815 l 9.026328,9.025811 -9.026322,9.026322 c -1.906779,1.906779 -1.90678,4.97704 -3e-6,6.88382 1.906777,1.90677 4.977036,1.90677 6.883815,-1e-5 l 9.026322,-9.02632 9.026324,9.02632 c 1.906777,1.90678 4.977043,1.90679 6.883822,1e-5 1.906779,-1.90678 1.906773,-4.977046 -5e-6,-6.883823 l -9.026324,-9.026324 9.026326,-9.025803 c 1.906779,-1.906779 1.90678,-4.977037 3e-6,-6.883814 -1.906784,-1.906785 -4.977043,-1.906784 -6.883822,-5e-6 L 17.340224,10.456406 8.3139,1.430082 C 7.360515,0.476697 6.116479,2.01e-4 4.872254,2.01e-4 Z" />
    </g>
    <g
       id="g43905"
       transform="translate(148.11804,36.510889)">
      <circle
         style="fill:none;stroke:#ff0000;stroke-width:0.264583;stroke-dasharray:none;stroke-opacity:1;stop-color:#000000"
         id="circle43901"
         cx="17.340055"
         cy="17.340027"
         r="2.8" />
      <path
         id="path43903"
         style="fill:none;stroke:#ff0000;stroke-width:0.264583;stroke-dasharray:none;stroke-opacity:1;stop-color:#000000"
         d="m 4.872254,2.01e-4 c -1.244225,0 -2.488779,0.476495 -3.442169,1.429884 -1.906779,1.906779 -1.90678,4.977038 -3e-6,6.883815 l 9.026328,9.025811 -9.026322,9.026322 c -1.906779,1.906779 -1.90678,4.97704 -3e-6,6.88382 1.906777,1.90677 4.977036,1.90677 6.883815,-1e-5 l 9.026322,-9.02632 9.026324,9.02632 c 1.906777,1.90678 4.977043,1.90679 6.883822,1e-5 1.906779,-1.90678 1.906773,-4.977046 -5e-6,-6.883823 l -9.026324,-9.026324 9.026326,-9.025803 c 1.906779,-1.906779 1.90678,-4.977037 3e-6,-6.883814 -1.906784,-1.906785 -4.977043,-1.906784 -6.883822,-5e-6 L 17.340224,10.456406 8.3139,1.430082 C 7.360515,0.476697 6.116479,2.01e-4 4.872254,2.01e-4 Z" />
    </g>
    <g
       id="g43911"
       transform="translate(160.56493,67.213227)">
      <circle
         style="fill:none;stroke:#ff0000;stroke-width:0.264583;stroke-dasharray:none;stroke-opacity:1;stop-color:#000000"
         id="circle43907"
         cx="17.340055"
         cy="17.340027"
         r="2.8" />
      <path
         id="path43909"
         style="fill:none;stroke:#ff0000;stroke-width:0.264583;stroke-dasharray:none;stroke-opacity:1;stop-color:#000000"
         d="m 4.872254,2.01e-4 c -1.244225,0 -2.488779,0.476495 -3.442169,1.429884 -1.906779,1.906779 -1.90678,4.977038 -3e-6,6.883815 l 9.026328,9.025811 -9.026322,9.026322 c -1.906779,1.906779 -1.90678,4.97704 -3e-6,6.88382 1.906777,1.90677 4.977036,1.90677 6.883815,-1e-5 l 9.026322,-9.02632 9.026324,9.02632 c 1.906777,1.90678 4.977043,1.90679 6.883822,1e-5 1.906779,-1.90678 1.906773,-4.977046 -5e-6,-6.883823 l -9.026324,-9.026324 9.026326,-9.025803 c 1.906779,-1.906779 1.90678,-4.977037 3e-6,-6.883814 -1.906784,-1.906785 -4.977043,-1.906784 -6.883822,-5e-6 L 17.340224,10.456406 8.3139,1.430082 C 7.360515,0.476697 6.116479,2.01e-4 4.872254,2.01e-4 Z" />
    </g>
    <g
       id="g43917"
       transform="translate(173.42672,96.670876)">
      <circle
         style="fill:none;stroke:#ff0000;stroke-width:0.264583;stroke-dasharray:none;stroke-opacity:1;stop-color:#000000"
         id="circle43913"
         cx="17.340055"
         cy="17.340027"
         r="2.8" />
      <path
         id="path43915"
         style="fill:none;stroke:#ff0000;stroke-width:0.264583;stroke-dasharray:none;stroke-opacity:1;stop-color:#000000"
         d="m 4.872254,2.01e-4 c -1.244225,0 -2.488779,0.476495 -3.442169,1.429884 -1.906779,1.906779 -1.90678,4.977038 -3e-6,6.883815 l 9.026328,9.025811 -9.026322,9.026322 c -1.906779,1.906779 -1.90678,4.97704 -3e-6,6.88382 1.906777,1.90677 4.977036,1.90677 6.883815,-1e-5 l 9.026322,-9.02632 9.026324,9.02632 c 1.906777,1.90678 4.977043,1.90679 6.883822,1e-5 1.906779,-1.90678 1.906773,-4.977046 -5e-6,-6.883823 l -9.026324,-9.026324 9.026326,-9.025803 c 1.906779,-1.906779 1.90678,-4.977037 3e-6,-6.883814 -1.906784,-1.906785 -4.977043,-1.906784 -6.883822,-5e-6 L 17.340224,10.456406 8.3139,1.430082 C 7.360515,0.476697 6.116479,2.01e-4 4.872254,2.01e-4 Z" />
    </g>
    <g
       id="g43923"
       transform="translate(185.45871,126.54343)">
      <circle
         style="fill:none;stroke:#ff0000;stroke-width:0.264583;stroke-dasharray:none;stroke-opacity:1;stop-color:#000000"
         id="circle43919"
         cx="17.340055"
         cy="17.340027"
         r="2.8" />
      <path
         id="path43921"
         style="fill:none;stroke:#ff0000;stroke-width:0.264583;stroke-dasharray:none;stroke-opacity:1;stop-color:#000000"
         d="m 4.872254,2.01e-4 c -1.244225,0 -2.488779,0.476495 -3.442169,1.429884 -1.906779,1.906779 -1.90678,4.977038 -3e-6,6.883815 l 9.026328,9.025811 -9.026322,9.026322 c -1.906779,1.906779 -1.90678,4.97704 -3e-6,6.88382 1.906777,1.90677 4.977036,1.90677 6.883815,-1e-5 l 9.026322,-9.02632 9.026324,9.02632 c 1.906777,1.90678 4.977043,1.90679 6.883822,1e-5 1.906779,-1.90678 1.906773,-4.977046 -5e-6,-6.883823 l -9.026324,-9.026324 9.026326,-9.025803 c 1.906779,-1.906779 1.90678,-4.977037 3e-6,-6.883814 -1.906784,-1.906785 -4.977043,-1.906784 -6.883822,-5e-6 L 17.340224,10.456406 8.3139,1.430082 C 7.360515,0.476697 6.116479,2.01e-4 4.872254,2.01e-4 Z" />
    </g>
    <g
       id="g43929"
       transform="translate(197.90561,155.58618)">
      <circle
         style="fill:none;stroke:#ff0000;stroke-width:0.264583;stroke-dasharray:none;stroke-opacity:1;stop-color:#000000"
         id="circle43925"
         cx="17.340055"
         cy="17.340027"
         r="2.8" />
      <path
         id="path43927"
         style="fill:none;stroke:#ff0000;stroke-width:0.264583;stroke-dasharray:none;stroke-opacity:1;stop-color:#000000"
         d="m 4.872254,2.01e-4 c -1.244225,0 -2.488779,0.476495 -3.442169,1.429884 -1.906779,1.906779 -1.90678,4.977038 -3e-6,6.883815 l 9.026328,9.025811 -9.026322,9.026322 c -1.906779,1.906779 -1.90678,4.97704 -3e-6,6.88382 1.906777,1.90677 4.977036,1.90677 6.883815,-1e-5 l 9.026322,-9.02632 9.026324,9.02632 c 1.906777,1.90678 4.977043,1.90679 6.883822,1e-5 1.906779,-1.90678 1.906773,-4.977046 -5e-6,-6.883823 l -9.026324,-9.026324 9.026326,-9.025803 c 1.906779,-1.906779 1.90678,-4.977037 3e-6,-6.883814 -1.906784,-1.906785 -4.977043,-1.906784 -6.883822,-5e-6 L 17.340224,10.456406 8.3139,1.430082 C 7.360515,0.476697 6.116479,2.01e-4 4.872254,2.01e-4 Z" />
    </g>
    <g
       id="g43941"
       transform="translate(181.30975,25.308684)">
      <circle
         style="fill:none;stroke:#ff0000;stroke-width:0.264583;stroke-dasharray:none;stroke-opacity:1;stop-color:#000000"
         id="circle43937"
         cx="17.340055"
         cy="17.340027"
         r="2.8" />
      <path
         id="path43939"
         style="fill:none;stroke:#ff0000;stroke-width:0.264583;stroke-dasharray:none;stroke-opacity:1;stop-color:#000000"
         d="m 4.872254,2.01e-4 c -1.244225,0 -2.488779,0.476495 -3.442169,1.429884 -1.906779,1.906779 -1.90678,4.977038 -3e-6,6.883815 l 9.026328,9.025811 -9.026322,9.026322 c -1.906779,1.906779 -1.90678,4.97704 -3e-6,6.88382 1.906777,1.90677 4.977036,1.90677 6.883815,-1e-5 l 9.026322,-9.02632 9.026324,9.02632 c 1.906777,1.90678 4.977043,1.90679 6.883822,1e-5 1.906779,-1.90678 1.906773,-4.977046 -5e-6,-6.883823 l -9.026324,-9.026324 9.026326,-9.025803 c 1.906779,-1.906779 1.90678,-4.977037 3e-6,-6.883814 -1.906784,-1.906785 -4.977043,-1.906784 -6.883822,-5e-6 L 17.340224,10.456406 8.3139,1.430082 C 7.360515,0.476697 6.116479,2.01e-4 4.872254,2.01e-4 Z" />
    </g>
    <g
       id="g43947"
       transform="translate(192.51196,55.596126)">
      <circle
         style="fill:none;stroke:#ff0000;stroke-width:0.264583;stroke-dasharray:none;stroke-opacity:1;stop-color:#000000"
         id="circle43943"
         cx="17.340055"
         cy="17.340027"
         r="2.8" />
      <path
         id="path43945"
         style="fill:none;stroke:#ff0000;stroke-width:0.264583;stroke-dasharray:none;stroke-opacity:1;stop-color:#000000"
         d="m 4.872254,2.01e-4 c -1.244225,0 -2.488779,0.476495 -3.442169,1.429884 -1.906779,1.906779 -1.90678,4.977038 -3e-6,6.883815 l 9.026328,9.025811 -9.026322,9.026322 c -1.906779,1.906779 -1.90678,4.97704 -3e-6,6.88382 1.906777,1.90677 4.977036,1.90677 6.883815,-1e-5 l 9.026322,-9.02632 9.026324,9.02632 c 1.906777,1.90678 4.977043,1.90679 6.883822,1e-5 1.906779,-1.90678 1.906773,-4.977046 -5e-6,-6.883823 l -9.026324,-9.026324 9.026326,-9.025803 c 1.906779,-1.906779 1.90678,-4.977037 3e-6,-6.883814 -1.906784,-1.906785 -4.977043,-1.906784 -6.883822,-5e-6 L 17.340224,10.456406 8.3139,1.430082 C 7.360515,0.476697 6.116479,2.01e-4 4.872254,2.01e-4 Z" />
    </g>
    <g
       id="g43953"
       transform="translate(204.95885,86.298464)">
      <circle
         style="fill:none;stroke:#ff0000;stroke-width:0.264583;stroke-dasharray:none;stroke-opacity:1;stop-color:#000000"
         id="circle43949"
         cx="17.340055"
         cy="17.340027"
         r="2.8" />
      <path
         id="path43951"
         style="fill:none;stroke:#ff0000;stroke-width:0.264583;stroke-dasharray:none;stroke-opacity:1;stop-color:#000000"
         d="m 4.872254,2.01e-4 c -1.244225,0 -2.488779,0.476495 -3.442169,1.429884 -1.906779,1.906779 -1.90678,4.977038 -3e-6,6.883815 l 9.026328,9.025811 -9.026322,9.026322 c -1.906779,1.906779 -1.90678,4.97704 -3e-6,6.88382 1.906777,1.90677 4.977036,1.90677 6.883815,-1e-5 l 9.026322,-9.02632 9.026324,9.02632 c 1.906777,1.90678 4.977043,1.90679 6.883822,1e-5 1.906779,-1.90678 1.906773,-4.977046 -5e-6,-6.883823 l -9.026324,-9.026324 9.026326,-9.025803 c 1.906779,-1.906779 1.90678,-4.977037 3e-6,-6.883814 -1.906784,-1.906785 -4.977043,-1.906784 -6.883822,-5e-6 L 17.340224,10.456406 8.3139,1.430082 C 7.360515,0.476697 6.116479,2.01e-4 4.872254,2.01e-4 Z" />
    </g>
    <g
       id="g43959"
       transform="translate(217.82064,115.75611)">
      <circle
         style="fill:none;stroke:#ff0000;stroke-width:0.264583;stroke-dasharray:none;stroke-opacity:1;stop-color:#000000"
         id="circle43955"
         cx="17.340055"
         cy="17.340027"
         r="2.8" />
      <path
         id="path43957"
         style="fill:none;stroke:#ff0000;stroke-width:0.264583;stroke-dasharray:none;stroke-opacity:1;stop-color:#000000"
         d="m 4.872254,2.01e-4 c -1.244225,0 -2.488779,0.476495 -3.442169,1.429884 -1.906779,1.906779 -1.90678,4.977038 -3e-6,6.883815 l 9.026328,9.025811 -9.026322,9.026322 c -1.906779,1.906779 -1.90678,4.97704 -3e-6,6.88382 1.906777,1.90677 4.977036,1.90677 6.883815,-1e-5 l 9.026322,-9.02632 9.026324,9.02632 c 1.906777,1.90678 4.977043,1.90679 6.883822,1e-5 1.906779,-1.90678 1.906773,-4.977046 -5e-6,-6.883823 l -9.026324,-9.026324 9.026326,-9.025803 c 1.906779,-1.906779 1.90678,-4.977037 3e-6,-6.883814 -1.906784,-1.906785 -4.977043,-1.906784 -6.883822,-5e-6 L 17.340224,10.456406 8.3139,1.430082 C 7.360515,0.476697 6.116479,2.01e-4 4.872254,2.01e-4 Z" />
    </g>
    <g
       id="g43965"
       transform="translate(229.85263,145.62867)">
      <circle
         style="fill:none;stroke:#ff0000;stroke-width:0.264583;stroke-dasharray:none;stroke-opacity:1;stop-color:#000000"
         id="circle43961"
         cx="17.340055"
         cy="17.340027"
         r="2.8" />
      <path
         id="path43963"
         style="fill:none;stroke:#ff0000;stroke-width:0.264583;stroke-dasharray:none;stroke-opacity:1;stop-color:#000000"
         d="m 4.872254,2.01e-4 c -1.244225,0 -2.488779,0.476495 -3.442169,1.429884 -1.906779,1.906779 -1.90678,4.977038 -3e-6,6.883815 l 9.026328,9.025811 -9.026322,9.026322 c -1.906779,1.906779 -1.90678,4.97704 -3e-6,6.88382 1.906777,1.90677 4.977036,1.90677 6.883815,-1e-5 l 9.026322,-9.02632 9.026324,9.02632 c 1.906777,1.90678 4.977043,1.90679 6.883822,1e-5 1.906779,-1.90678 1.906773,-4.977046 -5e-6,-6.883823 l -9.026324,-9.026324 9.026326,-9.025803 c 1.906779,-1.906779 1.90678,-4.977037 3e-6,-6.883814 -1.906784,-1.906785 -4.977043,-1.906784 -6.883822,-5e-6 L 17.340224,10.456406 8.3139,1.430082 C 7.360515,0.476697 6.116479,2.01e-4 4.872254,2.01e-4 Z" />
    </g>
    <g
       id="g43983"
       transform="translate(213.67167,14.106479)">
      <circle
         style="fill:none;stroke:#ff0000;stroke-width:0.264583;stroke-dasharray:none;stroke-opacity:1;stop-color:#000000"
         id="circle43979"
         cx="17.340055"
         cy="17.340027"
         r="2.8" />
      <path
         id="path43981"
         style="fill:none;stroke:#ff0000;stroke-width:0.264583;stroke-dasharray:none;stroke-opacity:1;stop-color:#000000"
         d="m 4.872254,2.01e-4 c -1.244225,0 -2.488779,0.476495 -3.442169,1.429884 -1.906779,1.906779 -1.90678,4.977038 -3e-6,6.883815 l 9.026328,9.025811 -9.026322,9.026322 c -1.906779,1.906779 -1.90678,4.97704 -3e-6,6.88382 1.906777,1.90677 4.977036,1.90677 6.883815,-1e-5 l 9.026322,-9.02632 9.026324,9.02632 c 1.906777,1.90678 4.977043,1.90679 6.883822,1e-5 1.906779,-1.90678 1.906773,-4.977046 -5e-6,-6.883823 l -9.026324,-9.026324 9.026326,-9.025803 c 1.906779,-1.906779 1.90678,-4.977037 3e-6,-6.883814 -1.906784,-1.906785 -4.977043,-1.906784 -6.883822,-5e-6 L 17.340224,10.456406 8.3139,1.430082 C 7.360515,0.476697 6.116479,2.01e-4 4.872254,2.01e-4 Z" />
    </g>
    <g
       id="g43989"
       transform="translate(224.87388,44.393921)">
      <circle
         style="fill:none;stroke:#ff0000;stroke-width:0.264583;stroke-dasharray:none;stroke-opacity:1;stop-color:#000000"
         id="circle43985"
         cx="17.340055"
         cy="17.340027"
         r="2.8" />
      <path
         id="path43987"
         style="fill:none;stroke:#ff0000;stroke-width:0.264583;stroke-dasharray:none;stroke-opacity:1;stop-color:#000000"
         d="m 4.872254,2.01e-4 c -1.244225,0 -2.488779,0.476495 -3.442169,1.429884 -1.906779,1.906779 -1.90678,4.977038 -3e-6,6.883815 l 9.026328,9.025811 -9.026322,9.026322 c -1.906779,1.906779 -1.90678,4.97704 -3e-6,6.88382 1.906777,1.90677 4.977036,1.90677 6.883815,-1e-5 l 9.026322,-9.02632 9.026324,9.02632 c 1.906777,1.90678 4.977043,1.90679 6.883822,1e-5 1.906779,-1.90678 1.906773,-4.977046 -5e-6,-6.883823 l -9.026324,-9.026324 9.026326,-9.025803 c 1.906779,-1.906779 1.90678,-4.977037 3e-6,-6.883814 -1.906784,-1.906785 -4.977043,-1.906784 -6.883822,-5e-6 L 17.340224,10.456406 8.3139,1.430082 C 7.360515,0.476697 6.116479,2.01e-4 4.872254,2.01e-4 Z" />
    </g>
    <g
       id="g43995"
       transform="translate(237.32077,75.096259)">
      <circle
         style="fill:none;stroke:#ff0000;stroke-width:0.264583;stroke-dasharray:none;stroke-opacity:1;stop-color:#000000"
         id="circle43991"
         cx="17.340055"
         cy="17.340027"
         r="2.8" />
      <path
         id="path43993"
         style="fill:none;stroke:#ff0000;stroke-width:0.264583;stroke-dasharray:none;stroke-opacity:1;stop-color:#000000"
         d="m 4.872254,2.01e-4 c -1.244225,0 -2.488779,0.476495 -3.442169,1.429884 -1.906779,1.906779 -1.90678,4.977038 -3e-6,6.883815 l 9.026328,9.025811 -9.026322,9.026322 c -1.906779,1.906779 -1.90678,4.97704 -3e-6,6.88382 1.906777,1.90677 4.977036,1.90677 6.883815,-1e-5 l 9.026322,-9.02632 9.026324,9.02632 c 1.906777,1.90678 4.977043,1.90679 6.883822,1e-5 1.906779,-1.90678 1.906773,-4.977046 -5e-6,-6.883823 l -9.026324,-9.026324 9.026326,-9.025803 c 1.906779,-1.906779 1.90678,-4.977037 3e-6,-6.883814 -1.906784,-1.906785 -4.977043,-1.906784 -6.883822,-5e-6 L 17.340224,10.456406 8.3139,1.430082 C 7.360515,0.476697 6.116479,2.01e-4 4.872254,2.01e-4 Z" />
    </g>
    <g
       id="g44001"
       transform="translate(250.18256,104.55391)">
      <circle
         style="fill:none;stroke:#ff0000;stroke-width:0.264583;stroke-dasharray:none;stroke-opacity:1;stop-color:#000000"
         id="circle43997"
         cx="17.340055"
         cy="17.340027"
         r="2.8" />
      <path
         id="path43999"
         style="fill:none;stroke:#ff0000;stroke-width:0.264583;stroke-dasharray:none;stroke-opacity:1;stop-color:#000000"
         d="m 4.872254,2.01e-4 c -1.244225,0 -2.488779,0.476495 -3.442169,1.429884 -1.906779,1.906779 -1.90678,4.977038 -3e-6,6.883815 l 9.026328,9.025811 -9.026322,9.026322 c -1.906779,1.906779 -1.90678,4.97704 -3e-6,6.88382 1.906777,1.90677 4.977036,1.90677 6.883815,-1e-5 l 9.026322,-9.02632 9.026324,9.02632 c 1.906777,1.90678 4.977043,1.90679 6.883822,1e-5 1.906779,-1.90678 1.906773,-4.977046 -5e-6,-6.883823 l -9.026324,-9.026324 9.026326,-9.025803 c 1.906779,-1.906779 1.90678,-4.977037 3e-6,-6.883814 -1.906784,-1.906785 -4.977043,-1.906784 -6.883822,-5e-6 L 17.340224,10.456406 8.3139,1.430082 C 7.360515,0.476697 6.116479,2.01e-4 4.872254,2.01e-4 Z" />
    </g>
    <g
       id="g44007"
       transform="translate(262.21455,134.42647)">
      <circle
         style="fill:none;stroke:#ff0000;stroke-width:0.264583;stroke-dasharray:none;stroke-opacity:1;stop-color:#000000"
         id="circle44003"
         cx="17.340055"
         cy="17.340027"
         r="2.8" />
      <path
         id="path44005"
         style="fill:none;stroke:#ff0000;stroke-width:0.264583;stroke-dasharray:none;stroke-opacity:1;stop-color:#000000"
         d="m 4.872254,2.01e-4 c -1.244225,0 -2.488779,0.476495 -3.442169,1.429884 -1.906779,1.906779 -1.90678,4.977038 -3e-6,6.883815 l 9.026328,9.025811 -9.026322,9.026322 c -1.906779,1.906779 -1.90678,4.97704 -3e-6,6.88382 1.906777,1.90677 4.977036,1.90677 6.883815,-1e-5 l 9.026322,-9.02632 9.026324,9.02632 c 1.906777,1.90678 4.977043,1.90679 6.883822,1e-5 1.906779,-1.90678 1.906773,-4.977046 -5e-6,-6.883823 l -9.026324,-9.026324 9.026326,-9.025803 c 1.906779,-1.906779 1.90678,-4.977037 3e-6,-6.883814 -1.906784,-1.906785 -4.977043,-1.906784 -6.883822,-5e-6 L 17.340224,10.456406 8.3139,1.430082 C 7.360515,0.476697 6.116479,2.01e-4 4.872254,2.01e-4 Z" />
    </g>
    <g
       id="g44019"
       transform="translate(247.69319,4.1489647)">
      <circle
         style="fill:none;stroke:#ff0000;stroke-width:0.264583;stroke-dasharray:none;stroke-opacity:1;stop-color:#000000"
         id="circle44015"
         cx="17.340055"
         cy="17.340027"
         r="2.8" />
      <path
         id="path44017"
         style="fill:none;stroke:#ff0000;stroke-width:0.264583;stroke-dasharray:none;stroke-opacity:1;stop-color:#000000"
         d="m 4.872254,2.01e-4 c -1.244225,0 -2.488779,0.476495 -3.442169,1.429884 -1.906779,1.906779 -1.90678,4.977038 -3e-6,6.883815 l 9.026328,9.025811 -9.026322,9.026322 c -1.906779,1.906779 -1.90678,4.97704 -3e-6,6.88382 1.906777,1.90677 4.977036,1.90677 6.883815,-1e-5 l 9.026322,-9.02632 9.026324,9.02632 c 1.906777,1.90678 4.977043,1.90679 6.883822,1e-5 1.906779,-1.90678 1.906773,-4.977046 -5e-6,-6.883823 l -9.026324,-9.026324 9.026326,-9.025803 c 1.906779,-1.906779 1.90678,-4.977037 3e-6,-6.883814 -1.906784,-1.906785 -4.977043,-1.906784 -6.883822,-5e-6 L 17.340224,10.456406 8.3139,1.430082 C 7.360515,0.476697 6.116479,2.01e-4 4.872254,2.01e-4 Z" />
    </g>
    <g
       id="g44025"
       transform="translate(259.72518,34.436406)">
      <circle
         style="fill:none;stroke:#ff0000;stroke-width:0.264583;stroke-dasharray:none;stroke-opacity:1;stop-color:#000000"
         id="circle44021"
         cx="17.340055"
         cy="17.340027"
         r="2.8" />
      <path
         id="path44023"
         style="fill:none;stroke:#ff0000;stroke-width:0.264583;stroke-dasharray:none;stroke-opacity:1;stop-color:#000000"
         d="m 4.872254,2.01e-4 c -1.244225,0 -2.488779,0.476495 -3.442169,1.429884 -1.906779,1.906779 -1.90678,4.977038 -3e-6,6.883815 l 9.026328,9.025811 -9.026322,9.026322 c -1.906779,1.906779 -1.90678,4.97704 -3e-6,6.88382 1.906777,1.90677 4.977036,1.90677 6.883815,-1e-5 l 9.026322,-9.02632 9.026324,9.02632 c 1.906777,1.90678 4.977043,1.90679 6.883822,1e-5 1.906779,-1.90678 1.906773,-4.977046 -5e-6,-6.883823 l -9.026324,-9.026324 9.026326,-9.025803 c 1.906779,-1.906779 1.90678,-4.977037 3e-6,-6.883814 -1.906784,-1.906785 -4.977043,-1.906784 -6.883822,-5e-6 L 17.340224,10.456406 8.3139,1.430082 C 7.360515,0.476697 6.116479,2.01e-4 4.872254,2.01e-4 Z" />
    </g>
    <g
       id="g44067"
       transform="translate(7.8830266,49.787575)">
      <circle
         style="fill:none;stroke:#ff0000;stroke-width:0.264583;stroke-dasharray:none;stroke-opacity:1;stop-color:#000000"
         id="circle44063"
         cx="17.340055"
         cy="17.340027"
         r="2.8" />
      <path
         id="path44065"
         style="fill:none;stroke:#ff0000;stroke-width:0.264583;stroke-dasharray:none;stroke-opacity:1;stop-color:#000000"
         d="m 4.872254,2.01e-4 c -1.244225,0 -2.488779,0.476495 -3.442169,1.429884 -1.906779,1.906779 -1.90678,4.977038 -3e-6,6.883815 l 9.026328,9.025811 -9.026322,9.026322 c -1.906779,1.906779 -1.90678,4.97704 -3e-6,6.88382 1.906777,1.90677 4.977036,1.90677 6.883815,-1e-5 l 9.026322,-9.02632 9.026324,9.02632 c 1.906777,1.90678 4.977043,1.90679 6.883822,1e-5 1.906779,-1.90678 1.906773,-4.977046 -5e-6,-6.883823 l -9.026324,-9.026324 9.026326,-9.025803 c 1.906779,-1.906779 1.90678,-4.977037 3e-6,-6.883814 -1.906784,-1.906785 -4.977043,-1.906784 -6.883822,-5e-6 L 17.340224,10.456406 8.3139,1.430082 C 7.360515,0.476697 6.116479,2.01e-4 4.872254,2.01e-4 Z" />
    </g>
    <g
       id="g44073"
       transform="translate(19.085237,80.075017)">
      <circle
         style="fill:none;stroke:#ff0000;stroke-width:0.264583;stroke-dasharray:none;stroke-opacity:1;stop-color:#000000"
         id="circle44069"
         cx="17.340055"
         cy="17.340027"
         r="2.8" />
      <path
         id="path44071"
         style="fill:none;stroke:#ff0000;stroke-width:0.264583;stroke-dasharray:none;stroke-opacity:1;stop-color:#000000"
         d="m 4.872254,2.01e-4 c -1.244225,0 -2.488779,0.476495 -3.442169,1.429884 -1.906779,1.906779 -1.90678,4.977038 -3e-6,6.883815 l 9.026328,9.025811 -9.026322,9.026322 c -1.906779,1.906779 -1.90678,4.97704 -3e-6,6.88382 1.906777,1.90677 4.977036,1.90677 6.883815,-1e-5 l 9.026322,-9.02632 9.026324,9.02632 c 1.906777,1.90678 4.977043,1.90679 6.883822,1e-5 1.906779,-1.90678 1.906773,-4.977046 -5e-6,-6.883823 l -9.026324,-9.026324 9.026326,-9.025803 c 1.906779,-1.906779 1.90678,-4.977037 3e-6,-6.883814 -1.906784,-1.906785 -4.977043,-1.906784 -6.883822,-5e-6 L 17.340224,10.456406 8.3139,1.430082 C 7.360515,0.476697 6.116479,2.01e-4 4.872254,2.01e-4 Z" />
    </g>
    <g
       id="g44079"
       transform="translate(31.532127,110.77736)">
      <circle
         style="fill:none;stroke:#ff0000;stroke-width:0.264583;stroke-dasharray:none;stroke-opacity:1;stop-color:#000000"
         id="circle44075"
         cx="17.340055"
         cy="17.340027"
         r="2.8" />
      <path
         id="path44077"
         style="fill:none;stroke:#ff0000;stroke-width:0.264583;stroke-dasharray:none;stroke-opacity:1;stop-color:#000000"
         d="m 4.872254,2.01e-4 c -1.244225,0 -2.488779,0.476495 -3.442169,1.429884 -1.906779,1.906779 -1.90678,4.977038 -3e-6,6.883815 l 9.026328,9.025811 -9.026322,9.026322 c -1.906779,1.906779 -1.90678,4.97704 -3e-6,6.88382 1.906777,1.90677 4.977036,1.90677 6.883815,-1e-5 l 9.026322,-9.02632 9.026324,9.02632 c 1.906777,1.90678 4.977043,1.90679 6.883822,1e-5 1.906779,-1.90678 1.906773,-4.977046 -5e-6,-6.883823 l -9.026324,-9.026324 9.026326,-9.025803 c 1.906779,-1.906779 1.90678,-4.977037 3e-6,-6.883814 -1.906784,-1.906785 -4.977043,-1.906784 -6.883822,-5e-6 L 17.340224,10.456406 8.3139,1.430082 C 7.360515,0.476697 6.116479,2.01e-4 4.872254,2.01e-4 Z" />
    </g>
    <g
       id="g44085"
       transform="translate(44.393917,140.23501)">
      <circle
         style="fill:none;stroke:#ff0000;stroke-width:0.264583;stroke-dasharray:none;stroke-opacity:1;stop-color:#000000"
         id="circle44081"
         cx="17.340055"
         cy="17.340027"
         r="2.8" />
      <path
         id="path44083"
         style="fill:none;stroke:#ff0000;stroke-width:0.264583;stroke-dasharray:none;stroke-opacity:1;stop-color:#000000"
         d="m 4.872254,2.01e-4 c -1.244225,0 -2.488779,0.476495 -3.442169,1.429884 -1.906779,1.906779 -1.90678,4.977038 -3e-6,6.883815 l 9.026328,9.025811 -9.026322,9.026322 c -1.906779,1.906779 -1.90678,4.97704 -3e-6,6.88382 1.906777,1.90677 4.977036,1.90677 6.883815,-1e-5 l 9.026322,-9.02632 9.026324,9.02632 c 1.906777,1.90678 4.977043,1.90679 6.883822,1e-5 1.906779,-1.90678 1.906773,-4.977046 -5e-6,-6.883823 l -9.026324,-9.026324 9.026326,-9.025803 c 1.906779,-1.906779 1.90678,-4.977037 3e-6,-6.883814 -1.906784,-1.906785 -4.977043,-1.906784 -6.883822,-5e-6 L 17.340224,10.456406 8.3139,1.430082 C 7.360515,0.476697 6.116479,2.01e-4 4.872254,2.01e-4 Z" />
    </g>
    <g
       id="g44121"
       transform="translate(10.372407,150.60742)">
      <circle
         style="fill:none;stroke:#ff0000;stroke-width:0.264583;stroke-dasharray:none;stroke-opacity:1;stop-color:#000000"
         id="circle44117"
         cx="17.340055"
         cy="17.340027"
         r="2.8" />
      <path
         id="path44119"
         style="fill:none;stroke:#ff0000;stroke-width:0.264583;stroke-dasharray:none;stroke-opacity:1;stop-color:#000000"
         d="m 4.872254,2.01e-4 c -1.244225,0 -2.488779,0.476495 -3.442169,1.429884 -1.906779,1.906779 -1.90678,4.977038 -3e-6,6.883815 l 9.026328,9.025811 -9.026322,9.026322 c -1.906779,1.906779 -1.90678,4.97704 -3e-6,6.88382 1.906777,1.90677 4.977036,1.90677 6.883815,-1e-5 l 9.026322,-9.02632 9.026324,9.02632 c 1.906777,1.90678 4.977043,1.90679 6.883822,1e-5 1.906779,-1.90678 1.906773,-4.977046 -5e-6,-6.883823 l -9.026324,-9.026324 9.026326,-9.025803 c 1.906779,-1.906779 1.90678,-4.977037 3e-6,-6.883814 -1.906784,-1.906785 -4.977043,-1.906784 -6.883822,-5e-6 L 17.340224,10.456406 8.3139,1.430082 C 7.360515,0.476697 6.116479,2.01e-4 4.872254,2.01e-4 Z" />
    </g>
  </g>
</svg>
