<?xml version="1.0" encoding="UTF-8" standalone="no"?>
<!-- Created with Inkscape (http://www.inkscape.org/) -->

<svg
   width="210.13249mm"
   height="140.13251mm"
   viewBox="0 0 210.13249 140.13251"
   version="1.1"
   id="svg537"
   inkscape:version="1.2.1 (9c6d41e, 2022-07-14)"
   sodipodi:docname="stencil-2.svg"
   xml:space="preserve"
   xmlns:inkscape="http://www.inkscape.org/namespaces/inkscape"
   xmlns:sodipodi="http://sodipodi.sourceforge.net/DTD/sodipodi-0.dtd"
   xmlns="http://www.w3.org/2000/svg"
   xmlns:svg="http://www.w3.org/2000/svg"><sodipodi:namedview
     id="namedview539"
     pagecolor="#ffffff"
     bordercolor="#666666"
     borderopacity="1.0"
     inkscape:showpageshadow="2"
     inkscape:pageopacity="0.0"
     inkscape:pagecheckerboard="0"
     inkscape:deskcolor="#d1d1d1"
     inkscape:document-units="mm"
     showgrid="false"
     inkscape:zoom="0.74644236"
     inkscape:cx="359.70627"
     inkscape:cy="284.01389"
     inkscape:window-width="1280"
     inkscape:window-height="702"
     inkscape:window-x="0"
     inkscape:window-y="25"
     inkscape:window-maximized="1"
     inkscape:current-layer="layer1" /><defs
     id="defs534" /><g
     inkscape:label="Layer 1"
     inkscape:groupmode="layer"
     id="layer1"
     transform="translate(0.1324995,-70.711868)"><rect
       style="vector-effect:non-scaling-stroke;fill:none;stroke:#ff0000;stroke-width:0.264583;stroke-dasharray:none;-inkscape-stroke:hairline;stop-color:#000000"
       id="rect234"
       width="210"
       height="70"
       x="0"
       y="70.711868"
       ry="0" /><g
       id="g1393"
       transform="translate(-5.369295,-1.8960742)"><path
         style="vector-effect:non-scaling-stroke;fill:none;stroke:#ff0000;stroke-width:0.264583;stroke-dasharray:none;stroke-opacity:1;-inkscape-stroke:hairline"
         d="m 36.678166,120.77407 c -1.50086,-2.1297 -3.10463,-3.85764 -5.82159,-6.27229 -0.28537,-0.25362 -0.47248,-0.41848 -1.35548,-1.19433 -1.31209,-1.15287 -1.83933,-1.6344 -2.5198,-2.30124 -1.48987,-1.46012 -2.46604,-2.72581 -3.15392,-4.08941 -0.6735,-1.33506 -1.03642,-2.71884 -1.11658,-4.25755 -0.0538,-1.03202 0.0293,-1.87282 0.27082,-2.740713 0.27643,-0.993353 0.75216,-1.930655 1.39617,-2.75072 0.13682,-0.17424 0.34551,-0.414531 0.49936,-0.575005 1.66269,-1.734278 3.98635,-2.611464 6.37043,-2.404845 1.69542,0.14694 3.29273,0.841042 4.56604,1.984153 0.13597,0.122066 0.42038,0.405188 0.55072,0.548217 0.27158,0.298019 0.48907,0.57367 0.713,0.90365 0.047,0.06929 0.0881,0.128955 0.0913,0.132582 0.005,0.0036 0.0464,-0.05306 0.096,-0.125988 0.30978,-0.455286 0.61332,-0.81964 1.00502,-1.206396 0.2409,-0.237851 0.40689,-0.384844 0.66761,-0.591174 0.5804,-0.459334 1.27193,-0.855678 1.97674,-1.132959 1.70666,-0.671418 3.6166,-0.720401 5.36076,-0.137483 0.73581,0.245921 1.45292,0.612754 2.08565,1.066913 1.34929,0.968488 2.36751,2.346129 2.88789,3.907305 0.36207,1.086223 0.47484,2.167483 0.36103,3.461303 -0.13378,1.52088 -0.58504,2.92235 -1.37926,4.28365 -0.59878,1.0263 -1.40053,2.04384 -2.47816,3.14516 -0.77041,0.78734 -1.3777,1.35171 -3.12775,2.90674 -1.71519,1.52407 -2.33655,2.09761 -3.20086,2.9546 -1.57621,1.56283 -2.69493,2.90067 -3.77635,4.51607 l -0.16943,0.25308 -0.29977,1e-4 -0.29977,1.7e-4 -0.19984,-0.28358 z"
         id="path1387" /><path
         style="vector-effect:non-scaling-stroke;fill:none;stroke:#ff0000;stroke-width:0.264583;stroke-dasharray:none;stroke-opacity:1;-inkscape-stroke:hairline"
         d="m 183.0698,120.77407 c -1.50086,-2.1297 -3.10463,-3.85764 -5.82159,-6.27229 -0.28537,-0.25362 -0.47248,-0.41848 -1.35548,-1.19433 -1.31209,-1.15287 -1.83933,-1.6344 -2.5198,-2.30124 -1.48987,-1.46012 -2.46604,-2.72581 -3.15392,-4.08941 -0.6735,-1.33506 -1.03642,-2.71884 -1.11658,-4.25755 -0.0538,-1.03202 0.0293,-1.87282 0.27082,-2.740713 0.27643,-0.993353 0.75216,-1.930655 1.39617,-2.75072 0.13682,-0.17424 0.34551,-0.414531 0.49936,-0.575005 1.66269,-1.734278 3.98635,-2.611464 6.37043,-2.404845 1.69542,0.14694 3.29273,0.841042 4.56604,1.984153 0.13597,0.122066 0.42038,0.405188 0.55072,0.548217 0.27158,0.298019 0.48907,0.57367 0.713,0.90365 0.047,0.06929 0.0881,0.128955 0.0913,0.132582 0.005,0.0036 0.0464,-0.05306 0.096,-0.125988 0.30978,-0.455286 0.61332,-0.81964 1.00502,-1.206396 0.2409,-0.237851 0.40689,-0.384844 0.66761,-0.591174 0.5804,-0.459334 1.27193,-0.855678 1.97674,-1.132959 1.70666,-0.671418 3.6166,-0.720401 5.36076,-0.137483 0.73581,0.245921 1.45292,0.612754 2.08565,1.066913 1.34929,0.968488 2.36751,2.346129 2.88789,3.907305 0.36207,1.086223 0.47484,2.167483 0.36103,3.461303 -0.13378,1.52088 -0.58504,2.92235 -1.37926,4.28365 -0.59878,1.0263 -1.40053,2.04384 -2.47816,3.14516 -0.77041,0.78734 -1.3777,1.35171 -3.12775,2.90674 -1.71519,1.52407 -2.33655,2.09761 -3.20086,2.9546 -1.57621,1.56283 -2.69493,2.90067 -3.77635,4.51607 l -0.16943,0.25308 -0.29977,1e-4 -0.29977,1.7e-4 -0.19984,-0.28358 z"
         id="path1389" /></g><text
       xml:space="preserve"
       style="font-style:normal;font-weight:normal;font-size:15.875px;line-height:1.05;font-family:sans-serif;fill:none;fill-opacity:1;stroke:#ff0000;stroke-width:0.264583;stroke-opacity:1"
       x="105.79581"
       y="101.07922"
       id="text244"><tspan
         sodipodi:role="line"
         style="font-style:normal;font-variant:normal;font-weight:normal;font-stretch:normal;font-size:15.875px;font-family:SirinStencil;-inkscape-font-specification:SirinStencil;text-align:center;text-anchor:middle;fill:none;stroke:#ff0000;stroke-width:0.264583;stroke-opacity:1"
         x="105.79581"
         y="101.07922"
         id="tspan978">COMPLIMENT</tspan><tspan
         sodipodi:role="line"
         style="font-style:normal;font-variant:normal;font-weight:normal;font-stretch:normal;font-size:15.875px;font-family:SirinStencil;-inkscape-font-specification:SirinStencil;text-align:center;text-anchor:middle;fill:none;stroke:#ff0000;stroke-width:0.264583;stroke-opacity:1"
         x="105.79581"
         y="117.9108"
         id="tspan1159">YOUR OPPONENT</tspan></text><path
       id="rect991"
       style="vector-effect:non-scaling-stroke;fill:none;stroke:#ff0000;stroke-width:0.264583;-inkscape-stroke:hairline;stop-color:#000000"
       d="m 209.8675,140.84438 v 70 H -0.1324995 v -70"
       sodipodi:nodetypes="cccc" /><g
       id="g997"
       transform="translate(-5.5017946,68.236419)"><path
         style="vector-effect:non-scaling-stroke;fill:none;stroke:#ff0000;stroke-width:0.264583;stroke-dasharray:none;stroke-opacity:1;-inkscape-stroke:hairline"
         d="m 36.678166,120.77407 c -1.50086,-2.1297 -3.10463,-3.85764 -5.82159,-6.27229 -0.28537,-0.25362 -0.47248,-0.41848 -1.35548,-1.19433 -1.31209,-1.15287 -1.83933,-1.6344 -2.5198,-2.30124 -1.48987,-1.46012 -2.46604,-2.72581 -3.15392,-4.08941 -0.6735,-1.33506 -1.03642,-2.71884 -1.11658,-4.25755 -0.0538,-1.03202 0.0293,-1.87282 0.27082,-2.740713 0.27643,-0.993353 0.75216,-1.930655 1.39617,-2.75072 0.13682,-0.17424 0.34551,-0.414531 0.49936,-0.575005 1.66269,-1.734278 3.98635,-2.611464 6.37043,-2.404845 1.69542,0.14694 3.29273,0.841042 4.56604,1.984153 0.13597,0.122066 0.42038,0.405188 0.55072,0.548217 0.27158,0.298019 0.48907,0.57367 0.713,0.90365 0.047,0.06929 0.0881,0.128955 0.0913,0.132582 0.005,0.0036 0.0464,-0.05306 0.096,-0.125988 0.30978,-0.455286 0.61332,-0.81964 1.00502,-1.206396 0.2409,-0.237851 0.40689,-0.384844 0.66761,-0.591174 0.5804,-0.459334 1.27193,-0.855678 1.97674,-1.132959 1.70666,-0.671418 3.6166,-0.720401 5.36076,-0.137483 0.73581,0.245921 1.45292,0.612754 2.08565,1.066913 1.34929,0.968488 2.36751,2.346129 2.88789,3.907305 0.36207,1.086223 0.47484,2.167483 0.36103,3.461303 -0.13378,1.52088 -0.58504,2.92235 -1.37926,4.28365 -0.59878,1.0263 -1.40053,2.04384 -2.47816,3.14516 -0.77041,0.78734 -1.3777,1.35171 -3.12775,2.90674 -1.71519,1.52407 -2.33655,2.09761 -3.20086,2.9546 -1.57621,1.56283 -2.69493,2.90067 -3.77635,4.51607 l -0.16943,0.25308 -0.29977,1e-4 -0.29977,1.7e-4 -0.19984,-0.28358 z"
         id="path993" /><path
         style="vector-effect:non-scaling-stroke;fill:none;stroke:#ff0000;stroke-width:0.264583;stroke-dasharray:none;stroke-opacity:1;-inkscape-stroke:hairline"
         d="m 183.0698,120.77407 c -1.50086,-2.1297 -3.10463,-3.85764 -5.82159,-6.27229 -0.28537,-0.25362 -0.47248,-0.41848 -1.35548,-1.19433 -1.31209,-1.15287 -1.83933,-1.6344 -2.5198,-2.30124 -1.48987,-1.46012 -2.46604,-2.72581 -3.15392,-4.08941 -0.6735,-1.33506 -1.03642,-2.71884 -1.11658,-4.25755 -0.0538,-1.03202 0.0293,-1.87282 0.27082,-2.740713 0.27643,-0.993353 0.75216,-1.930655 1.39617,-2.75072 0.13682,-0.17424 0.34551,-0.414531 0.49936,-0.575005 1.66269,-1.734278 3.98635,-2.611464 6.37043,-2.404845 1.69542,0.14694 3.29273,0.841042 4.56604,1.984153 0.13597,0.122066 0.42038,0.405188 0.55072,0.548217 0.27158,0.298019 0.48907,0.57367 0.713,0.90365 0.047,0.06929 0.0881,0.128955 0.0913,0.132582 0.005,0.0036 0.0464,-0.05306 0.096,-0.125988 0.30978,-0.455286 0.61332,-0.81964 1.00502,-1.206396 0.2409,-0.237851 0.40689,-0.384844 0.66761,-0.591174 0.5804,-0.459334 1.27193,-0.855678 1.97674,-1.132959 1.70666,-0.671418 3.6166,-0.720401 5.36076,-0.137483 0.73581,0.245921 1.45292,0.612754 2.08565,1.066913 1.34929,0.968488 2.36751,2.346129 2.88789,3.907305 0.36207,1.086223 0.47484,2.167483 0.36103,3.461303 -0.13378,1.52088 -0.58504,2.92235 -1.37926,4.28365 -0.59878,1.0263 -1.40053,2.04384 -2.47816,3.14516 -0.77041,0.78734 -1.3777,1.35171 -3.12775,2.90674 -1.71519,1.52407 -2.33655,2.09761 -3.20086,2.9546 -1.57621,1.56283 -2.69493,2.90067 -3.77635,4.51607 l -0.16943,0.25308 -0.29977,1e-4 -0.29977,1.7e-4 -0.19984,-0.28358 z"
         id="path995" /></g><text
       xml:space="preserve"
       style="font-style:normal;font-weight:normal;font-size:15.1694px;line-height:1.05;font-family:sans-serif;fill:none;fill-opacity:1;stroke:#ff0000;stroke-width:0.264583;stroke-opacity:1"
       x="104.63108"
       y="164.45045"
       id="text1003"><tspan
         sodipodi:role="line"
         style="font-style:normal;font-variant:normal;font-weight:normal;font-stretch:normal;font-size:15.1694px;font-family:SirinStencil;-inkscape-font-specification:SirinStencil;text-align:center;text-anchor:middle;fill:none;stroke:#ff0000;stroke-width:0.264583;stroke-opacity:1"
         x="104.63108"
         y="164.45045"
         id="tspan1011">REMOVE YOUR</tspan><tspan
         sodipodi:role="line"
         style="font-style:normal;font-variant:normal;font-weight:normal;font-stretch:normal;font-size:15.1694px;font-family:SirinStencil;-inkscape-font-specification:SirinStencil;text-align:center;text-anchor:middle;fill:none;stroke:#ff0000;stroke-width:0.264583;stroke-opacity:1"
         x="104.63108"
         y="180.53392"
         id="tspan1130">NEXT BLOCK IN</tspan><tspan
         sodipodi:role="line"
         style="font-style:normal;font-variant:normal;font-weight:normal;font-stretch:normal;font-size:15.1694px;font-family:SirinStencil;-inkscape-font-specification:SirinStencil;text-align:center;text-anchor:middle;fill:none;stroke:#ff0000;stroke-width:0.264583;stroke-opacity:1"
         x="104.63108"
         y="196.61737"
         id="tspan1132">5 SECONDS</tspan></text></g></svg>
