<?xml version="1.0" encoding="UTF-8" standalone="no"?>
<!-- Created with Inkscape (http://www.inkscape.org/) -->

<svg
   width="186.29974mm"
   height="265.79669mm"
   viewBox="0 0 186.29974 265.79669"
   version="1.1"
   id="svg5"
   xml:space="preserve"
   inkscape:version="1.2.1 (9c6d41e, 2022-07-14)"
   sodipodi:docname="front.svg"
   xmlns:inkscape="http://www.inkscape.org/namespaces/inkscape"
   xmlns:sodipodi="http://sodipodi.sourceforge.net/DTD/sodipodi-0.dtd"
   xmlns="http://www.w3.org/2000/svg"
   xmlns:svg="http://www.w3.org/2000/svg"><sodipodi:namedview
     id="namedview7"
     pagecolor="#ffffff"
     bordercolor="#666666"
     borderopacity="1.0"
     inkscape:showpageshadow="2"
     inkscape:pageopacity="0.0"
     inkscape:pagecheckerboard="0"
     inkscape:deskcolor="#d1d1d1"
     inkscape:document-units="mm"
     showgrid="false"
     inkscape:zoom="0.57686789"
     inkscape:cx="314.6301"
     inkscape:cy="673.46442"
     inkscape:window-width="1280"
     inkscape:window-height="747"
     inkscape:window-x="0"
     inkscape:window-y="25"
     inkscape:window-maximized="1"
     inkscape:current-layer="layer1" /><defs
     id="defs2" /><g
     inkscape:label="Layer 1"
     inkscape:groupmode="layer"
     id="layer1"
     transform="translate(-4.4757523,47.270601)"><path
       id="path4085"
       style="vector-effect:non-scaling-stroke;fill:none;stroke:#ff0000;stroke-width:0.26458333;stroke-linecap:round;stroke-linejoin:round;stroke-dasharray:none;stroke-opacity:1;-inkscape-stroke:hairline"
       d="M 97.625622,-47.270601 A 93.017578,26.825989 0 0 0 4.6230301,-20.577656 h -0.047542 c -0.055029,0 -0.099736,0.05011 -0.099736,0.112138 V 218.41292 c 0,0.0621 0.044707,0.11318 0.099736,0.11318 H 7.576855 19.583874 c 1.071571,0 2.123999,-0.31804 3.051493,-0.9214 0.927495,-0.60448 1.697687,-1.47272 2.233973,-2.51819 0.518276,-1.0116 1.262596,-1.85184 2.160074,-2.43602 0.897479,-0.58307 1.916205,-0.89142 2.951758,-0.89142 H 165.26956 c 1.03554,0 2.05426,0.30835 2.95175,0.89142 0.89748,0.58418 1.6418,1.42442 2.16008,2.43602 0.53629,1.04547 1.30647,1.91371 2.23397,2.51819 0.92749,0.60336 1.97992,0.9214 3.05149,0.9214 h 12.00702 3.00137 c 0.055,0 0.10025,-0.0512 0.10025,-0.11318 V -20.465518 c 0,-0.06203 -0.0452,-0.112138 -0.10025,-0.112138 h -0.0372 A 93.017578,26.825989 0 0 0 97.625622,-47.270601 Z" /><rect
       style="fill:none;stroke:#ff0000;stroke-width:0.26458333;stroke-linecap:round;stop-color:#000000;vector-effect:non-scaling-stroke;-inkscape-stroke:hairline;stroke-dasharray:none"
       id="rect6865"
       width="154.73541"
       height="24.735416"
       x="20.272467"
       y="30.885696" /><rect
       style="fill:none;stroke:#0000ff;stroke-width:0.26458333;stroke-linecap:round;stop-color:#000000;stroke-opacity:1;vector-effect:non-scaling-stroke;-inkscape-stroke:hairline;stroke-dasharray:none"
       id="rect6873"
       width="90"
       height="100"
       x="52.625622"
       y="78.732079" /></g></svg>
