<?xml version="1.0" encoding="UTF-8" standalone="no"?>
<!-- Created with Inkscape (http://www.inkscape.org/) -->

<svg
   width="80mm"
   height="120mm"
   viewBox="0 0 80 120"
   version="1.1"
   id="svg5"
   xml:space="preserve"
   inkscape:version="1.2.1 (9c6d41e, 2022-07-14)"
   sodipodi:docname="insert.svg"
   xmlns:inkscape="http://www.inkscape.org/namespaces/inkscape"
   xmlns:sodipodi="http://sodipodi.sourceforge.net/DTD/sodipodi-0.dtd"
   xmlns="http://www.w3.org/2000/svg"
   xmlns:svg="http://www.w3.org/2000/svg"><sodipodi:namedview
     id="namedview7"
     pagecolor="#ffffff"
     bordercolor="#666666"
     borderopacity="1.0"
     inkscape:showpageshadow="2"
     inkscape:pageopacity="0.0"
     inkscape:pagecheckerboard="0"
     inkscape:deskcolor="#d1d1d1"
     inkscape:document-units="mm"
     showgrid="false"
     inkscape:zoom="1.1619873"
     inkscape:cx="146.30108"
     inkscape:cy="183.73694"
     inkscape:window-width="1280"
     inkscape:window-height="747"
     inkscape:window-x="0"
     inkscape:window-y="25"
     inkscape:window-maximized="1"
     inkscape:current-layer="layer1" /><defs
     id="defs2" /><g
     inkscape:label="Layer 1"
     inkscape:groupmode="layer"
     id="layer1"
     transform="translate(-40.271183,-64.182198)"><path
       style="fill:#000000;stroke-width:1"
       d="m 86.025381,86.308295 c -0.011,-0.0329 -1.30484,-0.0602 -4.14516,-0.0874 -2.27108,-0.0218 -4.14889,-0.0517 -4.17292,-0.0666 -0.024,-0.0149 -0.97787,-0.0316 -2.11965,-0.0372 l -2.07597,-0.0102 -0.28756,-0.78694 c -0.31577,-0.86416 -0.65663,-1.59261 -0.87205,-1.86368 -0.0765,-0.0963 -0.12932,-0.1848 -0.11737,-0.19674 0.0119,-0.0119 0.12788,0.024 0.25763,0.0798 0.18498,0.0796 0.2877,0.0961 0.47588,0.0767 0.33476,-0.0345 0.50187,-0.14593 0.64103,-0.42726 l 0.11704,-0.23662 0.2005,0.18136 c 0.53647,0.48524 1.29927,0.46526 1.79141,-0.0469 0.30241,-0.31471 0.23121,-0.41616 -0.12343,-0.17586 -0.24955,0.1691 -0.4284,0.17418 -0.55932,0.0159 -0.0538,-0.0651 -0.14345,-0.16729 -0.19916,-0.22712 -0.11058,-0.11875 -0.12674,-0.17872 -0.0546,-0.20275 0.0256,-0.009 0.0742,-0.0963 0.10792,-0.19507 0.0828,-0.24258 0.2271,-0.29505 0.51253,-0.18637 0.36207,0.13788 0.36827,0.13851 0.36827,0.0376 0,-0.0585 -0.0701,-0.13933 -0.19132,-0.22057 -0.12439,-0.0834 -0.20889,-0.18212 -0.24156,-0.28222 -0.0552,-0.16909 -0.1521,-0.22346 -0.73021,-0.40965 -0.17733,-0.0571 -0.32242,-0.1277 -0.32242,-0.15685 0,-0.0292 0.0343,-0.14164 0.0763,-0.24998 0.11079,-0.28609 0.10501,-1.33407 -0.0112,-2.02009 -0.0651,-0.38428 -0.0861,-0.70905 -0.0818,-1.26042 0.005,-0.65636 0.0201,-0.79511 0.12818,-1.19291 0.0673,-0.24758 0.13337,-0.49875 0.14693,-0.55815 l 0.0247,-0.10801 -0.39206,0.0318 c -0.4966,0.0403 -1.00383,0.16918 -1.23154,0.31293 -0.25417,0.16045 -0.59106,0.52333 -0.78782,0.84859 -0.52368,0.86572 -0.5247,1.85616 -0.003,2.9165 0.17006,0.34566 0.2729,0.48806 0.5364,0.74275 0.36007,0.34805 0.49128,0.55982 0.44964,0.72574 -0.015,0.0596 -0.12802,0.21968 -0.25125,0.35575 -0.12323,0.13608 -0.22406,0.28904 -0.22406,0.33992 0,0.18893 0.17077,0.39747 0.32778,0.40027 0.0818,0.002 0.095,-0.0202 0.14119,-0.23175 0.0391,-0.17891 0.14637,-0.26198 0.33845,-0.26198 0.43363,0 0.64424,0.54843 0.35119,0.91448 l -0.10144,0.12672 -0.20915,-0.1169 c -0.11504,-0.0643 -0.23384,-0.14663 -0.26401,-0.18298 -0.0905,-0.10907 -0.22389,-0.0827 -0.22389,0.0443 0,0.2966 -0.1973,0.44446 -0.4522,0.33888 -0.23534,-0.0975 -0.84574,-0.86215 -0.989,-1.23895 -0.0589,-0.15491 -0.21842,-0.38075 -0.26895,-0.38075 -0.0212,0 -0.0624,0.0725 -0.0916,0.16104 -0.054,0.16349 -0.26443,0.33363 -0.41313,0.33396 -0.33813,6.8e-4 -0.58488,-0.49834 -0.43801,-0.88595 0.0688,-0.18151 0.22127,-0.32929 0.3398,-0.32929 0.1495,0 0.17247,-0.0758 0.0831,-0.274 -0.0911,-0.20193 -0.1078,-0.20884 -0.21181,-0.0874 -0.15453,0.18048 -0.45244,0.17209 -0.64261,-0.0181 -0.29232,-0.29232 -0.13247,-0.95561 0.24866,-1.03184 0.16255,-0.0325 0.19997,-0.10556 0.13781,-0.26904 -0.0379,-0.0997 -0.0736,-0.1203 -0.20794,-0.1203 -0.12751,0 -0.19995,-0.037 -0.33872,-0.17304 -0.16464,-0.16138 -0.17653,-0.19039 -0.17653,-0.43065 0,-0.23066 0.0159,-0.27442 0.15158,-0.41827 0.10368,-0.1099 0.2068,-0.16957 0.32636,-0.18884 0.16224,-0.0262 0.17576,-0.0399 0.18845,-0.19134 0.0116,-0.13846 -0.0115,-0.18689 -0.15233,-0.31978 -0.13802,-0.13021 -0.16965,-0.19467 -0.1877,-0.38249 -0.0508,-0.52921 0.29839,-0.88219 0.67396,-0.68119 0.0791,0.0423 0.10714,0.0334 0.1761,-0.0563 0.10671,-0.13875 0.10497,-0.23125 -0.006,-0.33188 -0.11623,-0.10518 -0.19509,-0.39974 -0.15881,-0.59315 0.0156,-0.0832 0.0903,-0.22182 0.16589,-0.30794 0.11423,-0.13011 0.16815,-0.15659 0.31882,-0.15659 0.14893,0 0.20789,0.0282 0.32993,0.15755 0.0817,0.0867 0.16514,0.15683 0.18537,0.15594 0.0202,-8.5e-4 0.0966,-0.0505 0.1697,-0.11025 l 0.13292,-0.10863 -0.0992,-0.19854 c -0.1265,-0.25331 -0.12846,-0.53575 -0.005,-0.73536 0.15941,-0.25794 0.39533,-0.31543 0.62455,-0.15221 0.13366,0.0952 0.20313,0.2375 0.24792,0.50791 0.026,0.15678 0.0369,0.16702 0.1497,0.14008 0.26145,-0.0624 0.27645,-0.0842 0.20365,-0.29549 -0.0707,-0.20522 -0.0511,-0.41989 0.0574,-0.62979 0.0813,-0.15714 0.22077,-0.23215 0.41797,-0.22473 0.30721,0.0115 0.48807,0.32561 0.43448,0.75449 l -0.0305,0.24386 h 0.25083 c 0.13795,0 0.26601,-0.005 0.28458,-0.0113 0.0186,-0.006 0.0266,-0.15806 0.0179,-0.33748 -0.0156,-0.32142 -0.0136,-0.32855 0.1418,-0.48391 0.45802,-0.45803 1.02049,0.17288 0.70517,0.79096 -0.10432,0.20449 -0.0962,0.23393 0.0853,0.30911 0.11637,0.0482 0.16658,0.0371 0.46237,-0.10208 0.57015,-0.26831 1.03774,-0.361 1.83983,-0.3647 0.38375,-0.002 0.78889,0.003 0.9003,0.011 0.11142,0.008 0.2965,-0.0192 0.4113,-0.0599 l 0.20874,-0.0741 0.0189,-0.43523 c 0.0136,-0.31243 0.0453,-0.49396 0.11256,-0.64332 0.11621,-0.2581 0.37613,-0.55103 0.55447,-0.62491 l 0.13456,-0.0557 v -0.42217 -0.42219 h -0.3842 -0.38421 l 0.0128,-0.4614 0.0128,-0.46141 0.37137,-0.0131 0.37138,-0.0131 v -0.47084 -0.47084 h 0.3586 0.3586 l 0.0128,0.48392 0.0128,0.48391 h 0.36012 0.36012 l 0.0128,0.4614 0.0128,0.46141 h -0.3842 -0.38421 l 2e-5,0.41639 3e-5,0.41639 0.22153,0.19078 c 0.33823,0.29128 0.46664,0.5974 0.48994,1.16803 0.0151,0.36971 0.033,0.46479 0.0925,0.4909 0.0406,0.0178 0.49917,0.0467 1.0191,0.0642 1.19583,0.0402 1.64507,0.13532 2.28757,0.48428 0.20772,0.11282 0.22482,0.11501 0.40514,0.0517 0.14741,-0.0517 0.18473,-0.0854 0.17199,-0.15512 -0.0974,-0.5327 -0.0209,-0.83767 0.23721,-0.94549 0.36255,-0.15149 0.67631,0.14307 0.65144,0.61157 -0.0143,0.27024 0.0259,0.31804 0.23859,0.28352 l 0.1635,-0.0265 -0.005,-0.30174 c -0.004,-0.24413 0.0144,-0.32846 0.095,-0.4417 0.17843,-0.25059 0.50213,-0.28475 0.69042,-0.0729 0.1214,0.13663 0.18395,0.44234 0.13015,0.63608 -0.0748,0.26928 -0.0611,0.31408 0.11338,0.37167 0.0883,0.0291 0.16513,0.0459 0.17071,0.0373 0.006,-0.009 0.0351,-0.11702 0.0655,-0.24081 0.13227,-0.53752 0.6561,-0.65099 0.86645,-0.18769 0.11549,0.25437 0.10855,0.45845 -0.0233,0.68335 l -0.11045,0.18846 0.15203,0.14736 0.15203,0.14735 0.17652,-0.18556 c 0.21388,-0.22483 0.38326,-0.24479 0.59134,-0.0697 0.2604,0.21911 0.29327,0.64807 0.07,0.91341 -0.12606,0.14981 -0.13138,0.18164 -0.0575,0.34379 0.0503,0.1103 0.0664,0.11523 0.28688,0.0877 0.21461,-0.0268 0.24557,-0.0185 0.38018,0.10174 0.12001,0.10723 0.15057,0.1728 0.16876,0.36216 0.031,0.32228 -0.0138,0.45652 -0.21362,0.64103 -0.1565,0.14447 -0.17006,0.17466 -0.1414,0.3148 0.0268,0.13129 0.0555,0.15986 0.18701,0.18676 0.0891,0.0182 0.19925,0.086 0.25843,0.15909 0.0567,0.07 0.12286,0.15178 0.14701,0.18169 0.0629,0.0779 0.0542,0.45414 -0.0124,0.53774 -0.18755,0.23546 -0.30733,0.3307 -0.41589,0.3307 -0.18869,0 -0.2931,0.0783 -0.2931,0.21983 0,0.10602 0.0294,0.13819 0.18076,0.19764 0.14069,0.0553 0.20035,0.11416 0.26911,0.26567 0.10281,0.22654 0.10637,0.27005 0.0413,0.50426 -0.10093,0.36352 -0.4591,0.51007 -0.72857,0.2981 -0.14316,-0.11261 -0.19721,-0.11323 -0.25622,-0.003 -0.0856,0.15997 -0.0512,0.24737 0.13041,0.33102 0.29958,0.138 0.40573,0.56171 0.22244,0.88784 -0.10202,0.18151 -0.24205,0.2696 -0.42858,0.2696 -0.12926,0 -0.42102,-0.26204 -0.42102,-0.37813 0,-0.16479 -0.14317,-0.0512 -0.32053,0.25434 -0.41116,0.70831 -0.92826,1.24917 -1.19428,1.24917 -0.12987,0 -0.24079,-0.1143 -0.24079,-0.24814 0,-0.16873 -0.0733,-0.1732 -0.33974,-0.0207 -0.13674,0.0782 -0.27921,0.13051 -0.31659,0.11616 -0.0852,-0.0327 -0.19901,-0.29885 -0.19879,-0.4648 1.7e-4,-0.12509 0.14616,-0.4109 0.24183,-0.47342 0.0278,-0.0182 0.14567,-0.0334 0.26187,-0.0338 0.23911,-8.5e-4 0.35142,0.10291 0.35142,0.32443 0,0.15268 0.0848,0.16209 0.21389,0.0238 0.18783,-0.20122 0.17472,-0.31108 -0.0706,-0.59137 -0.12285,-0.14038 -0.23263,-0.30378 -0.24398,-0.36311 -0.0405,-0.21186 0.0865,-0.44309 0.40909,-0.74485 0.47413,-0.4435 0.73154,-0.87525 0.93109,-1.56169 0.16478,-0.56681 0.16028,-0.95194 -0.0175,-1.49971 -0.16594,-0.51129 -0.38078,-0.88472 -0.69021,-1.19975 -0.38364,-0.39057 -0.60288,-0.47339 -1.63469,-0.6175 -0.28487,-0.0398 -0.29933,-0.008 -0.18124,0.40006 0.13305,0.4596 0.22243,1.29903 0.18389,1.72686 -0.0164,0.1825 -0.0818,0.57751 -0.14527,0.8778 -0.15752,0.74544 -0.19626,1.75342 -0.0814,2.11851 0.0437,0.13895 0.0693,0.26279 0.0569,0.27521 -0.0124,0.0124 -0.16972,0.0634 -0.34957,0.11319 -0.47273,0.13101 -0.58613,0.19874 -0.58613,0.35009 0,0.12882 -0.15265,0.30756 -0.34887,0.40849 -0.0922,0.0474 -0.14644,0.22899 -0.0684,0.22899 0.0181,0 0.13733,-0.0433 0.26497,-0.0962 0.30608,-0.12687 0.45009,-0.0919 0.54237,0.13156 0.038,0.092 0.10046,0.20256 0.13887,0.24577 0.0637,0.0717 0.0604,0.0879 -0.0383,0.18561 -0.0594,0.0589 -0.15212,0.16025 -0.20595,0.22528 -0.15792,0.19077 -0.4052,0.15808 -0.70761,-0.0935 -0.085,-0.0707 -0.14558,-0.0931 -0.17434,-0.0643 -0.0503,0.0503 0.0621,0.22572 0.27321,0.42625 0.14648,0.13913 0.65852,0.34501 0.85805,0.34501 0.23585,0 0.56911,-0.13282 0.78753,-0.31386 0.1203,-0.0997 0.22737,-0.1813 0.23793,-0.1813 0.0106,0 0.0567,0.0874 0.10245,0.1942 0.20765,0.48442 0.68847,0.59459 1.27938,0.29313 0.0954,-0.0487 0.1831,-0.0788 0.19494,-0.067 0.0118,0.0118 -0.03,0.0994 -0.0931,0.19464 -0.063,0.0952 -0.16772,0.30394 -0.23269,0.46383 -0.065,0.1599 -0.18394,0.42316 -0.26437,0.58502 -0.0804,0.16187 -0.27421,0.61334 -0.43062,1.00329 l -0.28437,0.70899 h -0.50671 c -0.31753,0 -0.51266,-0.0178 -0.52264,-0.0478 z m 1.2351,-1.07939 c 0.0928,-0.0257 0.16881,-0.0643 0.16881,-0.0858 0,-0.0215 -0.43859,-0.22508 -0.97464,-0.45231 l -0.97463,-0.41314 -0.83723,0.20899 c -1.10221,0.27513 -1.30989,0.3368 -1.30989,0.38894 0,0.0417 1.52687,0.80349 1.83845,0.91721 0.13811,0.0504 0.22265,0.0315 1.03535,-0.23116 0.48674,-0.15732 0.96093,-0.30703 1.05378,-0.33269 z m -11.085,0.0269 c 0.53388,-0.23173 0.8835,-0.40829 0.89235,-0.45064 0.008,-0.0383 -0.0113,-0.0696 -0.0429,-0.0696 -0.0316,0 -0.45609,-0.13174 -0.94325,-0.29275 l -0.88575,-0.29276 -0.60182,0.22028 c -1.26256,0.46212 -1.39229,0.51467 -1.3778,0.55813 0.0256,0.0767 1.90975,0.75755 2.0139,0.72773 0.0371,-0.0106 0.46253,-0.19079 0.94532,-0.40035 z m 4.68636,0.16003 c 0.35637,-0.14576 0.76285,-0.31614 0.9033,-0.37862 0.14044,-0.0625 0.26883,-0.10021 0.28531,-0.0838 0.0165,0.0163 0.0579,0.0964 0.092,0.1779 0.0897,0.21424 0.41524,0.35523 0.65462,0.28351 0.29923,-0.0897 0.45051,-0.36966 0.35541,-0.65783 -0.14141,-0.42847 -0.79432,-0.44329 -1.01168,-0.023 -0.0679,0.13129 -0.0766,0.13466 -0.1935,0.0748 -0.29912,-0.1531 -1.63806,-0.65846 -1.74459,-0.65846 -0.0649,0 -0.49493,0.13166 -0.95562,0.29259 -0.87269,0.30486 -1.00091,0.33428 -1.00091,0.22974 0,-0.0346 -0.0716,-0.12573 -0.15912,-0.20257 -0.35079,-0.308 -0.92124,-0.0855 -0.92124,0.35941 0,0.20933 0.1256,0.36962 0.36456,0.46524 0.29018,0.1161 0.53104,5.1e-4 0.73832,-0.35411 0.0405,-0.0693 0.11517,-0.0449 0.74275,0.24236 0.38375,0.17567 0.77875,0.3583 0.87779,0.40583 0.099,0.0475 0.21259,0.0877 0.25235,0.0892 0.0398,0.002 0.36388,-0.11647 0.72025,-0.26222 z m 3.17404,-2.29093 c 0.24139,-0.1246 0.46742,-0.31636 0.46742,-0.39656 0,-0.0868 -0.0895,-0.0797 -0.32145,0.0255 -0.27251,0.12366 -0.41754,0.11612 -0.53058,-0.0276 -0.0513,-0.0652 -0.0933,-0.15188 -0.0933,-0.19255 0,-0.0407 -0.0319,-0.11955 -0.071,-0.1753 -0.0769,-0.10983 -0.0856,-0.0937 0.23884,-0.44305 0.11819,-0.12725 0.25348,-0.11242 0.51766,0.0568 0.2006,0.12846 0.2151,0.13041 0.21371,0.0287 -6.8e-4,-0.0458 -0.13733,-0.17552 -0.32636,-0.30972 -0.44933,-0.31901 -1.11305,-0.90656 -1.11305,-0.98533 0,-0.0358 0.0818,-0.1987 0.18176,-0.36202 0.463,-0.75646 0.90622,-1.7781 1.10582,-2.54893 0.0936,-0.36142 0.12136,-0.57907 0.12532,-0.98201 0.005,-0.48074 -0.004,-0.53591 -0.12042,-0.77325 -0.32398,-0.65974 -1.44929,-1.28152 -2.37214,-1.31072 l -0.29189,-0.009 -0.0565,0.22508 c -0.15207,0.6055 -0.20491,1.18043 -0.20273,2.20574 0.003,1.50073 0.14204,2.61078 0.39656,3.17021 0.0611,0.13431 0.0951,0.26026 0.0755,0.27987 -0.0196,0.0196 -0.26826,0.17447 -0.55255,0.34413 -0.49627,0.29616 -0.51745,0.31502 -0.5308,0.47288 -0.0107,0.12667 -0.0546,0.19929 -0.19131,0.31629 -0.0976,0.0835 -0.17742,0.18536 -0.17742,0.22632 0,0.0966 0.0515,0.0939 0.23376,-0.0123 0.22532,-0.13126 0.45694,-0.16146 0.54708,-0.0713 0.041,0.0409 0.0745,0.10066 0.0745,0.13269 0,0.032 0.042,0.11161 0.0933,0.17684 l 0.0933,0.11861 -0.0933,0.11861 c -0.0513,0.0652 -0.0933,0.14547 -0.0933,0.17831 0,0.0984 -0.18864,0.24326 -0.31682,0.24326 -0.0659,0 -0.20892,-0.0604 -0.31787,-0.13422 -0.32169,-0.21798 -0.42167,-0.1638 -0.16723,0.0906 0.5011,0.50111 1.11825,0.5338 1.62678,0.0862 0.11099,-0.0977 0.2145,-0.17763 0.23003,-0.17763 0.0155,0 0.0914,0.0719 0.16858,0.15985 0.25438,0.28972 0.51107,0.3828 1.00478,0.36433 0.25876,-0.01 0.41229,-0.0404 0.54543,-0.10912 z m -4.46837,-0.0123 c 0.22954,-0.0599 0.71536,-0.45007 0.64695,-0.51964 -0.0192,-0.0195 -0.16453,0.031 -0.32297,0.11228 -0.26399,0.1354 -0.29873,0.14271 -0.41526,0.0874 -0.0747,-0.0354 -0.16584,-0.14088 -0.22091,-0.25559 -0.0516,-0.10739 -0.11761,-0.21 -0.14678,-0.22803 -0.0368,-0.0228 -0.0185,-0.0653 0.06,-0.13896 0.0622,-0.0584 0.11302,-0.14245 0.11302,-0.18678 0,-0.19489 0.37595,-0.2198 0.62634,-0.0415 0.15738,0.11206 0.18394,0.11482 0.18394,0.019 0,-0.0406 -0.081,-0.16165 -0.18007,-0.26909 -0.12076,-0.13102 -0.18006,-0.23688 -0.18006,-0.32149 0,-0.11281 -0.0573,-0.1613 -0.54205,-0.45848 -0.29812,-0.18278 -0.55324,-0.35044 -0.56692,-0.37257 -0.0137,-0.0221 0.0455,-0.17584 0.13144,-0.34155 0.39971,-0.77044 0.7406,-3.0242 0.61872,-4.09054 -0.0661,-0.57802 -0.18153,-1.23078 -0.23634,-1.33621 -0.0395,-0.0759 -0.0801,-0.0807 -0.43319,-0.0514 -0.88265,0.0732 -1.70461,0.4098 -2.1343,0.87391 -0.28929,0.31247 -0.38939,0.55758 -0.42449,1.03935 -0.0601,0.82449 0.41069,2.33594 1.13311,3.63811 l 0.20776,0.3745 -0.17106,0.15845 c -0.0941,0.0872 -0.37063,0.30948 -0.61455,0.49406 -0.517,0.39122 -0.7041,0.58733 -0.59886,0.62771 0.0376,0.0144 0.12612,-0.0165 0.19672,-0.0687 0.0706,-0.0522 0.20294,-0.10701 0.29408,-0.1218 0.14294,-0.0232 0.17986,-0.01 0.26861,0.0971 0.0566,0.0682 0.1448,0.16926 0.19602,0.22461 0.0905,0.0977 0.0908,0.10352 0.0113,0.20174 -0.045,0.0556 -0.0819,0.13557 -0.0819,0.17768 0,0.125 -0.17119,0.27359 -0.3152,0.27359 -0.0724,0 -0.23284,-0.0399 -0.35655,-0.0887 -0.35004,-0.13797 -0.36535,0.0202 -0.0256,0.26418 0.5472,0.39298 1.24005,0.36448 1.67336,-0.0688 0.10689,-0.10689 0.19435,-0.21951 0.19435,-0.25026 0,-0.0308 -0.0958,-0.15313 -0.2128,-0.27195 -0.17996,-0.18271 -0.2128,-0.24298 -0.2128,-0.39053 0,-0.22751 0.0904,-0.39013 0.25479,-0.45821 0.35821,-0.14837 0.71187,0.37567 0.51304,0.76018 -0.0346,0.0669 -0.10551,0.1602 -0.15756,0.20731 -0.12316,0.11146 -0.1206,0.12901 0.0466,0.31943 0.22815,0.25985 0.68371,0.48898 0.89413,0.44972 0.0371,-0.007 0.16583,-0.0382 0.28598,-0.0696 z m 5.48329,-2.0346 c 0.21538,-0.17428 0.27684,-0.48044 0.15499,-0.77208 -0.0809,-0.19359 -0.23148,-0.29703 -0.4324,-0.29703 -0.21632,0 -0.33756,0.0954 -0.43058,0.33902 -0.0888,0.23254 -0.0494,0.45394 0.11872,0.66772 0.0773,0.0983 0.1298,0.11864 0.30652,0.11864 0.11726,0 0.2445,-0.0253 0.28275,-0.0563 z m -9.15039,-0.19218 c 0.11358,-0.10261 0.18565,-0.21336 0.20462,-0.31443 0.0719,-0.38354 -0.20168,-0.77593 -0.50659,-0.72645 -0.48989,0.0795 -0.62003,0.77926 -0.20555,1.10529 0.17054,0.13415 0.3069,0.11685 0.50752,-0.0644 z m 4.48525,-0.25549 c 0.31045,-0.14145 0.33087,-0.67473 0.0328,-0.85561 l -0.11669,-0.0708 0.13385,-0.0692 c 0.3728,-0.19278 0.3011,-0.88624 -0.0916,-0.88624 -0.38655,0 -0.5037,0.59268 -0.17013,0.86069 0.0935,0.0751 0.10546,0.10218 0.0534,0.1206 -0.0369,0.0131 -0.12551,0.0822 -0.19692,0.1536 -0.11587,0.11587 -0.12729,0.15245 -0.10615,0.34005 0.0182,0.16141 0.0562,0.23929 0.16388,0.33546 0.16229,0.14501 0.1452,0.1409 0.29757,0.0715 z m 4.91421,-0.84454 c 0.15897,-0.0969 0.26976,-0.36914 0.22358,-0.54934 -0.0437,-0.17047 -0.24307,-0.35295 -0.38562,-0.35295 -0.16385,0 -0.34622,0.18136 -0.3838,0.38165 -0.0352,0.18787 0.0584,0.43285 0.20468,0.53528 0.13347,0.0935 0.16611,0.0921 0.34116,-0.0146 z m -9.79712,-0.13836 c 0.23644,-0.12654 0.28397,-0.57734 0.0834,-0.79086 -0.12751,-0.13572 -0.39546,-0.14854 -0.50791,-0.0243 -0.18248,0.20163 -0.17178,0.62762 0.0197,0.78271 0.10923,0.0885 0.27526,0.10179 0.40487,0.0324 z m 10.02614,-0.92421 c 0.1546,-0.10829 0.24822,-0.32499 0.21877,-0.50643 -0.0326,-0.20107 -0.23258,-0.41365 -0.38907,-0.41365 -0.1294,0 -0.33074,0.18372 -0.37991,0.34665 -0.0458,0.15181 0.0533,0.44809 0.18449,0.55124 0.14074,0.1107 0.23148,0.11621 0.36572,0.0222 z m -4.91804,-0.29251 c 0.12226,-0.23643 0.0701,-0.52177 -0.12351,-0.67605 -0.0875,-0.0697 -0.0867,-0.0734 0.0503,-0.21036 0.11954,-0.11954 0.13937,-0.17218 0.13937,-0.36996 0,-0.1848 -0.0219,-0.25252 -0.11049,-0.34107 -0.13413,-0.13413 -0.28863,-0.14108 -0.44267,-0.0199 -0.21822,0.17166 -0.2116,0.53321 0.0139,0.7587 l 0.12874,0.12874 -0.10487,0.0561 c -0.28169,0.15076 -0.25828,0.74466 0.0336,0.85264 0.14334,0.053 0.33934,-0.0313 0.41563,-0.17884 z m -5.22714,0.0442 c 0.26227,-0.31169 0.037,-0.92923 -0.30155,-0.82664 -0.3543,0.10735 -0.46037,0.58594 -0.18983,0.85648 0.1555,0.1555 0.34512,0.14399 0.49138,-0.0298 z m 10.38348,-0.9384 c 0.11034,-0.11035 0.13158,-0.16791 0.13158,-0.35667 0,-0.41592 -0.31712,-0.63259 -0.60009,-0.41 -0.32699,0.25721 -0.16499,0.89825 0.22699,0.89825 0.0615,0 0.16792,-0.058 0.24152,-0.13158 z m -10.57955,-0.0948 c 0.12033,-0.0644 0.22258,-0.27918 0.22258,-0.46752 0,-0.19408 -0.22593,-0.47646 -0.38122,-0.47646 -0.24277,0 -0.47983,0.37673 -0.41062,0.65252 0.0669,0.26659 0.34739,0.4102 0.56926,0.29146 z m 10.35236,-0.92291 c 0.15194,-0.16174 0.16755,-0.45561 0.0346,-0.65129 -0.0918,-0.13506 -0.13224,-0.15755 -0.28353,-0.15755 -0.15128,0 -0.19175,0.0225 -0.28352,0.15755 -0.17959,0.2643 -0.0796,0.66254 0.19181,0.76386 0.12175,0.0454 0.2239,0.0117 0.34065,-0.11257 z m -4.98717,-0.01 c 0.15143,-0.15919 0.19108,-0.32619 0.12501,-0.5264 -0.0949,-0.28756 -0.35448,-0.38115 -0.53227,-0.19191 -0.21854,0.23264 -0.21777,0.50611 0.002,0.74082 0.1267,0.13525 0.26227,0.12772 0.40516,-0.0225 z m -5.08441,-0.10199 c 0.137,-0.10776 0.23109,-0.3622 0.18674,-0.50501 -0.0698,-0.22484 -0.1992,-0.34957 -0.36259,-0.34957 -0.31235,0 -0.50602,0.37315 -0.35683,0.68753 0.11957,0.25198 0.33773,0.32039 0.53268,0.16705 z m 9.42139,-0.56867 c 0.14935,-0.0979 0.2437,-0.28786 0.2437,-0.49075 0,-0.12682 -0.0349,-0.19919 -0.15305,-0.31734 -0.18667,-0.18667 -0.30907,-0.19303 -0.47732,-0.0248 -0.24486,0.24487 -0.20044,0.68438 0.0848,0.83942 0.15161,0.0824 0.16659,0.0821 0.30182,-0.007 z m -8.8725,-0.15843 c 0.18282,-0.1438 0.25502,-0.34658 0.19754,-0.55478 -0.051,-0.18468 -0.22072,-0.38298 -0.3278,-0.38298 -0.46965,0 -0.58337,0.81101 -0.13921,0.9928 0.12948,0.053 0.13307,0.0523 0.26947,-0.055 z m 4.4817,-0.14017 c 0.21808,-0.17185 0.28271,-0.46152 0.15715,-0.70434 -0.11632,-0.22493 -0.32857,-0.24592 -0.5228,-0.0517 -0.20353,0.20352 -0.17367,0.54063 0.065,0.73395 0.11272,0.0913 0.20426,0.098 0.30065,0.0221 z m 3.74046,-0.43349 c 0.0843,-0.0682 0.10627,-0.12964 0.10627,-0.29657 0,-0.16694 -0.022,-0.22834 -0.10627,-0.29658 -0.0584,-0.0473 -0.13217,-0.0861 -0.16382,-0.0861 -0.12383,0 -0.25363,0.16127 -0.27839,0.3459 -0.0215,0.15996 -0.008,0.20443 0.0908,0.3034 0.13846,0.13846 0.20983,0.14453 0.35139,0.0299 z m -7.50385,-0.14904 c 0.16668,-0.23796 0.0316,-0.62019 -0.21926,-0.62019 -0.13655,0 -0.29586,0.19391 -0.29586,0.36012 0,0.29929 0.36025,0.48118 0.51512,0.26007 z m 6.81332,-0.26132 c 0.20064,-0.18692 0.18325,-0.49309 -0.0344,-0.60564 -0.17684,-0.0914 -0.21199,-0.0871 -0.34125,0.0421 -0.13927,0.13927 -0.14672,0.3715 -0.0172,0.53616 0.11157,0.14184 0.25892,0.15209 0.39283,0.0273 z m -6.11638,-0.10773 c 0.14835,-0.15791 0.14029,-0.41801 -0.0172,-0.55345 -0.14636,-0.12589 -0.20517,-0.12821 -0.3506,-0.0138 -0.1301,0.10234 -0.18186,0.29658 -0.11408,0.42818 0.13863,0.26915 0.31251,0.31934 0.48185,0.13908 z m 1.23805,-0.14182 c 0.1335,-0.1335 0.0769,-0.42443 -0.0826,-0.42443 -0.20142,0 -0.28102,0.24847 -0.13225,0.41285 0.091,0.10061 0.12407,0.10239 0.21488,0.0116 z m 3.55555,-0.0742 c 0.0339,-0.0968 0.0255,-0.14154 -0.0399,-0.21382 -0.15014,-0.1659 -0.33885,-0.073 -0.33885,0.16673 0,0.22028 0.30496,0.25819 0.37876,0.0471 z m 0.63153,0.0449 c 0.0905,-0.12921 0.089,-0.25464 -0.004,-0.35781 -0.2095,-0.23149 -0.53008,0.0816 -0.35584,0.34752 0.0916,0.13975 0.2661,0.14473 0.36026,0.0103 z m -4.77161,-0.045 c 0.0974,-0.13906 0.0875,-0.32042 -0.023,-0.42042 -0.085,-0.0769 -0.10367,-0.0784 -0.21383,-0.0168 -0.0861,0.0481 -0.12484,0.11015 -0.13513,0.21654 -0.0264,0.27335 0.22897,0.42488 0.37199,0.22069 z"
       id="path910" /><rect
       style="vector-effect:non-scaling-stroke;fill:none;stroke:#ff0000;stroke-width:0.264583;stroke-linecap:round;-inkscape-stroke:hairline;stop-color:#000000"
       id="rect908"
       width="80"
       height="120"
       x="40.271183"
       y="64.182198" /><g
       id="g1037"
       transform="translate(-2.8474805)"><path
         d="m 70.765813,73.325426 v 0.283159 q -0.949948,0.164419 -1.388386,0.758132 -0.182681,0.246622 -0.255754,0.621119 -0.07307,0.3745 -0.07307,1.123497 v 6.037655 q 0,1.488862 -0.48411,2.310935 -0.447571,0.75813 -1.187435,1.16917 -0.739864,0.41103 -1.653277,0.41103 -0.748997,0 -1.379251,-0.27402 -0.621121,-0.27403 -0.977351,-0.749 -0.356231,-0.48411 -0.356231,-1.059559 0,-0.529778 0.301426,-0.876875 0.31056,-0.356232 0.794668,-0.356232 0.438439,0 0.739864,0.283159 0.301426,0.274024 0.301426,0.703327 0,0.182683 -0.05481,0.474975 l -0.04567,0.200945 q -0.06393,0.24663 -0.06393,0.42017 0,0.35624 0.228351,0.56632 0.228354,0.21008 0.575451,0.21008 0.237486,0 0.456705,-0.11874 0.228354,-0.11875 0.3745,-0.3471 0.15528,-0.23749 0.210084,-0.51151 0.100468,-0.484107 0.100468,-1.44319 v -7.051542 q 0,-0.812935 -0.109606,-1.196569 -0.100469,-0.383633 -0.401903,-0.657657 -0.529778,-0.502376 -1.589336,-0.648522 v -0.283158 z m -4.503121,0.347097 0.520645,0.383633 q 0.356232,0.255756 0.42017,0.401902 0.06393,0.137004 0.06393,0.675924 v 0.246622 7.508248 q 0,0.858606 -0.06393,1.379251 -0.05481,0.51151 -0.219219,0.8038 -0.164419,0.28316 -0.484108,0.52065 0.968216,-0.4019 1.351849,-1.22397 0.383634,-0.822074 0.383634,-2.457083 v -6.622237 q 0,-0.0274 0,-0.05481 0.0092,-0.0274 0.0092,-0.100469 v -0.301425 q 0.01828,-0.274024 0.100469,-0.411035 0.08221,-0.137021 0.392767,-0.365366 l 0.520645,-0.383633 z m -1.351849,11.9657 q -0.319694,-0.22835 -0.493243,-0.41104 -0.164419,-0.18268 -0.228353,-0.38363 -0.06393,-0.20095 -0.06393,-0.49324 0,-0.246623 0.04567,-0.456707 0.03654,-0.274024 0.03654,-0.292294 0,-0.191816 -0.109606,-0.310559 -0.100469,-0.118745 -0.274024,-0.118745 -0.219219,0 -0.35623,0.219218 -0.127884,0.210084 -0.127884,0.548048 0,0.602849 0.42017,1.059559 0.429303,0.45671 1.150899,0.63939 z"
         style="font-size:10.5833px;line-height:1.25;font-family:'Academy Engraved LET';-inkscape-font-specification:'Academy Engraved LET';stroke-width:0.264583"
         id="path1018" /><path
         d="m 99.200016,79.267114 v 3.754125 q 0,0.785534 0.09135,1.169167 0.100468,0.38363 0.374499,0.68506 0.484105,0.50237 1.443195,0.64852 v 0.28316 h -5.809305 v -0.28316 q 0.986486,-0.16442 1.434058,-0.75813 0.347095,-0.43844 0.347095,-1.744617 v -6.896263 q 0,-0.831205 -0.09135,-1.205703 -0.09135,-0.374499 -0.337962,-0.639388 -0.438438,-0.484108 -1.35185,-0.657657 v -0.283159 q 0.127883,0.0092 0.228353,0.0092 l 0.803803,0.04567 q 0.484108,0.0274 1.123497,0.0274 1.013888,0 1.835958,-0.08221 l 1.278773,-0.109607 q 0.60286,-0.05481 1.18744,-0.05481 1.07783,0 1.9273,0.219218 0.84947,0.219219 1.43406,0.630254 0.58458,0.411037 0.90428,1.013888 0.31969,0.593719 0.31969,1.333581 0,1.233107 -0.84947,1.927301 -0.84034,0.685059 -2.49362,0.803802 1.02302,0.401901 1.72635,1.105229 0.71246,0.694192 1.68981,2.274396 1.10523,1.772025 1.74462,2.466215 0.63939,0.69419 1.41579,0.98649 v 0.25575 q -0.99562,-0.0183 -1.69895,-0.18268 -0.69419,-0.16442 -1.38838,-0.58459 -0.86775,-0.53891 -1.63501,-1.452323 -0.76727,-0.913413 -1.34272,-2.091715 l -0.48411,-1.013886 q -0.34709,-0.712462 -0.61198,-1.032156 -0.26489,-0.328829 -0.63026,-0.447573 -0.36536,-0.118745 -0.99562,-0.118745 z m 0,-0.365364 h 1.635004 q 1.41579,0 2.03691,-0.319695 0.55718,-0.283157 0.86774,-0.876875 0.3197,-0.602851 0.3197,-1.379253 0,-0.803802 -0.3745,-1.443191 -0.36537,-0.639389 -1.03216,-0.986484 -0.65765,-0.356231 -1.50713,-0.356231 -1.260505,0 -1.698943,0.785534 -0.246621,0.447573 -0.246621,1.406656 z m 3.562304,0.03654 q 0.61199,-0.137021 1.11437,-0.392767 0.51151,-0.255756 0.84034,-0.584585 0.32882,-0.328828 0.50237,-0.748998 0.18268,-0.420169 0.18268,-0.876875 0,-0.995618 -0.71246,-1.735483 -0.71246,-0.739864 -1.88163,-0.949948 0.52065,0.283157 0.87688,0.675924 0.35623,0.392768 0.53891,0.895143 0.18269,0.493243 0.18269,1.068694 0,0.995618 -0.39277,1.635007 -0.39277,0.630254 -1.25138,1.013888 z m 5.76363,6.877996 q -0.48411,-0.26489 -0.78553,-0.48411 -0.30143,-0.21923 -0.70333,-0.61199 -0.47497,-0.511509 -0.749,-0.886009 -0.26488,-0.374497 -0.88601,-1.397519 -0.58458,-0.97735 -1.05955,-1.580204 -0.46584,-0.602851 -0.94082,-0.968216 -0.47497,-0.365364 -1.05042,-0.602853 0.36536,0.3745 0.60285,0.739865 0.12788,0.200951 0.45671,0.849472 0.10047,0.191818 0.19181,0.3745 0.10047,0.182683 0.19182,0.383632 0.97735,1.909032 2.10085,2.904652 1.12349,0.98649 2.63062,1.27878 z m -11.947427,-0.47497 h 2.667163 l -0.356231,-0.26489 q -0.31056,-0.22835 -0.401901,-0.36536 -0.08221,-0.13703 -0.08221,-0.41104 0,-0.146149 -0.0092,-0.191823 0,-0.05479 0,-0.109607 v -0.15528 -8.540403 -0.155281 q 0,-0.05481 0,-0.109607 0.0092,-0.05481 0.0092,-0.191816 0,-0.255756 0.07307,-0.392767 0.08221,-0.137022 0.347097,-0.337962 l 0.06393,-0.04567 0.511512,-0.392766 -0.328829,0.01826 q -0.831205,0.05481 -1.497996,0.05481 -0.411035,0 -1.123497,-0.0274 l 0.484108,0.347095 q 0.301427,0.200951 0.392768,0.356232 0.09135,0.146142 0.09135,0.42017 0.0092,0.15528 0.0092,0.301425 v 0.15528 8.540403 0.155281 q 0,0.146142 -0.0092,0.301426 0,0.28316 -0.08221,0.42017 -0.08221,0.12789 -0.401902,0.35624 z"
         style="font-size:10.5833px;line-height:1.25;font-family:'Academy Engraved LET';-inkscape-font-specification:'Academy Engraved LET';stroke-width:0.264583"
         id="path1020" /></g><rect
       style="fill:#000000;stroke:none;stroke-width:0.264583;stroke-linecap:round;stop-color:#000000"
       id="rect1025"
       width="79.280304"
       height="1.9336659"
       x="40.631031"
       y="88.353653" /><text
       xml:space="preserve"
       style="font-style:normal;font-weight:normal;font-size:6.9369px;line-height:1.25;font-family:sans-serif;fill:#000000;fill-opacity:1;stroke:none;stroke-width:0.264583"
       x="43.986187"
       y="98.851982"
       id="text1029"><tspan
         sodipodi:role="line"
         id="tspan1027"
         style="font-style:normal;font-variant:normal;font-weight:normal;font-stretch:normal;font-size:6.9369px;font-family:AppleMyungjo;-inkscape-font-specification:AppleMyungjo;stroke-width:0.264583"
         x="43.986187"
         y="98.851982">WEDDING POST BOX</tspan></text><text
       xml:space="preserve"
       style="font-style:normal;font-weight:normal;font-size:4.93889px;line-height:1.25;font-family:sans-serif;fill:#000000;fill-opacity:1;stroke:none;stroke-width:0.264583"
       x="63.662228"
       y="111.4089"
       id="text1033"><tspan
         sodipodi:role="line"
         id="tspan1031"
         style="font-style:normal;font-variant:normal;font-weight:normal;font-stretch:normal;font-size:4.93889px;font-family:AppleMyungjo;-inkscape-font-specification:AppleMyungjo;stroke-width:0.264583"
         x="63.662228"
         y="111.4089">Next Collection</tspan></text><text
       xml:space="preserve"
       style="font-style:normal;font-weight:normal;font-size:4.93889px;line-height:1.25;font-family:sans-serif;fill:#000000;fill-opacity:1;stroke:none;stroke-width:0.264583"
       x="54.142643"
       y="119.58979"
       id="text1041"><tspan
         sodipodi:role="line"
         id="tspan1039"
         style="font-style:normal;font-variant:normal;font-weight:normal;font-stretch:normal;font-size:4.93889px;font-family:AppleMyungjo;-inkscape-font-specification:AppleMyungjo;stroke-width:0.264583"
         x="54.142643"
         y="119.58979">Saturday 12/08/2023</tspan></text></g></svg>
