<?xml version="1.0" encoding="UTF-8" standalone="no"?>
<!-- Created with Inkscape (http://www.inkscape.org/) -->

<svg
   width="169.74112mm"
   height="63.748711mm"
   viewBox="0 0 169.74112 63.748711"
   version="1.1"
   id="svg14470"
   inkscape:version="1.2.1 (9c6d41e, 2022-07-14)"
   sodipodi:docname="logo.svg"
   xmlns:inkscape="http://www.inkscape.org/namespaces/inkscape"
   xmlns:sodipodi="http://sodipodi.sourceforge.net/DTD/sodipodi-0.dtd"
   xmlns="http://www.w3.org/2000/svg"
   xmlns:svg="http://www.w3.org/2000/svg">
  <sodipodi:namedview
     id="namedview14472"
     pagecolor="#ffffff"
     bordercolor="#666666"
     borderopacity="1.0"
     inkscape:showpageshadow="2"
     inkscape:pageopacity="0.0"
     inkscape:pagecheckerboard="0"
     inkscape:deskcolor="#d1d1d1"
     inkscape:document-units="mm"
     showgrid="false"
     inkscape:zoom="1.0575202"
     inkscape:cx="183.92084"
     inkscape:cy="204.25142"
     inkscape:window-width="1280"
     inkscape:window-height="430"
     inkscape:window-x="0"
     inkscape:window-y="25"
     inkscape:window-maximized="0"
     inkscape:current-layer="layer1" />
  <defs
     id="defs14467" />
  <g
     inkscape:label="Layer 1"
     inkscape:groupmode="layer"
     id="layer1"
     transform="translate(-19.373125,-5.9813086)">
    <path
       style="fill:none;stroke:#e70000;stroke-width:0.26458333;stroke-opacity:1;vector-effect:non-scaling-stroke;-inkscape-stroke:hairline;stroke-dasharray:none"
       d="m 84.735409,25.612748 c 0.354489,-0.506073 0.318455,-1.166171 -0.08375,-1.530128 -0.309365,-0.279886 -0.377309,-0.285336 -0.778247,-0.06113 -0.313363,0.175066 -0.454353,0.400896 -0.491807,0.788105 -0.09605,0.994871 0.833345,1.546373 1.353873,0.803213 z"
       id="path15241" />
    <path
       style="fill:none;stroke:#e70000;stroke-width:0.26458333;stroke-opacity:1;vector-effect:non-scaling-stroke;-inkscape-stroke:hairline;stroke-dasharray:none"
       d="m 102.10184,25.776516 c 0.32939,-0.470271 0.32393,-0.92678 -0.0145,-1.302269 -0.76248,-0.842477 -1.92924,0.296993 -1.29509,1.264815 0.33338,0.508619 0.96847,0.526746 1.31118,0.03745 z"
       id="path15239" />
    <path
       style="fill:none;stroke:#e70000;stroke-width:0.26458333;stroke-opacity:1;vector-effect:non-scaling-stroke;-inkscape-stroke:hairline;stroke-dasharray:none"
       d="m 79.82036,27.742481 c 0.606631,-0.866065 0.115003,-2.257171 -0.798005,-2.257171 -0.496984,0 -1.076797,0.705748 -1.076797,1.310632 0,1.089275 1.311148,1.751277 1.874802,0.946539 z"
       id="path15229" />
    <path
       style="fill:none;stroke:#e70000;stroke-width:0.26458333;stroke-opacity:1;vector-effect:non-scaling-stroke;-inkscape-stroke:hairline;stroke-dasharray:none"
       d="m 107.13088,28.284914 c 0.30681,-0.248218 0.38678,-0.471796 0.38678,-1.079375 0,-0.607546 -0.0801,-0.831051 -0.38678,-1.079416 -0.21255,-0.172152 -0.48103,-0.313363 -0.59622,-0.313363 -0.4507,0 -0.9231,0.586947 -1.01321,1.258912 -0.0783,0.582181 -0.0292,0.744065 0.33047,1.104235 0.50392,0.503938 0.76367,0.526021 1.27889,0.108828 z"
       id="path15227" />
    <path
       style="vector-effect:non-scaling-stroke;fill:none;stroke:#e70000;stroke-width:0.264583;stroke-dasharray:none;stroke-opacity:1;-inkscape-stroke:hairline"
       d="m 93.517348,25.629313 c 0.793713,-0.625484 1.028937,-1.679745 0.571955,-2.563506 -0.423348,-0.818636 -1.19584,-0.895028 -1.902756,-0.188165 -0.740751,0.740688 -0.632071,1.967606 0.236571,2.67124 0.41025,0.33229 0.743413,0.356677 1.09423,0.08048 z"
       id="path15225" />
    <path
       style="fill:none;stroke:#e70000;stroke-width:0.26458333;stroke-opacity:1;vector-effect:non-scaling-stroke;-inkscape-stroke:hairline;stroke-dasharray:none"
       d="m 75.208342,33.019078 c 0.498614,-0.392195 0.841057,-1.318239 0.679646,-1.838 -0.254047,-0.818321 -0.725001,-1.272274 -1.31966,-1.272274 -1.136807,0 -1.841682,1.358093 -1.298702,2.502328 0.435184,0.91709 1.229181,1.166034 1.938716,0.607946 z"
       id="path15219" />
    <path
       style="vector-effect:non-scaling-stroke;fill:none;stroke:#e70000;stroke-width:0.264583;stroke-dasharray:none;stroke-opacity:1;-inkscape-stroke:hairline"
       d="m 93.713225,32.861109 c 0.551134,-0.579382 0.695448,-1.187181 0.454984,-1.915854 -0.345399,-1.046549 -1.290149,-1.387172 -1.937222,-0.698457 -0.795375,0.846696 -0.792577,1.84204 0.0074,2.696269 0.461129,0.492248 0.954545,0.46481 1.4746,-0.08185 z"
       id="path15217" />
    <path
       style="fill:none;stroke:#e70000;stroke-width:0.26458333;stroke-opacity:1;vector-effect:non-scaling-stroke;-inkscape-stroke:hairline;stroke-dasharray:none"
       d="m 111.8642,33.426676 c 0.553,-0.588651 0.60981,-1.658209 0.12594,-2.370427 -0.33411,-0.491555 -0.4813,-0.573407 -1.03193,-0.573407 -0.55058,0 -0.69787,0.08185 -1.03187,0.573407 -0.65363,0.96193 -0.28971,2.411374 0.6981,2.780098 0.44311,0.16523 0.81489,0.04261 1.23981,-0.409702 z"
       id="path15215" />
    <path
       style="fill:none;stroke:#e70000;stroke-width:0.26458333;stroke-opacity:1;vector-effect:non-scaling-stroke;-inkscape-stroke:hairline;stroke-dasharray:none"
       d="m 74.900029,40.546008 c 0.954545,-1.134409 0.134667,-3.381964 -1.097502,-3.008579 -1.289485,0.390701 -1.675526,2.132541 -0.690892,3.117186 0.565947,0.565947 1.256082,0.524053 1.788394,-0.108459 z"
       id="path15209" />
    <path
       style="fill:none;stroke:#e70000;stroke-width:0.26458333;stroke-opacity:1;vector-effect:non-scaling-stroke;-inkscape-stroke:hairline;stroke-dasharray:none"
       d="m 111.82377,41.449748 c 0.56268,-0.39409 0.90341,-1.182815 0.79622,-1.843134 -0.11864,-0.731808 -0.84649,-1.505532 -1.41603,-1.505532 -0.47096,0 -1.20374,0.668652 -1.3827,1.26168 -0.16669,0.55248 0.19399,1.630803 0.67146,2.00626 0.51223,0.402853 0.84248,0.422905 1.33105,0.0808 z"
       id="path15205" />
    <path
       style="fill:none;stroke:#e70000;stroke-width:0.26458333;stroke-opacity:1;vector-effect:non-scaling-stroke;-inkscape-stroke:hairline;stroke-dasharray:none"
       d="m 76.780575,49.320604 c 0.413385,-0.373416 0.67569,-0.776501 0.744728,-1.144383 0.261685,-1.395904 -0.734017,-2.823981 -1.843755,-2.643938 -1.782965,0.289344 -2.256624,2.836143 -0.748105,4.022746 0.620687,0.48824 1.116976,0.425273 1.847132,-0.234393 z"
       id="path15197" />
    <path
       style="fill:none;stroke:#e70000;stroke-width:0.26458333;stroke-opacity:1;vector-effect:non-scaling-stroke;-inkscape-stroke:hairline;stroke-dasharray:none"
       d="m 110.08374,50.02005 c 0.78389,-0.634301 1.00757,-1.748541 0.5641,-2.810009 -0.29444,-0.70458 -0.84248,-1.081058 -1.57374,-1.081058 -0.7873,0 -1.22856,0.347209 -1.56711,1.233873 -0.32319,0.846338 -0.17979,1.652139 0.43209,2.430228 0.28133,0.357771 0.47241,0.431765 1.11559,0.431765 0.42677,0 0.88986,-0.09206 1.02907,-0.204904 z"
       id="path15195" />
    <path
       style="vector-effect:non-scaling-stroke;fill:none;stroke:#e70000;stroke-width:0.264583;stroke-dasharray:none;stroke-opacity:1;-inkscape-stroke:hairline"
       d="m 90.127125,57.425043 c 0.835418,-0.218003 2.074403,-1.638041 1.825427,-1.891246 -0.06986,-0.07102 -0.598814,0.112825 -1.175461,0.40865 -0.960804,0.492796 -0.558077,0.519392 -0.982182,0.318097 -0.271879,-0.128838 -0.603591,-0.512743 -0.804013,-0.930231 -0.187796,-0.390849 -0.42805,-0.764307 -0.534216,-0.829925 -0.13393,-0.08301 -0.06733,-0.237666 0.21837,-0.505747 0.226388,-0.212553 0.411344,-0.518456 0.411344,-0.679793 0,-0.709273 0.83912,-1.32914 1.750424,-0.680204 0.572786,0.407808 0.669451,0.417845 0.669451,0.06912 0,-0.147766 -0.294804,-0.588325 -0.655364,-0.979364 -0.439518,-0.476888 -0.126175,-0.332994 -0.126175,-0.640939 0,-0.410575 -0.208544,-0.587062 -1.972804,-1.668614 -1.085024,-0.665243 -2.01354,-1.275483 -2.063325,-1.355988 -0.04987,-0.08038 0.165598,-0.639972 0.478372,-1.243079 1.454768,-2.804044 2.695448,-11.006685 2.251858,-14.887663 -0.240569,-2.103724 -0.660687,-4.479476 -0.860173,-4.863191 -0.143756,-0.276235 -0.291521,-0.293711 -1.576609,-0.187071 -3.212432,0.266419 -6.203988,1.491485 -7.767858,3.180626 -1.052882,1.137208 -1.417198,2.029332 -1.544942,3.782713 -0.218738,3.000805 1.494716,8.501738 4.123988,13.241037 l 0.756153,1.363005 -0.622581,0.576679 c -0.342474,0.317371 -1.348918,1.126402 -2.236676,1.798157 -1.881641,1.42389 -2.033424,1.608435 -1.650403,1.7554 0.136845,0.05239 0.459014,-0.06007 0.715964,-0.250038 0.256961,-0.189985 0.209448,0.139707 0.541149,0.08587 0.520234,-0.08448 0.654606,-0.0364 0.977617,0.353405 0.205998,0.248208 0.527009,0.616058 0.713428,0.817469 0.329376,0.355583 0.33047,0.376772 0.04114,0.734281 -0.163778,0.202357 -0.298087,0.493374 -0.298087,0.646631 0,0.454942 -0.623044,0.995744 -1.147181,0.995744 -0.263495,0 -0.318255,0.383948 -0.768504,0.206346 -1.273989,-0.502149 -1.329707,0.07354 -0.09322,0.961488 1.991552,1.430266 3.984039,0.797374 5.561091,-0.779573 0.389029,-0.389029 0.178169,-0.79891 0.178169,-0.91082 0,-0.112099 0.180507,-0.557331 -0.245324,-0.989779 -0.654974,-0.66498 -0.774491,-0.884329 -0.774491,-1.421343 0,-0.828032 0.329008,-1.419892 0.927317,-1.667679 1.30372,-0.539992 2.590871,1.367267 1.867227,2.766748 -0.125935,0.243484 -0.384011,0.583012 -0.573449,0.754512 -0.44824,0.40562 -0.438929,0.469534 0.169607,1.162573 0.830356,0.945728 2.488387,1.77962 3.25422,1.636737 0.135024,-0.02546 0.603538,-0.139033 1.040826,-0.253311 z"
       id="path15193"
       sodipodi:nodetypes="cccccccscscsccccccscsccccscccssscccscsccccccc" />
    <path
       style="vector-effect:non-scaling-stroke;fill:none;stroke:#e70000;stroke-width:0.264583;stroke-dasharray:none;stroke-opacity:1;-inkscape-stroke:hairline"
       d="m 105.86074,57.99903 c 0.87854,-0.453479 1.70119,-1.1514 1.70119,-1.44329 0,-0.315909 -0.32574,-0.290069 -1.16993,0.09279 -0.99181,0.450071 -0.99048,-0.106545 -1.4019,-0.629641 -0.1867,-0.237308 -0.33956,-0.552775 -0.33956,-0.700792 0,-0.148134 -0.1161,-0.435111 -0.25841,-0.638015 -0.27987,-0.399729 -0.31154,-0.341023 0.86926,-1.612497 0.43017,-0.463127 0.39338,-0.938322 1.35488,-0.322443 0.73009,0.467535 0.78287,0.474637 0.77781,0.104472 -0.002,-0.166692 -0.49983,-0.638815 -1.1878,-1.127244 -1.63535,-1.161048 -3.52181,-2.770293 -3.52181,-3.056975 0,-0.13029 0.2977,-0.72317 0.66151,-1.317587 1.68511,-2.753165 3.29822,-6.471459 4.02467,-9.276923 0.34067,-1.315399 0.4417,-2.107544 0.45611,-3.574054 0.0182,-1.749667 -0.0145,-1.950467 -0.43828,-2.81427 -1.17913,-2.401148 -5.27473,-4.664138 -8.633472,-4.770419 l -1.062352,-0.03272 -0.205629,0.819184 c -0.55347,2.203746 -0.74578,4.296224 -0.737847,8.027869 0.01094,5.461964 0.516962,9.502027 1.4433,11.538092 0.222368,0.48883 0.346114,0.947233 0.274783,1.018596 -0.07133,0.07133 -0.976344,0.634995 -2.011025,1.252473 -1.806196,1.077891 -1.883282,1.146571 -1.931867,1.721072 -0.03893,0.461012 0.330449,0.19615 -0.167113,0.62198 -0.355215,0.303895 -0.645726,0.674617 -0.645726,0.823697 0,0.351575 0.187439,0.341749 0.850777,-0.04471 0.820057,-0.47773 1.133882,-0.05847 1.461954,0.26967 0.149217,0.148849 0.271143,0.366357 0.271143,0.482886 0,0.116465 0.152857,0.406209 0.33957,0.643654 l 0.33957,0.431648 -0.33957,0.431691 c -0.186713,0.237298 -0.33957,0.529482 -0.33957,0.648967 0,0.358129 -0.686558,0.885381 -1.153073,0.885381 -0.239854,0 -0.231205,0.309345 -0.627736,0.04063 -1.1708,-0.793302 -1.534684,-0.59611 -0.60864,0.329744 1.823776,1.823807 3.540743,1.413621 5.391558,-0.215436 0.403947,-0.355583 0.780675,-0.646494 0.837195,-0.646494 0.0564,0 0.33266,0.261684 0.61355,0.581781 0.92584,1.05445 1.86007,1.393221 3.65694,1.325993 0.94176,-0.0364 0.97137,0.382128 1.45594,0.132026 z"
       id="path15191"
       sodipodi:nodetypes="csccsccccssccccccccccsccsccscccsscccscccc" />
    <path
       style="vector-effect:non-scaling-stroke;fill:none;stroke:#e70000;stroke-width:0.264583;stroke-dasharray:none;stroke-opacity:1;-inkscape-stroke:hairline"
       d="m 94.336681,65.442626 c 1.037615,-0.424403 2.221133,-0.920489 2.630073,-1.102407 0.408908,-0.181977 0.782733,-0.291773 0.830717,-0.243991 0.04806,0.04747 0.168586,0.280679 0.267869,0.517978 0.261178,0.623785 1.209028,1.034324 1.906012,0.825474 0.871238,-0.26117 1.311708,-1.076307 1.034828,-1.915356 -0.41174,-1.247543 -2.312772,-1.290696 -2.945646,-0.067 -0.1977,0.382269 -0.223025,0.392074 -0.563395,0.21779 -0.870932,-0.445772 -4.769422,-1.917224 -5.079601,-1.917224 -0.188963,0 -1.441052,0.383345 -2.782407,0.851918 -2.540949,0.887638 -2.914279,0.973329 -2.914279,0.668914 0,-0.100739 -0.208473,-0.366082 -0.463296,-0.589806 -1.02137,-0.896787 -2.682315,-0.248948 -2.682315,1.046495 0,0.609459 0.365704,1.076197 1.061467,1.354603 0.844899,0.338014 1.546193,0.0017 2.14971,-1.031067 0.117925,-0.201772 0.335336,-0.130727 2.162612,0.705663 1.117337,0.511488 2.267432,1.043236 2.555804,1.181632 0.288246,0.138303 0.618979,0.255344 0.73475,0.259713 0.115881,0.0059 1.059482,-0.339116 2.097097,-0.763459 z"
       id="path15189" />
    <path
       style="vector-effect:non-scaling-stroke;fill:none;stroke:#e70000;stroke-width:0.264583;stroke-dasharray:none;stroke-opacity:1;-inkscape-stroke:hairline"
       d="m 77.029779,64.968986 c 1.554457,-0.674714 2.572428,-1.188795 2.598191,-1.3121 0.02331,-0.111512 -0.03291,-0.202648 -0.124911,-0.202648 -0.092,0 -1.327957,-0.383581 -2.746392,-0.852381 l -2.578976,-0.852406 -1.752275,0.641375 c -3.676105,1.345514 -4.053828,1.49852 -4.011636,1.625065 0.07449,0.223319 5.56048,2.205705 5.863724,2.118879 0.10802,-0.03089 1.346717,-0.555509 2.752418,-1.165675 z"
       id="path15187" />
    <path
       style="vector-effect:non-scaling-stroke;fill:none;stroke:#e70000;stroke-width:0.264583;stroke-dasharray:none;stroke-opacity:1;-inkscape-stroke:hairline"
       d="m 116.75793,64.99452 c 0.2702,-0.07482 0.49152,-0.187221 0.49152,-0.249815 0,-0.06262 -1.27701,-0.655355 -2.83779,-1.316965 l -2.83776,-1.202909 -2.4377,0.6085 c -3.20923,0.801081 -3.81391,0.980642 -3.81391,1.132453 0,0.121411 4.44567,2.339463 5.35288,2.670575 0.40212,0.146744 0.64828,0.09172 3.01456,-0.673056 1.4172,-0.45806 2.79786,-0.893959 3.0682,-0.968665 z"
       id="path15185" />
    <path
       style="vector-effect:non-scaling-stroke;fill:none;stroke:#e70000;stroke-width:0.264583;stroke-dasharray:none;stroke-opacity:1;-inkscape-stroke:hairline"
       d="m 67.128185,54.889527 c -0.329376,-0.396972 -0.81486,-0.30099 -0.81486,0.161232 0,1.07948 -0.718078,1.61762 -1.645795,1.233357 -0.856532,-0.354846 -3.078101,-3.137817 -3.599503,-4.509197 -0.214362,-0.563801 -0.794944,-1.385752 -0.978848,-1.385752 -0.07712,0 -0.227113,0.263863 -0.333384,0.586105 -0.196529,0.595027 -0.962404,1.214262 -1.503606,1.215462 -1.230632,0.0021 -2.128691,-1.813729 -1.594148,-3.224446 0.250396,-0.660614 0.805317,-1.19846 1.236713,-1.19846 0.544117,0 0.627715,-0.275877 0.302443,-0.997238 -0.331554,-0.734933 -0.392343,-0.760078 -0.770883,-0.318097 -0.562422,0.656868 -1.646678,0.626336 -2.338802,-0.06586 -1.063909,-1.063908 -0.482128,-3.477977 0.905002,-3.755422 0.591608,-0.118285 0.7278,-0.384189 0.50157,-0.979174 -0.137938,-0.362863 -0.267871,-0.437835 -0.756805,-0.437835 -0.464085,0 -0.727726,-0.134666 -1.232789,-0.629787 -0.599214,-0.587347 -0.642487,-0.692934 -0.642487,-1.567373 0,-0.839489 0.05786,-0.998753 0.551681,-1.522301 0.377351,-0.399992 0.752661,-0.617163 1.187802,-0.687295 0.590472,-0.09532 0.639688,-0.145219 0.685864,-0.696384 0.04219,-0.503927 -0.04187,-0.680193 -0.554406,-1.163857 -0.502328,-0.4739 -0.617447,-0.708504 -0.683139,-1.392085 -0.184893,-1.92607 1.086003,-3.210758 2.452901,-2.479213 0.287882,0.153951 0.389934,0.121558 0.640919,-0.204904 0.388376,-0.504989 0.382043,-0.841645 -0.02188,-1.207886 -0.423032,-0.382811 -0.71004,-1.454874 -0.578004,-2.158791 0.05681,-0.302811 0.328661,-0.807327 0.60377,-1.120763 0.415741,-0.473543 0.611986,-0.569914 1.160353,-0.569914 0.542033,0 0.756627,0.102578 1.200795,0.573407 0.297351,0.315551 0.601034,0.570786 0.674659,0.567557 0.07354,-0.0032 0.351575,-0.183799 0.617626,-0.401265 l 0.483769,-0.395362 -0.361044,-0.722592 c -0.460402,-0.92193 -0.467535,-1.949879 -0.0182,-2.676374 0.580172,-0.938774 1.438819,-1.148012 2.273068,-0.553974 0.486463,0.346493 0.739299,0.864391 0.902309,1.848563 0.09469,0.570608 0.134309,0.607872 0.544842,0.509829 0.951557,-0.227114 1.00615,-0.306451 0.741193,-1.07545 -0.257318,-0.746906 -0.185977,-1.528204 0.208912,-2.292143 0.295888,-0.571923 0.803497,-0.844917 1.521218,-0.81791 1.118102,0.04187 1.776348,1.185066 1.581302,2.74599 l -0.111005,0.887537 h 0.912903 c 0.502075,0 0.968148,-0.0182 1.035734,-0.04114 0.06765,-0.02188 0.09679,-0.575269 0.06512,-1.228276 -0.05681,-1.169811 -0.04945,-1.195766 0.516078,-1.761208 1.666984,-1.667016 3.714118,0.629208 2.566495,2.878731 -0.379676,0.744244 -0.350123,0.851398 0.310459,1.125014 0.423526,0.175424 0.606273,0.135035 1.682807,-0.371523 2.075077,-0.976522 3.776895,-1.313873 6.696121,-1.327339 1.396672,-0.0074 2.871198,0.01094 3.276682,0.04008 0.405515,0.02914 1.079122,-0.06986 1.496936,-0.218013 l 0.759719,-0.269691 0.06881,-1.584037 c 0.04955,-1.137092 0.164872,-1.797779 0.40967,-2.34138 0.422948,-0.939363 1.36894,-2.005492 2.018012,-2.274383 l 0.489734,-0.202726 V 14.899066 13.362498 H 90.474275 89.07593 l 0.04661,-1.679282 0.04661,-1.679325 1.351612,-0.047659 1.351653,-0.047659 V 8.1949418 6.4813086 h 1.305141 1.305141 l 0.04661,1.76124 0.04661,1.7612084 h 1.310664 1.310664 l 0.04661,1.679282 0.04661,1.679315 h -1.398303 -1.398345 l 7.4e-5,1.515473 1.05e-4,1.515463 0.806264,0.694354 c 1.231001,1.060121 1.698357,2.174256 1.783155,4.251079 0.05492,1.345573 0.120106,1.691624 0.336656,1.786648 0.147765,0.06481 1.816748,0.169975 3.709059,0.233657 4.35225,0.146313 5.98728,0.492512 8.32569,1.762555 0.75599,0.410618 0.81823,0.418582 1.47451,0.188165 0.53651,-0.188165 0.67234,-0.310816 0.62597,-0.564558 -0.3545,-1.938779 -0.0761,-3.048737 0.86333,-3.441143 1.31951,-0.551355 2.46145,0.520707 2.37094,2.225829 -0.0521,0.98354 0.0943,1.157513 0.86836,1.031883 l 0.59506,-0.09648 -0.0182,-1.098196 c -0.0145,-0.888516 0.0524,-1.19544 0.34576,-1.607573 0.6494,-0.91204 1.82752,-1.036365 2.51281,-0.265324 0.44184,0.497267 0.6695,1.609908 0.47368,2.315035 -0.27224,0.980047 -0.22238,1.143099 0.41265,1.352706 0.32138,0.105913 0.601,0.16705 0.62131,0.13575 0.0219,-0.03272 0.12774,-0.425894 0.23839,-0.876438 0.4814,-1.956317 2.3879,-2.369302 3.15347,-0.683097 0.42033,0.925781 0.39508,1.668541 -0.0848,2.487073 l -0.40199,0.685905 0.55333,0.536321 0.55332,0.536289 0.64244,-0.675353 c 0.77843,-0.818279 1.3949,-0.890926 2.15221,-0.253679 0.94773,0.797458 1.06737,2.358676 0.25477,3.324394 -0.4588,0.545232 -0.47817,0.661087 -0.20928,1.251232 0.18307,0.401444 0.24166,0.419382 1.04411,0.319192 0.78108,-0.09753 0.89376,-0.06733 1.38368,0.370281 0.43678,0.39027 0.54801,0.628914 0.61421,1.318092 0.11283,1.172957 -0.0502,1.661523 -0.77748,2.333057 -0.56958,0.5258 -0.61894,0.63568 -0.51463,1.14573 0.0975,0.477824 0.202,0.581812 0.68063,0.679719 0.32429,0.06628 0.72518,0.312995 0.94056,0.579004 0.20637,0.254772 0.44716,0.552417 0.53505,0.661276 0.22892,0.283515 0.19727,1.652855 -0.0451,1.957117 -0.6826,0.856964 -1.11855,1.203594 -1.51366,1.203594 -0.68674,0 -1.06675,0.284978 -1.06675,0.800078 0,0.385872 0.10701,0.502948 0.65789,0.719319 0.51204,0.201275 0.72918,0.415489 0.97944,0.966918 0.37417,0.824496 0.38714,0.982856 0.15031,1.835275 -0.36734,1.323037 -1.67092,1.856411 -2.65166,1.08494 -0.52103,-0.40985 -0.71775,-0.412101 -0.93252,-0.01094 -0.31155,0.582212 -0.18635,0.90031 0.47463,1.204751 1.09033,0.502254 1.47668,2.044366 0.80958,3.231327 -0.37131,0.660613 -0.88095,0.981215 -1.55983,0.981215 -0.47045,0 -1.53231,-0.953703 -1.53231,-1.37621 0,-0.599761 -0.52108,-0.186344 -1.16659,0.925676 -1.49643,2.57792 -3.37844,4.546399 -4.34663,4.546399 -0.47265,0 -0.87636,-0.415994 -0.87636,-0.903119 0,-0.61409 -0.26678,-0.630366 -1.23649,-0.07533 -0.49767,0.28461 -1.0162,-0.05417 -1.15224,-0.106408 -0.3101,-0.119012 -0.72431,-0.558509 -0.72351,-1.162489 6.2e-4,-0.455268 0.53195,-1.495483 0.88015,-1.723028 0.10121,-0.06628 0.53018,-0.121558 0.95308,-0.123009 0.87025,-0.0032 1.27901,0.374541 1.27901,1.180774 0,0.555678 0.30864,0.589934 0.77847,0.08659 0.68361,-0.732345 0.6359,-1.132189 -0.25696,-2.15231 -0.44712,-0.510923 -0.84667,-1.105624 -0.88797,-1.321553 -0.1474,-0.771072 0.31481,-1.612644 1.4889,-2.710903 1.72561,-1.614138 2.66246,-3.185509 3.38874,-5.683828 0.59971,-2.062925 0.58333,-3.464626 -0.0637,-5.45825 -0.60394,-1.860862 -1.38586,-3.219975 -2.51204,-4.366535 -1.39628,-1.421491 -2.19421,-1.722923 -5.94951,-2.247408 -1.0368,-0.144861 -1.08943,-0.02914 -0.65963,1.456031 0.48423,1.672728 0.80954,4.727863 0.66927,6.284967 -0.0596,0.664212 -0.29772,2.101862 -0.52871,3.194788 -0.5733,2.713049 -0.7143,6.381632 -0.29627,7.710392 0.15906,0.505705 0.25223,0.956428 0.20709,1.001636 -0.0451,0.04513 -0.61769,0.230743 -1.27227,0.411954 -1.72051,0.476814 -2.13324,0.723317 -2.13324,1.274167 0,0.46884 -0.0264,0.590208 -0.74055,0.957543 -0.33556,0.17252 -0.53298,0.833418 -0.24895,0.833418 0.0659,0 0.49982,-0.157592 0.96437,-0.350123 1.11399,-0.461749 1.10895,0.194699 1.44481,1.007981 0.1383,0.334846 0.36563,0.737226 0.50542,0.894491 0.23183,0.260959 0.21983,0.319918 -0.13939,0.675533 -0.2162,0.214372 -0.55365,0.583243 -0.74957,0.81992 -0.57475,0.694312 -0.94557,1.104498 -2.04621,0.18887 -0.30935,-0.257318 -0.52983,-0.338844 -0.63451,-0.234025 -0.18307,0.183073 0.22602,0.821519 0.99436,1.551349 0.53312,0.506368 1.86754,0.726516 2.59374,0.726516 0.85838,0 2.07129,-0.483401 2.86624,-1.14231 0.43784,-0.362864 0.82752,-0.659846 0.86595,-0.659846 0.0386,0 0.20637,0.318098 0.37287,0.7068 0.75575,1.76306 2.50571,2.16403 4.65635,1.066855 0.34721,-0.177245 0.6664,-0.286798 0.70949,-0.243852 0.0429,0.04292 -0.10918,0.361769 -0.33884,0.708399 -0.22929,0.346483 -0.61042,1.106203 -0.84688,1.688131 -0.23658,0.58196 -0.66946,1.540103 -0.96219,2.129196 -0.29261,0.589135 -0.99799,2.232278 -1.56725,3.651518 l -1.03498,2.580392 h -1.84419 c -1.15566,0 -1.86584,-0.06481 -1.90216,-0.173973 l 10e-4,-1.58e-4 c -0.0401,-0.119749 -4.74902,-0.219107 -15.086463,-0.318098 -8.265671,-0.07933 -15.100025,-0.188165 -15.187485,-0.242389 -0.08732,-0.05418 -3.558998,-0.115014 -7.714538,-0.135393 l -7.555567,-0.03714 -1.046592,-2.864097 c -1.149253,-3.14514 -2.389828,-5.796359 -3.173851,-6.782929 -0.278423,-0.35048 -0.470671,-0.672586 -0.427177,-0.716037 0.04335,-0.04335 0.465431,0.08732 0.937658,0.290428 0.673239,0.289712 1.047097,0.349765 1.731982,0.279159 1.218365,-0.125566 2.092392,-0.389482 1.91875,-2.145419 -0.109765,-1.109985 -0.789256,-1.362157 -0.899062,-1.494446 z m 8.459792,2.242184 c 1.100637,-1.145393 0.841499,-1.514621 -0.449229,-0.640045 -0.908242,0.615447 -1.03001,0.104807 -1.506498,-0.471307 -0.195804,-0.236929 -0.522086,-0.608851 -0.724844,-0.826569 -0.402464,-0.432238 -0.461275,-0.650461 -0.198728,-0.737952 0.09322,-0.03272 0.27006,-0.350491 0.392785,-0.709967 0.301348,-0.882845 0.826538,-1.073841 1.865365,-0.678299 1.078756,0.588388 1.482114,-0.316024 0.644022,-0.665885 -0.452722,-0.303547 -0.760267,-0.662833 -0.879163,-1.027159 -0.200906,-0.615406 -0.553574,-0.813282 -2.657625,-1.490929 -0.645401,-0.207818 -1.173462,-0.464768 -1.173462,-0.57086 0,-0.106282 0.124829,-0.51551 0.277697,-0.90981 0.403221,-1.041236 0.38219,-4.855396 -0.04082,-7.35219 -0.236929,-1.398608 -0.313363,-2.580613 -0.297708,-4.587346 0.0182,-2.38885 0.07312,-2.893829 0.466515,-4.341643 0.244935,-0.901077 0.4854,-1.815212 0.534753,-2.031404 l 0.08995,-0.393101 -1.42692,0.11573 c -1.807395,0.146681 -3.653475,0.615742 -4.482232,1.138922 -0.925065,0.583969 -2.151184,1.904681 -2.867295,3.088475 -1.905955,3.150821 -1.909668,6.755563 -0.01094,10.614699 0.618941,1.25805 0.99323,1.776317 1.952246,2.703265 1.310485,1.266751 1.788026,2.037486 1.636484,2.641361 -0.0546,0.216918 -0.465936,0.79953 -0.91444,1.294767 -0.448492,0.495268 -0.815469,1.051968 -0.815469,1.237145 0,0.68762 0.621518,1.446614 1.192967,1.456799 0.297708,0.0074 0.345757,-0.07354 0.513859,-0.843456 0.142315,-0.651155 0.532722,-0.953492 1.231811,-0.953492 1.578209,0 1.134275,1.834432 1.467177,3.955035 0.506508,3.226481 4.388581,2.849245 6.179742,0.985216 z"
       id="path910"
       sodipodi:nodetypes="cscsscccscccccscsccccccccccsccccccccccccccscccssccsccccccccccccccccccccccccccccscccccccccccccccccsccccssscsccccccscsscscscccsssssccsccssccsssccccccccscscsccscccscsccccccscscccccccccccscscccccccccscccccccscccccsccsss" />
    <path
       style="font-size:10.5833px;line-height:1.25;font-family:'Academy Engraved LET';-inkscape-font-specification:'Academy Engraved LET';fill:none;stroke:#e70000;stroke-width:0.26458333;stroke-opacity:1;vector-effect:non-scaling-stroke;-inkscape-stroke:hairline;stroke-dasharray:none"
       d="m 47.729522,21.804294 v 1.030567 q -3.45737,0.598409 -5.05308,2.759248 -0.664874,0.89759 -0.930826,2.260585 -0.265941,1.363006 -0.265941,4.089007 V 53.91796 q 0,5.418766 -1.761936,8.41073 -1.62895,2.759241 -4.321711,4.255235 -2.692761,1.495958 -6.01716,1.495958 -2.726002,0 -5.019833,-0.997305 -2.260592,-0.997342 -3.557104,-2.726012 -1.296515,-1.761936 -1.296515,-3.856303 0,-1.928145 1.09705,-3.191417 1.130295,-1.296519 2.892223,-1.296519 1.595714,0 2.692761,1.030567 1.097051,0.99732 1.097051,2.559784 0,0.664881 -0.199483,1.728688 L 26.9188,62.062712 q -0.232675,0.897619 -0.232675,1.529224 0,1.296548 0.831091,2.061142 0.831103,0.764593 2.094374,0.764593 0.864339,0 1.662194,-0.432158 0.831103,-0.432195 1.363006,-1.263283 0.565147,-0.864353 0.764609,-1.861659 0.365656,-1.761924 0.365656,-5.252541 V 31.943694 q 0,-2.958706 -0.398915,-4.354956 -0.36566,-1.396246 -1.46274,-2.393566 -1.928145,-1.828415 -5.784444,-2.360318 V 21.80429 Z"
       id="path1018" />
    <path
       style="font-size:10.5833px;line-height:1.25;font-family:'Academy Engraved LET';-inkscape-font-specification:'Academy Engraved LET';fill:none;stroke:#e70000;stroke-width:0.26458333;stroke-opacity:1;vector-effect:non-scaling-stroke;-inkscape-stroke:hairline;stroke-dasharray:none"
       d="m 151.21681,42.099522 h 5.95065 q 5.15282,0 7.41341,-1.163541 2.02788,-1.03056 3.15817,-3.191418 1.16356,-2.194097 1.16356,-5.01984 0,-2.925466 -1.36301,-5.252544 -1.32977,-2.327079 -3.75658,-3.590344 -2.39354,-1.296515 -5.48525,-1.296515 -4.58765,0 -6.18336,2.858979 -0.89759,1.628957 -0.89759,5.119574 z"
       id="path15169" />
    <path
       style="font-size:10.5833px;line-height:1.25;font-family:'Academy Engraved LET';-inkscape-font-specification:'Academy Engraved LET';fill:none;stroke:#e70000;stroke-width:0.26458333;stroke-opacity:1;vector-effect:non-scaling-stroke;-inkscape-stroke:hairline;stroke-dasharray:none"
       d="m 151.21681,43.429277 v 13.663271 q 0,2.858979 0.33247,4.255225 0.36566,1.396235 1.363,2.4933 1.76192,1.828393 5.25256,2.360312 v 1.03057 h -21.14317 v -1.03057 q 3.59035,-0.598413 5.21931,-2.759241 1.26326,-1.595718 1.26326,-6.349596 V 31.993355 q 0,-3.0252 -0.33247,-4.388199 -0.33247,-1.363002 -1.23002,-2.327075 -1.59572,-1.761928 -4.92011,-2.393566 v -1.030567 q 0.46543,0.03348 0.8311,0.03348 l 2.92547,0.166217 q 1.76193,0.09972 4.089,0.09972 3.69009,0 6.68204,-0.299206 l 4.65414,-0.398918 q 2.19413,-0.199483 4.32173,-0.199483 3.9228,0 7.01447,0.797851 3.09168,0.797856 5.21932,2.293832 2.1276,1.495984 3.29116,3.690081 1.16352,2.160862 1.16352,4.853616 0,4.487936 -3.09168,7.01448 -3.05844,2.493296 -9.07562,2.925466 3.72332,1.462733 6.28312,4.02252 2.59302,2.526536 6.15012,8.277745 4.02252,6.449347 6.34961,8.975876 2.32708,2.526529 5.15281,3.590366 v 0.930811 q -3.62359,-0.0666 -6.18338,-0.664871 -2.52653,-0.598412 -5.05306,-2.127636 -3.15821,-1.961382 -5.95068,-5.285781 -2.79251,-3.324398 -4.88688,-7.61287 l -1.76193,-3.690074 q -1.26325,-2.593031 -2.22732,-3.756569 -0.96408,-1.196784 -2.29386,-1.628957 -1.32974,-0.432177 -3.62359,-0.432177 z"
       id="path1020" />
    <path
       style="vector-effect:non-scaling-stroke;fill:none;stroke:#e70000;stroke-width:0.264583;stroke-dasharray:none;stroke-opacity:1;-inkscape-stroke:hairline"
       d="m 93.713225,48.206943 c 0.551134,-0.579382 0.695448,-1.187181 0.454984,-1.915854 -0.345399,-1.046549 -1.290149,-1.387172 -1.937222,-0.698457 -0.795375,0.846696 -0.792577,1.84204 0.0074,2.696269 0.461129,0.492248 0.954545,0.46481 1.4746,-0.08185 z"
       id="path15243" />
    <path
       style="vector-effect:non-scaling-stroke;fill:none;stroke:#e70000;stroke-width:0.264583;stroke-dasharray:none;stroke-opacity:1;-inkscape-stroke:hairline"
       d="m 93.713225,39.21111 c 0.551134,-0.579382 0.695448,-1.187181 0.454984,-1.915854 -0.345399,-1.046549 -1.290149,-1.387172 -1.937222,-0.698457 -0.795375,0.846696 -0.792577,1.84204 0.0074,2.696269 0.461129,0.492248 0.954545,0.46481 1.4746,-0.08185 z"
       id="path15245" />
  </g>
</svg>
