<?xml version="1.0" encoding="UTF-8" standalone="no"?>
<!-- Created with Inkscape (http://www.inkscape.org/) -->

<svg
   width="210mm"
   height="297mm"
   viewBox="0 0 210 297"
   version="1.1"
   id="svg14470"
   inkscape:version="1.2.1 (9c6d41e, 2022-07-14)"
   sodipodi:docname="logo.svg"
   xmlns:inkscape="http://www.inkscape.org/namespaces/inkscape"
   xmlns:sodipodi="http://sodipodi.sourceforge.net/DTD/sodipodi-0.dtd"
   xmlns="http://www.w3.org/2000/svg"
   xmlns:svg="http://www.w3.org/2000/svg">
  <sodipodi:namedview
     id="namedview14472"
     pagecolor="#ffffff"
     bordercolor="#666666"
     borderopacity="1.0"
     inkscape:showpageshadow="2"
     inkscape:pageopacity="0.0"
     inkscape:pagecheckerboard="0"
     inkscape:deskcolor="#d1d1d1"
     inkscape:document-units="mm"
     showgrid="false"
     inkscape:zoom="0.66225294"
     inkscape:cx="340.50434"
     inkscape:cy="190.25963"
     inkscape:window-width="1280"
     inkscape:window-height="430"
     inkscape:window-x="0"
     inkscape:window-y="25"
     inkscape:window-maximized="0"
     inkscape:current-layer="layer1" />
  <defs
     id="defs14467" />
  <g
     inkscape:label="Layer 1"
     inkscape:groupmode="layer"
     id="layer1">
    <path
       style="fill:#000000;stroke-width:1"
       d="m 108.9711,65.958138 c -0.0381,-0.11382 -4.51392,-0.20826 -14.339607,-0.30235 -7.85648,-0.0754 -14.3525,-0.17885 -14.43563,-0.23039 -0.083,-0.0515 -3.38281,-0.10932 -7.33263,-0.12869 l -7.18153,-0.0353 -0.99478,-2.72231 c -1.09236,-2.98944 -2.27152,-5.50941 -3.01673,-6.44714 -0.26464,-0.33313 -0.44737,-0.63929 -0.40603,-0.68059 0.0412,-0.0412 0.44239,0.083 0.89124,0.27605 0.63991,0.27537 0.99526,0.33245 1.64624,0.26534 1.15805,-0.11935 1.73615,-0.50483 2.21755,-1.47801 l 0.40489,-0.81859 0.6936,0.62739 c 1.85584,1.67865 4.49464,1.6095 6.19713,-0.16225 1.04615,-1.08869 0.79984,-1.43964 -0.42699,-0.60836 -0.86328,0.58498 -1.48199,0.60259 -1.93489,0.055 -0.18611,-0.2252 -0.49624,-0.57871 -0.68896,-0.78565 -0.38254,-0.41084 -0.43844,-0.61826 -0.18889,-0.70142 0.0886,-0.0311 0.25669,-0.33314 0.37334,-0.67482 0.28643,-0.83914 0.78562,-1.02068 1.77302,-0.64472 1.25254,0.47698 1.27398,0.47916 1.27398,0.13007 0,-0.20237 -0.2425,-0.48199 -0.66184,-0.76299 -0.43031,-0.28852 -0.72263,-0.63002 -0.83564,-0.97631 -0.19096,-0.58494 -0.52617,-0.77302 -2.52606,-1.41712 -0.61345,-0.19753 -1.11537,-0.44176 -1.11537,-0.5426 0,-0.10102 0.11865,-0.48999 0.26395,-0.86477 0.38326,-0.98969 0.36327,-4.61503 -0.0388,-6.98822 -0.2252,-1.32937 -0.29785,-2.45286 -0.28297,-4.36025 0.0173,-2.27059 0.0695,-2.75057 0.44342,-4.12671 0.23281,-0.85647 0.46137,-1.72535 0.50828,-1.93084 l 0.0855,-0.37364 -1.35628,0.11 c -1.71792,0.13942 -3.47261,0.58526 -4.26034,1.08254 -0.87927,0.55506 -2.04469,1.81039 -2.72535,2.93558 -1.8116,2.99484 -1.81513,6.42113 -0.0104,10.08922 0.5883,1.19577 0.94406,1.68838 1.8556,2.56944 1.24561,1.20404 1.69951,1.93662 1.55547,2.5106 -0.0519,0.20618 -0.44287,0.75995 -0.86917,1.23067 -0.42629,0.47075 -0.7751,0.99989 -0.7751,1.1759 0,0.65358 0.59075,1.375 1.13391,1.38468 0.28297,0.007 0.32864,-0.0699 0.48842,-0.8017 0.13527,-0.61892 0.50635,-0.90629 1.17083,-0.90629 1.50008,0 2.22865,1.89722 1.21489,3.16352 l -0.35092,0.43837 -0.72352,-0.4044 c -0.39797,-0.22244 -0.80894,-0.50725 -0.91331,-0.63299 -0.31307,-0.37732 -0.77452,-0.28609 -0.77452,0.15325 0,1.02604 -0.68253,1.53754 -1.56432,1.1723 -0.81413,-0.33728 -2.92572,-2.98248 -3.42131,-4.28597 -0.20375,-0.53589 -0.75559,-1.31715 -0.93039,-1.31715 -0.0733,0 -0.21587,0.2508 -0.31688,0.55709 -0.1868,0.56557 -0.91476,1.15415 -1.42917,1.15529 -1.16971,0.002 -2.02331,-1.72394 -1.51523,-3.06482 0.238,-0.62791 0.76545,-1.13913 1.17549,-1.13913 0.51718,0 0.59664,-0.26222 0.28747,-0.94787 -0.31514,-0.69855 -0.37292,-0.72245 -0.73272,-0.30235 -0.53458,0.62435 -1.56516,0.59533 -2.22302,-0.0626 -1.01124,-1.01124 -0.45826,-3.3058 0.8602,-3.56951 0.56232,-0.11243 0.69177,-0.36517 0.47674,-0.9307 -0.13111,-0.3449 -0.25461,-0.41616 -0.71934,-0.41616 -0.44111,0 -0.6917,-0.128 -1.17176,-0.59861 -0.56955,-0.55827 -0.61068,-0.65863 -0.61068,-1.48978 0,-0.79793 0.055,-0.94931 0.52437,-1.44694 0.35867,-0.38019 0.7154,-0.58661 1.129,-0.65327 0.56124,-0.0906 0.60802,-0.13803 0.65191,-0.66191 0.0401,-0.47898 -0.0398,-0.64652 -0.52696,-1.10624 -0.47746,-0.45044 -0.58688,-0.67343 -0.64932,-1.32317 -0.17574,-1.83072 1.03224,-3.05181 2.33147,-2.35648 0.27363,0.14633 0.37063,0.11554 0.60919,-0.19476 0.36915,-0.47999 0.36313,-0.79998 -0.0208,-1.14809 -0.40209,-0.36386 -0.67489,-1.38285 -0.54939,-2.05192 0.054,-0.28782 0.31239,-0.76736 0.57388,-1.06528 0.39516,-0.4501 0.58169,-0.5417 1.10291,-0.5417 0.5152,0 0.71917,0.0975 1.14135,0.54502 0.28263,0.29993 0.57128,0.54253 0.64126,0.53946 0.0699,-0.003 0.33417,-0.1747 0.58705,-0.3814 l 0.45982,-0.37579 -0.34317,-0.68682 c -0.43761,-0.87629 -0.44439,-1.85335 -0.0173,-2.54388 0.55145,-0.8923 1.36759,-1.09118 2.16054,-0.52655 0.46238,0.32934 0.7027,0.8216 0.85764,1.75705 0.09,0.54236 0.12766,0.57778 0.51787,0.48459 0.90445,-0.21587 0.95634,-0.29128 0.7045,-1.02221 -0.24458,-0.70993 -0.17677,-1.45255 0.19857,-2.17867 0.28124,-0.54361 0.76372,-0.80309 1.44591,-0.77742 1.06275,0.0398 1.68841,1.1264 1.50302,2.61005 l -0.10551,0.8436 h 0.86771 c 0.47722,0 0.92022,-0.0173 0.98446,-0.0391 0.0643,-0.0208 0.092,-0.54679 0.0619,-1.16747 -0.054,-1.1119 -0.047,-1.13657 0.49053,-1.67402 1.58446,-1.58449 3.53025,0.59806 2.43944,2.73622 -0.36088,0.7074 -0.33279,0.80925 0.29509,1.06932 0.40256,0.16674 0.57626,0.12835 1.5995,-0.35313 1.97235,-0.92818 3.58992,-1.24883 6.36463,-1.26163 1.32753,-0.007 2.72906,0.0104 3.11447,0.0381 0.38544,0.0277 1.0257,-0.0664 1.42283,-0.20722 l 0.72211,-0.25634 0.0654,-1.50562 c 0.0471,-1.0808 0.15671,-1.70878 0.38939,-2.22547 0.40201,-0.89286 1.30117,-1.90621 1.91811,-2.16179 l 0.46549,-0.19269 v -1.46044 -1.4605 h -1.32909 -1.32912 l 0.0443,-1.59615 0.0443,-1.5961895 1.2847,-0.0453 1.28474,-0.0453 v -1.62881 -1.6288 h 1.24053 1.24053 l 0.0443,1.67405 0.0443,1.67402 h 1.24578 1.24578 l 0.0443,1.5961495 0.0443,1.59618 h -1.32908 -1.32912 l 7e-5,1.44045 1e-4,1.44044 0.76635,0.65998 c 1.17006,1.00764 1.61428,2.06662 1.69488,4.04063 0.0522,1.27896 0.11416,1.60788 0.31999,1.6982 0.14045,0.0616 1.72681,0.16156 3.52544,0.22209 4.136797,0.13907 5.690887,0.46813 7.913527,1.6753 0.71857,0.39029 0.77773,0.39786 1.40152,0.17885 0.50995,-0.17885 0.63905,-0.29543 0.59498,-0.53661 -0.33695,-1.8428 -0.0723,-2.89781 0.82059,-3.27079 1.25419,-0.52406 2.3396,0.49493 2.25357,2.11564 -0.0495,0.93485 0.0896,1.10021 0.82537,0.9808 l 0.5656,-0.0917 -0.0173,-1.04383 c -0.0138,-0.84453 0.0498,-1.13626 0.32864,-1.52799 0.61726,-0.86689 1.73705,-0.98506 2.38842,-0.25219 0.41996,0.47265 0.63635,1.53021 0.45023,2.20043 -0.25876,0.93153 -0.21137,1.08651 0.39222,1.28574 0.30547,0.10067 0.57125,0.15878 0.59055,0.12903 0.0208,-0.0311 0.12142,-0.40481 0.22659,-0.83305 0.45757,-1.85947 2.26969,-2.25201 2.99736,-0.64928 0.39952,0.87995 0.37552,1.58594 -0.0806,2.36395 l -0.38209,0.65195 0.52593,0.50977 0.52593,0.50974 0.61064,-0.64192 c 0.73989,-0.77777 1.32584,-0.84682 2.04566,-0.24112 0.90082,0.75798 1.01453,2.24191 0.24216,3.15982 -0.43609,0.51824 -0.4545,0.62836 -0.19892,1.18929 0.17401,0.38157 0.2297,0.39862 0.99242,0.30339 0.74242,-0.0927 0.84952,-0.064 1.31518,0.35195 0.41516,0.37095 0.52088,0.59778 0.58381,1.25284 0.10724,1.11489 -0.0477,1.57927 -0.73899,2.21756 -0.54139,0.49977 -0.5883,0.60421 -0.48916,1.08901 0.0927,0.45417 0.192,0.55301 0.64694,0.64607 0.30823,0.063 0.68928,0.2975 0.894,0.55034 0.19615,0.24216 0.42502,0.52507 0.50856,0.62854 0.21759,0.26948 0.1875,1.57103 -0.0429,1.86023 -0.64881,0.81454 -1.06317,1.14401 -1.43872,1.14401 -0.65275,0 -1.01394,0.27087 -1.01394,0.76047 0,0.36677 0.10171,0.47805 0.62532,0.68371 0.48669,0.19131 0.69308,0.39492 0.93095,0.91905 0.35565,0.78368 0.36797,0.9342 0.14287,1.74442 -0.34916,1.25754 -1.5882,1.76451 -2.52039,1.03123 -0.49524,-0.38956 -0.68222,-0.3917 -0.88636,-0.0104 -0.29612,0.55339 -0.17712,0.85574 0.45114,1.14511 1.03635,0.47739 1.40357,1.94316 0.7695,3.07136 -0.35293,0.62791 -0.83734,0.93264 -1.48261,0.93264 -0.44716,0 -1.45646,-0.90649 -1.45646,-1.30808 0,-0.57007 -0.49528,-0.17712 -1.10883,0.87985 -1.42235,2.4503 -3.21119,4.32133 -4.13145,4.32133 -0.44926,0 -0.83298,-0.3954 -0.83298,-0.85841 0,-0.58369 -0.25357,-0.59916 -1.17528,-0.0716 -0.47303,0.27052 -0.96589,0.45148 -1.0952,0.40183 -0.29474,-0.11312 -0.68845,-1.03383 -0.68769,-1.60791 5.9e-4,-0.43273 0.50562,-1.42145 0.83658,-1.63773 0.0962,-0.063 0.50393,-0.11554 0.9059,-0.11692 0.82717,-0.003 1.21569,0.356 1.21569,1.12232 0,0.52817 0.29336,0.56073 0.73993,0.0823 0.64977,-0.69609 0.60442,-1.07614 -0.24424,-2.04576 -0.42498,-0.48563 -0.80475,-1.05089 -0.84401,-1.25613 -0.1401,-0.7329 0.29923,-1.53281 1.41519,-2.5767 1.64019,-1.53423 2.53066,-3.02781 3.22098,-5.40245 0.57003,-1.9608 0.55446,-3.29311 -0.0605,-5.18804 -0.57405,-1.76874 -1.31726,-3.06057 -2.38769,-4.15037 -1.32715,-1.35112 -2.08558,-1.63763 -5.65498,-2.13615 -0.98547,-0.13769 -1.03549,-0.0277 -0.62697,1.38395 0.46026,1.58992 0.76946,4.49381 0.63614,5.97383 -0.0567,0.63133 -0.28298,1.99781 -0.50254,3.03663 -0.54492,2.57874 -0.67894,6.06571 -0.2816,7.32869 0.15118,0.48067 0.23974,0.90908 0.19684,0.95205 -0.0429,0.0429 -0.58712,0.21932 -1.20929,0.39156 -1.63534,0.45321 -2.02763,0.68751 -2.02763,1.21109 0,0.44563 -0.52807,1.06396 -1.20687,1.41311 -0.31895,0.16398 -0.50659,0.79216 -0.23662,0.79216 0.0626,0 0.47507,-0.14979 0.91663,-0.33279 1.05884,-0.43889 1.55702,-0.31791 1.87625,0.45511 0.13146,0.31827 0.34753,0.70073 0.4804,0.85021 0.22036,0.24804 0.20895,0.30408 -0.13249,0.64209 -0.20549,0.20376 -0.52624,0.55437 -0.71246,0.77933 -0.5463,0.65994 -1.40173,0.54685 -2.44788,-0.32345 -0.29404,-0.24458 -0.50361,-0.32207 -0.6031,-0.22244 -0.17401,0.17401 0.21483,0.78085 0.94513,1.47455 0.50673,0.4813 2.27806,1.19352 2.96831,1.19352 0.81589,0 1.96875,-0.45947 2.72435,-1.08576 0.41616,-0.3449 0.78655,-0.62718 0.82308,-0.62718 0.0367,0 0.19615,0.30235 0.35441,0.67181 0.71834,1.67578 2.38167,2.0569 4.42584,1.01404 0.33002,-0.16847 0.63341,-0.2726 0.67437,-0.23178 0.0408,0.0408 -0.10378,0.34386 -0.32207,0.67333 -0.21794,0.32933 -0.5802,1.05144 -0.80496,1.60456 -0.22486,0.55315 -0.63631,1.46386 -0.91455,2.02379 -0.27813,0.55997 -0.94859,2.12177 -1.48967,3.47075 l -0.98374,2.45265 h -1.75289 c -1.09845,0 -1.77347,-0.0616 -1.808,-0.16536 z m 4.27265,-3.734 c 0.32103,-0.0889 0.58398,-0.22244 0.58398,-0.29681 0,-0.0744 -1.51724,-0.77864 -3.37163,-1.56471 l -3.3716,-1.4292 -2.89628,0.72297 c -3.81294,0.95178 -4.531377,1.16512 -4.531377,1.34549 0,0.14425 5.281987,2.77956 6.359857,3.17296 0.47777,0.17435 0.77023,0.10897 3.58165,-0.79967 1.68381,-0.54423 3.3242,-1.06213 3.6454,-1.15089 z m -38.347007,0.0931 c 1.84688,-0.80164 3.05635,-1.41243 3.08696,-1.55893 0.0277,-0.13249 -0.0391,-0.24077 -0.14841,-0.24077 -0.10931,0 -1.57777,-0.45574 -3.26304,-1.01273 l -3.06413,-1.01276 -2.08191,0.76203 c -4.36765,1.59863 -4.81643,1.78042 -4.7663,1.93077 0.0885,0.26533 6.60651,2.62064 6.9668,2.51748 0.12834,-0.0367 1.60006,-0.66001 3.2702,-1.38496 z m 16.21181,0.5536 c 1.23281,-0.50424 2.63897,-1.09365 3.12484,-1.30979 0.48583,-0.21621 0.92998,-0.34666 0.98699,-0.28989 0.0571,0.0564 0.2003,0.33348 0.31826,0.61542 0.31031,0.74113 1.43647,1.2289 2.26457,0.98076 1.03514,-0.3103 1.55847,-1.27878 1.22949,-2.27567 -0.48919,-1.48223 -2.74784,-1.5335 -3.49977,-0.0796 -0.23489,0.45418 -0.26498,0.46583 -0.66938,0.25876 -1.03477,-0.52963 -5.66664,-2.27789 -6.03517,-2.27789 -0.22451,0 -1.71214,0.45546 -3.30583,1.01218 -3.01895,1.05462 -3.46251,1.15643 -3.46251,0.79475 0,-0.11969 -0.24769,-0.43495 -0.55045,-0.70076 -1.21351,-1.06549 -3.18691,-0.29578 -3.18691,1.24336 0,0.72411 0.4345,1.27865 1.26115,1.60943 1.00384,0.4016 1.83706,0.002 2.55411,-1.22503 0.14011,-0.23973 0.39842,-0.15532 2.56944,0.83841 1.32753,0.60771 2.69398,1.23949 3.0366,1.40392 0.34247,0.16432 0.73542,0.30338 0.87297,0.30857 0.13768,0.007 1.25879,-0.40291 2.4916,-0.90708 z m 10.980147,-7.92516 c 0.83505,-0.43103 1.61697,-1.0944 1.61697,-1.37184 0,-0.30027 -0.30961,-0.27571 -1.11201,0.0882 -0.94271,0.42779 -1.44442,0.4017 -1.83547,-0.0955 -0.17746,-0.22556 -0.32275,-0.52541 -0.32275,-0.6661 0,-0.1408 -0.11036,-0.41357 -0.24562,-0.60643 -0.266017,-0.37994 -0.296117,-0.32414 0.82623,-1.53267 0.40887,-0.4402 0.87688,-0.3889 1.79078,0.19649 0.69394,0.44439 0.74411,0.45114 0.7393,0.0993 -0.002,-0.15844 -0.47508,-0.60719 -1.129,-1.07144 -1.55439,-1.10357 -3.850437,-3.13612 -3.850437,-3.40861 0,-0.12384 0.28297,-0.68737 0.62877,-1.25236 1.601687,-2.61687 3.134937,-6.15109 3.825427,-8.81767 0.3238,-1.25028 0.41983,-2.00321 0.43353,-3.39712 0.0173,-1.66305 -0.0138,-1.85391 -0.41658,-2.67495 -1.12076,-2.28228 -5.013607,-4.43324 -8.206077,-4.53426 l -1.00976,-0.0311 -0.19545,0.77863 c -0.52607,2.09465 -0.70886,4.08354 -0.70132,7.63045 0.0104,5.19157 0.49137,9.03163 1.37185,10.9669 0.21136,0.46463 0.32898,0.90034 0.26118,0.96817 -0.0678,0.0678 -0.92801,0.60356 -1.91147,1.19047 -1.71678,1.02453 -1.79005,1.08981 -1.83623,1.63587 -0.037,0.43819 -0.18888,0.68941 -0.66181,1.09416 -0.33763,0.28885 -0.61376,0.64122 -0.61376,0.78292 0,0.33417 0.17816,0.32483 0.80866,-0.0425 0.77946,-0.45408 1.58072,-0.55855 1.89255,-0.24665 0.14183,0.14148 0.25772,0.34822 0.25772,0.45898 0,0.1107 0.14529,0.3861 0.32276,0.61179 l 0.32276,0.41028 -0.32276,0.41032 c -0.17747,0.22555 -0.32276,0.50327 -0.32276,0.61684 0,0.3404 -0.65257,0.84155 -1.09599,0.84155 -0.22798,0 -0.72273,-0.20894 -1.09963,-0.46435 -1.11284,-0.75403 -1.45871,-0.5666 -0.57851,0.31342 1.73349,1.73352 3.86843,1.84661 5.62762,0.2982 0.38395,-0.33798 0.74203,-0.61449 0.79575,-0.61449 0.0536,0 0.31619,0.24873 0.58318,0.55298 0.88,1.00225 1.76798,1.32425 3.475897,1.26035 0.89514,-0.0346 1.42626,-0.13976 1.88684,-0.37748 z m -15.457697,-0.0426 c 0.79406,-0.20721 2.47468,-1.55695 2.23803,-1.79762 -0.0664,-0.0675 -0.56917,0.10724 -1.11727,0.38842 -0.91324,0.4684 -1.03342,0.49368 -1.43653,0.30235 -0.25842,-0.12246 -0.57371,-0.48736 -0.76421,-0.88418 -0.1785,-0.3715 -0.40686,-0.72647 -0.50777,-0.78884 -0.1273,-0.0789 -0.064,-0.2259 0.20756,-0.48071 0.21518,-0.20203 0.39098,-0.49279 0.39098,-0.64614 0,-0.67416 1.30055,-0.76037 2.16674,-0.14356 0.54443,0.38762 0.63631,0.39716 0.63631,0.0657 0,-0.14045 -0.28021,-0.5592 -0.62292,-0.93088 -0.41776,-0.45328 -0.6229,-0.81948 -0.6229,-1.11218 0,-0.39025 -0.19822,-0.558 -1.87514,-1.58601 -1.03131,-0.63231 -1.91386,-1.21234 -1.96118,-1.28886 -0.0474,-0.0764 0.1574,-0.60829 0.45469,-1.18154 1.38275,-2.66523 2.56201,-10.4618 2.14038,-14.15065 -0.22866,-1.99958 -0.62798,-4.25772 -0.81759,-4.62244 -0.13664,-0.26256 -0.27709,-0.27917 -1.49856,-0.17781 -3.0534,0.25323 -5.89686,1.41765 -7.38331,3.02317 -1.00076,1.08091 -1.34704,1.92887 -1.46846,3.59545 -0.20791,2.85225 1.42072,8.08086 3.91983,12.58554 l 0.71872,1.29553 -0.59176,0.54813 c -0.32552,0.30166 -1.28214,1.07064 -2.12595,1.70914 -1.78849,1.3534 -2.43573,2.03178 -2.07167,2.17147 0.13007,0.0498 0.43629,-0.0571 0.68052,-0.23766 0.24424,-0.18058 0.70205,-0.37018 1.01733,-0.42135 0.49448,-0.0803 0.6222,-0.0346 0.92922,0.33591 0.1958,0.23592 0.50092,0.58556 0.67811,0.777 0.31307,0.33798 0.31411,0.35812 0.0391,0.69793 -0.15567,0.19234 -0.28333,0.46895 -0.28333,0.61462 0,0.43242 -0.5922,0.94645 -1.09039,0.94645 -0.25045,0 -0.80547,-0.13803 -1.23343,-0.30684 -1.21092,-0.47729 -1.26388,0.0699 -0.0886,0.91389 1.89296,1.35946 4.28978,1.26087 5.78876,-0.23801 0.36977,-0.36977 0.67232,-0.75936 0.67232,-0.86573 0,-0.10655 -0.3314,-0.52974 -0.73615,-0.94078 -0.62255,-0.63206 -0.73615,-0.84055 -0.73615,-1.35098 0,-0.78704 0.31272,-1.3496 0.88141,-1.58512 1.23918,-0.51326 2.46261,1.29958 1.77479,2.62978 -0.1197,0.23143 -0.365,0.55415 -0.54506,0.71716 -0.42605,0.38554 -0.4172,0.44629 0.16121,1.10502 0.78925,0.89891 2.3652,1.69152 3.09312,1.55571 0.12834,-0.0242 0.57366,-0.13215 0.9893,-0.24077 z m 18.968667,-7.03841 c 0.74508,-0.6029 0.95769,-1.66198 0.53617,-2.6709 -0.27986,-0.6697 -0.80077,-1.02754 -1.49583,-1.02754 -0.74833,0 -1.16774,0.33002 -1.48953,1.17279 -0.30719,0.80444 -0.17089,1.57035 0.4107,2.30992 0.2674,0.34006 0.44902,0.41039 1.06036,0.41039 0.40564,0 0.84581,-0.0875 0.97813,-0.19476 z m -31.654497,-0.66482 c 0.39292,-0.35493 0.64224,-0.73806 0.70786,-1.08773 0.24873,-1.3268 -0.69768,-2.68418 -1.75248,-2.51305 -1.6947,0.27502 -2.14491,2.69574 -0.71107,3.8236 0.58996,0.46407 1.06168,0.40422 1.75569,-0.22279 z m 15.5161,-0.88383 c 1.07396,-0.4893 1.1446,-2.3341 0.11347,-2.95983 l -0.40367,-0.24492 0.46303,-0.23939 c 1.28965,-0.6669 1.04161,-3.06586 -0.31688,-3.06586 -1.33721,0 -1.74248,2.05033 -0.58854,2.97747 0.32345,0.2598 0.36483,0.35344 0.18473,0.41717 -0.12765,0.0453 -0.43418,0.28435 -0.68121,0.53135 -0.40084,0.40084 -0.44035,0.52742 -0.36722,1.17636 0.063,0.55841 0.19442,0.82782 0.56692,1.16051 0.56142,0.50164 0.5023,0.48739 1.02941,0.24734 z m 17.000027,-2.92154 c 0.54993,-0.33521 0.93319,-1.27699 0.77344,-1.90036 -0.15117,-0.58972 -0.84087,-1.22102 -1.334,-1.22102 -0.56682,0 -1.1977,0.62739 -1.3277,1.32027 -0.12177,0.64991 0.20202,1.49738 0.70806,1.85172 0.46172,0.32345 0.57463,0.31861 1.1802,-0.0505 z m -33.891767,-0.47867 c 0.81793,-0.43775 0.98235,-1.99719 0.28851,-2.73587 -0.44111,-0.4695 -1.36804,-0.51382 -1.75705,-0.0841 -0.63126,0.69751 -0.59425,2.17113 0.0682,2.70768 0.37787,0.30615 0.95223,0.35212 1.40059,0.11208 z m 34.684027,-3.19717 c 0.53482,-0.37458 0.85868,-1.12426 0.7568,-1.75189 -0.11277,-0.69558 -0.80458,-1.431 -1.34593,-1.431 -0.44764,0 -1.14415,0.63555 -1.31425,1.19922 -0.15844,0.52513 0.18439,1.55007 0.63822,1.90694 0.48687,0.38291 0.80077,0.40197 1.26516,0.0768 z m -17.013277,-1.0119 c 0.42295,-0.81786 0.24251,-1.80499 -0.42726,-2.33867 -0.30269,-0.24112 -0.29993,-0.25391 0.17401,-0.72771 0.41353,-0.41353 0.48213,-0.59563 0.48213,-1.27986 0,-0.63929 -0.0758,-0.87356 -0.38223,-1.17988 -0.464,-0.46397 -0.99847,-0.48805 -1.53135,-0.0688 -0.75491,0.59386 -0.732,1.84456 0.0481,2.62465 l 0.44536,0.44536 -0.36278,0.19407 c -0.97447,0.52156 -0.89349,2.57604 0.11623,2.94958 0.49587,0.18335 1.1739,-0.10827 1.43781,-0.61867 z m -18.08256,0.1529 c 0.90729,-1.07825 0.128,-3.21454 -1.04317,-2.85964 -1.22565,0.37136 -1.59258,2.02697 -0.65669,2.96287 0.53793,0.53793 1.1939,0.49811 1.69986,-0.10309 z m 35.920197,-3.24626 c 0.38171,-0.38178 0.45519,-0.5809 0.45519,-1.23385 0,-1.43885 -1.09704,-2.18836 -2.07593,-1.41834 -1.13118,0.88978 -0.57076,3.10737 0.78524,3.10737 0.21275,0 0.58089,-0.20064 0.8355,-0.45518 z m -36.598467,-0.32795 c 0.41626,-0.22278 0.76998,-0.96578 0.76998,-1.61732 0,-0.67143 -0.78157,-1.64825 -1.31878,-1.64825 -0.83983,0 -1.6599,1.30325 -1.42048,2.25727 0.23143,0.92223 1.20175,1.41907 1.96928,1.0083 z m 35.812537,-3.19268 c 0.52562,-0.55951 0.57962,-1.57612 0.1197,-2.25308 -0.31757,-0.46722 -0.45747,-0.54502 -0.98084,-0.54502 -0.52333,0 -0.66333,0.0778 -0.98079,0.54502 -0.62127,0.91431 -0.27537,2.292 0.66354,2.64247 0.42117,0.15705 0.77455,0.0405 1.17843,-0.38942 z m -17.252417,-0.0346 c 0.52385,-0.5507 0.66102,-1.12841 0.43246,-1.82101 -0.3283,-0.99474 -1.22628,-1.3185 -1.84132,-0.66388 -0.756,0.80478 -0.75334,1.75085 0.007,2.56279 0.4383,0.46788 0.90729,0.4418 1.4016,-0.0778 z m -17.5888,-0.35282 c 0.47393,-0.37278 0.79942,-1.25298 0.646,-1.74701 -0.24147,-0.77781 -0.68911,-1.20929 -1.25433,-1.20929 -1.08053,0 -1.75051,1.29086 -1.23441,2.37845 0.41364,0.87169 1.16833,1.10831 1.84274,0.57785 z m 32.591977,-1.96724 c 0.51666,-0.33867 0.84305,-0.99581 0.84305,-1.69768 0,-0.43871 -0.12074,-0.68907 -0.52946,-1.09779 -0.64576,-0.64576 -1.06918,-0.66773 -1.65122,-0.0858 -0.84706,0.84706 -0.69339,2.36748 0.29335,2.90382 0.52448,0.28505 0.5763,0.28401 1.04411,-0.0242 z m -30.693177,-0.54803 c 0.63244,-0.49745 0.88221,-1.19898 0.68337,-1.91918 -0.17643,-0.63888 -0.76355,-1.3249 -1.13398,-1.3249 -1.62469,0 -2.01809,2.80557 -0.48158,3.43449 0.44792,0.18334 0.46034,0.18092 0.93219,-0.19027 z m 15.50382,-0.4849 c 0.75442,-0.59452 0.978,-1.59659 0.54364,-2.4366 -0.40239,-0.77811 -1.13664,-0.85072 -1.80856,-0.17885 -0.70408,0.70402 -0.60078,1.8702 0.22486,2.539 0.38994,0.31584 0.70661,0.33902 1.04006,0.0765 z m 12.939597,-1.49963 c 0.29162,-0.23593 0.36763,-0.44844 0.36763,-1.02594 0,-0.57747 -0.0761,-0.78991 -0.36763,-1.02598 -0.20203,-0.16363 -0.45722,-0.29785 -0.56671,-0.29785 -0.42838,0 -0.8774,0.55789 -0.96305,1.19659 -0.0744,0.55336 -0.0277,0.70723 0.31411,1.04957 0.47898,0.47899 0.72587,0.49998 1.21558,0.10344 z m -25.958517,-0.51558 c 0.5766,-0.82319 0.10931,-2.14543 -0.7585,-2.14543 -0.47238,0 -1.02349,0.67081 -1.02349,1.24575 0,1.03535 1.24624,1.66458 1.78199,0.89968 z m 23.569727,-0.904 c 0.69408,-0.64663 0.63393,-1.70574 -0.119,-2.09509 -0.611757,-0.31619 -0.733347,-0.30132 -1.180507,0.14563 -0.48179,0.48175 -0.50756,1.28516 -0.0595,1.85478 0.38596,0.49067 0.8957,0.52613 1.358937,0.0944 z m -21.158767,-0.37268 c 0.5132,-0.54623 0.48532,-1.44605 -0.0595,-1.91458 -0.50631,-0.4355 -0.70975,-0.44349 -1.21285,-0.0477 -0.45006,0.35403 -0.62912,1.02598 -0.39464,1.48123 0.47957,0.93108 1.08108,1.10471 1.66689,0.48113 z m 4.28287,-0.49061 c 0.46182,-0.46179 0.26602,-1.46825 -0.28575,-1.46825 -0.69678,0 -0.97215,0.85955 -0.4575,1.42819 0.3148,0.34809 0.4292,0.35424 0.74335,0.0401 z m 12.29992,-0.25668 c 0.11728,-0.33487 0.0882,-0.48967 -0.13802,-0.73968 -0.51939,-0.57394 -1.17221,-0.25253 -1.17221,0.57674 0,0.76203 1.05497,0.89318 1.31027,0.16294 z m 2.18469,0.15533 c 0.31308,-0.44699 0.30789,-0.8809 -0.0138,-1.2378 -0.72474,-0.80077 -1.83374,0.28229 -1.23098,1.2022 0.31688,0.48344 0.92053,0.50067 1.24627,0.0356 z m -16.50671,-0.15566 c 0.33694,-0.48102 0.30269,-1.10844 -0.0796,-1.45438 -0.29405,-0.26603 -0.35863,-0.27121 -0.73972,-0.0581 -0.29785,0.1664 -0.43186,0.38105 -0.46746,0.74909 -0.0913,0.94562 0.79209,1.46982 1.28685,0.76345 z"
       id="path910" />
    <g
       id="g1037"
       transform="matrix(3.4593605,0,0,3.4593605,-198.47217,-232.61335)"
       style="stroke-width:0.289071">
      <path
         d="m 70.765813,73.325426 v 0.283159 q -0.949948,0.164419 -1.388386,0.758132 -0.182681,0.246622 -0.255754,0.621119 -0.07307,0.3745 -0.07307,1.123497 v 6.037655 q 0,1.488862 -0.48411,2.310935 -0.447571,0.75813 -1.187435,1.16917 -0.739864,0.41103 -1.653277,0.41103 -0.748997,0 -1.379251,-0.27402 -0.621121,-0.27403 -0.977351,-0.749 -0.356231,-0.48411 -0.356231,-1.059559 0,-0.529778 0.301426,-0.876875 0.31056,-0.356232 0.794668,-0.356232 0.438439,0 0.739864,0.283159 0.301426,0.274024 0.301426,0.703327 0,0.182683 -0.05481,0.474975 l -0.04567,0.200945 q -0.06393,0.24663 -0.06393,0.42017 0,0.35624 0.228351,0.56632 0.228354,0.21008 0.575451,0.21008 0.237486,0 0.456705,-0.11874 0.228354,-0.11875 0.3745,-0.3471 0.15528,-0.23749 0.210084,-0.51151 0.100468,-0.484107 0.100468,-1.44319 v -7.051542 q 0,-0.812935 -0.109606,-1.196569 -0.100469,-0.383633 -0.401903,-0.657657 -0.529778,-0.502376 -1.589336,-0.648522 v -0.283158 z m -4.503121,0.347097 0.520645,0.383633 q 0.356232,0.255756 0.42017,0.401902 0.06393,0.137004 0.06393,0.675924 v 0.246622 7.508248 q 0,0.858606 -0.06393,1.379251 -0.05481,0.51151 -0.219219,0.8038 -0.164419,0.28316 -0.484108,0.52065 0.968216,-0.4019 1.351849,-1.22397 0.383634,-0.822074 0.383634,-2.457083 v -6.622237 q 0,-0.0274 0,-0.05481 0.0092,-0.0274 0.0092,-0.100469 v -0.301425 q 0.01828,-0.274024 0.100469,-0.411035 0.08221,-0.137021 0.392767,-0.365366 l 0.520645,-0.383633 z m -1.351849,11.9657 q -0.319694,-0.22835 -0.493243,-0.41104 -0.164419,-0.18268 -0.228353,-0.38363 -0.06393,-0.20095 -0.06393,-0.49324 0,-0.246623 0.04567,-0.456707 0.03654,-0.274024 0.03654,-0.292294 0,-0.191816 -0.109606,-0.310559 -0.100469,-0.118745 -0.274024,-0.118745 -0.219219,0 -0.35623,0.219218 -0.127884,0.210084 -0.127884,0.548048 0,0.602849 0.42017,1.059559 0.429303,0.45671 1.150899,0.63939 z"
         style="font-size:10.5833px;line-height:1.25;font-family:'Academy Engraved LET';-inkscape-font-specification:'Academy Engraved LET';stroke-width:0.0764832"
         id="path1018" />
      <path
         d="m 99.200016,79.267114 v 3.754125 q 0,0.785534 0.09135,1.169167 0.100468,0.38363 0.374499,0.68506 0.484105,0.50237 1.443195,0.64852 v 0.28316 h -5.809305 v -0.28316 q 0.986486,-0.16442 1.434058,-0.75813 0.347095,-0.43844 0.347095,-1.744617 v -6.896263 q 0,-0.831205 -0.09135,-1.205703 -0.09135,-0.374499 -0.337962,-0.639388 -0.438438,-0.484108 -1.35185,-0.657657 v -0.283159 q 0.127883,0.0092 0.228353,0.0092 l 0.803803,0.04567 q 0.484108,0.0274 1.123497,0.0274 1.013888,0 1.835958,-0.08221 l 1.278773,-0.109607 q 0.60286,-0.05481 1.18744,-0.05481 1.07783,0 1.9273,0.219218 0.84947,0.219219 1.43406,0.630254 0.58458,0.411037 0.90428,1.013888 0.31969,0.593719 0.31969,1.333581 0,1.233107 -0.84947,1.927301 -0.84034,0.685059 -2.49362,0.803802 1.02302,0.401901 1.72635,1.105229 0.71246,0.694192 1.68981,2.274396 1.10523,1.772025 1.74462,2.466215 0.63939,0.69419 1.41579,0.98649 v 0.25575 q -0.99562,-0.0183 -1.69895,-0.18268 -0.69419,-0.16442 -1.38838,-0.58459 -0.86775,-0.53891 -1.63501,-1.452323 -0.76727,-0.913413 -1.34272,-2.091715 l -0.48411,-1.013886 q -0.34709,-0.712462 -0.61198,-1.032156 -0.26489,-0.328829 -0.63026,-0.447573 -0.36536,-0.118745 -0.99562,-0.118745 z m 0,-0.365364 h 1.635004 q 1.41579,0 2.03691,-0.319695 0.55718,-0.283157 0.86774,-0.876875 0.3197,-0.602851 0.3197,-1.379253 0,-0.803802 -0.3745,-1.443191 -0.36537,-0.639389 -1.03216,-0.986484 -0.65765,-0.356231 -1.50713,-0.356231 -1.260505,0 -1.698943,0.785534 -0.246621,0.447573 -0.246621,1.406656 z m 3.562304,0.03654 q 0.61199,-0.137021 1.11437,-0.392767 0.51151,-0.255756 0.84034,-0.584585 0.32882,-0.328828 0.50237,-0.748998 0.18268,-0.420169 0.18268,-0.876875 0,-0.995618 -0.71246,-1.735483 -0.71246,-0.739864 -1.88163,-0.949948 0.52065,0.283157 0.87688,0.675924 0.35623,0.392768 0.53891,0.895143 0.18269,0.493243 0.18269,1.068694 0,0.995618 -0.39277,1.635007 -0.39277,0.630254 -1.25138,1.013888 z m 5.76363,6.877996 q -0.48411,-0.26489 -0.78553,-0.48411 -0.30143,-0.21923 -0.70333,-0.61199 -0.47497,-0.511509 -0.749,-0.886009 -0.26488,-0.374497 -0.88601,-1.397519 -0.58458,-0.97735 -1.05955,-1.580204 -0.46584,-0.602851 -0.94082,-0.968216 -0.47497,-0.365364 -1.05042,-0.602853 0.36536,0.3745 0.60285,0.739865 0.12788,0.200951 0.45671,0.849472 0.10047,0.191818 0.19181,0.3745 0.10047,0.182683 0.19182,0.383632 0.97735,1.909032 2.10085,2.904652 1.12349,0.98649 2.63062,1.27878 z m -11.947427,-0.47497 h 2.667163 l -0.356231,-0.26489 q -0.31056,-0.22835 -0.401901,-0.36536 -0.08221,-0.13703 -0.08221,-0.41104 0,-0.146149 -0.0092,-0.191823 0,-0.05479 0,-0.109607 v -0.15528 -8.540403 -0.155281 q 0,-0.05481 0,-0.109607 0.0092,-0.05481 0.0092,-0.191816 0,-0.255756 0.07307,-0.392767 0.08221,-0.137022 0.347097,-0.337962 l 0.06393,-0.04567 0.511512,-0.392766 -0.328829,0.01826 q -0.831205,0.05481 -1.497996,0.05481 -0.411035,0 -1.123497,-0.0274 l 0.484108,0.347095 q 0.301427,0.200951 0.392768,0.356232 0.09135,0.146142 0.09135,0.42017 0.0092,0.15528 0.0092,0.301425 v 0.15528 8.540403 0.155281 q 0,0.146142 -0.0092,0.301426 0,0.28316 -0.08221,0.42017 -0.08221,0.12789 -0.401902,0.35624 z"
         style="font-size:10.5833px;line-height:1.25;font-family:'Academy Engraved LET';-inkscape-font-specification:'Academy Engraved LET';stroke-width:0.0764832"
         id="path1020" />
    </g>
  </g>
</svg>
