<?xml version="1.0" encoding="UTF-8" standalone="no"?>
<!-- Created with Inkscape (http://www.inkscape.org/) -->

<svg
   width="186.39999mm"
   height="215.39999mm"
   viewBox="0 0 186.39999 215.39999"
   version="1.1"
   id="svg39493"
   inkscape:version="1.2.1 (9c6d41e, 2022-07-14)"
   sodipodi:docname="s3.svg"
   xmlns:inkscape="http://www.inkscape.org/namespaces/inkscape"
   xmlns:sodipodi="http://sodipodi.sourceforge.net/DTD/sodipodi-0.dtd"
   xmlns="http://www.w3.org/2000/svg"
   xmlns:svg="http://www.w3.org/2000/svg">
  <sodipodi:namedview
     id="namedview39495"
     pagecolor="#ffffff"
     bordercolor="#666666"
     borderopacity="1.0"
     inkscape:showpageshadow="2"
     inkscape:pageopacity="0.0"
     inkscape:pagecheckerboard="0"
     inkscape:deskcolor="#d1d1d1"
     inkscape:document-units="mm"
     showgrid="false"
     inkscape:zoom="0.2102413"
     inkscape:cx="1058.3078"
     inkscape:cy="770.54317"
     inkscape:window-width="1280"
     inkscape:window-height="430"
     inkscape:window-x="0"
     inkscape:window-y="25"
     inkscape:window-maximized="0"
     inkscape:current-layer="layer1" />
  <defs
     id="defs39490" />
  <g
     inkscape:label="Layer 1"
     inkscape:groupmode="layer"
     id="layer1"
     transform="translate(176.25932,54.844068)">
    <path
       d="m 0.94068,151.35593 h 2.9 c 0.1,0 0,0.1 0,0 v -2.8 c 0,-0.1 0.1,0 0,0 h -5.8 c -0.1,0 0,-0.1 0,0 v 2.8 c 0,0.1 -0.1,0 0,0 z"
       stroke="#0000ff"
       stroke-width="0.2"
       id="path3918"
       style="fill:none;stroke-linecap:round;stroke-linejoin:round;stroke:#ff0000;stroke-opacity:1;vector-effect:non-scaling-stroke;-inkscape-stroke:hairline;stroke-width:0.26458333;stroke-dasharray:none" />
    <path
       d="m -11.05932,151.35593 h 2.9 c 0.1,0 0,0.1 0,0 v -2.8 c 0,-0.1 0.1,0 0,0 h -5.8 c -0.1,0 0,-0.1 0,0 v 2.8 c 0,0.1 -0.1,0 0,0 z"
       stroke="#0000ff"
       stroke-width="0.2"
       id="path3920"
       style="fill:none;stroke-linecap:round;stroke-linejoin:round;stroke:#ff0000;stroke-opacity:1;vector-effect:non-scaling-stroke;-inkscape-stroke:hairline;stroke-width:0.26458333;stroke-dasharray:none" />
    <path
       d="m -23.05932,151.35593 h 2.9 c 0.1,0 0,0.1 0,0 v -2.8 c 0,-0.1 0.1,0 0,0 h -5.8 c -0.1,0 0,-0.1 0,0 v 2.8 c 0,0.1 -0.1,0 0,0 z"
       stroke="#0000ff"
       stroke-width="0.2"
       id="path3922"
       style="fill:none;stroke-linecap:round;stroke-linejoin:round;stroke:#ff0000;stroke-opacity:1;vector-effect:non-scaling-stroke;-inkscape-stroke:hairline;stroke-width:0.26458333;stroke-dasharray:none" />
    <path
       d="m -35.05932,151.35593 h 2.9 c 0.1,0 0,0.1 0,0 v -2.8 c 0,-0.1 0.1,0 0,0 h -5.8 c -0.1,0 0,-0.1 0,0 v 2.8 c 0,0.1 -0.1,0 0,0 z"
       stroke="#0000ff"
       stroke-width="0.2"
       id="path3924"
       style="fill:none;stroke-linecap:round;stroke-linejoin:round;stroke:#ff0000;stroke-opacity:1;vector-effect:non-scaling-stroke;-inkscape-stroke:hairline;stroke-width:0.26458333;stroke-dasharray:none" />
    <path
       d="m -47.05932,151.35593 h 2.9 c 0.1,0 0,0.1 0,0 v -2.8 c 0,-0.1 0.1,0 0,0 h -5.8 c -0.1,0 0,-0.1 0,0 v 2.8 c 0,0.1 -0.1,0 0,0 z"
       stroke="#0000ff"
       stroke-width="0.2"
       id="path3926"
       style="fill:none;stroke-linecap:round;stroke-linejoin:round;stroke:#ff0000;stroke-opacity:1;vector-effect:non-scaling-stroke;-inkscape-stroke:hairline;stroke-width:0.26458333;stroke-dasharray:none" />
    <path
       d="m -59.05932,151.35593 h 2.9 c 0.1,0 0,0.1 0,0 v -2.8 c 0,-0.1 0.1,0 0,0 h -5.8 c -0.1,0 0,-0.1 0,0 v 2.8 c 0,0.1 -0.1,0 0,0 z"
       stroke="#0000ff"
       stroke-width="0.2"
       id="path3928"
       style="fill:none;stroke-linecap:round;stroke-linejoin:round;stroke:#ff0000;stroke-opacity:1;vector-effect:non-scaling-stroke;-inkscape-stroke:hairline;stroke-width:0.26458333;stroke-dasharray:none" />
    <path
       d="m -71.05932,151.35593 h 2.9 c 0.1,0 0,0.1 0,0 v -2.8 c 0,-0.1 0.1,0 0,0 h -5.8 c -0.1,0 0,-0.1 0,0 v 2.8 c 0,0.1 -0.1,0 0,0 z"
       stroke="#0000ff"
       stroke-width="0.2"
       id="path3930"
       style="fill:none;stroke-linecap:round;stroke-linejoin:round;stroke:#ff0000;stroke-opacity:1;vector-effect:non-scaling-stroke;-inkscape-stroke:hairline;stroke-width:0.26458333;stroke-dasharray:none" />
    <path
       d="m -83.05932,151.35593 h 2.9 c 0.1,0 0,0.1 0,0 v -2.8 c 0,-0.1 0.1,0 0,0 h -5.8 c -0.1,0 0,-0.1 0,0 v 2.8 c 0,0.1 -0.1,0 0,0 z"
       stroke="#0000ff"
       stroke-width="0.2"
       id="path3932"
       style="fill:none;stroke-linecap:round;stroke-linejoin:round;stroke:#ff0000;stroke-opacity:1;vector-effect:non-scaling-stroke;-inkscape-stroke:hairline;stroke-width:0.26458333;stroke-dasharray:none" />
    <path
       d="m -95.05932,151.35593 h 2.9 c 0.1,0 0,0.1 0,0 v -2.8 c 0,-0.1 0.1,0 0,0 h -5.8 c -0.1,0 0,-0.1 0,0 v 2.8 c 0,0.1 -0.1,0 0,0 z"
       stroke="#0000ff"
       stroke-width="0.2"
       id="path3934"
       style="fill:none;stroke-linecap:round;stroke-linejoin:round;stroke:#ff0000;stroke-opacity:1;vector-effect:non-scaling-stroke;-inkscape-stroke:hairline;stroke-width:0.26458333;stroke-dasharray:none" />
    <path
       d="m -107.05932,151.35593 h 2.9 c 0.1,0 0,0.1 0,0 v -2.8 c 0,-0.1 0.1,0 0,0 h -5.8 c -0.1,0 0,-0.1 0,0 v 2.8 c 0,0.1 -0.1,0 0,0 z"
       stroke="#0000ff"
       stroke-width="0.2"
       id="path3936"
       style="fill:none;stroke-linecap:round;stroke-linejoin:round;stroke:#ff0000;stroke-opacity:1;vector-effect:non-scaling-stroke;-inkscape-stroke:hairline;stroke-width:0.26458333;stroke-dasharray:none" />
    <path
       d="m -119.05932,151.35593 h 2.9 c 0.1,0 0,0.1 0,0 v -2.8 c 0,-0.1 0.1,0 0,0 h -5.8 c -0.1,0 0,-0.1 0,0 v 2.8 c 0,0.1 -0.1,0 0,0 z"
       stroke="#0000ff"
       stroke-width="0.2"
       id="path3938"
       style="fill:none;stroke-linecap:round;stroke-linejoin:round;stroke:#ff0000;stroke-opacity:1;vector-effect:non-scaling-stroke;-inkscape-stroke:hairline;stroke-width:0.26458333;stroke-dasharray:none" />
    <path
       d="m -131.05932,151.35593 h 2.9 c 0.1,0 0,0.1 0,0 v -2.8 c 0,-0.1 0.1,0 0,0 h -5.8 c -0.1,0 0,-0.1 0,0 v 2.8 c 0,0.1 -0.1,0 0,0 z"
       stroke="#0000ff"
       stroke-width="0.2"
       id="path3940"
       style="fill:none;stroke-linecap:round;stroke-linejoin:round;stroke:#ff0000;stroke-opacity:1;vector-effect:non-scaling-stroke;-inkscape-stroke:hairline;stroke-width:0.26458333;stroke-dasharray:none" />
    <path
       d="m -143.05932,151.35593 h 2.9 c 0.1,0 0,0.1 0,0 v -2.8 c 0,-0.1 0.1,0 0,0 h -5.8 c -0.1,0 0,-0.1 0,0 v 2.8 c 0,0.1 -0.1,0 0,0 z"
       stroke="#0000ff"
       stroke-width="0.2"
       id="path3942"
       style="fill:none;stroke-linecap:round;stroke-linejoin:round;stroke:#ff0000;stroke-opacity:1;vector-effect:non-scaling-stroke;-inkscape-stroke:hairline;stroke-width:0.26458333;stroke-dasharray:none" />
    <path
       d="m -155.05932,151.35593 h 2.9 c 0.1,0 0,0.1 0,0 v -2.8 c 0,-0.1 0.1,0 0,0 h -5.8 c -0.1,0 0,-0.1 0,0 v 2.8 c 0,0.1 -0.1,0 0,0 z"
       stroke="#0000ff"
       stroke-width="0.2"
       id="path3944"
       style="fill:none;stroke-linecap:round;stroke-linejoin:round;stroke:#ff0000;stroke-opacity:1;vector-effect:non-scaling-stroke;-inkscape-stroke:hairline;stroke-width:0.26458333;stroke-dasharray:none" />
    <path
       d="m -167.05932,151.35593 h 2.9 c 0.1,0 0,0.1 0,0 v -2.8 c 0,-0.1 0.1,0 0,0 h -5.8 c -0.1,0 0,-0.1 0,0 v 2.8 c 0,0.1 -0.1,0 0,0 z"
       stroke="#0000ff"
       stroke-width="0.2"
       id="path3946"
       style="fill:none;stroke-linecap:round;stroke-linejoin:round;stroke:#ff0000;stroke-opacity:1;vector-effect:non-scaling-stroke;-inkscape-stroke:hairline;stroke-width:0.26458333;stroke-dasharray:none" />
    <path
       d="m 6.94068,160.45593 h -12 c -1.071,0 -2.123,-0.282 -3.05,-0.817 -0.927,-0.536 -1.697,-1.306 -2.233,-2.233 -0.518,-0.897 -1.262,-1.642 -2.159,-2.16 -0.897,-0.517 -1.915,-0.79 -2.95,-0.79 h -135.216 c -1.035,0 -2.053,0.273 -2.95,0.79 -0.897,0.518 -1.641,1.263 -2.159,2.16 -0.536,0.927 -1.306,1.697 -2.233,2.233 -0.927,0.535 -1.979,0.817 -3.05,0.817 h -12 c -0.055,0 -0.1,-0.045 -0.1,-0.1 v -4.4 c 0,-0.1 0.1,0 0,0 h -2.9 c -0.055,0 -0.1,-0.045 -0.1,-0.1 v -6 c 0,-0.055 0.045,-0.1 0.1,-0.1 h 2.9 c 0.1,0 0,0.1 0,0 v -4.4 -196.999998 c 0,-0.055 0.045,-0.1 0.1,-0.1 h 2.9 c 0.1,0 0,0.1 0,0 v -2.9 c 0,-0.055 0.045,-0.1 0.1,-0.1 h 6 c 0.055,0 0.1,0.045 0.1,0.1 v 2.9 c 0,0.1 -0.1,0 0,0 h 5.8 c 0.1,0 0,0.1 0,0 v -2.9 c 0,-0.055 0.045,-0.1 0.1,-0.1 h 6 c 0.055,0 0.1,0.045 0.1,0.1 v 2.9 c 0,0.1 -0.1,0 0,0 h 5.8 c 0.1,0 0,0.1 0,0 v -2.9 c 0,-0.055 0.045,-0.1 0.1,-0.1 h 6 c 0.055,0 0.1,0.045 0.1,0.1 v 2.9 c 0,0.1 -0.1,0 0,0 h 5.8 c 0.1,0 0,0.1 0,0 v -2.9 c 0,-0.055 0.045,-0.1 0.1,-0.1 h 6 c 0.055,0 0.1,0.045 0.1,0.1 v 2.9 c 0,0.1 -0.1,0 0,0 h 5.8 c 0.1,0 0,0.1 0,0 v -2.9 c 0,-0.055 0.045,-0.1 0.1,-0.1 h 6 c 0.055,0 0.1,0.045 0.1,0.1 v 2.9 c 0,0.1 -0.1,0 0,0 h 5.8 c 0.1,0 0,0.1 0,0 v -2.9 c 0,-0.055 0.045,-0.1 0.1,-0.1 h 6 c 0.055,0 0.1,0.045 0.1,0.1 v 2.9 c 0,0.1 -0.1,0 0,0 h 5.8 c 0.1,0 0,0.1 0,0 v -2.9 c 0,-0.055 0.045,-0.1 0.1,-0.1 h 6 c 0.055,0 0.1,0.045 0.1,0.1 v 2.9 c 0,0.1 -0.1,0 0,0 h 5.8 c 0.1,0 0,0.1 0,0 v -2.9 c 0,-0.055 0.045,-0.1 0.1,-0.1 h 6 c 0.055,0 0.1,0.045 0.1,0.1 v 2.9 c 0,0.1 -0.1,0 0,0 h 5.8 c 0.1,0 0,0.1 0,0 v -2.9 c 0,-0.055 0.045,-0.1 0.1,-0.1 h 6 c 0.055,0 0.1,0.045 0.1,0.1 v 2.9 c 0,0.1 -0.1,0 0,0 h 5.8 c 0.1,0 0,0.1 0,0 v -2.9 c 0,-0.055 0.045,-0.1 0.1,-0.1 h 6 c 0.055,0 0.1,0.045 0.1,0.1 v 2.9 c 0,0.1 -0.1,0 0,0 h 5.8 c 0.1,0 0,0.1 0,0 v -2.9 c 0,-0.055 0.045,-0.1 0.1,-0.1 h 6 c 0.055,0 0.1,0.045 0.1,0.1 v 2.9 c 0,0.1 -0.1,0 0,0 h 5.8 c 0.1,0 0,0.1 0,0 v -2.9 c 0,-0.055 0.045,-0.1 0.1,-0.1 h 6 c 0.055,0 0.1,0.045 0.1,0.1 v 2.9 c 0,0.1 -0.1,0 0,0 h 5.8 c 0.1,0 0,0.1 0,0 v -2.9 c 0,-0.055 0.045,-0.1 0.1,-0.1 h 6 c 0.055,0 0.1,0.045 0.1,0.1 v 2.9 c 0,0.1 -0.1,0 0,0 h 5.8 c 0.1,0 0,0.1 0,0 v -2.9 c 0,-0.055 0.045,-0.1 0.1,-0.1 h 6 c 0.055,0 0.1,0.045 0.1,0.1 v 2.9 c 0,0.1 -0.1,0 0,0 h 5.8 c 0.1,0 0,0.1 0,0 v -2.9 c 0,-0.055 0.045,-0.1 0.1,-0.1 h 6 c 0.055,0 0.1,0.045 0.1,0.1 v 2.9 c 0,0.1 -0.1,0 0,0 h 2.9 c 0.055,0 0.1,0.045 0.1,0.1 v 196.999998 4.4 c 0,0.1 -0.1,0 0,0 h 2.9 c 0.055,0 0.1,0.045 0.1,0.1 v 6 c 0,0.055 -0.045,0.1 -0.1,0.1 h -2.9 c -0.1,0 0,-0.1 0,0 v 4.4 c 0,0.055 -0.045,0.1 -0.1,0.1 z"
       stroke="#000000"
       stroke-width="0.2"
       id="path3948"
       style="fill:none;stroke-linecap:round;stroke-linejoin:round;stroke:#ff0000;stroke-opacity:1;vector-effect:non-scaling-stroke;-inkscape-stroke:hairline;stroke-width:0.26458333;stroke-dasharray:none" />
    <path
       d="m -168.40932,-44.194068 h -1.55 c -0.1,0 0,-0.1 0,0 v 3.1 c 0,0.1 -0.1,0 0,0 h 3.1 c 0.1,0 0,0.1 0,0 v -3.1 c 0,-0.1 0.1,0 0,0 z"
       stroke="#0000ff"
       stroke-width="0.2"
       id="path3950"
       style="fill:none;stroke-linecap:round;stroke-linejoin:round;stroke:#ff0000;stroke-opacity:1;vector-effect:non-scaling-stroke;-inkscape-stroke:hairline;stroke-width:0.26458333;stroke-dasharray:none" />
    <path
       d="m 2.29068,-44.194068 h -1.55 c -0.1,0 0,-0.1 0,0 v 3.1 c 0,0.1 -0.1,0 0,0 h 3.1 c 0.1,0 0,0.1 0,0 v -3.1 c 0,-0.1 0.1,0 0,0 z"
       stroke="#0000ff"
       stroke-width="0.2"
       id="path3952"
       style="fill:none;stroke-linecap:round;stroke-linejoin:round;stroke:#ff0000;stroke-opacity:1;vector-effect:non-scaling-stroke;-inkscape-stroke:hairline;stroke-width:0.26458333;stroke-dasharray:none" />
  </g>
</svg>
