<?xml version="1.0" encoding="UTF-8" standalone="no"?>
<!-- Created with Inkscape (http://www.inkscape.org/) -->

<svg
   width="240.564mm"
   height="160.84225mm"
   viewBox="0 0 240.56399 160.84225"
   version="1.1"
   id="svg5"
   xml:space="preserve"
   inkscape:version="1.2.1 (9c6d41e, 2022-07-14)"
   sodipodi:docname="17-and-extras.svg"
   xmlns:inkscape="http://www.inkscape.org/namespaces/inkscape"
   xmlns:sodipodi="http://sodipodi.sourceforge.net/DTD/sodipodi-0.dtd"
   xmlns="http://www.w3.org/2000/svg"
   xmlns:svg="http://www.w3.org/2000/svg"><sodipodi:namedview
     id="namedview7"
     pagecolor="#ffffff"
     bordercolor="#666666"
     borderopacity="1.0"
     inkscape:showpageshadow="2"
     inkscape:pageopacity="0.0"
     inkscape:pagecheckerboard="0"
     inkscape:deskcolor="#d1d1d1"
     inkscape:document-units="mm"
     showgrid="false"
     inkscape:zoom="0.61968206"
     inkscape:cx="385.68165"
     inkscape:cy="342.91779"
     inkscape:window-width="1280"
     inkscape:window-height="701"
     inkscape:window-x="0"
     inkscape:window-y="25"
     inkscape:window-maximized="0"
     inkscape:current-layer="layer1" /><defs
     id="defs2" /><g
     inkscape:label="Layer 1"
     inkscape:groupmode="layer"
     id="layer1"
     transform="translate(-7.5941157,-8.4936409)"><g
       aria-label="JACOB &amp; ROSALIND"
       id="text400"
       style="font-size:10.5833px;line-height:2.45;letter-spacing:1.13771px;stroke-width:0.264583"><path
         d="m 17.91624,15.207559 q 0,0.224895 -0.264583,0.224895 -0.07937,0 -0.238124,-0.01323 -0.158749,-0.02646 -0.238124,-0.02646 -0.634998,0 -0.634998,0.396874 0,0.105833 0.01323,0.30427 0.02646,0.198437 0.02646,0.30427 0,2.26218 -0.185207,3.889362 -0.171979,1.468433 -0.46302,2.209264 -0.529165,1.283225 -1.600724,1.283225 -0.912809,0 -1.666869,-1.071559 -0.687915,-0.978955 -0.687915,-1.931452 0,-1.084788 0.370416,-1.084788 0.59531,0 0.59531,1.005413 0,0.15875 -0.01323,0.463019 -0.01323,0.291041 -0.01323,0.436562 0,0.489477 0.423332,0.992184 0.423332,0.502707 0.912809,0.502707 1.481662,0 1.481662,-4.39207 0,-3.055928 0.01323,-2.831032 l -0.02646,-0.02646 q -0.370415,0.01323 -1.05833,0.396874 -0.687914,0.383645 -0.740831,0.383645 -0.158749,0 -0.251353,-0.15875 -0.0926,-0.171978 -0.0926,-0.330728 0,-0.224895 0.291041,-0.357186 0.238124,-0.0926 0.952497,-0.291041 0.59531,-0.171979 0.926039,-0.370416 l 0.02646,-0.03969 q 0.05292,-0.410103 0.357186,-0.410103 0.07937,0 0.238124,0.119062 0.171979,0.119063 0.251354,0.119063 0.119062,0 0.330728,-0.05292 0.224895,-0.06615 0.343957,-0.06615 0.198437,0 0.410103,0.132292 0.211666,0.119062 0.211666,0.29104 z"
         style="font-family:Noteworthy;-inkscape-font-specification:Noteworthy"
         id="path569" /><path
         d="m 24.477868,21.120978 q 0,0.423332 -0.330728,0.423332 -0.132292,0 -0.277812,-0.05292 0,0.674685 0.330728,1.50812 -0.01323,0.171978 -0.171978,0.277811 -0.145521,0.105833 -0.330728,0.105833 -0.15875,0 -0.357187,-0.0926 -0.105833,-0.211666 -0.105833,-0.661456 0,-0.119062 0.01323,-0.436561 0,-0.317499 0,-0.436561 0,-0.238124 -0.03969,-0.317499 -0.119062,-0.01323 -0.343957,0.01323 -0.211666,0.02646 -0.30427,0.02646 -0.568853,0 -1.785932,0.15875 -1.389058,0.185208 -1.600724,0.370415 -0.119062,0.0926 -0.251353,0.952497 -0.105833,0.701144 -0.119063,1.031872 -0.06614,0.0926 -0.185207,0.0926 -0.171979,0 -0.383645,-0.171979 -0.211666,-0.171978 -0.211666,-0.330728 0,-0.07937 0.105833,-0.357186 0.105833,-0.277812 0.119062,-0.343957 0.224895,-1.468433 0.859893,-3.241136 1.746245,-4.960922 2.698742,-4.960922 1.018642,0 1.574266,2.592909 0.198436,0.912809 0.463019,3.492489 0.07937,0.06615 0.396874,0.14552 0.238124,0.05292 0.238124,0.211666 z m -1.283225,-0.383645 q -0.330728,-2.328325 -0.423332,-2.817803 -0.436561,-2.222493 -0.926039,-2.209264 -0.542394,0.02646 -1.3626,2.037285 -0.463019,1.269996 -0.912809,2.539992 -0.07938,0.171979 -0.171979,0.515936 -0.05292,0.317499 0.185208,0.317499 0.07937,0 0.806976,-0.132291 0.568853,-0.105833 2.804575,-0.251354 z"
         style="font-family:Noteworthy;-inkscape-font-specification:Noteworthy"
         id="path571" /><path
         d="m 32.111046,21.583997 q 0,0.211666 -0.119062,0.555624 -0.277811,0.806976 -1.124475,1.296454 -0.780519,0.44979 -1.693328,0.44979 -1.547808,0 -2.328326,-1.269996 -0.661456,-1.045101 -0.661456,-2.685512 0,-1.402287 0.410102,-2.645825 0.46302,-1.455204 1.375829,-2.248951 0.674686,-0.595311 1.3626,-0.595311 1.018643,0 1.521349,0.978955 0.396874,0.76729 0.396874,1.891765 0,0.555623 -0.171978,1.283225 -0.224896,0.952497 -0.582082,0.952497 -0.277812,0 -0.396874,-0.291041 0.07938,-0.05292 0.251354,-0.185207 0.343957,-0.330728 0.343957,-1.613953 0,-0.780519 -0.291041,-1.494892 -0.370415,-0.926038 -1.018642,-0.926038 -0.515936,0 -1.084789,0.621769 -0.423332,0.463019 -0.727601,1.071559 -0.674686,1.402287 -0.674686,3.452801 0,1.3626 0.476249,2.169577 0.59531,1.005413 1.852077,1.005413 0.687915,0 1.256767,-0.357186 0.568852,-0.370416 0.873122,-0.978955 0.05292,-0.198437 0.224895,-0.555624 0.105833,-0.171978 0.264583,-0.171978 0.264582,0 0.264582,0.29104 z"
         style="font-family:Noteworthy;-inkscape-font-specification:Noteworthy"
         id="path573" /><path
         d="m 40.167572,19.136609 q 0,1.865307 -0.833435,3.241136 -0.978955,1.613953 -2.71197,1.613953 -0.436561,0 -1.018643,-0.198437 -2.209264,-0.701143 -2.209264,-3.968737 0,-1.904994 0.846664,-3.426343 1.005414,-1.82562 2.764887,-1.82562 1.534579,0 2.42093,1.574266 0.740831,1.309684 0.740831,2.989782 z m -0.740831,-0.119062 q 0,-2.936865 -1.95791,-3.598322 -0.211666,-0.07937 -0.370416,-0.07937 -0.846664,0 -1.66687,0.780518 -1.389058,1.322912 -1.389058,4.087799 0,0.251354 0.105833,0.793748 0.224895,1.137705 0.740831,1.693328 0.60854,0.634998 1.706557,0.634998 1.508121,0 2.248952,-1.494891 0.582081,-1.150934 0.582081,-2.817804 z"
         style="font-family:Noteworthy;-inkscape-font-specification:Noteworthy"
         id="path575" /><path
         d="m 48.065347,21.266498 q 0,0.410103 -0.185207,0.727602 -0.886352,1.587495 -3.042699,1.587495 -0.674685,0 -1.706557,-0.264582 0,0.02646 -0.01323,0.05292 0,0.03969 0.05292,0.251354 -0.05292,0.158749 -0.198437,0.198436 l -0.105833,-0.05292 q -0.251353,0.02646 -0.29104,-0.264583 -0.03969,-0.423332 -0.07937,-0.463019 -0.02646,-0.03969 -0.264583,-0.14552 -0.185207,-0.07938 -0.185207,-0.238125 0,-0.198436 0.185207,-0.211666 0.198437,-0.02646 0.211666,-0.0926 0,0.01323 0,-0.211666 0,-0.224895 0.01323,-0.714373 0.02646,-0.489478 0.02646,-0.740831 l -0.01323,-0.463019 q -0.277812,-0.0926 -0.277812,-0.251354 0,-0.198437 0.251353,-0.330728 v -4.418528 q 0,-0.105833 0.145521,-0.264582 0.158749,-0.158749 0.264582,-0.158749 0.211666,0 0.238125,0.03969 0.07937,0.07937 0.14552,0.171978 -0.211666,1.21708 -0.211666,1.746245 0,0 0.01323,0.07937 0.899581,-2.315097 2.685512,-2.315097 1.031872,0 1.574266,0.793747 0.489478,0.701144 0.489478,1.759474 0,0.793747 -0.370416,1.561037 -0.423332,0.89958 -1.084788,1.111246 1.733015,0.211666 1.733015,1.521349 z M 47.11285,17.019949 q 0,-1.984368 -1.441974,-1.984368 -0.978955,0 -1.785932,1.283225 -0.727602,1.150934 -0.727602,2.182805 v 1.164163 q -0.05292,0 0.978955,0 1.52135,0 2.209264,-0.542394 0.767289,-0.621769 0.767289,-2.103431 z m 0.277812,4.167175 q 0,-0.727602 -1.402287,-0.939268 -0.568853,-0.0926 -1.984369,-0.0926 -0.555623,0 -0.886351,0.07937 -0.01323,0.436561 -0.01323,1.81239 0,0.343957 0.02646,0.621769 0.634998,0.370415 1.680099,0.370415 0.846664,0 1.65364,-0.502707 0.926039,-0.555623 0.926039,-1.34937 z"
         style="font-family:Noteworthy;-inkscape-font-specification:Noteworthy"
         id="path577" /><path
         d="m 61.400279,23.581595 q 0,0.185208 -0.343957,0.343957 -0.291041,0.132292 -0.515936,0.132292 -0.555623,0 -1.150934,-0.383645 -0.634998,-0.410103 -0.714373,-0.423332 -1.574266,0.674685 -2.751658,0.674685 -0.912809,0 -1.468433,-0.370415 -0.661456,-0.44979 -0.661456,-1.309683 0,-0.846664 1.243538,-2.222493 0.105833,-0.105833 0.277812,-0.317499 -0.449791,-0.91281 -0.568853,-1.21708 -0.238124,-0.648227 -0.238124,-1.322912 0,-1.084788 0.621769,-1.785932 0.634998,-0.701144 1.706557,-0.701144 0.75406,0 1.256767,0.489478 0.515936,0.489478 0.515936,1.243538 0,0.410103 -0.0926,0.701143 -0.211666,0.60854 -2.27541,2.7252 0.02646,0.30427 1.137705,1.441975 1.124476,1.124475 1.402287,1.124475 0.224895,0 0.846664,-0.44979 0.634998,-0.463019 0.634998,-0.661456 0,-0.251354 -0.648227,-0.449791 -0.529165,-0.171978 -0.873122,-0.171978 -0.343957,0 -0.661456,0.171978 -0.185208,-0.0926 -0.185208,-0.251353 0,-0.383645 0.555623,-0.383645 2.738429,0 2.738429,0.701144 0,0.886351 -1.81239,1.944681 0.158749,0.251354 0.555623,0.476249 0.410103,0.224895 0.714373,0.224895 0.0926,0 0.277811,-0.07937 0.185208,-0.0926 0.291041,-0.0926 0.03969,0 0.185208,0.05292 z m -3.466031,-7.447997 q 0,-0.436561 -0.277811,-0.714373 -0.277812,-0.277811 -0.714373,-0.277811 -0.727602,0 -1.269996,0.621769 -0.529165,0.621768 -0.529165,1.362599 0,0.423332 0.198437,1.084789 0.211666,0.714372 0.463019,0.992184 0.740831,-0.529165 1.375829,-1.349371 0.75406,-0.992184 0.75406,-1.719786 z m 0.0926,6.588104 q -1.20385,-0.992184 -2.315097,-2.381242 -1.111246,1.20385 -1.111246,2.196034 0,0.502707 0.370415,0.674686 0.251354,0.132291 0.806977,0.132291 0.383645,0 1.217079,-0.198437 0.952497,-0.211666 1.031872,-0.423332 z"
         style="font-family:Noteworthy;-inkscape-font-specification:Noteworthy"
         id="path579" /><path
         d="m 73.743034,23.555137 v 0.06615 q -0.07937,0.132291 -0.224895,0.132291 -0.185208,0 -0.238124,-0.06615 -0.105833,-0.542394 -1.785932,-1.719786 -1.680099,-1.190621 -2.27541,-1.190621 -0.75406,0 -0.75406,0 v 0.820206 q 0,0.171978 0.0926,0.793747 0.07937,0.661456 0.132291,0.727602 0.224895,0.357186 0.224895,0.330728 0,0.30427 -0.343957,0.30427 -0.383644,0 -0.582081,-0.277812 -0.198437,-0.277811 -0.198437,-2.592908 0,-0.185208 -0.463019,-0.330728 -0.46302,-0.145521 -0.46302,-0.343958 0,-0.29104 0.846664,-0.529165 0.0926,-0.476248 0.119062,-1.269995 0.05292,-0.992185 0.07937,-1.283226 0.01323,-0.14552 0.119062,-0.793747 0.0926,-0.489478 0.07937,-0.806977 -0.06615,-0.03969 -0.357187,-0.03969 -0.277811,0 -0.277811,-0.224895 0,-0.277812 0.264582,-0.343957 0.185208,-0.05292 0.383645,-0.105833 0.03969,-0.132292 0.171979,-0.291041 0.119062,-0.03969 0.211666,-0.03969 0.14552,0 0.29104,0.14552 0.15875,0.14552 0.277812,0.14552 0.06615,0 0.185208,-0.01323 0.119062,-0.02646 0.185207,-0.02646 1.468433,0 2.473847,0.60854 1.230308,0.714372 1.230308,2.090201 0,1.137705 -0.674685,1.852078 -0.423332,0.463019 -1.640411,1.124475 -0.07937,0.01323 -0.185208,0.06615 0.264582,0.251353 1.190621,0.859893 0.926039,0.60854 1.322912,0.992184 0.60854,0.60854 0.582082,1.230309 z m -1.283225,-6.178001 q 0,-1.005414 -0.91281,-1.547808 -0.75406,-0.44979 -1.825619,-0.44979 -0.383645,0 -0.634998,0.05292 l -0.171979,0.264583 q -0.185207,0.30427 -0.211666,0.806977 -0.02646,0.727601 -0.05292,0.859893 -0.15875,0.75406 -0.211666,2.394471 0.978955,0.370416 1.217079,0.370416 0.185208,0 0.529165,-0.105833 0.978956,-0.291041 1.587495,-0.965726 0.687915,-0.727602 0.687915,-1.680099 z"
         style="font-family:Noteworthy;-inkscape-font-specification:Noteworthy"
         id="path581" /><path
         d="m 81.852461,19.136609 q 0,1.865307 -0.833435,3.241136 -0.978955,1.613953 -2.711971,1.613953 -0.436561,0 -1.018642,-0.198437 -2.209264,-0.701143 -2.209264,-3.968737 0,-1.904994 0.846664,-3.426343 1.005414,-1.82562 2.764887,-1.82562 1.534579,0 2.42093,1.574266 0.740831,1.309684 0.740831,2.989782 z M 81.11163,19.017547 q 0,-2.936865 -1.957911,-3.598322 -0.211666,-0.07937 -0.370415,-0.07937 -0.846664,0 -1.66687,0.780518 -1.389058,1.322912 -1.389058,4.087799 0,0.251354 0.105833,0.793748 0.224895,1.137705 0.740831,1.693328 0.60854,0.634998 1.706557,0.634998 1.50812,0 2.248951,-1.494891 0.582082,-1.150934 0.582082,-2.817804 z"
         style="font-family:Noteworthy;-inkscape-font-specification:Noteworthy"
         id="path583" /><path
         d="m 89.141698,22.496807 q 0,0.740831 -0.926038,1.137705 -0.740831,0.317499 -1.587495,0.317499 -0.780519,0 -1.706557,-0.317499 -1.190622,-0.410103 -1.190622,-1.018643 0,-0.330728 0.317499,-0.330728 0.251354,0 0.582082,0.291041 0.463019,0.436561 0.502707,0.463019 0.502706,0.330728 1.627182,0.330728 1.50812,0 1.50812,-0.793747 0,-0.370416 -0.648227,-0.91281 -0.105833,-0.07937 -0.992184,-0.714373 -1.415517,-1.005413 -1.785932,-1.402287 -0.833435,-0.886351 -0.833435,-2.063743 0,-1.084788 0.621769,-1.984369 0.687914,-1.005413 1.733015,-1.005413 0.886352,0 1.52135,0.75406 0.555623,0.661456 0.727601,1.600724 0.01323,0.317499 0.105833,0.965726 0.105833,0.476248 0.105833,0.476248 0,1.05833 -0.515935,1.05833 -0.132292,0 -0.277812,-0.14552 -0.132291,-0.15875 -0.132291,-0.291041 0,-0.185208 0.07937,-0.542394 0.07937,-0.357186 0.07937,-0.542394 0,-0.91281 -0.291041,-1.613953 -0.383644,-0.952497 -1.164163,-0.952497 -0.780518,0 -1.309683,0.687914 -0.515936,0.674686 -0.515936,1.481662 0,1.084789 1.137705,2.063744 1.045101,0.75406 2.103431,1.521349 1.124475,0.820206 1.124475,1.481662 z"
         style="font-family:Noteworthy;-inkscape-font-specification:Noteworthy"
         id="path585" /><path
         d="m 97.304043,21.120978 q 0,0.423332 -0.330729,0.423332 -0.132291,0 -0.277811,-0.05292 0,0.674685 0.330728,1.50812 -0.01323,0.171978 -0.171979,0.277811 -0.14552,0.105833 -0.330728,0.105833 -0.158749,0 -0.357186,-0.0926 -0.105833,-0.211666 -0.105833,-0.661456 0,-0.119062 0.01323,-0.436561 0,-0.317499 0,-0.436561 0,-0.238124 -0.03969,-0.317499 -0.119062,-0.01323 -0.343958,0.01323 -0.211666,0.02646 -0.304269,0.02646 -0.568853,0 -1.785932,0.15875 -1.389058,0.185208 -1.600724,0.370415 -0.119062,0.0926 -0.251354,0.952497 -0.105833,0.701144 -0.119062,1.031872 -0.06615,0.0926 -0.185208,0.0926 -0.171978,0 -0.383644,-0.171979 -0.211666,-0.171978 -0.211666,-0.330728 0,-0.07937 0.105833,-0.357186 0.105833,-0.277812 0.119062,-0.343957 0.224895,-1.468433 0.859893,-3.241136 1.746244,-4.960922 2.698741,-4.960922 1.018643,0 1.574266,2.592909 0.198437,0.912809 0.46302,3.492489 0.07937,0.06615 0.396873,0.14552 0.238125,0.05292 0.238125,0.211666 z m -1.283225,-0.383645 q -0.330729,-2.328325 -0.423332,-2.817803 -0.436562,-2.222493 -0.926039,-2.209264 -0.542394,0.02646 -1.3626,2.037285 -0.463019,1.269996 -0.91281,2.539992 -0.07937,0.171979 -0.171978,0.515936 -0.05292,0.317499 0.185208,0.317499 0.07937,0 0.806976,-0.132291 0.568852,-0.105833 2.804575,-0.251354 z"
         style="font-family:Noteworthy;-inkscape-font-specification:Noteworthy"
         id="path587" /><path
         d="m 103.77306,23.330242 q -1.21708,0.463019 -2.75166,0.463019 -1.137702,0 -1.561034,-0.886351 -0.30427,-0.621769 -0.30427,-1.904994 0,-0.820206 0.119062,-2.447388 0.132292,-1.627182 0.132292,-2.434159 0,-0.171979 -0.02646,-0.502707 -0.02646,-0.330728 -0.02646,-0.502707 0,-0.132291 0.01323,-0.277811 0.145521,-0.171979 0.396874,-0.171979 0.463024,0 0.463024,1.084788 0,0.939268 -0.17198,2.817804 -0.171982,1.878536 -0.171982,2.817804 0,1.785931 1.190622,1.785931 0.39687,0 1.11125,-0.224895 0.7276,-0.224895 1.12447,-0.224895 0.21167,0 0.33073,0.198437 0.13229,0.185208 0.13229,0.410103 z"
         style="font-family:Noteworthy;-inkscape-font-specification:Noteworthy"
         id="path589" /><path
         d="m 106.7893,15.141414 q 0,0.01323 -0.11906,0.224895 -0.0529,0.105833 -0.10583,0.701143 -0.29104,2.711971 -0.29104,5.013839 0,1.891764 0.39687,2.473846 -0.25135,0.171979 -0.39687,0.171979 -0.56886,0 -0.68792,-0.926039 -0.10583,-0.820206 -0.10583,-1.164163 l 0.0926,-6.270605 q 0,-0.185208 0.25135,-0.396874 0.25136,-0.211666 0.43657,-0.211666 0.11906,0 0.31749,0.145521 0.21167,0.132291 0.21167,0.238124 z"
         style="font-family:Noteworthy;-inkscape-font-specification:Noteworthy"
         id="path591" /><path
         d="m 114.75322,14.731311 q 0.0132,0.119062 -0.11906,0.171979 -0.13229,0.05292 -0.25135,0.105832 -0.18521,0.105833 -0.33073,1.190622 -0.11906,0.859893 -0.11906,1.375829 l -0.0397,4.008424 q -0.0132,0.529165 -0.2249,1.150934 -0.27781,0.793748 -0.70114,0.793748 -0.64823,0 -1.20385,-1.203851 -0.2249,-0.476248 -0.635,-1.799161 -0.39687,-1.336141 -1.19062,-3.995195 -0.14552,0.02646 -0.15875,0.264582 -0.0265,0.357187 -0.21167,1.852078 -0.14552,1.137704 -0.14552,1.852077 0,2.129889 0.26459,2.460617 0.14552,0.211666 0.14552,0.238125 0,0.14552 -0.19844,0.277811 -0.18521,0.132291 -0.33073,0.132291 -0.52916,0 -0.52916,-1.733015 0,-0.238124 -0.0265,-0.674685 -0.0265,-0.436561 -0.0265,-0.674686 0,-0.568852 0.17198,-1.733015 0.17198,-1.177392 0.17198,-1.759473 v -1.706558 q 0,-0.02646 -0.0265,-0.07937 -0.0132,-0.06615 -0.0132,-0.0926 0,-0.343957 0.67469,-0.343957 0.55562,0 0.76728,0.343957 0.0529,0.0926 0.10584,0.582081 0.0397,0.317499 0.0794,0.648227 0.17198,1.05833 0.9525,3.47926 0.91281,2.804575 1.32291,2.804575 0.35719,0 0.34396,-1.415517 l -0.0397,-3.968737 q 0,-0.701144 0.25136,-1.561037 0.33072,-1.124475 0.85989,-1.124475 0.19843,0 0.4101,0.132291 z"
         style="font-family:Noteworthy;-inkscape-font-specification:Noteworthy"
         id="path593" /><path
         d="m 122.14829,18.078279 q 0,2.010827 -0.88635,3.770301 -1.09802,2.143118 -2.91041,2.143118 -0.66146,0 -1.24354,-0.463019 -0.22489,0.29104 -0.29104,0.29104 -0.14552,0 -0.29104,-0.0926 -0.18521,-0.515936 -0.18521,-1.984369 0,-1.111247 0.0397,-3.294052 0.0397,-2.196035 0.0397,-3.32051 0,-0.02646 -0.0132,-0.0926 -0.0132,-0.07938 -0.0132,-0.119062 0,-0.291041 0.3175,-0.291041 0.15875,0 0.34396,0.132291 0.1852,0.119062 0.1852,0.264583 0,0.158749 -0.0926,0.396873 -0.0794,0.224895 -0.0794,0.370416 0,0.476248 0,0.515936 0.15875,-0.0926 0.46302,-0.648227 0.30427,-0.555624 0.62177,-0.820206 0.48948,-0.423332 1.25677,-0.423332 1.42874,0 2.14312,1.177392 0.59531,0.965726 0.59531,2.487075 z m -0.78052,-0.06614 q 0,-1.203851 -0.34396,-1.997598 -0.46302,-1.111246 -1.50812,-1.111246 -0.74083,0 -1.46843,0.912809 -0.59531,0.75406 -0.83344,1.600724 -0.21166,0.767289 -0.21166,1.640412 v 2.738428 q 0,0.621769 0.33073,1.071559 0.37041,0.502707 0.97895,0.502707 1.05833,0 1.89177,-1.111246 0.70114,-0.91281 0.95249,-2.090202 0.21167,-1.045101 0.21167,-2.156347 z"
         style="font-family:Noteworthy;-inkscape-font-specification:Noteworthy"
         id="path595" /></g><path
       style="vector-effect:non-scaling-stroke;fill:none;stroke:#0000ff;stroke-width:0.264583;stroke-dasharray:none;stroke-opacity:1;-inkscape-stroke:hairline"
       d="m 41.243912,83.732598 c -0.07357,0.146181 -0.179317,0.209434 -0.382436,0.229222 -0.384617,0.03677 -0.674824,-0.05905 -2.583841,-0.853141 -0.911049,-0.378991 -3.227955,-1.318299 -5.148679,-2.08737 l -3.492227,-1.398311 -0.871118,0.196717 c -1.655923,0.373952 -2.714415,0.787303 -3.82891,1.495252 -1.527353,0.970193 -2.821862,2.080412 -3.384634,2.90278 -0.450976,0.658984 -0.584804,0.755771 -1.02218,0.739231 -1.547991,-0.05856 -2.430469,-1.830114 -3.668781,-7.365047 -0.390048,-1.743444 -0.565242,-2.212466 -0.871763,-2.333958 -0.118365,-0.0469 -0.68419,-0.195818 -1.257371,-0.330893 -0.987576,-0.232729 -1.44244,-0.420601 -1.663651,-0.687148 -0.167564,-0.201924 -0.243259,-0.705858 -0.155447,-1.035236 0.172579,-0.647344 0.845592,-0.774247 2.216865,-0.41796 0.433058,0.112517 0.795015,0.194335 0.804354,0.181804 0.0093,-0.01256 -0.121224,-1.040874 -0.290142,-2.285237 -0.687633,-5.065569 -1.122287,-9.219362 -1.122279,-10.725322 0,-0.985867 0.0648,-1.182001 0.5239,-1.585074 0.513005,-0.450427 1.217252,-0.306269 1.53849,0.314929 0.163854,0.316848 0.277732,1.499051 0.279863,2.905179 0.0032,2.093526 0.268936,5.423557 0.651313,8.161065 0.253959,1.818166 0.639324,3.826545 0.747071,3.893556 0.05362,0.03337 0.624728,0.239995 1.269124,0.459222 0.644395,0.219242 2.807889,0.980334 4.807755,1.691336 1.999866,0.710994 3.89064,1.367604 4.201737,1.459134 0.793282,0.23341 1.904975,0.415433 2.535663,0.41519 l 0.534828,-2.35e-4 -0.484815,-0.292053 c -1.994295,-1.201368 -3.979961,-3.70004 -4.615657,-5.80813 -0.09539,-0.31637 -0.147145,-0.751526 -0.148935,-1.252446 -0.0024,-0.641326 0.02786,-0.829683 0.183068,-1.144846 0.601368,-1.220774 2.318479,-1.697395 3.062454,-0.850054 l 0.231447,0.263663 0.267083,-0.155974 c 0.246361,-0.14392 0.286884,-0.146423 0.52259,-0.03264 0.140531,0.06788 0.70596,0.474683 1.256502,0.904105 1.267945,0.988961 1.347277,1.02917 1.971783,0.999337 l 0.501737,-0.02398 0.02437,-0.377832 c 0.02815,-0.436388 -0.22383,-0.999994 -0.896845,-2.00581 -1.426309,-2.131637 -3.048096,-3.672467 -5.222871,-4.962182 -1.949775,-1.156283 -8.633871,-4.744764 -12.004451,-6.4448 -1.244363,-0.627628 -2.472242,-1.283072 -2.728623,-1.456548 -0.725403,-0.49081 -1.065255,-1.121722 -0.864845,-1.605525 0.205238,-0.495476 0.799989,-0.60056 1.746717,-0.308628 0.770779,0.23767 0.91061,0.314173 4.612601,2.523604 3.294481,1.966209 5.753374,3.374842 7.576902,4.340589 0.799997,0.423679 0.945343,0.478751 0.830785,0.314774 -0.576923,-0.825754 -1.153521,-2.028735 -1.28415,-2.679164 -0.108386,-0.539725 -0.01239,-0.944652 0.35346,-1.490564 0.678804,-1.012941 1.805741,-1.075333 4.139954,-0.229211 0.564789,0.204726 1.043625,0.355492 1.064081,0.335035 0.05402,-0.05402 -0.825621,-2.246031 -1.202176,-2.995746 -0.664064,-1.32215 -0.699788,-1.3493 -2.891916,-2.197881 -3.474171,-1.344861 -8.61243,-4.122688 -12.247403,-6.621142 -3.719665,-2.556662 -5.248557,-4.37047 -4.375393,-5.190764 0.32528,-0.305583 0.735189,-0.420813 1.497188,-0.420795 1.279849,4e-6 2.608581,0.444978 5.308092,1.777618 4.639486,2.290338 8.348508,5.046448 10.680069,7.9362 0.53575,0.664021 0.83387,0.967302 0.983372,1.000422 0.422028,0.09349 0.517755,0.13203 0.794549,0.31987 0.367239,0.249212 0.970056,0.470943 1.942793,0.714604 1.594856,0.399497 2.29536,0.355877 2.827292,-0.176052 0.275702,-0.275702 0.284317,-0.302332 0.24348,-0.752685 -0.135562,-1.495019 -1.94169,-3.782885 -6.307349,-7.989684 -1.04648,-1.008407 -1.548437,-1.651228 -1.90717,-2.442392 -0.583993,-1.287964 -0.639478,-2.939897 -0.124877,-3.71752 0.544498,-0.822785 2.007236,-0.924888 3.118727,-0.217696 0.857015,0.545279 1.706908,1.656058 2.188664,2.860498 0.240313,0.600805 0.257701,0.709138 0.246463,1.535248 -0.0067,0.488856 -0.06264,1.117559 -0.124409,1.397121 -0.06177,0.279562 -0.08267,0.526609 -0.04645,0.548997 0.03623,0.02239 0.239442,0.05942 0.451598,0.08228 1.361802,0.146776 1.691251,-1.42463 0.819379,-3.9083 -0.648944,-1.848624 -2.105907,-4.247544 -3.46618,-5.70713 -0.541713,-0.581266 -0.724781,-0.907447 -0.724781,-1.291374 0,-0.516824 0.649803,-0.788921 1.195848,-0.500743 0.859121,0.453406 2.928292,3.280353 4.11488,5.62183 0.872255,1.721219 1.121366,2.826975 1.053966,4.678331 -0.04165,1.144046 -0.195554,1.681009 -0.634248,2.212873 -0.288234,0.349453 -0.877846,0.67578 -1.360433,0.752945 -0.181437,0.02902 -0.329885,0.07006 -0.329884,0.0912 -4e-6,0.02117 0.284168,0.37102 0.631485,0.777497 2.068537,2.420852 3.034519,4.369244 2.896897,5.843044 -0.164339,1.759858 -1.48787,2.545609 -3.896568,2.313313 -0.486339,-0.04691 -0.89359,-0.07728 -0.904997,-0.0675 -0.01142,0.0098 0.142577,0.391211 0.34219,0.847629 0.199612,0.456417 0.567421,1.416714 0.817349,2.133994 0.249926,0.717277 0.52824,1.449587 0.618471,1.627353 0.09023,0.177766 0.700246,0.870197 1.355585,1.538736 1.706795,1.741168 2.35056,2.798072 2.364773,3.88237 0.01072,0.818522 -0.4403,1.349258 -1.236375,1.454858 -0.370978,0.04925 -0.387251,0.06253 -0.434007,0.354925 -0.08704,0.544288 -0.827145,1.141541 -1.559774,1.258692 l -0.327971,0.05249 0.594335,0.879409 c 1.299964,1.923571 1.798252,3.477993 1.481055,4.620214 -0.116188,0.41839 -0.469131,0.795874 -0.958388,1.025023 -0.225719,0.105721 -0.410398,0.223277 -0.410396,0.261225 -3.3e-5,0.03799 0.126421,0.320055 0.280931,0.626875 0.40582,0.805772 0.612537,1.612249 0.664681,2.592721 0.05561,1.045548 -0.08425,1.625395 -0.504141,2.090173 l -0.279294,0.309144 0.504727,0.183004 c 0.277604,0.100658 0.972601,0.416947 1.544435,0.702869 2.726403,1.36323 3.950703,2.484432 4.244087,3.886704 0.113021,0.540197 0.111178,0.655395 -0.01445,0.905054 z M 35.554609,61.223055 c -0.207177,-0.239962 -0.71408,-0.422115 -0.73142,-0.404773 -0.124075,0.124076 0.838778,1.58244 1.054983,1.58244 0.110288,0 0.09628,-0.691351 -0.323563,-1.177667 z m -1.549022,13.692693 c -0.543329,-1.579225 -1.545337,-2.818679 -2.830563,-3.501185 -0.718731,-0.381688 -1.228563,-0.786834 -1.470287,-1.16836 -0.121705,-0.192172 -0.127267,-0.192893 -0.48197,-0.06577 -0.197357,0.07071 -0.497089,0.151122 -0.666079,0.178629 -0.168991,0.02754 -0.326892,0.101202 -0.3509,0.163766 -0.101372,0.264174 0.519939,1.684784 1.130168,2.584087 1.0737,1.582343 3.112759,3.103466 4.16778,3.109128 0.655389,0.0032 0.81138,-0.400642 0.50185,-1.300293 z M 32.935927,60.461582 32.479562,59.128468 31.650767,58.66808 c -1.079907,-0.599869 -2.749813,-1.284447 -3.178433,-1.303001 -0.327799,-0.01416 -0.334967,-0.0089 -0.308083,0.227883 0.01515,0.133325 0.135505,0.503108 0.267454,0.82174 0.743385,1.7951 2.778955,3.673595 4.766996,4.399136 0.351587,0.128313 0.691241,0.233305 0.754785,0.233305 0.081,0 0.01441,-0.187151 -0.222833,-0.626227 -0.186125,-0.344404 -0.543729,-1.226122 -0.794728,-1.959334 z m -2.47792,-21.851851 c -0.171822,-0.490588 -0.75048,-1.139766 -1.406393,-1.577762 -0.268888,-0.179561 -0.521114,-0.326473 -0.560488,-0.326473 -0.215298,0 0.01571,1.176247 0.375451,1.911472 0.235484,0.481323 1.024353,1.572914 1.357296,1.878152 0.24293,0.22272 0.262411,0.199537 0.376784,-0.44843 0.08447,-0.478558 0.04153,-0.911062 -0.14265,-1.436959 z m -6.809304,38.941198 c -3.06589,-1.029996 -4.922289,-1.605501 -4.983014,-1.544783 -0.09533,0.09532 0.957063,3.86178 1.402191,5.018387 0.154224,0.400602 0.333023,0.799203 0.397418,0.885743 0.115733,0.155577 0.121055,0.155407 0.46592,-0.01215 0.191865,-0.09321 0.711277,-0.403914 1.154266,-0.690468 1.12296,-0.726384 2.310477,-1.402434 3.575146,-2.035311 0.593568,-0.297036 1.064696,-0.554583 1.046949,-0.57233 -0.01774,-0.01774 -1.394237,-0.489832 -3.058884,-1.04908 z m 0.06844,-31.312479 c -2.3565,-1.782884 -5.138745,-3.439387 -7.377585,-4.392515 -1.082581,-0.460877 -2.626085,-1.040278 -2.626085,-0.985778 -2.4e-5,0.0688 1.493154,1.131648 2.706882,1.926798 2.329066,1.525826 4.715602,2.900959 7.678274,4.424243 l 1.61403,0.829871 -0.52522,-0.543803 C 24.898574,47.198179 24.23695,46.631708 23.717148,46.23845 Z"
       id="path1142"
       sodipodi:nodetypes="sssscsssssssssssssssssssssccsscsscsssccsssssssssssssssssssssssssssssssssssssssssssssssssssssssscssssssscssssssssssssssssssscsssssssssssssssssssssssssssssscss" /><g
       aria-label="17"
       id="text921"
       style="font-size:69.0901px;line-height:1.25;letter-spacing:-7.9375px;vector-effect:non-scaling-stroke;fill:none;stroke:#ff0000;stroke-width:0.264583;stroke-dasharray:none;-inkscape-stroke:hairline"><path
         d="m 68.626179,35.23576 h 1.61772 v 41.993302 q 0,1.011075 0.80886,1.61772 0.876264,0.539239 2.224364,0.539239 h 6.538283 v 2.56139 H 55.617019 v -2.56139 h 5.594613 q 3.437654,0 3.437654,-2.965819 v -31.81515 q 0,-1.011074 -0.80886,-1.685124 -0.80886,-0.67405 -2.022149,-0.67405 h -7.481953 v -2.291769 q 4.785753,-0.53924 7.751573,-1.48291 3.639868,-1.145884 6.538282,-3.235439 z"
         style="font-family:AppleMyungjo;-inkscape-font-specification:AppleMyungjo;baseline-shift:baseline;vector-effect:non-scaling-stroke;stroke:#ff0000;stroke-width:0.264583;stroke-dasharray:none;stroke-opacity:1;-inkscape-stroke:hairline"
         id="path1477" /><path
         d="m 88.661639,50.334476 2.359174,-16.042385 q 3.639869,0.943669 7.212333,0.943669 h 20.962944 v 1.48291 q -3.37024,5.864233 -5.19018,9.773722 -2.89841,6.133853 -4.51613,11.998086 -1.61772,5.864233 -2.42658,18.064534 -0.40443,6.336068 -4.0443,6.336068 -3.63987,0 -3.63987,-4.920563 0,-3.774679 2.49398,-10.852202 2.89842,-8.223407 8.22341,-17.997129 l 4.65095,-8.627837 H 96.413211 q -2.359174,0 -3.370249,2.089554 -0.741454,1.48291 -2.022149,7.751573 z"
         style="font-family:AppleMyungjo;-inkscape-font-specification:AppleMyungjo;baseline-shift:baseline;vector-effect:non-scaling-stroke;stroke:#ff0000;stroke-width:0.264583;stroke-dasharray:none;stroke-opacity:1;-inkscape-stroke:hairline"
         id="path1479" /></g><path
       id="path6515"
       style="font-size:70.0411px;line-height:1.25;letter-spacing:-7.9375px;fill:none;stroke:#ff0000;stroke-width:0.264583;stroke-dasharray:none;stroke-opacity:1;stop-color:#000000"
       d="m 137.38655,12.895595 c -1.591,0 -2.87218,1.28066 -2.87218,2.87166 v 9.25628 c 0,1.591 1.28118,2.87217 2.87218,2.87217 h 14.25598 c 1.591,0 2.87217,-1.28117 2.87217,-2.87217 v -9.25628 c 0,-1.591 -1.28117,-2.87166 -2.87217,-2.87166 h -5.37797 v 6.72 h -3.50005 v -6.72 z" /><path
       style="font-size:70.0411px;line-height:1.25;letter-spacing:-7.9375px;fill:none;stroke:#ff0000;stroke-width:0.264583;stroke-dasharray:none;stroke-opacity:1"
       d="m 167.96252,41.604811 c -0.14619,-0.0736 -0.20944,-0.17932 -0.22923,-0.38243 -0.0368,-0.38462 0.0591,-0.67483 0.85314,-2.583847 0.379,-0.91104 1.3183,-3.22795 2.08737,-5.148662 l 1.39832,-3.49223 -0.19672,-0.87113 c -0.37395,-1.65592 -0.7873,-2.71441 -1.49525,-3.82891 -0.9702,-1.52735 -2.08042,-2.82186 -2.90278,-3.38463 -0.65899,-0.45098 -0.75577,-0.58481 -0.73923,-1.02218 0.0586,-1.54799 1.83011,-2.43047 7.36503,-3.66878 1.74345,-0.39005 2.21247,-0.56525 2.33396,-0.87177 0.0469,-0.11836 0.19582,-0.68419 0.33089,-1.25737 0.23273,-0.98757 0.4206,-1.44244 0.68715,-1.66365 0.20193,-0.16756 0.70586,-0.24326 1.03524,-0.15545 0.64734,0.17258 0.77424,0.8456 0.41796,2.21687 -0.11252,0.43306 -0.19434,0.79501 -0.18181,0.80435 0.0126,0.009 1.04088,-0.12122 2.28524,-0.29014 5.06557,-0.68763 9.21936,-1.12229 10.72532,-1.12228 0.98587,0 1.182,0.0648 1.58508,0.5239 0.45042,0.51301 0.30627,1.21725 -0.31493,1.53849 -0.31685,0.16386 -1.49905,0.27773 -2.90518,0.27986 -2.09353,0.003 -5.42356,0.26894 -8.16107,0.65132 -1.81816,0.25396 -3.82654,0.63932 -3.89355,0.74707 -0.0334,0.0536 -0.24,0.62473 -0.45922,1.26912 -0.21925,0.6444 -0.98034,2.80789 -1.69134,4.80776 -0.71099,1.99986 -1.3676,3.89064 -1.45913,4.20173 -0.23341,0.79329 -0.41544,1.90498 -0.41519,2.53567 l 2.3e-4,0.53483 0.29205,-0.48482 c 1.20137,-1.99429 3.70004,-3.97996 5.80813,-4.61566 0.31637,-0.0954 0.75153,-0.14714 1.25245,-0.14893 0.64133,-0.002 0.82968,0.0279 1.14485,0.18307 1.22077,0.60136 1.69739,2.31848 0.85005,3.06245 l -0.26366,0.23145 0.15597,0.26708 c 0.14392,0.24636 0.14642,0.28688 0.0326,0.52259 -0.0679,0.14053 -0.47468,0.70596 -0.9041,1.2565 -0.98897,1.26795 -1.02917,1.34728 -0.99934,1.97179 l 0.024,0.50173 0.37783,0.0244 c 0.43639,0.0282 0.99999,-0.22383 2.00581,-0.89684 2.13164,-1.42631 3.67247,-3.0481 4.96218,-5.22287 1.15629,-1.94978 4.74477,-8.63387 6.4448,-12.00445 0.62763,-1.24437 1.28307,-2.47225 1.45655,-2.72863 0.49081,-0.7254 1.12172,-1.06525 1.60553,-0.86484 0.49547,0.20524 0.60056,0.79999 0.30862,1.74671 -0.23767,0.77078 -0.31417,0.91061 -2.5236,4.61261 -1.96621,3.29448 -3.37484,5.75337 -4.34059,7.5769 -0.42368,0.79999 -0.47875,0.94534 -0.31477,0.83078 0.82575,-0.57692 2.02873,-1.15352 2.67916,-1.28415 0.53973,-0.10838 0.94465,-0.0124 1.49056,0.35346 1.01295,0.67881 1.07534,1.80574 0.22922,4.13996 -0.20473,0.56479 -0.3555,1.04362 -0.33504,1.06408 0.054,0.054 2.24603,-0.82562 2.99575,-1.20218 1.32215,-0.66406 1.3493,-0.69979 2.19788,-2.89191 1.34486,-3.47418 4.12269,-8.61243 6.62114,-12.24741 2.55666,-3.71966 4.37047,-5.24855 5.19076,-4.37539 0.30559,0.32528 0.42082,0.73519 0.4208,1.49719 -1e-5,1.27985 -0.44498,2.60858 -1.77762,5.30809 -2.29034,4.63949 -5.04645,8.34851 -7.9362,10.68007 -0.66402,0.53575 -0.9673,0.83387 -1.00042,0.98337 -0.0935,0.42203 -0.13203,0.51776 -0.31987,0.79455 -0.24921,0.36724 -0.47094,0.97006 -0.71461,1.94279 -0.39949,1.59486 -0.35587,2.295362 0.17606,2.827292 0.2757,0.27571 0.30233,0.28432 0.75268,0.24348 1.49502,-0.13556 3.78289,-1.941692 7.98969,-6.307332 1.0084,-1.04649 1.65122,-1.54845 2.44239,-1.90718 1.28796,-0.584 2.93989,-0.63948 3.71752,-0.12488 0.82278,0.5445 0.92489,2.00723 0.21769,3.11874 -0.54528,0.85701 -1.65605,1.7069 -2.86049,2.18865 -0.60081,0.24032 -0.70914,0.2577 -1.53525,0.24646 -0.48886,-0.007 -1.11756,-0.0626 -1.39712,-0.12441 -0.27957,-0.0618 -0.52661,-0.0827 -0.549,-0.0464 -0.0224,0.0362 -0.0594,0.23946 -0.0823,0.4516 -0.14678,1.3618 1.42463,1.691252 3.9083,0.81938 1.84862,-0.64893 4.24754,-2.10591 5.70713,-3.46618 0.58127,-0.5417 0.90745,-0.72478 1.29137,-0.72478 0.51683,0 0.78893,0.6498 0.50075,1.19585 -0.45341,0.85912 -3.28036,2.92829 -5.62183,4.114892 -1.72122,0.87224 -2.82698,1.12135 -4.67833,1.05395 -1.14405,-0.0417 -1.68101,-0.19555 -2.21288,-0.63424 -0.34945,-0.28824 -0.67578,-0.877852 -0.75294,-1.360432 -0.029,-0.18144 -0.0701,-0.32988 -0.0912,-0.32988 -0.0212,-2e-5 -0.37102,0.28416 -0.7775,0.63147 -2.42085,2.068542 -4.36924,3.034522 -5.84304,2.896902 -1.75986,-0.16434 -2.54561,-1.48787 -2.31332,-3.896572 0.0469,-0.48634 0.0773,-0.89359 0.0675,-0.90499 -0.01,-0.0114 -0.39121,0.14258 -0.84763,0.34219 -0.45641,0.19961 -1.41671,0.56742 -2.13399,0.81734 -0.71728,0.24993 -1.44959,0.52824 -1.62735,0.61848 -0.17777,0.0902 -0.8702,0.700242 -1.53874,1.355592 -1.74117,1.70679 -2.79807,2.35056 -3.88237,2.36477 -0.81852,0.0107 -1.34926,-0.4403 -1.45486,-1.23637 -0.0493,-0.37098 -0.0625,-0.38725 -0.35492,-0.43401 -0.54429,-0.087 -1.14154,-0.82714 -1.25869,-1.559772 l -0.0525,-0.32797 -0.87941,0.594332 c -1.92357,1.29997 -3.478,1.79825 -4.62022,1.48106 -0.41839,-0.11619 -0.79587,-0.46913 -1.02502,-0.95839 -0.10572,-0.22572 -0.22328,-0.4104 -0.26122,-0.4104 -0.038,-3e-5 -0.32006,0.12642 -0.62688,0.28093 -0.80577,0.40582 -1.61225,0.61254 -2.59272,0.66468 -1.04555,0.0556 -1.6254,-0.0842 -2.09017,-0.50414 l -0.30915,-0.27929 -0.183,0.50473 c -0.10066,0.2776 -0.41695,0.9726 -0.70287,1.54443 -1.36322,2.726397 -2.48442,3.950697 -3.88669,4.244087 -0.5402,0.11302 -0.6554,0.11118 -0.90506,-0.0145 z m 22.50953,-5.689297 c 0.23996,-0.20718 0.42211,-0.71407 0.40477,-0.73142 -0.12407,-0.12408 -1.58244,0.83878 -1.58244,1.05498 0,0.11029 0.69135,0.0963 1.17767,-0.32356 z m -13.69269,-1.549022 c 1.57922,-0.54333 2.81867,-1.54534 3.50118,-2.83057 0.38169,-0.71873 0.78683,-1.22855 1.16836,-1.47028 0.19217,-0.1217 0.19289,-0.12726 0.0658,-0.48197 -0.0707,-0.19736 -0.15112,-0.49709 -0.17863,-0.66607 -0.0275,-0.169 -0.1012,-0.3269 -0.16376,-0.35091 -0.26418,-0.10136 -1.68479,0.51994 -2.58409,1.13018 -1.58234,1.0737 -3.10347,3.11275 -3.10913,4.16777 -0.003,0.65538 0.40064,0.81138 1.30029,0.50185 z m 14.45416,-1.06966 1.33312,-0.45637 0.46038,-0.82879 c 0.59987,-1.07991 1.28445,-2.74982 1.303,-3.17844 0.0142,-0.3278 0.009,-0.33496 -0.22788,-0.30808 -0.13332,0.0151 -0.50311,0.13551 -0.82174,0.26745 -1.7951,0.74339 -3.67359,2.77896 -4.39913,4.767 -0.12832,0.35159 -0.23331,0.69124 -0.23331,0.75479 0,0.081 0.18715,0.0144 0.62623,-0.22284 0.3444,-0.18612 1.22612,-0.54373 1.95933,-0.79473 z m 21.85185,-2.47791 c 0.49059,-0.17183 1.13977,-0.75049 1.57776,-1.40641 0.17957,-0.26888 0.32648,-0.52111 0.32648,-0.56048 0,-0.2153 -1.17625,0.0157 -1.91147,0.37545 -0.48133,0.23548 -1.57292,1.02435 -1.87816,1.35729 -0.22272,0.24293 -0.19953,0.26241 0.44843,0.3768 0.47856,0.0845 0.91107,0.0415 1.43696,-0.14265 z m -38.9412,-6.80932 c 1.03,-3.06589 1.60551,-4.92229 1.54479,-4.98301 -0.0953,-0.0953 -3.86177,0.95706 -5.01838,1.40219 -0.4006,0.15422 -0.7992,0.33302 -0.88574,0.39742 -0.15558,0.11573 -0.15541,0.12105 0.0122,0.46592 0.0932,0.19186 0.40391,0.71127 0.69047,1.15426 0.72638,1.12296 1.40243,2.31048 2.0353,3.57515 0.29703,0.59357 0.55458,1.0647 0.57233,1.04695 0.0177,-0.0177 0.48983,-1.39424 1.04908,-3.05889 z m 31.31248,0.0684 c 1.78289,-2.3565 3.43939,-5.13874 4.39252,-7.37758 0.46088,-1.08258 1.04028,-2.62609 0.98578,-2.62609 -0.0688,-2e-5 -1.13165,1.49316 -1.9268,2.70688 -1.52583,2.32907 -2.90096,4.71561 -4.42424,7.67828 l -0.82988,1.61403 0.54381,-0.52522 c 0.29908,-0.28887 0.86556,-0.95049 1.25881,-1.47029 z"
       id="path6517"
       sodipodi:nodetypes="sssscsssssssssssssssssssssccsscsscsssccsssssssssssssssssssssssssssssssssssssssssssssssssssssssscssssssscssssssssssssssssssscsssssssssssssssssssssssssssssscss" /><path
       id="path6519"
       style="font-size:70.0411px;line-height:1.25;letter-spacing:-7.9375px;fill:none;stroke:#ff0000;stroke-width:0.264583;stroke-dasharray:none;stroke-opacity:1;stop-color:#000000"
       d="m 136.8159,32.012155 c -1.59099,0 -2.87217,1.28066 -2.87217,2.87166 v 9.256282 c 0,1.590997 1.28118,2.872167 2.87217,2.872167 h 14.25598 c 1.591,0 2.87218,-1.28117 2.87218,-2.872167 v -9.256282 c 0,-1.591 -1.28118,-2.87166 -2.87218,-2.87166 h -5.37796 v 6.72 h -3.50005 v -6.72 z" /><path
       id="path6515-5"
       style="font-size:70.0411px;line-height:1.25;letter-spacing:-7.9375px;fill:none;stroke:#ff0000;stroke-width:0.264583;stroke-dasharray:none;stroke-opacity:1;stop-color:#000000"
       d="m 137.02587,52.491481 c -1.591,0 -2.87218,1.28066 -2.87218,2.87166 v 9.25628 c 0,1.591 1.28118,2.87217 2.87218,2.87217 h 14.25598 c 1.591,0 2.87217,-1.28117 2.87217,-2.87217 v -9.25628 c 0,-1.591 -1.28117,-2.87166 -2.87217,-2.87166 h -5.37797 v 6.72 h -3.50005 v -6.72 z" /><path
       style="font-size:70.0411px;line-height:1.25;letter-spacing:-7.9375px;vector-effect:non-scaling-stroke;fill:none;stroke:#ff0000;stroke-width:0.264583;stroke-dasharray:none;stroke-opacity:1;-inkscape-stroke:hairline"
       d="m 163.75914,75.22317 c -0.14619,-0.0736 -0.20944,-0.17932 -0.22923,-0.38243 -0.0368,-0.38462 0.0591,-0.67483 0.85314,-2.583847 0.379,-0.91104 1.3183,-3.22795 2.08737,-5.148662 l 1.39832,-3.49223 -0.19672,-0.87113 c -0.37395,-1.65592 -0.7873,-2.71441 -1.49525,-3.82891 -0.9702,-1.52735 -2.08042,-2.82186 -2.90278,-3.38463 -0.65899,-0.45098 -0.75577,-0.58481 -0.73923,-1.02218 0.0586,-1.54799 1.83011,-2.43047 7.36503,-3.66878 1.74345,-0.39005 2.21247,-0.56525 2.33396,-0.87177 0.0469,-0.11836 0.19582,-0.68419 0.33089,-1.25737 0.23273,-0.98757 0.4206,-1.44244 0.68715,-1.66365 0.20193,-0.16756 0.70586,-0.24326 1.03524,-0.15545 0.64734,0.17258 0.77424,0.8456 0.41796,2.21687 -0.11252,0.43306 -0.19434,0.79501 -0.18181,0.80435 0.0126,0.009 1.04088,-0.12122 2.28524,-0.29014 5.06557,-0.68763 9.21936,-1.12229 10.72532,-1.12228 0.98587,0 1.182,0.0648 1.58508,0.5239 0.45042,0.51301 0.30627,1.21725 -0.31493,1.53849 -0.31685,0.16386 -1.49905,0.27773 -2.90518,0.27986 -2.09353,0.003 -5.42356,0.26894 -8.16107,0.65132 -1.81816,0.25396 -3.82654,0.63932 -3.89355,0.74707 -0.0334,0.0536 -0.24,0.62473 -0.45922,1.26912 -0.21925,0.6444 -0.98034,2.80789 -1.69134,4.80776 -0.71099,1.99986 -1.3676,3.89064 -1.45913,4.20173 -0.23341,0.79329 -0.41544,1.90498 -0.41519,2.53567 l 2.3e-4,0.53483 0.29205,-0.48482 c 1.20137,-1.99429 3.70004,-3.97996 5.80813,-4.61566 0.31637,-0.0954 0.75153,-0.14714 1.25245,-0.14893 0.64133,-0.002 0.82968,0.0279 1.14485,0.18307 1.22077,0.60136 1.69739,2.31848 0.85005,3.06245 l -0.26366,0.23145 0.15597,0.26708 c 0.14392,0.24636 0.14642,0.28688 0.0326,0.52259 -0.0679,0.14053 -0.47468,0.70596 -0.9041,1.2565 -0.98897,1.26795 -1.02917,1.34728 -0.99934,1.97179 l 0.024,0.50173 0.37783,0.0244 c 0.43639,0.0282 0.99999,-0.22383 2.00581,-0.89684 2.13164,-1.42631 3.67247,-3.0481 4.96218,-5.22287 1.15629,-1.94978 4.74477,-8.63387 6.4448,-12.00445 0.62763,-1.24437 1.28307,-2.47225 1.45655,-2.72863 0.49081,-0.7254 1.12172,-1.06525 1.60553,-0.86484 0.49547,0.20524 0.60056,0.79999 0.30862,1.74671 -0.23767,0.77078 -0.31417,0.91061 -2.5236,4.61261 -1.96621,3.29448 -3.37484,5.75337 -4.34059,7.5769 -0.42368,0.79999 -0.47875,0.94534 -0.31477,0.83078 0.82575,-0.57692 2.02873,-1.15352 2.67916,-1.28415 0.53973,-0.10838 0.94465,-0.0124 1.49056,0.35346 1.01295,0.67881 1.07534,1.80574 0.22922,4.13996 -0.20473,0.56479 -0.3555,1.04362 -0.33504,1.06408 0.054,0.054 2.24603,-0.82562 2.99575,-1.20218 1.32215,-0.66406 1.3493,-0.69979 2.19788,-2.89191 1.34486,-3.47418 4.12269,-8.61243 6.62114,-12.24741 2.55666,-3.71966 4.37047,-5.24855 5.19076,-4.37539 0.30559,0.32528 0.42082,0.73519 0.4208,1.49719 -1e-5,1.27985 -0.44498,2.60858 -1.77762,5.30809 -2.29034,4.63949 -5.04645,8.34851 -7.9362,10.68007 -0.66402,0.53575 -0.9673,0.83387 -1.00042,0.98337 -0.0935,0.42203 -0.13203,0.51776 -0.31987,0.79455 -0.24921,0.36724 -0.47094,0.97006 -0.71461,1.94279 -0.39949,1.59486 -0.35587,2.295362 0.17606,2.827292 0.2757,0.27571 0.30233,0.28432 0.75268,0.24348 1.49502,-0.13556 3.78289,-1.941692 7.98969,-6.307332 1.0084,-1.04649 1.65122,-1.54845 2.44239,-1.90718 1.28796,-0.584 2.93989,-0.63948 3.71752,-0.12488 0.82278,0.5445 0.92489,2.00723 0.21769,3.11874 -0.54528,0.85701 -1.65605,1.7069 -2.86049,2.18865 -0.60081,0.24032 -0.70914,0.2577 -1.53525,0.24646 -0.48886,-0.007 -1.11756,-0.0626 -1.39712,-0.12441 -0.27957,-0.0618 -0.52661,-0.0827 -0.549,-0.0464 -0.0224,0.0362 -0.0594,0.23946 -0.0823,0.4516 -0.14678,1.3618 1.42463,1.691252 3.9083,0.81938 1.84862,-0.64893 4.24754,-2.10591 5.70713,-3.46618 0.58127,-0.5417 0.90745,-0.72478 1.29137,-0.72478 0.51683,0 0.78893,0.6498 0.50075,1.19585 -0.45341,0.85912 -3.28036,2.92829 -5.62183,4.114892 -1.72122,0.87224 -2.82698,1.12135 -4.67833,1.05395 -1.14405,-0.0417 -1.68101,-0.19555 -2.21288,-0.63424 -0.34945,-0.28824 -0.67578,-0.877852 -0.75294,-1.360432 -0.029,-0.18144 -0.0701,-0.32988 -0.0912,-0.32988 -0.0212,-2e-5 -0.37102,0.28416 -0.7775,0.63147 -2.42085,2.068542 -4.36924,3.034522 -5.84304,2.896902 -1.75986,-0.16434 -2.54561,-1.48787 -2.31332,-3.896572 0.0469,-0.48634 0.0773,-0.89359 0.0675,-0.90499 -0.01,-0.0114 -0.39121,0.14258 -0.84763,0.34219 -0.45641,0.19961 -1.41671,0.56742 -2.13399,0.81734 -0.71728,0.24993 -1.44959,0.52824 -1.62735,0.61848 -0.17777,0.0902 -0.8702,0.700242 -1.53874,1.355592 -1.74117,1.70679 -2.79807,2.35056 -3.88237,2.36477 -0.81852,0.0107 -1.34926,-0.4403 -1.45486,-1.23637 -0.0493,-0.37098 -0.0625,-0.38725 -0.35492,-0.43401 -0.54429,-0.087 -1.14154,-0.82714 -1.25869,-1.559772 l -0.0525,-0.32797 -0.87941,0.594332 c -1.92357,1.29997 -3.478,1.79825 -4.62022,1.48106 -0.41839,-0.11619 -0.79587,-0.46913 -1.02502,-0.95839 -0.10572,-0.22572 -0.22328,-0.4104 -0.26122,-0.4104 -0.038,-3e-5 -0.32006,0.12642 -0.62688,0.28093 -0.80577,0.40582 -1.61225,0.61254 -2.59272,0.66468 -1.04555,0.0556 -1.6254,-0.0842 -2.09017,-0.50414 l -0.30915,-0.27929 -0.183,0.50473 c -0.10066,0.2776 -0.41695,0.9726 -0.70287,1.54443 -1.36322,2.726397 -2.48442,3.950697 -3.88669,4.244087 -0.5402,0.11302 -0.6554,0.11118 -0.90506,-0.0145 z m 22.50953,-5.689297 c 0.23996,-0.20718 0.42211,-0.71407 0.40477,-0.73142 -0.12407,-0.12408 -1.58244,0.83878 -1.58244,1.05498 0,0.11029 0.69135,0.0963 1.17767,-0.32356 z m -13.69269,-1.549022 c 1.57922,-0.54333 2.81867,-1.54534 3.50118,-2.83057 0.38169,-0.71873 0.78683,-1.22855 1.16836,-1.47028 0.19217,-0.1217 0.19289,-0.12726 0.0658,-0.48197 -0.0707,-0.19736 -0.15112,-0.49709 -0.17863,-0.66607 -0.0275,-0.169 -0.1012,-0.3269 -0.16376,-0.35091 -0.26418,-0.10136 -1.68479,0.51994 -2.58409,1.13018 -1.58234,1.0737 -3.10347,3.11275 -3.10913,4.16777 -0.003,0.65538 0.40064,0.81138 1.30029,0.50185 z m 14.45416,-1.06966 1.33312,-0.45637 0.46038,-0.82879 c 0.59987,-1.07991 1.28445,-2.74982 1.303,-3.17844 0.0142,-0.3278 0.009,-0.33496 -0.22788,-0.30808 -0.13332,0.0151 -0.50311,0.13551 -0.82174,0.26745 -1.7951,0.74339 -3.67359,2.77896 -4.39913,4.767 -0.12832,0.35159 -0.23331,0.69124 -0.23331,0.75479 0,0.081 0.18715,0.0144 0.62623,-0.22284 0.3444,-0.18612 1.22612,-0.54373 1.95933,-0.79473 z m 21.85185,-2.47791 c 0.49059,-0.17183 1.13977,-0.75049 1.57776,-1.40641 0.17957,-0.26888 0.32648,-0.52111 0.32648,-0.56048 0,-0.2153 -1.17625,0.0157 -1.91147,0.37545 -0.48133,0.23548 -1.57292,1.02435 -1.87816,1.35729 -0.22272,0.24293 -0.19953,0.26241 0.44843,0.3768 0.47856,0.0845 0.91107,0.0415 1.43696,-0.14265 z m -38.9412,-6.80932 c 1.03,-3.06589 1.60551,-4.92229 1.54479,-4.98301 -0.0953,-0.0953 -3.86177,0.95706 -5.01838,1.40219 -0.4006,0.15422 -0.7992,0.33302 -0.88574,0.39742 -0.15558,0.11573 -0.15541,0.12105 0.0122,0.46592 0.0932,0.19186 0.40391,0.71127 0.69047,1.15426 0.72638,1.12296 1.40243,2.31048 2.0353,3.57515 0.29703,0.59357 0.55458,1.0647 0.57233,1.04695 0.0177,-0.0177 0.48983,-1.39424 1.04908,-3.05889 z m 31.31248,0.0684 c 1.78289,-2.3565 3.43939,-5.13874 4.39252,-7.37758 0.46088,-1.08258 1.04028,-2.62609 0.98578,-2.62609 -0.0688,-2e-5 -1.13165,1.49316 -1.9268,2.70688 -1.52583,2.32907 -2.90096,4.71561 -4.42424,7.67828 l -0.82988,1.61403 0.54381,-0.52522 c 0.29908,-0.28887 0.86556,-0.95049 1.25881,-1.47029 z"
       id="path6517-5"
       sodipodi:nodetypes="sssscsssssssssssssssssssssccsscsscsssccsssssssssssssssssssssssssssssssssssssssssssssssssssssssscssssssscssssssssssssssssssscsssssssssssssssssssssssssssssscss" /><path
       id="path6519-8"
       style="font-size:70.0411px;line-height:1.25;letter-spacing:-7.9375px;fill:none;stroke:#ff0000;stroke-width:0.264583;stroke-dasharray:none;stroke-opacity:1;stop-color:#000000"
       d="m 136.45522,71.608041 c -1.59099,0 -2.87217,1.28066 -2.87217,2.87166 v 9.256282 c 0,1.590997 1.28118,2.872167 2.87217,2.872167 h 14.25598 c 1.591,0 2.87218,-1.28117 2.87218,-2.872167 v -9.256282 c 0,-1.591 -1.28118,-2.87166 -2.87218,-2.87166 h -5.37796 v 6.72 h -3.50005 v -6.72 z" /><path
       id="path6515-2"
       style="font-size:70.0411px;line-height:1.25;letter-spacing:-7.9375px;fill:none;stroke:#ff0000;stroke-width:0.264583;stroke-dasharray:none;stroke-opacity:1;stop-color:#000000"
       d="m 138.66745,95.188104 c -1.591,0 -2.87218,1.28066 -2.87218,2.87166 v 9.256276 c 0,1.591 1.28118,2.87217 2.87218,2.87217 h 14.25598 c 1.591,0 2.87217,-1.28117 2.87217,-2.87217 v -9.256276 c 0,-1.591 -1.28117,-2.87166 -2.87217,-2.87166 h -5.37797 v 6.719996 h -3.50005 v -6.719996 z" /><path
       style="font-size:70.0411px;line-height:1.25;letter-spacing:-7.9375px;fill:none;stroke:#ff0000;stroke-width:0.264583;stroke-dasharray:none;stroke-opacity:1"
       d="m 163.69286,106.39171 c -0.14619,-0.0736 -0.20944,-0.17932 -0.22923,-0.38243 -0.0368,-0.38462 0.0591,-0.67483 0.85314,-2.58385 0.379,-0.91104 1.3183,-3.22794 2.08737,-5.148665 l 1.39832,-3.49223 -0.19672,-0.87113 c -0.37395,-1.65592 -0.7873,-2.71441 -1.49525,-3.82891 -0.9702,-1.52735 -2.08042,-2.82186 -2.90278,-3.38463 -0.65899,-0.45098 -0.75577,-0.58481 -0.73923,-1.02218 0.0586,-1.54799 1.83011,-2.43047 7.36503,-3.66878 1.74345,-0.39005 2.21247,-0.56525 2.33396,-0.87177 0.0469,-0.11836 0.19582,-0.68419 0.33089,-1.25737 0.23273,-0.98757 0.4206,-1.44244 0.68715,-1.66365 0.20193,-0.16756 0.70586,-0.24326 1.03524,-0.15545 0.64734,0.17258 0.77424,0.8456 0.41796,2.21687 -0.11252,0.43306 -0.19434,0.79501 -0.18181,0.80435 0.0126,0.009 1.04088,-0.12122 2.28524,-0.29014 5.06557,-0.68763 9.21936,-1.12229 10.72532,-1.12228 0.98587,0 1.182,0.0648 1.58508,0.5239 0.45042,0.51301 0.30627,1.21725 -0.31493,1.53849 -0.31685,0.16386 -1.49905,0.27773 -2.90518,0.27986 -2.09353,0.003 -5.42356,0.26894 -8.16107,0.65132 -1.81816,0.25396 -3.82654,0.63932 -3.89355,0.74707 -0.0334,0.0536 -0.24,0.62473 -0.45922,1.26912 -0.21925,0.6444 -0.98034,2.80789 -1.69134,4.80776 -0.71099,1.99986 -1.3676,3.89064 -1.45913,4.20173 -0.23341,0.79329 -0.41544,1.90498 -0.41519,2.53567 l 2.3e-4,0.53483 0.29205,-0.48482 c 1.20137,-1.99429 3.70004,-3.97996 5.80813,-4.61566 0.31637,-0.0954 0.75153,-0.14714 1.25245,-0.14893 0.64133,-0.002 0.82968,0.0279 1.14485,0.18307 1.22077,0.60136 1.69739,2.31848 0.85005,3.06245 l -0.26366,0.23145 0.15597,0.26708 c 0.14392,0.24636 0.14642,0.28688 0.0326,0.52259 -0.0679,0.14053 -0.47468,0.70596 -0.9041,1.2565 -0.98897,1.26795 -1.02917,1.34728 -0.99934,1.97179 l 0.024,0.50173 0.37783,0.0244 c 0.43639,0.0282 0.99999,-0.22383 2.00581,-0.89684 2.13164,-1.42631 3.67247,-3.0481 4.96218,-5.22287 1.15629,-1.94978 4.74477,-8.63387 6.4448,-12.00445 0.62763,-1.24437 1.28307,-2.47225 1.45655,-2.72863 0.49081,-0.7254 1.12172,-1.06525 1.60553,-0.86484 0.49547,0.20524 0.60056,0.79999 0.30862,1.74671 -0.23767,0.77078 -0.31417,0.91061 -2.5236,4.61261 -1.96621,3.29448 -3.37484,5.75337 -4.34059,7.5769 -0.42368,0.79999 -0.47875,0.94534 -0.31477,0.83078 0.82575,-0.57692 2.02873,-1.15352 2.67916,-1.28415 0.53973,-0.10838 0.94465,-0.0124 1.49056,0.35346 1.01295,0.67881 1.07534,1.80574 0.22922,4.13996 -0.20473,0.56479 -0.3555,1.04362 -0.33504,1.06408 0.054,0.054 2.24603,-0.82562 2.99575,-1.20218 1.32215,-0.66406 1.3493,-0.69979 2.19788,-2.89191 1.34486,-3.47418 4.12269,-8.61243 6.62114,-12.24741 2.55666,-3.71966 4.37047,-5.24855 5.19076,-4.37539 0.30559,0.32528 0.42082,0.73519 0.4208,1.49719 -1e-5,1.27985 -0.44498,2.60858 -1.77762,5.30809 -2.29034,4.63949 -5.04645,8.34851 -7.9362,10.68007 -0.66402,0.53575 -0.9673,0.83387 -1.00042,0.98337 -0.0935,0.42203 -0.13203,0.51776 -0.31987,0.79455 -0.24921,0.36724 -0.47094,0.97006 -0.71461,1.94279 -0.39949,1.59486 -0.35587,2.29537 0.17606,2.827305 0.2757,0.27571 0.30233,0.28432 0.75268,0.24348 1.49502,-0.13556 3.78289,-1.941705 7.98969,-6.307345 1.0084,-1.04649 1.65122,-1.54845 2.44239,-1.90718 1.28796,-0.584 2.93989,-0.63948 3.71752,-0.12488 0.82278,0.5445 0.92489,2.00723 0.21769,3.11874 -0.54528,0.85701 -1.65605,1.7069 -2.86049,2.18865 -0.60081,0.24032 -0.70914,0.2577 -1.53525,0.24646 -0.48886,-0.007 -1.11756,-0.0626 -1.39712,-0.12441 -0.27957,-0.0618 -0.52661,-0.0827 -0.549,-0.0464 -0.0224,0.0362 -0.0594,0.23946 -0.0823,0.4516 -0.14678,1.3618 1.42463,1.69126 3.9083,0.81938 1.84862,-0.64893 4.24754,-2.10591 5.70713,-3.46618 0.58127,-0.5417 0.90745,-0.72478 1.29137,-0.72478 0.51683,0 0.78893,0.6498 0.50075,1.19585 -0.45341,0.85912 -3.28036,2.92829 -5.62183,4.1149 -1.72122,0.872245 -2.82698,1.121355 -4.67833,1.053955 -1.14405,-0.0417 -1.68101,-0.19555 -2.21288,-0.63424 -0.34945,-0.288245 -0.67578,-0.877865 -0.75294,-1.360445 -0.029,-0.18144 -0.0701,-0.32988 -0.0912,-0.32988 -0.0212,-2e-5 -0.37102,0.28416 -0.7775,0.63147 -2.42085,2.068555 -4.36924,3.034525 -5.84304,2.896905 -1.75986,-0.16434 -2.54561,-1.48786 -2.31332,-3.896575 0.0469,-0.48634 0.0773,-0.89359 0.0675,-0.90499 -0.01,-0.0114 -0.39121,0.14258 -0.84763,0.34219 -0.45641,0.19961 -1.41671,0.56742 -2.13399,0.81734 -0.71728,0.24993 -1.44959,0.52824 -1.62735,0.61848 -0.17777,0.0902 -0.8702,0.70025 -1.53874,1.355605 -1.74117,1.70678 -2.79807,2.35055 -3.88237,2.36476 -0.81852,0.0107 -1.34926,-0.4403 -1.45486,-1.23637 -0.0493,-0.37097 -0.0625,-0.38724 -0.35492,-0.434 -0.54429,-0.087 -1.14154,-0.82714 -1.25869,-1.559785 l -0.0525,-0.32797 -0.87941,0.59434 c -1.92357,1.299975 -3.478,1.798245 -4.62022,1.481055 -0.41839,-0.11618 -0.79587,-0.46912 -1.02502,-0.95838 -0.10572,-0.22572 -0.22328,-0.410405 -0.26122,-0.410405 -0.038,-3e-5 -0.32006,0.126425 -0.62688,0.280935 -0.80577,0.40582 -1.61225,0.61254 -2.59272,0.66468 -1.04555,0.0556 -1.6254,-0.0842 -2.09017,-0.50414 l -0.30915,-0.27929 -0.183,0.50473 c -0.10066,0.2776 -0.41695,0.97259 -0.70287,1.54442 -1.36322,2.7264 -2.48442,3.9507 -3.88669,4.24409 -0.5402,0.11302 -0.6554,0.11118 -0.90506,-0.0145 z m 22.50953,-5.68929 c 0.23996,-0.20718 0.42211,-0.714075 0.40477,-0.731425 -0.12407,-0.12408 -1.58244,0.838785 -1.58244,1.054985 0,0.11029 0.69135,0.0963 1.17767,-0.32356 z M 172.5097,99.153385 c 1.57922,-0.54333 2.81867,-1.54534 3.50118,-2.83057 0.38169,-0.71873 0.78683,-1.22855 1.16836,-1.47028 0.19217,-0.1217 0.19289,-0.12726 0.0658,-0.48197 -0.0707,-0.19736 -0.15112,-0.49709 -0.17863,-0.66607 -0.0275,-0.169 -0.1012,-0.3269 -0.16376,-0.35091 -0.26418,-0.10136 -1.68479,0.51994 -2.58409,1.13018 -1.58234,1.0737 -3.10347,3.11275 -3.10913,4.16777 -0.003,0.65538 0.40064,0.81138 1.30029,0.50185 z m 14.45416,-1.06966 1.33312,-0.45637 0.46038,-0.82879 c 0.59987,-1.07991 1.28445,-2.74982 1.303,-3.17844 0.0142,-0.3278 0.009,-0.33496 -0.22788,-0.30808 -0.13332,0.0151 -0.50311,0.13551 -0.82174,0.26745 -1.7951,0.74339 -3.67359,2.77896 -4.39913,4.767 -0.12832,0.35159 -0.23331,0.69124 -0.23331,0.75479 0,0.081 0.18715,0.0144 0.62623,-0.22284 0.3444,-0.18612 1.22612,-0.54373 1.95933,-0.79473 z m 21.85185,-2.47791 c 0.49059,-0.17183 1.13977,-0.75049 1.57776,-1.40641 0.17957,-0.26888 0.32648,-0.52111 0.32648,-0.56048 0,-0.2153 -1.17625,0.0157 -1.91147,0.37545 -0.48133,0.23548 -1.57292,1.02435 -1.87816,1.35729 -0.22272,0.24293 -0.19953,0.26241 0.44843,0.3768 0.47856,0.0845 0.91107,0.0415 1.43696,-0.14265 z m -38.9412,-6.80932 c 1.03,-3.06589 1.60551,-4.92229 1.54479,-4.98301 -0.0953,-0.0953 -3.86177,0.95706 -5.01838,1.40219 -0.4006,0.15422 -0.7992,0.33302 -0.88574,0.39742 -0.15558,0.11573 -0.15541,0.12105 0.0122,0.46592 0.0932,0.19186 0.40391,0.71127 0.69047,1.15426 0.72638,1.12296 1.40243,2.31048 2.0353,3.57515 0.29703,0.59357 0.55458,1.0647 0.57233,1.04695 0.0177,-0.0177 0.48983,-1.39424 1.04908,-3.05889 z m 31.31248,0.0684 c 1.78289,-2.3565 3.43939,-5.13874 4.39252,-7.37758 0.46088,-1.08258 1.04028,-2.62609 0.98578,-2.62609 -0.0688,-2e-5 -1.13165,1.49316 -1.9268,2.70688 -1.52583,2.32907 -2.90096,4.71561 -4.42424,7.67828 l -0.82988,1.61403 0.54381,-0.52522 c 0.29908,-0.28887 0.86556,-0.95049 1.25881,-1.47029 z"
       id="path6517-9"
       sodipodi:nodetypes="sssscsssssssssssssssssssssccsscsscsssccsssssssssssssssssssssssssssssssssssssssssssssssssssssssscssssssscssssssssssssssssssscsssssssssssssssssssssssssssssscss" /><path
       id="path6519-82"
       style="font-size:70.0411px;line-height:1.25;letter-spacing:-7.9375px;fill:none;stroke:#ff0000;stroke-width:0.264583;stroke-dasharray:none;stroke-opacity:1;stop-color:#000000"
       d="m 137.66983,117.29343 c -1.59099,0 -2.87217,1.28066 -2.87217,2.87166 v 9.25628 c 0,1.591 1.28118,2.87217 2.87217,2.87217 h 14.25598 c 1.591,0 2.87218,-1.28117 2.87218,-2.87217 v -9.25628 c 0,-1.591 -1.28118,-2.87166 -2.87218,-2.87166 h -5.37796 v 6.72 h -3.50005 v -6.72 z" /><path
       id="path6515-0"
       style="font-size:70.0411px;line-height:1.25;letter-spacing:-7.9375px;fill:none;stroke:#ff0000;stroke-width:0.264583;stroke-dasharray:none;stroke-opacity:1;stop-color:#000000"
       d="m 16.194417,93.907213 c -1.591,0 -2.87218,1.28066 -2.87218,2.87166 v 9.256277 c 0,1.591 1.28118,2.87217 2.87218,2.87217 h 14.25598 c 1.591,0 2.87217,-1.28117 2.87217,-2.87217 v -9.256277 c 0,-1.591 -1.28117,-2.87166 -2.87217,-2.87166 h -5.37797 v 6.719997 h -3.50005 v -6.719997 z" /><path
       style="font-size:70.0411px;line-height:1.25;letter-spacing:-7.9375px;vector-effect:non-scaling-stroke;fill:none;stroke:#ff0000;stroke-width:0.264583;stroke-dasharray:none;stroke-opacity:1;-inkscape-stroke:hairline"
       d="m 161.62431,136.96521 c -0.14619,-0.0736 -0.20944,-0.17932 -0.22923,-0.38243 -0.0368,-0.38462 0.0591,-0.67483 0.85314,-2.58385 0.379,-0.91104 1.3183,-3.22795 2.08737,-5.14866 l 1.39832,-3.49223 -0.19672,-0.87113 c -0.37395,-1.65592 -0.7873,-2.71441 -1.49525,-3.82891 -0.9702,-1.52735 -2.08042,-2.82186 -2.90278,-3.38463 -0.65899,-0.45098 -0.75577,-0.58481 -0.73923,-1.02218 0.0586,-1.54799 1.83011,-2.43047 7.36503,-3.66878 1.74345,-0.39005 2.21247,-0.56525 2.33396,-0.87177 0.0469,-0.11836 0.19582,-0.68419 0.33089,-1.25737 0.23273,-0.98757 0.4206,-1.44244 0.68715,-1.66365 0.20193,-0.16756 0.70586,-0.24326 1.03524,-0.15545 0.64734,0.17258 0.77424,0.8456 0.41796,2.21687 -0.11252,0.43306 -0.19434,0.79501 -0.18181,0.80435 0.0126,0.009 1.04088,-0.12122 2.28524,-0.29014 5.06557,-0.68763 9.21936,-1.12229 10.72532,-1.12228 0.98587,0 1.182,0.0648 1.58508,0.5239 0.45042,0.51301 0.30627,1.21725 -0.31493,1.53849 -0.31685,0.16386 -1.49905,0.27773 -2.90518,0.27986 -2.09353,0.003 -5.42356,0.26894 -8.16107,0.65132 -1.81816,0.25396 -3.82654,0.63932 -3.89355,0.74707 -0.0334,0.0536 -0.24,0.62473 -0.45922,1.26912 -0.21925,0.6444 -0.98034,2.80789 -1.69134,4.80776 -0.71099,1.99986 -1.3676,3.89064 -1.45913,4.20173 -0.23341,0.79329 -0.41544,1.90498 -0.41519,2.53567 l 2.3e-4,0.53483 0.29205,-0.48482 c 1.20137,-1.99429 3.70004,-3.97996 5.80813,-4.61566 0.31637,-0.0954 0.75153,-0.14714 1.25245,-0.14893 0.64133,-0.002 0.82968,0.0279 1.14485,0.18307 1.22077,0.60136 1.69739,2.31848 0.85005,3.06245 l -0.26366,0.23145 0.15597,0.26708 c 0.14392,0.24636 0.14642,0.28688 0.0326,0.52259 -0.0679,0.14053 -0.47468,0.70596 -0.9041,1.2565 -0.98897,1.26795 -1.02917,1.34728 -0.99934,1.97179 l 0.024,0.50173 0.37783,0.0244 c 0.43639,0.0282 0.99999,-0.22383 2.00581,-0.89684 2.13164,-1.42631 3.67247,-3.0481 4.96218,-5.22287 1.15629,-1.94978 4.74477,-8.63387 6.4448,-12.00445 0.62763,-1.24437 1.28307,-2.47225 1.45655,-2.72863 0.49081,-0.7254 1.12172,-1.06525 1.60553,-0.86484 0.49547,0.20524 0.60056,0.79999 0.30862,1.74671 -0.23767,0.77078 -0.31417,0.91061 -2.5236,4.61261 -1.96621,3.29448 -3.37484,5.75337 -4.34059,7.5769 -0.42368,0.79999 -0.47875,0.94534 -0.31477,0.83078 0.82575,-0.57692 2.02873,-1.15352 2.67916,-1.28415 0.53973,-0.10838 0.94465,-0.0124 1.49056,0.35346 1.01295,0.67881 1.07534,1.80574 0.22922,4.13996 -0.20473,0.56479 -0.3555,1.04362 -0.33504,1.06408 0.054,0.054 2.24603,-0.82562 2.99575,-1.20218 1.32215,-0.66406 1.3493,-0.69979 2.19788,-2.89191 1.34486,-3.47418 4.12269,-8.61243 6.62114,-12.24741 2.55666,-3.71966 4.37047,-5.24855 5.19076,-4.37539 0.30559,0.32528 0.42082,0.73519 0.4208,1.49719 -1e-5,1.27985 -0.44498,2.60858 -1.77762,5.30809 -2.29034,4.63949 -5.04645,8.34851 -7.9362,10.68007 -0.66402,0.53575 -0.9673,0.83387 -1.00042,0.98337 -0.0935,0.42203 -0.13203,0.51776 -0.31987,0.79455 -0.24921,0.36724 -0.47094,0.97006 -0.71461,1.94279 -0.39949,1.59486 -0.35587,2.29536 0.17606,2.82729 0.2757,0.27571 0.30233,0.28432 0.75268,0.24348 1.49502,-0.13556 3.78289,-1.94169 7.98969,-6.30733 1.0084,-1.04649 1.65122,-1.54845 2.44239,-1.90718 1.28796,-0.584 2.93989,-0.63948 3.71752,-0.12488 0.82278,0.5445 0.92489,2.00723 0.21769,3.11874 -0.54528,0.85701 -1.65605,1.7069 -2.86049,2.18865 -0.60081,0.24032 -0.70914,0.2577 -1.53525,0.24646 -0.48886,-0.007 -1.11756,-0.0626 -1.39712,-0.12441 -0.27957,-0.0618 -0.52661,-0.0827 -0.549,-0.0464 -0.0224,0.0362 -0.0594,0.23946 -0.0823,0.4516 -0.14678,1.3618 1.42463,1.69125 3.9083,0.81938 1.84862,-0.64893 4.24754,-2.10591 5.70713,-3.46618 0.58127,-0.5417 0.90745,-0.72478 1.29137,-0.72478 0.51683,0 0.78893,0.6498 0.50075,1.19585 -0.45341,0.85912 -3.28036,2.92829 -5.62183,4.11489 -1.72122,0.87224 -2.82698,1.12135 -4.67833,1.05395 -1.14405,-0.0417 -1.68101,-0.19555 -2.21288,-0.63424 -0.34945,-0.28824 -0.67578,-0.87785 -0.75294,-1.36043 -0.029,-0.18144 -0.0701,-0.32988 -0.0912,-0.32988 -0.0212,-2e-5 -0.37102,0.28416 -0.7775,0.63147 -2.42085,2.06854 -4.36924,3.03452 -5.84304,2.8969 -1.75986,-0.16434 -2.54561,-1.48787 -2.31332,-3.89657 0.0469,-0.48634 0.0773,-0.89359 0.0675,-0.90499 -0.01,-0.0114 -0.39121,0.14258 -0.84763,0.34219 -0.45641,0.19961 -1.41671,0.56742 -2.13399,0.81734 -0.71728,0.24993 -1.44959,0.52824 -1.62735,0.61848 -0.17777,0.0902 -0.8702,0.70024 -1.53874,1.35559 -1.74117,1.70679 -2.79807,2.35056 -3.88237,2.36477 -0.81852,0.0107 -1.34926,-0.4403 -1.45486,-1.23637 -0.0493,-0.37098 -0.0625,-0.38725 -0.35492,-0.43401 -0.54429,-0.087 -1.14154,-0.82714 -1.25869,-1.55977 l -0.0525,-0.32797 -0.87941,0.59433 c -1.92357,1.29997 -3.478,1.79825 -4.62022,1.48106 -0.41839,-0.11619 -0.79587,-0.46913 -1.02502,-0.95839 -0.10572,-0.22572 -0.22328,-0.4104 -0.26122,-0.4104 -0.038,-3e-5 -0.32006,0.12642 -0.62688,0.28093 -0.80577,0.40582 -1.61225,0.61254 -2.59272,0.66468 -1.04555,0.0556 -1.6254,-0.0842 -2.09017,-0.50414 l -0.30915,-0.27929 -0.183,0.50473 c -0.10066,0.2776 -0.41695,0.9726 -0.70287,1.54443 -1.36322,2.7264 -2.48442,3.9507 -3.88669,4.24409 -0.5402,0.11302 -0.6554,0.11118 -0.90506,-0.0145 z m 22.50953,-5.6893 c 0.23996,-0.20718 0.42211,-0.71407 0.40477,-0.73142 -0.12407,-0.12408 -1.58244,0.83878 -1.58244,1.05498 0,0.11029 0.69135,0.0963 1.17767,-0.32356 z m -13.69269,-1.54902 c 1.57922,-0.54333 2.81867,-1.54534 3.50118,-2.83057 0.38169,-0.71873 0.78683,-1.22855 1.16836,-1.47028 0.19217,-0.1217 0.19289,-0.12726 0.0658,-0.48197 -0.0707,-0.19736 -0.15112,-0.49709 -0.17863,-0.66607 -0.0275,-0.169 -0.1012,-0.3269 -0.16376,-0.35091 -0.26418,-0.10136 -1.68479,0.51994 -2.58409,1.13018 -1.58234,1.0737 -3.10347,3.11275 -3.10913,4.16777 -0.003,0.65538 0.40064,0.81138 1.30029,0.50185 z m 14.45416,-1.06966 1.33312,-0.45637 0.46038,-0.82879 c 0.59987,-1.07991 1.28445,-2.74982 1.303,-3.17844 0.0142,-0.3278 0.009,-0.33496 -0.22788,-0.30808 -0.13332,0.0151 -0.50311,0.13551 -0.82174,0.26745 -1.7951,0.74339 -3.67359,2.77896 -4.39913,4.767 -0.12832,0.35159 -0.23331,0.69124 -0.23331,0.75479 0,0.081 0.18715,0.0144 0.62623,-0.22284 0.3444,-0.18612 1.22612,-0.54373 1.95933,-0.79473 z m 21.85185,-2.47791 c 0.49059,-0.17183 1.13977,-0.75049 1.57776,-1.40641 0.17957,-0.26888 0.32648,-0.52111 0.32648,-0.56048 0,-0.2153 -1.17625,0.0157 -1.91147,0.37545 -0.48133,0.23548 -1.57292,1.02435 -1.87816,1.35729 -0.22272,0.24293 -0.19953,0.26241 0.44843,0.3768 0.47856,0.0845 0.91107,0.0415 1.43696,-0.14265 z M 167.80596,119.37 c 1.03,-3.06589 1.60551,-4.92229 1.54479,-4.98301 -0.0953,-0.0953 -3.86177,0.95706 -5.01838,1.40219 -0.4006,0.15422 -0.7992,0.33302 -0.88574,0.39742 -0.15558,0.11573 -0.15541,0.12105 0.0122,0.46592 0.0932,0.19186 0.40391,0.71127 0.69047,1.15426 0.72638,1.12296 1.40243,2.31048 2.0353,3.57515 0.29703,0.59357 0.55458,1.0647 0.57233,1.04695 0.0177,-0.0177 0.48983,-1.39424 1.04908,-3.05889 z m 31.31248,0.0684 c 1.78289,-2.3565 3.43939,-5.13874 4.39252,-7.37758 0.46088,-1.08258 1.04028,-2.62609 0.98578,-2.62609 -0.0688,-2e-5 -1.13165,1.49316 -1.9268,2.70688 -1.52583,2.32907 -2.90096,4.71561 -4.42424,7.67828 l -0.82988,1.61403 0.54381,-0.52522 c 0.29908,-0.28887 0.86556,-0.95049 1.25881,-1.47029 z"
       id="path6517-7"
       sodipodi:nodetypes="sssscsssssssssssssssssssssccsscsscsssccsssssssssssssssssssssssssssssssssssssssssssssssssssssssscssssssscssssssssssssssssssscsssssssssssssssssssssssssssssscss" /><path
       id="path6519-4"
       style="font-size:70.0411px;line-height:1.25;letter-spacing:-7.9375px;fill:none;stroke:#ff0000;stroke-width:0.264583;stroke-dasharray:none;stroke-opacity:1;stop-color:#000000"
       d="m 42.522641,95.518157 c -1.59099,0 -2.87217,1.28066 -2.87217,2.87166 v 9.256283 c 0,1.591 1.28118,2.87217 2.87217,2.87217 h 14.25598 c 1.591,0 2.87218,-1.28117 2.87218,-2.87217 v -9.256283 c 0,-1.591 -1.28118,-2.87166 -2.87218,-2.87166 h -5.37796 v 6.720003 h -3.50005 v -6.720003 z" /><path
       id="path6515-8"
       style="font-size:70.0411px;line-height:1.25;letter-spacing:-7.9375px;fill:none;stroke:#ff0000;stroke-width:0.264583;stroke-dasharray:none;stroke-opacity:1;stop-color:#000000"
       d="m 16.767239,116.26096 c -1.591,0 -2.87218,1.28066 -2.87218,2.87166 v 9.25628 c 0,1.591 1.28118,2.87217 2.87218,2.87217 h 14.25598 c 1.591,0 2.87217,-1.28117 2.87217,-2.87217 v -9.25628 c 0,-1.591 -1.28117,-2.87166 -2.87217,-2.87166 h -5.37797 v 6.72 h -3.50005 v -6.72 z" /><path
       style="font-size:70.0411px;line-height:1.25;letter-spacing:-7.9375px;fill:none;stroke:#ff0000;stroke-width:0.264583;stroke-dasharray:none;stroke-opacity:1"
       d="m 72.107254,162.90275 c -0.14619,-0.0736 -0.20944,-0.17932 -0.22923,-0.38243 -0.0368,-0.38462 0.0591,-0.67483 0.85314,-2.58384 0.379,-0.91104 1.3183,-3.22795 2.08737,-5.14867 l 1.39832,-3.49223 -0.19672,-0.87113 c -0.37395,-1.65592 -0.7873,-2.71441 -1.49525,-3.82891 -0.9702,-1.52735 -2.08042,-2.82186 -2.90278,-3.38463 -0.65899,-0.45098 -0.75577,-0.58481 -0.73923,-1.02218 0.0586,-1.54799 1.83011,-2.43047 7.36503,-3.66878 1.74345,-0.39005 2.21247,-0.56525 2.33396,-0.87177 0.0469,-0.11836 0.19582,-0.68419 0.33089,-1.25737 0.23273,-0.98757 0.4206,-1.44244 0.68715,-1.66365 0.20193,-0.16755 0.70586,-0.24326 1.03524,-0.15545 0.64734,0.17258 0.77424,0.8456 0.41796,2.21687 -0.11252,0.43306 -0.19434,0.79501 -0.18181,0.80435 0.0126,0.009 1.04088,-0.12122 2.28524,-0.29014 5.06557,-0.68762 9.21936,-1.12229 10.72532,-1.12228 0.98587,0 1.182,0.0648 1.58508,0.5239 0.45042,0.51301 0.30627,1.21725 -0.31493,1.53849 -0.31685,0.16386 -1.49905,0.27773 -2.90518,0.27986 -2.09353,0.003 -5.42356,0.26894 -8.16107,0.65132 -1.81816,0.25396 -3.82654,0.63932 -3.89355,0.74707 -0.0334,0.0536 -0.24,0.62473 -0.45922,1.26912 -0.21925,0.6444 -0.98034,2.80789 -1.69134,4.80776 -0.71099,1.99986 -1.3676,3.89064 -1.45913,4.20173 -0.23341,0.79329 -0.41544,1.90498 -0.41519,2.53567 l 2.3e-4,0.53483 0.29205,-0.48482 c 1.20137,-1.99429 3.70004,-3.97996 5.80813,-4.61566 0.31637,-0.0954 0.75153,-0.14714 1.25245,-0.14893 0.64133,-0.002 0.82968,0.0279 1.14485,0.18307 1.22077,0.60136 1.69739,2.31848 0.85005,3.06245 l -0.26366,0.23145 0.15597,0.26708 c 0.14392,0.24636 0.14642,0.28688 0.0326,0.52259 -0.0679,0.14053 -0.47468,0.70596 -0.9041,1.2565 -0.98897,1.26795 -1.02917,1.34728 -0.99934,1.97179 l 0.024,0.50173 0.37783,0.0244 c 0.43639,0.0282 0.99999,-0.22383 2.00581,-0.89684 2.13164,-1.42631 3.67247,-3.0481 4.96218,-5.22287 1.15629,-1.94978 4.74477,-8.63387 6.4448,-12.00445 0.62763,-1.24437 1.283066,-2.47225 1.456546,-2.72863 0.49081,-0.7254 1.12172,-1.06525 1.60553,-0.86484 0.49547,0.20524 0.60056,0.79999 0.30862,1.74671 -0.23767,0.77078 -0.31417,0.91061 -2.5236,4.61261 -1.966206,3.29448 -3.374836,5.75337 -4.340586,7.5769 -0.42368,0.79999 -0.47875,0.94534 -0.31477,0.83078 0.82575,-0.57692 2.02873,-1.15352 2.67916,-1.28415 0.53973,-0.10838 0.94465,-0.0124 1.49056,0.35346 1.012946,0.67881 1.075336,1.80574 0.22922,4.13996 -0.20473,0.56479 -0.3555,1.04362 -0.33504,1.06408 0.054,0.054 2.246026,-0.82562 2.995746,-1.20218 1.32215,-0.66406 1.3493,-0.69979 2.19788,-2.89191 1.34486,-3.47418 4.12269,-8.61243 6.62114,-12.24741 2.55666,-3.71966 4.37047,-5.24855 5.19076,-4.37539 0.30559,0.32528 0.42082,0.73519 0.4208,1.49719 -1e-5,1.27985 -0.44498,2.60858 -1.77762,5.30809 -2.29034,4.63949 -5.04645,8.34851 -7.9362,10.68007 -0.66402,0.53575 -0.9673,0.83387 -1.00042,0.98337 -0.0935,0.42203 -0.13203,0.51776 -0.31987,0.79455 -0.24921,0.36724 -0.47094,0.97006 -0.71461,1.94279 -0.39949,1.59486 -0.35587,2.29537 0.17606,2.8273 0.2757,0.27571 0.30233,0.28432 0.75268,0.24348 1.49502,-0.13556 3.78289,-1.9417 7.98969,-6.30734 1.0084,-1.04649 1.65122,-1.54845 2.44239,-1.90718 1.28796,-0.584 2.93989,-0.63948 3.71752,-0.12488 0.82278,0.5445 0.92489,2.00723 0.21769,3.11874 -0.54528,0.85701 -1.65605,1.7069 -2.86049,2.18865 -0.60081,0.24032 -0.70914,0.2577 -1.53525,0.24646 -0.48886,-0.007 -1.11756,-0.0626 -1.39712,-0.12441 -0.27957,-0.0618 -0.52661,-0.0827 -0.549,-0.0464 -0.0224,0.0362 -0.0594,0.23946 -0.0823,0.4516 -0.14678,1.3618 1.42463,1.69126 3.9083,0.81938 1.84862,-0.64893 4.24754,-2.10591 5.70713,-3.46618 0.58127,-0.5417 0.90745,-0.72478 1.29137,-0.72478 0.51683,0 0.78893,0.6498 0.50075,1.19585 -0.45341,0.85912 -3.28036,2.92829 -5.62183,4.1149 -1.72122,0.87224 -2.82698,1.12135 -4.67833,1.05395 -1.14405,-0.0417 -1.68101,-0.19555 -2.21288,-0.63424 -0.34945,-0.28824 -0.67578,-0.87786 -0.75294,-1.36044 -0.029,-0.18144 -0.0701,-0.32988 -0.0912,-0.32988 -0.0212,-2e-5 -0.37102,0.28416 -0.7775,0.63147 -2.42085,2.06855 -4.36924,3.03453 -5.84304,2.89691 -1.75986,-0.16434 -2.54561,-1.48787 -2.31332,-3.89658 0.0469,-0.48634 0.0773,-0.89359 0.0675,-0.90499 -0.01,-0.0114 -0.39121,0.14258 -0.84763,0.34219 -0.45641,0.19961 -1.41671,0.56742 -2.13399,0.81734 -0.717276,0.24993 -1.449586,0.52824 -1.627346,0.61848 -0.17777,0.0902 -0.8702,0.70025 -1.53874,1.3556 -1.74117,1.70679 -2.79807,2.35056 -3.88237,2.36477 -0.81852,0.0107 -1.34926,-0.4403 -1.45486,-1.23637 -0.0493,-0.37098 -0.0625,-0.38725 -0.35492,-0.43401 -0.54429,-0.087 -1.14154,-0.82714 -1.25869,-1.55978 l -0.0525,-0.32797 -0.87941,0.59434 c -1.92357,1.29997 -3.478,1.79825 -4.62022,1.48106 -0.41839,-0.11619 -0.79587,-0.46913 -1.02502,-0.95839 -0.10572,-0.22572 -0.22328,-0.4104 -0.26122,-0.4104 -0.038,-3e-5 -0.32006,0.12642 -0.62688,0.28093 -0.80577,0.40582 -1.61225,0.61254 -2.59272,0.66468 -1.04555,0.0556 -1.6254,-0.0842 -2.09017,-0.50414 l -0.30915,-0.27929 -0.183,0.50473 c -0.10066,0.2776 -0.41695,0.9726 -0.70287,1.54443 -1.36322,2.72639 -2.48442,3.95069 -3.88669,4.24408 -0.5402,0.11302 -0.6554,0.11118 -0.90506,-0.0145 z m 22.50953,-5.68929 c 0.23996,-0.20718 0.42211,-0.71407 0.40477,-0.73142 -0.12407,-0.12408 -1.58244,0.83878 -1.58244,1.05498 0,0.11029 0.69135,0.0963 1.17767,-0.32356 z m -13.69269,-1.54903 c 1.57922,-0.54332 2.81867,-1.54534 3.50118,-2.83056 0.38169,-0.71873 0.78683,-1.22855 1.16836,-1.47028 0.19217,-0.12171 0.19289,-0.12727 0.0658,-0.48198 -0.0707,-0.19736 -0.15112,-0.49708 -0.17863,-0.66607 -0.0275,-0.169 -0.1012,-0.32689 -0.16376,-0.35091 -0.26418,-0.10136 -1.68479,0.51994 -2.58409,1.13018 -1.58234,1.07371 -3.10347,3.11275 -3.10913,4.16777 -0.003,0.65538 0.40064,0.81138 1.30029,0.50185 z m 14.45416,-1.06966 1.33312,-0.45637 0.46038,-0.82879 c 0.59987,-1.07991 1.28445,-2.74982 1.303,-3.17844 0.0142,-0.3278 0.009,-0.33496 -0.22788,-0.30808 -0.13332,0.0151 -0.50311,0.13551 -0.82174,0.26745 -1.7951,0.7434 -3.67359,2.77896 -4.39913,4.767 -0.12832,0.35159 -0.23331,0.69124 -0.23331,0.75479 0,0.081 0.18715,0.0144 0.62623,-0.22284 0.3444,-0.18612 1.22612,-0.54373 1.95933,-0.79473 z m 21.851846,-2.4779 c 0.49059,-0.17183 1.13977,-0.75049 1.57776,-1.40641 0.17957,-0.26888 0.32648,-0.52111 0.32648,-0.56049 0,-0.21529 -1.17625,0.0157 -1.91147,0.37545 -0.48133,0.23548 -1.57292,1.02436 -1.87816,1.3573 -0.22272,0.24293 -0.19953,0.26241 0.44843,0.3768 0.47856,0.0845 0.91107,0.0415 1.43696,-0.14265 z m -38.941196,-6.80932 c 1.03,-3.06589 1.60551,-4.92229 1.54479,-4.98301 -0.0953,-0.0953 -3.86177,0.95706 -5.01838,1.40219 -0.4006,0.15422 -0.7992,0.33302 -0.88574,0.39742 -0.15558,0.11573 -0.15541,0.12105 0.0122,0.46592 0.0932,0.19186 0.40391,0.71127 0.69047,1.15426 0.72638,1.12296 1.40243,2.31048 2.0353,3.57515 0.29703,0.59357 0.55458,1.0647 0.57233,1.04695 0.0177,-0.0177 0.48983,-1.39424 1.04908,-3.0589 z m 31.312476,0.0684 c 1.78289,-2.3565 3.43939,-5.13874 4.39252,-7.37758 0.46088,-1.08258 1.04028,-2.62609 0.98578,-2.62609 -0.0688,-2e-5 -1.13165,1.49316 -1.9268,2.70688 -1.52583,2.32907 -2.90096,4.71561 -4.42424,7.67828 l -0.82988,1.61403 0.54381,-0.52522 c 0.29908,-0.28887 0.86556,-0.95049 1.25881,-1.47029 z"
       id="path6517-58"
       sodipodi:nodetypes="sssscsssssssssssssssssssssccsscsscsssccsssssssssssssssssssssssssssssssssssssssssssssssssssssssscssssssscssssssssssssssssssscsssssssssssssssssssssssssssssscss" /><path
       id="path6519-3"
       style="font-size:70.0411px;line-height:1.25;letter-spacing:-7.9375px;fill:none;stroke:#ff0000;stroke-width:0.264583;stroke-dasharray:none;stroke-opacity:1;stop-color:#000000"
       d="m 16.196589,137.51234 c -1.59099,0 -2.87217,1.28066 -2.87217,2.87166 v 9.25629 c 0,1.59099 1.28118,2.87216 2.87217,2.87216 h 14.25598 c 1.591,0 2.87218,-1.28117 2.87218,-2.87216 V 140.384 c 0,-1.591 -1.28118,-2.87166 -2.87218,-2.87166 h -5.37796 v 6.72 h -3.50005 v -6.72 z" /><path
       id="path6515-06"
       style="font-size:70.0411px;line-height:1.25;letter-spacing:-7.9375px;fill:none;stroke:#ff0000;stroke-width:0.264583;stroke-dasharray:none;stroke-opacity:1;stop-color:#000000"
       d="m 42.666322,116.96339 c -1.591,0 -2.87218,1.28065 -2.87218,2.87166 v 9.25628 c 0,1.59099 1.28118,2.87217 2.87218,2.87217 h 14.25598 c 1.591,0 2.87217,-1.28118 2.87217,-2.87217 v -9.25628 c 0,-1.591 -1.28117,-2.87166 -2.87217,-2.87166 h -5.37797 v 6.71999 h -3.50005 v -6.71999 z" /><path
       style="font-size:70.0411px;line-height:1.25;letter-spacing:-7.9375px;vector-effect:non-scaling-stroke;fill:none;stroke:#ff0000;stroke-width:0.264583;stroke-dasharray:none;stroke-opacity:1;-inkscape-stroke:hairline"
       d="m 70.680496,128.59395 c -0.14619,-0.0736 -0.20944,-0.17932 -0.22923,-0.38243 -0.0368,-0.38462 0.0591,-0.67483 0.85314,-2.58384 0.379,-0.91104 1.3183,-3.22795 2.08737,-5.14867 l 1.39832,-3.49223 -0.19672,-0.87113 c -0.37395,-1.65592 -0.7873,-2.71441 -1.49525,-3.82891 -0.9702,-1.52734 -2.08042,-2.82185 -2.90278,-3.38462 -0.65899,-0.45099 -0.75577,-0.58482 -0.73923,-1.02219 0.0586,-1.54799 1.83011,-2.43047 7.36503,-3.66878 1.74345,-0.39005 2.21247,-0.56525 2.33396,-0.87177 0.0469,-0.11836 0.19582,-0.68419 0.33089,-1.25737 0.23273,-0.98757 0.4206,-1.44243 0.68715,-1.66365 0.20193,-0.16756 0.70586,-0.24326 1.03524,-0.15545 0.64734,0.17258 0.77424,0.8456 0.41796,2.21687 -0.11252,0.43306 -0.19434,0.79502 -0.18181,0.80435 0.0126,0.009 1.04088,-0.12122 2.28524,-0.29013 5.06557,-0.68764 9.21936,-1.1223 10.72532,-1.12229 0.98587,0 1.182,0.0648 1.58508,0.5239 0.45042,0.51301 0.30627,1.21725 -0.31493,1.53849 -0.31685,0.16386 -1.49905,0.27773 -2.90518,0.27986 -2.09353,0.003 -5.42356,0.26894 -8.16107,0.65132 -1.81816,0.25396 -3.82654,0.63932 -3.89355,0.74707 -0.0334,0.0536 -0.24,0.62473 -0.45922,1.26912 -0.21925,0.6444 -0.98034,2.80789 -1.69134,4.80776 -0.71099,1.99986 -1.3676,3.89064 -1.45913,4.20173 -0.23341,0.79329 -0.41544,1.90498 -0.41519,2.53567 l 2.3e-4,0.53483 0.29205,-0.48482 c 1.20137,-1.99429 3.70004,-3.97996 5.80813,-4.61566 0.31637,-0.0954 0.75153,-0.14714 1.25245,-0.14893 0.64133,-0.002 0.82968,0.0279 1.14485,0.18307 1.22077,0.60136 1.69739,2.31848 0.85005,3.06245 l -0.26366,0.23145 0.15597,0.26708 c 0.14392,0.24636 0.14642,0.28688 0.0326,0.52259 -0.0679,0.14053 -0.47468,0.70596 -0.9041,1.2565 -0.98897,1.26795 -1.02917,1.34728 -0.99934,1.97179 l 0.024,0.50173 0.37783,0.0244 c 0.43639,0.0282 0.99999,-0.22383 2.00581,-0.89684 2.13164,-1.42631 3.67247,-3.0481 4.96218,-5.22287 1.15629,-1.94978 4.74477,-8.63387 6.4448,-12.00445 0.62763,-1.24437 1.28307,-2.47225 1.45655,-2.72863 0.49081,-0.7254 1.121724,-1.06525 1.605534,-0.86484 0.49547,0.20524 0.60056,0.79999 0.30862,1.74671 -0.23767,0.77078 -0.31417,0.91061 -2.523604,4.61261 -1.96621,3.29448 -3.37484,5.75337 -4.34059,7.5769 -0.42368,0.79999 -0.47875,0.94534 -0.31477,0.83078 0.82575,-0.57692 2.02873,-1.15352 2.67916,-1.28415 0.53973,-0.10838 0.94465,-0.0124 1.49056,0.35346 1.01295,0.67881 1.07534,1.80574 0.22922,4.13996 -0.20473,0.56479 -0.3555,1.04362 -0.33504,1.06408 0.054,0.054 2.246034,-0.82562 2.995754,-1.20218 1.32215,-0.66406 1.3493,-0.69979 2.19788,-2.89191 1.34486,-3.47418 4.12269,-8.61243 6.62114,-12.24741 2.55666,-3.71966 4.37047,-5.24855 5.19076,-4.37539 0.30559,0.32528 0.42082,0.73519 0.4208,1.49719 -1e-5,1.27985 -0.44498,2.60858 -1.77762,5.30809 -2.29034,4.63949 -5.04645,8.34851 -7.9362,10.68007 -0.66402,0.53575 -0.9673,0.83387 -1.00042,0.98337 -0.0935,0.42203 -0.13203,0.51776 -0.31987,0.79455 -0.24921,0.36724 -0.47094,0.97006 -0.71461,1.94279 -0.39949,1.59486 -0.35587,2.29537 0.17606,2.8273 0.2757,0.27571 0.30233,0.28432 0.75268,0.24348 1.49502,-0.13556 3.78289,-1.9417 7.98969,-6.30734 1.0084,-1.04649 1.65122,-1.54845 2.44239,-1.90718 1.28796,-0.584 2.93989,-0.63948 3.71752,-0.12488 0.82278,0.5445 0.92489,2.00723 0.21769,3.11874 -0.54528,0.85701 -1.65605,1.7069 -2.86049,2.18865 -0.60081,0.24032 -0.70914,0.2577 -1.53525,0.24646 -0.48886,-0.007 -1.11756,-0.0626 -1.39712,-0.12441 -0.27957,-0.0618 -0.52661,-0.0827 -0.549,-0.0464 -0.0224,0.0362 -0.0594,0.23946 -0.0823,0.4516 -0.14678,1.3618 1.42463,1.69126 3.9083,0.81938 1.84862,-0.64893 4.24754,-2.10591 5.70713,-3.46618 0.58127,-0.5417 0.90745,-0.72478 1.29137,-0.72478 0.51683,0 0.78893,0.6498 0.50075,1.19585 -0.45341,0.85912 -3.28036,2.92829 -5.62183,4.1149 -1.72122,0.87224 -2.82698,1.12135 -4.67833,1.05395 -1.14405,-0.0417 -1.68101,-0.19555 -2.21288,-0.63424 -0.34945,-0.28824 -0.67578,-0.87786 -0.75294,-1.36044 -0.029,-0.18144 -0.0701,-0.32988 -0.0912,-0.32988 -0.0212,-2e-5 -0.37102,0.28416 -0.7775,0.63147 -2.42085,2.06855 -4.36924,3.03453 -5.84304,2.89691 -1.75986,-0.16434 -2.54561,-1.48787 -2.31332,-3.89658 0.0469,-0.48634 0.0773,-0.89359 0.0675,-0.90499 -0.01,-0.0114 -0.39121,0.14258 -0.84763,0.34219 -0.45641,0.19961 -1.416714,0.56742 -2.133994,0.81734 -0.71728,0.24993 -1.44959,0.52824 -1.62735,0.61848 -0.17777,0.0902 -0.8702,0.70025 -1.53874,1.3556 -1.74117,1.70679 -2.79807,2.35056 -3.88237,2.36477 -0.81852,0.0107 -1.34926,-0.4403 -1.45486,-1.23637 -0.0493,-0.37098 -0.0625,-0.38725 -0.35492,-0.43401 -0.54429,-0.087 -1.14154,-0.82714 -1.25869,-1.55978 l -0.0525,-0.32797 -0.87941,0.59434 c -1.92357,1.29997 -3.478,1.79825 -4.62022,1.48106 -0.41839,-0.11619 -0.79587,-0.46913 -1.02502,-0.95839 -0.10572,-0.22572 -0.22328,-0.4104 -0.26122,-0.4104 -0.038,-3e-5 -0.32006,0.12642 -0.62688,0.28093 -0.80577,0.40582 -1.61225,0.61254 -2.59272,0.66468 -1.04555,0.0556 -1.6254,-0.0842 -2.09017,-0.50414 l -0.30915,-0.27929 -0.183,0.50473 c -0.10066,0.2776 -0.41695,0.9726 -0.70287,1.54443 -1.36322,2.72639 -2.48442,3.95069 -3.88669,4.24408 -0.5402,0.11302 -0.6554,0.11118 -0.90506,-0.0145 z m 22.50953,-5.68929 c 0.23996,-0.20718 0.42211,-0.71407 0.40477,-0.73142 -0.12407,-0.12408 -1.58244,0.83878 -1.58244,1.05498 0,0.11029 0.69135,0.0963 1.17767,-0.32356 z m -13.69269,-1.54903 c 1.57922,-0.54332 2.81867,-1.54533 3.50118,-2.83056 0.38169,-0.71873 0.78683,-1.22855 1.16836,-1.47028 0.19217,-0.12171 0.19289,-0.12727 0.0658,-0.48197 -0.0707,-0.19736 -0.15112,-0.4971 -0.17863,-0.66608 -0.0275,-0.169 -0.1012,-0.3269 -0.16376,-0.35091 -0.26418,-0.10136 -1.68479,0.51994 -2.58409,1.13018 -1.58234,1.0737 -3.10347,3.11275 -3.10913,4.16777 -0.003,0.65538 0.40064,0.81138 1.30029,0.50185 z m 14.45416,-1.06965 1.33312,-0.45638 0.46038,-0.82878 c 0.59987,-1.07992 1.28445,-2.74982 1.303,-3.17845 0.0142,-0.32779 0.009,-0.33495 -0.22788,-0.30808 -0.13332,0.0151 -0.50311,0.13551 -0.82174,0.26745 -1.7951,0.74339 -3.67359,2.77897 -4.39913,4.767 -0.12832,0.3516 -0.23331,0.69124 -0.23331,0.75479 0,0.081 0.18715,0.0144 0.62623,-0.22284 0.3444,-0.18612 1.22612,-0.54373 1.95933,-0.79473 z m 21.851854,-2.47791 c 0.49059,-0.17183 1.13977,-0.75049 1.57776,-1.40641 0.17957,-0.26888 0.32648,-0.52111 0.32648,-0.56048 0,-0.2153 -1.17625,0.0157 -1.91147,0.37545 -0.48133,0.23548 -1.57292,1.02435 -1.87816,1.35729 -0.22272,0.24293 -0.19953,0.26241 0.44843,0.3768 0.47856,0.0845 0.91107,0.0415 1.43696,-0.14265 z m -38.941204,-6.80932 c 1.03,-3.06589 1.60551,-4.92229 1.54479,-4.98301 -0.0953,-0.0953 -3.86177,0.95706 -5.01838,1.40219 -0.4006,0.15421 -0.7992,0.33302 -0.88574,0.39742 -0.15558,0.11573 -0.15541,0.12105 0.0122,0.46592 0.0932,0.19186 0.40391,0.71126 0.69047,1.15426 0.72638,1.12296 1.40243,2.31047 2.0353,3.57515 0.29703,0.59357 0.55458,1.0647 0.57233,1.04694 0.0177,-0.0177 0.48983,-1.39424 1.04908,-3.05889 z m 31.312484,0.0684 c 1.78289,-2.3565 3.43939,-5.13874 4.39252,-7.37758 0.46088,-1.08258 1.04028,-2.62609 0.98578,-2.62609 -0.0688,-3e-5 -1.13165,1.49315 -1.9268,2.70688 -1.52583,2.32907 -2.90096,4.7156 -4.42424,7.67827 l -0.82988,1.61404 0.54381,-0.52522 c 0.29908,-0.28888 0.86556,-0.95049 1.25881,-1.4703 z"
       id="path6517-2"
       sodipodi:nodetypes="sssscsssssssssssssssssssssccsscsscsssccsssssssssssssssssssssssssssssssssssssssssssssssssssssssscssssssscssssssssssssssssssscsssssssssssssssssssssssssssssscss" /><path
       id="path6519-2"
       style="font-size:70.0411px;line-height:1.25;letter-spacing:-7.9375px;fill:none;stroke:#ff0000;stroke-width:0.264583;stroke-dasharray:none;stroke-opacity:1;stop-color:#000000"
       d="m 42.095672,139.06872 c -1.59099,0 -2.87217,1.28065 -2.87217,2.87165 v 9.25629 c 0,1.59099 1.28118,2.87216 2.87217,2.87216 h 14.25598 c 1.591,0 2.87218,-1.28117 2.87218,-2.87216 v -9.25629 c 0,-1.59099 -1.28118,-2.87165 -2.87218,-2.87165 h -5.37796 v 6.71999 h -3.50005 v -6.71999 z" /><path
       id="rect487"
       style="fill:none;stroke:#ff0000;stroke-width:0.264583;stop-color:#000000"
       d="M 7.5941157,8.4936465 H 127.74382 V 88.650189 H 7.5941157 Z" /><path
       style="font-size:70.0411px;line-height:1.25;letter-spacing:-7.9375px;vector-effect:non-scaling-stroke;fill:none;stroke:#ff0000;stroke-width:0.264583;stroke-dasharray:none;stroke-opacity:1;-inkscape-stroke:hairline"
       d="m 161.19734,166.59396 c -0.14619,-0.0736 -0.20944,-0.17932 -0.22923,-0.38243 -0.0368,-0.38462 0.0591,-0.67483 0.85314,-2.58385 0.379,-0.91104 1.3183,-3.22795 2.08737,-5.14866 l 1.39832,-3.49223 -0.19672,-0.87113 c -0.37395,-1.65592 -0.7873,-2.71441 -1.49525,-3.82891 -0.9702,-1.52735 -2.08042,-2.82186 -2.90278,-3.38463 -0.65899,-0.45098 -0.75577,-0.58481 -0.73923,-1.02218 0.0586,-1.54799 1.83011,-2.43047 7.36503,-3.66878 1.74345,-0.39005 2.21247,-0.56525 2.33396,-0.87177 0.0469,-0.11836 0.19582,-0.68419 0.33089,-1.25737 0.23273,-0.98757 0.4206,-1.44244 0.68715,-1.66365 0.20193,-0.16756 0.70586,-0.24326 1.03524,-0.15545 0.64734,0.17258 0.77424,0.8456 0.41796,2.21687 -0.11252,0.43306 -0.19434,0.79501 -0.18181,0.80435 0.0126,0.009 1.04088,-0.12122 2.28524,-0.29014 5.06557,-0.68763 9.21936,-1.12229 10.72532,-1.12228 0.98587,0 1.182,0.0648 1.58508,0.5239 0.45042,0.51301 0.30627,1.21725 -0.31493,1.53849 -0.31685,0.16386 -1.49905,0.27773 -2.90518,0.27986 -2.09353,0.003 -5.42356,0.26894 -8.16107,0.65132 -1.81816,0.25396 -3.82654,0.63932 -3.89355,0.74707 -0.0334,0.0536 -0.24,0.62473 -0.45922,1.26912 -0.21925,0.6444 -0.98034,2.80789 -1.69134,4.80776 -0.71099,1.99986 -1.3676,3.89064 -1.45913,4.20173 -0.23341,0.79329 -0.41544,1.90498 -0.41519,2.53567 l 2.3e-4,0.53483 0.29205,-0.48482 c 1.20137,-1.99429 3.70004,-3.97996 5.80813,-4.61566 0.31637,-0.0954 0.75153,-0.14714 1.25245,-0.14893 0.64133,-0.002 0.82968,0.0279 1.14485,0.18307 1.22077,0.60136 1.69739,2.31848 0.85005,3.06245 l -0.26366,0.23145 0.15597,0.26708 c 0.14392,0.24636 0.14642,0.28688 0.0326,0.52259 -0.0679,0.14053 -0.47468,0.70596 -0.9041,1.2565 -0.98897,1.26795 -1.02917,1.34728 -0.99934,1.97179 l 0.024,0.50173 0.37783,0.0244 c 0.43639,0.0282 0.99999,-0.22383 2.00581,-0.89684 2.13164,-1.42631 3.67247,-3.0481 4.96218,-5.22287 1.15629,-1.94978 4.74477,-8.63387 6.4448,-12.00445 0.62763,-1.24437 1.28307,-2.47225 1.45655,-2.72863 0.49081,-0.7254 1.12172,-1.06525 1.60553,-0.86484 0.49547,0.20524 0.60056,0.79999 0.30862,1.74671 -0.23767,0.77078 -0.31417,0.91061 -2.5236,4.61261 -1.96621,3.29448 -3.37484,5.75337 -4.34059,7.5769 -0.42368,0.79999 -0.47875,0.94534 -0.31477,0.83078 0.82575,-0.57692 2.02873,-1.15352 2.67916,-1.28415 0.53973,-0.10838 0.94465,-0.0124 1.49056,0.35346 1.01295,0.67881 1.07534,1.80574 0.22922,4.13996 -0.20473,0.56479 -0.3555,1.04362 -0.33504,1.06408 0.054,0.054 2.24603,-0.82562 2.99575,-1.20218 1.32215,-0.66406 1.3493,-0.69979 2.19788,-2.89191 1.34486,-3.47418 4.12269,-8.61243 6.62114,-12.24741 2.55666,-3.71966 4.37047,-5.24855 5.19076,-4.37539 0.30559,0.32528 0.42082,0.73519 0.4208,1.49719 -1e-5,1.27985 -0.44498,2.60858 -1.77762,5.30809 -2.29034,4.63949 -5.04645,8.34851 -7.9362,10.68007 -0.66402,0.53575 -0.9673,0.83387 -1.00042,0.98337 -0.0935,0.42203 -0.13203,0.51776 -0.31987,0.79455 -0.24921,0.36724 -0.47094,0.97006 -0.71461,1.94279 -0.39949,1.59486 -0.35587,2.29536 0.17606,2.82729 0.2757,0.27571 0.30233,0.28432 0.75268,0.24348 1.49502,-0.13556 3.78289,-1.94169 7.98969,-6.30733 1.0084,-1.04649 1.65122,-1.54845 2.44239,-1.90718 1.28796,-0.584 2.93989,-0.63948 3.71752,-0.12488 0.82278,0.5445 0.92489,2.00723 0.21769,3.11874 -0.54528,0.85701 -1.65605,1.7069 -2.86049,2.18865 -0.60081,0.24032 -0.70914,0.2577 -1.53525,0.24646 -0.48886,-0.007 -1.11756,-0.0626 -1.39712,-0.12441 -0.27957,-0.0618 -0.52661,-0.0827 -0.549,-0.0464 -0.0224,0.0362 -0.0594,0.23946 -0.0823,0.4516 -0.14678,1.3618 1.42463,1.69125 3.9083,0.81938 1.84862,-0.64893 4.24754,-2.10591 5.70713,-3.46618 0.58127,-0.5417 0.90745,-0.72478 1.29137,-0.72478 0.51683,0 0.78893,0.6498 0.50075,1.19585 -0.45341,0.85912 -3.28036,2.92829 -5.62183,4.11489 -1.72122,0.87224 -2.82698,1.12135 -4.67833,1.05395 -1.14405,-0.0417 -1.68101,-0.19555 -2.21288,-0.63424 -0.34945,-0.28824 -0.67578,-0.87785 -0.75294,-1.36043 -0.029,-0.18144 -0.0701,-0.32988 -0.0912,-0.32988 -0.0212,-2e-5 -0.37102,0.28416 -0.7775,0.63147 -2.42085,2.06854 -4.36924,3.03452 -5.84304,2.8969 -1.75986,-0.16434 -2.54561,-1.48787 -2.31332,-3.89657 0.0469,-0.48634 0.0773,-0.89359 0.0675,-0.90499 -0.01,-0.0114 -0.39121,0.14258 -0.84763,0.34219 -0.45641,0.19961 -1.41671,0.56742 -2.13399,0.81734 -0.71728,0.24993 -1.44959,0.52824 -1.62735,0.61848 -0.17777,0.0902 -0.8702,0.70024 -1.53874,1.35559 -1.74117,1.70679 -2.79807,2.35056 -3.88237,2.36477 -0.81852,0.0107 -1.34926,-0.4403 -1.45486,-1.23637 -0.0493,-0.37098 -0.0625,-0.38725 -0.35492,-0.43401 -0.54429,-0.087 -1.14154,-0.82714 -1.25869,-1.55977 l -0.0525,-0.32797 -0.87941,0.59433 c -1.92357,1.29997 -3.478,1.79825 -4.62022,1.48106 -0.41839,-0.11619 -0.79587,-0.46913 -1.02502,-0.95839 -0.10572,-0.22572 -0.22328,-0.4104 -0.26122,-0.4104 -0.038,-3e-5 -0.32006,0.12642 -0.62688,0.28093 -0.80577,0.40582 -1.61225,0.61254 -2.59272,0.66468 -1.04555,0.0556 -1.6254,-0.0842 -2.09017,-0.50414 l -0.30915,-0.27929 -0.183,0.50473 c -0.10066,0.2776 -0.41695,0.9726 -0.70287,1.54443 -1.36322,2.7264 -2.48442,3.9507 -3.88669,4.24409 -0.5402,0.11302 -0.6554,0.11118 -0.90506,-0.0145 z m 22.50953,-5.6893 c 0.23996,-0.20718 0.42211,-0.71407 0.40477,-0.73142 -0.12407,-0.12408 -1.58244,0.83878 -1.58244,1.05498 0,0.11029 0.69135,0.0963 1.17767,-0.32356 z m -13.69269,-1.54902 c 1.57922,-0.54333 2.81867,-1.54534 3.50118,-2.83057 0.38169,-0.71873 0.78683,-1.22855 1.16836,-1.47028 0.19217,-0.1217 0.19289,-0.12726 0.0658,-0.48197 -0.0707,-0.19736 -0.15112,-0.49709 -0.17863,-0.66607 -0.0275,-0.169 -0.1012,-0.3269 -0.16376,-0.35091 -0.26418,-0.10136 -1.68479,0.51994 -2.58409,1.13018 -1.58234,1.0737 -3.10347,3.11275 -3.10913,4.16777 -0.003,0.65538 0.40064,0.81138 1.30029,0.50185 z m 14.45416,-1.06966 1.33312,-0.45637 0.46038,-0.82879 c 0.59987,-1.07991 1.28445,-2.74982 1.303,-3.17844 0.0142,-0.3278 0.009,-0.33496 -0.22788,-0.30808 -0.13332,0.0151 -0.50311,0.13551 -0.82174,0.26745 -1.7951,0.74339 -3.67359,2.77896 -4.39913,4.767 -0.12832,0.35159 -0.23331,0.69124 -0.23331,0.75479 0,0.081 0.18715,0.0144 0.62623,-0.22284 0.3444,-0.18612 1.22612,-0.54373 1.95933,-0.79473 z m 21.85185,-2.47791 c 0.49059,-0.17183 1.13977,-0.75049 1.57776,-1.40641 0.17957,-0.26888 0.32648,-0.52111 0.32648,-0.56048 0,-0.2153 -1.17625,0.0157 -1.91147,0.37545 -0.48133,0.23548 -1.57292,1.02435 -1.87816,1.35729 -0.22272,0.24293 -0.19953,0.26241 0.44843,0.3768 0.47856,0.0845 0.91107,0.0415 1.43696,-0.14265 z m -38.9412,-6.80932 c 1.03,-3.06589 1.60551,-4.92229 1.54479,-4.98301 -0.0953,-0.0953 -3.86177,0.95706 -5.01838,1.40219 -0.4006,0.15422 -0.7992,0.33302 -0.88574,0.39742 -0.15558,0.11573 -0.15541,0.12105 0.0122,0.46592 0.0932,0.19186 0.40391,0.71127 0.69047,1.15426 0.72638,1.12296 1.40243,2.31048 2.0353,3.57515 0.29703,0.59357 0.55458,1.0647 0.57233,1.04695 0.0177,-0.0177 0.48983,-1.39424 1.04908,-3.05889 z m 31.31248,0.0684 c 1.78289,-2.3565 3.43939,-5.13874 4.39252,-7.37758 0.46088,-1.08258 1.04028,-2.62609 0.98578,-2.62609 -0.0688,-2e-5 -1.13165,1.49316 -1.9268,2.70688 -1.52583,2.32907 -2.90096,4.71561 -4.42424,7.67828 l -0.82988,1.61403 0.54381,-0.52522 c 0.29908,-0.28887 0.86556,-0.95049 1.25881,-1.47029 z"
       id="path2564"
       sodipodi:nodetypes="sssscsssssssssssssssssssssccsscsscsssccsssssssssssssssssssssssssssssssssssssssssssssssssssssssscssssssscssssssssssssssssssscsssssssssssssssssssssssssssssscss" /><path
       id="path2566"
       style="font-size:70.0411px;line-height:1.25;letter-spacing:-7.9375px;fill:none;stroke:#ff0000;stroke-width:0.264583;stroke-dasharray:none;stroke-opacity:1;stop-color:#000000"
       d="m 137.66983,138.46011 c -1.59099,0 -2.87217,1.28066 -2.87217,2.87166 v 9.25628 c 0,1.591 1.28118,2.87217 2.87217,2.87217 h 14.25598 c 1.591,0 2.87218,-1.28117 2.87218,-2.87217 v -9.25628 c 0,-1.591 -1.28118,-2.87166 -2.87218,-2.87166 h -5.37796 v 6.72 h -3.50005 v -6.72 z" /><path
       id="path2568"
       style="font-size:70.0411px;line-height:1.25;letter-spacing:-7.9375px;fill:none;stroke:#ff0000;stroke-width:0.264583;stroke-dasharray:none;stroke-opacity:1;stop-color:#000000"
       d="m 222.33655,138.46011 c -1.59099,0 -2.87217,1.28066 -2.87217,2.87166 v 9.25628 c 0,1.591 1.28118,2.87217 2.87217,2.87217 h 14.25598 c 1.591,0 2.87218,-1.28117 2.87218,-2.87217 v -9.25628 c 0,-1.591 -1.28118,-2.87166 -2.87218,-2.87166 h -5.37796 v 6.72 h -3.50005 v -6.72 z" /><path
       id="path2570"
       style="font-size:70.0411px;line-height:1.25;letter-spacing:-7.9375px;fill:none;stroke:#ff0000;stroke-width:0.264583;stroke-dasharray:none;stroke-opacity:1;stop-color:#000000"
       d="m 222.33655,117.29343 c -1.59099,0 -2.87217,1.28066 -2.87217,2.87166 v 9.25628 c 0,1.591 1.28118,2.87217 2.87217,2.87217 h 14.25598 c 1.591,0 2.87218,-1.28117 2.87218,-2.87217 v -9.25628 c 0,-1.591 -1.28118,-2.87166 -2.87218,-2.87166 h -5.37796 v 6.72 h -3.50005 v -6.72 z" /><path
       id="path2572"
       style="font-size:70.0411px;line-height:1.25;letter-spacing:-7.9375px;fill:none;stroke:#ff0000;stroke-width:0.264583;stroke-dasharray:none;stroke-opacity:1;stop-color:#000000"
       d="m 222.33655,96.126753 c -1.59099,0 -2.87217,1.28066 -2.87217,2.87166 v 9.256277 c 0,1.591 1.28118,2.87217 2.87217,2.87217 h 14.25598 c 1.591,0 2.87218,-1.28117 2.87218,-2.87217 v -9.256277 c 0,-1.591 -1.28118,-2.87166 -2.87218,-2.87166 h -5.37796 v 6.719997 h -3.50005 v -6.719997 z" /><path
       id="path2574"
       style="font-size:70.0411px;line-height:1.25;letter-spacing:-7.9375px;fill:none;stroke:#ff0000;stroke-width:0.264583;stroke-dasharray:none;stroke-opacity:1;stop-color:#000000"
       d="m 222.33655,74.960085 c -1.59099,0 -2.87217,1.28066 -2.87217,2.87166 v 9.256274 c 0,1.591 1.28118,2.872167 2.87217,2.872167 h 14.25598 c 1.591,0 2.87218,-1.281167 2.87218,-2.872167 v -9.256274 c 0,-1.591 -1.28118,-2.87166 -2.87218,-2.87166 h -5.37796 v 6.719997 h -3.50005 v -6.719997 z" /><path
       id="path2576"
       style="font-size:70.0411px;line-height:1.25;letter-spacing:-7.9375px;fill:none;stroke:#ff0000;stroke-width:0.264583;stroke-dasharray:none;stroke-opacity:1;stop-color:#000000"
       d="m 222.33655,53.26425 c -1.59099,0 -2.87217,1.28066 -2.87217,2.87166 v 9.256274 c 0,1.591 1.28118,2.872167 2.87217,2.872167 h 14.25598 c 1.591,0 2.87218,-1.281167 2.87218,-2.872167 V 56.13591 c 0,-1.591 -1.28118,-2.87166 -2.87218,-2.87166 h -5.37796 v 6.719997 h -3.50005 V 53.26425 Z" /></g></svg>
