<?xml version="1.0" encoding="UTF-8" standalone="no"?>
<!-- Created with Inkscape (http://www.inkscape.org/) -->

<svg
   width="263.38138mm"
   height="160.3439mm"
   viewBox="0 0 263.38138 160.3439"
   version="1.1"
   id="svg5043"
   inkscape:version="1.2.1 (9c6d41e, 2022-07-14)"
   sodipodi:docname="guide.svg"
   xmlns:inkscape="http://www.inkscape.org/namespaces/inkscape"
   xmlns:sodipodi="http://sodipodi.sourceforge.net/DTD/sodipodi-0.dtd"
   xmlns="http://www.w3.org/2000/svg"
   xmlns:svg="http://www.w3.org/2000/svg">
  <sodipodi:namedview
     id="namedview5045"
     pagecolor="#ffffff"
     bordercolor="#666666"
     borderopacity="1.0"
     inkscape:showpageshadow="2"
     inkscape:pageopacity="0.0"
     inkscape:pagecheckerboard="0"
     inkscape:deskcolor="#d1d1d1"
     inkscape:document-units="mm"
     showgrid="false"
     inkscape:zoom="0.44533544"
     inkscape:cx="607.4073"
     inkscape:cy="289.66929"
     inkscape:window-width="1280"
     inkscape:window-height="404"
     inkscape:window-x="0"
     inkscape:window-y="25"
     inkscape:window-maximized="0"
     inkscape:current-layer="layer1" />
  <defs
     id="defs5040" />
  <g
     inkscape:label="Layer 1"
     inkscape:groupmode="layer"
     id="layer1"
     transform="translate(354.49462,-22.655795)">
    <g
       id="g4279"
       style="vector-effect:non-scaling-stroke;stroke-width:0.264583;stroke-dasharray:none;-inkscape-stroke:hairline;stroke:#ff0000;stroke-opacity:1"
       transform="rotate(90,-51.606673,-183.72018)">
      <rect
         style="vector-effect:non-scaling-stroke;fill:none;stroke:#ff0000;stroke-width:0.264583;stroke-dasharray:none;stroke-opacity:1;-inkscape-stroke:hairline;stop-color:#000000"
         id="rect3494"
         width="37.74773"
         height="64.698174"
         x="154.7693"
         y="51.34737"
         ry="0" />
      <path
         id="path3492"
         style="vector-effect:non-scaling-stroke;fill:none;stroke:#ff0000;stroke-width:0.264583;stroke-dasharray:none;stroke-opacity:1;-inkscape-stroke:hairline"
         d="m 158.11311,54.621852 v 11.481459 c -0.0339,0.0265 -0.0677,0.05342 -0.0997,0.08351 -0.35448,0.33302 -0.31592,0.828411 0.0997,1.469239 v 43.00198 h 7.53461 c 0.584,1.20205 1.20561,1.68543 2.00213,1.71558 0.44175,0.0167 0.5769,-0.0808 1.03239,-0.74636 0.20042,-0.29289 0.49697,-0.62299 0.85909,-0.96922 h 16.40277 c 1.54744,0.6392 1.8829,0.74457 2.24064,0.71034 0.20515,-0.02 0.3119,-0.0835 0.38623,-0.23121 h 5.3e-4 c 0.12684,-0.25216 0.12824,-0.36832 0.014,-0.91391 -0.12483,-0.59661 -0.41906,-1.14265 -0.92069,-1.678 V 54.621852 Z" />
    </g>
    <path
       id="path5220"
       style="fill:none;stroke:#ff0000;stroke-width:0.264583;stroke-dasharray:none;stroke-opacity:1;stop-color:#000000"
       d="m -274.87197,25.712182 c -1.591,0 -2.87218,1.28066 -2.87218,2.87166 v 9.25628 c 0,1.591 1.28118,2.87217 2.87218,2.87217 h 14.25598 c 1.591,0 2.87217,-1.28117 2.87217,-2.87217 v -9.25628 c 0,-1.591 -1.28117,-2.87166 -2.87217,-2.87166 h -5.37797 v 6.72 h -3.50005 v -6.72 z" />
    <path
       style="vector-effect:non-scaling-stroke;fill:none;stroke:#ff0000;stroke-width:0.264583;stroke-dasharray:none;stroke-opacity:1;-inkscape-stroke:hairline"
       d="m -249.84656,58.691062 c -0.14619,-0.0736 -0.20944,-0.17932 -0.22923,-0.38243 -0.0368,-0.38462 0.0591,-0.67483 0.85314,-2.58385 0.379,-0.91104 1.3183,-3.22795 2.08737,-5.14866 l 1.39832,-3.49223 -0.19672,-0.87113 c -0.37395,-1.65592 -0.7873,-2.71441 -1.49525,-3.82891 -0.9702,-1.52735 -2.08042,-2.82186 -2.90278,-3.38463 -0.65899,-0.45098 -0.75577,-0.58481 -0.73923,-1.02218 0.0586,-1.54799 1.83011,-2.43047 7.36503,-3.66878 1.74345,-0.39005 2.21247,-0.56525 2.33396,-0.87177 0.0469,-0.11836 0.19582,-0.68419 0.33089,-1.25737 0.23273,-0.98757 0.4206,-1.44244 0.68715,-1.66365 0.20193,-0.16756 0.70586,-0.24326 1.03524,-0.15545 0.64734,0.17258 0.77424,0.8456 0.41796,2.21687 -0.11252,0.43306 -0.19434,0.79501 -0.18181,0.80435 0.0126,0.009 1.04088,-0.12122 2.28524,-0.29014 5.06557,-0.68763 9.21936,-1.12229 10.72532,-1.12228 0.98587,0 1.182,0.0648 1.58508,0.5239 0.45042,0.51301 0.30627,1.21725 -0.31493,1.53849 -0.31685,0.16386 -1.49905,0.27773 -2.90518,0.27986 -2.09353,0.003 -5.42356,0.26894 -8.16107,0.65132 -1.81816,0.25396 -3.82654,0.63932 -3.89355,0.74707 -0.0334,0.0536 -0.24,0.62473 -0.45922,1.26912 -0.21925,0.6444 -0.98034,2.80789 -1.69134,4.80776 -0.71099,1.99986 -1.3676,3.89064 -1.45913,4.20173 -0.23341,0.79329 -0.41544,1.90498 -0.41519,2.53567 l 2.3e-4,0.53483 0.29205,-0.48482 c 1.20137,-1.99429 3.70004,-3.97996 5.80813,-4.61566 0.31637,-0.0954 0.75153,-0.14714 1.25245,-0.14893 0.64133,-0.002 0.82968,0.0279 1.14485,0.18307 1.22077,0.60136 1.69739,2.31848 0.85005,3.06245 l -0.26366,0.23145 0.15597,0.26708 c 0.14392,0.24636 0.14642,0.28688 0.0326,0.52259 -0.0679,0.14053 -0.47468,0.70596 -0.9041,1.2565 -0.98897,1.26795 -1.02917,1.34728 -0.99934,1.97179 l 0.024,0.50173 0.37783,0.0244 c 0.43639,0.0282 0.99999,-0.22383 2.00581,-0.89684 2.13164,-1.42631 3.67247,-3.0481 4.96218,-5.22287 1.15629,-1.94978 4.74477,-8.63387 6.4448,-12.00445 0.62763,-1.24437 1.28307,-2.47225 1.45655,-2.72863 0.49081,-0.7254 1.12172,-1.06525 1.60553,-0.86484 0.49547,0.20524 0.60056,0.79999 0.30862,1.74671 -0.23767,0.77078 -0.31417,0.91061 -2.5236,4.61261 -1.96621,3.29448 -3.37484,5.75337 -4.34059,7.5769 -0.42368,0.79999 -0.47875,0.94534 -0.31477,0.83078 0.82575,-0.57692 2.02873,-1.15352 2.67916,-1.28415 0.53973,-0.10838 0.94465,-0.0124 1.49056,0.35346 1.01295,0.67881 1.07534,1.80574 0.22922,4.13996 -0.20473,0.56479 -0.3555,1.04362 -0.33504,1.06408 0.054,0.054 2.24603,-0.82562 2.99575,-1.20218 1.32215,-0.66406 1.3493,-0.69979 2.19788,-2.89191 1.34486,-3.47418 4.12269,-8.61243 6.62114,-12.24741 2.55666,-3.71966 4.37047,-5.24855 5.19076,-4.37539 0.30559,0.32528 0.42082,0.73519 0.4208,1.49719 -1e-5,1.27985 -0.44498,2.60858 -1.77762,5.30809 -2.29034,4.63949 -5.04645,8.34851 -7.9362,10.68007 -0.66402,0.53575 -0.9673,0.83387 -1.00042,0.98337 -0.0935,0.42203 -0.13203,0.51776 -0.31987,0.79455 -0.24921,0.36724 -0.47094,0.97006 -0.71461,1.94279 -0.39949,1.59486 -0.35587,2.29536 0.17606,2.82729 0.2757,0.27571 0.30233,0.28432 0.75268,0.24348 1.49502,-0.13556 3.78289,-1.94169 7.98969,-6.30733 1.0084,-1.04649 1.65122,-1.54845 2.44239,-1.90718 1.28796,-0.584 2.93989,-0.63948 3.71752,-0.12488 0.82278,0.5445 0.92489,2.00723 0.21769,3.11874 -0.54528,0.85701 -1.65605,1.7069 -2.86049,2.18865 -0.60081,0.24032 -0.70914,0.2577 -1.53525,0.24646 -0.48886,-0.007 -1.11756,-0.0626 -1.39712,-0.12441 -0.27957,-0.0618 -0.52661,-0.0827 -0.549,-0.0464 -0.0224,0.0362 -0.0594,0.23946 -0.0823,0.4516 -0.14678,1.3618 1.42463,1.69125 3.9083,0.81938 1.84862,-0.64893 4.24754,-2.10591 5.70713,-3.46618 0.58127,-0.5417 0.90745,-0.72478 1.29137,-0.72478 0.51683,0 0.78893,0.6498 0.50075,1.19585 -0.45341,0.85912 -3.28036,2.92829 -5.62183,4.11489 -1.72122,0.87224 -2.82698,1.12135 -4.67833,1.05395 -1.14405,-0.0417 -1.68101,-0.19555 -2.21288,-0.63424 -0.34945,-0.28824 -0.67578,-0.87785 -0.75294,-1.36043 -0.029,-0.18144 -0.0701,-0.32988 -0.0912,-0.32988 -0.0212,-2e-5 -0.37102,0.28416 -0.7775,0.63147 -2.42085,2.06854 -4.36924,3.03452 -5.84304,2.8969 -1.75986,-0.16434 -2.54561,-1.48787 -2.31332,-3.89657 0.0469,-0.48634 0.0773,-0.89359 0.0675,-0.90499 -0.01,-0.0114 -0.39121,0.14258 -0.84763,0.34219 -0.45641,0.19961 -1.41671,0.56742 -2.13399,0.81734 -0.71728,0.24993 -1.44959,0.52824 -1.62735,0.61848 -0.17777,0.0902 -0.8702,0.70024 -1.53874,1.35559 -1.74117,1.70679 -2.79807,2.35056 -3.88237,2.36477 -0.81852,0.0107 -1.34926,-0.4403 -1.45486,-1.23637 -0.0493,-0.37098 -0.0625,-0.38725 -0.35492,-0.43401 -0.54429,-0.087 -1.14154,-0.82714 -1.25869,-1.55977 l -0.0525,-0.32797 -0.87941,0.59433 c -1.92357,1.29997 -3.478,1.79825 -4.62022,1.48106 -0.41839,-0.11619 -0.79587,-0.46913 -1.02502,-0.95839 -0.10572,-0.22572 -0.22328,-0.4104 -0.26122,-0.4104 -0.038,-3e-5 -0.32006,0.12642 -0.62688,0.28093 -0.80577,0.40582 -1.61225,0.61254 -2.59272,0.66468 -1.04555,0.0556 -1.6254,-0.0842 -2.09017,-0.50414 l -0.30915,-0.27929 -0.183,0.50473 c -0.10066,0.2776 -0.41695,0.9726 -0.70287,1.54443 -1.36322,2.7264 -2.48442,3.9507 -3.88669,4.24409 -0.5402,0.11302 -0.6554,0.11118 -0.90506,-0.0145 z m 22.50953,-5.6893 c 0.23996,-0.20718 0.42211,-0.71407 0.40477,-0.73142 -0.12407,-0.12408 -1.58244,0.83878 -1.58244,1.05498 0,0.11029 0.69135,0.0963 1.17767,-0.32356 z m -13.69269,-1.54902 c 1.57922,-0.54333 2.81867,-1.54534 3.50118,-2.83057 0.38169,-0.71873 0.78683,-1.22855 1.16836,-1.47028 0.19217,-0.1217 0.19289,-0.12726 0.0658,-0.48197 -0.0707,-0.19736 -0.15112,-0.49709 -0.17863,-0.66607 -0.0275,-0.169 -0.1012,-0.3269 -0.16376,-0.35091 -0.26418,-0.10136 -1.68479,0.51994 -2.58409,1.13018 -1.58234,1.0737 -3.10347,3.11275 -3.10913,4.16777 -0.003,0.65538 0.40064,0.81138 1.30029,0.50185 z m 14.45416,-1.06966 1.33312,-0.45637 0.46038,-0.82879 c 0.59987,-1.07991 1.28445,-2.74982 1.303,-3.17844 0.0142,-0.3278 0.009,-0.33496 -0.22788,-0.30808 -0.13332,0.0151 -0.50311,0.13551 -0.82174,0.26745 -1.7951,0.74339 -3.67359,2.77896 -4.39913,4.767 -0.12832,0.35159 -0.23331,0.69124 -0.23331,0.75479 0,0.081 0.18715,0.0144 0.62623,-0.22284 0.3444,-0.18612 1.22612,-0.54373 1.95933,-0.79473 z m 21.85185,-2.47791 c 0.49059,-0.17183 1.13977,-0.75049 1.57776,-1.40641 0.17957,-0.26888 0.32648,-0.52111 0.32648,-0.56048 0,-0.2153 -1.17625,0.0157 -1.91147,0.37545 -0.48133,0.23548 -1.57292,1.02435 -1.87816,1.35729 -0.22272,0.24293 -0.19953,0.26241 0.44843,0.3768 0.47856,0.0845 0.91107,0.0415 1.43696,-0.14265 z m -38.9412,-6.80932 c 1.03,-3.06589 1.60551,-4.92229 1.54479,-4.98301 -0.0953,-0.0953 -3.86177,0.95706 -5.01838,1.40219 -0.4006,0.15422 -0.7992,0.33302 -0.88574,0.39742 -0.15558,0.11573 -0.15541,0.12105 0.0122,0.46592 0.0932,0.19186 0.40391,0.71127 0.69047,1.15426 0.72638,1.12296 1.40243,2.31048 2.0353,3.57515 0.29703,0.59357 0.55458,1.0647 0.57233,1.04695 0.0177,-0.0177 0.48983,-1.39424 1.04908,-3.05889 z m 31.31248,0.0684 c 1.78289,-2.3565 3.43939,-5.13874 4.39252,-7.37758 0.46088,-1.08258 1.04028,-2.62609 0.98578,-2.62609 -0.0688,-2e-5 -1.13165,1.49316 -1.9268,2.70688 -1.52583,2.32907 -2.90096,4.71561 -4.42424,7.67828 l -0.82988,1.61403 0.54381,-0.52522 c 0.29908,-0.28887 0.86556,-0.95049 1.25881,-1.47029 z"
       id="path5222"
       sodipodi:nodetypes="sssscsssssssssssssssssssssccsscsscsssccsssssssssssssssssssssssssssssssssssssssssssssssssssssssscssssssscssssssssssssssssssscsssssssssssssssssssssssssssssscss" />
    <path
       id="path5224"
       style="fill:none;stroke:#ff0000;stroke-width:0.264583;stroke-dasharray:none;stroke-opacity:1;stop-color:#000000"
       d="m -275.44262,44.828742 c -1.59099,0 -2.87217,1.28066 -2.87217,2.87166 v 9.25628 c 0,1.591 1.28118,2.87217 2.87217,2.87217 h 14.25598 c 1.591,0 2.87218,-1.28117 2.87218,-2.87217 v -9.25628 c 0,-1.591 -1.28118,-2.87166 -2.87218,-2.87166 h -5.37796 v 6.72 h -3.50005 v -6.72 z" />
    <path
       id="path6509"
       style="fill:none;stroke:#ff0000;stroke-width:0.264583;stroke-dasharray:none;stroke-opacity:1;stop-color:#000000"
       d="m -187.53612,25.712182 c -1.591,0 -2.87218,1.28066 -2.87218,2.87166 v 9.25628 c 0,1.591 1.28118,2.87217 2.87218,2.87217 h 14.25598 c 1.591,0 2.87217,-1.28117 2.87217,-2.87217 v -9.25628 c 0,-1.591 -1.28117,-2.87166 -2.87217,-2.87166 h -5.37797 v 6.72 h -3.50005 v -6.72 z" />
    <path
       style="vector-effect:non-scaling-stroke;fill:none;stroke:#ff0000;stroke-width:0.264583;stroke-dasharray:none;stroke-opacity:1;-inkscape-stroke:hairline"
       d="m -162.51071,58.691062 c -0.14619,-0.0736 -0.20944,-0.17932 -0.22923,-0.38243 -0.0368,-0.38462 0.0591,-0.67483 0.85314,-2.58385 0.379,-0.91104 1.3183,-3.22795 2.08737,-5.14866 l 1.39832,-3.49223 -0.19672,-0.87113 c -0.37395,-1.65592 -0.7873,-2.71441 -1.49525,-3.82891 -0.9702,-1.52735 -2.08042,-2.82186 -2.90278,-3.38463 -0.65899,-0.45098 -0.75577,-0.58481 -0.73923,-1.02218 0.0586,-1.54799 1.83011,-2.43047 7.36503,-3.66878 1.74345,-0.39005 2.21247,-0.56525 2.33396,-0.87177 0.0469,-0.11836 0.19582,-0.68419 0.33089,-1.25737 0.23273,-0.98757 0.4206,-1.44244 0.68715,-1.66365 0.20193,-0.16756 0.70586,-0.24326 1.03524,-0.15545 0.64734,0.17258 0.77424,0.8456 0.41796,2.21687 -0.11252,0.43306 -0.19434,0.79501 -0.18181,0.80435 0.0126,0.009 1.04088,-0.12122 2.28524,-0.29014 5.06557,-0.68763 9.21936,-1.12229 10.72532,-1.12228 0.98587,0 1.182,0.0648 1.58508,0.5239 0.45042,0.51301 0.30627,1.21725 -0.31493,1.53849 -0.31685,0.16386 -1.49905,0.27773 -2.90518,0.27986 -2.09353,0.003 -5.42356,0.26894 -8.16107,0.65132 -1.81816,0.25396 -3.82654,0.63932 -3.89355,0.74707 -0.0334,0.0536 -0.24,0.62473 -0.45922,1.26912 -0.21925,0.6444 -0.98034,2.80789 -1.69134,4.80776 -0.71099,1.99986 -1.3676,3.89064 -1.45913,4.20173 -0.23341,0.79329 -0.41544,1.90498 -0.41519,2.53567 l 2.3e-4,0.53483 0.29205,-0.48482 c 1.20137,-1.99429 3.70004,-3.97996 5.80813,-4.61566 0.31637,-0.0954 0.75153,-0.14714 1.25245,-0.14893 0.64133,-0.002 0.82968,0.0279 1.14485,0.18307 1.22077,0.60136 1.69739,2.31848 0.85005,3.06245 l -0.26366,0.23145 0.15597,0.26708 c 0.14392,0.24636 0.14642,0.28688 0.0326,0.52259 -0.0679,0.14053 -0.47468,0.70596 -0.9041,1.2565 -0.98897,1.26795 -1.02917,1.34728 -0.99934,1.97179 l 0.024,0.50173 0.37783,0.0244 c 0.43639,0.0282 0.99999,-0.22383 2.00581,-0.89684 2.13164,-1.42631 3.67247,-3.0481 4.96218,-5.22287 1.15629,-1.94978 4.74477,-8.63387 6.4448,-12.00445 0.62763,-1.24437 1.28307,-2.47225 1.45655,-2.72863 0.49081,-0.7254 1.12172,-1.06525 1.60553,-0.86484 0.49547,0.20524 0.60056,0.79999 0.30862,1.74671 -0.23767,0.77078 -0.31417,0.91061 -2.5236,4.61261 -1.96621,3.29448 -3.37484,5.75337 -4.34059,7.5769 -0.42368,0.79999 -0.47875,0.94534 -0.31477,0.83078 0.82575,-0.57692 2.02873,-1.15352 2.67916,-1.28415 0.53973,-0.10838 0.94465,-0.0124 1.49056,0.35346 1.01295,0.67881 1.07534,1.80574 0.22922,4.13996 -0.20473,0.56479 -0.3555,1.04362 -0.33504,1.06408 0.054,0.054 2.24603,-0.82562 2.99575,-1.20218 1.32215,-0.66406 1.3493,-0.69979 2.19788,-2.89191 1.34486,-3.47418 4.12269,-8.61243 6.62114,-12.24741 2.55666,-3.71966 4.37047,-5.24855 5.19076,-4.37539 0.30559,0.32528 0.42082,0.73519 0.4208,1.49719 -1e-5,1.27985 -0.44498,2.60858 -1.77762,5.30809 -2.29034,4.63949 -5.04645,8.34851 -7.9362,10.68007 -0.66402,0.53575 -0.9673,0.83387 -1.00042,0.98337 -0.0935,0.42203 -0.13203,0.51776 -0.31987,0.79455 -0.24921,0.36724 -0.47094,0.97006 -0.71461,1.94279 -0.39949,1.59486 -0.35587,2.29536 0.17606,2.82729 0.2757,0.27571 0.30233,0.28432 0.75268,0.24348 1.49502,-0.13556 3.78289,-1.94169 7.98969,-6.30733 1.0084,-1.04649 1.65122,-1.54845 2.44239,-1.90718 1.28796,-0.584 2.93989,-0.63948 3.71752,-0.12488 0.82278,0.5445 0.92489,2.00723 0.21769,3.11874 -0.54528,0.85701 -1.65605,1.7069 -2.86049,2.18865 -0.60081,0.24032 -0.70914,0.2577 -1.53525,0.24646 -0.48886,-0.007 -1.11756,-0.0626 -1.39712,-0.12441 -0.27957,-0.0618 -0.52661,-0.0827 -0.549,-0.0464 -0.0224,0.0362 -0.0594,0.23946 -0.0823,0.4516 -0.14678,1.3618 1.42463,1.69125 3.9083,0.81938 1.84862,-0.64893 4.24754,-2.10591 5.70713,-3.46618 0.58127,-0.5417 0.90745,-0.72478 1.29137,-0.72478 0.51683,0 0.78893,0.6498 0.50075,1.19585 -0.45341,0.85912 -3.28036,2.92829 -5.62183,4.11489 -1.72122,0.87224 -2.82698,1.12135 -4.67833,1.05395 -1.14405,-0.0417 -1.68101,-0.19555 -2.21288,-0.63424 -0.34945,-0.28824 -0.67578,-0.87785 -0.75294,-1.36043 -0.029,-0.18144 -0.0701,-0.32988 -0.0912,-0.32988 -0.0212,-2e-5 -0.37102,0.28416 -0.7775,0.63147 -2.42085,2.06854 -4.36924,3.03452 -5.84304,2.8969 -1.75986,-0.16434 -2.54561,-1.48787 -2.31332,-3.89657 0.0469,-0.48634 0.0773,-0.89359 0.0675,-0.90499 -0.01,-0.0114 -0.39121,0.14258 -0.84763,0.34219 -0.45641,0.19961 -1.41671,0.56742 -2.13399,0.81734 -0.71728,0.24993 -1.44959,0.52824 -1.62735,0.61848 -0.17777,0.0902 -0.8702,0.70024 -1.53874,1.35559 -1.74117,1.70679 -2.79807,2.35056 -3.88237,2.36477 -0.81852,0.0107 -1.34926,-0.4403 -1.45486,-1.23637 -0.0493,-0.37098 -0.0625,-0.38725 -0.35492,-0.43401 -0.54429,-0.087 -1.14154,-0.82714 -1.25869,-1.55977 l -0.0525,-0.32797 -0.87941,0.59433 c -1.92357,1.29997 -3.478,1.79825 -4.62022,1.48106 -0.41839,-0.11619 -0.79587,-0.46913 -1.02502,-0.95839 -0.10572,-0.22572 -0.22328,-0.4104 -0.26122,-0.4104 -0.038,-3e-5 -0.32006,0.12642 -0.62688,0.28093 -0.80577,0.40582 -1.61225,0.61254 -2.59272,0.66468 -1.04555,0.0556 -1.6254,-0.0842 -2.09017,-0.50414 l -0.30915,-0.27929 -0.183,0.50473 c -0.10066,0.2776 -0.41695,0.9726 -0.70287,1.54443 -1.36322,2.7264 -2.48442,3.9507 -3.88669,4.24409 -0.5402,0.11302 -0.6554,0.11118 -0.90506,-0.0145 z m 22.50953,-5.6893 c 0.23996,-0.20718 0.42211,-0.71407 0.40477,-0.73142 -0.12407,-0.12408 -1.58244,0.83878 -1.58244,1.05498 0,0.11029 0.69135,0.0963 1.17767,-0.32356 z m -13.69269,-1.54902 c 1.57922,-0.54333 2.81867,-1.54534 3.50118,-2.83057 0.38169,-0.71873 0.78683,-1.22855 1.16836,-1.47028 0.19217,-0.1217 0.19289,-0.12726 0.0658,-0.48197 -0.0707,-0.19736 -0.15112,-0.49709 -0.17863,-0.66607 -0.0275,-0.169 -0.1012,-0.3269 -0.16376,-0.35091 -0.26418,-0.10136 -1.68479,0.51994 -2.58409,1.13018 -1.58234,1.0737 -3.10347,3.11275 -3.10913,4.16777 -0.003,0.65538 0.40064,0.81138 1.30029,0.50185 z m 14.45416,-1.06966 1.33312,-0.45637 0.46038,-0.82879 c 0.59987,-1.07991 1.28445,-2.74982 1.303,-3.17844 0.0142,-0.3278 0.009,-0.33496 -0.22788,-0.30808 -0.13332,0.0151 -0.50311,0.13551 -0.82174,0.26745 -1.7951,0.74339 -3.67359,2.77896 -4.39913,4.767 -0.12832,0.35159 -0.23331,0.69124 -0.23331,0.75479 0,0.081 0.18715,0.0144 0.62623,-0.22284 0.3444,-0.18612 1.22612,-0.54373 1.95933,-0.79473 z m 21.85185,-2.47791 c 0.49059,-0.17183 1.13977,-0.75049 1.57776,-1.40641 0.17957,-0.26888 0.32648,-0.52111 0.32648,-0.56048 0,-0.2153 -1.17625,0.0157 -1.91147,0.37545 -0.48133,0.23548 -1.57292,1.02435 -1.87816,1.35729 -0.22272,0.24293 -0.19953,0.26241 0.44843,0.3768 0.47856,0.0845 0.91107,0.0415 1.43696,-0.14265 z m -38.9412,-6.80932 c 1.03,-3.06589 1.60551,-4.92229 1.54479,-4.98301 -0.0953,-0.0953 -3.86177,0.95706 -5.01838,1.40219 -0.4006,0.15422 -0.7992,0.33302 -0.88574,0.39742 -0.15558,0.11573 -0.15541,0.12105 0.0122,0.46592 0.0932,0.19186 0.40391,0.71127 0.69047,1.15426 0.72638,1.12296 1.40243,2.31048 2.0353,3.57515 0.29703,0.59357 0.55458,1.0647 0.57233,1.04695 0.0177,-0.0177 0.48983,-1.39424 1.04908,-3.05889 z m 31.31248,0.0684 c 1.78289,-2.3565 3.43939,-5.13874 4.39252,-7.37758 0.46088,-1.08258 1.04028,-2.62609 0.98578,-2.62609 -0.0688,-2e-5 -1.13165,1.49316 -1.9268,2.70688 -1.52583,2.32907 -2.90096,4.71561 -4.42424,7.67828 l -0.82988,1.61403 0.54381,-0.52522 c 0.29908,-0.28887 0.86556,-0.95049 1.25881,-1.47029 z"
       id="path6511"
       sodipodi:nodetypes="sssscsssssssssssssssssssssccsscsscsssccsssssssssssssssssssssssssssssssssssssssssssssssssssssssscssssssscssssssssssssssssssscsssssssssssssssssssssssssssssscss" />
    <path
       id="path6513"
       style="fill:none;stroke:#ff0000;stroke-width:0.264583;stroke-dasharray:none;stroke-opacity:1;stop-color:#000000"
       d="m -188.10677,44.828742 c -1.59099,0 -2.87217,1.28066 -2.87217,2.87166 v 9.25628 c 0,1.591 1.28118,2.87217 2.87217,2.87217 h 14.25598 c 1.591,0 2.87218,-1.28117 2.87218,-2.87217 v -9.25628 c 0,-1.591 -1.28118,-2.87166 -2.87218,-2.87166 h -5.37796 v 6.72 h -3.50005 v -6.72 z" />
    <path
       id="path6515"
       style="fill:none;stroke:#ff0000;stroke-width:0.264583;stroke-dasharray:none;stroke-opacity:1;stop-color:#000000"
       d="m -350.32539,68.544351 c -1.591,0 -2.87218,1.28066 -2.87218,2.87166 v 9.25628 c 0,1.591 1.28118,2.87217 2.87218,2.87217 h 14.25598 c 1.591,0 2.87217,-1.28117 2.87217,-2.87217 v -9.25628 c 0,-1.591 -1.28117,-2.87166 -2.87217,-2.87166 h -5.37797 v 6.72 h -3.50005 v -6.72 z" />
    <path
       style="vector-effect:non-scaling-stroke;fill:none;stroke:#ff0000;stroke-width:0.264583;stroke-dasharray:none;stroke-opacity:1;-inkscape-stroke:hairline"
       d="m -325.29998,101.52323 c -0.14619,-0.0736 -0.20944,-0.17932 -0.22923,-0.38243 -0.0368,-0.38462 0.0591,-0.67483 0.85314,-2.583847 0.379,-0.91104 1.3183,-3.22795 2.08737,-5.148662 l 1.39832,-3.49223 -0.19672,-0.87113 c -0.37395,-1.65592 -0.7873,-2.71441 -1.49525,-3.82891 -0.9702,-1.52735 -2.08042,-2.82186 -2.90278,-3.38463 -0.65899,-0.45098 -0.75577,-0.58481 -0.73923,-1.02218 0.0586,-1.54799 1.83011,-2.43047 7.36503,-3.66878 1.74345,-0.39005 2.21247,-0.56525 2.33396,-0.87177 0.0469,-0.11836 0.19582,-0.68419 0.33089,-1.25737 0.23273,-0.98757 0.4206,-1.44244 0.68715,-1.66365 0.20193,-0.16756 0.70586,-0.24326 1.03524,-0.15545 0.64734,0.17258 0.77424,0.8456 0.41796,2.21687 -0.11252,0.43306 -0.19434,0.79501 -0.18181,0.80435 0.0126,0.009 1.04088,-0.12122 2.28524,-0.29014 5.06557,-0.68763 9.21936,-1.12229 10.72532,-1.12228 0.98587,0 1.182,0.0648 1.58508,0.5239 0.45042,0.51301 0.30627,1.21725 -0.31493,1.53849 -0.31685,0.16386 -1.49905,0.27773 -2.90518,0.27986 -2.09353,0.003 -5.42356,0.26894 -8.16107,0.65132 -1.81816,0.25396 -3.82654,0.63932 -3.89355,0.74707 -0.0334,0.0536 -0.24,0.62473 -0.45922,1.26912 -0.21925,0.6444 -0.98034,2.80789 -1.69134,4.80776 -0.71099,1.99986 -1.3676,3.89064 -1.45913,4.20173 -0.23341,0.79329 -0.41544,1.90498 -0.41519,2.53567 l 2.3e-4,0.53483 0.29205,-0.48482 c 1.20137,-1.99429 3.70004,-3.97996 5.80813,-4.61566 0.31637,-0.0954 0.75153,-0.14714 1.25245,-0.14893 0.64133,-0.002 0.82968,0.0279 1.14485,0.18307 1.22077,0.60136 1.69739,2.31848 0.85005,3.06245 l -0.26366,0.23145 0.15597,0.26708 c 0.14392,0.24636 0.14642,0.28688 0.0326,0.52259 -0.0679,0.14053 -0.47468,0.70596 -0.9041,1.2565 -0.98897,1.26795 -1.02917,1.34728 -0.99934,1.97179 l 0.024,0.50173 0.37783,0.0244 c 0.43639,0.0282 0.99999,-0.22383 2.00581,-0.89684 2.13164,-1.42631 3.67247,-3.0481 4.96218,-5.22287 1.15629,-1.94978 4.74477,-8.63387 6.4448,-12.00445 0.62763,-1.24437 1.28307,-2.47225 1.45655,-2.72863 0.49081,-0.7254 1.12172,-1.06525 1.60553,-0.86484 0.49547,0.20524 0.60056,0.79999 0.30862,1.74671 -0.23767,0.77078 -0.31417,0.91061 -2.5236,4.61261 -1.96621,3.29448 -3.37484,5.75337 -4.34059,7.5769 -0.42368,0.79999 -0.47875,0.94534 -0.31477,0.83078 0.82575,-0.57692 2.02873,-1.15352 2.67916,-1.28415 0.53973,-0.10838 0.94465,-0.0124 1.49056,0.35346 1.01295,0.67881 1.07534,1.80574 0.22922,4.13996 -0.20473,0.56479 -0.3555,1.04362 -0.33504,1.06408 0.054,0.054 2.24603,-0.82562 2.99575,-1.20218 1.32215,-0.66406 1.3493,-0.69979 2.19788,-2.89191 1.34486,-3.47418 4.12269,-8.61243 6.62114,-12.24741 2.55666,-3.71966 4.37047,-5.24855 5.19076,-4.37539 0.30559,0.32528 0.42082,0.73519 0.4208,1.49719 -10e-6,1.27985 -0.44498,2.60858 -1.77762,5.30809 -2.29034,4.63949 -5.04645,8.34851 -7.9362,10.68007 -0.66402,0.53575 -0.9673,0.83387 -1.00042,0.98337 -0.0935,0.42203 -0.13203,0.51776 -0.31987,0.79455 -0.24921,0.36724 -0.47094,0.97006 -0.71461,1.94279 -0.39949,1.59486 -0.35587,2.295362 0.17606,2.827292 0.2757,0.27571 0.30233,0.28432 0.75268,0.24348 1.49502,-0.13556 3.78289,-1.941692 7.98969,-6.307332 1.0084,-1.04649 1.65122,-1.54845 2.44239,-1.90718 1.28796,-0.584 2.93989,-0.63948 3.71752,-0.12488 0.82278,0.5445 0.92489,2.00723 0.21769,3.11874 -0.54528,0.85701 -1.65605,1.7069 -2.86049,2.18865 -0.60081,0.24032 -0.70914,0.2577 -1.53525,0.24646 -0.48886,-0.007 -1.11756,-0.0626 -1.39712,-0.12441 -0.27957,-0.0618 -0.52661,-0.0827 -0.549,-0.0464 -0.0224,0.0362 -0.0594,0.23946 -0.0823,0.4516 -0.14678,1.3618 1.42463,1.691252 3.9083,0.81938 1.84862,-0.64893 4.24754,-2.10591 5.70713,-3.46618 0.58127,-0.5417 0.90745,-0.72478 1.29137,-0.72478 0.51683,0 0.78893,0.6498 0.50075,1.19585 -0.45341,0.85912 -3.28036,2.92829 -5.62183,4.114892 -1.72122,0.87224 -2.82698,1.12135 -4.67833,1.05395 -1.14405,-0.0417 -1.68101,-0.19555 -2.21288,-0.63424 -0.34945,-0.28824 -0.67578,-0.877852 -0.75294,-1.360432 -0.029,-0.18144 -0.0701,-0.32988 -0.0912,-0.32988 -0.0212,-2e-5 -0.37102,0.28416 -0.7775,0.63147 -2.42085,2.068542 -4.36924,3.034522 -5.84304,2.896902 -1.75986,-0.16434 -2.54561,-1.48787 -2.31332,-3.896572 0.0469,-0.48634 0.0773,-0.89359 0.0675,-0.90499 -0.01,-0.0114 -0.39121,0.14258 -0.84763,0.34219 -0.45641,0.19961 -1.41671,0.56742 -2.13399,0.81734 -0.71728,0.24993 -1.44959,0.52824 -1.62735,0.61848 -0.17777,0.0902 -0.8702,0.700242 -1.53874,1.355592 -1.74117,1.70679 -2.79807,2.35056 -3.88237,2.36477 -0.81852,0.0107 -1.34926,-0.4403 -1.45486,-1.23637 -0.0493,-0.37098 -0.0625,-0.38725 -0.35492,-0.43401 -0.54429,-0.087 -1.14154,-0.82714 -1.25869,-1.559772 l -0.0525,-0.32797 -0.87941,0.594332 c -1.92357,1.29997 -3.478,1.79825 -4.62022,1.48106 -0.41839,-0.11619 -0.79587,-0.46913 -1.02502,-0.95839 -0.10572,-0.22572 -0.22328,-0.4104 -0.26122,-0.4104 -0.038,-3e-5 -0.32006,0.12642 -0.62688,0.28093 -0.80577,0.40582 -1.61225,0.61254 -2.59272,0.66468 -1.04555,0.0556 -1.6254,-0.0842 -2.09017,-0.50414 l -0.30915,-0.27929 -0.183,0.50473 c -0.10066,0.2776 -0.41695,0.9726 -0.70287,1.54443 -1.36322,2.726397 -2.48442,3.950697 -3.88669,4.244087 -0.5402,0.11302 -0.6554,0.11118 -0.90506,-0.0145 z m 22.50953,-5.689297 c 0.23996,-0.20718 0.42211,-0.71407 0.40477,-0.73142 -0.12407,-0.12408 -1.58244,0.83878 -1.58244,1.05498 0,0.11029 0.69135,0.0963 1.17767,-0.32356 z m -13.69269,-1.549022 c 1.57922,-0.54333 2.81867,-1.54534 3.50118,-2.83057 0.38169,-0.71873 0.78683,-1.22855 1.16836,-1.47028 0.19217,-0.1217 0.19289,-0.12726 0.0658,-0.48197 -0.0707,-0.19736 -0.15112,-0.49709 -0.17863,-0.66607 -0.0275,-0.169 -0.1012,-0.3269 -0.16376,-0.35091 -0.26418,-0.10136 -1.68479,0.51994 -2.58409,1.13018 -1.58234,1.0737 -3.10347,3.11275 -3.10913,4.16777 -0.003,0.65538 0.40064,0.81138 1.30029,0.50185 z m 14.45416,-1.06966 1.33312,-0.45637 0.46038,-0.82879 c 0.59987,-1.07991 1.28445,-2.74982 1.303,-3.17844 0.0142,-0.3278 0.009,-0.33496 -0.22788,-0.30808 -0.13332,0.0151 -0.50311,0.13551 -0.82174,0.26745 -1.7951,0.74339 -3.67359,2.77896 -4.39913,4.767 -0.12832,0.35159 -0.23331,0.69124 -0.23331,0.75479 0,0.081 0.18715,0.0144 0.62623,-0.22284 0.3444,-0.18612 1.22612,-0.54373 1.95933,-0.79473 z m 21.85185,-2.47791 c 0.49059,-0.17183 1.13977,-0.75049 1.57776,-1.40641 0.17957,-0.26888 0.32648,-0.52111 0.32648,-0.56048 0,-0.2153 -1.17625,0.0157 -1.91147,0.37545 -0.48133,0.23548 -1.57292,1.02435 -1.87816,1.35729 -0.22272,0.24293 -0.19953,0.26241 0.44843,0.3768 0.47856,0.0845 0.91107,0.0415 1.43696,-0.14265 z m -38.9412,-6.80932 c 1.03,-3.06589 1.60551,-4.92229 1.54479,-4.98301 -0.0953,-0.0953 -3.86177,0.95706 -5.01838,1.40219 -0.4006,0.15422 -0.7992,0.33302 -0.88574,0.39742 -0.15558,0.11573 -0.15541,0.12105 0.0122,0.46592 0.0932,0.19186 0.40391,0.71127 0.69047,1.15426 0.72638,1.12296 1.40243,2.31048 2.0353,3.57515 0.29703,0.59357 0.55458,1.0647 0.57233,1.04695 0.0177,-0.0177 0.48983,-1.39424 1.04908,-3.05889 z m 31.31248,0.0684 c 1.78289,-2.3565 3.43939,-5.13874 4.39252,-7.37758 0.46088,-1.08258 1.04028,-2.62609 0.98578,-2.62609 -0.0688,-2e-5 -1.13165,1.49316 -1.9268,2.70688 -1.52583,2.32907 -2.90096,4.71561 -4.42424,7.67828 l -0.82988,1.61403 0.54381,-0.52522 c 0.29908,-0.28887 0.86556,-0.95049 1.25881,-1.47029 z"
       id="path6517"
       sodipodi:nodetypes="sssscsssssssssssssssssssssccsscsscsssccsssssssssssssssssssssssssssssssssssssssssssssssssssssssscssssssscssssssssssssssssssscsssssssssssssssssssssssssssssscss" />
    <path
       id="path6519"
       style="fill:none;stroke:#ff0000;stroke-width:0.264583;stroke-dasharray:none;stroke-opacity:1;stop-color:#000000"
       d="m -350.89604,87.660911 c -1.59099,0 -2.87217,1.28066 -2.87217,2.87166 v 9.256282 c 0,1.590997 1.28118,2.872167 2.87217,2.872167 h 14.25598 c 1.591,0 2.87218,-1.28117 2.87218,-2.872167 v -9.256282 c 0,-1.591 -1.28118,-2.87166 -2.87218,-2.87166 h -5.37796 v 6.72 h -3.50005 v -6.72 z" />
    <path
       id="path6521"
       style="fill:none;stroke:#ff0000;stroke-width:0.264583;stroke-dasharray:none;stroke-opacity:1;stop-color:#000000"
       d="m -260.61305,69.138472 c -1.591,0 -2.87218,1.28066 -2.87218,2.87166 v 9.25628 c 0,1.591 1.28118,2.87217 2.87218,2.87217 h 14.25598 c 1.591,0 2.87217,-1.28117 2.87217,-2.87217 v -9.25628 c 0,-1.591 -1.28117,-2.87166 -2.87217,-2.87166 h -5.37797 v 6.72 h -3.50005 v -6.72 z" />
    <path
       style="vector-effect:non-scaling-stroke;fill:none;stroke:#ff0000;stroke-width:0.264583;stroke-dasharray:none;stroke-opacity:1;-inkscape-stroke:hairline"
       d="m -235.58764,102.11735 c -0.14619,-0.0736 -0.20944,-0.17932 -0.22923,-0.38243 -0.0368,-0.38462 0.0591,-0.67483 0.85314,-2.583847 0.379,-0.91104 1.3183,-3.22795 2.08737,-5.148661 l 1.39832,-3.49223 -0.19672,-0.87113 c -0.37395,-1.65592 -0.7873,-2.71441 -1.49525,-3.82891 -0.9702,-1.52735 -2.08042,-2.82186 -2.90278,-3.38463 -0.65899,-0.45098 -0.75577,-0.58481 -0.73923,-1.02218 0.0586,-1.54799 1.83011,-2.43047 7.36503,-3.66878 1.74345,-0.39005 2.21247,-0.56525 2.33396,-0.87177 0.0469,-0.11836 0.19582,-0.68419 0.33089,-1.25737 0.23273,-0.98757 0.4206,-1.44244 0.68715,-1.66365 0.20193,-0.16756 0.70586,-0.24326 1.03524,-0.15545 0.64734,0.17258 0.77424,0.8456 0.41796,2.21687 -0.11252,0.43306 -0.19434,0.79501 -0.18181,0.80435 0.0126,0.009 1.04088,-0.12122 2.28524,-0.29014 5.06557,-0.68763 9.21936,-1.12229 10.72532,-1.12228 0.98587,0 1.182,0.0648 1.58508,0.5239 0.45042,0.51301 0.30627,1.21725 -0.31493,1.53849 -0.31685,0.16386 -1.49905,0.27773 -2.90518,0.27986 -2.09353,0.003 -5.42356,0.26894 -8.16107,0.65132 -1.81816,0.25396 -3.82654,0.63932 -3.89355,0.74707 -0.0334,0.0536 -0.24,0.62473 -0.45922,1.26912 -0.21925,0.6444 -0.98034,2.80789 -1.69134,4.80776 -0.71099,1.99986 -1.3676,3.89064 -1.45913,4.20173 -0.23341,0.79329 -0.41544,1.90498 -0.41519,2.53567 l 2.3e-4,0.53483 0.29205,-0.48482 c 1.20137,-1.99429 3.70004,-3.97996 5.80813,-4.61566 0.31637,-0.0954 0.75153,-0.14714 1.25245,-0.14893 0.64133,-0.002 0.82968,0.0279 1.14485,0.18307 1.22077,0.60136 1.69739,2.31848 0.85005,3.06245 l -0.26366,0.23145 0.15597,0.26708 c 0.14392,0.24636 0.14642,0.28688 0.0326,0.52259 -0.0679,0.14053 -0.47468,0.70596 -0.9041,1.2565 -0.98897,1.26795 -1.02917,1.34728 -0.99934,1.971791 l 0.024,0.50173 0.37783,0.0244 c 0.43639,0.0282 0.99999,-0.22383 2.00581,-0.896841 2.13164,-1.42631 3.67247,-3.0481 4.96218,-5.22287 1.15629,-1.94978 4.74477,-8.63387 6.4448,-12.00445 0.62763,-1.24437 1.28307,-2.47225 1.45655,-2.72863 0.49081,-0.7254 1.12172,-1.06525 1.60553,-0.86484 0.49547,0.20524 0.60056,0.79999 0.30862,1.74671 -0.23767,0.77078 -0.31417,0.91061 -2.5236,4.61261 -1.96621,3.29448 -3.37484,5.75337 -4.34059,7.5769 -0.42368,0.79999 -0.47875,0.94534 -0.31477,0.83078 0.82575,-0.57692 2.02873,-1.15352 2.67916,-1.28415 0.53973,-0.10838 0.94465,-0.0124 1.49056,0.35346 1.01295,0.67881 1.07534,1.80574 0.22922,4.13996 -0.20473,0.56479 -0.3555,1.04362 -0.33504,1.06408 0.054,0.054 2.24603,-0.82562 2.99575,-1.20218 1.32215,-0.66406 1.3493,-0.69979 2.19788,-2.89191 1.34486,-3.47418 4.12269,-8.61243 6.62114,-12.24741 2.55666,-3.71966 4.37047,-5.24855 5.19076,-4.37539 0.30559,0.32528 0.42082,0.73519 0.4208,1.49719 -10e-6,1.27985 -0.44498,2.60858 -1.77762,5.30809 -2.29034,4.63949 -5.04645,8.34851 -7.9362,10.68007 -0.66402,0.53575 -0.9673,0.83387 -1.00042,0.98337 -0.0935,0.42203 -0.13203,0.51776 -0.31987,0.79455 -0.24921,0.36724 -0.47094,0.97006 -0.71461,1.94279 -0.39949,1.59486 -0.35587,2.295361 0.17606,2.827291 0.2757,0.27571 0.30233,0.28432 0.75268,0.24348 1.49502,-0.13556 3.78289,-1.941691 7.98969,-6.307331 1.0084,-1.04649 1.65122,-1.54845 2.44239,-1.90718 1.28796,-0.584 2.93989,-0.63948 3.71752,-0.12488 0.82278,0.5445 0.92489,2.00723 0.21769,3.11874 -0.54528,0.85701 -1.65605,1.7069 -2.86049,2.18865 -0.60081,0.24032 -0.70914,0.2577 -1.53525,0.24646 -0.48886,-0.007 -1.11756,-0.0626 -1.39712,-0.12441 -0.27957,-0.0618 -0.52661,-0.0827 -0.549,-0.0464 -0.0224,0.0362 -0.0594,0.23946 -0.0823,0.4516 -0.14678,1.361801 1.42463,1.691251 3.9083,0.81938 1.84862,-0.64893 4.24754,-2.10591 5.70713,-3.46618 0.58127,-0.5417 0.90745,-0.72478 1.29137,-0.72478 0.51683,0 0.78893,0.6498 0.50075,1.19585 -0.45341,0.85912 -3.28036,2.92829 -5.62183,4.114891 -1.72122,0.87224 -2.82698,1.12135 -4.67833,1.05395 -1.14405,-0.0417 -1.68101,-0.19555 -2.21288,-0.63424 -0.34945,-0.28824 -0.67578,-0.87785 -0.75294,-1.360431 -0.029,-0.18144 -0.0701,-0.32988 -0.0912,-0.32988 -0.0212,-2e-5 -0.37102,0.28416 -0.7775,0.631471 -2.42085,2.06854 -4.36924,3.03452 -5.84304,2.8969 -1.75986,-0.16434 -2.54561,-1.48787 -2.31332,-3.896571 0.0469,-0.48634 0.0773,-0.89359 0.0675,-0.90499 -0.01,-0.0114 -0.39121,0.14258 -0.84763,0.34219 -0.45641,0.19961 -1.41671,0.56742 -2.13399,0.81734 -0.71728,0.24993 -1.44959,0.528241 -1.62735,0.618481 -0.17777,0.0902 -0.8702,0.70024 -1.53874,1.35559 -1.74117,1.70679 -2.79807,2.35056 -3.88237,2.36477 -0.81852,0.0107 -1.34926,-0.4403 -1.45486,-1.23637 -0.0493,-0.37098 -0.0625,-0.38725 -0.35492,-0.43401 -0.54429,-0.087 -1.14154,-0.82714 -1.25869,-1.55977 l -0.0525,-0.32797 -0.87941,0.59433 c -1.92357,1.29997 -3.478,1.79825 -4.62022,1.48106 -0.41839,-0.11619 -0.79587,-0.46913 -1.02502,-0.95839 -0.10572,-0.22572 -0.22328,-0.4104 -0.26122,-0.4104 -0.038,-3e-5 -0.32006,0.12642 -0.62688,0.28093 -0.80577,0.40582 -1.61225,0.61254 -2.59272,0.66468 -1.04555,0.0556 -1.6254,-0.0842 -2.09017,-0.50414 l -0.30915,-0.27929 -0.183,0.50473 c -0.10066,0.2776 -0.41695,0.9726 -0.70287,1.54443 -1.36322,2.726397 -2.48442,3.950697 -3.88669,4.244087 -0.5402,0.11302 -0.6554,0.11118 -0.90506,-0.0145 z m 22.50953,-5.689297 c 0.23996,-0.20718 0.42211,-0.71407 0.40477,-0.73142 -0.12407,-0.12408 -1.58244,0.83878 -1.58244,1.05498 0,0.11029 0.69135,0.0963 1.17767,-0.32356 z m -13.69269,-1.54902 c 1.57922,-0.543331 2.81867,-1.545341 3.50118,-2.830571 0.38169,-0.71873 0.78683,-1.22855 1.16836,-1.47028 0.19217,-0.1217 0.19289,-0.12726 0.0658,-0.48197 -0.0707,-0.19736 -0.15112,-0.49709 -0.17863,-0.66607 -0.0275,-0.169 -0.1012,-0.3269 -0.16376,-0.35091 -0.26418,-0.10136 -1.68479,0.51994 -2.58409,1.13018 -1.58234,1.0737 -3.10347,3.11275 -3.10913,4.16777 -0.003,0.655381 0.40064,0.811381 1.30029,0.501851 z m 14.45416,-1.069661 1.33312,-0.45637 0.46038,-0.82879 c 0.59987,-1.07991 1.28445,-2.74982 1.303,-3.17844 0.0142,-0.3278 0.009,-0.33496 -0.22788,-0.30808 -0.13332,0.0151 -0.50311,0.13551 -0.82174,0.26745 -1.7951,0.74339 -3.67359,2.77896 -4.39913,4.767 -0.12832,0.35159 -0.23331,0.691241 -0.23331,0.754791 0,0.081 0.18715,0.0144 0.62623,-0.222841 0.3444,-0.18612 1.22612,-0.54373 1.95933,-0.79473 z m 21.85185,-2.47791 c 0.49059,-0.17183 1.13977,-0.75049 1.57776,-1.40641 0.17957,-0.26888 0.32648,-0.52111 0.32648,-0.56048 0,-0.2153 -1.17625,0.0157 -1.91147,0.37545 -0.48133,0.23548 -1.57292,1.02435 -1.87816,1.35729 -0.22272,0.24293 -0.19953,0.26241 0.44843,0.3768 0.47856,0.0845 0.91107,0.0415 1.43696,-0.14265 z m -38.9412,-6.80932 c 1.03,-3.06589 1.60551,-4.92229 1.54479,-4.98301 -0.0953,-0.0953 -3.86177,0.95706 -5.01838,1.40219 -0.4006,0.15422 -0.7992,0.33302 -0.88574,0.39742 -0.15558,0.11573 -0.15541,0.12105 0.0122,0.46592 0.0932,0.19186 0.40391,0.71127 0.69047,1.15426 0.72638,1.12296 1.40243,2.31048 2.0353,3.57515 0.29703,0.59357 0.55458,1.0647 0.57233,1.04695 0.0177,-0.0177 0.48983,-1.39424 1.04908,-3.05889 z m 31.31248,0.0684 c 1.78289,-2.3565 3.43939,-5.13874 4.39252,-7.37758 0.46088,-1.08258 1.04028,-2.62609 0.98578,-2.62609 -0.0688,-2e-5 -1.13165,1.49316 -1.9268,2.70688 -1.52583,2.32907 -2.90096,4.71561 -4.42424,7.67828 l -0.82988,1.61403 0.54381,-0.52522 c 0.29908,-0.28887 0.86556,-0.95049 1.25881,-1.47029 z"
       id="path6523"
       sodipodi:nodetypes="sssscsssssssssssssssssssssccsscsscsssccsssssssssssssssssssssssssssssssssssssssssssssssssssssssscssssssscssssssssssssssssssscsssssssssssssssssssssssssssssscss" />
    <path
       id="path6525"
       style="fill:none;stroke:#ff0000;stroke-width:0.264583;stroke-dasharray:none;stroke-opacity:1;stop-color:#000000"
       d="m -261.1837,88.255032 c -1.59099,0 -2.87217,1.28066 -2.87217,2.87166 v 9.256278 c 0,1.591 1.28118,2.87217 2.87217,2.87217 h 14.25598 c 1.591,0 2.87218,-1.28117 2.87218,-2.87217 v -9.256278 c 0,-1.591 -1.28118,-2.87166 -2.87218,-2.87166 h -5.37796 v 6.720001 h -3.50005 v -6.720001 z" />
    <path
       id="path6527"
       style="fill:none;stroke:#ff0000;stroke-width:0.264583;stroke-dasharray:none;stroke-opacity:1;stop-color:#000000"
       d="m -169.71247,68.544351 c -1.591,0 -2.87218,1.28066 -2.87218,2.87166 v 9.25628 c 0,1.591 1.28118,2.87217 2.87218,2.87217 h 14.25598 c 1.591,0 2.87217,-1.28117 2.87217,-2.87217 v -9.25628 c 0,-1.591 -1.28117,-2.87166 -2.87217,-2.87166 h -5.37797 v 6.72 h -3.50005 v -6.72 z" />
    <path
       style="vector-effect:non-scaling-stroke;fill:none;stroke:#ff0000;stroke-width:0.264583;stroke-dasharray:none;stroke-opacity:1;-inkscape-stroke:hairline"
       d="m -144.68706,101.52323 c -0.14619,-0.0736 -0.20944,-0.17932 -0.22923,-0.38243 -0.0368,-0.38462 0.0591,-0.67483 0.85314,-2.583847 0.379,-0.91104 1.3183,-3.22795 2.08737,-5.148662 l 1.39832,-3.49223 -0.19672,-0.87113 c -0.37395,-1.65592 -0.7873,-2.71441 -1.49525,-3.82891 -0.9702,-1.52735 -2.08042,-2.82186 -2.90278,-3.38463 -0.65899,-0.45098 -0.75577,-0.58481 -0.73923,-1.02218 0.0586,-1.54799 1.83011,-2.43047 7.36503,-3.66878 1.74345,-0.39005 2.21247,-0.56525 2.33396,-0.87177 0.0469,-0.11836 0.19582,-0.68419 0.33089,-1.25737 0.23273,-0.98757 0.4206,-1.44244 0.68715,-1.66365 0.20193,-0.16756 0.70586,-0.24326 1.03524,-0.15545 0.64734,0.17258 0.77424,0.8456 0.41796,2.21687 -0.11252,0.43306 -0.19434,0.79501 -0.18181,0.80435 0.0126,0.009 1.04088,-0.12122 2.28524,-0.29014 5.06557,-0.68763 9.21936,-1.12229 10.72532,-1.12228 0.98587,0 1.182,0.0648 1.58508,0.5239 0.45042,0.51301 0.30627,1.21725 -0.31493,1.53849 -0.31685,0.16386 -1.49905,0.27773 -2.90518,0.27986 -2.09353,0.003 -5.42356,0.26894 -8.16107,0.65132 -1.81816,0.25396 -3.82654,0.63932 -3.89355,0.74707 -0.0334,0.0536 -0.24,0.62473 -0.45922,1.26912 -0.21925,0.6444 -0.98034,2.80789 -1.69134,4.80776 -0.71099,1.99986 -1.3676,3.89064 -1.45913,4.20173 -0.23341,0.79329 -0.41544,1.90498 -0.41519,2.53567 l 2.3e-4,0.53483 0.29205,-0.48482 c 1.20137,-1.99429 3.70004,-3.97996 5.80813,-4.61566 0.31637,-0.0954 0.75153,-0.14714 1.25245,-0.14893 0.64133,-0.002 0.82968,0.0279 1.14485,0.18307 1.22077,0.60136 1.69739,2.31848 0.85005,3.06245 l -0.26366,0.23145 0.15597,0.26708 c 0.14392,0.24636 0.14642,0.28688 0.0326,0.52259 -0.0679,0.14053 -0.47468,0.70596 -0.9041,1.2565 -0.98897,1.26795 -1.02917,1.34728 -0.99934,1.971791 l 0.024,0.50173 0.37783,0.0244 c 0.43639,0.0282 0.99999,-0.22383 2.00581,-0.896841 2.13164,-1.42631 3.67247,-3.0481 4.96218,-5.22287 1.15629,-1.94978 4.74477,-8.63387 6.4448,-12.00445 0.62763,-1.24437 1.28307,-2.47225 1.45655,-2.72863 0.49081,-0.7254 1.12172,-1.06525 1.60553,-0.86484 0.49547,0.20524 0.60056,0.79999 0.30862,1.74671 -0.23767,0.77078 -0.31417,0.91061 -2.5236,4.61261 -1.96621,3.29448 -3.37484,5.75337 -4.34059,7.5769 -0.42368,0.79999 -0.47875,0.94534 -0.31477,0.83078 0.82575,-0.57692 2.02873,-1.15352 2.67916,-1.28415 0.53973,-0.10838 0.94465,-0.0124 1.49056,0.35346 1.01295,0.67881 1.07534,1.80574 0.22922,4.13996 -0.20473,0.56479 -0.3555,1.04362 -0.33504,1.06408 0.054,0.054 2.24603,-0.82562 2.99575,-1.20218 1.32215,-0.66406 1.3493,-0.69979 2.19788,-2.89191 1.34486,-3.47418 4.12269,-8.61243 6.62114,-12.24741 2.55666,-3.71966 4.37047,-5.24855 5.19076,-4.37539 0.30559,0.32528 0.42082,0.73519 0.4208,1.49719 -10e-6,1.27985 -0.44498,2.60858 -1.77762,5.30809 -2.29034,4.63949 -5.04645,8.34851 -7.9362,10.68007 -0.66402,0.53575 -0.9673,0.83387 -1.00042,0.98337 -0.0935,0.42203 -0.13203,0.51776 -0.31987,0.79455 -0.24921,0.36724 -0.47094,0.97006 -0.71461,1.94279 -0.39949,1.59486 -0.35587,2.295362 0.17606,2.827292 0.2757,0.27571 0.30233,0.28432 0.75268,0.24348 1.49502,-0.13556 3.78289,-1.941692 7.98969,-6.307332 1.0084,-1.04649 1.65122,-1.54845 2.44239,-1.90718 1.28796,-0.584 2.93989,-0.63948 3.71752,-0.12488 0.82278,0.5445 0.92489,2.00723 0.21769,3.11874 -0.54528,0.85701 -1.65605,1.7069 -2.86049,2.18865 -0.60081,0.24032 -0.70914,0.2577 -1.53525,0.24646 -0.48886,-0.007 -1.11756,-0.0626 -1.39712,-0.12441 -0.27957,-0.0618 -0.52661,-0.0827 -0.549,-0.0464 -0.0224,0.0362 -0.0594,0.23946 -0.0823,0.4516 -0.14678,1.361801 1.42463,1.691252 3.9083,0.81938 1.84862,-0.64893 4.24754,-2.10591 5.70713,-3.46618 0.58127,-0.5417 0.90745,-0.72478 1.29137,-0.72478 0.51683,0 0.78893,0.6498 0.50075,1.19585 -0.45341,0.85912 -3.28036,2.92829 -5.62183,4.114892 -1.72122,0.87224 -2.82698,1.12135 -4.67833,1.05395 -1.14405,-0.0417 -1.68101,-0.19555 -2.21288,-0.63424 -0.34945,-0.28824 -0.67578,-0.877851 -0.75294,-1.360432 -0.029,-0.18144 -0.0701,-0.32988 -0.0912,-0.32988 -0.0212,-2e-5 -0.37102,0.28416 -0.7775,0.631471 -2.42085,2.068541 -4.36924,3.034521 -5.84304,2.896901 -1.75986,-0.16434 -2.54561,-1.48787 -2.31332,-3.896572 0.0469,-0.48634 0.0773,-0.89359 0.0675,-0.90499 -0.01,-0.0114 -0.39121,0.14258 -0.84763,0.34219 -0.45641,0.19961 -1.41671,0.56742 -2.13399,0.81734 -0.71728,0.24993 -1.44959,0.528241 -1.62735,0.618481 -0.17777,0.0902 -0.8702,0.700241 -1.53874,1.355591 -1.74117,1.70679 -2.79807,2.35056 -3.88237,2.36477 -0.81852,0.0107 -1.34926,-0.4403 -1.45486,-1.23637 -0.0493,-0.37098 -0.0625,-0.38725 -0.35492,-0.43401 -0.54429,-0.087 -1.14154,-0.82714 -1.25869,-1.559771 l -0.0525,-0.32797 -0.87941,0.594331 c -1.92357,1.29997 -3.478,1.79825 -4.62022,1.48106 -0.41839,-0.11619 -0.79587,-0.46913 -1.02502,-0.95839 -0.10572,-0.22572 -0.22328,-0.4104 -0.26122,-0.4104 -0.038,-3e-5 -0.32006,0.12642 -0.62688,0.28093 -0.80577,0.40582 -1.61225,0.61254 -2.59272,0.66468 -1.04555,0.0556 -1.6254,-0.0842 -2.09017,-0.50414 l -0.30915,-0.27929 -0.183,0.50473 c -0.10066,0.2776 -0.41695,0.9726 -0.70287,1.54443 -1.36322,2.726397 -2.48442,3.950697 -3.88669,4.244087 -0.5402,0.11302 -0.6554,0.11118 -0.90506,-0.0145 z m 22.50953,-5.689297 c 0.23996,-0.20718 0.42211,-0.71407 0.40477,-0.73142 -0.12407,-0.12408 -1.58244,0.83878 -1.58244,1.05498 0,0.11029 0.69135,0.0963 1.17767,-0.32356 z m -13.69269,-1.549021 c 1.57922,-0.543331 2.81867,-1.545341 3.50118,-2.830571 0.38169,-0.71873 0.78683,-1.22855 1.16836,-1.47028 0.19217,-0.1217 0.19289,-0.12726 0.0658,-0.48197 -0.0707,-0.19736 -0.15112,-0.49709 -0.17863,-0.66607 -0.0275,-0.169 -0.1012,-0.3269 -0.16376,-0.35091 -0.26418,-0.10136 -1.68479,0.51994 -2.58409,1.13018 -1.58234,1.0737 -3.10347,3.11275 -3.10913,4.16777 -0.003,0.655381 0.40064,0.811381 1.30029,0.501851 z m 14.45416,-1.069661 1.33312,-0.45637 0.46038,-0.82879 c 0.59987,-1.07991 1.28445,-2.74982 1.303,-3.17844 0.0142,-0.3278 0.009,-0.33496 -0.22788,-0.30808 -0.13332,0.0151 -0.50311,0.13551 -0.82174,0.26745 -1.7951,0.74339 -3.67359,2.77896 -4.39913,4.767 -0.12832,0.35159 -0.23331,0.691241 -0.23331,0.754791 0,0.081 0.18715,0.0144 0.62623,-0.222841 0.3444,-0.18612 1.22612,-0.54373 1.95933,-0.79473 z m 21.85185,-2.47791 c 0.49059,-0.17183 1.13977,-0.75049 1.57776,-1.40641 0.17957,-0.26888 0.32648,-0.52111 0.32648,-0.56048 0,-0.2153 -1.17625,0.0157 -1.91147,0.37545 -0.48133,0.23548 -1.57292,1.02435 -1.87816,1.35729 -0.22272,0.24293 -0.19953,0.26241 0.44843,0.3768 0.47856,0.0845 0.91107,0.0415 1.43696,-0.14265 z m -38.9412,-6.80932 c 1.03,-3.06589 1.60551,-4.92229 1.54479,-4.98301 -0.0953,-0.0953 -3.86177,0.95706 -5.01838,1.40219 -0.4006,0.15422 -0.7992,0.33302 -0.88574,0.39742 -0.15558,0.11573 -0.15541,0.12105 0.0122,0.46592 0.0932,0.19186 0.40391,0.71127 0.69047,1.15426 0.72638,1.12296 1.40243,2.31048 2.0353,3.57515 0.29703,0.59357 0.55458,1.0647 0.57233,1.04695 0.0177,-0.0177 0.48983,-1.39424 1.04908,-3.05889 z m 31.31248,0.0684 c 1.78289,-2.3565 3.43939,-5.13874 4.39252,-7.37758 0.46088,-1.08258 1.04028,-2.62609 0.98578,-2.62609 -0.0688,-2e-5 -1.13165,1.49316 -1.9268,2.70688 -1.52583,2.32907 -2.90096,4.71561 -4.42424,7.67828 l -0.82988,1.61403 0.54381,-0.52522 c 0.29908,-0.28887 0.86556,-0.95049 1.25881,-1.47029 z"
       id="path6529"
       sodipodi:nodetypes="sssscsssssssssssssssssssssccsscsscsssccsssssssssssssssssssssssssssssssssssssssssssssssssssssssscssssssscssssssssssssssssssscsssssssssssssssssssssssssssssscss" />
    <path
       id="path6531"
       style="fill:none;stroke:#ff0000;stroke-width:0.264583;stroke-dasharray:none;stroke-opacity:1;stop-color:#000000"
       d="m -170.28312,87.660911 c -1.59099,0 -2.87217,1.28066 -2.87217,2.87166 v 9.256282 c 0,1.590997 1.28118,2.872167 2.87217,2.872167 h 14.25598 c 1.591,0 2.87218,-1.28117 2.87218,-2.872167 v -9.256282 c 0,-1.591 -1.28118,-2.87166 -2.87218,-2.87166 h -5.37796 v 6.720001 h -3.50005 v -6.720001 z" />
    <path
       id="path6533"
       style="fill:none;stroke:#ff0000;stroke-width:0.264583;stroke-dasharray:none;stroke-opacity:1;stop-color:#000000"
       d="m -350.91951,107.75637 c -1.591,0 -2.87218,1.28066 -2.87218,2.87166 v 9.25628 c 0,1.591 1.28118,2.87217 2.87218,2.87217 h 14.25598 c 1.591,0 2.87217,-1.28117 2.87217,-2.87217 v -9.25628 c 0,-1.591 -1.28117,-2.87166 -2.87217,-2.87166 h -5.37797 v 6.72 h -3.50005 v -6.72 z" />
    <path
       style="vector-effect:non-scaling-stroke;fill:none;stroke:#ff0000;stroke-width:0.264583;stroke-dasharray:none;stroke-opacity:1;-inkscape-stroke:hairline"
       d="m -325.8941,140.73524 c -0.14619,-0.0736 -0.20944,-0.17932 -0.22923,-0.38243 -0.0368,-0.38462 0.0591,-0.67483 0.85314,-2.58384 0.379,-0.91104 1.3183,-3.22795 2.08737,-5.14866 l 1.39832,-3.49223 -0.19672,-0.87113 c -0.37395,-1.65592 -0.7873,-2.71441 -1.49525,-3.82891 -0.9702,-1.52735 -2.08042,-2.82186 -2.90278,-3.38463 -0.65899,-0.45098 -0.75577,-0.58481 -0.73923,-1.02218 0.0586,-1.54799 1.83011,-2.43047 7.36503,-3.66878 1.74345,-0.39005 2.21247,-0.56525 2.33396,-0.87177 0.0469,-0.11836 0.19582,-0.68419 0.33089,-1.25737 0.23273,-0.98757 0.4206,-1.44244 0.68715,-1.66365 0.20193,-0.16756 0.70586,-0.24326 1.03524,-0.15545 0.64734,0.17258 0.77424,0.8456 0.41796,2.21687 -0.11252,0.43306 -0.19434,0.79501 -0.18181,0.80435 0.0126,0.009 1.04088,-0.12122 2.28524,-0.29014 5.06557,-0.68763 9.21936,-1.12229 10.72532,-1.12228 0.98587,0 1.182,0.0648 1.58508,0.5239 0.45042,0.51301 0.30627,1.21725 -0.31493,1.53849 -0.31685,0.16386 -1.49905,0.27773 -2.90518,0.27986 -2.09353,0.003 -5.42356,0.26894 -8.16107,0.65132 -1.81816,0.25396 -3.82654,0.63932 -3.89355,0.74707 -0.0334,0.0536 -0.24,0.62473 -0.45922,1.26912 -0.21925,0.6444 -0.98034,2.80789 -1.69134,4.80776 -0.71099,1.99986 -1.3676,3.89064 -1.45913,4.20173 -0.23341,0.79329 -0.41544,1.90498 -0.41519,2.53567 l 2.3e-4,0.53483 0.29205,-0.48482 c 1.20137,-1.99429 3.70004,-3.97996 5.80813,-4.61566 0.31637,-0.0954 0.75153,-0.14714 1.25245,-0.14893 0.64133,-0.002 0.82968,0.0279 1.14485,0.18307 1.22077,0.60136 1.69739,2.31848 0.85005,3.06245 l -0.26366,0.23145 0.15597,0.26708 c 0.14392,0.24636 0.14642,0.28688 0.0326,0.52259 -0.0679,0.14053 -0.47468,0.70596 -0.9041,1.2565 -0.98897,1.26795 -1.02917,1.34728 -0.99934,1.97179 l 0.024,0.50173 0.37783,0.0244 c 0.43639,0.0282 0.99999,-0.22383 2.00581,-0.89684 2.13164,-1.42631 3.67247,-3.0481 4.96218,-5.22287 1.15629,-1.94978 4.74477,-8.63387 6.4448,-12.00445 0.62763,-1.24437 1.28307,-2.47225 1.45655,-2.72863 0.49081,-0.7254 1.12172,-1.06525 1.60553,-0.86484 0.49547,0.20524 0.60056,0.79999 0.30862,1.74671 -0.23767,0.77078 -0.31417,0.91061 -2.5236,4.61261 -1.96621,3.29448 -3.37484,5.75337 -4.34059,7.5769 -0.42368,0.79999 -0.47875,0.94534 -0.31477,0.83078 0.82575,-0.57692 2.02873,-1.15352 2.67916,-1.28415 0.53973,-0.10838 0.94465,-0.0124 1.49056,0.35346 1.01295,0.67881 1.07534,1.80574 0.22922,4.13996 -0.20473,0.56479 -0.3555,1.04362 -0.33504,1.06408 0.054,0.054 2.24603,-0.82562 2.99575,-1.20218 1.32215,-0.66406 1.3493,-0.69979 2.19788,-2.89191 1.34486,-3.47418 4.12269,-8.61243 6.62114,-12.24741 2.55666,-3.71966 4.37047,-5.24855 5.19076,-4.37539 0.30559,0.32528 0.42082,0.73519 0.4208,1.49719 -10e-6,1.27985 -0.44498,2.60858 -1.77762,5.30809 -2.29034,4.63949 -5.04645,8.34851 -7.9362,10.68007 -0.66402,0.53575 -0.9673,0.83387 -1.00042,0.98337 -0.0935,0.42203 -0.13203,0.51776 -0.31987,0.79455 -0.24921,0.36724 -0.47094,0.97006 -0.71461,1.94279 -0.39949,1.59486 -0.35587,2.29536 0.17606,2.82729 0.2757,0.27571 0.30233,0.28432 0.75268,0.24348 1.49502,-0.13556 3.78289,-1.94169 7.98969,-6.30733 1.0084,-1.04649 1.65122,-1.54845 2.44239,-1.90718 1.28796,-0.584 2.93989,-0.63948 3.71752,-0.12488 0.82278,0.5445 0.92489,2.00723 0.21769,3.11874 -0.54528,0.85701 -1.65605,1.7069 -2.86049,2.18865 -0.60081,0.24032 -0.70914,0.2577 -1.53525,0.24646 -0.48886,-0.007 -1.11756,-0.0626 -1.39712,-0.12441 -0.27957,-0.0618 -0.52661,-0.0827 -0.549,-0.0464 -0.0224,0.0362 -0.0594,0.23946 -0.0823,0.4516 -0.14678,1.3618 1.42463,1.69125 3.9083,0.81938 1.84862,-0.64893 4.24754,-2.10591 5.70713,-3.46618 0.58127,-0.5417 0.90745,-0.72478 1.29137,-0.72478 0.51683,0 0.78893,0.6498 0.50075,1.19585 -0.45341,0.85912 -3.28036,2.92829 -5.62183,4.11489 -1.72122,0.87224 -2.82698,1.12135 -4.67833,1.05395 -1.14405,-0.0417 -1.68101,-0.19555 -2.21288,-0.63424 -0.34945,-0.28824 -0.67578,-0.87785 -0.75294,-1.36043 -0.029,-0.18144 -0.0701,-0.32988 -0.0912,-0.32988 -0.0212,-2e-5 -0.37102,0.28416 -0.7775,0.63147 -2.42085,2.06854 -4.36924,3.03452 -5.84304,2.8969 -1.75986,-0.16434 -2.54561,-1.48787 -2.31332,-3.89657 0.0469,-0.48634 0.0773,-0.89359 0.0675,-0.90499 -0.01,-0.0114 -0.39121,0.14258 -0.84763,0.34219 -0.45641,0.19961 -1.41671,0.56742 -2.13399,0.81734 -0.71728,0.24993 -1.44959,0.52824 -1.62735,0.61848 -0.17777,0.0902 -0.8702,0.70024 -1.53874,1.35559 -1.74117,1.70679 -2.79807,2.35056 -3.88237,2.36477 -0.81852,0.0107 -1.34926,-0.4403 -1.45486,-1.23637 -0.0493,-0.37098 -0.0625,-0.38725 -0.35492,-0.43401 -0.54429,-0.087 -1.14154,-0.82714 -1.25869,-1.55977 l -0.0525,-0.32797 -0.87941,0.59433 c -1.92357,1.29997 -3.478,1.79825 -4.62022,1.48106 -0.41839,-0.11619 -0.79587,-0.46913 -1.02502,-0.95839 -0.10572,-0.22572 -0.22328,-0.4104 -0.26122,-0.4104 -0.038,-3e-5 -0.32006,0.12642 -0.62688,0.28093 -0.80577,0.40582 -1.61225,0.61254 -2.59272,0.66468 -1.04555,0.0556 -1.6254,-0.0842 -2.09017,-0.50414 l -0.30915,-0.27929 -0.183,0.50473 c -0.10066,0.2776 -0.41695,0.9726 -0.70287,1.54443 -1.36322,2.72639 -2.48442,3.95069 -3.88669,4.24408 -0.5402,0.11302 -0.6554,0.11118 -0.90506,-0.0145 z m 22.50953,-5.68929 c 0.23996,-0.20718 0.42211,-0.71407 0.40477,-0.73142 -0.12407,-0.12408 -1.58244,0.83878 -1.58244,1.05498 0,0.11029 0.69135,0.0963 1.17767,-0.32356 z m -13.69269,-1.54902 c 1.57922,-0.54333 2.81867,-1.54534 3.50118,-2.83057 0.38169,-0.71873 0.78683,-1.22855 1.16836,-1.47028 0.19217,-0.1217 0.19289,-0.12726 0.0658,-0.48197 -0.0707,-0.19736 -0.15112,-0.49709 -0.17863,-0.66607 -0.0275,-0.169 -0.1012,-0.3269 -0.16376,-0.35091 -0.26418,-0.10136 -1.68479,0.51994 -2.58409,1.13018 -1.58234,1.0737 -3.10347,3.11275 -3.10913,4.16777 -0.003,0.65538 0.40064,0.81138 1.30029,0.50185 z m 14.45416,-1.06966 1.33312,-0.45637 0.46038,-0.82879 c 0.59987,-1.07991 1.28445,-2.74982 1.303,-3.17844 0.0142,-0.3278 0.009,-0.33496 -0.22788,-0.30808 -0.13332,0.0151 -0.50311,0.13551 -0.82174,0.26745 -1.7951,0.74339 -3.67359,2.77896 -4.39913,4.767 -0.12832,0.35159 -0.23331,0.69124 -0.23331,0.75479 0,0.081 0.18715,0.0144 0.62623,-0.22284 0.3444,-0.18612 1.22612,-0.54373 1.95933,-0.79473 z m 21.85185,-2.47791 c 0.49059,-0.17183 1.13977,-0.75049 1.57776,-1.40641 0.17957,-0.26888 0.32648,-0.52111 0.32648,-0.56048 0,-0.2153 -1.17625,0.0157 -1.91147,0.37545 -0.48133,0.23548 -1.57292,1.02435 -1.87816,1.35729 -0.22272,0.24293 -0.19953,0.26241 0.44843,0.3768 0.47856,0.0845 0.91107,0.0415 1.43696,-0.14265 z m -38.9412,-6.80932 c 1.03,-3.06589 1.60551,-4.92229 1.54479,-4.98301 -0.0953,-0.0953 -3.86177,0.95706 -5.01838,1.40219 -0.4006,0.15422 -0.7992,0.33302 -0.88574,0.39742 -0.15558,0.11573 -0.15541,0.12105 0.0122,0.46592 0.0932,0.19186 0.40391,0.71127 0.69047,1.15426 0.72638,1.12296 1.40243,2.31048 2.0353,3.57515 0.29703,0.59357 0.55458,1.0647 0.57233,1.04695 0.0177,-0.0177 0.48983,-1.39424 1.04908,-3.05889 z m 31.31248,0.0684 c 1.78289,-2.3565 3.43939,-5.13874 4.39252,-7.37758 0.46088,-1.08258 1.04028,-2.62609 0.98578,-2.62609 -0.0688,-2e-5 -1.13165,1.49316 -1.9268,2.70688 -1.52583,2.32907 -2.90096,4.71561 -4.42424,7.67828 l -0.82988,1.61403 0.54381,-0.52522 c 0.29908,-0.28887 0.86556,-0.95049 1.25881,-1.47029 z"
       id="path6535"
       sodipodi:nodetypes="sssscsssssssssssssssssssssccsscsscsssccsssssssssssssssssssssssssssssssssssssssssssssssssssssssscssssssscssssssssssssssssssscsssssssssssssssssssssssssssssscss" />
    <path
       id="path6537"
       style="fill:none;stroke:#ff0000;stroke-width:0.264583;stroke-dasharray:none;stroke-opacity:1;stop-color:#000000"
       d="m -351.49016,126.87293 c -1.59099,0 -2.87217,1.28066 -2.87217,2.87166 v 9.25628 c 0,1.59099 1.28118,2.87216 2.87217,2.87216 h 14.25598 c 1.591,0 2.87218,-1.28117 2.87218,-2.87216 v -9.25628 c 0,-1.591 -1.28118,-2.87166 -2.87218,-2.87166 h -5.37796 v 6.72 h -3.50005 v -6.72 z" />
    <path
       id="path6539"
       style="fill:none;stroke:#ff0000;stroke-width:0.264583;stroke-dasharray:none;stroke-opacity:1;stop-color:#000000"
       d="m -261.20717,108.35049 c -1.591,0 -2.87218,1.28066 -2.87218,2.87166 v 9.25628 c 0,1.591 1.28118,2.87217 2.87218,2.87217 h 14.25598 c 1.591,0 2.87217,-1.28117 2.87217,-2.87217 v -9.25628 c 0,-1.591 -1.28117,-2.87166 -2.87217,-2.87166 h -5.37797 v 6.72 h -3.50005 v -6.72 z" />
    <path
       style="vector-effect:non-scaling-stroke;fill:none;stroke:#ff0000;stroke-width:0.264583;stroke-dasharray:none;stroke-opacity:1;-inkscape-stroke:hairline"
       d="m -236.18176,141.32936 c -0.14619,-0.0736 -0.20944,-0.17932 -0.22923,-0.38243 -0.0368,-0.38462 0.0591,-0.67483 0.85314,-2.58384 0.379,-0.91104 1.3183,-3.22795 2.08737,-5.14866 l 1.39832,-3.49223 -0.19672,-0.87113 c -0.37395,-1.65592 -0.7873,-2.71441 -1.49525,-3.82891 -0.9702,-1.52735 -2.08042,-2.82186 -2.90278,-3.38463 -0.65899,-0.45098 -0.75577,-0.58481 -0.73923,-1.02218 0.0586,-1.54799 1.83011,-2.43047 7.36503,-3.66878 1.74345,-0.39005 2.21247,-0.56525 2.33396,-0.87177 0.0469,-0.11836 0.19582,-0.68419 0.33089,-1.25737 0.23273,-0.98757 0.4206,-1.44244 0.68715,-1.66365 0.20193,-0.16756 0.70586,-0.24326 1.03524,-0.15545 0.64734,0.17258 0.77424,0.8456 0.41796,2.21687 -0.11252,0.43306 -0.19434,0.79501 -0.18181,0.80435 0.0126,0.009 1.04088,-0.12122 2.28524,-0.29014 5.06557,-0.68763 9.21936,-1.12229 10.72532,-1.12228 0.98587,0 1.182,0.0648 1.58508,0.5239 0.45042,0.51301 0.30627,1.21725 -0.31493,1.53849 -0.31685,0.16386 -1.49905,0.27773 -2.90518,0.27986 -2.09353,0.003 -5.42356,0.26894 -8.16107,0.65132 -1.81816,0.25396 -3.82654,0.63932 -3.89355,0.74707 -0.0334,0.0536 -0.24,0.62473 -0.45922,1.26912 -0.21925,0.6444 -0.98034,2.80789 -1.69134,4.80776 -0.71099,1.99986 -1.3676,3.89064 -1.45913,4.20173 -0.23341,0.79329 -0.41544,1.90498 -0.41519,2.53567 l 2.3e-4,0.53483 0.29205,-0.48482 c 1.20137,-1.99429 3.70004,-3.97996 5.80813,-4.61566 0.31637,-0.0954 0.75153,-0.14714 1.25245,-0.14893 0.64133,-0.002 0.82968,0.0279 1.14485,0.18307 1.22077,0.60136 1.69739,2.31848 0.85005,3.06245 l -0.26366,0.23145 0.15597,0.26708 c 0.14392,0.24636 0.14642,0.28688 0.0326,0.52259 -0.0679,0.14053 -0.47468,0.70596 -0.9041,1.2565 -0.98897,1.26795 -1.02917,1.34728 -0.99934,1.97179 l 0.024,0.50173 0.37783,0.0244 c 0.43639,0.0282 0.99999,-0.22383 2.00581,-0.89684 2.13164,-1.42631 3.67247,-3.0481 4.96218,-5.22287 1.15629,-1.94978 4.74477,-8.63387 6.4448,-12.00445 0.62763,-1.24437 1.28307,-2.47225 1.45655,-2.72863 0.49081,-0.7254 1.12172,-1.06525 1.60553,-0.86484 0.49547,0.20524 0.60056,0.79999 0.30862,1.74671 -0.23767,0.77078 -0.31417,0.91061 -2.5236,4.61261 -1.96621,3.29448 -3.37484,5.75337 -4.34059,7.5769 -0.42368,0.79999 -0.47875,0.94534 -0.31477,0.83078 0.82575,-0.57692 2.02873,-1.15352 2.67916,-1.28415 0.53973,-0.10838 0.94465,-0.0124 1.49056,0.35346 1.01295,0.67881 1.07534,1.80574 0.22922,4.13996 -0.20473,0.56479 -0.3555,1.04362 -0.33504,1.06408 0.054,0.054 2.24603,-0.82562 2.99575,-1.20218 1.32215,-0.66406 1.3493,-0.69979 2.19788,-2.89191 1.34486,-3.47418 4.12269,-8.61243 6.62114,-12.24741 2.55666,-3.71966 4.37047,-5.24855 5.19076,-4.37539 0.30559,0.32528 0.42082,0.73519 0.4208,1.49719 -1e-5,1.27985 -0.44498,2.60858 -1.77762,5.30809 -2.29034,4.63949 -5.04645,8.34851 -7.9362,10.68007 -0.66402,0.53575 -0.9673,0.83387 -1.00042,0.98337 -0.0935,0.42203 -0.13203,0.51776 -0.31987,0.79455 -0.24921,0.36724 -0.47094,0.97006 -0.71461,1.94279 -0.39949,1.59486 -0.35587,2.29536 0.17606,2.82729 0.2757,0.27571 0.30233,0.28432 0.75268,0.24348 1.49502,-0.13556 3.78289,-1.94169 7.98969,-6.30733 1.0084,-1.04649 1.65122,-1.54845 2.44239,-1.90718 1.28796,-0.584 2.93989,-0.63948 3.71752,-0.12488 0.82278,0.5445 0.92489,2.00723 0.21769,3.11874 -0.54528,0.85701 -1.65605,1.7069 -2.86049,2.18865 -0.60081,0.24032 -0.70914,0.2577 -1.53525,0.24646 -0.48886,-0.007 -1.11756,-0.0626 -1.39712,-0.12441 -0.27957,-0.0618 -0.52661,-0.0827 -0.549,-0.0464 -0.0224,0.0362 -0.0594,0.23946 -0.0823,0.4516 -0.14678,1.3618 1.42463,1.69125 3.9083,0.81938 1.84862,-0.64893 4.24754,-2.10591 5.70713,-3.46618 0.58127,-0.5417 0.90745,-0.72478 1.29137,-0.72478 0.51683,0 0.78893,0.6498 0.50075,1.19585 -0.45341,0.85912 -3.28036,2.92829 -5.62183,4.11489 -1.72122,0.87224 -2.82698,1.12135 -4.67833,1.05395 -1.14405,-0.0417 -1.68101,-0.19555 -2.21288,-0.63424 -0.34945,-0.28824 -0.67578,-0.87785 -0.75294,-1.36043 -0.029,-0.18144 -0.0701,-0.32988 -0.0912,-0.32988 -0.0212,-2e-5 -0.37102,0.28416 -0.7775,0.63147 -2.42085,2.06854 -4.36924,3.03452 -5.84304,2.8969 -1.75986,-0.16434 -2.54561,-1.48787 -2.31332,-3.89657 0.0469,-0.48634 0.0773,-0.89359 0.0675,-0.90499 -0.01,-0.0114 -0.39121,0.14258 -0.84763,0.34219 -0.45641,0.19961 -1.41671,0.56742 -2.13399,0.81734 -0.71728,0.24993 -1.44959,0.52824 -1.62735,0.61848 -0.17777,0.0902 -0.8702,0.70024 -1.53874,1.35559 -1.74117,1.70679 -2.79807,2.35056 -3.88237,2.36477 -0.81852,0.0107 -1.34926,-0.4403 -1.45486,-1.23637 -0.0493,-0.37098 -0.0625,-0.38725 -0.35492,-0.43401 -0.54429,-0.087 -1.14154,-0.82714 -1.25869,-1.55977 l -0.0525,-0.32797 -0.87941,0.59433 c -1.92357,1.29997 -3.478,1.79825 -4.62022,1.48106 -0.41839,-0.11619 -0.79587,-0.46913 -1.02502,-0.95839 -0.10572,-0.22572 -0.22328,-0.4104 -0.26122,-0.4104 -0.038,-3e-5 -0.32006,0.12642 -0.62688,0.28093 -0.80577,0.40582 -1.61225,0.61254 -2.59272,0.66468 -1.04555,0.0556 -1.6254,-0.0842 -2.09017,-0.50414 l -0.30915,-0.27929 -0.183,0.50473 c -0.10066,0.2776 -0.41695,0.9726 -0.70287,1.54443 -1.36322,2.72639 -2.48442,3.95069 -3.88669,4.24408 -0.5402,0.11302 -0.6554,0.11118 -0.90506,-0.0145 z m 22.50953,-5.68929 c 0.23996,-0.20718 0.42211,-0.71407 0.40477,-0.73142 -0.12407,-0.12408 -1.58244,0.83878 -1.58244,1.05498 0,0.11029 0.69135,0.0963 1.17767,-0.32356 z m -13.69269,-1.54902 c 1.57922,-0.54333 2.81867,-1.54534 3.50118,-2.83057 0.38169,-0.71873 0.78683,-1.22855 1.16836,-1.47028 0.19217,-0.1217 0.19289,-0.12726 0.0658,-0.48197 -0.0707,-0.19736 -0.15112,-0.49709 -0.17863,-0.66607 -0.0275,-0.169 -0.1012,-0.3269 -0.16376,-0.35091 -0.26418,-0.10136 -1.68479,0.51994 -2.58409,1.13018 -1.58234,1.0737 -3.10347,3.11275 -3.10913,4.16777 -0.003,0.65538 0.40064,0.81138 1.30029,0.50185 z m 14.45416,-1.06966 1.33312,-0.45637 0.46038,-0.82879 c 0.59987,-1.07991 1.28445,-2.74982 1.303,-3.17844 0.0142,-0.3278 0.009,-0.33496 -0.22788,-0.30808 -0.13332,0.0151 -0.50311,0.13551 -0.82174,0.26745 -1.7951,0.74339 -3.67359,2.77896 -4.39913,4.767 -0.12832,0.35159 -0.23331,0.69124 -0.23331,0.75479 0,0.081 0.18715,0.0144 0.62623,-0.22284 0.3444,-0.18612 1.22612,-0.54373 1.95933,-0.79473 z m 21.85185,-2.47791 c 0.49059,-0.17183 1.13977,-0.75049 1.57776,-1.40641 0.17957,-0.26888 0.32648,-0.52111 0.32648,-0.56048 0,-0.2153 -1.17625,0.0157 -1.91147,0.37545 -0.48133,0.23548 -1.57292,1.02435 -1.87816,1.35729 -0.22272,0.24293 -0.19953,0.26241 0.44843,0.3768 0.47856,0.0845 0.91107,0.0415 1.43696,-0.14265 z m -38.9412,-6.80932 c 1.03,-3.06589 1.60551,-4.92229 1.54479,-4.98301 -0.0953,-0.0953 -3.86177,0.95706 -5.01838,1.40219 -0.4006,0.15422 -0.7992,0.33302 -0.88574,0.39742 -0.15558,0.11573 -0.15541,0.12105 0.0122,0.46592 0.0932,0.19186 0.40391,0.71127 0.69047,1.15426 0.72638,1.12296 1.40243,2.31048 2.0353,3.57515 0.29703,0.59357 0.55458,1.0647 0.57233,1.04695 0.0177,-0.0177 0.48983,-1.39424 1.04908,-3.05889 z m 31.31248,0.0684 c 1.78289,-2.3565 3.43939,-5.13874 4.39252,-7.37758 0.46088,-1.08258 1.04028,-2.62609 0.98578,-2.62609 -0.0688,-2e-5 -1.13165,1.49316 -1.9268,2.70688 -1.52583,2.32907 -2.90096,4.71561 -4.42424,7.67828 l -0.82988,1.61403 0.54381,-0.52522 c 0.29908,-0.28887 0.86556,-0.95049 1.25881,-1.47029 z"
       id="path6541"
       sodipodi:nodetypes="sssscsssssssssssssssssssssccsscsscsssccsssssssssssssssssssssssssssssssssssssssssssssssssssssssscssssssscssssssssssssssssssscsssssssssssssssssssssssssssssscss" />
    <path
       id="path6543"
       style="fill:none;stroke:#ff0000;stroke-width:0.264583;stroke-dasharray:none;stroke-opacity:1;stop-color:#000000"
       d="m -261.77782,127.46705 c -1.59099,0 -2.87217,1.28066 -2.87217,2.87166 v 9.25627 c 0,1.591 1.28118,2.87217 2.87217,2.87217 h 14.25598 c 1.591,0 2.87218,-1.28117 2.87218,-2.87217 v -9.25627 c 0,-1.591 -1.28118,-2.87166 -2.87218,-2.87166 h -5.37796 v 6.72 h -3.50005 v -6.72 z" />
    <path
       id="path6545"
       style="fill:none;stroke:#ff0000;stroke-width:0.264583;stroke-dasharray:none;stroke-opacity:1;stop-color:#000000"
       d="m -170.30659,107.75637 c -1.591,0 -2.87218,1.28066 -2.87218,2.87166 v 9.25628 c 0,1.591 1.28118,2.87217 2.87218,2.87217 h 14.25598 c 1.591,0 2.87217,-1.28117 2.87217,-2.87217 v -9.25628 c 0,-1.591 -1.28117,-2.87166 -2.87217,-2.87166 h -5.37797 v 6.72 h -3.50005 v -6.72 z" />
    <path
       style="vector-effect:non-scaling-stroke;fill:none;stroke:#ff0000;stroke-width:0.264583;stroke-dasharray:none;stroke-opacity:1;-inkscape-stroke:hairline"
       d="m -145.28118,140.73524 c -0.14619,-0.0736 -0.20944,-0.17932 -0.22923,-0.38243 -0.0368,-0.38462 0.0591,-0.67483 0.85314,-2.58384 0.379,-0.91104 1.3183,-3.22795 2.08737,-5.14866 l 1.39832,-3.49223 -0.19672,-0.87113 c -0.37395,-1.65592 -0.7873,-2.71441 -1.49525,-3.82891 -0.9702,-1.52735 -2.08042,-2.82186 -2.90278,-3.38463 -0.65899,-0.45098 -0.75577,-0.58481 -0.73923,-1.02218 0.0586,-1.54799 1.83011,-2.43047 7.36503,-3.66878 1.74345,-0.39005 2.21247,-0.56525 2.33396,-0.87177 0.0469,-0.11836 0.19582,-0.68419 0.33089,-1.25737 0.23273,-0.98757 0.4206,-1.44244 0.68715,-1.66365 0.20193,-0.16756 0.70586,-0.24326 1.03524,-0.15545 0.64734,0.17258 0.77424,0.8456 0.41796,2.21687 -0.11252,0.43306 -0.19434,0.79501 -0.18181,0.80435 0.0126,0.009 1.04088,-0.12122 2.28524,-0.29014 5.06557,-0.68763 9.21936,-1.12229 10.72532,-1.12228 0.98587,0 1.182,0.0648 1.58508,0.5239 0.45042,0.51301 0.30627,1.21725 -0.31493,1.53849 -0.31685,0.16386 -1.49905,0.27773 -2.90518,0.27986 -2.09353,0.003 -5.42356,0.26894 -8.16107,0.65132 -1.81816,0.25396 -3.82654,0.63932 -3.89355,0.74707 -0.0334,0.0536 -0.24,0.62473 -0.45922,1.26912 -0.21925,0.6444 -0.98034,2.80789 -1.69134,4.80776 -0.71099,1.99986 -1.3676,3.89064 -1.45913,4.20173 -0.23341,0.79329 -0.41544,1.90498 -0.41519,2.53567 l 2.3e-4,0.53483 0.29205,-0.48482 c 1.20137,-1.99429 3.70004,-3.97996 5.80813,-4.61566 0.31637,-0.0954 0.75153,-0.14714 1.25245,-0.14893 0.64133,-0.002 0.82968,0.0279 1.14485,0.18307 1.22077,0.60136 1.69739,2.31848 0.85005,3.06245 l -0.26366,0.23145 0.15597,0.26708 c 0.14392,0.24636 0.14642,0.28688 0.0326,0.52259 -0.0679,0.14053 -0.47468,0.70596 -0.9041,1.2565 -0.98897,1.26795 -1.02917,1.34728 -0.99934,1.97179 l 0.024,0.50173 0.37783,0.0244 c 0.43639,0.0282 0.99999,-0.22383 2.00581,-0.89684 2.13164,-1.42631 3.67247,-3.0481 4.96218,-5.22287 1.15629,-1.94978 4.74477,-8.63387 6.4448,-12.00445 0.62763,-1.24437 1.28307,-2.47225 1.45655,-2.72863 0.49081,-0.7254 1.12172,-1.06525 1.60553,-0.86484 0.49547,0.20524 0.60056,0.79999 0.30862,1.74671 -0.23767,0.77078 -0.31417,0.91061 -2.5236,4.61261 -1.96621,3.29448 -3.37484,5.75337 -4.34059,7.5769 -0.42368,0.79999 -0.47875,0.94534 -0.31477,0.83078 0.82575,-0.57692 2.02873,-1.15352 2.67916,-1.28415 0.53973,-0.10838 0.94465,-0.0124 1.49056,0.35346 1.01295,0.67881 1.07534,1.80574 0.22922,4.13996 -0.20473,0.56479 -0.3555,1.04362 -0.33504,1.06408 0.054,0.054 2.24603,-0.82562 2.99575,-1.20218 1.32215,-0.66406 1.3493,-0.69979 2.19788,-2.89191 1.34486,-3.47418 4.12269,-8.61243 6.62114,-12.24741 2.55666,-3.71966 4.37047,-5.24855 5.19076,-4.37539 0.30559,0.32528 0.42082,0.73519 0.4208,1.49719 -1e-5,1.27985 -0.44498,2.60858 -1.77762,5.30809 -2.29034,4.63949 -5.04645,8.34851 -7.9362,10.68007 -0.66402,0.53575 -0.9673,0.83387 -1.00042,0.98337 -0.0935,0.42203 -0.13203,0.51776 -0.31987,0.79455 -0.24921,0.36724 -0.47094,0.97006 -0.71461,1.94279 -0.39949,1.59486 -0.35587,2.29536 0.17606,2.82729 0.2757,0.27571 0.30233,0.28432 0.75268,0.24348 1.49502,-0.13556 3.78289,-1.94169 7.98969,-6.30733 1.0084,-1.04649 1.65122,-1.54845 2.44239,-1.90718 1.287959,-0.584 2.939889,-0.63948 3.717519,-0.12488 0.82278,0.5445 0.92489,2.00723 0.21769,3.11874 -0.54528,0.85701 -1.65605,1.7069 -2.86049,2.18865 -0.600809,0.24032 -0.709139,0.2577 -1.535249,0.24646 -0.48886,-0.007 -1.11756,-0.0626 -1.39712,-0.12441 -0.27957,-0.0618 -0.52661,-0.0827 -0.549,-0.0464 -0.0224,0.0362 -0.0594,0.23946 -0.0823,0.4516 -0.14678,1.3618 1.42463,1.69125 3.908299,0.81938 1.84862,-0.64893 4.24754,-2.10591 5.70713,-3.46618 0.58127,-0.5417 0.90745,-0.72478 1.29137,-0.72478 0.51683,0 0.78893,0.6498 0.50075,1.19585 -0.45341,0.85912 -3.28036,2.92829 -5.62183,4.11489 -1.72122,0.87224 -2.826979,1.12135 -4.678329,1.05395 -1.14405,-0.0417 -1.68101,-0.19555 -2.21288,-0.63424 -0.34945,-0.28824 -0.67578,-0.87785 -0.75294,-1.36043 -0.029,-0.18144 -0.0701,-0.32988 -0.0912,-0.32988 -0.0212,-2e-5 -0.37102,0.28416 -0.7775,0.63147 -2.42085,2.06854 -4.36924,3.03452 -5.84304,2.8969 -1.75986,-0.16434 -2.54561,-1.48787 -2.31332,-3.89657 0.0469,-0.48634 0.0773,-0.89359 0.0675,-0.90499 -0.01,-0.0114 -0.39121,0.14258 -0.84763,0.34219 -0.45641,0.19961 -1.41671,0.56742 -2.13399,0.81734 -0.71728,0.24993 -1.44959,0.52824 -1.62735,0.61848 -0.17777,0.0902 -0.8702,0.70024 -1.53874,1.35559 -1.74117,1.70679 -2.79807,2.35056 -3.88237,2.36477 -0.81852,0.0107 -1.34926,-0.4403 -1.45486,-1.23637 -0.0493,-0.37098 -0.0625,-0.38725 -0.35492,-0.43401 -0.54429,-0.087 -1.14154,-0.82714 -1.25869,-1.55977 l -0.0525,-0.32797 -0.87941,0.59433 c -1.92357,1.29997 -3.478,1.79825 -4.62022,1.48106 -0.41839,-0.11619 -0.79587,-0.46913 -1.02502,-0.95839 -0.10572,-0.22572 -0.22328,-0.4104 -0.26122,-0.4104 -0.038,-3e-5 -0.32006,0.12642 -0.62688,0.28093 -0.80577,0.40582 -1.61225,0.61254 -2.59272,0.66468 -1.04555,0.0556 -1.6254,-0.0842 -2.09017,-0.50414 l -0.30915,-0.27929 -0.183,0.50473 c -0.10066,0.2776 -0.41695,0.9726 -0.70287,1.54443 -1.36322,2.72639 -2.48442,3.95069 -3.88669,4.24408 -0.5402,0.11302 -0.6554,0.11118 -0.90506,-0.0145 z m 22.50953,-5.68929 c 0.23996,-0.20718 0.42211,-0.71407 0.40477,-0.73142 -0.12407,-0.12408 -1.58244,0.83878 -1.58244,1.05498 0,0.11029 0.69135,0.0963 1.17767,-0.32356 z m -13.69269,-1.54902 c 1.57922,-0.54333 2.81867,-1.54534 3.50118,-2.83057 0.38169,-0.71873 0.78683,-1.22855 1.16836,-1.47028 0.19217,-0.1217 0.19289,-0.12726 0.0658,-0.48197 -0.0707,-0.19736 -0.15112,-0.49709 -0.17863,-0.66607 -0.0275,-0.169 -0.1012,-0.3269 -0.16376,-0.35091 -0.26418,-0.10136 -1.68479,0.51994 -2.58409,1.13018 -1.58234,1.0737 -3.10347,3.11275 -3.10913,4.16777 -0.003,0.65538 0.40064,0.81138 1.30029,0.50185 z m 14.45416,-1.06966 1.33312,-0.45637 0.46038,-0.82879 c 0.59987,-1.07991 1.28445,-2.74982 1.303,-3.17844 0.0142,-0.3278 0.009,-0.33496 -0.22788,-0.30808 -0.13332,0.0151 -0.50311,0.13551 -0.82174,0.26745 -1.7951,0.74339 -3.67359,2.77896 -4.39913,4.767 -0.12832,0.35159 -0.23331,0.69124 -0.23331,0.75479 0,0.081 0.18715,0.0144 0.62623,-0.22284 0.3444,-0.18612 1.22612,-0.54373 1.95933,-0.79473 z m 21.85185,-2.47791 c 0.490589,-0.17183 1.139769,-0.75049 1.577759,-1.40641 0.17957,-0.26888 0.32648,-0.52111 0.32648,-0.56048 0,-0.2153 -1.17625,0.0157 -1.911469,0.37545 -0.48133,0.23548 -1.57292,1.02435 -1.87816,1.35729 -0.22272,0.24293 -0.19953,0.26241 0.44843,0.3768 0.47856,0.0845 0.91107,0.0415 1.43696,-0.14265 z m -38.9412,-6.80932 c 1.03,-3.06589 1.60551,-4.92229 1.54479,-4.98301 -0.0953,-0.0953 -3.86177,0.95706 -5.01838,1.40219 -0.4006,0.15422 -0.7992,0.33302 -0.88574,0.39742 -0.15558,0.11573 -0.15541,0.12105 0.0122,0.46592 0.0932,0.19186 0.40391,0.71127 0.69047,1.15426 0.72638,1.12296 1.40243,2.31048 2.0353,3.57515 0.29703,0.59357 0.55458,1.0647 0.57233,1.04695 0.0177,-0.0177 0.48983,-1.39424 1.04908,-3.05889 z m 31.31248,0.0684 c 1.78289,-2.3565 3.43939,-5.13874 4.39252,-7.37758 0.46088,-1.08258 1.04028,-2.62609 0.98578,-2.62609 -0.0688,-2e-5 -1.13165,1.49316 -1.9268,2.70688 -1.52583,2.32907 -2.90096,4.71561 -4.42424,7.67828 l -0.82988,1.61403 0.54381,-0.52522 c 0.29908,-0.28887 0.86556,-0.95049 1.25881,-1.47029 z"
       id="path6547"
       sodipodi:nodetypes="sssscsssssssssssssssssssssccsscsscsssccsssssssssssssssssssssssssssssssssssssssssssssssssssssssscssssssscssssssssssssssssssscsssssssssssssssssssssssssssssscss" />
    <path
       id="path6549"
       style="fill:none;stroke:#ff0000;stroke-width:0.264583;stroke-dasharray:none;stroke-opacity:1;stop-color:#000000"
       d="m -170.87724,126.87293 c -1.59099,0 -2.87217,1.28066 -2.87217,2.87166 v 9.25628 c 0,1.59099 1.28118,2.87216 2.87217,2.87216 h 14.25598 c 1.591,0 2.87218,-1.28117 2.87218,-2.87216 v -9.25628 c 0,-1.591 -1.28118,-2.87166 -2.87218,-2.87166 h -5.37796 v 6.72 h -3.50005 v -6.72 z" />
    <path
       id="path6551"
       style="fill:none;stroke:#ff0000;stroke-width:0.264583;stroke-dasharray:none;stroke-opacity:1;stop-color:#000000"
       d="m -350.91951,148.15663 c -1.591,0 -2.87218,1.28066 -2.87218,2.87166 v 9.25628 c 0,1.591 1.28118,2.87217 2.87218,2.87217 h 14.25598 c 1.591,0 2.87217,-1.28117 2.87217,-2.87217 v -9.25628 c 0,-1.591 -1.28117,-2.87166 -2.87217,-2.87166 h -5.37797 v 6.72 h -3.50005 v -6.72 z" />
    <path
       style="vector-effect:non-scaling-stroke;fill:none;stroke:#ff0000;stroke-width:0.264583;stroke-dasharray:none;stroke-opacity:1;-inkscape-stroke:hairline"
       d="m -325.8941,181.1355 c -0.14619,-0.0736 -0.20944,-0.17932 -0.22923,-0.38243 -0.0368,-0.38462 0.0591,-0.67483 0.85314,-2.58384 0.379,-0.91104 1.3183,-3.22795 2.08737,-5.14866 l 1.39832,-3.49223 -0.19672,-0.87113 c -0.37395,-1.65592 -0.7873,-2.71441 -1.49525,-3.82891 -0.9702,-1.52735 -2.08042,-2.82186 -2.90278,-3.38463 -0.65899,-0.45098 -0.75577,-0.58481 -0.73923,-1.02218 0.0586,-1.54799 1.83011,-2.43047 7.36503,-3.66878 1.74345,-0.39005 2.21247,-0.56525 2.33396,-0.87177 0.0469,-0.11836 0.19582,-0.68419 0.33089,-1.25737 0.23273,-0.98757 0.4206,-1.44244 0.68715,-1.66365 0.20193,-0.16756 0.70586,-0.24326 1.03524,-0.15545 0.64734,0.17258 0.77424,0.8456 0.41796,2.21687 -0.11252,0.43306 -0.19434,0.79501 -0.18181,0.80435 0.0126,0.009 1.04088,-0.12122 2.28524,-0.29014 5.06557,-0.68763 9.21936,-1.12229 10.72532,-1.12228 0.98587,0 1.182,0.0648 1.58508,0.5239 0.45042,0.51301 0.30627,1.21725 -0.31493,1.53849 -0.31685,0.16386 -1.49905,0.27773 -2.90518,0.27986 -2.09353,0.003 -5.42356,0.26894 -8.16107,0.65132 -1.81816,0.25396 -3.82654,0.63932 -3.89355,0.74707 -0.0334,0.0536 -0.24,0.62473 -0.45922,1.26912 -0.21925,0.6444 -0.98034,2.80789 -1.69134,4.80776 -0.71099,1.99986 -1.3676,3.89064 -1.45913,4.20173 -0.23341,0.79329 -0.41544,1.90498 -0.41519,2.53567 l 2.3e-4,0.53483 0.29205,-0.48482 c 1.20137,-1.99429 3.70004,-3.97996 5.80813,-4.61566 0.31637,-0.0954 0.75153,-0.14714 1.25245,-0.14893 0.64133,-0.002 0.82968,0.0279 1.14485,0.18307 1.22077,0.60136 1.69739,2.31848 0.85005,3.06245 l -0.26366,0.23145 0.15597,0.26708 c 0.14392,0.24636 0.14642,0.28688 0.0326,0.52259 -0.0679,0.14053 -0.47468,0.70596 -0.9041,1.2565 -0.98897,1.26795 -1.02917,1.34728 -0.99934,1.97179 l 0.024,0.50173 0.37783,0.0244 c 0.43639,0.0282 0.99999,-0.22383 2.00581,-0.89684 2.13164,-1.42631 3.67247,-3.0481 4.96218,-5.22287 1.15629,-1.94978 4.74477,-8.63387 6.4448,-12.00445 0.62763,-1.24437 1.28307,-2.47225 1.45655,-2.72863 0.49081,-0.7254 1.12172,-1.06525 1.60553,-0.86484 0.49547,0.20524 0.60056,0.79999 0.30862,1.74671 -0.23767,0.77078 -0.31417,0.91061 -2.5236,4.61261 -1.96621,3.29448 -3.37484,5.75337 -4.34059,7.5769 -0.42368,0.79999 -0.47875,0.94534 -0.31477,0.83078 0.82575,-0.57692 2.02873,-1.15352 2.67916,-1.28415 0.53973,-0.10838 0.94465,-0.0124 1.49056,0.35346 1.01295,0.67881 1.07534,1.80574 0.22922,4.13996 -0.20473,0.56479 -0.3555,1.04362 -0.33504,1.06408 0.054,0.054 2.24603,-0.82562 2.99575,-1.20218 1.32215,-0.66406 1.3493,-0.69979 2.19788,-2.89191 1.34486,-3.47418 4.12269,-8.61243 6.62114,-12.24741 2.55666,-3.71966 4.37047,-5.24855 5.19076,-4.37539 0.30559,0.32528 0.42082,0.73519 0.4208,1.49719 -10e-6,1.27985 -0.44498,2.60858 -1.77762,5.30809 -2.29034,4.63949 -5.04645,8.34851 -7.9362,10.68007 -0.66402,0.53575 -0.9673,0.83387 -1.00042,0.98337 -0.0935,0.42203 -0.13203,0.51776 -0.31987,0.79455 -0.24921,0.36724 -0.47094,0.97006 -0.71461,1.94279 -0.39949,1.59486 -0.35587,2.29536 0.17606,2.82729 0.2757,0.27571 0.30233,0.28432 0.75268,0.24348 1.49502,-0.13556 3.78289,-1.94169 7.98969,-6.30733 1.0084,-1.04649 1.65122,-1.54845 2.44239,-1.90718 1.28796,-0.584 2.93989,-0.63948 3.71752,-0.12488 0.82278,0.5445 0.92489,2.00723 0.21769,3.11874 -0.54528,0.85701 -1.65605,1.7069 -2.86049,2.18865 -0.60081,0.24032 -0.70914,0.2577 -1.53525,0.24646 -0.48886,-0.007 -1.11756,-0.0626 -1.39712,-0.12441 -0.27957,-0.0618 -0.52661,-0.0827 -0.549,-0.0464 -0.0224,0.0362 -0.0594,0.23946 -0.0823,0.4516 -0.14678,1.3618 1.42463,1.69125 3.9083,0.81938 1.84862,-0.64893 4.24754,-2.10591 5.70713,-3.46618 0.58127,-0.5417 0.90745,-0.72478 1.29137,-0.72478 0.51683,0 0.78893,0.6498 0.50075,1.19585 -0.45341,0.85912 -3.28036,2.92829 -5.62183,4.11489 -1.72122,0.87224 -2.82698,1.12135 -4.67833,1.05395 -1.14405,-0.0417 -1.68101,-0.19555 -2.21288,-0.63424 -0.34945,-0.28824 -0.67578,-0.87785 -0.75294,-1.36043 -0.029,-0.18144 -0.0701,-0.32988 -0.0912,-0.32988 -0.0212,-2e-5 -0.37102,0.28416 -0.7775,0.63147 -2.42085,2.06854 -4.36924,3.03452 -5.84304,2.8969 -1.75986,-0.16434 -2.54561,-1.48787 -2.31332,-3.89657 0.0469,-0.48634 0.0773,-0.89359 0.0675,-0.90499 -0.01,-0.0114 -0.39121,0.14258 -0.84763,0.34219 -0.45641,0.19961 -1.41671,0.56742 -2.13399,0.81734 -0.71728,0.24993 -1.44959,0.52824 -1.62735,0.61848 -0.17777,0.0902 -0.8702,0.70024 -1.53874,1.35559 -1.74117,1.70679 -2.79807,2.35056 -3.88237,2.36477 -0.81852,0.0107 -1.34926,-0.4403 -1.45486,-1.23637 -0.0493,-0.37098 -0.0625,-0.38725 -0.35492,-0.43401 -0.54429,-0.087 -1.14154,-0.82714 -1.25869,-1.55977 l -0.0525,-0.32797 -0.87941,0.59433 c -1.92357,1.29997 -3.478,1.79825 -4.62022,1.48106 -0.41839,-0.11619 -0.79587,-0.46913 -1.02502,-0.95839 -0.10572,-0.22572 -0.22328,-0.4104 -0.26122,-0.4104 -0.038,-3e-5 -0.32006,0.12642 -0.62688,0.28093 -0.80577,0.40582 -1.61225,0.61254 -2.59272,0.66468 -1.04555,0.0556 -1.6254,-0.0842 -2.09017,-0.50414 l -0.30915,-0.27929 -0.183,0.50473 c -0.10066,0.2776 -0.41695,0.9726 -0.70287,1.54443 -1.36322,2.72639 -2.48442,3.95069 -3.88669,4.24408 -0.5402,0.11302 -0.6554,0.11118 -0.90506,-0.0145 z m 22.50953,-5.68929 c 0.23996,-0.20718 0.42211,-0.71407 0.40477,-0.73142 -0.12407,-0.12408 -1.58244,0.83878 -1.58244,1.05498 0,0.11029 0.69135,0.0963 1.17767,-0.32356 z m -13.69269,-1.54902 c 1.57922,-0.54333 2.81867,-1.54534 3.50118,-2.83057 0.38169,-0.71873 0.78683,-1.22855 1.16836,-1.47028 0.19217,-0.1217 0.19289,-0.12726 0.0658,-0.48197 -0.0707,-0.19736 -0.15112,-0.49709 -0.17863,-0.66607 -0.0275,-0.169 -0.1012,-0.3269 -0.16376,-0.35091 -0.26418,-0.10136 -1.68479,0.51994 -2.58409,1.13018 -1.58234,1.0737 -3.10347,3.11275 -3.10913,4.16777 -0.003,0.65538 0.40064,0.81138 1.30029,0.50185 z m 14.45416,-1.06966 1.33312,-0.45637 0.46038,-0.82879 c 0.59987,-1.07991 1.28445,-2.74982 1.303,-3.17844 0.0142,-0.3278 0.009,-0.33496 -0.22788,-0.30808 -0.13332,0.0151 -0.50311,0.13551 -0.82174,0.26745 -1.7951,0.74339 -3.67359,2.77896 -4.39913,4.767 -0.12832,0.35159 -0.23331,0.69124 -0.23331,0.75479 0,0.081 0.18715,0.0144 0.62623,-0.22284 0.3444,-0.18612 1.22612,-0.54373 1.95933,-0.79473 z m 21.85185,-2.47791 c 0.49059,-0.17183 1.13977,-0.75049 1.57776,-1.40641 0.17957,-0.26888 0.32648,-0.52111 0.32648,-0.56048 0,-0.2153 -1.17625,0.0157 -1.91147,0.37545 -0.48133,0.23548 -1.57292,1.02435 -1.87816,1.35729 -0.22272,0.24293 -0.19953,0.26241 0.44843,0.3768 0.47856,0.0845 0.91107,0.0415 1.43696,-0.14265 z m -38.9412,-6.80932 c 1.03,-3.06589 1.60551,-4.92229 1.54479,-4.98301 -0.0953,-0.0953 -3.86177,0.95706 -5.01838,1.40219 -0.4006,0.15422 -0.7992,0.33302 -0.88574,0.39742 -0.15558,0.11573 -0.15541,0.12105 0.0122,0.46592 0.0932,0.19186 0.40391,0.71127 0.69047,1.15426 0.72638,1.12296 1.40243,2.31048 2.0353,3.57515 0.29703,0.59357 0.55458,1.0647 0.57233,1.04695 0.0177,-0.0177 0.48983,-1.39424 1.04908,-3.05889 z m 31.31248,0.0684 c 1.78289,-2.3565 3.43939,-5.13874 4.39252,-7.37758 0.46088,-1.08258 1.04028,-2.62609 0.98578,-2.62609 -0.0688,-2e-5 -1.13165,1.49316 -1.9268,2.70688 -1.52583,2.32907 -2.90096,4.71561 -4.42424,7.67828 l -0.82988,1.61403 0.54381,-0.52522 c 0.29908,-0.28887 0.86556,-0.95049 1.25881,-1.47029 z"
       id="path6553"
       sodipodi:nodetypes="sssscsssssssssssssssssssssccsscsscsssccsssssssssssssssssssssssssssssssssssssssssssssssssssssssscssssssscssssssssssssssssssscsssssssssssssssssssssssssssssscss" />
    <path
       id="path6555"
       style="fill:none;stroke:#ff0000;stroke-width:0.264583;stroke-dasharray:none;stroke-opacity:1;stop-color:#000000"
       d="m -351.49016,167.27319 c -1.59099,0 -2.87217,1.28066 -2.87217,2.87166 v 9.25628 c 0,1.59099 1.28118,2.87216 2.87217,2.87216 h 14.25598 c 1.591,0 2.87218,-1.28117 2.87218,-2.87216 v -9.25628 c 0,-1.591 -1.28118,-2.87166 -2.87218,-2.87166 h -5.37796 v 6.72 h -3.50005 v -6.72 z" />
    <path
       id="path6557"
       style="fill:none;stroke:#ff0000;stroke-width:0.264583;stroke-dasharray:none;stroke-opacity:1;stop-color:#000000"
       d="m -261.20717,148.75075 c -1.591,0 -2.87218,1.28066 -2.87218,2.87166 v 9.25628 c 0,1.591 1.28118,2.87217 2.87218,2.87217 h 14.25598 c 1.591,0 2.87217,-1.28117 2.87217,-2.87217 v -9.25628 c 0,-1.591 -1.28117,-2.87166 -2.87217,-2.87166 h -5.37797 v 6.72 h -3.50005 v -6.72 z" />
    <path
       style="vector-effect:non-scaling-stroke;fill:none;stroke:#ff0000;stroke-width:0.264583;stroke-dasharray:none;stroke-opacity:1;-inkscape-stroke:hairline"
       d="m -236.18176,181.72962 c -0.14619,-0.0736 -0.20944,-0.17932 -0.22923,-0.38243 -0.0368,-0.38462 0.0591,-0.67483 0.85314,-2.58384 0.379,-0.91104 1.3183,-3.22795 2.08737,-5.14866 l 1.39832,-3.49223 -0.19672,-0.87113 c -0.37395,-1.65592 -0.7873,-2.71441 -1.49525,-3.82891 -0.9702,-1.52735 -2.08042,-2.82186 -2.90278,-3.38463 -0.65899,-0.45098 -0.75577,-0.58481 -0.73923,-1.02218 0.0586,-1.54799 1.83011,-2.43047 7.36503,-3.66878 1.74345,-0.39005 2.21247,-0.56525 2.33396,-0.87177 0.0469,-0.11836 0.19582,-0.68419 0.33089,-1.25737 0.23273,-0.98757 0.4206,-1.44244 0.68715,-1.66365 0.20193,-0.16756 0.70586,-0.24326 1.03524,-0.15545 0.64734,0.17258 0.77424,0.8456 0.41796,2.21687 -0.11252,0.43306 -0.19434,0.79501 -0.18181,0.80435 0.0126,0.009 1.04088,-0.12122 2.28524,-0.29014 5.06557,-0.68763 9.21936,-1.12229 10.72532,-1.12228 0.98587,0 1.182,0.0648 1.58508,0.5239 0.45042,0.51301 0.30627,1.21725 -0.31493,1.53849 -0.31685,0.16386 -1.49905,0.27773 -2.90518,0.27986 -2.09353,0.003 -5.42356,0.26894 -8.16107,0.65132 -1.81816,0.25396 -3.82654,0.63932 -3.89355,0.74707 -0.0334,0.0536 -0.24,0.62473 -0.45922,1.26912 -0.21925,0.6444 -0.98034,2.80789 -1.69134,4.80776 -0.71099,1.99986 -1.3676,3.89064 -1.45913,4.20173 -0.23341,0.79329 -0.41544,1.90498 -0.41519,2.53567 l 2.3e-4,0.53483 0.29205,-0.48482 c 1.20137,-1.99429 3.70004,-3.97996 5.80813,-4.61566 0.31637,-0.0954 0.75153,-0.14714 1.25245,-0.14893 0.64133,-0.002 0.82968,0.0279 1.14485,0.18307 1.22077,0.60136 1.69739,2.31848 0.85005,3.06245 l -0.26366,0.23145 0.15597,0.26708 c 0.14392,0.24636 0.14642,0.28688 0.0326,0.52259 -0.0679,0.14053 -0.47468,0.70596 -0.9041,1.2565 -0.98897,1.26795 -1.02917,1.34728 -0.99934,1.97179 l 0.024,0.50173 0.37783,0.0244 c 0.43639,0.0282 0.99999,-0.22383 2.00581,-0.89684 2.13164,-1.42631 3.67247,-3.0481 4.96218,-5.22287 1.15629,-1.94978 4.74477,-8.63387 6.4448,-12.00445 0.62763,-1.24437 1.28307,-2.47225 1.45655,-2.72863 0.49081,-0.7254 1.12172,-1.06525 1.60553,-0.86484 0.49547,0.20524 0.60056,0.79999 0.30862,1.74671 -0.23767,0.77078 -0.31417,0.91061 -2.5236,4.61261 -1.96621,3.29448 -3.37484,5.75337 -4.34059,7.5769 -0.42368,0.79999 -0.47875,0.94534 -0.31477,0.83078 0.82575,-0.57692 2.02873,-1.15352 2.67916,-1.28415 0.53973,-0.10838 0.94465,-0.0124 1.49056,0.35346 1.01295,0.67881 1.07534,1.80574 0.22922,4.13996 -0.20473,0.56479 -0.3555,1.04362 -0.33504,1.06408 0.054,0.054 2.24603,-0.82562 2.99575,-1.20218 1.32215,-0.66406 1.3493,-0.69979 2.19788,-2.89191 1.34486,-3.47418 4.12269,-8.61243 6.62114,-12.24741 2.55666,-3.71966 4.37047,-5.24855 5.19076,-4.37539 0.30559,0.32528 0.42082,0.73519 0.4208,1.49719 -1e-5,1.27985 -0.44498,2.60858 -1.77762,5.30809 -2.29034,4.63949 -5.04645,8.34851 -7.9362,10.68007 -0.66402,0.53575 -0.9673,0.83387 -1.00042,0.98337 -0.0935,0.42203 -0.13203,0.51776 -0.31987,0.79455 -0.24921,0.36724 -0.47094,0.97006 -0.71461,1.94279 -0.39949,1.59486 -0.35587,2.29536 0.17606,2.82729 0.2757,0.27571 0.30233,0.28432 0.75268,0.24348 1.49502,-0.13556 3.78289,-1.94169 7.98969,-6.30733 1.0084,-1.04649 1.65122,-1.54845 2.44239,-1.90718 1.28796,-0.584 2.93989,-0.63948 3.71752,-0.12488 0.82278,0.5445 0.92489,2.00723 0.21769,3.11874 -0.54528,0.85701 -1.65605,1.7069 -2.86049,2.18865 -0.60081,0.24032 -0.70914,0.2577 -1.53525,0.24646 -0.48886,-0.007 -1.11756,-0.0626 -1.39712,-0.12441 -0.27957,-0.0618 -0.52661,-0.0827 -0.549,-0.0464 -0.0224,0.0362 -0.0594,0.23946 -0.0823,0.4516 -0.14678,1.3618 1.42463,1.69125 3.9083,0.81938 1.84862,-0.64893 4.24754,-2.10591 5.70713,-3.46618 0.58127,-0.5417 0.90745,-0.72478 1.29137,-0.72478 0.51683,0 0.78893,0.6498 0.50075,1.19585 -0.45341,0.85912 -3.28036,2.92829 -5.62183,4.11489 -1.72122,0.87224 -2.82698,1.12135 -4.67833,1.05395 -1.14405,-0.0417 -1.68101,-0.19555 -2.21288,-0.63424 -0.34945,-0.28824 -0.67578,-0.87785 -0.75294,-1.36043 -0.029,-0.18144 -0.0701,-0.32988 -0.0912,-0.32988 -0.0212,-2e-5 -0.37102,0.28416 -0.7775,0.63147 -2.42085,2.06854 -4.36924,3.03452 -5.84304,2.8969 -1.75986,-0.16434 -2.54561,-1.48787 -2.31332,-3.89657 0.0469,-0.48634 0.0773,-0.89359 0.0675,-0.90499 -0.01,-0.0114 -0.39121,0.14258 -0.84763,0.34219 -0.45641,0.19961 -1.41671,0.56742 -2.13399,0.81734 -0.71728,0.24993 -1.44959,0.52824 -1.62735,0.61848 -0.17777,0.0902 -0.8702,0.70024 -1.53874,1.35559 -1.74117,1.70679 -2.79807,2.35056 -3.88237,2.36477 -0.81852,0.0107 -1.34926,-0.4403 -1.45486,-1.23637 -0.0493,-0.37098 -0.0625,-0.38725 -0.35492,-0.43401 -0.54429,-0.087 -1.14154,-0.82714 -1.25869,-1.55977 l -0.0525,-0.32797 -0.87941,0.59433 c -1.92357,1.29997 -3.478,1.79825 -4.62022,1.48106 -0.41839,-0.11619 -0.79587,-0.46913 -1.02502,-0.95839 -0.10572,-0.22572 -0.22328,-0.4104 -0.26122,-0.4104 -0.038,-3e-5 -0.32006,0.12642 -0.62688,0.28093 -0.80577,0.40582 -1.61225,0.61254 -2.59272,0.66468 -1.04555,0.0556 -1.6254,-0.0842 -2.09017,-0.50414 l -0.30915,-0.27929 -0.183,0.50473 c -0.10066,0.2776 -0.41695,0.9726 -0.70287,1.54443 -1.36322,2.72639 -2.48442,3.95069 -3.88669,4.24408 -0.5402,0.11302 -0.6554,0.11118 -0.90506,-0.0145 z m 22.50953,-5.68929 c 0.23996,-0.20718 0.42211,-0.71407 0.40477,-0.73142 -0.12407,-0.12408 -1.58244,0.83878 -1.58244,1.05498 0,0.11029 0.69135,0.0963 1.17767,-0.32356 z m -13.69269,-1.54902 c 1.57922,-0.54333 2.81867,-1.54534 3.50118,-2.83057 0.38169,-0.71873 0.78683,-1.22855 1.16836,-1.47028 0.19217,-0.1217 0.19289,-0.12726 0.0658,-0.48197 -0.0707,-0.19736 -0.15112,-0.49709 -0.17863,-0.66607 -0.0275,-0.169 -0.1012,-0.3269 -0.16376,-0.35091 -0.26418,-0.10136 -1.68479,0.51994 -2.58409,1.13018 -1.58234,1.0737 -3.10347,3.11275 -3.10913,4.16777 -0.003,0.65538 0.40064,0.81138 1.30029,0.50185 z m 14.45416,-1.06966 1.33312,-0.45637 0.46038,-0.82879 c 0.59987,-1.07991 1.28445,-2.74982 1.303,-3.17844 0.0142,-0.3278 0.009,-0.33496 -0.22788,-0.30808 -0.13332,0.0151 -0.50311,0.13551 -0.82174,0.26745 -1.7951,0.74339 -3.67359,2.77896 -4.39913,4.767 -0.12832,0.35159 -0.23331,0.69124 -0.23331,0.75479 0,0.081 0.18715,0.0144 0.62623,-0.22284 0.3444,-0.18612 1.22612,-0.54373 1.95933,-0.79473 z m 21.85185,-2.47791 c 0.49059,-0.17183 1.13977,-0.75049 1.57776,-1.40641 0.17957,-0.26888 0.32648,-0.52111 0.32648,-0.56048 0,-0.2153 -1.17625,0.0157 -1.91147,0.37545 -0.48133,0.23548 -1.57292,1.02435 -1.87816,1.35729 -0.22272,0.24293 -0.19953,0.26241 0.44843,0.3768 0.47856,0.0845 0.91107,0.0415 1.43696,-0.14265 z m -38.9412,-6.80932 c 1.03,-3.06589 1.60551,-4.92229 1.54479,-4.98301 -0.0953,-0.0953 -3.86177,0.95706 -5.01838,1.40219 -0.4006,0.15422 -0.7992,0.33302 -0.88574,0.39742 -0.15558,0.11573 -0.15541,0.12105 0.0122,0.46592 0.0932,0.19186 0.40391,0.71127 0.69047,1.15426 0.72638,1.12296 1.40243,2.31048 2.0353,3.57515 0.29703,0.59357 0.55458,1.0647 0.57233,1.04695 0.0177,-0.0177 0.48983,-1.39424 1.04908,-3.05889 z m 31.31248,0.0684 c 1.78289,-2.3565 3.43939,-5.13874 4.39252,-7.37758 0.46088,-1.08258 1.04028,-2.62609 0.98578,-2.62609 -0.0688,-2e-5 -1.13165,1.49316 -1.9268,2.70688 -1.52583,2.32907 -2.90096,4.71561 -4.42424,7.67828 l -0.82988,1.61403 0.54381,-0.52522 c 0.29908,-0.28887 0.86556,-0.95049 1.25881,-1.47029 z"
       id="path6559"
       sodipodi:nodetypes="sssscsssssssssssssssssssssccsscsscsssccsssssssssssssssssssssssssssssssssssssssssssssssssssssssscssssssscssssssssssssssssssscsssssssssssssssssssssssssssssscss" />
    <path
       id="path6561"
       style="fill:none;stroke:#ff0000;stroke-width:0.264583;stroke-dasharray:none;stroke-opacity:1;stop-color:#000000"
       d="m -261.77782,167.86731 c -1.59099,0 -2.87217,1.28066 -2.87217,2.87166 v 9.25627 c 0,1.591 1.28118,2.87217 2.87217,2.87217 h 14.25598 c 1.591,0 2.87218,-1.28117 2.87218,-2.87217 v -9.25627 c 0,-1.591 -1.28118,-2.87166 -2.87218,-2.87166 h -5.37796 v 6.72 h -3.50005 v -6.72 z" />
    <path
       id="path6563"
       style="fill:none;stroke:#ff0000;stroke-width:0.264583;stroke-dasharray:none;stroke-opacity:1;stop-color:#000000"
       d="m -170.30659,148.15663 c -1.591,0 -2.87218,1.28066 -2.87218,2.87166 v 9.25628 c 0,1.591 1.28118,2.87217 2.87218,2.87217 h 14.25598 c 1.591,0 2.87217,-1.28117 2.87217,-2.87217 v -9.25628 c 0,-1.591 -1.28117,-2.87166 -2.87217,-2.87166 h -5.37797 v 6.72 h -3.50005 v -6.72 z" />
    <path
       style="vector-effect:non-scaling-stroke;fill:none;stroke:#ff0000;stroke-width:0.264583;stroke-dasharray:none;stroke-opacity:1;-inkscape-stroke:hairline"
       d="m -145.28118,181.1355 c -0.14619,-0.0736 -0.20944,-0.17932 -0.22923,-0.38243 -0.0368,-0.38462 0.0591,-0.67483 0.85314,-2.58384 0.379,-0.91104 1.3183,-3.22795 2.08737,-5.14866 l 1.39832,-3.49223 -0.19672,-0.87113 c -0.37395,-1.65592 -0.7873,-2.71441 -1.49525,-3.82891 -0.9702,-1.52735 -2.08042,-2.82186 -2.90278,-3.38463 -0.65899,-0.45098 -0.75577,-0.58481 -0.73923,-1.02218 0.0586,-1.54799 1.83011,-2.43047 7.36503,-3.66878 1.74345,-0.39005 2.21247,-0.56525 2.33396,-0.87177 0.0469,-0.11836 0.19582,-0.68419 0.33089,-1.25737 0.23273,-0.98757 0.4206,-1.44244 0.68715,-1.66365 0.20193,-0.16756 0.70586,-0.24326 1.03524,-0.15545 0.64734,0.17258 0.77424,0.8456 0.41796,2.21687 -0.11252,0.43306 -0.19434,0.79501 -0.18181,0.80435 0.0126,0.009 1.04088,-0.12122 2.28524,-0.29014 5.06557,-0.68763 9.21936,-1.12229 10.72532,-1.12228 0.98587,0 1.182,0.0648 1.58508,0.5239 0.45042,0.51301 0.30627,1.21725 -0.31493,1.53849 -0.31685,0.16386 -1.49905,0.27773 -2.90518,0.27986 -2.09353,0.003 -5.42356,0.26894 -8.16107,0.65132 -1.81816,0.25396 -3.82654,0.63932 -3.89355,0.74707 -0.0334,0.0536 -0.24,0.62473 -0.45922,1.26912 -0.21925,0.6444 -0.98034,2.80789 -1.69134,4.80776 -0.71099,1.99986 -1.3676,3.89064 -1.45913,4.20173 -0.23341,0.79329 -0.41544,1.90498 -0.41519,2.53567 l 2.3e-4,0.53483 0.29205,-0.48482 c 1.20137,-1.99429 3.70004,-3.97996 5.80813,-4.61566 0.31637,-0.0954 0.75153,-0.14714 1.25245,-0.14893 0.64133,-0.002 0.82968,0.0279 1.14485,0.18307 1.22077,0.60136 1.69739,2.31848 0.85005,3.06245 l -0.26366,0.23145 0.15597,0.26708 c 0.14392,0.24636 0.14642,0.28688 0.0326,0.52259 -0.0679,0.14053 -0.47468,0.70596 -0.9041,1.2565 -0.98897,1.26795 -1.02917,1.34728 -0.99934,1.97179 l 0.024,0.50173 0.37783,0.0244 c 0.43639,0.0282 0.99999,-0.22383 2.00581,-0.89684 2.13164,-1.42631 3.67247,-3.0481 4.96218,-5.22287 1.15629,-1.94978 4.74477,-8.63387 6.4448,-12.00445 0.62763,-1.24437 1.28307,-2.47225 1.45655,-2.72863 0.49081,-0.7254 1.12172,-1.06525 1.60553,-0.86484 0.49547,0.20524 0.60056,0.79999 0.30862,1.74671 -0.23767,0.77078 -0.31417,0.91061 -2.5236,4.61261 -1.96621,3.29448 -3.37484,5.75337 -4.34059,7.5769 -0.42368,0.79999 -0.47875,0.94534 -0.31477,0.83078 0.82575,-0.57692 2.02873,-1.15352 2.67916,-1.28415 0.53973,-0.10838 0.94465,-0.0124 1.49056,0.35346 1.01295,0.67881 1.07534,1.80574 0.22922,4.13996 -0.20473,0.56479 -0.3555,1.04362 -0.33504,1.06408 0.054,0.054 2.24603,-0.82562 2.99575,-1.20218 1.32215,-0.66406 1.3493,-0.69979 2.19788,-2.89191 1.34486,-3.47418 4.12269,-8.61243 6.62114,-12.24741 2.55666,-3.71966 4.37047,-5.24855 5.19076,-4.37539 0.30559,0.32528 0.42082,0.73519 0.4208,1.49719 -1e-5,1.27985 -0.44498,2.60858 -1.77762,5.30809 -2.29034,4.63949 -5.04645,8.34851 -7.9362,10.68007 -0.66402,0.53575 -0.9673,0.83387 -1.00042,0.98337 -0.0935,0.42203 -0.13203,0.51776 -0.31987,0.79455 -0.24921,0.36724 -0.47094,0.97006 -0.71461,1.94279 -0.39949,1.59486 -0.35587,2.29536 0.17606,2.82729 0.2757,0.27571 0.30233,0.28432 0.75268,0.24348 1.49502,-0.13556 3.78289,-1.94169 7.98969,-6.30733 1.0084,-1.04649 1.65122,-1.54845 2.44239,-1.90718 1.287959,-0.584 2.939889,-0.63948 3.717519,-0.12488 0.82278,0.5445 0.92489,2.00723 0.21769,3.11874 -0.54528,0.85701 -1.65605,1.7069 -2.86049,2.18865 -0.600809,0.24032 -0.709139,0.2577 -1.535249,0.24646 -0.48886,-0.007 -1.11756,-0.0626 -1.39712,-0.12441 -0.27957,-0.0618 -0.52661,-0.0827 -0.549,-0.0464 -0.0224,0.0362 -0.0594,0.23946 -0.0823,0.4516 -0.14678,1.3618 1.42463,1.69125 3.908299,0.81938 1.84862,-0.64893 4.24754,-2.10591 5.70713,-3.46618 0.58127,-0.5417 0.90745,-0.72478 1.29137,-0.72478 0.51683,0 0.78893,0.6498 0.50075,1.19585 -0.45341,0.85912 -3.28036,2.92829 -5.62183,4.11489 -1.72122,0.87224 -2.826979,1.12135 -4.678329,1.05395 -1.14405,-0.0417 -1.68101,-0.19555 -2.21288,-0.63424 -0.34945,-0.28824 -0.67578,-0.87785 -0.75294,-1.36043 -0.029,-0.18144 -0.0701,-0.32988 -0.0912,-0.32988 -0.0212,-2e-5 -0.37102,0.28416 -0.7775,0.63147 -2.42085,2.06854 -4.36924,3.03452 -5.84304,2.8969 -1.75986,-0.16434 -2.54561,-1.48787 -2.31332,-3.89657 0.0469,-0.48634 0.0773,-0.89359 0.0675,-0.90499 -0.01,-0.0114 -0.39121,0.14258 -0.84763,0.34219 -0.45641,0.19961 -1.41671,0.56742 -2.13399,0.81734 -0.71728,0.24993 -1.44959,0.52824 -1.62735,0.61848 -0.17777,0.0902 -0.8702,0.70024 -1.53874,1.35559 -1.74117,1.70679 -2.79807,2.35056 -3.88237,2.36477 -0.81852,0.0107 -1.34926,-0.4403 -1.45486,-1.23637 -0.0493,-0.37098 -0.0625,-0.38725 -0.35492,-0.43401 -0.54429,-0.087 -1.14154,-0.82714 -1.25869,-1.55977 l -0.0525,-0.32797 -0.87941,0.59433 c -1.92357,1.29997 -3.478,1.79825 -4.62022,1.48106 -0.41839,-0.11619 -0.79587,-0.46913 -1.02502,-0.95839 -0.10572,-0.22572 -0.22328,-0.4104 -0.26122,-0.4104 -0.038,-3e-5 -0.32006,0.12642 -0.62688,0.28093 -0.80577,0.40582 -1.61225,0.61254 -2.59272,0.66468 -1.04555,0.0556 -1.6254,-0.0842 -2.09017,-0.50414 l -0.30915,-0.27929 -0.183,0.50473 c -0.10066,0.2776 -0.41695,0.9726 -0.70287,1.54443 -1.36322,2.72639 -2.48442,3.95069 -3.88669,4.24408 -0.5402,0.11302 -0.6554,0.11118 -0.90506,-0.0145 z m 22.50953,-5.68929 c 0.23996,-0.20718 0.42211,-0.71407 0.40477,-0.73142 -0.12407,-0.12408 -1.58244,0.83878 -1.58244,1.05498 0,0.11029 0.69135,0.0963 1.17767,-0.32356 z m -13.69269,-1.54902 c 1.57922,-0.54333 2.81867,-1.54534 3.50118,-2.83057 0.38169,-0.71873 0.78683,-1.22855 1.16836,-1.47028 0.19217,-0.1217 0.19289,-0.12726 0.0658,-0.48197 -0.0707,-0.19736 -0.15112,-0.49709 -0.17863,-0.66607 -0.0275,-0.169 -0.1012,-0.3269 -0.16376,-0.35091 -0.26418,-0.10136 -1.68479,0.51994 -2.58409,1.13018 -1.58234,1.0737 -3.10347,3.11275 -3.10913,4.16777 -0.003,0.65538 0.40064,0.81138 1.30029,0.50185 z m 14.45416,-1.06966 1.33312,-0.45637 0.46038,-0.82879 c 0.59987,-1.07991 1.28445,-2.74982 1.303,-3.17844 0.0142,-0.3278 0.009,-0.33496 -0.22788,-0.30808 -0.13332,0.0151 -0.50311,0.13551 -0.82174,0.26745 -1.7951,0.74339 -3.67359,2.77896 -4.39913,4.767 -0.12832,0.35159 -0.23331,0.69124 -0.23331,0.75479 0,0.081 0.18715,0.0144 0.62623,-0.22284 0.3444,-0.18612 1.22612,-0.54373 1.95933,-0.79473 z m 21.85185,-2.47791 c 0.490589,-0.17183 1.139769,-0.75049 1.577759,-1.40641 0.17957,-0.26888 0.32648,-0.52111 0.32648,-0.56048 0,-0.2153 -1.17625,0.0157 -1.911469,0.37545 -0.48133,0.23548 -1.57292,1.02435 -1.87816,1.35729 -0.22272,0.24293 -0.19953,0.26241 0.44843,0.3768 0.47856,0.0845 0.91107,0.0415 1.43696,-0.14265 z m -38.9412,-6.80932 c 1.03,-3.06589 1.60551,-4.92229 1.54479,-4.98301 -0.0953,-0.0953 -3.86177,0.95706 -5.01838,1.40219 -0.4006,0.15422 -0.7992,0.33302 -0.88574,0.39742 -0.15558,0.11573 -0.15541,0.12105 0.0122,0.46592 0.0932,0.19186 0.40391,0.71127 0.69047,1.15426 0.72638,1.12296 1.40243,2.31048 2.0353,3.57515 0.29703,0.59357 0.55458,1.0647 0.57233,1.04695 0.0177,-0.0177 0.48983,-1.39424 1.04908,-3.05889 z m 31.31248,0.0684 c 1.78289,-2.3565 3.43939,-5.13874 4.39252,-7.37758 0.46088,-1.08258 1.04028,-2.62609 0.98578,-2.62609 -0.0688,-2e-5 -1.13165,1.49316 -1.9268,2.70688 -1.52583,2.32907 -2.90096,4.71561 -4.42424,7.67828 l -0.82988,1.61403 0.54381,-0.52522 c 0.29908,-0.28887 0.86556,-0.95049 1.25881,-1.47029 z"
       id="path6565"
       sodipodi:nodetypes="sssscsssssssssssssssssssssccsscsscsssccsssssssssssssssssssssssssssssssssssssssssssssssssssssssscssssssscssssssssssssssssssscsssssssssssssssssssssssssssssscss" />
    <path
       id="path6567"
       style="fill:none;stroke:#ff0000;stroke-width:0.264583;stroke-dasharray:none;stroke-opacity:1;stop-color:#000000"
       d="m -170.87724,167.27319 c -1.59099,0 -2.87217,1.28066 -2.87217,2.87166 v 9.25628 c 0,1.59099 1.28118,2.87216 2.87217,2.87216 h 14.25598 c 1.591,0 2.87218,-1.28117 2.87218,-2.87216 v -9.25628 c 0,-1.591 -1.28118,-2.87166 -2.87218,-2.87166 h -5.37796 v 6.72 h -3.50005 v -6.72 z" />
  </g>
</svg>
