<?xml version="1.0" encoding="UTF-8" standalone="no"?>
<!-- Created with Inkscape (http://www.inkscape.org/) -->

<svg
   width="210mm"
   height="297mm"
   viewBox="0 0 210 297"
   version="1.1"
   id="svg20428"
   inkscape:version="1.2.1 (9c6d41e, 2022-07-14)"
   sodipodi:docname="main.svg"
   xmlns:inkscape="http://www.inkscape.org/namespaces/inkscape"
   xmlns:sodipodi="http://sodipodi.sourceforge.net/DTD/sodipodi-0.dtd"
   xmlns="http://www.w3.org/2000/svg"
   xmlns:svg="http://www.w3.org/2000/svg">
  <sodipodi:namedview
     id="namedview20430"
     pagecolor="#ffffff"
     bordercolor="#666666"
     borderopacity="1.0"
     inkscape:showpageshadow="2"
     inkscape:pageopacity="0.0"
     inkscape:pagecheckerboard="0"
     inkscape:deskcolor="#d1d1d1"
     inkscape:document-units="mm"
     showgrid="false"
     inkscape:zoom="0.37192416"
     inkscape:cx="939.70771"
     inkscape:cy="661.42517"
     inkscape:window-width="1280"
     inkscape:window-height="800"
     inkscape:window-x="0"
     inkscape:window-y="0"
     inkscape:window-maximized="0"
     inkscape:current-layer="layer1" />
  <defs
     id="defs20425" />
  <g
     inkscape:label="Layer 1"
     inkscape:groupmode="layer"
     id="layer1">
    <path
       d="M -78.202421,58.882791 -105.89864,161.72485 h -29.35384 l -18.44113,-66.995833 -17.95764,66.995833 H -201.0051 L -228.70132,58.882791 h 27.69622 l 15.81654,70.794569 18.9246,-70.794569 h 26.453 l 18.02671,70.794569 16.57629,-70.794569 z"
       style="font-weight:bold;font-size:141.451px;line-height:1.25;-inkscape-font-specification:'sans-serif Bold';stroke-width:0.26458333;stroke:#ff000d;stroke-opacity:1;stroke-dasharray:none;vector-effect:non-scaling-stroke;-inkscape-stroke:hairline;fill:none"
       id="path20697" />
    <path
       d="M 13.865059,161.72485 H -60.52104 V 58.882791 h 74.386099 v 19.891547 h -48.002172 v 17.750443 h 44.548778 v 19.891549 h -44.548778 v 25.41698 h 48.002172 z"
       style="font-weight:bold;font-size:141.451px;line-height:1.25;-inkscape-font-specification:'sans-serif Bold';stroke-width:0.26458333;stroke:#ff000d;stroke-opacity:1;stroke-dasharray:none;vector-effect:non-scaling-stroke;-inkscape-stroke:hairline;fill:none"
       id="path20699" />
    <path
       d="m 133.28342,110.40742 q 0,14.36612 -6.56145,25.76232 -6.56145,11.32713 -16.57629,17.4051 -7.5284,4.55848 -16.507221,6.35425 -8.978823,1.79576 -21.272905,1.79576 H 36.104921 V 58.882791 h 37.296651 q 12.570353,0 21.687313,2.141104 9.116955,2.072036 15.333065,5.939837 10.63645,6.49238 16.71443,17.543239 6.14704,10.981792 6.14704,25.900449 z m -27.41995,-0.2072 q 0,-10.15298 -3.72966,-17.336036 -3.6606,-7.252127 -11.672473,-11.327131 -4.075004,-2.002968 -8.357213,-2.693647 -4.21314,-0.759747 -12.777556,-0.759747 h -6.699584 v 64.371261 h 6.699584 q 9.462299,0 13.882642,-0.82882 4.420344,-0.89788 8.633485,-3.17712 7.252126,-4.14407 10.636455,-11.05086 3.38432,-6.97585 3.38432,-17.1979 z"
       style="font-weight:bold;font-size:141.451px;line-height:1.25;-inkscape-font-specification:'sans-serif Bold';stroke-width:0.26458333;stroke:#ff000d;stroke-opacity:1;stroke-dasharray:none;vector-effect:non-scaling-stroke;-inkscape-stroke:hairline;fill:none"
       id="path20701" />
    <path
       d="m 250.69879,110.40742 q 0,14.36612 -6.56144,25.76232 -6.56145,11.32713 -16.57629,17.4051 -7.5284,4.55848 -16.50723,6.35425 -8.97882,1.79576 -21.2729,1.79576 H 153.5203 V 58.882791 h 37.29665 q 12.57035,0 21.68731,2.141104 9.11696,2.072036 15.33307,5.939837 10.63645,6.49238 16.71442,17.543239 6.14704,10.981792 6.14704,25.900449 z m -27.41994,-0.2072 q 0,-10.15298 -3.72967,-17.336036 -3.66059,-7.252127 -11.67247,-11.327131 -4.075,-2.002968 -8.35721,-2.693647 -4.21314,-0.759747 -12.77756,-0.759747 h -6.69958 v 64.371261 h 6.69958 q 9.4623,0 13.88265,-0.82882 4.42034,-0.89788 8.63348,-3.17712 7.25213,-4.14407 10.63645,-11.05086 3.38433,-6.97585 3.38433,-17.1979 z"
       style="font-weight:bold;font-size:141.451px;line-height:1.25;-inkscape-font-specification:'sans-serif Bold';stroke-width:0.26458333;stroke:#ff000d;stroke-opacity:1;stroke-dasharray:none;vector-effect:non-scaling-stroke;-inkscape-stroke:hairline;fill:none"
       id="path20703" />
    <path
       d="m 326.53531,161.72485 h -60.22719 v -18.23391 h 16.85256 V 77.116709 H 266.30812 V 58.882791 h 60.22719 v 18.233918 h -16.85256 v 66.374231 h 16.85256 z"
       style="font-weight:bold;font-size:141.451px;line-height:1.25;-inkscape-font-specification:'sans-serif Bold';stroke-width:0.26458333;stroke:#ff000d;stroke-opacity:1;stroke-dasharray:none;vector-effect:non-scaling-stroke;-inkscape-stroke:hairline;fill:none"
       id="path20705" />
    <path
       d="M 441.67147,161.72485 H 416.11635 L 372.46546,91.137487 V 161.72485 H 348.15357 V 58.882791 h 31.70215 l 37.50385,58.914899 V 58.882791 h 24.3119 z"
       style="font-weight:bold;font-size:141.451px;line-height:1.25;-inkscape-font-specification:'sans-serif Bold';stroke-width:0.26458333;stroke:#ff000d;stroke-opacity:1;stroke-dasharray:none;vector-effect:non-scaling-stroke;-inkscape-stroke:hairline;fill:none"
       id="path20707" />
    <path
       d="m 558.87963,155.85408 q -6.90679,2.69365 -18.30299,5.3873 -11.3962,2.62458 -22.72333,2.62458 -26.24579,0 -41.09538,-14.22798 -14.8496,-14.29705 -14.8496,-39.43776 0,-23.966552 14.98773,-38.608941 14.98773,-14.711457 41.78606,-14.711457 10.15298,0 19.33901,1.864833 9.18603,1.795764 20.44409,7.252126 v 24.104688 h -2.96992 q -1.9339,-1.450425 -5.66356,-4.075004 -3.72967,-2.693647 -7.18306,-4.55848 -4.00594,-2.210172 -9.39323,-3.798733 -5.31823,-1.588561 -11.32714,-1.588561 -7.04492,0 -12.77755,2.072036 -5.73264,2.072036 -10.29111,6.354244 -4.35128,4.144073 -6.90679,10.567385 -2.48645,6.354244 -2.48645,14.711454 0,17.05977 9.0479,26.10766 9.04789,9.04789 26.72926,9.04789 1.5195,0 3.31526,-0.0691 1.86483,-0.0691 3.38433,-0.2072 V 124.49727 H 511.43 V 105.0892 h 47.44963 z"
       style="font-weight:bold;font-size:141.451px;line-height:1.25;-inkscape-font-specification:'sans-serif Bold';stroke-width:0.26458333;stroke:#ff000d;stroke-opacity:1;stroke-dasharray:none;vector-effect:non-scaling-stroke;-inkscape-stroke:hairline;fill:none"
       id="path20709" />
    <path
       id="rect20618"
       style="fill:none;stroke:#ff0000;stroke-width:0.264583;stroke-linecap:round;stop-color:#000000"
       d="m -213.0826,12.970784 v 26.513015 h -19.73523 V 175.9337 h 19.73523 v 26.51302 h -19.73523 v 0.25947 H 4.571814 24.307043 44.306856 V 176.19283 H 24.307043 V 39.483799 H 44.306856 V 12.970784 H 24.307043 4.571814 Z"
       sodipodi:nodetypes="ccccccccccccccccccc" />
    <path
       id="path21095"
       style="fill:none;stroke:#ff0000;stroke-width:0.264583;stroke-linecap:round;stop-color:#000000"
       d="M 44.727502,12.970784 V 39.483799 H 24.992272 V 175.93369 h 19.73523 v 26.51302 h -19.73523 v 0.25947 H 240.15687 259.8921 279.89191 V 176.19282 H 259.8921 V 39.483799 h 19.99981 V 12.970784 H 259.8921 240.15687 Z"
       sodipodi:nodetypes="ccccccccccccccccccc" />
    <path
       id="path21099"
       style="fill:none;stroke:#ff0000;stroke-width:0.264583;stroke-linecap:round;stop-color:#000000"
       d="M 279.8256,13.319452 V 39.832467 H 260.09037 V 176.28238 h 19.73523 v 26.51302 h -19.73523 v 0.25947 h 173.88965 19.73523 19.99981 V 176.54151 H 453.71525 V 39.832467 h 19.99981 V 13.319452 h -19.99981 -19.73523 z"
       sodipodi:nodetypes="ccccccccccccccccccc" />
    <path
       id="path21101"
       style="fill:none;stroke:#ff0000;stroke-width:0.264583;stroke-linecap:round;stop-color:#000000"
       d="M 473.70981,13.319443 V 39.832458 H 453.97458 V 176.28236 h 19.73523 v 26.51302 h -19.73523 v 0.25947 h 73.34798 19.73523 19.99981 V 13.319443 h -19.99981 -19.73523 z"
       sodipodi:nodetypes="ccccccccccccccc" />
  </g>
</svg>
