<?xml version="1.0" encoding="UTF-8" standalone="no"?>
<!-- Created with Inkscape (http://www.inkscape.org/) -->

<svg
   width="255.16422mm"
   height="189.99998mm"
   viewBox="0 0 255.16422 189.99998"
   version="1.1"
   id="svg20428"
   inkscape:version="1.2.1 (9c6d41e, 2022-07-14)"
   sodipodi:docname="s2.svg"
   xmlns:inkscape="http://www.inkscape.org/namespaces/inkscape"
   xmlns:sodipodi="http://sodipodi.sourceforge.net/DTD/sodipodi-0.dtd"
   xmlns="http://www.w3.org/2000/svg"
   xmlns:svg="http://www.w3.org/2000/svg">
  <sodipodi:namedview
     id="namedview20430"
     pagecolor="#ffffff"
     bordercolor="#666666"
     borderopacity="1.0"
     inkscape:showpageshadow="2"
     inkscape:pageopacity="0.0"
     inkscape:pagecheckerboard="0"
     inkscape:deskcolor="#d1d1d1"
     inkscape:document-units="mm"
     showgrid="false"
     inkscape:zoom="0.37192416"
     inkscape:cx="662.76953"
     inkscape:cy="537.74404"
     inkscape:window-width="1280"
     inkscape:window-height="772"
     inkscape:window-x="0"
     inkscape:window-y="28"
     inkscape:window-maximized="0"
     inkscape:current-layer="layer1" />
  <defs
     id="defs20425" />
  <g
     inkscape:label="Layer 1"
     inkscape:groupmode="layer"
     id="layer1"
     transform="translate(-24.859981,-12.838493)">
    <path
       d="m 133.28342,110.40742 q 0,14.36612 -6.56145,25.76232 -6.56145,11.32713 -16.57629,17.4051 -7.5284,4.55848 -16.507221,6.35425 -8.978823,1.79576 -21.272905,1.79576 H 36.104921 V 58.882791 h 37.296651 q 12.570353,0 21.687313,2.141104 9.116955,2.072036 15.333065,5.939837 10.63645,6.49238 16.71443,17.543239 6.14704,10.981792 6.14704,25.900449 z m -27.41995,-0.2072 q 0,-10.15298 -3.72966,-17.336036 -3.6606,-7.252127 -11.672473,-11.327131 -4.075004,-2.002968 -8.357213,-2.693647 -4.21314,-0.759747 -12.777556,-0.759747 h -6.699584 v 64.371261 h 6.699584 q 9.462299,0 13.882642,-0.82882 4.420344,-0.89788 8.633485,-3.17712 7.252126,-4.14407 10.636455,-11.05086 3.38432,-6.97585 3.38432,-17.1979 z"
       style="font-weight:bold;font-size:141.451px;line-height:1.25;-inkscape-font-specification:'sans-serif Bold';vector-effect:non-scaling-stroke;fill:none;stroke:#ff000d;stroke-width:0.264583;stroke-dasharray:none;stroke-opacity:1;-inkscape-stroke:hairline"
       id="path20701" />
    <path
       d="m 250.69879,110.40742 q 0,14.36612 -6.56144,25.76232 -6.56145,11.32713 -16.57629,17.4051 -7.5284,4.55848 -16.50723,6.35425 -8.97882,1.79576 -21.2729,1.79576 H 153.5203 V 58.882791 h 37.29665 q 12.57035,0 21.68731,2.141104 9.11696,2.072036 15.33307,5.939837 10.63645,6.49238 16.71442,17.543239 6.14704,10.981792 6.14704,25.900449 z m -27.41994,-0.2072 q 0,-10.15298 -3.72967,-17.336036 -3.66059,-7.252127 -11.67247,-11.327131 -4.075,-2.002968 -8.35721,-2.693647 -4.21314,-0.759747 -12.77756,-0.759747 h -6.69958 v 64.371261 h 6.69958 q 9.4623,0 13.88265,-0.82882 4.42034,-0.89788 8.63348,-3.17712 7.25213,-4.14407 10.63645,-11.05086 3.38433,-6.97585 3.38433,-17.1979 z"
       style="font-weight:bold;font-size:141.451px;line-height:1.25;-inkscape-font-specification:'sans-serif Bold';vector-effect:non-scaling-stroke;fill:none;stroke:#ff000d;stroke-width:0.264583;stroke-dasharray:none;stroke-opacity:1;-inkscape-stroke:hairline"
       id="path20703" />
    <path
       id="path21095"
       style="fill:none;stroke:#ff0000;stroke-width:0.264583;stroke-linecap:round;stop-color:#000000"
       d="M 44.727502,12.970784 V 39.483799 H 24.992272 V 175.93369 h 19.73523 v 26.51302 l 195.429368,0.25947 h 19.73523 19.99981 V 176.19282 H 259.8921 V 39.483799 h 19.99981 V 12.970784 H 259.8921 240.15687 Z"
       sodipodi:nodetypes="ccccccccccccccccc" />
  </g>
</svg>
