<?xml version="1.0" encoding="UTF-8" standalone="no"?>
<!-- Created with Inkscape (http://www.inkscape.org/) -->

<svg
   width="113.3476mm"
   height="189.99998mm"
   viewBox="0 0 113.3476 189.99998"
   version="1.1"
   id="svg20428"
   inkscape:version="1.2.1 (9c6d41e, 2022-07-14)"
   sodipodi:docname="s4.svg"
   xmlns:inkscape="http://www.inkscape.org/namespaces/inkscape"
   xmlns:sodipodi="http://sodipodi.sourceforge.net/DTD/sodipodi-0.dtd"
   xmlns="http://www.w3.org/2000/svg"
   xmlns:svg="http://www.w3.org/2000/svg">
  <sodipodi:namedview
     id="namedview20430"
     pagecolor="#ffffff"
     bordercolor="#666666"
     borderopacity="1.0"
     inkscape:showpageshadow="2"
     inkscape:pageopacity="0.0"
     inkscape:pagecheckerboard="0"
     inkscape:deskcolor="#d1d1d1"
     inkscape:document-units="mm"
     showgrid="false"
     inkscape:zoom="0.1787925"
     inkscape:cx="-1278.0178"
     inkscape:cy="525.74911"
     inkscape:window-width="1280"
     inkscape:window-height="772"
     inkscape:window-x="0"
     inkscape:window-y="28"
     inkscape:window-maximized="0"
     inkscape:current-layer="layer1" />
  <defs
     id="defs20425" />
  <g
     inkscape:label="Layer 1"
     inkscape:groupmode="layer"
     id="layer1"
     transform="translate(-453.84229,-13.187152)">
    <path
       d="m 558.87963,155.85408 q -6.90679,2.69365 -18.30299,5.3873 -11.3962,2.62458 -22.72333,2.62458 -26.24579,0 -41.09538,-14.22798 -14.8496,-14.29705 -14.8496,-39.43776 0,-23.966552 14.98773,-38.608941 14.98773,-14.711457 41.78606,-14.711457 10.15298,0 19.33901,1.864833 9.18603,1.795764 20.44409,7.252126 v 24.104688 h -2.96992 q -1.9339,-1.450425 -5.66356,-4.075004 -3.72967,-2.693647 -7.18306,-4.55848 -4.00594,-2.210172 -9.39323,-3.798733 -5.31823,-1.588561 -11.32714,-1.588561 -7.04492,0 -12.77755,2.072036 -5.73264,2.072036 -10.29111,6.354244 -4.35128,4.144073 -6.90679,10.567385 -2.48645,6.354244 -2.48645,14.711454 0,17.05977 9.0479,26.10766 9.04789,9.04789 26.72926,9.04789 1.5195,0 3.31526,-0.0691 1.86483,-0.0691 3.38433,-0.2072 V 124.49727 H 511.43 V 105.0892 h 47.44963 z"
       style="font-weight:bold;font-size:141.451px;line-height:1.25;-inkscape-font-specification:'sans-serif Bold';vector-effect:non-scaling-stroke;fill:none;stroke:#ff000d;stroke-width:0.264583;stroke-dasharray:none;stroke-opacity:1;-inkscape-stroke:hairline"
       id="path20709" />
    <path
       id="path21101"
       style="fill:none;stroke:#ff0000;stroke-width:0.264583;stroke-linecap:round;stop-color:#000000"
       d="M 473.70981,13.319443 V 39.832458 H 453.97458 V 176.28236 h 19.73523 v 26.51302 l 53.61275,0.25947 h 19.73523 19.99981 V 13.319443 h -19.99981 -19.73523 z"
       sodipodi:nodetypes="ccccccccccccc" />
  </g>
</svg>
