<?xml version="1.0" encoding="UTF-8" standalone="no"?>
<!-- Created with Inkscape (http://www.inkscape.org/) -->

<svg
   width="290mm"
   height="200mm"
   viewBox="0 0 290 200"
   version="1.1"
   id="svg5"
   xml:space="preserve"
   inkscape:version="1.2.1 (9c6d41e, 2022-07-14)"
   sodipodi:docname="moustaches-2.svg"
   xmlns:inkscape="http://www.inkscape.org/namespaces/inkscape"
   xmlns:sodipodi="http://sodipodi.sourceforge.net/DTD/sodipodi-0.dtd"
   xmlns="http://www.w3.org/2000/svg"
   xmlns:svg="http://www.w3.org/2000/svg"><sodipodi:namedview
     id="namedview7"
     pagecolor="#ffffff"
     bordercolor="#666666"
     borderopacity="1.0"
     inkscape:showpageshadow="2"
     inkscape:pageopacity="0.0"
     inkscape:pagecheckerboard="0"
     inkscape:deskcolor="#d1d1d1"
     inkscape:document-units="mm"
     showgrid="false"
     inkscape:zoom="0.26483042"
     inkscape:cx="277.53609"
     inkscape:cy="-186.91206"
     inkscape:window-width="1280"
     inkscape:window-height="747"
     inkscape:window-x="0"
     inkscape:window-y="25"
     inkscape:window-maximized="1"
     inkscape:current-layer="layer1" /><defs
     id="defs2" /><g
     inkscape:label="Layer 1"
     inkscape:groupmode="layer"
     id="layer1"
     transform="translate(34.612278,-3.0285742)"><path
       id="path6222"
       style="vector-effect:non-scaling-stroke;fill:none;stroke:#ff0000;stroke-width:0.264583;stroke-dasharray:none;stroke-opacity:1;-inkscape-stroke:hairline"
       d="m -79.613856,-300.04084 c -1.070108,7.3e-4 -2.207126,0.0124 -3.426767,0.0335 -7.436795,0.12861 -9.819575,0.42129 -15.912518,1.9543 -11.621929,2.92426 -21.425259,7.77402 -30.569769,15.1228 -11.68053,9.38682 -20.29463,22.00529 -25.28171,37.03356 l -1.26457,3.81 -2.93377,0.27068 c -1.61368,0.14877 -3.47002,0.40364 -4.12487,0.56648 -1.53556,0.38184 -4.76234,1.87171 -6.23265,2.87796 -4.74707,3.24879 -7.97807,8.85402 -8.53436,14.80561 l -0.17301,1.85197 -1.31201,0.6209 c -2.4335,1.15124 -6.78784,6.05493 -7.43489,8.37297 -0.74043,2.65268 -0.84114,6.82829 -0.21255,8.80226 0.32451,1.01928 0.19288,1.16323 -2.35986,2.58682 -3.91229,2.18175 -6.45486,5.37999 -7.4707,9.3971 -0.4314,1.70592 -0.47829,2.34969 -0.32929,4.49414 0.33601,4.83539 0.49368,4.26541 -1.47805,5.33317 -2.46679,1.33583 -4.2847,2.88627 -5.70244,4.86342 -1.92125,2.67943 -2.27913,3.84153 -2.39659,7.78464 -0.0546,1.83355 0.003,3.7749 0.1265,4.31415 0.1381,0.60167 0.14004,1.13232 0.005,1.3734 -0.12092,0.21609 -0.99023,0.77871 -1.93198,1.25017 -1.2817,0.64162 -2.25518,1.40385 -3.87092,3.0319 -2.39828,2.41663 -3.49339,4.27694 -3.93232,6.67772 -0.22088,1.2083 -0.19066,4.70823 0.0674,7.75813 0.0693,0.81844 0.0395,0.84782 -1.94918,1.905 -5.93961,3.15749 -9.02527,9.25045 -8.02044,15.83764 0.17983,1.17871 0.27711,2.27764 0.21627,2.44218 -0.0608,0.16453 -0.98255,0.75031 -2.04872,1.30178 -2.66844,1.38026 -5.44233,4.13475 -6.66052,6.61448 -1.13531,2.31102 -1.43601,4.01545 -1.28178,7.26328 0.20696,4.35818 1.30537,6.7576 4.45042,9.724524 2.01017,1.89627 3.46104,2.76865 5.48246,3.29701 1.81711,0.47495 6.23689,0.56656 8.14415,0.16883 2.39466,-0.49937 4.19908,-1.56308 6.38752,-3.765824 2.17812,-2.19228 3.24116,-3.98761 3.81883,-6.44844 0.26623,-1.13397 0.33526,-4.95828 0.14976,-8.32322 -0.0435,-0.78847 0.0264,-0.86203 1.69665,-1.78593 4.23659,-2.34347 7.23343,-6.03716 7.93021,-9.77429 0.25872,-1.38764 0.14641,-6.85665 -0.16929,-8.24834 -0.13153,-0.57984 -0.0522,-0.6581 1.03156,-1.01807 1.77851,-0.59072 4.67549,-2.60818 5.89545,-4.1058 0.59375,-0.72889 1.4452,-2.09044 1.89198,-3.0254 1.52662,-3.19474 1.86408,-5.68509 1.28551,-9.48639 -0.33635,-2.20983 -0.31993,-2.23785 2.03475,-3.45793 2.04165,-1.05788 5.17308,-4.0651 6.28938,-6.03962 1.29584,-2.29207 1.5561,-3.83085 1.41527,-8.37484 l -0.12371,-3.98952 1.58083,-0.83158 c 3.24875,-1.70915 5.708,-4.16375 7.2177,-7.20375 0.94131,-1.89536 1.27312,-4.96002 0.9339,-8.62133 -0.14025,-1.51393 -0.14531,-2.60044 -0.0131,-2.75983 0.11999,-0.14459 1.12745,-0.71335 2.23893,-1.26411 2.5196,-1.24852 4.56839,-3.21876 6.14707,-5.91127 0.62284,-1.06221 1.3014,-1.99602 1.50781,-2.07522 0.78154,-0.29991 2.16798,-0.1441 2.55891,0.28789 0.21516,0.23774 0.91765,2.03327 1.5613,3.98952 1.51577,4.60697 2.51489,7.00605 4.81971,11.57232 3.51235,6.95863 8.33776,13.57891 14.12891,19.3844 10.2951,10.32058 22.11608,17.11067 35.965245,20.65872 6.327733,1.62113 11.704478,2.29484 18.335626,2.29754 12.051386,0.005 20.976546,-1.75411 31.432506,-6.19451 22.69241,-9.6369 39.47083,-29.50284 45.1195597,-53.42277 1.5294404,-6.47648 2.0068904,-10.71345 2.0161604,-17.88635 0.0122,-9.49797 -1.1423504,-16.6316 -4.1048704,-25.36031 -8.3646897,-24.64558 -29.2633497,-43.882 -54.5799197,-50.23926 -6.34213,-1.59258 -10.55559,-2.12405 -18.046339,-2.11894 z m -0.523224,9.55012 c 10.640997,0.003 19.862987,2.16091 29.404257,6.85167 6.90869,3.39652 12.2241,7.27683 18.22772,13.30664 4.24448,4.26298 6.07822,6.47968 9.04689,10.93468 5.48125,8.22555 9.43628,18.88875 10.45145,28.17921 0.67811,6.20572 0.51623,15.13478 -0.36602,20.19458 -3.75128,21.51403 -17.64068,39.97769 -37.36004,49.66302 -6.19465,3.04254 -12.8943,5.25483 -18.81188,6.2117 -2.81263,0.45479 -15.910589,0.67245 -19.169063,0.31858 -7.894657,-0.85736 -17.417324,-3.95756 -24.905454,-8.10833 -15.4728,-8.57679 -27.02287,-23.0166 -32.26176,-40.33335 -1.97045,-6.51323 -2.59751,-11.16959 -2.59751,-19.28813 0,-8.52802 0.67476,-13.22737 2.87564,-20.02994 3.42899,-10.59844 8.8808,-19.76249 16.38272,-27.53738 5.47492,-5.67416 10.26252,-9.11044 18.36074,-13.17966 9.70995,-4.87912 17.660063,-6.86994 28.574999,-7.15538 0.722531,-0.0189 1.437912,-0.0281 2.147311,-0.0279 z m -79.15191,58.28622 c 1.10307,0 1.15646,0.44635 1.2362,10.2989 v 4.6e-4 l 0.0749,9.22735 -0.78924,-0.005 c -1.17701,-0.007 -3.93187,-1.05702 -5.36433,-2.0436 -5.54521,-3.81913 -5.21222,-12.03638 0.64647,-15.95251 0.96108,-0.64241 3.3895,-1.52502 4.19603,-1.52502 z m -16.01809,20.00436 c 0.15014,9e-4 0.91594,0.81108 1.70175,1.80035 0.78581,0.98927 2.15206,2.38599 3.03609,3.10399 0.93657,0.7607 1.60735,1.48973 1.60735,1.74687 0,0.4985 -1.41923,1.83678 -2.30452,2.17336 -0.87059,0.331 -2.70368,0.25195 -3.64721,-0.15719 -2.41284,-1.04634 -3.65568,-4.0931 -2.53938,-6.22521 0.52103,-0.99513 1.79458,-2.44397 2.14592,-2.44217 z m -7.61535,19.09138 c 0.0405,-5.5e-4 0.0811,-4.6e-4 0.12185,0 0.17398,0.002 0.35002,0.0133 0.52787,0.0344 1.48268,0.17561 2.43268,0.70863 3.40305,1.90919 0.67509,0.83525 0.73995,1.06516 0.73995,2.63938 0,1.51012 -0.0849,1.84725 -0.68181,2.70866 -0.42601,0.61473 -1.13608,1.20997 -1.89245,1.58688 -0.70837,0.35301 -1.61077,0.60081 -2.17568,0.59811 -1.14389,-0.006 -2.66168,-0.65778 -3.39793,-1.45852 -0.60719,-0.6604 -1.25893,-2.35519 -1.25713,-3.2691 0.005,-2.66904 2.05891,-4.71425 4.61228,-4.74901 z m -9.67895,19.27464 c 0.0356,-4.9e-4 0.0709,-3.9e-4 0.1065,4.6e-4 0.56918,0.0137 1.14267,0.20004 1.85664,0.56183 1.5762,0.79871 3.1026,2.88872 3.1026,4.24858 0,1.51718 -1.59826,3.74485 -3.21283,4.47833 -1.83338,0.83291 -3.45819,0.49458 -5.08248,-1.05854 -1.08803,-1.04035 -1.46781,-1.8522 -1.46781,-3.13656 0,-2.00251 1.12576,-3.75264 2.97237,-4.62064 0.65391,-0.30739 1.19145,-0.46608 1.72501,-0.47346 z m -9.90312,19.53368 c 1.05356,-0.008 2.40081,0.42272 3.26492,1.0818 2.33259,1.77913 2.18102,6.02341 -0.273,7.64743 -1.33681,0.88465 -3.66555,1.00282 -5.12807,0.26045 -2.21956,-1.12668 -3.10874,-4.12091 -1.85755,-6.25589 0.73788,-1.2591 2.29295,-2.46623 3.45885,-2.68496 0.1361,-0.0256 0.28148,-0.041 0.43393,-0.0465 0.0334,-9e-4 0.067,-0.002 0.10092,-0.003 z m -9.54499,19.55834 c 1.76491,-0.0118 3.47426,0.98447 4.30857,2.61984 0.74365,1.45766 0.55183,3.64833 -0.42602,4.86249 -0.39945,0.496 -1.14476,1.14134 -1.65618,1.43387 -1.00976,0.57756 -3.04357,0.71104 -4.1444,0.27208 -2.08295,-0.83058 -3.21724,-3.75521 -2.40682,-6.20567 0.37784,-1.14248 1.87398,-2.47801 3.16584,-2.82588 0.26667,-0.0718 0.53603,-0.11838 0.80554,-0.14092 0.11791,-0.01 0.2358,-0.015 0.35347,-0.0158 z m -9.64268,19.27929 c 0.0386,-2.3e-4 0.077,6.2e-4 0.11535,0.003 0.30718,0.0174 0.61853,0.11251 1.09481,0.2944 1.9061,0.72794 3.65699,2.92569 3.65699,4.59042 0,1.55805 -1.30899,3.55535 -2.8282,4.31555 -2.49699,1.24949 -5.09143,0.2849 -6.4796,-2.40822 -1.25318,-2.43127 0.51466,-5.78866 3.48584,-6.62053 0.40251,-0.11269 0.68475,-0.17279 0.95481,-0.17441 z" /><path
       id="path3457"
       style="vector-effect:non-scaling-stroke;fill:none;stroke:#ff0000;stroke-width:0.26458333;stroke-dasharray:none;stroke-opacity:1;-inkscape-stroke:hairline"
       d="m -28.632077,364.26992 c -5.38087,-5.01313 -10.30055,-20.97271 -11.91177,-38.64271 -1.05759,-11.59844 -0.65652,-13.976 3.17209,-18.80179 2.71153,-3.41777 7.26131,-6.04278 11.93117,-6.88387 4.15156,-0.74734 8.4646,-2.06855 9.58469,-2.93519 1.12001,-0.86664 9.7291598,-2.49986 19.1315098,-3.62927 21.0867002,-2.53303 25.3532502,-0.9483 29.9659102,11.12995 3.37228,8.83004 5.53227,10.69085 7.92176,6.82453 0.69193,-1.12002 4.35776,-2.03638 8.14558,-2.03638 3.78789,0 7.45342,0.91636 8.14565,2.03638 1.68703,2.72976 5.09094,2.59515 5.09094,-0.20166 0,-5.05899 6.62179,-15.66965 11.03335,-17.6797 4.97918,-2.26866 33.359347,0.20165 39.680667,3.45417 1.78785,0.91983 6.73071,2.30091 10.98425,3.06919 11.40495,2.05977 15.95635,10.45079 14.41748,26.58062 -1.34975,14.14772 -7.26292,32.5232 -12.23318,38.01528 -4.29656,4.74767 -16.47602,4.95856 -37.160557,0.64344 -18.94772,-3.95291 -27.85211,-7.65499 -30.55378,-12.70314 -1.85504,-3.46617 -1.36531,-23.75796 0.72964,-30.23013 1.3095,-4.04581 -8.59352,-7.84595 -14.77153,-5.66826 -5.47808,1.93093 -5.53811,2.14997 -4.98903,18.19214 0.77159,22.54058 -0.98887,24.28757 -30.7280302,30.4919 -20.6443698,4.30696 -32.2013198,3.99155 -37.5867298,-1.02566 z m 42.92835,-3.42131 c 18.66179,-4.27471 20.68454,-7.37345 17.48012,-26.77727 -2.73369,-16.55291 -7.1504,-22.73993 -16.23327,-22.73993 -7.6583802,0 -36.22935,5.82643 -40.944,8.34961 -8.23824,4.40894 -5.77832,32.51327 3.67314,41.96473 5.28366,5.28366 9.92581,5.18091 36.02401,-0.79729 z m 102.122587,4.20082 c 7.5671,-2.90378 14.70857,-28.78524 10.93199,-39.61871 -1.54856,-4.44227 -4.11092,-6.08381 -13.50335,-8.65117 -16.049397,-4.38693 -29.915647,-6.14607 -36.137147,-4.58458 -6.34503,1.59251 -10.1123,9.71138 -12.15606,26.19757 -1.19375,9.62925 -0.8297,12.48586 1.98819,15.5996 3.5413,3.91305 25.16745,9.94267 43.200957,12.04492 1.30843,0.1524 3.86233,-0.2917 5.67542,-0.98763 z" /><g
       id="g3672"
       style="vector-effect:non-scaling-stroke;-inkscape-stroke:hairline;stroke-width:0.26458333;stroke-dasharray:none"><path
         id="path3523"
         style="fill:none;stroke:#ff0000;stroke-width:0.26458333;stroke-dasharray:none;stroke-opacity:1;vector-effect:non-scaling-stroke;-inkscape-stroke:hairline"
         d="m -17.274923,280.72741 c -0.76397,-0.76397 -1.40201,-5.21833 -1.41768,-9.89834 -0.0473,-14.11831 -1.68303,-16.85318 -13.93575,-23.29852 -6.36382,-3.34754 -11.6862,-7.0158 -11.82734,-8.15168 -0.14098,-1.13588 5.47998,-4.78956 12.49145,-8.11939 l 12.74828,-6.05413 2.54899,-14.26355 c 1.72902,-9.67498 3.49372,-14.26347 5.48557,-14.26347 1.61513,0 2.94665,0.70333 2.95902,1.56284 0.0157,0.85959 3.71779,5.42634 8.23429999,10.14833 l 8.21177001,8.58541 14.68822,-1.0509 c 15.33319,-1.09713 16.76371,-0.21344 11.59744,7.16222 -3.04605,4.34882 -2.91177,4.41104 9.27133,4.29628 11.17308,-0.10553 12.17199,-0.47177 10.38437,-3.81207 -4.19083,-7.83057 -2.64122,-8.74127 12.35881,-7.26318 15.70328,1.5474 15.93429,1.43816 26.63299,-12.58856 3.01447,-3.95218 6.48716,-6.8504 7.717083,-6.44045 1.22992,0.41034 3.67243,6.68367 5.42784,13.94157 3.38078,13.97812 3.86964,14.48369 19.34161,20.00312 5.44406,1.94215 9.89834,4.66126 9.89834,6.04264 0,1.38129 -4.56785,4.99765 -10.15085,8.03621 -13.51328,7.35487 -14.51487,8.8762 -15.25907,23.17723 -0.37333,7.18128 -1.67507,12.60825 -3.13907,13.09097 -1.37531,0.45366 -6.78881,-3.12812 -12.029993,-7.95927 l -9.52927,-8.78373 -14.56417,3.19585 c -8.01039,1.7577 -14.97192,2.53624 -15.47023,1.72997 -0.49856,-0.80627 1.38838,-6.41809 4.19264,-12.47081 6.43108,-13.88077 6.40611,-17.9737 -0.13626,-22.26014 -6.67792,-4.3756 -26.68166,-3.15261 -31.77705,1.9427 -3.22169,3.22168 -3.07189,4.24572 2.18969,14.97396 9.16571,18.68853 8.53004,19.51433 -11.40936,14.82148 l -11.84758,-2.78834 -8.90399,9.07254 c -8.63527,8.79869 -12.09347,10.57214 -14.98239,7.68321 z m 29.4393,-20.4485 c 4.24761,0.68127 9.92464,1.695 12.61556,2.25207 2.69092,0.55683 4.54478,0.26857 4.11956,-0.64111 -0.42531,-0.9096 -2.98139,-5.97065 -5.68042,-11.24672 l -4.90739,-9.59291 5.72964,-9.77697 c 3.15135,-5.37735 5.38137,-10.10218 4.95559,-10.49976 -0.42609,-0.39774 -5.46288,0.0315 -11.19347,0.94434 -10.22205,1.63561 -10.58293,1.50873 -19.06367,-6.70234 -9.50233,-9.20021 -9.39971,-9.26007 -12.31439,7.18648 -1.25252,7.06738 -2.35414,8.15538 -11.57239,11.42944 -5.60347,1.99011 -10.1881,4.32031 -10.1881,5.17808 0,0.85778 4.68875,3.93557 10.41934,6.83946 9.76642,4.94905 10.43565,5.80006 10.6798,13.58022 0.14335,4.56526 0.49462,9.2381 0.7813,10.38422 0.28669,1.14611 0.63796,2.66185 0.7813,3.36833 0.14335,0.70648 4.05261,-2.14157 8.68741,-6.32885 7.42764,-6.71045 9.34285,-7.46631 16.15001,-6.37406 z m 105.145073,-16.39417 10.1688,-6.32121 -10.03436,-3.91753 c -12.85862,-5.0201 -13.03851,-5.2274 -15.96272,-18.39578 l -2.464403,-11.09755 -8.02842,9.79761 -8.02842,9.79761 -11.2186,-1.31852 c -6.17031,-0.72539 -11.21868,-0.67104 -11.21868,0.1205 0,0.79162 2.3443,4.88935 5.20967,9.10609 6.28908,9.25527 6.41155,11.79591 1.07342,22.26637 -2.2749,4.46216 -3.77788,8.47137 -3.33982,8.90935 0.43791,0.43791 5.81581,-0.1205 11.95067,-1.2422 10.86048,-1.98484 11.37392,-1.85638 19.48976,4.87494 l 8.335513,6.91349 1.94939,-11.58618 c 1.8285,-10.86693 2.58073,-11.97847 12.1182,-17.90738 z" /><g
         id="g3667"
         transform="translate(21.266035,191.85754)"
         style="fill:none;stroke:#ff0000;stroke-width:0.26458333;stroke-dasharray:none;stroke-opacity:1;vector-effect:non-scaling-stroke;-inkscape-stroke:hairline"><rect
           style="fill:none;stroke:#ff0000;stroke-width:0.26458333;stroke-dasharray:none;stroke-opacity:1;stop-color:#000000;vector-effect:non-scaling-stroke;-inkscape-stroke:hairline"
           id="rect3663"
           width="9.9999065"
           height="3"
           x="77.620766"
           y="81.704231" /></g></g><g
       id="g1069"
       transform="rotate(90,220.16802,56.073345)"><path
         id="path3535"
         style="fill:none;stroke:#ff0000;stroke-width:0.264583;stroke-dasharray:none;stroke-opacity:1"
         d="m 210.36197,301.21791 c -15.46525,-5.08375 -24.37358,-12.32164 -29.10449,-23.64712 -6.29294,-15.06471 -0.77703,-31.69561 12.87545,-38.82049 15.30772,-7.98876 41.40335,-2.15499 59.99704,13.41257 10.28953,8.61494 18.03969,9.24923 27.34149,2.23787 3.39514,-2.55911 6.94581,-5.62425 7.89036,-6.8115 3.31316,-4.16418 22.06919,-11.04702 32.84606,-12.05337 21.52524,-2.01005 34.99967,7.9295 36.36653,26.82605 1.62844,22.51322 -18.14582,40.4399 -44.49848,40.34079 -9.8488,-0.0389 -12.68994,-0.83623 -21.46735,-6.03844 -8.21724,-4.87013 -10.92233,-7.66882 -14.40977,-14.9084 -3.82945,-7.94943 -4.88234,-8.91541 -9.74183,-8.93786 -4.74557,-0.0195 -5.71265,0.77573 -7.49766,6.18441 -3.06592,9.28993 -13.60613,18.88812 -24.19489,22.03264 -10.70722,3.17971 -17.14985,3.22436 -26.40246,0.18305 z m 24.71463,-3.74305 c 8.08619,-1.61728 19.04694,-12.2518 20.12904,-19.52987 2.15791,-14.51421 -17.12927,-29.19563 -38.35457,-29.19563 -12.03104,0 -19.97417,5.33313 -23.00381,15.44514 -5.93263,19.80145 16.81479,38.16322 41.22934,33.28036 z m 96.35935,-5.13471 c 10.1553,-6.72043 14.37212,-14.47656 13.25568,-24.38157 -0.74385,-6.59931 -2.06456,-9.04224 -7.36621,-13.62508 -5.67339,-4.90428 -7.66221,-5.58414 -16.33563,-5.58414 -24.28064,0 -44.79271,18.85313 -36.97025,33.98015 2.9609,5.7257 11.75336,13.16481 17.36398,14.69134 7.73166,2.10352 23.13019,-0.4998 30.05243,-5.0807 z" /><g
         id="g3684"
         transform="translate(103.71022,182.41144)"
         style="fill:none;stroke:#ff0000;stroke-width:0.264583;stroke-dasharray:none;stroke-opacity:1"><rect
           style="fill:none;stroke:#ff0000;stroke-width:0.264583;stroke-dasharray:none;stroke-opacity:1;stop-color:#000000"
           id="rect3680"
           width="9.9999065"
           height="3"
           x="77.620766"
           y="81.704231" /><rect
           style="fill:none;stroke:#ff0000;stroke-width:0.264583;stroke-dasharray:none;stroke-opacity:1;stop-color:#000000"
           id="rect3682"
           width="9.9999065"
           height="3"
           x="77.620766"
           y="76.412567" /></g></g><g
       id="g3690"
       transform="translate(47.089384,232.15315)"
       style="vector-effect:non-scaling-stroke;fill:none;stroke:#ff0000;stroke-width:0.26458333;stroke-dasharray:none;stroke-opacity:1;-inkscape-stroke:hairline"><rect
         style="vector-effect:non-scaling-stroke;fill:none;stroke:#ff0000;stroke-width:0.26458333;stroke-dasharray:none;stroke-opacity:1;-inkscape-stroke:hairline;stop-color:#000000"
         id="rect3686"
         width="9.9999065"
         height="3"
         x="77.620766"
         y="81.704231" /><rect
         style="vector-effect:non-scaling-stroke;fill:none;stroke:#ff0000;stroke-width:0.26458333;stroke-dasharray:none;stroke-opacity:1;-inkscape-stroke:hairline;stop-color:#000000"
         id="rect3688"
         width="9.9999065"
         height="3"
         x="77.620766"
         y="76.412567" /></g><path
       style="fill:#000000;stroke-width:1"
       d="m 395.81106,480.83093 c -0.17299,-0.0478 -0.10034,0.21707 0.22996,0.59222 0.4316,0.49032 0.63976,0.48992 0.63976,-0.001 0,-0.21828 -0.0587,-0.33815 -0.13023,-0.26665 -0.0715,0.0715 -0.28995,-0.003 -0.48524,-0.16485 -0.1119,-0.0929 -0.19658,-0.14375 -0.25425,-0.15968 z"
       id="path4537" /><path
       style="fill:#000000;stroke-width:1"
       d="m 397.31381,480.76065 c -0.15411,0 -0.2806,0.11907 -0.2806,0.26459 0,0.14552 0.0526,0.26458 0.11679,0.26458 0.0642,0 0.19018,-0.11906 0.28008,-0.26458 0.0899,-0.14552 0.0378,-0.26459 -0.11627,-0.26459 z"
       id="path4535" /><path
       style="fill:#000000;stroke-width:1"
       d="m 397.04923,479.43774 c -0.15411,0 -0.2806,0.11906 -0.2806,0.26458 0,0.14552 0.0526,0.26458 0.11678,0.26458 0.0642,0 0.19019,-0.11906 0.28009,-0.26458 0.0899,-0.14552 0.0378,-0.26458 -0.11627,-0.26458 z"
       id="path4533" /><path
       style="fill:#000000;stroke-width:1"
       d="m 398.13185,479.20881 c -0.0322,0.0216 -0.01,0.15948 0.0475,0.42737 0.0699,0.32727 0.0192,0.6616 -0.11265,0.7431 -0.13186,0.0815 -0.23009,0.28971 -0.21859,0.46302 0.0146,0.22063 0.0616,0.21395 0.15658,-0.0222 0.0746,-0.18552 0.55964,-0.51412 1.07797,-0.7307 0.51834,-0.21657 0.8733,-0.46254 0.7891,-0.54674 -0.0842,-0.0842 -0.36527,-0.0346 -0.62477,0.11059 -0.35165,0.19679 -0.56367,0.15247 -0.83303,-0.17415 -0.16271,-0.19729 -0.24994,-0.29182 -0.28215,-0.27027 z"
       id="path4531" /><path
       style="fill:#000000;stroke-width:1"
       d="m 402.6401,477.58514 c -0.22353,0.0229 -0.59744,0.25896 -1.00045,0.66197 -0.80359,0.80359 -0.80341,0.80388 -0.99322,0.078 -0.084,-0.32104 -0.22648,-0.50991 -0.31678,-0.41961 -0.0903,0.0903 -0.0312,0.41222 0.13126,0.71572 0.19615,0.36659 0.20313,0.5519 0.0212,0.5519 -0.15064,0 -0.27388,-0.13872 -0.27388,-0.3085 0,-0.16979 -0.0713,-0.23717 -0.15865,-0.14987 -0.0873,0.0873 -0.0804,0.2856 0.0155,0.4408 0.0959,0.1552 0.24439,0.28216 0.32969,0.28216 0.29401,0 2.45875,-1.45562 2.45928,-1.65365 3.6e-4,-0.14973 -0.0798,-0.2127 -0.21394,-0.19895 z"
       id="path4529" /><g
       id="g1063"
       transform="translate(-220.99088,55.47845)"><path
         style="fill:none;stroke:#ff0000;stroke-width:1;stroke-opacity:1"
         d="m 363.13929,-50.133356 c -9.51224,0 -19.02451,0.1114 -21.82812,0.33434 -2.25557,0.17936 -7.16337,0.55997 -10.90631,0.84595 -9.99135,0.76338 -20.80723,2.72499 -24.02954,4.35787 -4.74303,2.40348 -6.18133,7.57193 -7.39748,26.58494 -0.29321,4.58391 -0.71065,10.4179697 -0.9276,12.9645797 -0.21695,2.54661 -0.69219,9.51179 -1.05626,15.4781303 -0.36406,5.96635 -0.78317,12.1576 -0.93121,13.75833 -0.73607,7.95926 -1.66555,15.98593 -2.23707,19.31459 -0.34979,2.03728 -0.76701,4.65666 -0.92708,5.82083 -0.92254,6.70953 -1.38574,9.35323 -1.7725,10.12031 l -0.43357,0.8599 -7.82949,-0.005 c -4.30633,-0.003 -8.90159,-0.12143 -10.21127,-0.26407 -1.30968,-0.14263 -4.88158,-0.49352 -7.93751,-0.77979 -3.05593,-0.28628 -6.12103,-0.60014 -6.81147,-0.69764 l -1.25522,-0.17725 -0.43149,1.02785 c -0.23724,0.56537 -0.60987,1.93189 -0.82838,3.03651 -0.35805,1.80977 -0.35552,2.21538 0.0274,4.10104 0.60874,2.99778 1.93365,5.49545 4.20853,7.9344 2.95535,3.16849 6.56607,6.26549 9.94875,8.53281 1.69368,1.13523 4.42702,2.97573 6.07405,4.09019 8.10834,5.48648 20.27145,9.65876 30.60744,10.4991 2.94223,0.23921 8.80193,0.65649 20.90208,1.48776 1.45521,0.1 8.59897,0.26837 15.875,0.37414 h 5.2e-4 c 15.39454,0.22378 42.22039,0.0783 52.12291,-0.28267 6.20118,-0.22604 15.40904,-0.81075 24.87084,-1.57923 10.33379,-0.8393 22.49877,-5.01239 30.60743,-10.4991 1.64704,-1.11447 4.38951,-2.96122 6.09472,-4.10414 3.27736,-2.19665 7.43883,-5.78816 10.20455,-8.8067 2.00874,-2.19237 3.35668,-4.81314 3.93205,-7.64656 0.38285,-1.88566 0.38538,-2.29128 0.0274,-4.10104 -0.21852,-1.10463 -0.59113,-2.47114 -0.82836,-3.03651 l -0.4315,-1.02785 -1.25522,0.17725 c -0.69043,0.0975 -3.75605,0.41136 -6.81199,0.69764 -3.05593,0.28627 -6.62781,0.63715 -7.9375,0.77979 -1.30968,0.14263 -5.90442,0.26107 -10.21074,0.26407 l -7.8295,0.005 -0.43511,-0.8599 c -0.36609,-0.72349 -1.19216,-5.49784 -1.88826,-10.91406 -0.0935,-0.72761 -0.40398,-2.59118 -0.68988,-4.14083 -1.09639,-5.9428 -2.385,-19.23832 -3.29127,-33.95917 -0.36732,-5.9663503 -0.84369,-12.9315203 -1.05834,-15.4781303 -0.21465,-2.54661 -0.63045,-8.3806797 -0.92449,-12.9645797 -1.22986,-19.17264 -2.62847,-24.16926 -7.4476,-26.61129 -3.14565,-1.59402 -14.13344,-3.57931 -23.97167,-4.33101 -3.74614,-0.28623 -8.65694,-0.6671 -10.91251,-0.84646 -2.80361,-0.22294 -12.31588,-0.33434 -21.82813,-0.33434 z"
         id="path4518" /><g
         id="g4543"
         transform="translate(194.72695,-8.0886158)"
         style="fill:none;stroke:#ff0000;stroke-width:0.264583;stroke-dasharray:none;stroke-opacity:1"><rect
           style="fill:none;stroke:#ff0000;stroke-width:0.264583;stroke-dasharray:none;stroke-opacity:1;stop-color:#000000"
           id="rect4539"
           width="9.9999065"
           height="3"
           x="77.620766"
           y="81.704231" /><rect
           style="fill:none;stroke:#ff0000;stroke-width:0.264583;stroke-dasharray:none;stroke-opacity:1;stop-color:#000000"
           id="rect4541"
           width="9.9999065"
           height="3"
           x="77.620766"
           y="76.412567" /></g></g><rect
       style="vector-effect:non-scaling-stroke;fill:none;stroke:#ff0000;stroke-width:0.264583;stroke-dasharray:none;stroke-opacity:1;-inkscape-stroke:hairline;stop-color:#000000"
       id="rect6257"
       width="9.9999065"
       height="3"
       x="-186.7851"
       y="-49.30109" /><rect
       style="vector-effect:non-scaling-stroke;fill:none;stroke:#ff0000;stroke-width:0.264583;stroke-dasharray:none;stroke-opacity:1;-inkscape-stroke:hairline;stop-color:#000000"
       id="rect6259"
       width="9.9999065"
       height="3"
       x="-186.7851"
       y="-69.409424" /></g></svg>
