<?xml version="1.0" encoding="UTF-8" standalone="no"?>
<!-- Created with Inkscape (http://www.inkscape.org/) -->

<svg
   width="290mm"
   height="200mm"
   viewBox="0 0 290 200"
   version="1.1"
   id="svg5"
   xml:space="preserve"
   inkscape:version="1.2.1 (9c6d41e, 2022-07-14)"
   sodipodi:docname="moustaches.svg"
   xmlns:inkscape="http://www.inkscape.org/namespaces/inkscape"
   xmlns:sodipodi="http://sodipodi.sourceforge.net/DTD/sodipodi-0.dtd"
   xmlns="http://www.w3.org/2000/svg"
   xmlns:svg="http://www.w3.org/2000/svg"><sodipodi:namedview
     id="namedview7"
     pagecolor="#ffffff"
     bordercolor="#666666"
     borderopacity="1.0"
     inkscape:showpageshadow="2"
     inkscape:pageopacity="0.0"
     inkscape:pagecheckerboard="0"
     inkscape:deskcolor="#d1d1d1"
     inkscape:document-units="mm"
     showgrid="false"
     inkscape:zoom="0.26483042"
     inkscape:cx="232.22408"
     inkscape:cy="-302.0801"
     inkscape:window-width="1280"
     inkscape:window-height="404"
     inkscape:window-x="0"
     inkscape:window-y="25"
     inkscape:window-maximized="0"
     inkscape:current-layer="layer1" /><defs
     id="defs2" /><g
     inkscape:label="Layer 1"
     inkscape:groupmode="layer"
     id="layer1"
     transform="translate(34.612278,-3.0285742)"><g
       id="g631"
       transform="translate(0,-21.166667)"><path
         id="path3603"
         style="fill:none;stroke:#ff0000;stroke-width:0.264583;stroke-dasharray:none;stroke-opacity:1"
         d="m -3.5923552,164.96509 c -3.830728,-0.77 -9.1711688,-3.0371 -11.8675768,-5.0379 -9.765379,-7.246 -22.468894,-40.7839 -18.357864,-48.4655 1.818653,-3.3982 3.267226,-3.6102 18.668115,-2.7318 9.1830378,0.524 20.3936778,1.8616 24.9125338,2.973 4.5187862,1.1114 16.6374062,3.738 26.9302672,5.837 l 18.714283,3.8162 18.714275,-3.8162 c 10.29286,-2.099 22.41148,-4.7256 26.930262,-5.837 4.51886,-1.1114 15.72951,-2.4492 24.91253,-2.973 15.40089,-0.878 16.84947,-0.667 18.66812,2.7318 3.90533,7.2972 -8.1594,40.5511 -17.32905,47.764 -9.58003,7.5356 -30.135802,8.49569 -46.717042,2.1818 -5.55415,-2.1148 -12.7543,-12.2712 -16.0009,-22.5705 -2.001435,-6.3492 -2.667895,-6.8467 -9.173095,-6.8467 -6.7454,0 -7.12583,0.333 -9.90691,8.6725 -5.494598,16.4761 -13.962388,22.7138 -33.672975,24.8049 -4.6530032,0.493 -11.59424519,0.268 -15.4249732,-0.502 z m 33.8643312,-8.606 c 10.206397,-5.1569 14.125037,-22.7023 6.629955,-29.685 -8.229237,-7.6667 -51.091118,-12.6263 -59.019076,-6.8292 -2.774109,2.0284 -3.141772,3.8595 -2.092605,10.4207 1.823552,11.404 7.376669,22.944 12.347927,25.6602 9.8091978,5.3595 31.933821,5.5871 42.133799,0.433 z m 90.482554,0.1 c 6.84394,-2.7715 12.057,-12.5963 14.10654,-26.5862 1.08513,-7.4072 0.7653,-8.768 -2.46779,-10.4982 -9.59969,-5.1377 -50.626572,-0.01 -58.480422,7.302 -7.12472,6.6378 -3.71058,24.2043 5.70507,29.3537 9.38253,5.1314 29.018182,5.336 41.136602,0.429 z" /><g
         id="g3661"
         transform="translate(55.132705,34.165794)"
         style="fill:none;stroke:#ff0000;stroke-width:0.264583;stroke-dasharray:none;stroke-opacity:1"><rect
           style="fill:none;stroke:#ff0000;stroke-width:0.264583;stroke-dasharray:none;stroke-opacity:1;stop-color:#000000"
           id="rect3657"
           width="9.9999065"
           height="3"
           x="77.620766"
           y="80.645897" /><rect
           style="fill:none;stroke:#ff0000;stroke-width:0.264583;stroke-dasharray:none;stroke-opacity:1;stop-color:#000000"
           id="rect3659"
           width="9.9999065"
           height="3"
           x="77.620766"
           y="76.412567" /></g></g><g
       id="g635"
       transform="translate(-10.583333,-15.875)"><path
         id="rect3349"
         style="fill:none;stroke:#ff0000;stroke-width:0.264583;stroke-dasharray:none;stroke-opacity:1;stop-color:#000000"
         d="m 90.04678,90.217568 a 5,3 0 0 0 -5.000212,2.999816 v 5.116484 h 9.999906 V 93.217384 A 5,3 0 0 0 90.04678,90.217568 Z" /><circle
         style="fill:none;stroke:#ff0000;stroke-width:0.264583;stroke-dasharray:none;stroke-opacity:1;stop-color:#000000"
         id="path3363"
         cx="90.046524"
         cy="92.775719"
         r="1.5" /></g><g
       id="g619"><path
         style="fill:none;stroke:#ff0000;stroke-width:0.26458333;stroke-dasharray:none;stroke-opacity:1"
         d="m 99.888296,70.195758 c -3.816929,-0.33601 -7.110352,-1.1665 -9.771658,-2.46407 -5.287296,-2.57793 -8.45476,-6.89345 -9.315815,-12.69236 -0.485185,-3.26755 -0.183855,-7.43499 0.80514,-11.13522 0.233018,-0.87181 0.427875,-0.64004 0.430635,0.51222 0.0055,2.28313 0.724101,4.20146 1.875852,5.00742 0.559448,0.39149 0.777726,0.44998 1.846445,0.49477 2.344646,0.0983 4.858007,-0.88746 11.714688,-4.59455 5.596787,-3.02592 9.998667,-5.03121 13.097987,-5.96683 2.38249,-0.71922 4.05168,-0.95746 7.3027,-1.04231 4.12544,-0.10767 6.79532,0.31842 10.58574,1.68939 0.90683,0.32799 1.7805,0.62684 1.94148,0.6641 0.16098,0.0373 0.95125,-0.15981 1.75616,-0.43795 4.84567,-1.67445 8.88917,-2.20779 13.90288,-1.83382 3.68568,0.27491 7.40356,1.52632 13.31751,4.48258 1.52932,0.76447 3.57085,1.82054 4.53673,2.34681 5.92711,3.22945 9.08434,4.54408 11.23113,4.67651 2.85574,0.17616 3.98443,-1.10162 4.39248,-4.97269 l 0.1891,-1.79396 0.2703,0.85493 c 0.85149,2.69322 1.22932,8.26137 0.76116,11.21724 -1.18399,7.4754 -6.29868,12.50062 -14.5758,14.32082 -7.5238,1.65454 -16.66617,0.42091 -24.2203,-3.26818 -4.66288,-2.27713 -7.95819,-5.09529 -9.72844,-8.31978 l -0.57562,-1.04848 -0.62865,0.0173 c -0.34575,0.01 -0.73822,0.026 -0.87215,0.0366 -0.13691,0.0108 -0.47299,0.42959 -0.76768,0.95654 -3.25956,5.82865 -11.64153,10.47536 -21.52613,11.93346 -1.96226,0.28945 -6.4657,0.49243 -7.975874,0.35949 z"
         id="path306" /><g
         id="g3383"
         transform="translate(15.263689,-19.810319)"
         style="stroke-width:0.26458333;stroke-dasharray:none;fill:none;stroke:#ff0000;stroke-opacity:1"><rect
           style="fill:none;stroke:#ff0000;stroke-width:0.26458333;stroke-dasharray:none;stroke-opacity:1;stop-color:#000000"
           id="rect3377"
           width="9.9999065"
           height="3"
           x="77.620766"
           y="81.704231" /><rect
           style="fill:none;stroke:#ff0000;stroke-width:0.26458333;stroke-dasharray:none;stroke-opacity:1;stop-color:#000000"
           id="rect3379"
           width="9.9999065"
           height="3"
           x="77.620766"
           y="76.412567" /></g></g><g
       id="g613"><path
         style="fill:none;stroke:#ff0000;stroke-width:0.26458333;stroke-dasharray:none;stroke-opacity:1"
         d="m 90.608945,32.90701 c -4.195743,-0.384293 -6.748579,-1.216334 -9.11548,-2.970992 -3.962298,-2.93737 -6.218024,-7.504095 -6.21176,-12.575728 0.0098,-7.9080928 5.716733,-13.8607338 14.222528,-14.8347778 2.212711,-0.253389 4.614004,0.03553 6.006973,0.722719 0.556365,0.274476 1.342414,0.624554 1.746771,0.77795 0.934081,0.354359 2.171455,1.641535 2.73593,2.846052 0.363893,0.77648 0.419553,1.092501 0.419553,2.381795 0,1.4042738 -0.0323,1.5519178 -0.583995,2.6681758 -0.918053,1.857545 -3.141328,3.637013 -5.17421,4.141334 -1.622972,0.402633 -1.59115,0.408774 -0.842169,-0.162496 1.284706,-0.979878 2.049186,-2.68541 1.799726,-4.015142 -0.310745,-1.656394 -2.758647,-3.1108358 -5.222765,-3.1031298 -2.646272,0.0083 -4.657913,1.5713338 -5.727691,4.4504728 -0.47844,1.287641 -0.656411,3.826978 -0.366194,5.224947 0.165901,0.799149 0.286052,0.978455 1.302433,1.943716 1.945558,1.847711 4.236046,2.740007 7.033502,2.740007 1.831753,0 3.126435,-0.291822 4.668818,-1.052344 1.811584,-0.893255 2.703485,-1.713084 3.793645,-3.487082 1.60783,-2.616385 4.17169,-5.045212 6.63339,-6.284003 4.77631,-2.4035748 11.7401,-2.6732698 19.83974,-0.768345 l 1.16447,0.273865 2.1037,-0.431819 c 8.78853,-1.8039848 15.48161,-1.4228798 20.03543,1.140826 2.14739,1.208935 4.5329,3.841866 5.85161,6.458562 0.39146,0.776768 0.8481,1.195147 2.73244,2.503457 1.78438,1.238933 4.71791,1.921236 6.93464,1.61292 2.24254,-0.311909 3.947,-1.063196 5.67538,-2.501563 0.87184,-0.725559 0.93373,-0.82377 1.16788,-1.853175 0.30822,-1.355142 0.31366,-3.214299 0.0132,-4.488829 -0.52304,-2.21834 -1.9765,-4.218677 -3.62775,-4.9927208 -0.78247,-0.366765 -1.07402,-0.414774 -2.51897,-0.414774 -1.44036,0 -1.73778,0.04864 -2.50871,0.410104 -0.98391,0.461346 -2.06851,1.3735638 -2.40362,2.0216048 -0.58495,1.131169 -0.0369,3.109459 1.17554,4.243593 0.4216,0.394345 0.85124,0.716995 0.95476,0.716995 0.10354,0 0.15605,0.03217 0.11671,0.07153 -0.0393,0.03935 -0.51755,-0.03253 -1.06269,-0.159695 -2.83019,-0.660234 -5.19853,-2.706444 -5.99949,-5.183456 -0.40339,-1.2474318 -0.26885,-2.9406348 0.33639,-4.2340048 1.71902,-3.673464 7.21931,-5.2269 13.15375,-3.714985 3.77333,0.961327 7.07916,3.253374 9.07961,6.295196 1.3065,1.9866488 1.8782,3.5531598 2.34806,6.4338988 0.22748,1.394769 0.23615,1.789191 0.0649,2.956916 -0.64445,4.394583 -1.93155,7.107221 -4.66965,9.841628 -1.76334,1.76094 -2.77371,2.476388 -4.36677,3.092113 -4.8851,1.888108 -12.49353,1.786262 -23.30687,-0.31198 -9.13109,-1.771822 -16.97451,-3.943441 -19.42083,-5.377073 -0.38517,-0.22572 -0.91755,-0.669174 -1.18309,-0.985454 l -0.48278,-0.575057 -0.59913,0.649987 c -0.32953,0.357495 -1.00827,0.868051 -1.50831,1.134569 -3.05188,1.626637 -14.7479,4.575136 -23.88192,6.020502 -3.947904,0.624713 -9.638921,0.949368 -12.326667,0.70319 z"
         id="path308" /><g
         id="g3389"
         transform="translate(23.473794,-55.693412)"
         style="stroke-width:0.26458333;stroke-dasharray:none;fill:none;stroke:#ff0000;stroke-opacity:1"><rect
           style="fill:none;stroke:#ff0000;stroke-width:0.26458333;stroke-dasharray:none;stroke-opacity:1;stop-color:#000000"
           id="rect3385"
           width="9.9999065"
           height="3"
           x="77.620766"
           y="81.704231" /><rect
           style="fill:none;stroke:#ff0000;stroke-width:0.26458333;stroke-dasharray:none;stroke-opacity:1;stop-color:#000000"
           id="rect3387"
           width="9.9999065"
           height="3"
           x="77.620766"
           y="76.412567" /></g></g><g
       id="g607"><path
         style="fill:none;stroke:#ff0000;stroke-width:0.26458333;stroke-dasharray:none;stroke-opacity:1"
         d="m -27.700533,49.729699 c -1.544713,-1.544285 -2.316592,-2.456049 -3.164771,-3.738321 -4.645217,-7.022616 -4.974101,-14.744834 -0.971248,-22.804784 1.636582,-3.295333 3.244957,-5.503995 6.008832,-8.251492 5.052695,-5.0227636 12.391244,-8.9032346 20.8392722,-11.0193786 3.8478025,-0.963836 2.6942665,-0.914901 20.3962838,-0.86527 l 16.10868,0.04518 1.839966,0.414237 c 17.563024,3.954046 28.886944,13.3740446 31.675644,26.3499766 0.47546,2.212378 0.47391,6.178435 -0.003,8.315618 -1.18683,5.315594 -3.8964,9.615113 -8.41993,13.360628 -0.2012,0.166598 -0.21022,0.06576 -0.0835,-0.934056 0.17079,-1.347019 -0.055,-3.696054 -0.51363,-5.343505 C 55.602676,43.787957 54.460016,41.403 53.495516,40.005993 50.665426,35.906854 45.614344,32.313114 38.942342,29.651704 38.096604,29.314353 36.444179,28.686838 35.27028,28.25723 27.631527,25.461699 25.143567,23.98557 21.207746,19.913803 18.207388,16.809811 16.098127,13.973662 15.620306,12.400876 15.46338,11.88434 15.410773,11.824044 15.327723,12.065511 c -0.782872,2.276224 -2.54494,4.624282 -6.2481903,8.326102 -3.780224,3.77875 -6.032242,5.085302 -13.6706835,7.931309 -5.8977202,2.197424 -8.4951232,3.428898 -11.5228242,5.463166 -4.259031,2.861581 -7.080776,6.138461 -8.540559,9.918127 -0.866294,2.243 -1.305133,5.193298 -1.04129,7.000621 0.07682,0.526232 0.116914,0.981652 0.08909,1.012045 -0.02782,0.03039 -0.969929,-0.86383 -2.093573,-1.987165 z"
         id="path310" /><g
         id="g3395"
         transform="translate(-29.442874,-55.693412)"
         style="stroke-width:0.26458333;stroke-dasharray:none;fill:none;stroke:#ff0000;stroke-opacity:1"><rect
           style="fill:none;stroke:#ff0000;stroke-width:0.26458333;stroke-dasharray:none;stroke-opacity:1;stop-color:#000000"
           id="rect3391"
           width="9.9999065"
           height="3"
           x="77.620766"
           y="81.704231" /><rect
           style="fill:none;stroke:#ff0000;stroke-width:0.26458333;stroke-dasharray:none;stroke-opacity:1;stop-color:#000000"
           id="rect3393"
           width="9.9999065"
           height="3"
           x="77.620766"
           y="76.412567" /></g></g><g
       id="g625"
       transform="translate(0,-10.583333)"><path
         style="fill:none;stroke:#ff0000;stroke-width:0.264583;stroke-dasharray:none;stroke-opacity:1"
         d="m -15.297341,94.857006 c -3.816929,-0.33601 -7.110352,-1.1665 -9.771658,-2.46407 -5.287296,-2.57793 -8.45476,-6.89345 -9.315815,-12.69236 -0.485185,-3.26755 -0.183855,-7.43499 0.80514,-11.13522 0.233018,-0.87181 0.427875,-0.64004 0.430635,0.51222 0.0055,2.28313 0.724101,4.20146 1.875852,5.00742 0.559448,0.39149 0.777726,0.44998 1.846445,0.49477 2.344646,0.0983 4.858007,-0.88746 11.714688,-4.59455 5.596787,-3.02592 9.9986669,-5.03121 13.0979869,-5.96683 2.38249,-0.71922 4.05167997,-0.95746 7.3027,-1.04231 4.12544,-0.10767 6.79532,0.31842 10.5857401,1.68939 0.90683,0.32799 1.7805,0.62684 1.94148,0.6641 0.16098,0.0373 0.95125,-0.15981 1.75616,-0.43795 4.84567,-1.67445 8.88917,-2.20779 13.90288,-1.83382 3.68568,0.27491 7.40356,1.52632 13.31751,4.48258 1.52932,0.76447 3.57085,1.82054 4.53673,2.34681 5.92711,3.22945 9.08434,4.54408 11.23113,4.67651 2.85574,0.17616 3.98443,-1.10162 4.39248,-4.97269 l 0.1891,-1.79396 0.2703,0.85493 c 0.85149,2.69322 1.22932,8.26137 0.76116,11.21724 -1.18399,7.4754 -6.29868,12.50062 -14.5758,14.32082 -7.5238,1.65454 -16.66617,0.42091 -24.2203,-3.26818 -4.66288,-2.27713 -7.95819,-5.09529 -9.72844,-8.31978 l -0.57562,-1.04848 -0.62865,0.0173 c -0.34575,0.01 -0.73822,0.026 -0.87215,0.0366 -0.13691,0.0108 -0.47299,0.42959 -0.76768,0.95654 -3.25956,5.82865 -11.6415301,10.47536 -21.5261301,11.93346 -1.96226,0.28945 -6.4656999,0.49243 -7.9758739,0.35949 z"
         id="path3132" /><g
         id="g3401"
         transform="translate(-29.442874,2.5149241)"
         style="fill:none;stroke:#ff0000;stroke-width:0.264583;stroke-dasharray:none;stroke-opacity:1"><rect
           style="fill:none;stroke:#ff0000;stroke-width:0.264583;stroke-dasharray:none;stroke-opacity:1;stop-color:#000000"
           id="rect3397"
           width="9.9999065"
           height="3"
           x="77.620766"
           y="81.704231" /><rect
           style="fill:none;stroke:#ff0000;stroke-width:0.264583;stroke-dasharray:none;stroke-opacity:1;stop-color:#000000"
           id="rect3399"
           width="9.9999065"
           height="3"
           x="77.620766"
           y="76.412567" /></g></g><g
       id="g641"
       transform="rotate(-90,212.48274,152.0919)"><path
         id="path3583"
         style="fill:none;stroke:#ff0000;stroke-width:0.264583;stroke-dasharray:none;stroke-opacity:1"
         d="m 217.66658,186.33096 c -11.39441,-6.47989 -19.06129,-13.7747 -24.35314,-23.17149 -2.3023,-4.08826 -5.81382,-7.94983 -7.8034,-8.58135 -4.5725,-1.45123 -6.82949,-9.94557 -3.65796,-13.76703 1.32035,-1.59091 3.12728,-2.6975 4.01538,-2.4591 0.8881,0.23818 3.74309,-2.69766 6.34442,-6.52444 2.60126,-3.82679 7.14394,-8.11889 10.09472,-9.53805 6.03276,-2.90127 17.95988,-1.4731 21.29912,2.55039 1.68498,2.03031 3.56727,1.79055 9.43691,-1.20194 4.03266,-2.056 8.97656,-3.73812 10.98643,-3.73812 7.31434,0 15.02209,5.9477 19.38361,14.95754 4.92918,10.18226 9.73994,11.21214 12.04862,2.57932 4.0718,-15.2257 22.97846,-21.8905 34.14814,-12.03764 3.1493,2.77805 3.85542,2.72808 7.45282,-0.52745 6.15959,-5.57436 20.30522,-5.14451 26.64416,0.80958 2.80322,2.63304 5.55129,6.2194 6.10677,7.9696 0.55525,1.75027 3.02577,4.06887 5.48945,5.15247 7.1661,3.15185 6.72679,8.76558 -1.25836,16.0809 -3.93837,3.60807 -7.16069,7.3897 -7.16069,8.40365 0,3.43721 -14.86168,17.53266 -24.24637,22.9962 -8.01904,4.6686 -9.97421,5.09447 -13.85427,3.01795 -12.88487,-6.89576 -29.48983,-22.27392 -29.48983,-27.31106 0,-1.13522 -1.85366,-2.65235 -4.11937,-3.37139 -4.99048,-1.584 -13.77221,0.36666 -13.77221,3.05958 0,4.96374 -28.15791,29.87731 -33.63903,29.76318 -0.63264,-0.015 -5.17577,-2.31319 -10.09592,-5.11123 z m 21.19745,-9.00338 c 11.09665,-7.63465 20.54957,-21.97301 20.54957,-31.16986 0,-7.86554 -5.46346,-18.16846 -9.87142,-18.61521 -11.4277,-1.15836 -19.94788,4.23312 -19.94788,12.62272 0,6.00496 -4.2338,3.2499 -6.72543,-4.37633 -3.85324,-11.79383 -19.90972,-11.90924 -25.97171,-0.18708 -3.71318,7.18052 -3.88396,12.08685 -0.67847,19.4903 5.05172,11.66731 22.39279,27.9981 30.03547,28.28572 1.98981,0.0751 7.66417,-2.64792 12.60987,-6.05064 z m 90.89097,-4.05986 c 12.83527,-11.43987 15.81897,-16.96682 15.29821,-28.33749 -0.44856,-9.7926 -3.09941,-14.79586 -9.03479,-17.05247 -7.93992,-3.01878 -15.69207,0.37568 -18.19257,7.96682 -2.88121,8.74657 -6.02856,9.64541 -7.66613,2.18951 -1.93653,-8.81689 -5.89571,-11.05825 -18.39085,-10.41134 -10.74457,0.556 -13.60594,23.25744 -4.53689,35.99377 5.74431,8.0672 21.6542,19.78454 26.95048,19.84855 2.24189,0.0301 9.24945,-4.56168 15.57254,-10.19735 z" /><g
         id="g3678"
         transform="translate(104.76856,65.994721)"
         style="fill:none;stroke:#ff0000;stroke-width:0.264583;stroke-dasharray:none;stroke-opacity:1"><rect
           style="fill:none;stroke:#ff0000;stroke-width:0.264583;stroke-dasharray:none;stroke-opacity:1;stop-color:#000000"
           id="rect3674"
           width="9.9999065"
           height="3"
           x="77.620766"
           y="81.704231" /><rect
           style="fill:none;stroke:#ff0000;stroke-width:0.264583;stroke-dasharray:none;stroke-opacity:1;stop-color:#000000"
           id="rect3676"
           width="9.9999065"
           height="3"
           x="77.620766"
           y="76.412567" /></g></g><path
       style="fill:#000000;stroke-width:1"
       d="m 395.81106,480.83093 c -0.17299,-0.0478 -0.10034,0.21707 0.22996,0.59222 0.4316,0.49032 0.63976,0.48992 0.63976,-0.001 0,-0.21828 -0.0587,-0.33815 -0.13023,-0.26665 -0.0715,0.0715 -0.28995,-0.003 -0.48524,-0.16485 -0.1119,-0.0929 -0.19658,-0.14375 -0.25425,-0.15968 z"
       id="path4537" /><path
       style="fill:#000000;stroke-width:1"
       d="m 397.31381,480.76065 c -0.15411,0 -0.2806,0.11907 -0.2806,0.26459 0,0.14552 0.0526,0.26458 0.11679,0.26458 0.0642,0 0.19018,-0.11906 0.28008,-0.26458 0.0899,-0.14552 0.0378,-0.26459 -0.11627,-0.26459 z"
       id="path4535" /><path
       style="fill:#000000;stroke-width:1"
       d="m 397.04923,479.43774 c -0.15411,0 -0.2806,0.11906 -0.2806,0.26458 0,0.14552 0.0526,0.26458 0.11678,0.26458 0.0642,0 0.19019,-0.11906 0.28009,-0.26458 0.0899,-0.14552 0.0378,-0.26458 -0.11627,-0.26458 z"
       id="path4533" /><path
       style="fill:#000000;stroke-width:1"
       d="m 398.13185,479.20881 c -0.0322,0.0216 -0.01,0.15948 0.0475,0.42737 0.0699,0.32727 0.0192,0.6616 -0.11265,0.7431 -0.13186,0.0815 -0.23009,0.28971 -0.21859,0.46302 0.0146,0.22063 0.0616,0.21395 0.15658,-0.0222 0.0746,-0.18552 0.55964,-0.51412 1.07797,-0.7307 0.51834,-0.21657 0.8733,-0.46254 0.7891,-0.54674 -0.0842,-0.0842 -0.36527,-0.0346 -0.62477,0.11059 -0.35165,0.19679 -0.56367,0.15247 -0.83303,-0.17415 -0.16271,-0.19729 -0.24994,-0.29182 -0.28215,-0.27027 z"
       id="path4531" /><path
       style="fill:#000000;stroke-width:1"
       d="m 402.6401,477.58514 c -0.22353,0.0229 -0.59744,0.25896 -1.00045,0.66197 -0.80359,0.80359 -0.80341,0.80388 -0.99322,0.078 -0.084,-0.32104 -0.22648,-0.50991 -0.31678,-0.41961 -0.0903,0.0903 -0.0312,0.41222 0.13126,0.71572 0.19615,0.36659 0.20313,0.5519 0.0212,0.5519 -0.15064,0 -0.27388,-0.13872 -0.27388,-0.3085 0,-0.16979 -0.0713,-0.23717 -0.15865,-0.14987 -0.0873,0.0873 -0.0804,0.2856 0.0155,0.4408 0.0959,0.1552 0.24439,0.28216 0.32969,0.28216 0.29401,0 2.45875,-1.45562 2.45928,-1.65365 3.6e-4,-0.14973 -0.0798,-0.2127 -0.21394,-0.19895 z"
       id="path4529" /><g
       id="g647"
       transform="rotate(45,296.14258,-238.30826)"><path
         style="fill:none;stroke:#ff0000;stroke-width:1;stroke-opacity:1"
         d="m 403.82206,251.09858 c -2.8731,-0.52552 -6.17793,-1.76224 -8.23221,-3.0806 -5.5934,-3.58966 -9.97659,-12.18345 -11.97097,-23.47057 -0.81229,-4.5971 -0.90984,-19.38254 -0.14501,-21.97721 1.17984,-4.00258 7.80418,-8.40719 15.82279,-10.52082 3.01662,-0.79514 4.71096,-1.00198 8.50884,-1.03872 8.94343,-0.0865 11.08591,1.4311 16.56667,11.73495 0.93792,1.76331 1.8194,3.19955 1.95883,3.19165 0.13937,-0.009 3.32642,-4.48408 7.08222,-9.94706 16.22111,-23.59431 27.33067,-37.61503 34.19928,-43.16096 6.52414,-5.26777 16.03138,-10.89516 19.00123,-11.24694 5.68846,-0.67378 11.58561,4.39233 8.20688,7.05032 -0.54979,0.43251 -1.32481,0.78636 -1.7223,0.78636 -1.50947,0 -6.7588,3.22433 -10.14264,6.22998 -2.89841,2.57445 -6.76664,6.94108 -8.7396,9.86557 -2.34727,3.47939 -4.54666,7.58164 -19.74739,36.83267 -4.01236,7.72107 -8.07228,15.48956 -9.02203,17.26332 -10.77847,20.12991 -18.08622,28.43021 -27.20838,30.90394 -2.69354,0.73043 -11.63551,1.09273 -14.41621,0.58412 z"
         id="path5348" /><g
         id="g5368"
         transform="translate(328.07704,162.30309)"
         style="fill:none;stroke:#ff0000;stroke-width:0.264583;stroke-dasharray:none;stroke-opacity:1"><rect
           style="fill:none;stroke:#ff0000;stroke-width:0.264583;stroke-dasharray:none;stroke-opacity:1;stop-color:#000000"
           id="rect5364"
           width="9.9999065"
           height="3"
           x="77.620766"
           y="81.704231" /><rect
           style="fill:none;stroke:#ff0000;stroke-width:0.264583;stroke-dasharray:none;stroke-opacity:1;stop-color:#000000"
           id="rect5366"
           width="9.9999065"
           height="3"
           x="77.620766"
           y="76.412567" /></g></g></g></svg>
