<?xml version="1.0" encoding="UTF-8" standalone="no"?>
<!-- Created with Inkscape (http://www.inkscape.org/) -->

<svg
   width="290mm"
   height="200mm"
   viewBox="0 0 290 200"
   version="1.1"
   id="svg5"
   xml:space="preserve"
   inkscape:version="1.2.1 (9c6d41e, 2022-07-14)"
   sodipodi:docname="moustaches-3.svg"
   xmlns:inkscape="http://www.inkscape.org/namespaces/inkscape"
   xmlns:sodipodi="http://sodipodi.sourceforge.net/DTD/sodipodi-0.dtd"
   xmlns="http://www.w3.org/2000/svg"
   xmlns:svg="http://www.w3.org/2000/svg"><sodipodi:namedview
     id="namedview7"
     pagecolor="#ffffff"
     bordercolor="#666666"
     borderopacity="1.0"
     inkscape:showpageshadow="2"
     inkscape:pageopacity="0.0"
     inkscape:pagecheckerboard="0"
     inkscape:deskcolor="#d1d1d1"
     inkscape:document-units="mm"
     showgrid="false"
     inkscape:zoom="0.69835298"
     inkscape:cx="209.7793"
     inkscape:cy="421.70651"
     inkscape:window-width="1280"
     inkscape:window-height="747"
     inkscape:window-x="0"
     inkscape:window-y="25"
     inkscape:window-maximized="1"
     inkscape:current-layer="layer1" /><defs
     id="defs2" /><g
     inkscape:label="Layer 1"
     inkscape:groupmode="layer"
     id="layer1"
     transform="translate(34.612278,-3.0285742)"><path
       id="path6222"
       style="vector-effect:non-scaling-stroke;fill:none;stroke:#ff0000;stroke-width:0.264583;stroke-dasharray:none;stroke-opacity:1;-inkscape-stroke:hairline"
       d="m -27.574299,54.788989 c -0.20785,0.638275 -0.422175,1.31857 -0.647004,2.049958 -1.370792,4.45972 -1.660035,5.937574 -1.931789,9.869272 -0.518277,7.499513 0.465618,14.289341 3.067951,21.172707 3.324044,8.792312 9.172017,16.385064 17.1629435,22.283994 l 2.025832,1.49566 -0.40961,1.80214 c -0.225369,0.99121 -0.434698,2.14779 -0.465053,2.56998 -0.07118,0.99 0.189202,3.20416 0.503067,4.27679 1.01335,3.46309 3.726965,6.48077 7.16772,7.9709 l 1.07068499,0.46363 0.114886,0.90322 c 0.212854,1.67521 2.28948501,5.22622 3.54583001,6.06324 1.437721,0.95784 3.908102,1.83062 5.20756,1.83999 0.670974,0.005 0.731193,0.11139 1.083245,1.91072 0.5395345,2.75761 1.9518205,4.89628 4.1495665,6.28392 0.933296,0.58929 1.308058,0.74255 2.615834,1.07109 2.948822,0.74078 2.639618,0.53582 2.892567,1.91942 0.316451,1.73099 0.887165,3.11681 1.790235,4.34706 1.223836,1.66719 1.847159,2.10679 4.175634,2.9443 1.082754,0.38944 2.251594,0.73303 2.597221,0.76427 0.385663,0.0348 0.702478,0.13688 0.81994,0.26436 0.105325,0.11417 0.271625,0.74206 0.369459,1.3954 0.133148,0.88919 0.398203,1.61805 1.054553,2.89842 0.974275,1.9005 1.870458,2.91561 3.216655,3.64464 0.677529,0.36689 2.770479,1.03009 4.639419,1.46983 0.501529,0.11797 0.51325,0.14146 0.756596,1.53311 0.726792,4.15645 3.759533,7.18239 7.883164,7.86531 0.737878,0.12218 1.412119,0.27807 1.498402,0.34637 0.08627,0.0683 0.256179,0.73195 0.377509,1.47506 0.303697,1.85989 1.406341,4.05013 2.647941,5.2592 1.15712,1.12682 2.11498,1.63788 4.08173,2.17806 2.63913,0.72484 4.28373,0.53686 6.6651,-0.76111 1.52202,-0.82961 2.32465,-1.52499 3.03315,-2.62756 0.63689,-0.99113 1.55178,-3.60888 1.68583,-4.82362 0.16831,-1.52517 -0.11479,-2.80822 -1.00237,-4.54195 -0.88334,-1.72555 -1.74703,-2.7089 -3.10202,-3.53234 -0.62438,-0.37947 -2.89145,-1.16499 -4.93412,-1.70931 -0.47865,-0.12754 -0.5089,-0.18353 -0.73475,-1.35935 -0.57285,-2.98247 -2.19216,-5.48847 -4.28505,-6.63135 -0.77711,-0.42437 -4.060229,-1.42187 -4.951558,-1.50449 -0.371376,-0.0344 -0.402603,-0.097 -0.406319,-0.81329 -0.0061,-1.17553 -0.645274,-3.29572 -1.300876,-4.31469 -0.319087,-0.49593 -0.965278,-1.26868 -1.435841,-1.71707 -1.607941,-1.53217 -3.027295,-2.21812 -5.406684,-2.61298 -1.383227,-0.22955 -1.396734,-0.24479 -1.665981,-1.8864 -0.233446,-1.42337 -1.417206,-3.87601 -2.377379,-4.92599 -1.114576,-1.21885 -1.981518,-1.67355 -4.718582,-2.47401 l -2.403098,-0.70274 -0.188196,-1.10453 c -0.386864,-2.26994 -1.371916,-4.21419 -2.890871,-5.70614 -0.947023,-0.93023 -2.709946,-1.72459 -4.959273,-2.23494 -0.930076,-0.21103 -1.578961,-0.41949 -1.648267,-0.52937 -0.06287,-0.0997 -0.20594,-0.81116 -0.318033,-1.58115 -0.254106,-1.74549 -1.030221,-3.35069 -2.328537,-4.81615 -0.512186,-0.57815 -0.936958,-1.16454 -0.944011,-1.30305 -0.02672,-0.52441 0.336041,-1.32084 0.669732,-1.46988 0.183647,-0.082 1.391081,-0.15146 2.682903,-0.15452 3.042231,-0.007 4.667309,-0.13603 7.838857,-0.62167 4.833178,-0.74006 9.720162,-2.32897 14.309242,-4.65236 8.158135,-4.13037 14.507982,-9.85781 19.319302,-17.425697 2.19832,-3.457794 3.64658,-6.532907 4.93886,-10.486633 C 66.97806,78.91115 67.66636,73.246594 67.0536,66.147264 65.72375,50.739722 57.14308,36.867816 43.978694,28.843687 40.414354,26.671086 37.980708,25.561705 33.705195,24.160068 28.043886,22.303804 23.565161,21.60414 17.783477,21.671795 c -16.3246365,0.191052 -31.863282,8.909133 -40.58177,22.768456 -2.184097,3.471946 -3.321116,5.881049 -4.776047,10.348893 z m 5.593051,2.17082 c 2.07294,-6.344805 5.154664,-11.424028 9.808928,-16.200644 3.3700875,-3.45867 6.7185565,-5.873087 11.48275749,-8.279513 C 2.6786565,30.778331 4.3574235,30.116298 7.5918225,29.213149 13.563709,27.545584 20.692143,27.262592 26.429782,28.465503 c 3.832559,0.80349 9.125592,2.637956 11.971114,4.148876 12.099024,6.424389 20.405804,18.300576 22.343204,31.944673 0.6086,4.286158 0.62382,8.711864 0.0426,12.426861 -0.27624,1.765728 -2.69579,9.618624 -3.54104,11.49283 -2.04784,4.54083 -5.75002,9.615932 -9.682655,13.273337 -8.126057,7.55731 -18.984821,11.63428 -30.330764,11.38783 -4.267467,-0.0927 -7.166179,-0.62508 -12.0073935,-2.20526 -5.08539601,-1.65987 -7.75636,-2.97691 -11.384468,-5.61336 -5.6525825,-4.10761 -10.0561275,-9.142279 -13.2322655,-15.129078 -2.31797,-4.369186 -3.435234,-7.892933 -4.28556,-13.514056 -1.019578,-6.739859 -0.659346,-11.868133 1.294892,-18.432433 0.129358,-0.43454 0.263115,-0.862931 0.401313,-1.285912 z m 19.3510965,58.544231 c 0.214698,-0.65778 0.491256,-0.60274 6.38201,1.26738 l 2.75e-4,9e-5 5.516994,1.75133 -0.156563,0.46967 c -0.233272,0.70051 -1.395607,2.1389 -2.262731,2.80108 -3.356712,2.56335 -8.191979,0.7654 -9.38691,-3.49046 -0.196018,-0.69814 -0.249671,-2.31804 -0.09269,-2.79898 z m 8.811203,13.44544 c 0.02976,-0.0894 0.661937,-0.38833 1.404802,-0.66437 0.742865,-0.27604 1.841675,-0.8189 2.4418955,-1.20632 0.635909,-0.41043 1.2012,-0.66853 1.354536,-0.61848 0.297264,0.097 0.819068,1.20382 0.847465,1.79724 0.02793,0.58357 -0.375995,1.66129 -0.803616,2.1443 -1.093578,1.23515 -3.1523125,1.38327 -4.2064515,0.30261 -0.492,-0.50439 -1.108086,-1.54582 -1.038629,-1.75498 z m 9.9022615,8.25705 c 0.0076,-0.0243 0.01552,-0.0485 0.02372,-0.0727 0.03481,-0.10344 0.07573,-0.20624 0.123276,-0.30808 0.393308,-0.84996 0.896061,-1.31272 1.800841,-1.65769 0.629477,-0.23999 0.779193,-0.23392 1.717933,0.0725 0.900505,0.29392 1.085012,0.41017 1.482512,0.93378 0.28365,0.37368 0.500394,0.91297 0.577937,1.43736 0.07264,0.49113 0.04476,1.07747 -0.06681,1.41381 -0.226447,0.68088 -0.910307,1.45917 -1.531107,1.74236 -0.511985,0.23354 -1.649466,0.29231 -2.1941,0.11335 -1.590622,-0.52243 -2.410441,-2.14532 -1.934184,-3.6747 z m 9.609893,9.52327 c 0.0066,-0.0213 0.01357,-0.0423 0.02101,-0.0634 0.11934,-0.33662 0.341693,-0.64246 0.696406,-0.99779 0.783069,-0.78445 2.326465,-1.28788 3.137372,-1.0232 0.904717,0.2953 1.922035,1.68196 2.04517,2.78752 0.139828,1.25538 -0.378175,2.15843 -1.620467,2.82473 -0.832151,0.44632 -1.390185,0.51477 -2.15607,0.26479 -1.19413,-0.38977 -2.018649,-1.40172 -2.176835,-2.67183 -0.05602,-0.44976 -0.04603,-0.80119 0.05342,-1.1208 z m 9.720731,9.70738 c 0.200309,-0.62981 0.719369,-1.34937 1.280571,-1.73637 1.514936,-1.04467 4.016367,-0.12819 4.507152,1.65127 0.267337,0.96935 -0.115461,2.38101 -0.842798,3.10865 -1.103875,1.10426 -3.062449,1.0517 -4.092049,-0.10995 -0.607198,-0.68508 -1.02435,-1.84734 -0.92786,-2.58516 0.01118,-0.0862 0.03036,-0.17582 0.0567,-0.26782 0.006,-0.0201 0.01209,-0.0403 0.01774,-0.0608 z m 9.805143,9.49861 c 0.335912,-1.05493 1.26328,-1.88014 2.400865,-2.05935 1.013962,-0.15974 2.282961,0.38104 2.816665,1.20047 0.21802,0.33473 0.45779,0.90478 0.53268,1.26669 0.14787,0.71455 -0.16839,1.95332 -0.64441,2.52433 -0.900703,1.08043 -2.865489,1.18758 -4.168992,0.22737 -0.607736,-0.44768 -1.112942,-1.5998 -1.068937,-2.43787 0.0091,-0.17298 0.0337,-0.3427 0.07275,-0.50779 0.01725,-0.0722 0.03734,-0.1434 0.05929,-0.21388 z"
       sodipodi:nodetypes="cccscccsscccscssssssccssssssssssssscsssssssssssccccsssssscssscssccsccssccccssccsscscssscscccssccssscscssssccsssscscssscsssssssscsscscccccssssssccc" /><g
       id="g3672"
       style="vector-effect:non-scaling-stroke;stroke-width:0.264583;stroke-dasharray:none;-inkscape-stroke:hairline"
       transform="translate(119.846,-99.906699)"><path
         id="path3523"
         style="vector-effect:non-scaling-stroke;fill:none;stroke:#ff0000;stroke-width:0.264583;stroke-dasharray:none;stroke-opacity:1;-inkscape-stroke:hairline"
         d="m -17.274923,280.72741 c -0.76397,-0.76397 -1.40201,-5.21833 -1.41768,-9.89834 -0.0473,-14.11831 -1.68303,-16.85318 -13.93575,-23.29852 -6.36382,-3.34754 -11.6862,-7.0158 -11.82734,-8.15168 -0.14098,-1.13588 5.47998,-4.78956 12.49145,-8.11939 l 12.74828,-6.05413 2.54899,-14.26355 c 1.72902,-9.67498 3.49372,-14.26347 5.48557,-14.26347 1.61513,0 2.94665,0.70333 2.95902,1.56284 0.0157,0.85959 3.71779,5.42634 8.23429999,10.14833 l 8.21177001,8.58541 14.68822,-1.0509 c 15.33319,-1.09713 16.76371,-0.21344 11.59744,7.16222 -3.04605,4.34882 -2.91177,4.41104 9.27133,4.29628 11.17308,-0.10553 12.17199,-0.47177 10.38437,-3.81207 -4.19083,-7.83057 -2.64122,-8.74127 12.35881,-7.26318 15.70328,1.5474 15.93429,1.43816 26.63299,-12.58856 3.01447,-3.95218 6.48716,-6.8504 7.717083,-6.44045 1.22992,0.41034 3.67243,6.68367 5.42784,13.94157 3.38078,13.97812 3.86964,14.48369 19.34161,20.00312 5.44406,1.94215 9.89834,4.66126 9.89834,6.04264 0,1.38129 -4.56785,4.99765 -10.15085,8.03621 -13.51328,7.35487 -14.51487,8.8762 -15.25907,23.17723 -0.37333,7.18128 -1.67507,12.60825 -3.13907,13.09097 -1.37531,0.45366 -6.78881,-3.12812 -12.029993,-7.95927 l -9.52927,-8.78373 -14.56417,3.19585 c -8.01039,1.7577 -14.97192,2.53624 -15.47023,1.72997 -0.49856,-0.80627 1.38838,-6.41809 4.19264,-12.47081 6.43108,-13.88077 6.40611,-17.9737 -0.13626,-22.26014 -6.67792,-4.3756 -26.68166,-3.15261 -31.77705,1.9427 -3.22169,3.22168 -3.07189,4.24572 2.18969,14.97396 9.16571,18.68853 8.53004,19.51433 -11.40936,14.82148 l -11.84758,-2.78834 -8.90399,9.07254 c -8.63527,8.79869 -12.09347,10.57214 -14.98239,7.68321 z m 29.4393,-20.4485 c 4.24761,0.68127 9.92464,1.695 12.61556,2.25207 2.69092,0.55683 4.54478,0.26857 4.11956,-0.64111 -0.42531,-0.9096 -2.98139,-5.97065 -5.68042,-11.24672 l -4.90739,-9.59291 5.72964,-9.77697 c 3.15135,-5.37735 5.38137,-10.10218 4.95559,-10.49976 -0.42609,-0.39774 -5.46288,0.0315 -11.19347,0.94434 -10.22205,1.63561 -10.58293,1.50873 -19.06367,-6.70234 -9.50233,-9.20021 -9.39971,-9.26007 -12.31439,7.18648 -1.25252,7.06738 -2.35414,8.15538 -11.57239,11.42944 -5.60347,1.99011 -10.1881,4.32031 -10.1881,5.17808 0,0.85778 4.68875,3.93557 10.41934,6.83946 9.76642,4.94905 10.43565,5.80006 10.6798,13.58022 0.14335,4.56526 0.49462,9.2381 0.7813,10.38422 0.28669,1.14611 0.63796,2.66185 0.7813,3.36833 0.14335,0.70648 4.05261,-2.14157 8.68741,-6.32885 7.42764,-6.71045 9.34285,-7.46631 16.15001,-6.37406 z m 105.145073,-16.39417 10.1688,-6.32121 -10.03436,-3.91753 c -12.85862,-5.0201 -13.03851,-5.2274 -15.96272,-18.39578 l -2.464403,-11.09755 -8.02842,9.79761 -8.02842,9.79761 -11.2186,-1.31852 c -6.17031,-0.72539 -11.21868,-0.67104 -11.21868,0.1205 0,0.79162 2.3443,4.88935 5.20967,9.10609 6.28908,9.25527 6.41155,11.79591 1.07342,22.26637 -2.2749,4.46216 -3.77788,8.47137 -3.33982,8.90935 0.43791,0.43791 5.81581,-0.1205 11.95067,-1.2422 10.86048,-1.98484 11.37392,-1.85638 19.48976,4.87494 l 8.335513,6.91349 1.94939,-11.58618 c 1.8285,-10.86693 2.58073,-11.97847 12.1182,-17.90738 z" /><g
         id="g3667"
         transform="translate(21.266035,191.85754)"
         style="vector-effect:non-scaling-stroke;fill:none;stroke:#ff0000;stroke-width:0.264583;stroke-dasharray:none;stroke-opacity:1;-inkscape-stroke:hairline"><rect
           style="vector-effect:non-scaling-stroke;fill:none;stroke:#ff0000;stroke-width:0.264583;stroke-dasharray:none;stroke-opacity:1;-inkscape-stroke:hairline;stop-color:#000000"
           id="rect3663"
           width="9.9999065"
           height="3"
           x="77.620766"
           y="81.704231" /></g></g><g
       id="g1471"
       transform="translate(110.2932,-279.10713)"><path
         id="path3457"
         style="vector-effect:non-scaling-stroke;fill:none;stroke:#ff0000;stroke-width:0.264583;stroke-dasharray:none;stroke-opacity:1;-inkscape-stroke:hairline"
         d="m -28.632077,364.26992 c -5.38087,-5.01313 -10.30055,-20.97271 -11.91177,-38.64271 -1.05759,-11.59844 -0.65652,-13.976 3.17209,-18.80179 2.71153,-3.41777 7.26131,-6.04278 11.93117,-6.88387 4.15156,-0.74734 8.4646,-2.06855 9.58469,-2.93519 1.12001,-0.86664 9.7291598,-2.49986 19.1315098,-3.62927 21.0867002,-2.53303 25.3532502,-0.9483 29.9659102,11.12995 3.37228,8.83004 5.53227,10.69085 7.92176,6.82453 0.69193,-1.12002 4.35776,-2.03638 8.14558,-2.03638 3.78789,0 7.45342,0.91636 8.14565,2.03638 1.68703,2.72976 5.09094,2.59515 5.09094,-0.20166 0,-5.05899 6.62179,-15.66965 11.03335,-17.6797 4.97918,-2.26866 33.359347,0.20165 39.680667,3.45417 1.78785,0.91983 6.73071,2.30091 10.98425,3.06919 11.40495,2.05977 15.95635,10.45079 14.41748,26.58062 -1.34975,14.14772 -7.26292,32.5232 -12.23318,38.01528 -4.29656,4.74767 -16.47602,4.95856 -37.160557,0.64344 -18.94772,-3.95291 -27.85211,-7.65499 -30.55378,-12.70314 -1.85504,-3.46617 -1.36531,-23.75796 0.72964,-30.23013 1.3095,-4.04581 -8.59352,-7.84595 -14.77153,-5.66826 -5.47808,1.93093 -5.53811,2.14997 -4.98903,18.19214 0.77159,22.54058 -0.98887,24.28757 -30.7280302,30.4919 -20.6443698,4.30696 -32.2013198,3.99155 -37.5867298,-1.02566 z m 42.92835,-3.42131 c 18.66179,-4.27471 20.68454,-7.37345 17.48012,-26.77727 -2.73369,-16.55291 -7.1504,-22.73993 -16.23327,-22.73993 -7.6583802,0 -36.22935,5.82643 -40.944,8.34961 -8.23824,4.40894 -5.77832,32.51327 3.67314,41.96473 5.28366,5.28366 9.92581,5.18091 36.02401,-0.79729 z m 102.122587,4.20082 c 7.5671,-2.90378 14.70857,-28.78524 10.93199,-39.61871 -1.54856,-4.44227 -4.11092,-6.08381 -13.50335,-8.65117 -16.049397,-4.38693 -29.915647,-6.14607 -36.137147,-4.58458 -6.34503,1.59251 -10.1123,9.71138 -12.15606,26.19757 -1.19375,9.62925 -0.8297,12.48586 1.98819,15.5996 3.5413,3.91305 25.16745,9.94267 43.200957,12.04492 1.30843,0.1524 3.86233,-0.2917 5.67542,-0.98763 z" /><g
         id="g3690"
         transform="translate(47.089384,232.15315)"
         style="vector-effect:non-scaling-stroke;fill:none;stroke:#ff0000;stroke-width:0.264583;stroke-dasharray:none;stroke-opacity:1;-inkscape-stroke:hairline"><rect
           style="vector-effect:non-scaling-stroke;fill:none;stroke:#ff0000;stroke-width:0.264583;stroke-dasharray:none;stroke-opacity:1;-inkscape-stroke:hairline;stop-color:#000000"
           id="rect3686"
           width="9.9999065"
           height="3"
           x="77.620766"
           y="81.704231" /><rect
           style="vector-effect:non-scaling-stroke;fill:none;stroke:#ff0000;stroke-width:0.264583;stroke-dasharray:none;stroke-opacity:1;-inkscape-stroke:hairline;stop-color:#000000"
           id="rect3688"
           width="9.9999065"
           height="3"
           x="77.620766"
           y="76.412567" /></g></g><path
       style="fill:#000000;stroke-width:1"
       d="m 395.81106,480.83093 c -0.17299,-0.0478 -0.10034,0.21707 0.22996,0.59222 0.4316,0.49032 0.63976,0.48992 0.63976,-0.001 0,-0.21828 -0.0587,-0.33815 -0.13023,-0.26665 -0.0715,0.0715 -0.28995,-0.003 -0.48524,-0.16485 -0.1119,-0.0929 -0.19658,-0.14375 -0.25425,-0.15968 z"
       id="path4537" /><path
       style="fill:#000000;stroke-width:1"
       d="m 397.31381,480.76065 c -0.15411,0 -0.2806,0.11907 -0.2806,0.26459 0,0.14552 0.0526,0.26458 0.11679,0.26458 0.0642,0 0.19018,-0.11906 0.28008,-0.26458 0.0899,-0.14552 0.0378,-0.26459 -0.11627,-0.26459 z"
       id="path4535" /><path
       style="fill:#000000;stroke-width:1"
       d="m 397.04923,479.43774 c -0.15411,0 -0.2806,0.11906 -0.2806,0.26458 0,0.14552 0.0526,0.26458 0.11678,0.26458 0.0642,0 0.19019,-0.11906 0.28009,-0.26458 0.0899,-0.14552 0.0378,-0.26458 -0.11627,-0.26458 z"
       id="path4533" /><path
       style="fill:#000000;stroke-width:1"
       d="m 398.13185,479.20881 c -0.0322,0.0216 -0.01,0.15948 0.0475,0.42737 0.0699,0.32727 0.0192,0.6616 -0.11265,0.7431 -0.13186,0.0815 -0.23009,0.28971 -0.21859,0.46302 0.0146,0.22063 0.0616,0.21395 0.15658,-0.0222 0.0746,-0.18552 0.55964,-0.51412 1.07797,-0.7307 0.51834,-0.21657 0.8733,-0.46254 0.7891,-0.54674 -0.0842,-0.0842 -0.36527,-0.0346 -0.62477,0.11059 -0.35165,0.19679 -0.56367,0.15247 -0.83303,-0.17415 -0.16271,-0.19729 -0.24994,-0.29182 -0.28215,-0.27027 z"
       id="path4531" /><path
       style="fill:#000000;stroke-width:1"
       d="m 402.6401,477.58514 c -0.22353,0.0229 -0.59744,0.25896 -1.00045,0.66197 -0.80359,0.80359 -0.80341,0.80388 -0.99322,0.078 -0.084,-0.32104 -0.22648,-0.50991 -0.31678,-0.41961 -0.0903,0.0903 -0.0312,0.41222 0.13126,0.71572 0.19615,0.36659 0.20313,0.5519 0.0212,0.5519 -0.15064,0 -0.27388,-0.13872 -0.27388,-0.3085 0,-0.16979 -0.0713,-0.23717 -0.15865,-0.14987 -0.0873,0.0873 -0.0804,0.2856 0.0155,0.4408 0.0959,0.1552 0.24439,0.28216 0.32969,0.28216 0.29401,0 2.45875,-1.45562 2.45928,-1.65365 3.6e-4,-0.14973 -0.0798,-0.2127 -0.21394,-0.19895 z"
       id="path4529" /><g
       id="g1573"
       transform="rotate(23.401174,58.188785,178.47901)"><rect
         style="vector-effect:non-scaling-stroke;fill:none;stroke:#ff0000;stroke-width:0.264583;stroke-dasharray:none;stroke-opacity:1;-inkscape-stroke:hairline;stop-color:#000000"
         id="rect6259"
         width="9.9999065"
         height="3"
         x="-181.839"
         y="52.74939"
         transform="rotate(-90)" /><rect
         style="vector-effect:non-scaling-stroke;fill:none;stroke:#ff0000;stroke-width:0.264583;stroke-dasharray:none;stroke-opacity:1;-inkscape-stroke:hairline;stop-color:#000000"
         id="rect1569"
         width="9.9999065"
         height="3"
         x="-181.839"
         y="58.041058"
         transform="rotate(-90)" /></g></g></svg>
