<?xml version="1.0" encoding="UTF-8" standalone="no"?>
<!-- Created with Inkscape (http://www.inkscape.org/) -->

<svg
   width="158.44298mm"
   height="86.182365mm"
   viewBox="0 0 158.44298 86.182365"
   version="1.1"
   id="svg1267"
   inkscape:version="1.2.1 (9c6d41e, 2022-07-14)"
   sodipodi:docname="bridalhq.svg"
   xmlns:inkscape="http://www.inkscape.org/namespaces/inkscape"
   xmlns:sodipodi="http://sodipodi.sourceforge.net/DTD/sodipodi-0.dtd"
   xmlns="http://www.w3.org/2000/svg"
   xmlns:svg="http://www.w3.org/2000/svg">
  <sodipodi:namedview
     id="namedview1269"
     pagecolor="#ffffff"
     bordercolor="#666666"
     borderopacity="1.0"
     inkscape:showpageshadow="2"
     inkscape:pageopacity="0.0"
     inkscape:pagecheckerboard="0"
     inkscape:deskcolor="#d1d1d1"
     inkscape:document-units="mm"
     showgrid="false"
     inkscape:zoom="1.4137892"
     inkscape:cx="384.78154"
     inkscape:cy="125.54912"
     inkscape:window-width="1280"
     inkscape:window-height="747"
     inkscape:window-x="0"
     inkscape:window-y="25"
     inkscape:window-maximized="1"
     inkscape:current-layer="layer1" />
  <defs
     id="defs1264" />
  <g
     inkscape:label="Layer 1"
     inkscape:groupmode="layer"
     id="layer1"
     transform="translate(-3.3147066,-3.3147066)">
    <rect
       style="vector-effect:non-scaling-stroke;fill:none;stroke:#ff0000;stroke-width:0.264583;stroke-linecap:round;stroke-opacity:1;-inkscape-stroke:hairline;stop-color:#000000"
       id="rect1440"
       width="158.44298"
       height="86.182365"
       x="3.3147066"
       y="3.3147066" />
    <path
       d="m 25.990172,31.17791 h -7.825211 v -0.795075 h 1.297227 q 0.523076,0 0.815998,-0.146461 0.313845,-0.167384 0.313845,-0.460307 V 17.41056 q 0,-0.89969 -1.046151,-0.89969 h -1.380919 v -0.795075 h 8.076287 q 2.28061,0 3.577837,1.004305 1.318151,1.004305 1.318151,2.678147 0,1.297228 -0.89969,2.217841 -0.878767,0.89969 -2.636301,1.443688 4.372912,0.941536 4.372912,3.975375 0,1.79938 -1.631996,2.971069 -1.611073,1.17169 -4.351989,1.17169 z M 22.788949,17.285022 V 22.8087 h 2.929223 q 2.950147,0 2.950147,-3.38953 0,-1.778457 -0.962459,-2.385225 -0.815998,-0.523075 -3.012916,-0.523075 -0.983382,0 -1.443689,0.06277 -0.460306,0.04185 -0.460306,0.711383 z m 3.1803,6.318753 h -3.1803 v 5.942139 q 0,0.836921 1.129843,0.836921 h 1.883072 q 3.640607,0 3.640607,-3.38953 0,-1.59015 -0.920613,-2.48984 -0.920613,-0.89969 -2.552609,-0.89969 z"
       style="font-size:21.4461px;line-height:1.25;font-family:AppleMyungjo;-inkscape-font-specification:AppleMyungjo;fill:none;stroke:#0000ff;stroke-width:0.264584;stroke-opacity:1"
       id="path1621" />
    <path
       d="m 37.644262,23.603775 v 6.046754 q 0,0.732306 0.815998,0.732306 h 1.652919 v 0.795075 h -7.197521 v -0.795075 h 1.527381 q 0.983382,0 0.983382,-0.732306 V 17.285022 q 0,-0.439384 -0.230153,-0.606768 -0.20923,-0.167384 -0.753229,-0.167384 h -1.527381 v -0.795075 h 7.992596 q 2.301532,0 3.59876,1.025228 1.297227,1.025228 1.297227,2.782762 0,1.422766 -0.962459,2.385225 -0.69046,0.69046 -1.715688,1.004305 -0.732306,0.230153 -2.301533,0.397538 1.443689,0.397537 2.07138,0.836921 0.941536,0.648613 1.234458,1.820303 0.983382,3.975374 1.715688,3.975374 0.397538,0 0.648614,-0.585844 0.271999,-0.585845 0.271999,-1.59015 h 0.711383 q 0,3.577837 -2.636301,3.577837 -1.129843,0 -1.820303,-0.815998 -0.669537,-0.815998 -0.669537,-2.322456 0,-2.406147 -0.669537,-3.431376 -0.774151,-1.171689 -2.782762,-1.171689 z m 0,-6.339677 V 22.8087 h 1.841226 q 2.050456,0 2.971069,-0.732306 0.941536,-0.753229 0.941536,-2.427071 0,-2.029533 -1.087997,-2.678147 -0.774152,-0.460306 -2.866454,-0.460306 -0.941536,0 -1.087998,0.02092 -0.711382,0.104615 -0.711382,0.732305 z"
       style="font-size:21.4461px;line-height:1.25;font-family:AppleMyungjo;-inkscape-font-specification:AppleMyungjo;fill:none;stroke:#0000ff;stroke-width:0.264584;stroke-opacity:1"
       id="path1623" />
    <path
       d="m 48.189451,16.51087 v -0.795075 h 7.134751 v 0.795075 h -1.213535 q -0.836921,0 -1.046151,0.20923 -0.188308,0.188307 -0.188308,0.836921 v 11.716894 q 0,0.502152 0.08369,0.711382 0.167385,0.397538 1.004306,0.397538 H 55.3242 v 0.795075 h -7.134751 v -0.795075 h 1.359996 q 0.711383,0 0.920614,-0.20923 0.20923,-0.209231 0.20923,-0.89969 V 17.557021 q 0,-0.648614 -0.188307,-0.815998 -0.251077,-0.230153 -1.087998,-0.230153 z"
       style="font-size:21.4461px;line-height:1.25;font-family:AppleMyungjo;-inkscape-font-specification:AppleMyungjo;fill:none;stroke:#0000ff;stroke-width:0.264584;stroke-opacity:1"
       id="path1625" />
    <path
       d="m 56.014635,16.51087 v -0.795075 h 7.992596 q 1.422765,0 2.406148,0.334768 0.983382,0.313845 1.987687,1.255382 2.343379,2.21784 2.343379,6.109523 0,3.305838 -1.569227,5.314448 -1.548304,2.00861 -4.351989,2.364302 -0.313846,0.04185 -0.836921,0.06277 -0.502153,0.02092 -0.815998,0.02092 h -7.155675 v -0.795075 h 1.464612 q 1.004305,0 1.004305,-0.732306 v -12.4492 q 0,-0.690459 -0.878767,-0.690459 z m 7.385828,0 h -1.757534 q -0.941536,0 -0.941536,0.753228 v 12.365508 q 0,0.753229 1.150766,0.753229 h 1.318151 q 2.657224,0 3.849836,-1.611073 1.192613,-1.631996 1.192613,-5.105218 0,-3.682452 -1.17169,-5.419063 Q 65.86938,16.51087 63.400463,16.51087 Z"
       style="font-size:21.4461px;line-height:1.25;font-family:AppleMyungjo;-inkscape-font-specification:AppleMyungjo;fill:none;stroke:#0000ff;stroke-width:0.264584;stroke-opacity:1"
       id="path1627" />
    <path
       d="m 73.861939,28.499763 5.272602,-13.118737 h 0.69046 l 5.565525,14.143965 q 0.313845,0.857844 1.359996,0.857844 h 0.48123 V 31.17791 H 81.05946 v -0.795075 h 0.502152 q 1.631996,0 1.631996,-0.648614 0,-0.188307 -0.08369,-0.376614 l -1.276304,-3.305838 h -6.130447 l -0.711383,1.903995 q -0.188307,0.502153 -0.20923,0.627691 -0.08369,0.313845 -0.08369,0.627691 0,0.460306 0.502153,0.815997 0.523075,0.355692 1.380919,0.355692 h 0.523076 v 0.795075 h -5.607371 v -0.795075 h 0.167385 q 1.443688,0 2.196917,-1.883072 z m 7.657827,-3.243069 -2.69907,-6.883675 -2.761839,6.883675 z"
       style="font-size:21.4461px;line-height:1.25;font-family:AppleMyungjo;-inkscape-font-specification:AppleMyungjo;fill:none;stroke:#0000ff;stroke-width:0.264584;stroke-opacity:1"
       id="path1629" />
    <path
       d="m 87.984967,16.51087 v -0.795075 h 7.176597 v 0.795075 h -1.715688 q -0.815998,0 -0.815998,0.732305 v 12.491046 q 0,0.648614 1.255382,0.648614 h 2.155071 q 1.883072,0 2.929224,-1.234459 1.046155,-1.234458 1.527385,-3.933528 h 0.7323 l -0.33477,5.963062 H 87.984967 v -0.795075 h 1.276304 q 0.627691,0 0.89969,-0.20923 0.272,-0.230154 0.272,-0.815998 V 17.264098 q 0,-0.753228 -0.69046,-0.753228 z"
       style="font-size:21.4461px;line-height:1.25;font-family:AppleMyungjo;-inkscape-font-specification:AppleMyungjo;fill:none;stroke:#0000ff;stroke-width:0.264584;stroke-opacity:1"
       id="path1631" />
    <path
       d="m 110.85381,16.51087 v -0.795075 h 6.59075 v 0.795075 h -1.19261 q -0.69046,0 -0.85785,0.251076 -0.16738,0.230153 -0.16738,1.046151 v 4.77045 h 7.07198 v -4.77045 q 0,-0.836921 -0.16738,-1.067074 -0.16739,-0.230153 -0.89969,-0.230153 h -1.10892 v -0.795075 h 6.56983 V 16.51087 H 125.479 q -0.64861,0 -0.816,0.313845 -0.16738,0.292922 -0.16738,1.10892 v 11.131049 q 0,0.732306 0.0837,0.89969 0.20923,0.418461 1.02523,0.418461 h 1.088 v 0.795075 h -6.56983 v -0.795075 h 1.10892 q 0.58584,0 0.816,-0.20923 0.25107,-0.230154 0.25107,-1.17169 v -5.39814 h -7.07198 v 5.460909 q 0,0.627691 0.0837,0.857844 0.16739,0.460307 0.75323,0.460307 h 1.38092 v 0.795075 h -6.59075 v -0.795075 h 1.25538 q 0.46031,0 0.66954,-0.251076 0.23015,-0.251077 0.23015,-1.129844 V 17.808097 q 0,-0.815998 -0.16738,-1.046151 -0.16739,-0.251076 -0.87877,-0.251076 z"
       style="font-size:21.4461px;line-height:1.25;font-family:AppleMyungjo;-inkscape-font-specification:AppleMyungjo;fill:none;stroke:#0000ff;stroke-width:0.264584;stroke-opacity:1"
       id="path1633" />
    <path
       d="m 141.46416,31.700985 h 0.60677 q 0,1.778458 -0.69046,2.719994 -0.69046,0.941536 -1.92492,0.941536 -1.2763,0 -1.88307,-1.025228 -0.58585,-1.004306 -0.77415,-3.159377 -0.77416,0.20923 -1.25539,0.271999 -0.4603,0.06277 -0.89969,0.06277 -3.0966,0 -5.14706,-2.322455 -2.02953,-2.322456 -2.02953,-5.900293 0,-3.347684 2.05045,-5.628294 2.07138,-2.301533 5.10522,-2.301533 3.05476,0 5.12614,2.28061 2.07138,2.28061 2.07138,5.795678 0,4.121836 -3.22214,6.77906 0.48123,1.631996 0.71138,2.280609 0.41846,1.129844 1.15077,1.129844 0.4603,0 0.7323,-0.502153 0.272,-0.502152 0.272,-1.422766 z m -3.36861,-2.950146 q 0.62769,-1.192612 0.85785,-2.427071 0.23015,-1.255381 0.23015,-2.991992 0,-3.535992 -1.17169,-5.335372 -1.17169,-1.820303 -3.38953,-1.820303 -2.19692,0 -3.36861,1.820303 -1.15076,1.79938 -1.15076,5.335372 0,1.778457 0.29292,3.159376 0.31385,1.359997 1.15077,2.719994 l -0.0419,-0.711383 q 0,-1.339074 0.816,-2.155072 0.83692,-0.836921 2.21784,-0.836921 1.36,0 2.19692,0.815998 0.7323,0.732306 1.35999,2.427071 z m -1.29722,1.359997 q 0,-1.945842 -0.544,-2.908301 -0.52308,-0.962459 -1.75754,-0.962459 -1.0043,0 -1.63199,0.648614 -0.62769,0.648614 -0.62769,1.631996 0,0.523075 0.1883,0.962459 0.20923,0.439383 0.60677,0.89969 0.41846,0.167384 0.79508,0.292922 0.39753,0.104615 0.75323,0.104615 0.56492,0 1.12984,-0.167384 0.58584,-0.188307 1.088,-0.502152 z"
       style="font-size:21.4461px;line-height:1.25;font-family:AppleMyungjo;-inkscape-font-specification:AppleMyungjo;fill:none;stroke:#0000ff;stroke-width:0.264584;stroke-opacity:1"
       id="path1635" />
    <path
       d="M 37.458986,56.100586 H 35.407438 L 34.875173,54.54513 h -2.85253 l -0.532266,1.555456 H 29.490505 L 32.3327,48.40599 h 2.284091 z m -3.064403,-2.966218 -0.945675,-2.759513 -0.945676,2.759513 z"
       style="font-weight:bold;font-size:10.5833px;line-height:1.25;-inkscape-font-specification:'sans-serif Bold';text-align:center;text-anchor:middle;fill:none;stroke:#0000ff;stroke-width:0.264583;stroke-opacity:1"
       id="path1558" />
    <path
       d="m 44.104554,56.100586 h -1.860345 v -0.604612 q -0.48059,0.392739 -0.899167,0.578774 -0.418578,0.186034 -0.966346,0.186034 -1.059364,0 -1.694982,-0.816485 -0.635618,-0.816485 -0.635618,-2.201409 0,-0.73897 0.211873,-1.307409 0.21704,-0.573607 0.589109,-0.981849 0.351399,-0.387572 0.852658,-0.599445 0.50126,-0.21704 1.00252,-0.21704 0.52193,0 0.852658,0.113687 0.335896,0.108521 0.687295,0.279052 v -2.470125 h 1.860345 z m -1.860345,-1.601964 v -2.847363 q -0.19637,-0.08268 -0.41341,-0.118855 -0.217041,-0.03617 -0.397908,-0.03617 -0.733803,0 -1.100704,0.459919 -0.366902,0.454751 -0.366902,1.266069 0,0.852658 0.294555,1.24023 0.294555,0.382405 0.945676,0.382405 0.253214,0 0.537433,-0.09302 0.284219,-0.09819 0.50126,-0.253213 z"
       style="font-weight:bold;font-size:10.5833px;line-height:1.25;-inkscape-font-specification:'sans-serif Bold';text-align:center;text-anchor:middle;fill:none;stroke:#0000ff;stroke-width:0.264583;stroke-opacity:1"
       id="path1560" />
    <path
       d="m 51.535602,51.987155 v 4.113431 h -1.870681 v -2.899039 q 0,-0.423745 -0.02067,-0.7183 -0.02067,-0.299722 -0.113687,-0.485757 -0.09302,-0.186034 -0.28422,-0.268716 -0.186034,-0.08785 -0.527098,-0.08785 -0.273884,0 -0.532265,0.113688 -0.258382,0.10852 -0.465087,0.232543 v 4.113431 h -1.860345 v -5.803245 h 1.860345 v 0.640786 q 0.480589,-0.377237 0.919838,-0.58911 0.439248,-0.211872 0.971514,-0.211872 0.573606,0 1.012854,0.258381 0.439249,0.253214 0.687295,0.749306 0.558104,-0.470254 1.085201,-0.738971 0.527098,-0.268716 1.033526,-0.268716 0.940508,0 1.426265,0.563271 0.490924,0.563271 0.490924,1.622635 v 3.777535 H 53.47863 v -2.899039 q 0,-0.428913 -0.02067,-0.723467 -0.0155,-0.294555 -0.10852,-0.48059 -0.08785,-0.186034 -0.279052,-0.268716 -0.191202,-0.08785 -0.537433,-0.08785 -0.232543,0 -0.454751,0.08268 -0.222208,0.07751 -0.542601,0.263549 z"
       style="font-weight:bold;font-size:10.5833px;line-height:1.25;-inkscape-font-specification:'sans-serif Bold';text-align:center;text-anchor:middle;fill:none;stroke:#0000ff;stroke-width:0.264583;stroke-opacity:1"
       id="path1562" />
    <path
       d="m 58.92014,56.100586 h -1.860345 v -5.803245 h 1.860345 z m 0.05168,-6.630065 h -1.963698 v -1.410762 h 1.963698 z"
       style="font-weight:bold;font-size:10.5833px;line-height:1.25;-inkscape-font-specification:'sans-serif Bold';text-align:center;text-anchor:middle;fill:none;stroke:#0000ff;stroke-width:0.264583;stroke-opacity:1"
       id="path1564" />
    <path
       d="m 64.387489,56.04891 q -0.299723,0.07751 -0.635618,0.118855 -0.335896,0.04651 -0.821653,0.04651 -1.085202,0 -1.617467,-0.439249 -0.527098,-0.439248 -0.527098,-1.503779 v -2.713004 h -0.764809 v -1.260901 h 0.764809 v -1.658808 h 1.860346 v 1.658808 h 1.74149 v 1.260901 h -1.74149 v 2.056715 q 0,0.30489 0.0052,0.532266 0.0052,0.227376 0.08268,0.408243 0.07235,0.180866 0.253214,0.289387 0.186034,0.103352 0.537433,0.103352 0.144694,0 0.377237,-0.06201 0.237711,-0.06201 0.330728,-0.113688 h 0.155029 z"
       style="font-weight:bold;font-size:10.5833px;line-height:1.25;-inkscape-font-specification:'sans-serif Bold';text-align:center;text-anchor:middle;fill:none;stroke:#0000ff;stroke-width:0.264583;stroke-opacity:1"
       id="path1566" />
    <path
       d="m 69.208887,56.04891 q -0.299723,0.07751 -0.635619,0.118855 -0.335895,0.04651 -0.821652,0.04651 -1.085202,0 -1.617467,-0.439249 -0.527098,-0.439248 -0.527098,-1.503779 v -2.713004 h -0.764809 v -1.260901 h 0.764809 v -1.658808 h 1.860345 v 1.658808 h 1.741491 v 1.260901 h -1.741491 v 2.056715 q 0,0.30489 0.0052,0.532266 0.0052,0.227376 0.08268,0.408243 0.07235,0.180866 0.253214,0.289387 0.186034,0.103352 0.537433,0.103352 0.144693,0 0.377237,-0.06201 0.23771,-0.06201 0.330728,-0.113688 h 0.155029 z"
       style="font-weight:bold;font-size:10.5833px;line-height:1.25;-inkscape-font-specification:'sans-serif Bold';text-align:center;text-anchor:middle;fill:none;stroke:#0000ff;stroke-width:0.264583;stroke-opacity:1"
       id="path1568" />
    <path
       d="m 73.833913,54.586471 v -1.209224 q -0.377237,0.03101 -0.816485,0.08785 -0.439249,0.05168 -0.666624,0.124023 -0.279052,0.08785 -0.428913,0.258382 -0.144694,0.165364 -0.144694,0.439248 0,0.180867 0.03101,0.294555 0.03101,0.113687 0.155029,0.21704 0.118855,0.103353 0.284219,0.155029 0.165364,0.04651 0.516763,0.04651 0.279052,0 0.563271,-0.113687 0.289387,-0.113688 0.506428,-0.299723 z m 0,0.899167 q -0.149862,0.113688 -0.37207,0.273885 -0.222208,0.160196 -0.418577,0.253213 -0.273885,0.124023 -0.568439,0.180867 -0.294555,0.06201 -0.645954,0.06201 -0.82682,0 -1.384924,-0.511595 -0.558103,-0.511595 -0.558103,-1.30741 0,-0.635618 0.284219,-1.038693 0.28422,-0.403075 0.80615,-0.635618 0.516763,-0.232543 1.281571,-0.330728 0.764809,-0.09819 1.586462,-0.144694 v -0.03101 q 0,-0.48059 -0.39274,-0.661457 -0.392739,-0.186034 -1.157548,-0.186034 -0.459919,0 -0.981849,0.165364 -0.521931,0.160196 -0.749306,0.248046 h -0.170532 v -1.400427 q 0.294555,-0.07751 0.956011,-0.180867 0.666624,-0.10852 1.333248,-0.10852 1.586461,0 2.289258,0.490925 0.707965,0.485756 0.707965,1.529617 v 3.948067 h -1.844842 z"
       style="font-weight:bold;font-size:10.5833px;line-height:1.25;-inkscape-font-specification:'sans-serif Bold';text-align:center;text-anchor:middle;fill:none;stroke:#0000ff;stroke-width:0.264583;stroke-opacity:1"
       id="path1570" />
    <path
       d="m 83.218322,56.100586 h -1.87068 v -2.878368 q 0,-0.351399 -0.03617,-0.69763 -0.03617,-0.351398 -0.124023,-0.516762 -0.103352,-0.191203 -0.30489,-0.279052 -0.19637,-0.08785 -0.552936,-0.08785 -0.253214,0 -0.516763,0.08268 -0.258381,0.08268 -0.563271,0.263549 v 4.113431 h -1.860346 v -5.803245 h 1.860346 v 0.640786 q 0.496092,-0.387572 0.950843,-0.594277 0.459919,-0.206705 1.018023,-0.206705 0.940508,0 1.467606,0.547768 0.532265,0.547769 0.532265,1.638138 z"
       style="font-weight:bold;font-size:10.5833px;line-height:1.25;-inkscape-font-specification:'sans-serif Bold';text-align:center;text-anchor:middle;fill:none;stroke:#0000ff;stroke-width:0.264583;stroke-opacity:1"
       id="path1572" />
    <path
       d="m 87.951867,56.255615 q -0.759641,0 -1.390091,-0.180867 -0.625283,-0.180867 -1.09037,-0.558104 -0.459919,-0.377237 -0.713132,-0.950843 -0.253214,-0.573607 -0.253214,-1.343583 0,-0.811318 0.268717,-1.400427 0.273884,-0.589109 0.759641,-0.976681 0.470254,-0.366902 1.085201,-0.537434 0.614948,-0.170531 1.276404,-0.170531 0.594277,0 1.095537,0.12919 0.50126,0.129191 0.935341,0.335896 v 1.586461 h -0.263549 q -0.108521,-0.09302 -0.263549,-0.21704 -0.149862,-0.124023 -0.37207,-0.242878 -0.211872,-0.113688 -0.465086,-0.186035 -0.253214,-0.07751 -0.589109,-0.07751 -0.744139,0 -1.147214,0.475421 -0.397907,0.470254 -0.397907,1.281572 0,0.837155 0.408243,1.271236 0.41341,0.434081 1.167883,0.434081 0.351399,0 0.630451,-0.07751 0.284219,-0.08268 0.470254,-0.191202 0.175699,-0.103352 0.310057,-0.21704 0.134359,-0.113688 0.248047,-0.222208 h 0.263549 v 1.586461 q -0.439249,0.206705 -0.919838,0.325561 -0.475422,0.124023 -1.054196,0.124023 z"
       style="font-weight:bold;font-size:10.5833px;line-height:1.25;-inkscape-font-specification:'sans-serif Bold';text-align:center;text-anchor:middle;fill:none;stroke:#0000ff;stroke-width:0.264583;stroke-opacity:1"
       id="path1574" />
    <path
       d="m 96.87119,53.542611 h -4.258124 q 0.04134,0.682126 0.516763,1.04386 0.480589,0.361734 1.410762,0.361734 0.589109,0 1.142045,-0.211873 0.552936,-0.211872 0.873329,-0.454751 h 0.206705 v 1.493444 q -0.63045,0.253214 -1.188554,0.366902 -0.558104,0.113688 -1.235063,0.113688 -1.746658,0 -2.67683,-0.78548 -0.930173,-0.785479 -0.930173,-2.237582 0,-1.4366 0.878496,-2.273756 0.883665,-0.842323 2.41845,-0.842323 1.415929,0 2.129062,0.7183 0.713132,0.713133 0.713132,2.056716 z m -1.85001,-1.09037 Q 95.00568,51.8683 94.731793,51.573745 94.457909,51.27919 93.879135,51.27919 q -0.537434,0 -0.883665,0.279052 -0.346231,0.279052 -0.387572,0.893999 z"
       style="font-weight:bold;font-size:10.5833px;line-height:1.25;-inkscape-font-specification:'sans-serif Bold';text-align:center;text-anchor:middle;fill:none;stroke:#0000ff;stroke-width:0.264583;stroke-opacity:1"
       id="path1576" />
    <path
       d="m 105.51146,56.04891 q -0.29972,0.07751 -0.63561,0.118855 -0.3359,0.04651 -0.82166,0.04651 -1.0852,0 -1.61746,-0.439249 -0.5271,-0.439248 -0.5271,-1.503779 v -2.713004 h -0.76481 v -1.260901 h 0.76481 v -1.658808 h 1.86034 v 1.658808 h 1.74149 v 1.260901 h -1.74149 v 2.056715 q 0,0.30489 0.005,0.532266 0.005,0.227376 0.0827,0.408243 0.0724,0.180866 0.25322,0.289387 0.18603,0.103352 0.53743,0.103352 0.14469,0 0.37724,-0.06201 0.23771,-0.06201 0.33073,-0.113688 h 0.15502 z"
       style="font-weight:bold;font-size:10.5833px;line-height:1.25;-inkscape-font-specification:'sans-serif Bold';text-align:center;text-anchor:middle;fill:none;stroke:#0000ff;stroke-width:0.264583;stroke-opacity:1"
       id="path1578" />
    <path
       d="m 112.55494,53.201547 q 0,1.431433 -0.83716,2.258253 -0.83198,0.821653 -2.34093,0.821653 -1.50895,0 -2.3461,-0.821653 -0.83199,-0.82682 -0.83199,-2.258253 0,-1.441768 0.83715,-2.26342 0.84233,-0.821653 2.34094,-0.821653 1.51928,0 2.3461,0.82682 0.83199,0.826821 0.83199,2.258253 z m -2.28926,1.410762 q 0.18087,-0.222208 0.26872,-0.532265 0.093,-0.315225 0.093,-0.868161 0,-0.511595 -0.093,-0.857826 -0.093,-0.346231 -0.25838,-0.552937 -0.16537,-0.211872 -0.39791,-0.299722 -0.23254,-0.08785 -0.50126,-0.08785 -0.26872,0 -0.48059,0.07235 -0.2067,0.07235 -0.39791,0.289387 -0.17053,0.201538 -0.27388,0.552936 -0.0982,0.351399 -0.0982,0.883665 0,0.475421 0.0879,0.82682 0.0879,0.346231 0.25838,0.558104 0.16537,0.201537 0.39274,0.294554 0.23255,0.09302 0.5271,0.09302 0.25322,0 0.48059,-0.08268 0.23254,-0.08785 0.39274,-0.289388 z"
       style="font-weight:bold;font-size:10.5833px;line-height:1.25;-inkscape-font-specification:'sans-serif Bold';text-align:center;text-anchor:middle;fill:none;stroke:#0000ff;stroke-width:0.264583;stroke-opacity:1"
       id="path1580" />
    <path
       d="m 121.21588,56.04891 q -0.29972,0.07751 -0.63562,0.118855 -0.33589,0.04651 -0.82165,0.04651 -1.0852,0 -1.61747,-0.439249 -0.5271,-0.439248 -0.5271,-1.503779 v -2.713004 h -0.76481 v -1.260901 h 0.76481 v -1.658808 h 1.86035 v 1.658808 h 1.74149 v 1.260901 h -1.74149 v 2.056715 q 0,0.30489 0.005,0.532266 0.005,0.227376 0.0827,0.408243 0.0724,0.180866 0.25321,0.289387 0.18604,0.103352 0.53744,0.103352 0.14469,0 0.37723,-0.06201 0.23771,-0.06201 0.33073,-0.113688 h 0.15503 z"
       style="font-weight:bold;font-size:10.5833px;line-height:1.25;-inkscape-font-specification:'sans-serif Bold';text-align:center;text-anchor:middle;fill:none;stroke:#0000ff;stroke-width:0.264583;stroke-opacity:1"
       id="path1582" />
    <path
       d="m 128.156,56.100586 h -1.87068 v -2.878368 q 0,-0.351399 -0.0362,-0.69763 -0.0362,-0.351398 -0.12403,-0.516762 -0.10335,-0.191203 -0.30489,-0.279052 -0.19637,-0.08785 -0.55293,-0.08785 -0.25322,0 -0.51676,0.08268 -0.25839,0.08268 -0.56328,0.263549 v 4.113431 h -1.86034 v -8.040827 h 1.86034 v 2.878368 q 0.4961,-0.387572 0.95085,-0.594277 0.45992,-0.206705 1.01802,-0.206705 0.94051,0 1.46761,0.547768 0.53226,0.547769 0.53226,1.638138 z"
       style="font-weight:bold;font-size:10.5833px;line-height:1.25;-inkscape-font-specification:'sans-serif Bold';text-align:center;text-anchor:middle;fill:none;stroke:#0000ff;stroke-width:0.264583;stroke-opacity:1"
       id="path1584" />
    <path
       d="m 135.58188,53.542611 h -4.25812 q 0.0413,0.682126 0.51676,1.04386 0.48059,0.361734 1.41076,0.361734 0.58911,0 1.14205,-0.211873 0.55293,-0.211872 0.87332,-0.454751 h 0.20671 v 1.493444 q -0.63045,0.253214 -1.18855,0.366902 -0.55811,0.113688 -1.23507,0.113688 -1.74666,0 -2.67683,-0.78548 -0.93017,-0.785479 -0.93017,-2.237582 0,-1.4366 0.8785,-2.273756 0.88366,-0.842323 2.41845,-0.842323 1.41592,0 2.12906,0.7183 0.71313,0.713133 0.71313,2.056716 z m -1.85001,-1.09037 q -0.0155,-0.583941 -0.28939,-0.878496 -0.27388,-0.294555 -0.85266,-0.294555 -0.53743,0 -0.88366,0.279052 -0.34623,0.279052 -0.38757,0.893999 z"
       style="font-weight:bold;font-size:10.5833px;line-height:1.25;-inkscape-font-specification:'sans-serif Bold';text-align:center;text-anchor:middle;fill:none;stroke:#0000ff;stroke-width:0.264583;stroke-opacity:1"
       id="path1586" />
    <path
       d="m 38.642373,66.34799 q 0,1.369421 -0.759642,2.232415 -0.754473,0.862993 -1.886183,0.862993 -0.485757,0 -0.852659,-0.103352 -0.366901,-0.103353 -0.697629,-0.299723 l -0.07752,0.289387 h -1.782831 v -8.040827 h 1.860346 v 2.842195 q 0.428913,-0.341063 0.873328,-0.552936 0.449584,-0.211873 1.033526,-0.211873 1.100704,0 1.694981,0.795815 0.594278,0.790647 0.594278,2.185906 z m -1.91719,0.03617 q 0,-0.775144 -0.263549,-1.193722 -0.263549,-0.418577 -0.940508,-0.418577 -0.263549,0 -0.542601,0.08268 -0.279052,0.07751 -0.532265,0.227375 v 2.914542 q 0.201537,0.07235 0.382404,0.09819 0.180867,0.02584 0.434081,0.02584 0.73897,0 1.100704,-0.434081 0.361734,-0.43408 0.361734,-1.302242 z"
       style="font-weight:bold;font-size:10.5833px;line-height:1.25;-inkscape-font-specification:'sans-serif Bold';text-align:center;text-anchor:middle;fill:none;stroke:#0000ff;stroke-width:0.264583;stroke-opacity:1"
       id="path1588" />
    <path
       d="M 44.192404,65.298962 H 44.02704 q -0.118856,-0.04134 -0.382405,-0.06201 -0.263549,-0.02067 -0.439248,-0.02067 -0.397907,0 -0.702797,0.05168 -0.30489,0.05168 -0.656289,0.175699 v 3.886055 h -1.860345 v -5.803244 h 1.860345 v 0.852658 q 0.614948,-0.527098 1.069699,-0.69763 0.454751,-0.175699 0.837155,-0.175699 0.09819,0 0.222208,0.0052 0.124023,0.0052 0.217041,0.0155 z"
       style="font-weight:bold;font-size:10.5833px;line-height:1.25;-inkscape-font-specification:'sans-serif Bold';text-align:center;text-anchor:middle;fill:none;stroke:#0000ff;stroke-width:0.264583;stroke-opacity:1"
       id="path1590" />
    <path
       d="m 47.106945,69.32971 h -1.860346 v -5.803244 h 1.860346 z m 0.05168,-6.630065 h -1.963698 v -1.410762 h 1.963698 z"
       style="font-weight:bold;font-size:10.5833px;line-height:1.25;-inkscape-font-specification:'sans-serif Bold';text-align:center;text-anchor:middle;fill:none;stroke:#0000ff;stroke-width:0.264583;stroke-opacity:1"
       id="path1592" />
    <path
       d="m 54.506987,69.32971 h -1.860346 v -0.604612 q -0.480589,0.39274 -0.899167,0.578774 -0.418577,0.186035 -0.966346,0.186035 -1.059363,0 -1.694981,-0.816485 -0.635619,-0.816485 -0.635619,-2.201409 0,-0.738971 0.211873,-1.30741 0.21704,-0.573606 0.58911,-0.981849 0.351398,-0.387572 0.852658,-0.599444 0.50126,-0.217041 1.00252,-0.217041 0.52193,0 0.852658,0.113688 0.335896,0.10852 0.687294,0.279052 v -2.470126 h 1.860346 z m -1.860346,-1.601964 v -2.847362 q -0.196369,-0.08268 -0.41341,-0.118856 -0.21704,-0.03617 -0.397907,-0.03617 -0.733803,0 -1.100705,0.459919 -0.366901,0.454751 -0.366901,1.266068 0,0.852659 0.294555,1.240231 0.294554,0.382404 0.945675,0.382404 0.253214,0 0.537434,-0.09302 0.284219,-0.09819 0.501259,-0.253214 z"
       style="font-weight:bold;font-size:10.5833px;line-height:1.25;-inkscape-font-specification:'sans-serif Bold';text-align:center;text-anchor:middle;fill:none;stroke:#0000ff;stroke-width:0.264583;stroke-opacity:1"
       id="path1594" />
    <path
       d="m 59.777966,67.815596 v -1.209225 q -0.377236,0.03101 -0.816485,0.08785 -0.439248,0.05168 -0.666623,0.124023 -0.279052,0.08785 -0.428914,0.258381 -0.144693,0.165364 -0.144693,0.439248 0,0.180867 0.03101,0.294555 0.03101,0.113688 0.155028,0.217041 0.118856,0.103352 0.28422,0.155028 0.165364,0.04651 0.516763,0.04651 0.279051,0 0.563271,-0.113688 0.289387,-0.113688 0.506427,-0.299722 z m 0,0.899167 q -0.149861,0.113688 -0.372069,0.273884 -0.222208,0.160197 -0.418578,0.253214 -0.273884,0.124023 -0.568438,0.180867 -0.294555,0.06201 -0.645954,0.06201 -0.82682,0 -1.384924,-0.511595 -0.558103,-0.511595 -0.558103,-1.307409 0,-0.635618 0.284219,-1.038693 0.284219,-0.403075 0.80615,-0.635618 0.516762,-0.232544 1.281571,-0.330729 0.764809,-0.09818 1.586462,-0.144693 v -0.03101 q 0,-0.480589 -0.39274,-0.661456 -0.39274,-0.186035 -1.157548,-0.186035 -0.459919,0 -0.981849,0.165364 -0.521931,0.160197 -0.749306,0.248047 h -0.170532 v -1.400427 q 0.294555,-0.07751 0.956011,-0.180867 0.666624,-0.10852 1.333248,-0.10852 1.586461,0 2.289258,0.490924 0.707965,0.485757 0.707965,1.529618 v 3.948066 h -1.844843 z"
       style="font-weight:bold;font-size:10.5833px;line-height:1.25;-inkscape-font-specification:'sans-serif Bold';text-align:center;text-anchor:middle;fill:none;stroke:#0000ff;stroke-width:0.264583;stroke-opacity:1"
       id="path1596" />
    <path
       d="m 65.193639,69.32971 h -1.860346 v -8.040827 h 1.860346 z"
       style="font-weight:bold;font-size:10.5833px;line-height:1.25;-inkscape-font-specification:'sans-serif Bold';text-align:center;text-anchor:middle;fill:none;stroke:#0000ff;stroke-width:0.264583;stroke-opacity:1"
       id="path1598" />
    <path
       d="m 76.624428,66.34799 q 0,0.7183 -0.222208,1.307409 -0.21704,0.58911 -0.573606,0.971514 -0.372069,0.403075 -0.842324,0.60978 -0.470254,0.206705 -1.007687,0.206705 -0.496092,0 -0.842323,-0.10852 -0.346231,-0.103352 -0.707965,-0.294555 v 2.41845 H 70.56797 v -7.932307 h 1.860345 v 0.604612 q 0.428913,-0.341063 0.873329,-0.552936 0.449584,-0.211873 1.033526,-0.211873 1.085201,0 1.684646,0.795815 0.604612,0.795814 0.604612,2.185906 z m -1.917189,0.03617 q 0,-0.847491 -0.289387,-1.229895 -0.289388,-0.382404 -0.91467,-0.382404 -0.263549,0 -0.542601,0.08268 -0.279052,0.07751 -0.532266,0.227375 v 2.919709 q 0.186035,0.07235 0.397907,0.09302 0.211873,0.02067 0.418578,0.02067 0.738971,0 1.100705,-0.428913 0.361734,-0.43408 0.361734,-1.302242 z"
       style="font-weight:bold;font-size:10.5833px;line-height:1.25;-inkscape-font-specification:'sans-serif Bold';text-align:center;text-anchor:middle;fill:none;stroke:#0000ff;stroke-width:0.264583;stroke-opacity:1"
       id="path1600" />
    <path
       d="m 81.481999,67.815596 v -1.209225 q -0.377236,0.03101 -0.816485,0.08785 -0.439248,0.05168 -0.666624,0.124023 -0.279051,0.08785 -0.428913,0.258381 -0.144693,0.165364 -0.144693,0.439248 0,0.180867 0.03101,0.294555 0.03101,0.113688 0.155028,0.217041 0.118856,0.103352 0.28422,0.155028 0.165364,0.04651 0.516763,0.04651 0.279051,0 0.563271,-0.113688 0.289387,-0.113688 0.506427,-0.299722 z m 0,0.899167 q -0.149861,0.113688 -0.372069,0.273884 -0.222208,0.160197 -0.418578,0.253214 -0.273884,0.124023 -0.568439,0.180867 -0.294554,0.06201 -0.645953,0.06201 -0.82682,0 -1.384924,-0.511595 -0.558104,-0.511595 -0.558104,-1.307409 0,-0.635618 0.28422,-1.038693 0.284219,-0.403075 0.80615,-0.635618 0.516762,-0.232544 1.281571,-0.330729 0.764809,-0.09818 1.586462,-0.144693 v -0.03101 q 0,-0.480589 -0.39274,-0.661456 -0.39274,-0.186035 -1.157548,-0.186035 -0.459919,0 -0.98185,0.165364 -0.52193,0.160197 -0.749305,0.248047 H 78.04036 v -1.400427 q 0.294555,-0.07751 0.956011,-0.180867 0.666624,-0.10852 1.333248,-0.10852 1.586461,0 2.289258,0.490924 0.707965,0.485757 0.707965,1.529618 v 3.948066 h -1.844843 z"
       style="font-weight:bold;font-size:10.5833px;line-height:1.25;-inkscape-font-specification:'sans-serif Bold';text-align:center;text-anchor:middle;fill:none;stroke:#0000ff;stroke-width:0.264583;stroke-opacity:1"
       id="path1602" />
    <path
       d="M 89.243774,65.298962 H 89.07841 q -0.118855,-0.04134 -0.382404,-0.06201 -0.263549,-0.02067 -0.439248,-0.02067 -0.397908,0 -0.702798,0.05168 -0.30489,0.05168 -0.656288,0.175699 v 3.886055 h -1.860346 v -5.803244 h 1.860346 v 0.852658 q 0.614947,-0.527098 1.069699,-0.69763 0.454751,-0.175699 0.837155,-0.175699 0.09819,0 0.222208,0.0052 0.124023,0.0052 0.21704,0.0155 z"
       style="font-weight:bold;font-size:10.5833px;line-height:1.25;-inkscape-font-specification:'sans-serif Bold';text-align:center;text-anchor:middle;fill:none;stroke:#0000ff;stroke-width:0.264583;stroke-opacity:1"
       id="path1604" />
    <path
       d="m 94.008325,69.278034 q -0.299722,0.07751 -0.635618,0.118856 -0.335896,0.04651 -0.821653,0.04651 -1.085201,0 -1.617467,-0.439248 -0.527098,-0.439248 -0.527098,-1.503779 v -2.713004 h -0.764808 v -1.260901 h 0.764808 v -1.658809 h 1.860346 v 1.658809 h 1.74149 v 1.260901 h -1.74149 v 2.056715 q 0,0.30489 0.0052,0.532266 0.0052,0.227375 0.08268,0.408242 0.07235,0.180867 0.253213,0.289387 0.186035,0.103353 0.537433,0.103353 0.144694,0 0.377237,-0.06201 0.237711,-0.06201 0.330728,-0.113688 h 0.155029 z"
       style="font-weight:bold;font-size:10.5833px;line-height:1.25;-inkscape-font-specification:'sans-serif Bold';text-align:center;text-anchor:middle;fill:none;stroke:#0000ff;stroke-width:0.264583;stroke-opacity:1"
       id="path1606" />
    <path
       d="m 96.979711,69.32971 h -1.860346 v -8.040827 h 1.860346 z"
       style="font-weight:bold;font-size:10.5833px;line-height:1.25;-inkscape-font-specification:'sans-serif Bold';text-align:center;text-anchor:middle;fill:none;stroke:#0000ff;stroke-width:0.264583;stroke-opacity:1"
       id="path1608" />
    <path
       d="m 101.35669,67.278163 1.32291,-3.751697 h 1.91202 l -3.2246,7.932307 h -2.015371 l 0.919841,-2.170404 -2.258256,-5.761903 h 1.953362 z"
       style="font-weight:bold;font-size:10.5833px;line-height:1.25;-inkscape-font-specification:'sans-serif Bold';text-align:center;text-anchor:middle;fill:none;stroke:#0000ff;stroke-width:0.264583;stroke-opacity:1"
       id="path1610" />
    <path
       d="m 115.17493,66.430672 q 0,1.431432 -0.83716,2.258253 -0.83199,0.821652 -2.34093,0.821652 -1.50895,0 -2.34611,-0.821652 -0.83198,-0.826821 -0.83198,-2.258253 0,-1.441768 0.83715,-2.263421 0.84233,-0.821652 2.34094,-0.821652 1.51928,0 2.3461,0.82682 0.83199,0.82682 0.83199,2.258253 z m -2.28926,1.410762 q 0.18087,-0.222208 0.26872,-0.532266 0.093,-0.315225 0.093,-0.868161 0,-0.511595 -0.093,-0.857826 -0.093,-0.346231 -0.25839,-0.552936 -0.16536,-0.211873 -0.3979,-0.299722 -0.23255,-0.08785 -0.50126,-0.08785 -0.26872,0 -0.48059,0.07235 -0.20671,0.07235 -0.39791,0.289387 -0.17053,0.201537 -0.27388,0.552936 -0.0982,0.351399 -0.0982,0.883664 0,0.475422 0.0879,0.82682 0.0879,0.346231 0.25838,0.558104 0.16537,0.201538 0.39274,0.294555 0.23255,0.09302 0.5271,0.09302 0.25321,0 0.48059,-0.08268 0.23254,-0.08785 0.39274,-0.289387 z"
       style="font-weight:bold;font-size:10.5833px;line-height:1.25;-inkscape-font-specification:'sans-serif Bold';text-align:center;text-anchor:middle;fill:none;stroke:#0000ff;stroke-width:0.264583;stroke-opacity:1"
       id="path1612" />
    <path
       d="m 122.33725,69.32971 h -1.87068 v -2.878368 q 0,-0.351398 -0.0362,-0.697629 -0.0362,-0.351399 -0.12402,-0.516763 -0.10336,-0.191202 -0.30489,-0.279052 -0.19637,-0.08785 -0.55294,-0.08785 -0.25321,0 -0.51676,0.08268 -0.25838,0.08268 -0.56327,0.263549 v 4.11343 h -1.86035 v -5.803244 h 1.86035 v 0.640785 q 0.49609,-0.387572 0.95084,-0.594277 0.45992,-0.206705 1.01802,-0.206705 0.94051,0 1.46761,0.547769 0.53226,0.547768 0.53226,1.638137 z"
       style="font-weight:bold;font-size:10.5833px;line-height:1.25;-inkscape-font-specification:'sans-serif Bold';text-align:center;text-anchor:middle;fill:none;stroke:#0000ff;stroke-width:0.264583;stroke-opacity:1"
       id="path1614" />
    <path
       d="m 125.90808,69.32971 h -1.86034 v -8.040827 h 1.86034 z"
       style="font-weight:bold;font-size:10.5833px;line-height:1.25;-inkscape-font-specification:'sans-serif Bold';text-align:center;text-anchor:middle;fill:none;stroke:#0000ff;stroke-width:0.264583;stroke-opacity:1"
       id="path1616" />
    <path
       d="m 130.28506,67.278163 1.32292,-3.751697 H 133.52 l -3.2246,7.932307 h -2.01538 l 0.91984,-2.170404 -2.25825,-5.761903 h 1.95336 z"
       style="font-weight:bold;font-size:10.5833px;line-height:1.25;-inkscape-font-specification:'sans-serif Bold';text-align:center;text-anchor:middle;fill:none;stroke:#0000ff;stroke-width:0.264583;stroke-opacity:1"
       id="path1618" />
    <circle
       style="fill:none;stroke:#ff0000;stroke-width:0.264583;stroke-linecap:round;stroke-opacity:1;stop-color:#000000"
       id="path3113"
       cx="11.106373"
       cy="11.106373"
       r="2.3677084" />
    <circle
       style="fill:none;stroke:#ff0000;stroke-width:0.264583;stroke-linecap:round;stroke-opacity:1;stop-color:#000000"
       id="circle3115"
       cx="153.96602"
       cy="11.106373"
       r="2.3677084" />
  </g>
</svg>
