<?xml version="1.0" encoding="UTF-8" standalone="no"?>
<!-- Created with Inkscape (http://www.inkscape.org/) -->

<svg
   width="129.88747mm"
   height="32.133335mm"
   viewBox="0 0 129.88747 32.133335"
   version="1.1"
   id="svg15846"
   inkscape:version="1.2.1 (9c6d41e, 2022-07-14)"
   sodipodi:docname="reserved.svg"
   xmlns:inkscape="http://www.inkscape.org/namespaces/inkscape"
   xmlns:sodipodi="http://sodipodi.sourceforge.net/DTD/sodipodi-0.dtd"
   xmlns="http://www.w3.org/2000/svg"
   xmlns:svg="http://www.w3.org/2000/svg">
  <sodipodi:namedview
     id="namedview15848"
     pagecolor="#ffffff"
     bordercolor="#666666"
     borderopacity="1.0"
     inkscape:showpageshadow="2"
     inkscape:pageopacity="0.0"
     inkscape:pagecheckerboard="0"
     inkscape:deskcolor="#d1d1d1"
     inkscape:document-units="mm"
     showgrid="false"
     inkscape:zoom="0.580471"
     inkscape:cx="73.216405"
     inkscape:cy="40.484365"
     inkscape:window-width="1280"
     inkscape:window-height="747"
     inkscape:window-x="0"
     inkscape:window-y="25"
     inkscape:window-maximized="0"
     inkscape:current-layer="layer1" />
  <defs
     id="defs15843" />
  <g
     inkscape:label="Layer 1"
     inkscape:groupmode="layer"
     id="layer1"
     transform="translate(-19.398526,-24.432421)">
    <rect
       style="fill:none;stroke:#e70000;stroke-width:0.264583;stroke-linecap:round;stop-color:#000000"
       id="rect16019"
       width="129.62288"
       height="31.868752"
       x="19.530819"
       y="24.564713"
       ry="4.8211331" />
    <path
       d="m 36.05629,40.463192 q 0.205124,0.389734 0.297429,0.5846 1.630728,3.158895 2.31789,4.153742 0.687163,0.994847 1.271763,1.025615 0.923054,0.05128 1.435862,-1.415349 0.338453,0.194867 0.338453,0.420503 0,0.646137 -0.871773,1.610216 -0.861517,0.964078 -1.446118,0.964078 -0.85126,0 -2.215329,-1.86662 -1.364068,-1.86662 -2.707624,-4.881928 -0.564088,0.05128 -0.964078,0.05128 -0.389734,0 -0.984591,-0.05128 l -0.08205,0.676906 -0.13333,1.179457 q -0.174355,1.46663 -0.625626,2.112768 -0.45127,0.635881 -1.753802,1.25125 l 2.420452,0.153843 -1.230738,1.189713 -4.440914,-0.225635 1.312788,-1.271763 1.11792,0.123074 q 1.240995,-0.789724 1.538423,-3.230688 l 0.112818,-0.994847 0.861517,-7.774164 q -4.66655,0.882029 -4.66655,3.517861 0,1.056383 0.441015,1.876875 l -1.651241,1.456374 q -0.215379,-0.789724 -0.215379,-1.59996 0,-2.779417 2.369171,-4.543475 2.369171,-1.764058 6.102411,-1.764058 5.066539,0 5.066539,3.220431 0,2.348659 -3.015308,4.051181 z m -2.769161,-6.287022 -0.656393,5.948569 q 0.820492,0.13333 1.497398,0.13333 0.635881,0 1.38458,-0.13333 1.835852,-1.312788 1.835852,-3.179408 0,-2.769161 -4.061437,-2.769161 z"
       style="font-size:21.0046px;line-height:1.25;font-family:'Apple Chancery';-inkscape-font-specification:'Apple Chancery';fill:none;stroke:#0000ff;stroke-width:0.264583"
       id="path17268" />
    <path
       d="m 43.52277,39.499113 -1.661497,1.59996 q -0.246147,-0.820492 -0.246147,-1.558935 0,-2.871723 2.389683,-4.646037 1.743546,-1.292275 4.963978,-1.292275 h 3.384531 q 1.907644,0 3.897338,-0.13333 l -0.830749,2.102511 -0.164098,0.379478 q -0.256404,0.605113 -0.656394,0.605113 -0.06154,0 -0.143586,-0.01026 0.112818,-0.512807 0.112818,-0.820492 0,-0.676906 -0.717931,-0.841004 Q 53.143041,34.70949 50.302087,34.70949 H 49.30724 l -0.543576,4.963978 h 1.99995 q 1.73329,0 3.076846,-0.164098 -1.169202,1.405092 -2.358915,1.405092 -0.66665,0 -1.887132,-0.102561 -0.502552,-0.03077 -0.707675,-0.03077 H 48.64059 l -0.102561,0.892286 q -0.215379,1.948669 -0.687162,2.769161 -0.461527,0.820492 -1.825596,1.65124 l 2.246098,0.174355 0.912797,0.08205 q 0.964079,0.07179 2.307635,0.07179 2.266609,0 3.774264,-1.466629 0.174354,0.194866 0.174354,0.369221 0,0.287172 -1.097408,1.179458 -1.59996,1.302531 -3.497348,1.302531 -1.753802,0 -5.046027,-0.297428 l -3.825545,-0.34871 q -0.194867,-0.01026 -1.38458,-0.08205 l 1.876875,-1.415349 q 1.01536,0.174355 2.440965,0.307685 1.005103,-0.389734 1.353812,-1.107665 0.348709,-0.717931 0.584601,-2.892235 L 47.656,34.70949 h -0.358966 q -1.989693,0 -3.11787,0.820492 -1.128177,0.810236 -1.128177,2.246098 0,0.830748 0.471783,1.723033 z"
       style="font-size:21.0046px;line-height:1.25;font-family:'Apple Chancery';-inkscape-font-specification:'Apple Chancery';fill:none;stroke:#0000ff;stroke-width:0.264583"
       id="path17270" />
    <path
       d="m 56.035277,45.581012 1.743546,-1.056384 q 0.410246,2.523014 3.025565,2.523014 1.271763,0 2.081999,-0.687163 0.810236,-0.697418 0.810236,-1.78457 0,-1.487142 -1.794827,-2.953772 l -1.240994,-1.005103 q -1.497399,-1.230738 -1.99995,-1.938413 -0.502551,-0.717931 -0.502551,-1.610216 0,-1.682009 1.343556,-2.779417 1.343556,-1.097408 3.394786,-1.097408 1.630728,0 3.087102,0.779467 l -0.594857,1.364068 -0.26666,0.605113 q -0.225635,0.53332 -0.53332,0.53332 -0.13333,0 -0.276916,-0.102561 0.174355,-0.53332 0.174355,-0.851261 0,-0.656394 -0.728187,-1.097408 -0.717931,-0.441015 -1.784571,-0.441015 -2.420452,0 -2.420452,1.99995 0,0.717931 0.53332,1.384581 0.543576,0.656393 2.246098,2.040974 l 0.994846,0.820492 q 1.897389,1.538423 1.897389,3.230688 0,1.86662 -1.579448,3.107614 -1.569191,1.240995 -3.928106,1.240995 -2.871723,0 -3.681959,-2.225585 z"
       style="font-size:21.0046px;line-height:1.25;font-family:'Apple Chancery';-inkscape-font-specification:'Apple Chancery';fill:none;stroke:#0000ff;stroke-width:0.264583"
       id="path17272" />
    <path
       d="m 68.886234,39.499113 -1.661497,1.59996 q -0.246148,-0.820492 -0.246148,-1.558935 0,-2.871723 2.389684,-4.646037 1.743546,-1.292275 4.963978,-1.292275 h 3.38453 q 1.907644,0 3.897338,-0.13333 l -0.830748,2.102511 -0.164099,0.379478 q -0.256404,0.605113 -0.656394,0.605113 -0.06154,0 -0.143586,-0.01026 0.112818,-0.512807 0.112818,-0.820492 0,-0.676906 -0.717931,-0.841004 Q 78.506505,34.70949 75.66555,34.70949 h -0.994846 l -0.543576,4.963978 h 1.999949 q 1.73329,0 3.076846,-0.164098 -1.169201,1.405092 -2.358915,1.405092 -0.66665,0 -1.887132,-0.102561 -0.502552,-0.03077 -0.707675,-0.03077 h -0.246147 l -0.102562,0.892286 q -0.215379,1.948669 -0.687162,2.769161 -0.461527,0.820492 -1.825595,1.65124 l 2.246097,0.174355 0.912798,0.08205 q 0.964078,0.07179 2.307634,0.07179 2.26661,0 3.774264,-1.466629 0.174355,0.194866 0.174355,0.369221 0,0.287172 -1.097408,1.179458 -1.59996,1.302531 -3.497348,1.302531 -1.753803,0 -5.046028,-0.297428 l -3.825544,-0.34871 q -0.194867,-0.01026 -1.384581,-0.08205 l 1.876876,-1.415349 q 1.015359,0.174355 2.440964,0.307685 1.005103,-0.389734 1.353812,-1.107665 0.34871,-0.717931 0.584601,-2.892235 l 0.810236,-7.261356 h -0.358965 q -1.989694,0 -3.117871,0.820492 -1.128176,0.810236 -1.128176,2.246098 0,0.830748 0.471783,1.723033 z"
       style="font-size:21.0046px;line-height:1.25;font-family:'Apple Chancery';-inkscape-font-specification:'Apple Chancery';fill:none;stroke:#0000ff;stroke-width:0.264583"
       id="path17274" />
    <path
       d="m 92.280517,40.463192 q 0.205123,0.389734 0.297429,0.5846 1.630728,3.158895 2.31789,4.153742 0.687162,0.994847 1.271763,1.025615 0.923054,0.05128 1.435862,-1.415349 0.338453,0.194867 0.338453,0.420503 0,0.646137 -0.871773,1.610216 -0.861517,0.964078 -1.446118,0.964078 -0.851261,0 -2.215329,-1.86662 -1.364068,-1.86662 -2.707624,-4.881928 -0.564089,0.05128 -0.964079,0.05128 -0.389733,0 -0.98459,-0.05128 l -0.08205,0.676906 -0.13333,1.179457 q -0.174355,1.46663 -0.625626,2.112768 -0.45127,0.635881 -1.753802,1.25125 l 2.420452,0.153843 -1.230738,1.189713 -4.440914,-0.225635 1.312787,-1.271763 1.117921,0.123074 q 1.240994,-0.789724 1.538423,-3.230688 l 0.112818,-0.994847 0.861516,-7.774164 q -4.666549,0.882029 -4.666549,3.517861 0,1.056383 0.441015,1.876875 l -1.651241,1.456374 q -0.215379,-0.789724 -0.215379,-1.59996 0,-2.779417 2.369171,-4.543475 2.369171,-1.764058 6.102411,-1.764058 5.066539,0 5.066539,3.220431 0,2.348659 -3.015309,4.051181 z m -2.769161,-6.287022 -0.656394,5.948569 q 0.820493,0.13333 1.497399,0.13333 0.635881,0 1.38458,-0.13333 1.835852,-1.312788 1.835852,-3.179408 0,-2.769161 -4.061437,-2.769161 z"
       style="font-size:21.0046px;line-height:1.25;font-family:'Apple Chancery';-inkscape-font-specification:'Apple Chancery';fill:none;stroke:#0000ff;stroke-width:0.264583"
       id="path17276" />
    <path
       d="m 105.43916,46.042539 -1.79482,1.764058 q -0.41025,-3.261457 -1.44612,-7.394686 -0.89228,-3.51786 -1.38458,-4.553732 -0.48204,-1.046127 -1.261507,-1.046127 -1.343556,0 -1.938413,2.05123 -0.379477,-0.08205 -0.358965,-0.410246 0.03077,-0.635881 0.779468,-1.825595 0.902541,-1.435861 2.297377,-1.435861 1.14869,0 1.78457,1.046127 0.63588,1.035871 1.46663,4.276816 0.92305,3.640934 1.46663,6.492144 4.48194,-6.276765 4.48194,-8.748498 0,-0.964078 -0.77947,-1.405093 l 1.50766,-1.661496 q 1.02561,0.574344 1.02561,1.774314 0,1.51791 -2.47173,5.446017 l -1.15895,1.78457 -0.841,1.323044 q -0.0718,0.112818 -0.50255,0.861517 l -0.47179,0.830748 q -0.10256,0.174355 -0.39999,0.830749 z"
       style="font-size:21.0046px;line-height:1.25;font-family:'Apple Chancery';-inkscape-font-specification:'Apple Chancery';fill:none;stroke:#0000ff;stroke-width:0.264583"
       id="path17278" />
    <path
       d="m 113.53127,39.499113 -1.66149,1.59996 q -0.24615,-0.820492 -0.24615,-1.558935 0,-2.871723 2.38968,-4.646037 1.74355,-1.292275 4.96398,-1.292275 h 3.38453 q 1.90764,0 3.89734,-0.13333 l -0.83075,2.102511 -0.1641,0.379478 q -0.2564,0.605113 -0.65639,0.605113 -0.0615,0 -0.14359,-0.01026 0.11282,-0.512807 0.11282,-0.820492 0,-0.676906 -0.71793,-0.841004 -0.70768,-0.174355 -3.54863,-0.174355 h -0.99485 l -0.54357,4.963978 h 1.99995 q 1.73329,0 3.07684,-0.164098 -1.1692,1.405092 -2.35891,1.405092 -0.66665,0 -1.88714,-0.102561 -0.50255,-0.03077 -0.70767,-0.03077 h -0.24615 l -0.10256,0.892286 q -0.21538,1.948669 -0.68716,2.769161 -0.46153,0.820492 -1.8256,1.65124 l 2.2461,0.174355 0.9128,0.08205 q 0.96408,0.07179 2.30763,0.07179 2.26661,0 3.77427,-1.466629 0.17435,0.194866 0.17435,0.369221 0,0.287172 -1.09741,1.179458 -1.59996,1.302531 -3.49734,1.302531 -1.75381,0 -5.04603,-0.297428 l -3.82555,-0.34871 q -0.19486,-0.01026 -1.38458,-0.08205 l 1.87688,-1.415349 q 1.01536,0.174355 2.44096,0.307685 1.00511,-0.389734 1.35381,-1.107665 0.34871,-0.717931 0.58461,-2.892235 l 0.81023,-7.261356 h -0.35896 q -1.9897,0 -3.11787,0.820492 -1.12818,0.810236 -1.12818,2.246098 0,0.830748 0.47178,1.723033 z"
       style="font-size:21.0046px;line-height:1.25;font-family:'Apple Chancery';-inkscape-font-specification:'Apple Chancery';fill:none;stroke:#0000ff;stroke-width:0.264583"
       id="path17280" />
    <path
       d="m 127.20272,47.119435 1.42561,-1.507655 q 0.52306,0.194867 1.45637,0.348709 0.75896,-0.461526 1.03587,-1.169201 0.27692,-0.717931 0.51281,-2.810186 l 0.85126,-7.640833 q -4.64604,0.543576 -4.64604,3.353762 0,0.841004 0.45128,1.753802 l -1.6615,1.558935 q -0.22564,-0.502552 -0.22564,-1.487142 0,-3.076846 2.38969,-4.697318 2.39994,-1.630728 6.91264,-1.630728 7.44597,0 7.44597,5.179357 0,3.097358 -2.09225,5.712677 -2.77942,3.456323 -8.47159,3.456323 -2.38968,0 -5.38448,-0.420502 z m 6.96393,-13.015058 -0.86152,7.702371 -0.10256,0.964078 q -0.15384,1.343556 -0.57434,1.958925 -0.4205,0.615369 -1.65124,1.3333 2.24609,0.307685 4.19476,0.307685 1.81534,0 2.79993,-0.502552 0.99485,-0.512808 1.93842,-1.928157 1.32304,-1.969181 1.32304,-4.420401 0,-5.415249 -6.72804,-5.415249 z"
       style="font-size:21.0046px;line-height:1.25;font-family:'Apple Chancery';-inkscape-font-specification:'Apple Chancery';fill:none;stroke:#0000ff;stroke-width:0.264583"
       id="path17282" />
  </g>
</svg>
