<?xml version="1.0" encoding="UTF-8" standalone="no"?>
<!-- Created with Inkscape (http://www.inkscape.org/) -->

<svg
   width="277.59152mm"
   height="190.00002mm"
   viewBox="0 0 277.59152 190.00002"
   version="1.1"
   id="svg5"
   inkscape:version="1.2.1 (9c6d41e, 2022-07-14)"
   sodipodi:docname="signage-toilet.svg"
   xml:space="preserve"
   xmlns:inkscape="http://www.inkscape.org/namespaces/inkscape"
   xmlns:sodipodi="http://sodipodi.sourceforge.net/DTD/sodipodi-0.dtd"
   xmlns="http://www.w3.org/2000/svg"
   xmlns:svg="http://www.w3.org/2000/svg"><sodipodi:namedview
     id="namedview7"
     pagecolor="#ffffff"
     bordercolor="#666666"
     borderopacity="1.0"
     inkscape:showpageshadow="2"
     inkscape:pageopacity="0.0"
     inkscape:pagecheckerboard="0"
     inkscape:deskcolor="#d1d1d1"
     inkscape:document-units="mm"
     showgrid="false"
     inkscape:zoom="0.53591803"
     inkscape:cx="418.90735"
     inkscape:cy="249.10526"
     inkscape:window-width="1280"
     inkscape:window-height="701"
     inkscape:window-x="0"
     inkscape:window-y="25"
     inkscape:window-maximized="0"
     inkscape:current-layer="layer1" /><defs
     id="defs2" /><g
     inkscape:label="Layer 1"
     inkscape:groupmode="layer"
     id="layer1"
     transform="translate(-74.249992,-10.067796)"><path
       id="rect234"
       style="vector-effect:non-scaling-stroke;fill:none;stroke:#ff0000;stroke-width:0.264583;-inkscape-stroke:hairline;stop-color:#000000"
       d="m 74.25,10.067796 h 230.0005 l 47.591,47.500014 -47.591,47.49999 H 74.25 Z"
       sodipodi:nodetypes="cccccc" /><g
       aria-label="TOILETS"
       id="text664"
       style="font-size:35.2778px;line-height:1.25;text-align:center;text-anchor:middle;fill:none;stroke:#3700ff;stroke-width:0.264583;stroke-opacity:1"><path
         d="m 196.42726,47.039512 q -0.38806,0.740834 -1.65806,0.740834 -1.65805,0 -1.94028,0.105833 -1.30528,0.564445 -3.03389,1.270001 -0.10583,2.681113 -0.10583,5.891393 0,6.526393 0.38805,13.370287 0,0.493889 0.35278,1.305278 0.38806,0.776112 0.38806,1.12889 0,0.458611 -0.3175,0.846667 -0.77611,1.058334 -2.32834,1.058334 -1.34055,0 -2.57528,-0.740834 -1.19944,-0.705556 -1.37583,-1.693334 -0.10583,-0.529167 0.52917,-1.199445 0.67027,-0.670278 0.67027,-1.270001 -0.24694,-7.020283 -0.24694,-12.276675 0,-3.175002 0.10583,-5.080003 -0.0353,0 -0.98778,0.352778 -0.635,0.246944 -1.02305,0.246944 -0.56445,0 -1.02306,-0.388056 -1.12889,-0.9525 -1.41111,-1.27 -0.56444,-0.635001 -0.56444,-1.340557 0,-0.246945 0.0705,-0.564445 0.10583,-0.493889 5.15056,-2.010834 5.43278,-1.658057 5.85612,-1.94028 0.38805,-0.141111 0.84666,-0.635 0.49389,-0.493889 1.05834,-0.564445 0.77611,-0.07055 2.04611,1.023056 1.41111,1.234724 1.41111,2.57528 0,0.529167 -0.28222,1.058334 z"
         style="font-family:'Marker Felt';-inkscape-font-specification:'Marker Felt';stroke:#3700ff;stroke-opacity:1"
         id="path2697" /><path
         d="m 214.94809,56.564518 q 0.24694,4.727226 -1.62278,9.771951 -1.86972,5.009448 -3.98639,5.644449 -0.84667,0.282222 -1.65806,0.211667 -0.84667,-0.105834 -1.65806,-0.211667 -7.26722,-0.846668 -8.00806,-15.4164 -0.21166,-3.951113 1.27,-8.466672 1.37584,-4.198058 2.85751,-5.185837 0.35277,-0.246944 0.77611,-0.246944 0.3175,0 0.98778,0.211666 0.67027,0.176389 1.02305,0.176389 0.42334,0 1.51695,-0.176389 1.12889,-0.211666 1.65805,-0.211666 0.49389,0 0.81139,0.141111 5.46806,2.222501 6.03251,13.758342 z m -4.7625,0 q -0.35278,-4.409725 -0.95251,-6.632226 -0.98777,-3.739447 -2.92805,-3.739447 -0.52917,0 -1.12889,0.282222 -0.56445,0.282223 -1.51695,3.633614 -0.98778,3.668891 -0.98778,6.455837 0,3.633614 1.27,7.655283 1.27,3.986392 2.43417,3.986392 1.09361,0 2.43417,-3.598336 1.41111,-3.739447 1.41111,-7.090838 0,-0.493889 -0.0353,-0.952501 z"
         style="font-family:'Marker Felt';-inkscape-font-specification:'Marker Felt';stroke:#3700ff;stroke-opacity:1"
         id="path2699" /><path
         d="m 223.45,71.098973 q -0.3175,0.881945 -1.83444,0.881945 -0.42334,0 -0.91722,-0.07056 -2.89278,-0.458611 -3.38667,-1.728612 -0.10584,-0.246945 -0.10584,-0.493889 0,-0.740834 0.81139,-1.481668 -0.14111,-5.29167 -0.635,-21.590015 0.0353,-0.458611 -0.24694,-1.058334 -0.28223,-0.635 -0.28223,-0.917222 0,-0.635001 0.81139,-1.340557 0.56445,-0.493889 1.58751,-0.493889 1.16416,0 2.46944,0.599722 1.55222,0.740834 1.55222,1.799168 0,0.246945 -0.74083,1.905002 l 0.35278,21.378347 q 0,0.423334 0.3175,1.093612 0.3175,0.635001 0.3175,1.023056 0,0.246945 -0.0706,0.49389 z"
         style="font-family:'Marker Felt';-inkscape-font-specification:'Marker Felt';stroke:#3700ff;stroke-opacity:1"
         id="path2701" /><path
         d="m 240.45384,65.948414 q 0.21167,0.423333 0.21167,0.9525 0,0.881945 -0.56444,1.693335 -0.52917,0.811389 -1.27,1.093612 -0.70556,0.246944 -2.04612,0.246944 -1.34055,0 -1.94028,0.176389 -0.59972,0.176389 -1.37583,1.093612 -0.67028,0.740834 -2.32834,0.987779 -1.02305,0.141111 -2.08139,-0.705557 -1.05833,-0.846667 -1.44639,-2.08139 -0.0705,-0.246944 -0.0705,-0.458611 0,-0.458612 0.49389,-1.023056 0.52917,-0.564445 0.49389,-0.987779 l -1.48167,-21.378348 q 0,-0.141111 -0.38806,-0.635 -0.35277,-0.529167 -0.35277,-0.881945 0,-0.493889 0.52916,-0.952501 0.74084,-0.670278 2.11667,-0.670278 1.16417,0 2.2225,0.493889 1.09361,0.493889 1.37584,1.164168 0.17639,0.388056 0.17639,0.670278 0,0.3175 -0.3175,0.635 -0.3175,0.317501 -0.28223,0.599723 l 1.27,19.473346 2.11667,-0.846667 q 0.67028,-0.3175 1.34056,-0.599722 0.70555,-0.317501 1.16417,-0.317501 1.27,0 2.43416,2.25778 z"
         style="font-family:'Marker Felt';-inkscape-font-specification:'Marker Felt';stroke:#3700ff;stroke-opacity:1"
         id="path2703" /><path
         d="m 254.84712,46.616178 q -0.81139,0.670279 -2.08139,0.670279 -0.52916,0 -1.23472,-0.105834 -1.02306,0.3175 -1.83445,0.635001 -1.97555,0.740833 -2.61055,1.270001 -0.21167,3.668891 0,8.396116 0.21166,-0.141111 1.05833,-0.282222 0.42333,-0.740834 1.44639,-0.740834 1.02306,0 2.36361,0.987778 1.37584,0.987779 1.37584,1.94028 0,0.246944 -0.10584,0.493889 -0.42333,1.058334 -1.30527,1.340556 -0.52917,0.176389 -1.55223,0.105834 -1.02305,-0.105834 -1.30528,0.03528 -0.81139,0.388056 -1.97555,0.917223 0,3.175002 0.21166,4.092225 1.48167,-0.352778 2.46945,-0.846667 0.17639,-0.246945 0.35278,-0.458611 0.35278,-0.388056 1.27,-0.317501 0.98778,0.07056 2.04611,1.12889 1.05833,1.058334 1.05833,2.151946 0,0.952501 -0.81138,1.411112 -0.81139,0.458611 -2.7164,0.3175 l -3.31611,1.658057 q -0.21167,0.105833 -0.91722,0.705556 -0.52917,0.458611 -0.9525,0.458611 -0.14111,0 -0.3175,-0.03528 -1.86973,-0.564445 -3.38667,-2.928058 -0.10583,-0.176389 -0.10583,-0.423334 0,-0.105833 0.38805,-1.411112 -0.38805,-10.26584 -0.14111,-21.872237 -0.24694,-0.352778 -0.24694,-0.705556 0,-1.164167 2.15194,-1.481667 0.45861,-0.07056 1.16417,0.246944 0.45861,0.246945 0.88194,0.458612 l 4.23334,-1.340557 q 0.14111,-0.03528 0.81139,-0.423333 0.45861,-0.282223 1.05833,-0.282223 0.28223,0 0.67028,0.07056 0.77611,0.141111 1.51695,1.234723 0.77611,1.058334 0.77611,2.010835 0,0.599722 -0.38806,0.917222 z"
         style="font-family:'Marker Felt';-inkscape-font-specification:'Marker Felt';stroke:#3700ff;stroke-opacity:1"
         id="path2705" /><path
         d="m 272.06263,47.039512 q -0.38805,0.740834 -1.65805,0.740834 -1.65806,0 -1.94028,0.105833 -1.30528,0.564445 -3.03389,1.270001 -0.10584,2.681113 -0.10584,5.891393 0,6.526393 0.38806,13.370287 0,0.493889 0.35278,1.305278 0.38805,0.776112 0.38805,1.12889 0,0.458611 -0.3175,0.846667 -0.77611,1.058334 -2.32833,1.058334 -1.34056,0 -2.57528,-0.740834 -1.19945,-0.705556 -1.37583,-1.693334 -0.10584,-0.529167 0.52916,-1.199445 0.67028,-0.670278 0.67028,-1.270001 -0.24694,-7.020283 -0.24694,-12.276675 0,-3.175002 0.10583,-5.080003 -0.0353,0 -0.98778,0.352778 -0.635,0.246944 -1.02306,0.246944 -0.56444,0 -1.02305,-0.388056 -1.12889,-0.9525 -1.41111,-1.27 -0.56445,-0.635001 -0.56445,-1.340557 0,-0.246945 0.0706,-0.564445 0.10583,-0.493889 5.15056,-2.010834 5.43278,-1.658057 5.85611,-1.94028 0.38806,-0.141111 0.84667,-0.635 0.49389,-0.493889 1.05833,-0.564445 0.77611,-0.07055 2.04611,1.023056 1.41112,1.234724 1.41112,2.57528 0,0.529167 -0.28223,1.058334 z"
         style="font-family:'Marker Felt';-inkscape-font-specification:'Marker Felt';stroke:#3700ff;stroke-opacity:1"
         id="path2707" /><path
         d="m 288.25507,65.52508 q 0,2.751669 -1.76389,4.833059 -1.72861,2.046112 -4.30389,2.046112 -5.18584,0 -7.62001,-4.938892 -2.64583,-1.728612 -2.64583,-2.928057 0,-0.599723 0.74083,-0.987779 1.44639,-0.776112 2.64584,-0.776112 2.61055,0 3.4925,3.104447 0.42333,0.846667 0.88194,1.693335 0.45861,0.846667 1.23473,0.846667 2.08139,0 2.08139,-2.963336 0,-2.645835 -0.9525,-3.563058 -0.42334,-0.388055 -3.38667,-1.622778 -2.36362,-0.987779 -3.81001,-3.386669 -1.30527,-2.187224 -1.34055,-4.550837 -0.0353,-3.810002 1.905,-6.773338 2.04611,-3.175002 5.08,-3.175002 3.52778,0 5.15056,2.822224 1.05834,1.76389 1.19945,4.374448 0.38805,1.340556 0.38805,2.434168 0,0.705556 -0.17639,1.164167 -0.52916,1.305279 -2.08139,1.305279 -1.16416,0 -2.11666,-0.846667 -1.05834,-0.917223 -1.30528,-2.57528 -0.10584,-0.564444 0.21166,-1.128889 0.35278,-0.564445 0.35278,-0.635001 0,-0.07055 -0.0706,-0.141111 0.0353,-0.176389 0.0353,-0.352778 0,-1.058334 -1.23472,-0.987778 -1.19944,0.07055 -1.86972,1.587501 -0.59973,1.305278 -0.52917,2.998613 0.10583,2.998613 3.95111,4.797781 3.03389,1.411112 4.19806,2.786946 1.65806,1.975557 1.65806,5.538615 z"
         style="font-family:'Marker Felt';-inkscape-font-specification:'Marker Felt';stroke:#3700ff;stroke-opacity:1"
         id="path2709" /></g><rect
       style="vector-effect:non-scaling-stroke;fill:none;stroke:#ffff00;stroke-width:0.264583;stroke-opacity:1;-inkscape-stroke:hairline;stop-color:#000000"
       id="rect716"
       width="57.903198"
       height="57.903198"
       x="93.402603"
       y="28.616199" /><rect
       style="vector-effect:non-scaling-stroke;fill:none;stroke:#ffff00;stroke-width:0.264582;stroke-opacity:1;-inkscape-stroke:hairline;stop-color:#000000"
       id="rect1272"
       width="166.58305"
       height="57.903198"
       x="151.3058"
       y="28.616199" /><path
       id="path2062"
       style="vector-effect:non-scaling-stroke;fill:none;stroke:#ff0000;stroke-width:0.264583;-inkscape-stroke:hairline;stop-color:#000000"
       d="m 121.84099,105.0678 -47.590998,47.50002 47.590998,47.49999 h 230.0005 V 105.0678 h -48.51057"
       sodipodi:nodetypes="cccccc" /><g
       aria-label="TOILETS"
       id="text2066"
       style="font-size:35.2778px;line-height:1.25;text-align:center;text-anchor:middle;fill:none;stroke:#3700ff;stroke-width:0.264583;stroke-opacity:1"><path
         d="m 153.68028,142.03951 q -0.38806,0.74084 -1.65806,0.74084 -1.65805,0 -1.94028,0.10583 -1.30527,0.56444 -3.03389,1.27 -0.10583,2.68111 -0.10583,5.89139 0,6.5264 0.38806,13.37029 0,0.49389 0.35277,1.30528 0.38806,0.77611 0.38806,1.12889 0,0.45861 -0.3175,0.84667 -0.77611,1.05833 -2.32834,1.05833 -1.34055,0 -2.57528,-0.74083 -1.19944,-0.70556 -1.37583,-1.69334 -0.10583,-0.52917 0.52917,-1.19944 0.67028,-0.67028 0.67028,-1.27001 -0.24695,-7.02028 -0.24695,-12.27667 0,-3.175 0.10583,-5.08 -0.0353,0 -0.98777,0.35277 -0.635,0.24695 -1.02306,0.24695 -0.56445,0 -1.02306,-0.38806 -1.12889,-0.9525 -1.41111,-1.27 -0.56444,-0.635 -0.56444,-1.34055 0,-0.24695 0.0705,-0.56445 0.10584,-0.49389 5.15056,-2.01083 5.43278,-1.65806 5.85612,-1.94028 0.38805,-0.14111 0.84666,-0.635 0.49389,-0.49389 1.05834,-0.56445 0.77611,-0.0705 2.04611,1.02306 1.41111,1.23472 1.41111,2.57528 0,0.52917 -0.28222,1.05833 z"
         style="font-family:'Marker Felt';-inkscape-font-specification:'Marker Felt';stroke:#3700ff;stroke-opacity:1"
         id="path2682" /><path
         d="m 172.20111,151.56452 q 0.24694,4.72722 -1.62278,9.77195 -1.86972,5.00945 -3.98639,5.64445 -0.84667,0.28222 -1.65806,0.21166 -0.84666,-0.10583 -1.65805,-0.21166 -7.26723,-0.84667 -8.00807,-15.4164 -0.21166,-3.95112 1.27001,-8.46667 1.37583,-4.19806 2.8575,-5.18584 0.35278,-0.24695 0.77611,-0.24695 0.3175,0 0.98778,0.21167 0.67028,0.17639 1.02305,0.17639 0.42334,0 1.51695,-0.17639 1.12889,-0.21167 1.65806,-0.21167 0.49389,0 0.81139,0.14112 5.46805,2.2225 6.0325,13.75834 z m -4.7625,0 q -0.35278,-4.40973 -0.9525,-6.63223 -0.98778,-3.73945 -2.92806,-3.73945 -0.52917,0 -1.12889,0.28223 -0.56445,0.28222 -1.51695,3.63361 -0.98778,3.66889 -0.98778,6.45584 0,3.63361 1.27001,7.65528 1.27,3.98639 2.43416,3.98639 1.09362,0 2.43417,-3.59833 1.41111,-3.73945 1.41111,-7.09084 0,-0.49389 -0.0353,-0.9525 z"
         style="font-family:'Marker Felt';-inkscape-font-specification:'Marker Felt';stroke:#3700ff;stroke-opacity:1"
         id="path2684" /><path
         d="m 180.70303,166.09897 q -0.31751,0.88195 -1.83445,0.88195 -0.42333,0 -0.91722,-0.0706 -2.89278,-0.45861 -3.38667,-1.72861 -0.10584,-0.24694 -0.10584,-0.49389 0,-0.74083 0.81139,-1.48167 -0.14111,-5.29167 -0.635,-21.59001 0.0353,-0.45861 -0.24694,-1.05834 -0.28222,-0.635 -0.28222,-0.91722 0,-0.635 0.81139,-1.34055 0.56444,-0.49389 1.5875,-0.49389 1.16416,0 2.46944,0.59972 1.55223,0.74083 1.55223,1.79917 0,0.24694 -0.74084,1.905 l 0.35278,21.37835 q 0,0.42333 0.3175,1.09361 0.3175,0.635 0.3175,1.02305 0,0.24695 -0.0705,0.49389 z"
         style="font-family:'Marker Felt';-inkscape-font-specification:'Marker Felt';stroke:#3700ff;stroke-opacity:1"
         id="path2686" /><path
         d="m 197.70687,160.94841 q 0.21166,0.42334 0.21166,0.9525 0,0.88195 -0.56444,1.69334 -0.52917,0.81139 -1.27,1.09361 -0.70556,0.24695 -2.04612,0.24695 -1.34055,0 -1.94028,0.17638 -0.59972,0.17639 -1.37583,1.09362 -0.67028,0.74083 -2.32833,0.98777 -1.02306,0.14112 -2.08139,-0.70555 -1.05834,-0.84667 -1.44639,-2.08139 -0.0706,-0.24695 -0.0706,-0.45861 0,-0.45861 0.49389,-1.02306 0.52917,-0.56444 0.49389,-0.98778 l -1.48167,-21.37835 q 0,-0.14111 -0.38806,-0.635 -0.35277,-0.52916 -0.35277,-0.88194 0,-0.49389 0.52916,-0.9525 0.74084,-0.67028 2.11667,-0.67028 1.16417,0 2.2225,0.49389 1.09362,0.49389 1.37584,1.16417 0.17639,0.38805 0.17639,0.67027 0,0.31751 -0.3175,0.63501 -0.3175,0.3175 -0.28223,0.59972 l 1.27001,19.47334 2.11666,-0.84666 q 0.67028,-0.3175 1.34056,-0.59973 0.70556,-0.3175 1.16417,-0.3175 1.27,0 2.43417,2.25778 z"
         style="font-family:'Marker Felt';-inkscape-font-specification:'Marker Felt';stroke:#3700ff;stroke-opacity:1"
         id="path2688" /><path
         d="m 212.10014,141.61618 q -0.81139,0.67028 -2.08139,0.67028 -0.52916,0 -1.23472,-0.10584 -1.02306,0.3175 -1.83445,0.635 -1.97555,0.74084 -2.61055,1.27 -0.21167,3.6689 0,8.39612 0.21166,-0.14111 1.05833,-0.28222 0.42334,-0.74083 1.44639,-0.74083 1.02306,0 2.36361,0.98777 1.37584,0.98778 1.37584,1.94028 0,0.24695 -0.10583,0.49389 -0.42334,1.05834 -1.30528,1.34056 -0.52917,0.17639 -1.55223,0.10583 -1.02305,-0.10583 -1.30528,0.0353 -0.81138,0.38806 -1.97555,0.91722 0,3.175 0.21166,4.09223 1.48167,-0.35278 2.46945,-0.84667 0.17639,-0.24694 0.35278,-0.45861 0.35278,-0.38806 1.27,-0.3175 0.98778,0.0705 2.04611,1.12889 1.05834,1.05833 1.05834,2.15194 0,0.9525 -0.81139,1.41112 -0.81139,0.45861 -2.71639,0.3175 l -3.31612,1.65805 q -0.21166,0.10584 -0.91722,0.70556 -0.52917,0.45861 -0.9525,0.45861 -0.14111,0 -0.3175,-0.0353 -1.86972,-0.56444 -3.38667,-2.92806 -0.10583,-0.17638 -0.10583,-0.42333 0,-0.10583 0.38805,-1.41111 -0.38805,-10.26584 -0.14111,-21.87224 -0.24694,-0.35278 -0.24694,-0.70555 0,-1.16417 2.15194,-1.48167 0.45861,-0.0706 1.16417,0.24694 0.45861,0.24695 0.88194,0.45861 l 4.23334,-1.34055 q 0.14111,-0.0353 0.81139,-0.42334 0.45861,-0.28222 1.05833,-0.28222 0.28223,0 0.67028,0.0706 0.77611,0.14111 1.51695,1.23472 0.77611,1.05833 0.77611,2.01084 0,0.59972 -0.38806,0.91722 z"
         style="font-family:'Marker Felt';-inkscape-font-specification:'Marker Felt';stroke:#3700ff;stroke-opacity:1"
         id="path2690" /><path
         d="m 229.31566,142.03951 q -0.38806,0.74084 -1.65806,0.74084 -1.65806,0 -1.94028,0.10583 -1.30528,0.56444 -3.03389,1.27 -0.10583,2.68111 -0.10583,5.89139 0,6.5264 0.38805,13.37029 0,0.49389 0.35278,1.30528 0.38806,0.77611 0.38806,1.12889 0,0.45861 -0.3175,0.84667 -0.77612,1.05833 -2.32834,1.05833 -1.34056,0 -2.57528,-0.74083 -1.19944,-0.70556 -1.37583,-1.69334 -0.10584,-0.52917 0.52916,-1.19944 0.67028,-0.67028 0.67028,-1.27001 -0.24694,-7.02028 -0.24694,-12.27667 0,-3.175 0.10583,-5.08 -0.0353,0 -0.98778,0.35277 -0.635,0.24695 -1.02305,0.24695 -0.56445,0 -1.02306,-0.38806 -1.12889,-0.9525 -1.41111,-1.27 -0.56445,-0.635 -0.56445,-1.34055 0,-0.24695 0.0706,-0.56445 0.10583,-0.49389 5.15056,-2.01083 5.43278,-1.65806 5.85611,-1.94028 0.38806,-0.14111 0.84667,-0.635 0.49389,-0.49389 1.05833,-0.56445 0.77612,-0.0705 2.04612,1.02306 1.41111,1.23472 1.41111,2.57528 0,0.52917 -0.28222,1.05833 z"
         style="font-family:'Marker Felt';-inkscape-font-specification:'Marker Felt';stroke:#3700ff;stroke-opacity:1"
         id="path2692" /><path
         d="m 245.50809,160.52508 q 0,2.75167 -1.76389,4.83306 -1.72861,2.04611 -4.30389,2.04611 -5.18584,0 -7.62001,-4.93889 -2.64583,-1.72861 -2.64583,-2.92806 0,-0.59972 0.74083,-0.98778 1.44639,-0.77611 2.64584,-0.77611 2.61055,0 3.4925,3.10445 0.42333,0.84667 0.88194,1.69333 0.45862,0.84667 1.23473,0.84667 2.08139,0 2.08139,-2.96334 0,-2.64583 -0.9525,-3.56305 -0.42334,-0.38806 -3.38667,-1.62278 -2.36361,-0.98778 -3.81,-3.38667 -1.30528,-2.18723 -1.34056,-4.55084 -0.0353,-3.81 1.905,-6.77334 2.04611,-3.175 5.08,-3.175 3.52778,0 5.15056,2.82223 1.05834,1.76389 1.19945,4.37444 0.38805,1.34056 0.38805,2.43417 0,0.70556 -0.17639,1.16417 -0.52916,1.30528 -2.08139,1.30528 -1.16416,0 -2.11666,-0.84667 -1.05834,-0.91722 -1.30528,-2.57528 -0.10584,-0.56444 0.21166,-1.12889 0.35278,-0.56444 0.35278,-0.635 0,-0.0705 -0.0705,-0.14111 0.0353,-0.17639 0.0353,-0.35278 0,-1.05833 -1.23472,-0.98778 -1.19944,0.0706 -1.86972,1.5875 -0.59972,1.30528 -0.52917,2.99862 0.10583,2.99861 3.95111,4.79778 3.0339,1.41111 4.19806,2.78695 1.65806,1.97555 1.65806,5.53861 z"
         style="font-family:'Marker Felt';-inkscape-font-specification:'Marker Felt';stroke:#3700ff;stroke-opacity:1"
         id="path2694" /></g><rect
       style="vector-effect:non-scaling-stroke;fill:none;stroke:#ffff00;stroke-width:0.264583;stroke-opacity:1;-inkscape-stroke:hairline;stop-color:#000000"
       id="rect2068"
       width="57.903198"
       height="57.903198"
       x="275.14191"
       y="123.61621" /><rect
       style="vector-effect:non-scaling-stroke;fill:none;stroke:#ffff00;stroke-width:0.264582;stroke-opacity:1;-inkscape-stroke:hairline;stop-color:#000000"
       id="rect2070"
       width="166.58305"
       height="57.903198"
       x="108.55883"
       y="123.61621" /><path
       style="vector-effect:non-scaling-stroke;fill:none;stroke:#3700ff;stroke-width:0.264583;stroke-dasharray:none;stroke-opacity:1;-inkscape-stroke:hairline"
       d="m 109.3294,80.985805 c -0.0196,-0.126521 -0.0541,-0.707812 -0.0767,-1.29176 -0.0662,-1.710648 -0.32292,-4.786806 -0.53458,-6.405709 -0.1547,-1.183243 -0.53872,-4.591832 -0.60724,-5.389954 -0.0256,-0.297789 -0.069,-0.577754 -0.0964,-0.622147 -0.0507,-0.08191 -3.15555,0.03081 -5.88617,0.213693 -0.70899,0.04748 -1.30919,0.05401 -1.52404,0.01659 l -0.35443,-0.06174 0.005,-1.024278 0.005,-1.024277 0.29509,-0.73644 c 0.1623,-0.405044 0.34258,-0.788844 0.40062,-0.852891 0.058,-0.06405 0.15042,-0.243446 0.20526,-0.398663 0.0549,-0.155218 0.31365,-0.726967 0.57511,-1.270552 0.26146,-0.543581 0.51847,-1.131665 0.57113,-1.306848 0.15116,-0.502868 0.68735,-2.036383 1.23741,-3.539066 0.27788,-0.759131 0.58322,-1.594537 0.67854,-1.856458 0.45899,-1.261305 0.81025,-2.732293 1.05252,-4.407687 0.19381,-1.340325 0.21904,-1.663361 0.12989,-1.663361 -0.14104,0 -2.23581,2.243082 -3.28022,3.512458 -0.0601,0.07303 -0.49149,0.562774 -0.95868,1.088325 -0.46719,0.525551 -0.91245,1.039756 -0.98948,1.142676 -0.077,0.102921 -0.380735,0.469214 -0.674915,0.813986 -0.294178,0.344772 -0.664328,0.802041 -0.822553,1.016153 -0.584741,0.791281 -1.525125,1.779404 -1.823257,1.915812 -0.160992,0.07366 -0.360232,0.18343 -0.442754,0.243927 -0.143943,0.105529 -0.167519,0.08942 -0.580002,-0.396272 -0.763856,-0.899426 -0.70507,-1.290205 0.433206,-2.879689 0.403433,-0.563351 0.631923,-0.855742 0.975612,-1.248459 0.139403,-0.159289 0.301167,-0.36024 0.359476,-0.446557 0.132133,-0.195603 1.379948,-1.672688 1.903503,-2.253246 1.801584,-1.997742 2.275924,-2.513413 3.083524,-3.352265 1.64046,-1.703937 2.12217,-2.142693 2.5854,-2.354895 0.26848,-0.122982 0.35635,-0.201186 0.35635,-0.317119 0,-0.08464 0.0194,-0.204267 0.043,-0.265845 0.0358,-0.09306 -0.0179,-0.111961 -0.31792,-0.111961 -0.48494,0 -1.51784,-0.30692 -1.93721,-0.575634 -0.80241,-0.514148 -1.41863,-1.48404 -1.72542,-2.715697 -0.18339,-0.736238 -0.19171,-0.840203 -0.15296,-1.911095 0.0796,-2.199854 0.65996,-3.81155 1.88918,-5.246359 0.35204,-0.41092 1.0118,-0.919395 1.49608,-1.153031 0.29119,-0.140479 1.04759,-0.295927 1.91027,-0.392579 0.51795,-0.05803 1.77865,0.124032 2.34703,0.33894 1.9907,0.752689 2.84658,1.606751 3.45219,3.444823 0.32445,0.984736 0.36443,1.201551 0.4373,2.371174 0.0751,1.205313 -0.006,1.81473 -0.35115,2.648028 -0.27304,0.658638 -0.42523,0.884732 -0.9642,1.432466 -0.52172,0.530206 -1.27707,1.034674 -1.96137,1.309921 -0.24385,0.09808 -0.47279,0.206527 -0.50878,0.240987 -0.11612,0.111218 0.0838,0.40885 0.37399,0.556652 0.15333,0.07811 0.52941,0.328263 0.83574,0.555896 0.30632,0.22763 0.74374,0.506375 0.97204,0.619429 0.2283,0.113056 0.54729,0.321377 0.70886,0.462936 0.16157,0.141561 0.39195,0.307821 0.51197,0.369469 0.12001,0.06165 0.47089,0.297367 0.77974,0.523823 0.30884,0.226455 0.76888,0.53734 1.02229,0.690854 1.07543,0.651472 4.34776,3.329175 4.66826,3.81998 0.0529,0.08097 0.29212,0.290556 0.53164,0.465739 0.5727,0.418856 0.79803,0.847969 0.6793,1.293614 -0.0941,0.353051 -0.37416,0.74626 -0.58795,0.825377 -0.23645,0.0875 -0.60699,-0.07998 -1.4295,-0.646123 -0.41337,-0.284526 -0.87759,-0.601114 -1.0316,-0.703529 -0.154,-0.102414 -0.34583,-0.269767 -0.42629,-0.371893 -0.0804,-0.102128 -0.29512,-0.287947 -0.47705,-0.412933 -0.18193,-0.124988 -0.51069,-0.387631 -0.73057,-0.583653 -0.21988,-0.196023 -0.69861,-0.541223 -1.06384,-0.767106 -0.9712,-0.600672 -2.75774,-1.940447 -3.03863,-2.278752 -0.14326,-0.172556 -0.82619,-0.672661 -0.91857,-0.672661 -0.0406,0 -0.0739,-0.03185 -0.0739,-0.07078 0,-0.03893 -0.0319,-0.07078 -0.0709,-0.07078 -0.039,0 -0.0709,0.04821 -0.0709,0.107134 0,0.05892 -0.0371,0.1664 -0.0824,0.238836 -0.12079,0.193123 0.16457,2.8785 0.44048,4.145095 0.18436,0.846353 0.42918,1.340577 1.11946,2.259869 0.31796,0.423452 0.57811,0.790053 0.57811,0.814665 0,0.02461 0.15404,0.210308 0.3423,0.412652 0.18826,0.202344 0.40128,0.504629 0.47336,0.671743 0.0721,0.167114 0.24843,0.447502 0.39189,0.623083 0.14346,0.175584 0.32983,0.454284 0.41415,0.619338 0.0843,0.165052 0.1766,0.300313 0.20505,0.300578 0.0284,2.67e-4 0.13095,0.11971 0.22778,0.26543 0.0968,0.145721 0.33806,0.47198 0.53607,0.725025 0.40576,0.518542 0.77934,1.048683 1.99513,2.831251 0.73929,1.083927 1.54707,2.719405 1.7169,3.476101 0.12088,0.538579 0.0779,0.590494 -0.76004,0.917623 -0.81189,0.316965 -1.11864,0.335499 -1.58313,0.09566 -0.23458,-0.121128 -0.49633,-0.113589 -1.21634,0.03504 -0.31393,0.0648 -0.47024,0.06548 -0.66031,0.0028 -0.14229,-0.04689 -0.36098,-0.06105 -0.51022,-0.03303 -0.14366,0.02697 -0.73263,0.0083 -1.30882,-0.04149 -1.29261,-0.111703 -1.29617,-0.109862 -1.2828,0.664268 0.005,0.280557 0.059,0.764912 0.1203,1.076351 0.0613,0.311438 0.14595,1.203283 0.18806,1.981878 0.0421,0.778596 0.10733,1.734142 0.14494,2.12344 0.14574,1.508261 0.21782,3.953209 0.14829,5.029393 -0.072,1.114603 -0.16663,1.492432 -0.52624,2.10146 -0.33234,0.562843 -0.50067,0.665362 -1.29767,0.79034 -0.39452,0.06187 -0.73599,0.112486 -0.75881,0.112486 -0.0228,0 -0.0575,-0.103516 -0.0771,-0.23004 z m -3.76319,-16.153049 c 0,1.842581 5.70771,-0.272843 7.3721,-0.221209 0.81873,0.02539 1.59093,0.02547 1.71599,2.11e-4 l 0.22738,-0.04599 -0.18318,-0.363351 c -0.37797,-0.749738 -2.2932,-3.524669 -2.88881,-4.185542 -0.10526,-0.116791 -0.25243,-0.32894 -0.32705,-0.471448 -0.0746,-0.142505 -0.23482,-0.365467 -0.356,-0.495468 -0.12118,-0.130002 -0.37093,-0.459329 -0.55499,-0.731836 -0.18405,-0.272509 -0.44189,-0.654728 -0.57296,-0.849376 -0.13107,-0.19465 -0.40845,-0.579065 -0.61641,-0.85426 -0.20797,-0.275225 -0.37812,-0.525752 -0.37812,-0.55676 0,-0.03101 -0.14447,-0.273381 -0.32106,-0.538609 -0.44247,-0.664597 -0.59023,-1.143276 -0.70614,-2.287597 -0.0547,-0.539692 -0.11549,-0.997333 -0.13517,-1.016985 -0.0425,-0.04239 -0.054,0.0094 -0.2888,1.29043 -0.30233,1.649723 -0.55233,2.583499 -0.95399,3.563259 -0.35613,0.868688 -0.74518,1.850462 -0.85992,2.170028 -0.0699,0.194647 -0.19502,0.52909 -0.27806,0.743202 -0.083,0.214115 -0.25679,0.675961 -0.38614,1.02633 -0.39053,1.057902 -0.96216,2.457644 -1.14177,2.795861 -0.17326,0.326251 -0.45792,1.047268 -0.45799,1.160028 -2e-5,0.03485 0.1976,0.0426 0.443,0.01736 0.24367,-0.02504 1.64809,-0.812495 1.64809,-0.148281 z m 1.9895,-21.207715 c 1.01436,-0.185002 1.99226,-0.945637 2.47322,-1.923723 0.24827,-0.504895 0.25253,-0.528675 0.29454,-1.644803 0.0518,-1.377288 -0.0474,-1.963977 -0.44252,-2.616511 -0.3384,-0.558851 -0.90223,-1.140321 -1.30657,-1.347463 -0.67899,-0.347846 -1.79907,-0.39682 -2.45449,-0.10732 -0.50962,0.225096 -1.19241,1.014961 -1.54808,1.790836 -0.23392,0.510287 -0.38771,1.554133 -0.38901,2.64035 -0.002,2.087092 0.47795,2.900675 1.87961,3.18285 0.55821,0.112374 0.97872,0.119635 1.4933,0.02578 z m 26.16499,36.602086 c -0.5318,-0.102731 -0.48571,0.441383 -0.56783,-6.70371 -0.0834,-7.255558 -0.097,-10.743213 -0.0524,-13.471183 0.0178,-1.090804 -0.003,-2.282948 -0.0506,-2.848905 -0.12592,-1.507726 -0.12352,-1.505731 -1.72289,-1.433083 l -1.1406,0.05181 0.0398,0.221688 c 0.0762,0.424509 0.18088,1.785921 0.21836,2.840599 0.0207,0.583945 0.0921,1.7088 0.15863,2.499674 0.13178,1.56737 0.11687,1.676425 -0.2292,1.676425 -0.18915,0 -0.20021,-0.01766 -0.21388,-0.341605 -0.0232,-0.550376 -0.13722,-0.562736 -0.38573,-0.04181 -0.11918,0.249807 -0.28903,0.571939 -0.37745,0.715843 -0.17975,0.292536 -0.73458,0.76294 -0.90111,0.763997 -0.33475,0.0021 -0.7069,-0.576064 -0.7069,-1.098258 0,-0.179291 -0.0354,-0.392136 -0.0788,-0.47298 -0.0485,-0.09053 -0.10329,-0.992737 -0.14258,-2.348828 -0.0351,-1.211006 -0.0951,-2.373616 -0.13335,-2.583574 -0.0382,-0.209957 -0.0876,-0.831064 -0.10974,-1.380234 -0.0221,-0.549173 -0.0873,-1.380713 -0.14477,-1.84787 -0.0612,-0.497062 -0.0971,-1.289767 -0.0867,-1.911095 0.01,-0.583945 -0.0242,-1.762453 -0.0755,-2.618907 -0.15898,-2.650733 -0.17041,-3.217554 -0.0656,-3.254515 0.18107,-0.06386 2.38815,-0.181113 4.25731,-0.226166 1.29805,-0.03129 1.89619,-0.07014 1.89619,-0.123172 0,-0.0426 -0.18065,-0.316198 -0.40144,-0.607979 -1.16786,-1.543347 -1.8996,-2.836786 -2.29726,-4.06067 -0.58023,-1.785797 -0.49259,-3.825986 0.28924,-6.733135 0.12564,-0.467156 0.2574,-0.976781 0.2928,-1.132501 0.0354,-0.155718 0.0961,-0.362857 0.13491,-0.460308 l 0.0705,-0.177184 1.50497,-0.0081 c 0.87991,-0.0047 1.99074,-0.05947 2.67458,-0.131859 1.33672,-0.141493 2.68991,-0.114581 3.36139,0.06685 1.5665,0.42326 2.92446,1.546138 3.82286,3.16107 0.36176,0.6503 0.80002,1.913091 0.89125,2.568028 0.19765,1.418985 0.0531,2.218819 -0.7049,3.899904 -0.30904,0.685396 -1.39857,2.074245 -2.32239,2.960407 -0.39482,0.378717 -0.43342,0.43926 -0.3397,0.532841 0.12849,0.128303 1.73627,0.230442 2.87625,0.182722 0.40936,-0.01715 1.17492,-0.04663 1.70125,-0.06555 0.52633,-0.01891 1.5197,-0.05556 2.20751,-0.08144 l 1.25055,-0.04705 0.17653,0.176261 c 0.3312,0.330719 0.35234,0.625756 0.46823,6.534313 0.0428,2.180063 0.11151,4.892044 0.15276,6.026622 0.0655,1.802405 0.061,2.123247 -0.036,2.541065 -0.16542,0.712232 -0.34548,0.985158 -0.7746,1.174121 -0.71853,0.316399 -1.43632,0.161753 -1.711,-0.368629 -0.21326,-0.411788 -0.31754,-1.538317 -0.36402,-3.93219 l -0.0455,-2.344957 -0.46882,-0.07731 c -0.81245,-0.133974 -1.45575,-0.172245 -2.01527,-0.119895 l -0.54155,0.05067 v 0.375761 c 0,0.206665 0.0308,0.689685 0.0686,1.073376 0.0377,0.383688 0.1181,1.923902 0.17866,3.422698 0.0606,1.498794 0.12509,2.804708 0.14339,2.902032 0.0183,0.09732 0.0656,1.1325 0.10517,2.300393 0.0395,1.167891 0.10273,2.282697 0.14044,2.477345 0.0377,0.19465 0.10104,0.959088 0.14075,1.698751 0.10197,1.89967 0.31741,3.964656 0.58338,5.591723 0.32131,1.965555 0.13296,3.489164 -0.48096,3.890829 -0.49704,0.325197 -0.97416,0.535053 -1.11634,0.491014 -0.34364,-0.106433 -0.54096,-0.31921 -0.65304,-0.704206 -0.0614,-0.211028 -0.13688,-0.399226 -0.16766,-0.418214 -0.046,-0.0284 -0.19566,-0.415253 -0.48049,-1.242154 -0.0598,-0.173495 -0.15242,0.127192 -0.15814,0.513165 -0.004,0.30234 0.0111,0.336427 0.15451,0.338364 0.14342,0.0019 0.14687,0.0095 0.0343,0.07496 -0.0689,0.04005 -0.21538,0.271321 -0.32555,0.51394 -0.50806,1.118841 -1.98989,1.552223 -2.57554,0.753251 -0.0965,-0.131593 -0.14831,-0.396987 -0.20055,-1.02633 -0.0388,-0.466862 -0.11789,-1.326612 -0.17586,-1.91056 -0.0643,-0.648148 -0.11821,-2.164579 -0.13827,-3.892972 -0.0181,-1.557188 -0.0634,-3.117915 -0.10067,-3.468283 -0.0373,-0.350368 -0.0887,-1.81554 -0.11412,-3.25594 -0.0255,-1.440399 -0.0768,-2.95335 -0.11407,-3.362113 -0.15779,-1.730979 -0.15903,-1.802809 -0.0373,-2.168904 0.0759,-0.228141 0.22273,-0.451646 0.41719,-0.634996 0.43857,-0.413516 0.49369,-0.446122 0.87473,-0.517515 0.43824,-0.08211 0.55626,0.01049 0.70824,0.555709 0.0605,0.216993 0.24317,0.744901 0.40595,1.173128 l 0.29596,0.778593 0.0633,-0.515407 c 0.0431,-0.350943 0.0257,-1.18663 -0.0543,-2.618908 -0.0646,-1.156927 -0.11702,-2.449139 -0.11642,-2.871585 l 0.001,-0.768082 -0.47848,0.04114 c -0.26316,0.02263 -1.32379,0.111275 -2.35695,0.196994 -1.03316,0.08572 -1.89156,0.165793 -1.90757,0.177949 -0.016,0.01215 0.0198,0.07804 0.0795,0.1464 0.21135,0.241919 0.27231,0.446767 0.33811,1.136313 0.0366,0.383471 0.0703,3.529655 0.0749,6.991518 0.007,5.489565 0.0255,6.503123 0.14194,7.927664 0.0885,1.082808 0.13665,2.383086 0.14277,3.857581 0.009,2.144542 0.004,2.23689 -0.1461,2.578119 -0.57818,1.317482 -0.7873,1.573344 -1.44098,1.763096 -0.41371,0.120092 -0.56315,0.126735 -0.99118,0.04405 z m 14.18238,-17.892196 c 0.0201,-0.06108 -0.0605,-0.08848 -0.26036,-0.08848 -0.2782,0 -0.38564,0.08934 -0.20084,0.167007 0.14946,0.06282 0.43045,0.01498 0.4612,-0.07853 z m -10.1548,-9.550638 c 1.02325,-0.06872 2.94412,-0.122867 4.81992,-0.135868 1.71527,-0.01188 3.18667,-0.03866 3.26977,-0.05949 0.14531,-0.03642 0.15275,-0.08755 0.19375,-1.330456 0.0234,-0.710924 0.0626,-1.411103 0.0871,-1.555957 0.0387,-0.22915 0.0165,-0.291228 -0.17027,-0.477775 l -0.21472,-0.214401 -2.1143,-0.0051 c -1.16286,-0.0028 -2.32164,-0.0179 -2.57506,-0.03354 -1.92015,-0.118592 -6.06368,-0.169677 -8.46536,-0.104373 -1.4785,0.0402 -2.70169,0.08658 -2.71819,0.103054 -0.0165,0.01648 0.002,0.830139 0.0419,1.80813 0.0576,1.424569 0.0945,1.812631 0.18566,1.951474 l 0.11373,0.173307 2.92239,-0.0024 c 1.91456,-0.0016 3.50911,-0.04179 4.62366,-0.116642 z m -0.12016,-8.240272 c 0.18304,-0.08177 0.5242,-0.295289 0.75813,-0.47449 0.44184,-0.338483 1.45315,-1.339761 1.45315,-1.438738 0,-0.03114 0.0906,-0.161242 0.20145,-0.289117 0.33757,-0.389615 0.76678,-1.194644 0.93051,-1.745305 0.38389,-1.29108 0.0296,-2.933302 -0.86813,-4.023556 -0.71016,-0.862487 -1.36668,-1.149416 -2.65254,-1.159281 -0.43658,-0.0034 -0.83104,0.0169 -0.87656,0.04499 -0.0455,0.0281 -0.84203,0.04575 -1.77002,0.03922 -0.95295,-0.0067 -1.70461,0.01621 -1.72716,0.05263 -0.0219,0.03547 -0.10673,0.538308 -0.18839,1.11742 -0.22927,1.625882 -0.13705,2.782351 0.32101,4.025747 0.51088,1.386721 2.00924,3.106854 3.31401,3.804495 0.43676,0.233526 0.66355,0.242967 1.10454,0.04598 z m -0.62414,-11.459465 c 0.0826,-0.05328 0.0618,-0.06886 -0.0928,-0.0697 -0.11492,-6.16e-4 -0.1806,0.02885 -0.15531,0.0697 0.0544,0.08788 0.1119,0.08788 0.2481,0 z"
       id="path6548"
       sodipodi:nodetypes="csssssscccssssssssssssssssssssssssssssssssssssssssssssssssssssssssssssssssssssscssssssssssssssssssccssccsssssssssssssssssssssssssssscsscsscscsssssssssssssssssssssssscssssssssssscssssssscsscsssssssssssssscsssssssssssssscssscsssssssscsccsssssssssscsssscscsssssssssssssssssssss" /><path
       style="vector-effect:non-scaling-stroke;fill:none;stroke:#3700ff;stroke-width:0.264583;stroke-dasharray:none;stroke-opacity:1;-inkscape-stroke:hairline"
       d="m 291.1018,177.1737 c -0.0196,-0.12652 -0.0541,-0.70781 -0.0767,-1.29176 -0.0662,-1.71065 -0.32292,-4.7868 -0.53458,-6.40571 -0.1547,-1.18324 -0.53872,-4.59183 -0.60724,-5.38995 -0.0256,-0.29779 -0.069,-0.57775 -0.0964,-0.62215 -0.0507,-0.0819 -3.15555,0.0308 -5.88617,0.2137 -0.70899,0.0475 -1.30919,0.054 -1.52404,0.0166 l -0.35443,-0.0617 0.005,-1.02428 0.005,-1.02428 0.29509,-0.73644 c 0.1623,-0.40504 0.34258,-0.78884 0.40062,-0.85289 0.058,-0.0641 0.15042,-0.24345 0.20526,-0.39866 0.0549,-0.15522 0.31365,-0.72697 0.57511,-1.27056 0.26146,-0.54358 0.51847,-1.13166 0.57113,-1.30684 0.15116,-0.50287 0.68735,-2.03639 1.23741,-3.53907 0.27788,-0.75913 0.58322,-1.59454 0.67854,-1.85646 0.45899,-1.2613 0.81025,-2.73229 1.05252,-4.40768 0.19381,-1.34033 0.21904,-1.66337 0.12989,-1.66337 -0.14104,0 -2.23581,2.24309 -3.28022,3.51246 -0.0601,0.073 -0.49149,0.56278 -0.95868,1.08833 -0.46719,0.52555 -0.91245,1.03975 -0.98948,1.14267 -0.077,0.10292 -0.38073,0.46922 -0.67491,0.81399 -0.29418,0.34477 -0.66433,0.80204 -0.82255,1.01615 -0.58474,0.79128 -1.52513,1.77941 -1.82326,1.91581 -0.16099,0.0737 -0.36023,0.18343 -0.44275,0.24393 -0.14395,0.10553 -0.16752,0.0894 -0.58001,-0.39627 -0.76385,-0.89943 -0.70507,-1.29021 0.43321,-2.87969 0.40343,-0.56335 0.63192,-0.85574 0.97561,-1.24846 0.1394,-0.15929 0.30117,-0.36024 0.35948,-0.44656 0.13213,-0.1956 1.37995,-1.67268 1.9035,-2.25324 1.80158,-1.99774 2.27592,-2.51341 3.08352,-3.35227 1.64046,-1.70393 2.12217,-2.14269 2.5854,-2.35489 0.26848,-0.12298 0.35635,-0.20119 0.35635,-0.31712 0,-0.0846 0.0194,-0.20427 0.043,-0.26585 0.0358,-0.0931 -0.0179,-0.11196 -0.31792,-0.11196 -0.48494,0 -1.51784,-0.30692 -1.93721,-0.57563 -0.80241,-0.51415 -1.41863,-1.48404 -1.72542,-2.7157 -0.18339,-0.73624 -0.19171,-0.8402 -0.15296,-1.91109 0.0796,-2.19986 0.65996,-3.81155 1.88918,-5.24636 0.35204,-0.41092 1.0118,-0.9194 1.49608,-1.15303 0.29119,-0.14048 1.04759,-0.29593 1.91027,-0.39258 0.51795,-0.058 1.77865,0.12403 2.34703,0.33894 1.9907,0.75269 2.84658,1.60675 3.45219,3.44482 0.32445,0.98474 0.36443,1.20155 0.4373,2.37118 0.0751,1.20531 -0.006,1.81473 -0.35115,2.64802 -0.27304,0.65864 -0.42523,0.88474 -0.9642,1.43247 -0.52172,0.53021 -1.27707,1.03467 -1.96137,1.30992 -0.24385,0.0981 -0.47279,0.20653 -0.50878,0.24099 -0.11612,0.11122 0.0838,0.40885 0.37399,0.55665 0.15333,0.0781 0.52941,0.32826 0.83574,0.5559 0.30632,0.22763 0.74374,0.50637 0.97204,0.61942 0.2283,0.11306 0.54729,0.32138 0.70886,0.46294 0.16157,0.14156 0.39195,0.30782 0.51197,0.36947 0.12001,0.0616 0.47089,0.29737 0.77974,0.52382 0.30884,0.22646 0.76888,0.53734 1.02229,0.69086 1.07543,0.65147 4.34776,3.32917 4.66826,3.81998 0.0529,0.081 0.29212,0.29055 0.53164,0.46574 0.5727,0.41885 0.79803,0.84796 0.6793,1.29361 -0.0941,0.35305 -0.37416,0.74626 -0.58795,0.82538 -0.23645,0.0875 -0.60699,-0.08 -1.4295,-0.64613 -0.41337,-0.28452 -0.87759,-0.60111 -1.0316,-0.70353 -0.154,-0.10241 -0.34583,-0.26976 -0.42629,-0.37189 -0.0804,-0.10213 -0.29512,-0.28795 -0.47705,-0.41293 -0.18193,-0.12499 -0.51069,-0.38763 -0.73057,-0.58365 -0.21988,-0.19603 -0.69861,-0.54123 -1.06384,-0.76711 -0.9712,-0.60067 -2.75774,-1.94045 -3.03863,-2.27875 -0.14326,-0.17256 -0.82619,-0.67266 -0.91857,-0.67266 -0.0406,0 -0.0739,-0.0318 -0.0739,-0.0708 0,-0.0389 -0.0319,-0.0708 -0.0709,-0.0708 -0.039,0 -0.0709,0.0482 -0.0709,0.10713 0,0.0589 -0.0371,0.1664 -0.0824,0.23884 -0.12079,0.19312 0.16457,2.8785 0.44048,4.14509 0.18436,0.84635 0.42918,1.34058 1.11946,2.25987 0.31796,0.42345 0.57811,0.79005 0.57811,0.81467 0,0.0246 0.15404,0.2103 0.3423,0.41265 0.18826,0.20234 0.40128,0.50463 0.47336,0.67174 0.0721,0.16711 0.24843,0.4475 0.39189,0.62308 0.14346,0.17559 0.32983,0.45429 0.41415,0.61934 0.0843,0.16505 0.1766,0.30031 0.20505,0.30058 0.0284,2.7e-4 0.13095,0.11971 0.22778,0.26543 0.0968,0.14572 0.33806,0.47198 0.53607,0.72502 0.40576,0.51855 0.77934,1.04869 1.99513,2.83126 0.73929,1.08392 1.54707,2.7194 1.7169,3.4761 0.12088,0.53858 0.0779,0.59049 -0.76004,0.91762 -0.81189,0.31696 -1.11864,0.3355 -1.58313,0.0957 -0.23458,-0.12113 -0.49633,-0.11359 -1.21634,0.035 -0.31393,0.0648 -0.47024,0.0655 -0.66031,0.003 -0.14229,-0.0469 -0.36098,-0.061 -0.51022,-0.033 -0.14366,0.027 -0.73263,0.008 -1.30882,-0.0415 -1.29261,-0.1117 -1.29617,-0.10986 -1.2828,0.66427 0.005,0.28055 0.059,0.76491 0.1203,1.07635 0.0613,0.31144 0.14595,1.20328 0.18806,1.98188 0.0421,0.77859 0.10733,1.73414 0.14494,2.12344 0.14574,1.50826 0.21782,3.95321 0.14829,5.02939 -0.072,1.1146 -0.16663,1.49243 -0.52624,2.10146 -0.33234,0.56284 -0.50067,0.66536 -1.29767,0.79034 -0.39452,0.0619 -0.73599,0.11249 -0.75881,0.11249 -0.0228,0 -0.0575,-0.10352 -0.0771,-0.23004 z m -3.76319,-16.15305 c 0,1.84258 5.70771,-0.27284 7.3721,-0.22121 0.81873,0.0254 1.59093,0.0255 1.71599,2.2e-4 l 0.22738,-0.046 -0.18318,-0.36336 c -0.37797,-0.74973 -2.2932,-3.52466 -2.88881,-4.18554 -0.10526,-0.11679 -0.25243,-0.32894 -0.32705,-0.47145 -0.0746,-0.1425 -0.23482,-0.36546 -0.356,-0.49546 -0.12118,-0.13001 -0.37093,-0.45933 -0.55499,-0.73184 -0.18405,-0.27251 -0.44189,-0.65473 -0.57296,-0.84938 -0.13107,-0.19465 -0.40845,-0.57906 -0.61641,-0.85426 -0.20797,-0.27522 -0.37812,-0.52575 -0.37812,-0.55676 0,-0.031 -0.14447,-0.27338 -0.32106,-0.5386 -0.44247,-0.6646 -0.59023,-1.14328 -0.70614,-2.2876 -0.0547,-0.53969 -0.11549,-0.99733 -0.13517,-1.01699 -0.0425,-0.0424 -0.054,0.009 -0.2888,1.29043 -0.30233,1.64973 -0.55233,2.5835 -0.95399,3.56326 -0.35613,0.86869 -0.74518,1.85046 -0.85992,2.17003 -0.0699,0.19465 -0.19502,0.52909 -0.27806,0.7432 -0.083,0.21412 -0.25679,0.67596 -0.38614,1.02633 -0.39053,1.0579 -0.96216,2.45765 -1.14177,2.79586 -0.17326,0.32625 -0.45792,1.04727 -0.45799,1.16003 -2e-5,0.0349 0.1976,0.0426 0.443,0.0174 0.24367,-0.025 1.64809,-0.81249 1.64809,-0.14828 z m 1.9895,-21.20771 c 1.01436,-0.185 1.99226,-0.94564 2.47322,-1.92372 0.24827,-0.5049 0.25253,-0.52868 0.29454,-1.64481 0.0518,-1.37729 -0.0474,-1.96397 -0.44252,-2.61651 -0.3384,-0.55885 -0.90223,-1.14032 -1.30657,-1.34746 -0.67899,-0.34785 -1.79907,-0.39682 -2.45449,-0.10732 -0.50962,0.22509 -1.19241,1.01496 -1.54808,1.79083 -0.23392,0.51029 -0.38771,1.55414 -0.38901,2.64035 -0.002,2.0871 0.47795,2.90068 1.87961,3.18285 0.55821,0.11238 0.97872,0.11964 1.4933,0.0258 z m 26.16499,36.60208 c -0.5318,-0.10273 -0.48571,0.44139 -0.56783,-6.70371 -0.0834,-7.25555 -0.097,-10.74321 -0.0524,-13.47118 0.0178,-1.0908 -0.003,-2.28295 -0.0506,-2.8489 -0.12592,-1.50773 -0.12352,-1.50573 -1.72289,-1.43309 l -1.1406,0.0518 0.0398,0.22169 c 0.0762,0.42451 0.18088,1.78592 0.21836,2.8406 0.0207,0.58395 0.0921,1.7088 0.15863,2.49967 0.13178,1.56737 0.11687,1.67643 -0.2292,1.67643 -0.18915,0 -0.20021,-0.0177 -0.21388,-0.34161 -0.0232,-0.55037 -0.13722,-0.56273 -0.38573,-0.0418 -0.11918,0.24981 -0.28903,0.57194 -0.37745,0.71585 -0.17975,0.29253 -0.73458,0.76294 -0.90111,0.76399 -0.33475,0.002 -0.7069,-0.57606 -0.7069,-1.09825 0,-0.17929 -0.0354,-0.39214 -0.0788,-0.47298 -0.0485,-0.0905 -0.10329,-0.99274 -0.14258,-2.34883 -0.0351,-1.21101 -0.0951,-2.37362 -0.13335,-2.58358 -0.0382,-0.20995 -0.0876,-0.83106 -0.10974,-1.38023 -0.0221,-0.54917 -0.0873,-1.38071 -0.14477,-1.84787 -0.0612,-0.49706 -0.0971,-1.28977 -0.0867,-1.91109 0.01,-0.58395 -0.0242,-1.76246 -0.0755,-2.61891 -0.15898,-2.65073 -0.17041,-3.21756 -0.0656,-3.25452 0.18107,-0.0639 2.38815,-0.18111 4.25731,-0.22616 1.29805,-0.0313 1.89619,-0.0701 1.89619,-0.12317 0,-0.0426 -0.18065,-0.3162 -0.40144,-0.60798 -1.16786,-1.54335 -1.8996,-2.83679 -2.29726,-4.06067 -0.58023,-1.7858 -0.49259,-3.82599 0.28924,-6.73314 0.12564,-0.46715 0.2574,-0.97678 0.2928,-1.1325 0.0354,-0.15572 0.0961,-0.36286 0.13491,-0.46031 l 0.0705,-0.17718 1.50497,-0.008 c 0.87991,-0.005 1.99074,-0.0595 2.67458,-0.13186 1.33672,-0.14149 2.68991,-0.11458 3.36139,0.0669 1.5665,0.42326 2.92446,1.54614 3.82286,3.16107 0.36176,0.6503 0.80002,1.91309 0.89125,2.56803 0.19765,1.41898 0.0531,2.21882 -0.7049,3.8999 -0.30904,0.6854 -1.39857,2.07425 -2.32239,2.96041 -0.39482,0.37872 -0.43342,0.43926 -0.3397,0.53284 0.12849,0.1283 1.73627,0.23044 2.87625,0.18272 0.40936,-0.0172 1.17492,-0.0466 1.70125,-0.0656 0.52633,-0.0189 1.5197,-0.0556 2.20751,-0.0814 l 1.25055,-0.047 0.17653,0.17626 c 0.3312,0.33072 0.35234,0.62576 0.46823,6.53432 0.0428,2.18006 0.11151,4.89204 0.15276,6.02662 0.0655,1.8024 0.061,2.12324 -0.036,2.54106 -0.16542,0.71223 -0.34548,0.98516 -0.7746,1.17412 -0.71853,0.3164 -1.43632,0.16176 -1.711,-0.36863 -0.21326,-0.41178 -0.31754,-1.53831 -0.36402,-3.93219 l -0.0455,-2.34495 -0.46882,-0.0773 c -0.81245,-0.13398 -1.45575,-0.17225 -2.01527,-0.1199 l -0.54155,0.0507 v 0.37576 c 0,0.20667 0.0308,0.68969 0.0686,1.07338 0.0377,0.38369 0.1181,1.9239 0.17866,3.4227 0.0606,1.49879 0.12509,2.80471 0.14339,2.90203 0.0183,0.0973 0.0656,1.1325 0.10517,2.30039 0.0395,1.16789 0.10273,2.2827 0.14044,2.47735 0.0377,0.19465 0.10104,0.95909 0.14075,1.69875 0.10197,1.89967 0.31741,3.96465 0.58338,5.59172 0.32131,1.96556 0.13296,3.48917 -0.48096,3.89083 -0.49704,0.3252 -0.97416,0.53505 -1.11634,0.49101 -0.34364,-0.10643 -0.54096,-0.31921 -0.65304,-0.7042 -0.0614,-0.21103 -0.13688,-0.39923 -0.16766,-0.41822 -0.046,-0.0284 -0.19566,-0.41525 -0.48049,-1.24215 -0.0598,-0.17349 -0.15242,0.12719 -0.15814,0.51317 -0.004,0.30234 0.0111,0.33642 0.15451,0.33836 0.14342,0.002 0.14687,0.01 0.0343,0.075 -0.0689,0.04 -0.21538,0.27132 -0.32555,0.51394 -0.50806,1.11884 -1.98989,1.55222 -2.57554,0.75325 -0.0965,-0.13159 -0.14831,-0.39699 -0.20055,-1.02633 -0.0388,-0.46686 -0.11789,-1.32661 -0.17586,-1.91056 -0.0643,-0.64815 -0.11821,-2.16458 -0.13827,-3.89297 -0.0181,-1.55719 -0.0634,-3.11792 -0.10067,-3.46828 -0.0373,-0.35037 -0.0887,-1.81554 -0.11412,-3.25594 -0.0255,-1.4404 -0.0768,-2.95335 -0.11407,-3.36212 -0.15779,-1.73098 -0.15903,-1.80281 -0.0373,-2.1689 0.0759,-0.22814 0.22273,-0.45165 0.41719,-0.635 0.43857,-0.41351 0.49369,-0.44612 0.87473,-0.51751 0.43824,-0.0821 0.55626,0.0105 0.70824,0.55571 0.0605,0.21699 0.24317,0.7449 0.40595,1.17312 l 0.29596,0.7786 0.0633,-0.51541 c 0.0431,-0.35094 0.0257,-1.18663 -0.0543,-2.61891 -0.0646,-1.15692 -0.11702,-2.44914 -0.11642,-2.87158 l 10e-4,-0.76808 -0.47848,0.0411 c -0.26316,0.0226 -1.32379,0.11127 -2.35695,0.19699 -1.03316,0.0857 -1.89156,0.16579 -1.90757,0.17795 -0.016,0.0122 0.0198,0.078 0.0795,0.1464 0.21135,0.24192 0.27231,0.44677 0.33811,1.13631 0.0366,0.38347 0.0703,3.52966 0.0749,6.99152 0.007,5.48956 0.0255,6.50312 0.14194,7.92766 0.0885,1.08281 0.13665,2.38309 0.14277,3.85758 0.009,2.14455 0.004,2.23689 -0.1461,2.57812 -0.57818,1.31749 -0.7873,1.57335 -1.44098,1.7631 -0.41371,0.12009 -0.56315,0.12673 -0.99118,0.044 z m 14.18238,-17.89219 c 0.0201,-0.0611 -0.0605,-0.0885 -0.26036,-0.0885 -0.2782,0 -0.38564,0.0893 -0.20084,0.16701 0.14946,0.0628 0.43045,0.015 0.4612,-0.0785 z m -10.1548,-9.55064 c 1.02325,-0.0687 2.94412,-0.12287 4.81992,-0.13587 1.71527,-0.0119 3.18667,-0.0387 3.26977,-0.0595 0.14531,-0.0364 0.15275,-0.0875 0.19375,-1.33045 0.0234,-0.71093 0.0626,-1.41111 0.0871,-1.55596 0.0387,-0.22915 0.0165,-0.29123 -0.17027,-0.47778 l -0.21472,-0.2144 -2.1143,-0.005 c -1.16286,-0.003 -2.32164,-0.0179 -2.57506,-0.0335 -1.92015,-0.11859 -6.06368,-0.16967 -8.46536,-0.10437 -1.4785,0.0402 -2.70169,0.0866 -2.71819,0.10305 -0.0165,0.0165 0.002,0.83014 0.0419,1.80813 0.0576,1.42457 0.0945,1.81264 0.18566,1.95148 l 0.11373,0.17331 2.92239,-0.002 c 1.91456,-0.002 3.50911,-0.0418 4.62366,-0.11665 z m -0.12016,-8.24027 c 0.18304,-0.0818 0.5242,-0.29529 0.75813,-0.47449 0.44184,-0.33848 1.45315,-1.33976 1.45315,-1.43874 0,-0.0311 0.0906,-0.16124 0.20145,-0.28912 0.33757,-0.38961 0.76678,-1.19464 0.93051,-1.7453 0.38389,-1.29108 0.0296,-2.9333 -0.86813,-4.02356 -0.71016,-0.86248 -1.36668,-1.14941 -2.65254,-1.15928 -0.43658,-0.003 -0.83104,0.0169 -0.87656,0.045 -0.0455,0.0281 -0.84203,0.0457 -1.77002,0.0392 -0.95295,-0.007 -1.70461,0.0162 -1.72716,0.0526 -0.0219,0.0355 -0.10673,0.53831 -0.18839,1.11742 -0.22927,1.62588 -0.13705,2.78235 0.32101,4.02575 0.51088,1.38672 2.00924,3.10685 3.31401,3.80449 0.43676,0.23353 0.66355,0.24297 1.10454,0.046 z m -0.62414,-11.45947 c 0.0826,-0.0533 0.0618,-0.0689 -0.0928,-0.0697 -0.11492,-6.1e-4 -0.1806,0.0288 -0.15531,0.0697 0.0544,0.0879 0.1119,0.0879 0.2481,0 z"
       id="path6550"
       sodipodi:nodetypes="csssssscccssssssssssssssssssssssssssssssssssssssssssssssssssssssssssssssssssssscssssssssssssssssssccssccsssssssssssssssssssssssssssscsscsscscsssssssssssssssssssssssscssssssssssscssssssscsscsssssssssssssscsssssssssssssscssscsssssssscsccsssssssssscsssscscsssssssssssssssssssss" /><g
       id="g1524"
       transform="translate(1.037039,0.05698333)"><path
         id="path425"
         style="vector-effect:non-scaling-stroke;fill:none;fill-opacity:1;stroke:#0000ff;stroke-width:0.264583;stroke-opacity:1;-inkscape-stroke:hairline;stop-color:#000000"
         d="m 84.306641,20.654297 c 0,24.785807 0,49.571614 0,74.357422 71.929039,0 143.858069,0 215.787109,0 12.51407,-12.481368 25.02776,-24.963133 37.54297,-37.44336 C 325.12151,45.088133 312.60783,32.606368 300.09375,20.125 c -71.92904,0 -143.85807,0 -215.787109,0 0,0.176432 0,0.352865 0,0.529297 z" /><circle
         style="vector-effect:non-scaling-stroke;fill:none;fill-opacity:1;stroke:#ff0000;stroke-width:0.264583;stroke-opacity:1;-inkscape-stroke:hairline;stop-color:#000000"
         id="path1062"
         cx="205.64572"
         cy="15.17749"
         r="3" /><circle
         style="vector-effect:non-scaling-stroke;fill:none;fill-opacity:1;stroke:#ff0000;stroke-width:0.264583;stroke-opacity:1;-inkscape-stroke:hairline;stop-color:#000000"
         id="circle1484"
         cx="205.64572"
         cy="99.844139"
         r="3" /></g><g
       id="g1495"
       transform="translate(3.1111,-0.19302493)"><path
         id="path1486"
         style="vector-effect:non-scaling-stroke;fill:none;fill-opacity:1;stroke:#0000ff;stroke-width:0.264583;stroke-opacity:1;-inkscape-stroke:hairline;stop-color:#000000"
         d="m 337.63672,115.90431 c 0,24.78582 0,49.57164 0,74.35747 -71.92904,0 -143.85807,0 -215.78711,0 -12.51407,-12.48138 -25.027759,-24.96315 -37.542969,-37.44339 12.51521,-12.48023 25.028889,-24.962 37.542969,-37.44338 71.92904,0 143.85807,0 215.78711,0 0,0.17643 0,0.35287 0,0.5293 z" /><circle
         style="vector-effect:non-scaling-stroke;fill:none;fill-opacity:1;stroke:#ff0000;stroke-width:0.264583;stroke-opacity:1;-inkscape-stroke:hairline;stop-color:#000000"
         id="circle1488"
         cx="-216.29764"
         cy="110.42747"
         r="3"
         transform="scale(-1,1)" /><circle
         style="vector-effect:non-scaling-stroke;fill:none;fill-opacity:1;stroke:#ff0000;stroke-width:0.264583;stroke-opacity:1;-inkscape-stroke:hairline;stop-color:#000000"
         id="circle1490"
         cx="-216.29764"
         cy="195.09419"
         r="3"
         transform="scale(-1,1)" /></g></g></svg>
