<?xml version="1.0" encoding="UTF-8" standalone="no"?>
<!-- Created with Inkscape (http://www.inkscape.org/) -->

<svg
   width="277.59149mm"
   height="95.000008mm"
   viewBox="0 0 277.59149 95.000008"
   version="1.1"
   id="svg5"
   inkscape:version="1.2.1 (9c6d41e, 2022-07-14)"
   sodipodi:docname="signage-1.svg"
   xml:space="preserve"
   xmlns:inkscape="http://www.inkscape.org/namespaces/inkscape"
   xmlns:sodipodi="http://sodipodi.sourceforge.net/DTD/sodipodi-0.dtd"
   xmlns="http://www.w3.org/2000/svg"
   xmlns:svg="http://www.w3.org/2000/svg"><sodipodi:namedview
     id="namedview7"
     pagecolor="#ffffff"
     bordercolor="#666666"
     borderopacity="1.0"
     inkscape:showpageshadow="2"
     inkscape:pageopacity="0.0"
     inkscape:pagecheckerboard="0"
     inkscape:deskcolor="#d1d1d1"
     inkscape:document-units="mm"
     showgrid="false"
     inkscape:zoom="1.3953709"
     inkscape:cx="251.90435"
     inkscape:cy="160.17247"
     inkscape:window-width="1280"
     inkscape:window-height="701"
     inkscape:window-x="0"
     inkscape:window-y="25"
     inkscape:window-maximized="0"
     inkscape:current-layer="path1311" /><defs
     id="defs2" /><g
     inkscape:label="Layer 1"
     inkscape:groupmode="layer"
     id="layer1"
     transform="translate(-74.25,-10.067796)"><path
       id="rect234"
       style="vector-effect:non-scaling-stroke;fill:none;stroke:#ff0000;stroke-width:0.264583;-inkscape-stroke:hairline;stop-color:#000000"
       d="m 74.25,10.067796 h 230.0005 l 47.591,47.500014 -47.591,47.49999 H 74.25 Z"
       sodipodi:nodetypes="cccccc" /><text
       xml:space="preserve"
       style="font-style:normal;font-weight:normal;font-size:35.2778px;line-height:1.25;font-family:sans-serif;text-align:center;text-anchor:middle;fill:#000000;fill-opacity:1;stroke:none;stroke-width:0.264583"
       x="234.40366"
       y="71.381195"
       id="text664"><tspan
         sodipodi:role="line"
         id="tspan662"
         style="font-style:normal;font-variant:normal;font-weight:normal;font-stretch:normal;font-size:35.2778px;font-family:'Marker Felt';-inkscape-font-specification:'Marker Felt';text-align:center;text-anchor:middle;stroke-width:0.264583"
         x="234.40366"
         y="71.381195">THE YURT</tspan></text><rect
       style="vector-effect:non-scaling-stroke;fill:none;stroke:#ffff00;stroke-width:0.264583;-inkscape-stroke:hairline;stop-color:#000000;stroke-opacity:1"
       id="rect716"
       width="57.903198"
       height="57.903198"
       x="93.402603"
       y="28.616199" /><rect
       style="vector-effect:non-scaling-stroke;fill:none;stroke:#ffff00;stroke-width:0.264582;stroke-opacity:1;-inkscape-stroke:hairline;stop-color:#000000"
       id="rect1272"
       width="166.58305"
       height="57.903198"
       x="151.3058"
       y="28.616199" /><g
       id="path1311"><path
         style="color:#000000;vector-effect:non-scaling-stroke;fill:none;stroke:#ff0000;stroke-width:0.264583;stroke-dasharray:none;stroke-opacity:1;-inkscape-stroke:hairline"
         d="m 123.64063,29.199219 -2.21485,0.0098 c -0.49232,0.0018 -0.80251,0.0059 -1.0293,0.01953 -0.11339,0.0068 -0.11706,-0.04074 -0.4414,0.07617 -0.0405,0.01461 -0.0915,0.03489 -0.1582,0.07227 -0.0334,0.01869 -0.0701,0.04182 -0.11329,0.07422 -0.0431,0.03239 -0.14402,0.130292 -0.14453,0.130859 -5.1e-4,5.68e-4 -0.15401,0.225982 -0.15429,0.226563 -2.9e-4,5.81e-4 -0.0976,0.335343 -0.0977,0.335937 -7e-5,5.95e-4 0.0233,0.354861 0.0234,0.355469 1.4e-4,5.73e-4 0.0919,0.226032 0.10351,0.253906 -0.0808,0.493116 -0.4733,1.409612 -0.60351,1.548828 -0.15614,0.166925 -0.40985,0.439859 -0.56836,0.611328 -0.0808,0.0874 -0.37469,0.296825 -0.26367,0.236329 -0.28559,0.155764 -0.50311,0.326987 -0.74024,0.52539 -0.14999,0.125498 -0.4866,0.333695 -0.32422,0.25 -0.19516,0.100637 -0.25218,0.154016 -0.3789,0.246094 -0.12672,0.09208 -0.2671,0.200139 -0.4043,0.310547 -0.23304,0.187539 -0.57503,0.450323 -0.69531,0.537109 -0.17984,0.129758 -0.41675,0.309547 -0.58008,0.441406 -0.10914,0.08811 -0.42029,0.327569 -0.64258,0.492188 -0.28643,0.212136 -0.62055,0.493532 -0.86523,0.732422 -0.12506,0.122094 -0.4378,0.353614 -0.4043,0.333984 -0.33436,0.195948 -0.52818,0.378811 -0.75391,0.654297 -0.0386,0.04717 -0.31514,0.223177 -0.0879,0.109375 -0.25883,0.129649 -0.31644,0.203725 -0.44726,0.314453 -0.13082,0.110728 -0.26712,0.236062 -0.39844,0.369141 -0.17598,0.17834 -0.62327,0.595173 -0.92188,0.855469 -0.32865,0.286477 -0.68944,0.608631 -0.86523,0.77539 -0.12853,0.121939 -0.63679,0.59957 -1.11133,1.042969 -1.14788,1.072572 -3.14825,2.969436 -3.61328,3.429687 -0.16897,0.167233 -0.48144,0.466112 -0.66406,0.634766 -0.21231,0.196059 -0.41554,0.386094 -0.56836,0.554688 v 0.002 c 0.0349,-0.03848 -0.19045,0.194762 -0.44336,0.449218 -0.25291,0.254457 -0.58153,0.583392 -0.92578,0.925782 -0.67738,0.673705 -1.5499,1.559576 -2.296877,2.328125 -0.746973,0.768549 -1.320583,1.360788 -1.568359,1.65039 -0.06686,0.07814 -0.367497,0.405364 -0.597657,0.644532 -0.264565,0.27492 -0.858588,0.918633 -1.359375,1.470703 l -0.625,0.689453 -0.201171,0.01172 c -0.539161,0.03054 -0.970683,0.125506 -1.355469,0.302734 -0.379561,0.17481 -0.773202,0.416948 -1.03711,0.830078 -0.263907,0.41313 -0.318359,0.868677 -0.318359,1.287109 0,0.216277 0.101693,0.441629 0.169922,0.671875 l 0.302734,-0.255859 c -0.138117,0.115957 -0.171097,0.261816 -0.269531,0.388672 0.03879,0.109774 0.03194,0.234851 0.08203,0.330078 l -0.134765,-0.255859 c -0.361091,0.508271 -0.532036,1.071051 -0.53125,1.693359 5.31e-4,0.372702 0.07098,0.672985 0.154297,0.984375 0.04166,0.155695 0.08604,0.302556 0.146484,0.451172 0.01878,0.04617 0.04886,0.09961 0.07422,0.150391 0.0043,0.0664 0.0093,0.136982 0.0098,0.230468 0.0022,0.378247 0.04233,1.277999 0.08984,2.126953 0.04649,0.831159 0.113042,2.191451 0.146484,3.00586 0.03457,0.842325 0.09722,1.858522 0.152344,2.36914 0.04643,0.429938 0.103212,1.043167 0.121094,1.306641 0.02181,0.320909 0.07613,0.974013 0.125,1.492188 0.09283,0.98334 0.224474,2.643654 0.322266,4.072265 0.0561,0.819453 0.134388,1.876399 0.220703,3.001953 0.02733,0.356323 0.106682,-0.04631 -0.05078,0.265625 -0.46341,0.91801 -0.692585,1.894097 -0.248046,2.839844 0.188404,0.400805 0.376897,0.559426 0.59375,0.765625 0.108426,0.1031 0.219099,0.197599 0.349609,0.289063 0.13051,0.09146 0.158617,0.261718 0.740234,0.261718 -0.250103,0 -0.27906,-0.04253 -0.316406,-0.05664 -0.03735,-0.01411 -0.04767,-0.01886 -0.05273,-0.02148 -0.01013,-0.0052 0.0051,0.0026 0.0098,0.0059 0.334254,0.23801 0.501935,0.271658 0.777344,0.355468 0.145916,0.04441 0.473357,0.154975 0.664063,0.22461 0.634439,0.231644 1.249634,0.409177 1.783203,0.470703 0.109117,0.01258 0.417541,0.06923 0.53125,0.09766 0.282134,0.0705 0.602234,0.117685 0.90039,0.144531 0.174536,0.01573 0.573144,0.07201 0.773434,0.109375 1.59981,0.29861 3.14653,0.482303 4.91211,0.583985 0.53107,0.03058 1.27779,0.08296 1.61328,0.113281 0.42353,0.03828 1.38176,0.09004 2.23242,0.125 0.83171,0.03419 1.95306,0.09121 2.46094,0.123047 0.53844,0.03376 1.53248,0.08516 2.23047,0.117187 0.6897,0.03166 1.82206,0.08579 2.51172,0.119141 2.1108,0.102034 6.56865,0.245455 9.12305,0.294922 l 0.70507,0.01367 0.006,-0.01758 c 3.02623,0.04391 7.05838,0.04133 8.26563,-0.04687 0.46455,-0.03393 1.38106,-0.09165 2.01562,-0.126953 0.65793,-0.03664 1.33935,-0.08559 1.69336,-0.132813 0.31901,-0.04258 0.70274,-0.08858 1.02539,-0.123047 0.32162,-0.03436 0.65415,-0.05533 0.60547,-0.05469 0.12191,-0.0016 0.2296,-0.01097 0.38477,-0.05664 0.0311,-0.0092 0.0872,-0.04424 0.125,-0.05859 0.0455,-0.007 0.10563,-0.01467 0.1875,-0.02148 1.91805,-0.159737 3.99338,-0.501088 5.41211,-0.90625 0.17411,-0.04972 0.59845,-0.156574 0.87304,-0.21875 0.29545,-0.06689 0.86138,-0.196254 1.25586,-0.285156 0.21311,-0.04802 0.4175,-0.09851 0.58985,-0.146485 0.0862,-0.02399 0.16419,-0.04587 0.23828,-0.07031 0.0741,-0.02444 0.0925,-0.0087 0.30078,-0.132813 0.79413,-0.195958 1.17974,-0.871821 1.39258,-1.529297 0.35019,-1.081775 0.36247,-2.246544 -0.44922,-3.083984 l 0.13086,0.134766 0.0664,-0.822266 c 0.028,-0.344376 0.0591,-0.684945 0.0859,-0.951172 0.0268,-0.266226 0.0704,-0.548182 0.0488,-0.443359 0.0676,-0.328717 0.096,-0.684433 0.13477,-1.13086 v -0.002 c 0.0366,-0.421007 0.10593,-1.161702 0.15234,-1.632812 0.0472,-0.479168 0.10097,-1.040302 0.12109,-1.265625 0.0159,-0.178475 0.0555,-0.498912 0.0742,-0.607422 0.042,-0.243256 0.0915,-0.644702 0.13086,-1.023438 0.036,-0.347534 0.0923,-0.818218 0.11524,-0.96875 v -0.002 c 0.0551,-0.361339 0.14253,-1.271233 0.24218,-2.330078 0.17344,-1.843117 0.43439,-4.196635 0.56641,-5.142578 0.0159,-0.11398 0.0258,-0.332926 -0.0566,-0.615234 0.0394,-0.09574 0.12559,-0.198596 0.16601,-0.310547 0.14487,-0.401353 0.19931,-0.819746 0.19727,-1.566406 -0.002,-0.507691 -0.005,-0.894185 -0.14453,-1.322266 -0.13996,-0.428081 -0.39687,-0.750466 -0.66992,-1.0625 l -0.0176,-0.01953 c 0.007,-0.06791 0.0151,-0.137961 0.0215,-0.1875 0.004,-0.03301 0.008,-0.05997 0.01,-0.07227 0.002,-0.01229 0.0206,-0.05373 -0.0176,0.07617 l -0.002,0.002 c 0.15106,-0.508506 0.0381,-0.64177 -0.0117,-0.861328 -0.0499,-0.219558 -0.11936,-0.437456 -0.20117,-0.65625 -0.0818,-0.218794 -0.17314,-0.433866 -0.2793,-0.634766 -0.10616,-0.200899 -0.15895,-0.371684 -0.48047,-0.630859 -0.44615,-0.35965 -1.11788,-0.562452 -1.81445,-0.566406 l -0.14649,-0.002 -0.12109,-0.146485 c -0.24353,-0.295936 -0.44509,-0.542254 -0.6582,-0.75 0.0112,0.0109 -0.20859,-0.234717 -0.32032,-0.380859 -0.17304,-0.226364 -0.44272,-0.547179 -0.66406,-0.792969 -0.82169,-0.9125 -1.03062,-1.150165 -1.31445,-1.494141 -0.10279,-0.124575 -0.21072,-0.244046 -0.3125,-0.349609 -0.10178,-0.105563 -0.1286,-0.165765 -0.36133,-0.318359 0.24093,0.157876 -1.6e-4,-0.024 -0.0273,-0.06445 -0.20884,-0.310959 -0.44511,-0.553505 -0.71485,-0.822266 -0.22436,-0.22357 -0.92846,-0.930158 -1.55273,-1.560547 -1.58593,-1.601492 -1.91155,-1.918237 -2.31641,-2.230469 -0.10355,-0.07986 -0.33783,-0.314298 -0.32031,-0.292968 -0.2275,-0.277083 -0.48658,-0.504126 -0.81836,-0.720704 -9e-4,-5.89e-4 -0.21111,-0.183912 -0.22266,-0.197265 -0.2326,-0.269115 -0.44934,-0.439015 -0.7207,-0.619141 -0.0557,-0.03699 -0.1286,-0.09078 -0.17969,-0.132812 -0.0511,-0.04203 -0.10358,-0.115105 -0.0176,-0.0039 -0.1761,-0.227636 -0.23275,-0.246684 -0.35743,-0.353515 -0.12467,-0.106831 -0.26934,-0.223449 -0.41796,-0.335938 -0.24603,-0.186215 -0.62851,-0.489758 -0.79883,-0.632812 -0.22977,-0.19296 -0.52557,-0.421562 -0.75196,-0.578125 -0.11141,-0.07705 -0.40401,-0.311043 -0.52343,-0.419922 -0.248,-0.226081 -0.47309,-0.404231 -0.80274,-0.570313 0.0178,0.009 -0.25043,-0.172548 -0.30859,-0.226562 -0.19285,-0.179083 -0.34574,-0.321539 -0.60352,-0.480469 -0.20216,-0.124692 -0.49273,-0.315353 -0.73828,-0.484375 -0.24554,-0.169022 -0.53366,-0.403145 -0.43164,-0.308594 -0.2406,-0.222958 -0.4055,-0.313298 -0.63867,-0.4375 -0.002,-0.0012 -0.47499,-0.297931 -0.79688,-0.527343 -0.18241,-0.130008 -0.35511,-0.247816 -0.49609,-0.339844 -0.0705,-0.04601 -0.13219,-0.08408 -0.19531,-0.121094 -0.0316,-0.01851 -0.0606,-0.03641 -0.10938,-0.06055 -0.0203,-0.01002 -0.0494,-0.02437 -0.0859,-0.03906 -0.009,-0.0055 -0.009,-0.005 -0.0234,-0.01367 -0.0636,-0.03912 -0.16298,-0.103416 -0.26367,-0.173828 -0.36553,-0.255628 -0.93356,-0.625208 -1.4668,-0.962891 -0.53324,-0.337682 -0.95363,-0.605912 -1.26563,-0.763672 -0.069,-0.03487 -0.37846,-0.231077 -0.48828,-0.316406 -0.25078,-0.194871 -0.44489,-0.341961 -0.79687,-0.486328 0.10406,0.0427 -0.27695,-0.16741 -0.55274,-0.375 -0.27526,-0.207197 -0.57689,-0.482265 -0.59961,-0.507813 -0.001,-0.0014 -0.21713,-0.319742 -0.27343,-0.4375 -0.0829,-0.173427 -0.32227,-1.227207 -0.32227,-1.460937 0,-0.240647 -0.0191,-0.576245 -0.043,-0.859375 v -0.002 z m -3.15236,7.447265 c 0.0106,0.125965 0.0192,0.234618 0.0312,0.371094 0.05,0.565997 0.10805,1.169049 0.14649,1.498047 0.0276,0.236846 0.0919,0.832389 0.14257,1.306641 h 0.002 c 0.19841,1.854189 0.45655,3.588646 0.76758,5.11914 0.14148,0.696188 0.32477,1.647226 0.44531,2.316406 0.0494,0.274409 0.10814,0.562444 0.16601,0.777344 0.21297,0.790985 0.39327,3.309305 0.27735,4.757813 -0.0289,0.360598 -0.0771,0.791455 -0.12696,1.154297 -0.004,0.03237 -0.005,0.03051 -0.01,0.0625 -0.22177,-0.002 -0.44507,-0.0038 -0.75977,-0.0059 -0.84134,-0.0055 -1.97993,-0.01132 -3.21093,-0.01563 l -2.84961,-0.0098 c 0.004,-0.0097 0.0109,-0.01897 0.0156,-0.0293 0.0603,-0.131012 0.12399,-0.27915 0.18359,-0.427735 v -0.002 c 0.28134,-0.701304 0.28134,-0.703344 0.43165,-1.027344 0.26262,-0.566108 0.57705,-1.411291 0.71484,-1.980468 0.10852,-0.448321 0.23867,-0.918941 0.33398,-1.214844 0.33636,-1.044271 0.40325,-1.328667 0.66993,-2.857422 0.0965,-0.553176 0.21417,-1.183482 0.23437,-1.277344 0.0515,-0.23954 0.12587,-0.677368 0.19141,-1.097656 0.0602,-0.386454 0.17861,-1.062442 0.25586,-1.457031 0.0826,-0.422169 0.17807,-0.926907 0.21875,-1.169922 0.0613,-0.365768 0.43448,-1.950356 0.64843,-2.703125 0.25535,-0.898375 0.4434,-1.540437 0.57227,-1.953125 0.0123,-0.0394 0.0161,-0.04874 0.0273,-0.08398 0.0696,-0.0087 0.12074,-0.01674 0.19532,-0.02539 0.12396,-0.01438 0.1571,-0.01355 0.28515,-0.02539 z m 2.92188,0.833985 c 0.0924,0.117042 0.21239,0.269475 0.19922,0.248047 0.15607,0.253681 0.30168,0.418025 0.49804,0.609375 0.0937,0.09136 0.33547,0.339692 0.4961,0.509765 0.18523,0.196137 0.44325,0.456975 0.61328,0.621094 0.14432,0.139309 0.4564,0.444132 0.6875,0.669922 0.12961,0.126633 0.25348,0.239575 0.36328,0.333984 0.0549,0.0472 0.10387,0.08878 0.16601,0.134766 0.0311,0.02299 0.0629,0.04661 0.12305,0.08203 0.004,0.0021 0.0119,0.0056 0.0156,0.0078 0.0489,0.0426 0.13211,0.119476 0.21484,0.203125 0.24046,0.243122 0.45911,0.454563 0.75391,0.65039 0.0457,0.0304 0.27574,0.210102 0.34961,0.279297 0.18331,0.171707 0.44703,0.392612 0.67773,0.572266 0.18051,0.140576 0.54027,0.433194 0.75586,0.617187 0.2598,0.221726 0.68666,0.56514 1.0039,0.806641 0.13598,0.103512 0.26052,0.203427 0.3379,0.269531 0.0387,0.03305 0.0678,0.06 0.0664,0.05859 -7.2e-4,-7.06e-4 -0.007,-0.0059 -0.0391,-0.04492 -0.0161,-0.01952 -0.0388,-0.04563 -0.0781,-0.111328 -0.0197,-0.03285 -0.0441,-0.07384 -0.0723,-0.146485 -0.0141,-0.03632 -0.0431,-0.139191 -0.043,-0.138671 1.2e-4,5.19e-4 -0.0254,-0.221136 -0.0254,-0.220704 0,0.51008 0.17637,0.581565 0.25781,0.66211 0.004,0.0038 0.008,0.02747 0.0117,0.03125 0.0752,0.08418 0.12753,0.125449 0.17773,0.164062 0.10041,0.07723 0.18964,0.13085 0.29297,0.183594 -0.10356,-0.05287 0.0305,0.02182 0.13477,0.09961 0.10428,0.07779 0.23442,0.17844 0.34961,0.275391 0.14805,0.124614 0.30169,0.247335 0.4414,0.351563 0.11626,0.08673 0.20852,0.150782 0.34961,0.230468 0.008,0.0081 0.0206,0.02441 0.0274,0.03125 0.0418,0.04237 0.0715,0.06942 0.10547,0.09961 0.0679,0.06039 0.14701,0.126927 0.24218,0.205078 0.19035,0.156301 0.44287,0.356106 0.72071,0.570312 0.26678,0.205691 0.51316,0.400149 0.6914,0.542969 0.0891,0.07141 0.16086,0.128913 0.20508,0.166016 0.0221,0.01855 0.0387,0.03291 0.0391,0.0332 1.6e-4,1.44e-4 -0.003,-0.0026 -0.0176,-0.01758 -0.015,-0.01498 -0.0248,0.0091 -0.13672,-0.171875 0.13559,0.219332 0.17514,0.21538 0.2207,0.255859 0.0456,0.04048 0.0834,0.07141 0.12305,0.101563 0.0794,0.0603 0.16244,0.118045 0.2539,0.175781 -0.0203,-0.0128 0.31965,0.245021 0.50196,0.412109 0.25279,0.23169 0.70594,0.619578 1.0625,0.91211 0.56417,0.462865 0.87579,0.740826 2.05664,1.835937 0.21075,0.195448 0.95716,0.927384 1.58593,1.560547 0.63531,0.639739 1.35733,1.364948 1.60938,1.617187 0.0655,0.06556 0.0818,0.0899 0.15234,0.166016 -0.8498,0.01357 -1.79341,0.02626 -2.93359,0.04102 -2.75913,0.03571 -5.25548,0.06605 -5.46484,0.06641 L 133.42569,53.9453 c -0.1946,-0.263678 -0.4886,-0.721106 -0.56445,-0.859375 -0.21772,-0.396861 -0.41657,-0.772575 -0.55469,-1.048828 -0.0691,-0.138126 -0.12374,-0.253755 -0.1543,-0.322265 -0.0153,-0.03426 -0.0251,-0.05735 -0.0234,-0.05273 0.002,0.0046 0.0469,-0.08228 0.0469,0.289063 0,-0.367922 -0.0418,-0.301827 -0.0606,-0.363281 -0.0188,-0.06145 -0.0377,-0.11686 -0.0605,-0.179688 -0.0456,-0.125655 -0.10233,-0.270854 -0.16602,-0.421875 -0.0527,-0.124901 -0.10149,-0.246254 -0.13281,-0.330078 -0.0128,-0.03426 -0.0205,-0.05588 -0.0254,-0.07031 0.005,0.01993 0.0273,0.0099 0.0273,0.228516 0,-0.267772 -0.0385,-0.283778 -0.0566,-0.341797 -0.0182,-0.05802 -0.0348,-0.10196 -0.0527,-0.146484 -0.0359,-0.08905 -0.0762,-0.175972 -0.12305,-0.267578 -0.0205,-0.04001 -0.11826,-0.281208 -0.13672,-0.341797 v -0.002 c -0.15144,-0.496704 -0.46387,-1.195359 -0.76953,-1.802735 -0.11176,-0.222087 -0.25627,-0.515966 -0.29297,-0.595703 -0.11479,-0.249348 -0.26051,-0.491208 -0.41992,-0.740234 -0.15298,-0.238979 -0.26742,-0.422872 -0.47266,-0.644531 -0.005,-0.006 -0.008,-0.04364 -0.0117,-0.05078 -0.0346,-0.06976 -0.0647,-0.117946 -0.0957,-0.167968 -0.0621,-0.100046 -0.12958,-0.198834 -0.20508,-0.302735 -0.15098,-0.207801 -0.31641,-0.420515 -0.49609,-0.609375 0.01,0.01017 -0.19364,-0.241294 -0.28125,-0.373047 -0.18881,-0.283931 -0.41355,-0.548474 -0.6582,-0.785156 -0.0566,-0.05479 -0.10378,-0.105917 -0.13477,-0.140625 -0.004,-0.0076 -0.0116,-0.02263 -0.0156,-0.0293 -0.0342,-0.05645 -0.0572,-0.08644 -0.0801,-0.117187 -0.0457,-0.06149 -0.0883,-0.11437 -0.13867,-0.173828 -0.10074,-0.118918 -0.22692,-0.257928 -0.36524,-0.404297 -0.24325,-0.257423 -0.59342,-0.644381 -0.74023,-0.814453 -0.17083,-0.197893 -0.43453,-0.501278 -0.58789,-0.677735 -0.11289,-0.129871 -0.31848,-0.4072 -0.33985,-0.441406 -0.14787,-0.236645 -0.29098,-0.423361 -0.49609,-0.625 0.009,0.0088 -0.16213,-0.205292 -0.17773,-0.232422 -0.0984,-0.171054 -0.33587,-0.570093 -0.55665,-0.933594 -0.41092,-0.676554 -0.56348,-1.094508 -0.64257,-1.572265 z m -6.55078,0.06641 c -0.18006,0.636414 -0.38998,1.250177 -0.48047,1.720703 -0.0681,0.353787 -0.16466,0.849361 -0.21289,1.089844 -0.0503,0.251319 -0.11569,0.585616 -0.14844,0.761719 -0.28824,1.548197 -0.51755,2.718023 -0.68555,3.503906 -0.11551,0.540329 -0.24628,1.199821 -0.30273,1.541015 -0.0489,0.295258 -0.11982,0.726602 -0.15821,0.955079 -0.0299,0.178228 -0.11673,0.577429 -0.16992,0.78125 -0.0835,0.319961 -0.28898,0.998267 -0.49023,1.621093 -0.20126,0.622826 -0.43228,1.268626 -0.46485,1.34375 -0.10322,0.238112 -0.17869,0.391628 -0.25586,0.664063 0.0249,-0.08772 -0.0483,0.113474 -0.0742,0.162109 -0.1512,0.283824 -0.24593,0.552679 -0.36133,0.876953 -0.0695,0.195287 -0.27686,0.589713 -0.32031,0.650391 -0.1541,0.21518 -0.30169,0.425922 -0.40625,0.597656 -0.0133,0.02184 -0.0662,0.09687 -0.10547,0.15625 h -3.17383 c -0.7082,0 -1.25833,-0.0024 -1.82422,-0.0059 l 0.12305,-0.08789 h -0.0762 c 0.0196,-0.02421 0.0331,-0.04475 0.0488,-0.0625 0.51414,-0.579565 1.32139,-1.699913 1.6836,-2.382812 0.0873,-0.164624 0.25437,-0.432115 0.24023,-0.41211 v -0.002 c 0.19219,-0.272086 0.32539,-0.540869 0.49609,-0.867187 0.0854,-0.16316 0.16629,-0.320783 0.23047,-0.455078 0.0321,-0.06715 0.059,-0.126948 0.0859,-0.191407 0.0135,-0.03223 0.0263,-0.06394 0.043,-0.113281 0.0166,-0.04934 0.0606,-0.04957 0.0606,-0.347656 0,0.364773 -0.0366,0.2563 -0.0371,0.257812 -5e-4,0.0015 0.008,-0.02104 0.0195,-0.05078 0.0236,-0.05948 0.0631,-0.150767 0.10547,-0.242187 0.14914,-0.322223 0.34168,-0.847557 0.51172,-1.34375 0.0789,-0.230331 0.15802,-0.451546 0.21875,-0.619141 0.0304,-0.0838 0.0561,-0.155772 0.0742,-0.203125 0.0181,-0.04735 0.0601,-0.124011 0,-0.0078 0.096,-0.185563 0.098,-0.233317 0.12891,-0.333984 0.0309,-0.100667 0.0599,-0.208996 0.0859,-0.320312 -0.009,0.03953 0.16994,-0.504955 0.31836,-0.855469 0.16795,-0.396635 0.3436,-0.823402 0.42578,-1.046875 0.0424,-0.115476 0.15265,-0.373182 0.19141,-0.451172 0.0442,-0.08899 0.083,-0.173057 0.11718,-0.255859 0.0171,-0.0414 0.0331,-0.08024 0.0508,-0.132813 9.7e-4,-0.0029 0.003,-0.01709 0.004,-0.01953 0.003,-0.0062 0.002,-0.0035 0.006,-0.01172 0.0266,-0.05044 0.073,-0.133958 0.12305,-0.216797 0.15474,-0.256367 0.3066,-0.549425 0.41797,-0.820312 -0.007,0.01748 0.24435,-0.45191 0.42382,-0.716797 0.22338,-0.329667 0.46072,-0.69587 0.59571,-0.931641 0.0199,-0.03478 0.2332,-0.325017 0.3164,-0.414062 0.21836,-0.233673 0.37199,-0.384745 0.55274,-0.765625 -0.074,0.15586 -0.0542,0.09343 -0.0234,0.05469 0.0307,-0.03874 0.0846,-0.101825 0.15039,-0.175781 0.13168,-0.147912 0.31193,-0.339498 0.49609,-0.521484 0.39878,-0.394048 0.89495,-0.885142 1.10352,-1.091797 0.0874,-0.08655 0.17607,-0.166504 0.22852,-0.210938 0.004,-0.0036 0.002,-7.75e-4 0.006,-0.0039 0.003,-0.0024 0.0236,-0.0057 0.0273,-0.0078 0.0264,-0.01449 0.0395,-0.02605 0.0606,-0.03906 z m -0.10547,0.05078 c -0.009,0.0054 -0.006,0.0053 -0.0215,0.01367 -0.0472,0.02568 -0.0639,0.113281 -0.45898,0.113281 0.41646,0 0.42279,-0.08242 0.48047,-0.126953 z m 10.08593,3.207031 c 0.0719,0.0151 0.24322,0.03125 0.24414,0.03125 9.9e-4,0 -0.17718,-0.0139 -0.23242,-0.02734 -0.005,-0.0013 -0.007,-0.0026 -0.0117,-0.0039 z m -2.60937,3.15625 c 0.36114,0.412027 0.65813,0.805493 0.9668,1.121094 h -0.002 c 0.14191,0.145102 0.39544,0.440264 0.45117,0.515625 0.15708,0.212367 0.44508,0.567219 0.71094,0.882813 0.11679,0.138634 0.22495,0.272553 0.29297,0.363281 0.034,0.04536 0.0594,0.08314 0.0625,0.08789 0.002,0.0024 -0.003,-0.0025 -0.0215,-0.03711 -0.0182,-0.03463 -0.10547,0.02065 -0.10547,-0.439453 0,0.385631 0.10901,0.488103 0.18359,0.605469 0.0746,0.117366 0.15199,0.209051 0.26953,0.30664 -0.12347,-0.102461 -0.0844,-0.08277 -0.0684,-0.0625 0.0161,0.02027 0.0472,0.06181 0.084,0.113282 0.0736,0.102947 0.16997,0.246607 0.26367,0.390625 0.0937,0.144018 0.18531,0.290709 0.25,0.40039 0.0647,0.109682 0.12724,0.332432 0.043,0.04297 0.0707,0.242764 0.11482,0.287129 0.17773,0.404297 0.0629,0.117168 0.13465,0.240902 0.21289,0.363281 0.1497,0.23414 0.46261,0.896409 0.65821,1.462891 0.0756,0.218951 0.18402,0.5114 0.26171,0.705078 0.0572,0.142615 0.18629,0.483812 0.27344,0.720703 0.26823,0.729207 0.68176,1.455286 1.06641,2.175781 l -1.00977,-0.0059 c -1.90372,-0.0096 -3.17449,-0.01896 -3.96679,-0.0332 -0.0562,-0.001 -0.0677,-0.0029 -0.11914,-0.0039 0.0579,-0.492312 0.0924,-0.919183 0.0957,-2.476563 0.004,-2.541043 -0.0481,-3.063827 -0.41797,-4.576172 -0.0509,-0.208116 -0.17253,-0.806335 -0.25,-1.236328 -0.0847,-0.470153 -0.24355,-1.249851 -0.36328,-1.791016 z m -15.35156,0.582032 c -0.16885,0.43234 -0.35622,0.926534 -0.44727,1.197265 -0.40519,1.204857 -0.77797,2.175619 -0.91211,2.451172 -0.0697,0.14325 -0.13084,0.281925 -0.18164,0.408203 -0.0254,0.06314 -0.0483,0.121903 -0.0703,0.189453 -0.004,0.01145 -0.007,0.05567 -0.0117,0.06445 -0.002,0.0053 -0.0113,0.02763 -0.0293,0.0625 -0.0406,0.07856 -0.1076,0.199571 -0.17968,0.322265 -0.14417,0.245388 -0.39075,0.582848 -0.31836,0.5 -0.14192,0.162434 -0.16747,0.226893 -0.23243,0.335938 -0.0649,0.109045 -0.13162,0.228813 -0.19336,0.351562 -0.0465,0.09253 -0.24662,0.377739 -0.24414,0.375 -0.20335,0.224073 -0.36803,0.456227 -0.51757,0.714844 -0.055,0.09512 -0.28834,0.341275 -0.10743,0.177734 -0.29392,0.26573 -0.39911,0.438919 -0.61914,0.722657 -0.22037,0.28418 -0.4211,0.547543 -0.57226,0.796875 0.0186,-0.03069 -0.15149,0.134159 -0.0371,0.05273 -0.36035,0.256562 -0.43692,0.43709 -0.56445,0.689453 -0.12214,0.0034 -0.24451,0.0083 -0.53711,0.0039 -0.53792,-0.008 -2.02115,-0.02224 -3.314458,-0.03125 -0.04723,-3.28e-4 -0.07453,-0.0016 -0.121093,-0.002 1.733181,-1.952834 5.188551,-5.57277 8.132811,-8.333984 0.37761,-0.354138 0.78847,-0.75103 0.98828,-0.958985 0.0397,-0.04132 0.044,-0.04471 0.0898,-0.08984 z m 20.55859,1.402343 c 0.007,0.01104 0.009,0.01448 0.0215,0.04102 0.0227,0.04807 0.084,0.09587 0.084,0.388672 0,-0.38169 -0.0655,-0.380078 -0.10547,-0.429688 z m -27.39844,12.75 c 2.73922,0 6.87459,0.03406 9.16602,0.07617 2.30362,0.04232 5.78987,0.10556 7.74805,0.140625 1.97153,0.0353 7.10955,0.08679 11.43945,0.115235 2.1618,0.01421 4.2308,0.03512 5.82226,0.05469 1.59147,0.01957 2.78766,0.04481 2.91797,0.05273 0.50488,0.03071 1.40755,0.08832 1.9961,0.128906 1.29349,0.08926 6.61398,0.121196 8.13671,0.05859 0.14197,-0.0058 0.10823,-0.005 0.19141,-0.0059 0.0335,0.03356 0.0621,-0.006 0.0625,0.414063 5.8e-4,0.514213 0.0511,0.275461 -0.0977,0.615234 -0.10244,0.233959 -0.13828,0.135451 0.11719,0.0078 0.24575,-0.122727 -0.0427,4.23e-4 -0.41992,0.0059 -0.37725,0.0054 -0.92099,-0.01637 -1.58984,-0.07031 -2.28834,-0.184573 -5.67248,-0.122661 -12.63086,0.207032 -0.69504,0.03293 -2.11087,0.08712 -3.125,0.11914 -1.02188,0.03224 -2.69109,0.0875 -3.71289,0.123047 -1.01971,0.0355 -2.56799,0.08756 -3.43946,0.117188 -0.61591,0.02094 -1.56467,0.06336 -2.43554,0.101562 v -0.0059 l -1.04883,0.05078 c -1.90933,0.09202 -8.60562,0.09903 -9.60352,0.0293 -0.38658,-0.02701 -1.29408,-0.07666 -2.05664,-0.113281 -0.74706,-0.03591 -1.68935,-0.09261 -2.02929,-0.121094 -0.39752,-0.03335 -1.16901,-0.08798 -1.74805,-0.123047 -0.99188,-0.06002 -3.58127,-0.319386 -4.16406,-0.410156 -0.6019,-0.09374 -1.581678,-0.233149 -2.328129,-0.330078 -1.5504,-0.201316 -2.148959,-0.320914 -2.050781,-0.291016 -0.206204,-0.06273 -0.387027,-0.09601 -0.587891,-0.126953 0.01953,0.003 -0.414679,-0.09789 -0.6875,-0.181641 -0.389058,-0.11943 -0.597899,-0.287173 -0.667968,-0.365234 0.07237,-0.02818 0.368454,-0.103973 0.957031,-0.169922 0.835971,-0.09366 1.409579,-0.103516 5.869138,-0.103516 z m -9.171873,1.955079 c 0.04771,0.08969 0.07979,0.192788 0.339844,0.353515 h -0.002 c 8.77e-4,5.43e-4 -0.179272,-0.139895 -0.228516,-0.197265 -0.04924,-0.05737 -0.07912,-0.104243 -0.101562,-0.142579 -0.0041,-0.007 -0.0042,-0.0072 -0.0078,-0.01367 z m 2.890625,1.683593 c 0.269259,0.06459 0.533279,0.123425 0.78125,0.167969 0.0097,0.172765 0.02094,0.281544 0.0293,0.566406 0.02864,0.97632 0.04774,2.638388 0.06836,5.339844 0.01984,2.602678 0.05262,6.070122 0.07227,7.710938 l 0.01758,1.509765 c -0.08044,-0.904831 -0.157333,-1.751586 -0.21289,-2.322265 -0.109888,-1.129079 -0.319935,-4.243912 -0.445313,-6.654297 -0.116559,-2.240932 -0.21151,-4.169282 -0.27539,-5.53711 -0.0156,-0.334039 -0.02356,-0.517701 -0.03516,-0.78125 z M 99.240234,62.875 c 0.0037,4.59e-4 0.0061,0.0015 0.0098,0.002 0.322089,0.04017 0.46855,0.06108 0.728516,0.0957 5.8e-5,0.01469 -5.7e-5,0.02003 0,0.03516 0.0017,0.455401 0.0035,1.106332 0.0039,1.902344 6.28e-4,1.333694 -0.0025,3.217194 -0.0059,5.142578 l -0.002,0.996094 v 0.002 c -0.0067,3.35042 -0.01566,5.506739 -0.0293,6.81836 -0.0031,0.293752 -0.0062,0.40089 -0.0098,0.613281 -0.209103,-0.04002 -0.318469,-0.05961 -0.617188,-0.117188 l -0.03906,-0.0078 -0.01953,-7.886719 c -0.0061,-2.395156 -0.01189,-4.573937 -0.01563,-6.154297 -0.0014,-0.608085 -0.003,-1.03223 -0.0039,-1.441406 z m 44.400386,0.107422 c 0.15819,-2.33e-4 0.29259,-0.0016 0.46094,0 0.16083,0.0015 0.28743,0.0068 0.43946,0.0098 -7.8e-4,0.01451 -0.001,0.02245 -0.002,0.03711 -0.0302,0.552186 -0.0763,1.218053 -0.11719,1.625 -0.0375,0.373051 -0.0921,1.12815 -0.12695,1.75 -0.0558,0.995837 -0.13832,2.019719 -0.38281,4.751953 -0.025,0.279689 -0.0384,0.611114 -0.0606,0.953125 -0.0174,-0.68038 -0.022,-1.554749 -0.0391,-1.980469 -0.0178,-0.444211 -0.0467,-1.130572 -0.0625,-1.52539 -0.0401,-1.002538 -0.0759,-2.646064 -0.0957,-4.035157 -0.009,-0.617711 -0.0125,-1.146818 -0.0137,-1.585937 z m -2.09765,0.04297 -0.48242,0.02344 v -0.002 c 0.16216,-0.0073 0.38523,-0.01696 0.48242,-0.02148 z m -0.51172,0.02344 c 0.009,0.263269 0.0163,0.45212 0.0293,1.042969 0.0193,0.88073 0.0397,2.036365 0.0586,3.251953 0.038,2.439458 0.0948,5.05604 0.12891,5.888672 0.0585,1.430487 0.11841,3.055314 0.16015,4.324219 0.017,0.516444 0.0291,0.913435 0.0391,1.273437 -0.0291,0.0026 -0.0465,0.0052 -0.0762,0.0078 -0.28099,0.02492 -0.44487,0.02958 -0.70117,0.04492 V 78.46875 c -0.006,-3.286014 -0.11641,-9.711796 -0.20312,-11.78125 -0.0492,-1.175943 -0.0978,-2.704288 -0.10743,-3.353516 l -0.002,-0.255859 c 0.24694,-0.01091 0.44383,-0.01891 0.67383,-0.0293 z m 6.29297,0.111328 c 0.46009,0.02219 1.12913,0.0439 1.67578,0.04687 -0.0538,0.435501 -0.13647,1.138391 -0.27344,2.332031 -0.0389,0.338808 -0.10331,1.076294 -0.15234,1.710938 -0.0471,0.611232 -0.12507,1.355014 -0.13477,1.416016 -0.12738,0.801616 -0.2608,2.011799 -0.34375,3.103515 -0.0227,0.299524 -0.0477,0.591844 -0.0684,0.81836 -0.0207,0.226516 -0.0588,0.48641 -0.0352,0.359375 -0.0472,0.2534 -0.0646,0.479552 -0.12305,1 -0.0584,0.520447 -0.13471,1.223436 -0.2207,2.041015 -0.0325,0.308995 -0.0977,1.050006 -0.15039,1.697266 v 0.002 c -0.0147,0.180513 -0.0273,0.316354 -0.041,0.472656 -0.24333,0.02742 -0.48729,0.05477 -0.79297,0.0918 h -0.004 l -0.14063,0.01758 c -0.18319,0.02245 -0.29506,0.03475 -0.48242,0.05664 0.006,-0.06327 0.01,-0.105576 0.0156,-0.166016 0.0342,-0.367507 0.0917,-0.910881 0.12305,-1.169922 0.0404,-0.334159 0.0908,-0.939332 0.12109,-1.435547 0.13561,-2.223227 0.46439,-6.178859 0.64649,-7.785156 0.10947,-0.965572 0.24608,-2.606115 0.34375,-4.117187 0.0124,-0.191436 0.0243,-0.325258 0.0371,-0.492188 z m -9.5625,0.02734 c 9e-4,0.02694 0.001,0.02621 0.002,0.05469 0.0266,0.819831 0.066,2.293108 0.13086,4.888672 0.0355,1.418616 0.0873,3.21779 0.11719,4.019532 0.0279,0.751648 0.0616,2.867337 0.0723,4.636718 l 0.0137,2.28125 -0.2793,0.01563 c -0.68643,0.03981 -1.49067,0.09779 -1.86914,0.136719 -0.2673,0.02751 -1.00921,0.07289 -1.54688,0.0918 -0.58232,0.02052 -1.54793,0.07415 -2.1914,0.121094 -0.60666,0.04425 -1.61725,0.100992 -2.20313,0.123047 l -0.0566,0.002 0.0293,-4.064453 c 0.0348,-4.945371 0.0257,-5.522424 -0.16602,-11.794922 l -0.002,-0.0957 c 0.53145,-0.02211 1.22873,-0.06352 1.62891,-0.09766 0.31993,-0.02731 1.53165,-0.09847 2.59375,-0.148437 1.06954,-0.05029 2.55805,-0.120674 3.30859,-0.15625 0.16208,-0.0077 0.27295,-0.0085 0.41797,-0.01367 z m -35.01953,0.158203 c 0.24515,0.02788 0.48829,0.06214 0.69726,0.07617 0.10514,0.007 0.17218,0.01802 0.29102,0.0293 -0.0182,0.09217 -0.0391,0.184311 -0.0566,0.298828 -0.0281,0.183455 -0.0581,0.400026 -0.084,0.617187 -0.0478,0.401995 -0.11618,0.914174 -0.14062,1.070313 -0.0307,0.196497 -0.0986,0.628566 -0.15039,0.957031 -0.0527,0.334236 -0.14951,0.965303 -0.2168,1.41211 -0.0654,0.434733 -0.15765,1.009299 -0.19726,1.226562 -0.094,0.515115 -0.1349,0.771354 -0.19922,1.175781 0.0126,-1.892574 0.0259,-3.800593 0.0391,-5.226562 0.006,-0.677315 0.012,-1.184949 0.0176,-1.636719 z m 3.82031,0.339844 c 0.0788,0.0041 0.1341,0.0052 0.2168,0.0098 0.58273,0.03245 1.26087,0.07944 1.46484,0.101563 0.33846,0.03673 0.90852,0.07904 1.3418,0.101562 0.39349,0.02042 1.2602,0.07676 1.89453,0.123047 0.53236,0.03885 1.00801,0.05893 1.39648,0.07031 0.005,0.286907 0.01,0.503559 0.01,1.103515 9e-4,1.862584 0.0483,5.805702 0.1543,12.990235 l 0.0254,1.689453 c -0.31813,-0.02577 -0.52207,-0.03871 -0.92969,-0.08203 -0.70783,-0.07522 -1.5688,-0.166746 -1.91602,-0.203125 -0.32908,-0.0345 -0.79643,-0.09262 -0.96875,-0.119141 -0.56531,-0.0871 -2.08791,-0.21518 -4.73828,-0.427734 -0.39817,-0.03193 -0.47669,-0.04483 -0.71289,-0.06641 0.0338,-0.177025 0.0673,-0.346405 0.0937,-0.492187 0.0414,-0.22831 0.17633,-0.846638 0.2832,-1.289063 0.11729,-0.48546 0.27744,-1.221533 0.36719,-1.693359 0.082,-0.431173 0.196,-0.974264 0.22266,-1.080078 0.15471,-0.613751 0.40146,-2.06354 0.74414,-4.214844 0.11149,-0.699939 0.25817,-1.508916 0.25391,-1.490234 0.23187,-1.016832 0.37074,-1.871767 0.52734,-3.21875 0.025,-0.215241 0.0511,-0.420476 0.0723,-0.572266 0.0106,-0.0759 0.0211,-0.139841 0.0273,-0.177734 0.006,-0.03789 0.0614,-0.167262 -0.0254,0.07617 0.0931,-0.262233 0.0508,-0.197591 0.0625,-0.263672 0.0117,-0.06608 0.025,-0.143618 0.0391,-0.234375 0.0275,-0.177206 0.0615,-0.403118 0.0937,-0.640625 z m 18.21094,0.457031 c -0.0577,0.04427 -0.10925,0.08021 -0.16797,0.126953 -0.28113,0.223802 -0.72231,0.536053 -0.81055,0.589844 h -0.002 c -0.27149,0.16551 -0.57627,0.390361 -0.82813,0.601562 -0.13953,0.117009 -0.50827,0.3162 -0.31054,0.232422 -0.27968,0.118589 -0.40486,0.109813 -0.71289,0.548828 0.1713,-0.244575 0.0788,-0.09399 0.0156,-0.04297 -0.0632,0.05102 -0.15768,0.121124 -0.24609,0.18164 -0.19871,0.136016 -0.49399,0.34492 -0.73828,0.519532 -0.38009,-0.300817 -0.84666,-0.665257 -1.38868,-1.074219 -0.11183,-0.08438 -0.39613,-0.31179 -0.58007,-0.464844 -0.25186,-0.209567 -0.57672,-0.446427 -0.85157,-0.619141 -0.0692,-0.04352 -0.16606,-0.124854 -0.27539,-0.210937 1.72589,-0.0578 4.01991,-0.164238 4.85352,-0.283203 -0.1558,0.02223 0.2661,-0.01993 0.66406,-0.04102 0.37612,-0.01993 0.86893,-0.04266 1.37891,-0.06445 z m 2.33594,1.46875 c 0.006,0.321634 0.0114,0.57514 0.0156,0.939453 0.019,1.639871 0.0191,2.421785 -0.0176,2.648438 -0.0183,0.113326 -0.003,0.05339 -0.0176,0.07422 -0.0146,0.02083 -0.11811,0.132997 -0.30664,0.337891 -0.23066,0.250673 -0.56124,0.612692 -0.74414,0.816406 -0.0618,0.06887 -0.12977,0.141837 -0.20508,0.22461 -0.1342,-0.109773 -0.25592,-0.21089 -0.40429,-0.289063 0.0404,0.02131 -0.20537,-0.142803 -0.27539,-0.205078 -0.16792,-0.149342 -0.37624,-0.321969 -0.54297,-0.447266 -0.52314,-0.39313 -1.03695,-0.815346 -1.09375,-0.86914 -0.1298,-0.122915 -0.26731,-0.221032 -0.40625,-0.322266 0.0606,-0.05545 0.14009,-0.09515 0.20117,-0.154297 0.037,-0.03578 0.48663,-0.386692 1.04297,-0.751953 0.29708,-0.195052 0.69199,-0.487627 0.98437,-0.728515 0.21916,-0.180569 0.62592,-0.446088 0.50391,-0.38086 0.32074,-0.171523 0.6261,-0.399379 1.25391,-0.884765 0.003,-0.0025 0.008,-0.0052 0.0117,-0.0078 z m -11.3711,0.367188 c 0.0919,0.06975 0.18005,0.148128 0.26367,0.207031 0.1952,0.137493 0.57047,0.414379 0.79883,0.58789 0.24404,0.185439 0.64856,0.488793 0.90235,0.679688 0.22906,0.172302 0.55493,0.449066 0.54492,0.439453 0.19265,0.18496 0.32788,0.296677 0.60351,0.435547 -0.10417,-0.0525 3.8e-4,0.0031 0.0781,0.0625 0.007,0.005 0.0147,0.01229 0.0215,0.01758 -0.0562,0.03468 -0.11316,0.06713 -0.16992,0.105469 -0.19167,0.129449 -0.36969,0.255463 -0.56055,0.441406 0.0351,-0.03419 -0.16664,0.133604 -0.2539,0.191406 -0.17927,0.118745 -0.3771,0.259921 -0.53711,0.390625 -0.30778,0.251379 -0.59748,0.478866 -0.80664,0.632813 -0.0565,0.04154 -0.0851,0.05864 -0.12696,0.08789 -0.0214,-0.02207 -0.0349,-0.03384 -0.0566,-0.05664 -0.28331,-0.297165 -0.61639,-0.709647 -0.64453,-0.753906 0.13591,0.213726 0.0807,0.228104 0.0605,0.0039 -0.0202,-0.224198 -0.0421,-0.641882 -0.0684,-1.31836 -0.0269,-0.693008 -0.0392,-1.452514 -0.0488,-2.154296 z m 5.3517,4.11918 -0.0625,-0.04492 z m -0.0743,-0.03715 c 0.19101,0.151928 0.39163,0.310748 0.59765,0.486328 0.16564,0.141161 0.33025,0.275798 0.4707,0.386719 0.14046,0.11092 0.13095,0.141984 0.41407,0.292968 v -0.002 c -0.12511,-0.06676 -0.0222,-0.01072 0.043,0.04102 0.0651,0.05174 0.14892,0.122498 0.2207,0.1875 0.25555,0.231429 0.53146,0.438656 0.83398,0.609375 0.0655,0.03697 0.13277,0.07995 0.16993,0.105469 0.006,0.0044 0.004,8.8e-4 0.008,0.0039 0.006,0.0047 0.0242,0.03211 0.0312,0.03906 0.0419,0.04164 0.0816,0.07993 0.12695,0.121094 0.0695,0.06313 0.15306,0.135744 0.23633,0.207031 -0.0135,0.01416 -0.0188,0.02283 -0.0312,0.03516 -0.24543,0.243381 -0.62012,0.642005 -0.88477,0.9375 -0.23406,0.261341 -0.58155,0.630385 -0.71484,0.763672 -0.20923,0.209234 -0.40877,0.428672 -0.57813,0.664062 -0.002,0.0028 -0.0547,0.05983 -0.0703,0.07813 -0.0455,-0.03827 -0.10964,-0.09778 -0.0879,-0.07031 -0.20852,-0.263278 -0.39341,-0.431279 -0.66601,-0.615235 0.002,0.0011 -0.37748,-0.300153 -0.60547,-0.511719 -0.14895,-0.138224 -0.2969,-0.266145 -0.4336,-0.373046 -0.0683,-0.05345 -0.13198,-0.100022 -0.20507,-0.148438 -0.025,-0.01653 -0.11128,-0.044 -0.13477,-0.0625 -2.8e-4,-2.2e-4 -0.002,2.21e-4 -0.002,0 -0.0961,-0.121503 -0.1748,-0.205081 -0.26758,-0.292969 -0.11475,-0.108697 -0.24203,-0.222795 -0.375,-0.330078 -0.14626,-0.118 -0.44353,-0.364753 -0.7207,-0.595703 0.23527,-0.158616 0.46823,-0.321832 0.72265,-0.527344 0.14968,-0.120908 0.30088,-0.241155 0.41992,-0.333984 0.11904,-0.09283 0.25771,-0.190647 0.1875,-0.144531 0.51916,-0.341072 0.76416,-0.516062 0.9961,-0.72461 0.0432,-0.03888 0.25868,-0.171129 0.15429,-0.11914 0.0744,-0.03704 0.0889,-0.07361 0.14454,-0.107422 z m -4.22071,0.185547 c -0.18776,0 -0.17249,0.04004 -0.24609,0.06445 -0.002,-0.0022 -0.004,-0.0037 -0.006,-0.0059 0.0264,-0.02719 -0.0379,-0.05859 0.25195,-0.05859 z m 7.44531,2.355468 c 0.11682,0.09875 0.22621,0.175608 0.33399,0.261719 -0.004,0.0053 -0.0123,0.01586 -0.0195,0.02539 l -0.34961,-0.230469 z m 0.33985,0.265625 c 0.005,0.0036 0.009,0.0081 0.0137,0.01172 -0.004,0.0086 -0.0102,0.01664 -0.0137,0.02539 l -0.0137,-0.0078 c 0.001,6.27e-4 0.0134,-0.03057 0.0137,-0.0293 z m -8.35547,0.591797 c 0.24353,0.217525 0.55394,0.500681 0.95117,0.876953 0.13041,0.123521 0.26606,0.244351 0.39063,0.34961 0.12456,0.105259 0.19201,0.17299 0.37695,0.285156 -0.14706,-0.0892 0.16001,0.135896 0.27734,0.257813 0.23365,0.242768 0.51062,0.481719 0.78516,0.675781 0.062,0.0438 0.12564,0.09729 0.15625,0.125 0.0153,0.01385 0.0229,0.02286 0.008,0.0059 -0.015,-0.01687 -0.0617,0.002 -0.16015,-0.291015 -7.9e-4,-0.0023 -10e-4,4.29e-4 -0.002,-0.002 h 0.002 v 0.002 c 0.10966,0.328607 0.18397,0.341289 0.24218,0.40625 0.0582,0.06496 0.10912,0.112678 0.16211,0.160156 0.10598,0.09495 0.22058,0.184811 0.34766,0.273437 0.10197,0.07111 0.30744,0.24679 0.41406,0.34375 -0.42137,0.440501 -0.95165,0.994538 -1.08789,1.128907 -0.1089,0.10739 -0.33717,0.338049 -0.5332,0.539062 -0.18781,0.192586 -0.42514,0.430883 -0.48438,0.488281 -0.0909,0.08803 -0.39816,0.387386 -0.69336,0.675782 l -0.24414,0.238281 h -0.84179 -0.28516 l -0.004,-0.15625 c -0.0201,-0.590022 -0.0566,-2.35705 -0.0781,-3.882813 l -0.0332,-2.322265 c 3.3e-4,-2.65e-4 0.002,2.61e-4 0.002,0 0.003,-0.0015 0.009,-0.0044 0.0117,-0.0059 0.0567,-0.02612 0.1046,-0.0505 0.15625,-0.07813 0.0496,-0.02652 0.10936,-0.0624 0.16406,-0.09375 z m 10.00395,0.589891 c 0.0507,0.0428 0.13712,0.121334 0.0469,0.02148 0.18792,0.2078 0.24715,0.224273 0.37695,0.320313 0.1298,0.09604 0.2782,0.200763 0.43164,0.300781 l 0.041,0.02539 v 1.77539 0.945313 c 0,0.625763 -0.006,1.107961 -0.01,1.603516 -0.202,-0.161591 -0.44579,-0.350137 -0.51757,-0.417969 -0.24033,-0.227092 -0.38885,-0.389949 -0.7793,-0.583985 h -0.002 c 0.0539,0.02627 -0.1562,-0.112596 -0.17774,-0.132812 -0.29599,-0.277848 -0.63693,-0.508873 -1.06836,-0.810547 -0.25052,-0.175164 -0.46243,-0.328155 -0.69922,-0.498047 0.2009,-0.214263 0.46129,-0.499816 0.75196,-0.826172 0.33343,-0.374368 0.82984,-0.909097 1.05859,-1.142578 0.1495,-0.152589 0.28628,-0.30527 0.40234,-0.449219 0.0213,-0.02642 0.0405,-0.05393 0.0606,-0.08008 l -0.0703,-0.05859 c 0.006,-0.0035 0.029,-0.0065 0.0352,-0.0098 0.0197,-0.0103 0.0278,-0.01943 0.0449,-0.0293 0.0148,0.0077 0.0258,0.01956 0.041,0.02734 0.20759,-0.241814 0.46023,-0.448329 0.0334,0.01958 z m -2.48833,2.339793 c 0,0.07594 -0.0152,0.05044 -0.0215,0.09961 -6.5e-4,-4.71e-4 -10e-4,-0.0015 -0.002,-0.002 0.006,-0.0522 0.0234,-0.01812 0.0234,-0.09766 z m -1.5957,2.125 c 0.23973,0.168681 0.49674,0.351643 0.70117,0.482422 0.10304,0.06591 0.21952,0.147831 0.3086,0.214843 0.0891,0.06701 0.17859,0.160936 0.10156,0.07617 0.2441,0.268744 0.40941,0.368465 0.68555,0.507813 -0.67552,0.02205 -0.87868,0.03299 -1.70508,0.05469 -0.52427,0.01377 -0.92407,0.0235 -1.38086,0.03516 0.0388,-0.04425 0.0771,-0.08891 0.11328,-0.125 0.0614,-0.06125 0.15222,-0.114329 0.0312,-0.04297 0.24099,-0.142174 0.3217,-0.244945 0.4375,-0.369141 0.1158,-0.124195 0.22579,-0.257508 0.32813,-0.408203 0.0612,-0.09011 0.36446,-0.331829 0.15625,-0.203125 0.11926,-0.07371 0.1424,-0.154213 0.22265,-0.222656 z m 24.61328,2.58789 c -0.87499,0.201149 -1.38393,0.307858 -2.00976,0.408204 -0.42758,0.06856 -1.07388,0.172645 -1.43555,0.230468 -0.18929,0.03026 -0.37025,0.06218 -0.51758,0.08984 -0.0737,0.01383 -0.13862,0.02638 -0.19726,0.03906 -0.0586,0.01269 -0.0405,-0.01 -0.24024,0.06836 0.23794,-0.09331 0.11372,-0.03284 0.0391,-0.02148 -0.0746,0.01136 -0.19669,0.0267 -0.35156,0.04492 -0.30974,0.03645 -0.76027,0.08228 -1.33203,0.136719 -0.3934,0.03746 -0.8805,0.09286 -1.15039,0.13086 -0.22247,0.03135 -0.61393,0.08291 -0.85352,0.113281 -0.631,0.08008 -4.25184,0.351105 -6.38867,0.464844 -1.17568,0.06232 -7.49455,0.06848 -9.48633,0 -1.08439,-0.03729 -2.1112,-0.100412 -3.18359,-0.15625 3.48734,-0.06043 7.5725,-0.126045 9.14063,-0.232422 0.40321,-0.02736 1.42448,-0.07022 2.20117,-0.08984 0.80281,-0.02028 1.8308,-0.06035 2.34375,-0.09375 0.47365,-0.03082 1.32191,-0.08391 1.8789,-0.117188 0.57035,-0.03405 1.53785,-0.101032 2.17188,-0.15039 0.61586,-0.04792 1.61344,-0.117685 2.19531,-0.152344 0.30123,-0.01792 0.59086,-0.03728 0.82031,-0.05469 0.11473,-0.0087 0.21353,-0.01592 0.29493,-0.02344 0.0814,-0.0075 0.0966,-0.0036 0.24023,-0.03125 -0.12469,0.02404 0.10395,-0.01167 0.29297,-0.03125 0.18901,-0.01958 0.4331,-0.04407 0.68359,-0.06641 1.85833,-0.165728 3.3894,-0.309305 3.93164,-0.398438 0.28915,-0.0475 0.54769,-0.06189 0.91211,-0.107422 z"
         id="path2049"
         sodipodi:nodetypes="ccccccsscccsscscsssscscccsssscscccscsssccccssccccccsscccccccsssssscsccscscscssssscsccsccsccccssssscscccscccsccccccscccccccscccsssccccccsscccsscscsscsscsccccsccssccccsscccsccsccccccccscccccccccccscsscccccscsccccccssscccscssssscccscsccscssscccssssccccccssssscsccsccccsscscccccccscscccccsccccsssccccsccccccsccsscccscscsccccccccscccsccccscscsccssccccccccccccccccccccsccscscccccssccccccssscsssscccsccsscccccscccsccccscsccccscsscccccccccssscccccccccsccscccscccssccscscccccssccsccccccsssscccccccsccccccccccccssccccccccccccccccscccccccscccccccsccsccccccccccsccccccccccscsccccccccccccccccsccccccccccsccccsccscccccsccsccsccccsccsccsscsscccssccccsscccsssccssccccssssccccscscccccsccsccccsscccssccccccssscccsccscsscsscccccccccccccccscccsscsscscscccccssscssccccccccccsccccscccscscccscsssccccccccccccssccscscsscccssssscssscccscssccccsccssccs" /></g></g></svg>
