<?xml version="1.0" encoding="UTF-8" standalone="no"?>
<!-- Created with Inkscape (http://www.inkscape.org/) -->

<svg
   width="277.59152mm"
   height="190.00002mm"
   viewBox="0 0 277.59152 190.00002"
   version="1.1"
   id="svg5"
   inkscape:version="1.2.1 (9c6d41e, 2022-07-14)"
   sodipodi:docname="signage-carpark.svg"
   xml:space="preserve"
   xmlns:inkscape="http://www.inkscape.org/namespaces/inkscape"
   xmlns:sodipodi="http://sodipodi.sourceforge.net/DTD/sodipodi-0.dtd"
   xmlns="http://www.w3.org/2000/svg"
   xmlns:svg="http://www.w3.org/2000/svg"><sodipodi:namedview
     id="namedview7"
     pagecolor="#ffffff"
     bordercolor="#666666"
     borderopacity="1.0"
     inkscape:showpageshadow="2"
     inkscape:pageopacity="0.0"
     inkscape:pagecheckerboard="0"
     inkscape:deskcolor="#d1d1d1"
     inkscape:document-units="mm"
     showgrid="false"
     inkscape:zoom="0.54037432"
     inkscape:cx="606.06137"
     inkscape:cy="308.11975"
     inkscape:window-width="1280"
     inkscape:window-height="701"
     inkscape:window-x="0"
     inkscape:window-y="25"
     inkscape:window-maximized="0"
     inkscape:current-layer="layer1" /><defs
     id="defs2" /><g
     inkscape:label="Layer 1"
     inkscape:groupmode="layer"
     id="layer1"
     transform="translate(-74.249992,-10.067796)"><path
       id="rect234"
       style="vector-effect:non-scaling-stroke;fill:none;stroke:#ff0000;stroke-width:0.264583;-inkscape-stroke:hairline;stop-color:#000000"
       d="m 74.25,10.067796 h 230.0005 l 47.591,47.500014 -47.591,47.49999 H 74.25 Z"
       sodipodi:nodetypes="cccccc" /><g
       aria-label="CAR PARK"
       id="text664"
       style="font-size:35.2778px;line-height:1.25;text-align:center;text-anchor:middle;vector-effect:non-scaling-stroke;fill:none;stroke:#0000ff;stroke-width:0.264583;-inkscape-stroke:hairline"><path
         d="m 177.9417,63.937579 q -3.35139,8.360839 -6.70279,8.396117 -4.05694,0.03528 -5.92667,-4.198059 -1.44639,-3.245557 -1.48166,-8.50195 -0.0353,-5.92667 1.55222,-10.795007 1.83444,-5.679726 4.97417,-6.032504 0.45861,-0.03528 0.88194,-0.03528 2.92806,0 4.51556,2.610557 1.16417,1.975557 1.97556,6.279449 0.59972,1.728612 0.59972,2.116668 0,1.164168 -1.44639,1.799168 -0.3175,0.141111 -0.74083,0.141111 -1.02306,0 -2.25778,-0.670278 -1.44639,-0.776112 -1.44639,-1.693335 0,-0.141111 0.49389,-1.375834 -0.0706,-1.552223 -0.56445,-2.928057 -0.49389,-1.411112 -1.12889,-1.552224 -0.98777,-0.246944 -1.72861,3.915836 -0.635,3.457225 -0.77611,7.620006 -0.10583,3.139724 0.35278,5.820837 0.52917,3.069169 1.5875,3.280835 0.635,0.105834 1.51694,-1.587501 0.84667,-1.552223 1.41112,-3.668891 -0.0706,-0.352778 -0.0706,-0.670278 0,-2.081391 2.54,-2.081391 0.56445,0 1.12889,0.105834 1.72861,0.352778 1.72861,1.728612 0,1.12889 -0.98777,1.975557 z"
         style="font-family:'Marker Felt';-inkscape-font-specification:'Marker Felt';vector-effect:non-scaling-stroke"
         id="path2454" /><path
         d="m 199.74334,64.184524 q -0.24695,0.458611 -1.09361,0.564444 -0.0706,0 -1.51695,0.07056 0.24694,1.587501 1.83445,3.951114 0.91722,0.670278 0.91722,1.76389 0,1.728612 -2.11667,1.728612 -2.01083,0 -2.75167,-1.023056 -0.24694,-0.352778 -0.3175,-0.952501 0,-0.388056 -0.0353,-0.811389 -0.3175,-0.3175 -1.905,-4.092225 -2.89278,0.423333 -7.12611,1.199445 -0.42334,1.023056 -0.91723,2.963335 0.0706,0.352778 0.0706,0.670279 0,0.9525 -0.635,1.446389 -0.635,0.529168 -1.51695,0.529168 -0.98777,0 -1.83444,-0.740834 -0.84667,-0.740834 -0.84667,-1.728613 0,-0.881945 0.81139,-1.587501 2.64584,-13.440842 6.42056,-22.225015 -0.0706,-0.423333 -0.0706,-0.846667 0,-1.76389 1.19945,-2.328335 0.49389,-0.211667 1.27,-0.211667 1.48167,0 2.46945,0.458612 1.27,0.635 1.27,1.905001 0,1.164168 -0.635,2.08139 0.67028,5.997227 2.89278,13.828899 0.21166,-0.03528 1.44639,-0.352778 0.74083,-0.211667 1.12889,-0.211667 0.45861,0 0.74083,0.211667 1.23472,0.9525 1.23472,2.328334 0,0.740834 -0.38805,1.411113 z m -8.46667,-2.681113 q -0.59973,-2.222502 -1.90501,-8.537228 -2.50472,5.468059 -2.96333,9.383895 z"
         style="font-family:'Marker Felt';-inkscape-font-specification:'Marker Felt';vector-effect:non-scaling-stroke"
         id="path2456" /><path
         d="m 221.8272,69.05286 q 0.0353,0.211667 0.0353,0.388056 0,1.058334 -1.23472,1.799168 -1.23472,0.705556 -2.57528,0.705556 -0.81139,0 -1.30528,-0.3175 -0.35278,-0.211667 -0.635,-0.81139 -0.24695,-0.635 -0.56445,-0.846667 l -7.79639,-5.221115 0.3175,3.245558 q 0.0353,0.246945 0.52917,1.023056 0.52916,0.776112 0.52916,1.305279 0,0.776112 -0.98777,1.44639 -0.59973,0.423334 -1.51695,0.423334 -1.30528,0 -2.43417,-0.705557 -1.23472,-0.705556 -1.48167,-1.799167 -0.0353,-0.211667 -0.0353,-0.352778 0,-0.49389 0.45861,-0.846668 0.49389,-0.388055 0.49389,-0.705556 l -1.12889,-20.108347 q -0.0353,-0.458611 -0.38806,-1.199445 -0.35278,-0.776111 -0.35278,-1.128889 0,-0.917223 1.19945,-1.481668 0.98778,-0.493889 2.01083,-0.493889 0.67028,0 1.16417,0.211666 0.49389,0.176389 0.67028,0.599723 0.17639,0.388056 0.42333,0.388056 0.0353,0.03528 2.15195,-0.776112 2.46945,-0.917223 4.33917,-0.917223 2.71639,0 4.37445,1.905002 0.45861,0.529167 0.45861,1.481667 0,2.57528 -2.96334,7.267228 -2.82222,4.409725 -5.82083,7.05556 l 9.10167,6.350004 q 0.0353,0.03528 1.76389,0.846667 0.98778,0.458612 1.19944,1.270001 z m -9.45445,-21.907515 q -0.77611,0 -2.46944,1.481668 -0.35278,0.282223 -2.61056,2.434168 l -0.0706,6.314727 q 2.18723,-2.398891 3.95112,-5.326948 1.76389,-2.963335 1.76389,-4.233336 0,-0.670279 -0.56445,-0.670279 z"
         style="font-family:'Marker Felt';-inkscape-font-specification:'Marker Felt';vector-effect:non-scaling-stroke"
         id="path2458" /><path
         d="m 245.67492,44.711177 q 0.52917,0.776112 0.52917,2.08139 0,3.069169 -3.3514,9.454451 -3.4925,6.73806 -5.715,6.73806 -0.56444,0 -0.84667,-0.635 -0.10583,0.811389 -0.10583,2.046112 0,2.116668 0.24695,4.868337 0,0.246945 0.17638,0.811389 0.17639,0.564445 0.17639,0.846668 0,0.670278 -0.91722,1.128889 -0.42333,0.211667 -1.12889,0.211667 -1.16417,0 -2.18722,-0.529167 -1.16417,-0.564445 -1.34056,-1.481668 -0.0353,-0.246944 -0.0353,-0.423333 0,-0.529167 0.35278,-0.952501 0.38806,-0.458611 0.38806,-0.599722 l -0.635,-22.860016 q 0,-0.105833 -0.10584,-0.423333 -0.10583,-0.317501 -0.10583,-0.49389 0,-0.635 0.91722,-0.987778 0.70556,-0.282223 1.48167,-0.282223 0.24694,0 1.97556,0.211667 0.21166,0 2.08139,-0.740834 1.905,-0.776111 3.35139,-0.776111 2.82222,0 4.79778,2.786946 z m -5.25639,1.411112 q -0.84667,0 -2.18723,0.917223 -1.30528,0.881945 -2.29305,2.046113 l 0.14111,8.113894 q 1.55222,-1.164168 3.35139,-4.65667 1.83444,-3.52778 1.83444,-5.362226 0,-1.058334 -0.84666,-1.058334 z"
         style="font-family:'Marker Felt';-inkscape-font-specification:'Marker Felt';vector-effect:non-scaling-stroke"
         id="path2460" /><path
         d="m 263.06679,64.184524 q -0.24694,0.458611 -1.09361,0.564444 -0.0706,0 -1.51694,0.07056 0.24694,1.587501 1.83444,3.951114 0.91722,0.670278 0.91722,1.76389 0,1.728612 -2.11666,1.728612 -2.01084,0 -2.75167,-1.023056 -0.24695,-0.352778 -0.3175,-0.952501 0,-0.388056 -0.0353,-0.811389 -0.3175,-0.3175 -1.905,-4.092225 -2.89278,0.423333 -7.12612,1.199445 -0.42333,1.023056 -0.91722,2.963335 0.0705,0.352778 0.0705,0.670279 0,0.9525 -0.635,1.446389 -0.635,0.529168 -1.51694,0.529168 -0.98778,0 -1.83445,-0.740834 -0.84666,-0.740834 -0.84666,-1.728613 0,-0.881945 0.81139,-1.587501 2.64583,-13.440842 6.42056,-22.225015 -0.0706,-0.423333 -0.0706,-0.846667 0,-1.76389 1.19944,-2.328335 0.49389,-0.211667 1.27001,-0.211667 1.48166,0 2.46944,0.458612 1.27,0.635 1.27,1.905001 0,1.164168 -0.635,2.08139 0.67028,5.997227 2.89278,13.828899 0.21167,-0.03528 1.44639,-0.352778 0.74084,-0.211667 1.12889,-0.211667 0.45861,0 0.74084,0.211667 1.23472,0.9525 1.23472,2.328334 0,0.740834 -0.38806,1.411113 z m -8.46667,-2.681113 q -0.59972,-2.222502 -1.905,-8.537228 -2.50473,5.468059 -2.96334,9.383895 z"
         style="font-family:'Marker Felt';-inkscape-font-specification:'Marker Felt';vector-effect:non-scaling-stroke"
         id="path2462" /><path
         d="m 285.15066,69.05286 q 0.0353,0.211667 0.0353,0.388056 0,1.058334 -1.23473,1.799168 -1.23472,0.705556 -2.57528,0.705556 -0.81138,0 -1.30527,-0.3175 -0.35278,-0.211667 -0.635,-0.81139 -0.24695,-0.635 -0.56445,-0.846667 l -7.79639,-5.221115 0.3175,3.245558 q 0.0353,0.246945 0.52916,1.023056 0.52917,0.776112 0.52917,1.305279 0,0.776112 -0.98778,1.44639 -0.59972,0.423334 -1.51694,0.423334 -1.30528,0 -2.43417,-0.705557 -1.23472,-0.705556 -1.48167,-1.799167 -0.0353,-0.211667 -0.0353,-0.352778 0,-0.49389 0.45861,-0.846668 0.49389,-0.388055 0.49389,-0.705556 l -1.12889,-20.108347 q -0.0353,-0.458611 -0.38805,-1.199445 -0.35278,-0.776111 -0.35278,-1.128889 0,-0.917223 1.19945,-1.481668 0.98777,-0.493889 2.01083,-0.493889 0.67028,0 1.16417,0.211666 0.49389,0.176389 0.67028,0.599723 0.17638,0.388056 0.42333,0.388056 0.0353,0.03528 2.15195,-0.776112 2.46944,-0.917223 4.33916,-0.917223 2.7164,0 4.37445,1.905002 0.45861,0.529167 0.45861,1.481667 0,2.57528 -2.96333,7.267228 -2.82223,4.409725 -5.82084,7.05556 l 9.10167,6.350004 q 0.0353,0.03528 1.76389,0.846667 0.98778,0.458612 1.19945,1.270001 z m -9.45445,-21.907515 q -0.77611,0 -2.46945,1.481668 -0.35278,0.282223 -2.61056,2.434168 l -0.0705,6.314727 q 2.18722,-2.398891 3.95111,-5.326948 1.76389,-2.963335 1.76389,-4.233336 0,-0.670279 -0.56444,-0.670279 z"
         style="font-family:'Marker Felt';-inkscape-font-specification:'Marker Felt';vector-effect:non-scaling-stroke"
         id="path2464" /><path
         d="m 306.03509,67.571193 q 0.10584,0.388055 0.10584,0.811389 0,1.481668 -1.16417,2.751668 -1.16417,1.270001 -2.50472,1.270001 -0.42334,0 -0.81139,-0.141111 -1.27,-0.458611 -1.69334,-2.046112 -0.45861,-1.834446 -1.12889,-2.363613 l -6.35,-4.938892 0.42333,4.233336 q 0.0353,0.493889 0.35278,1.375834 0.3175,0.846667 0.3175,1.270001 0,0.740834 -0.70556,1.375834 -0.67027,0.635001 -1.65805,0.635001 -1.09361,0 -2.32834,-0.81139 -1.34055,-0.917223 -1.34055,-1.940279 0,-0.388056 0.38805,-0.846667 0.38806,-0.458611 0.38806,-0.846667 l -0.91723,-20.813903 q -0.0353,-0.458612 -0.38805,-1.093612 -0.3175,-0.635 -0.3175,-0.952501 0,-0.670278 0.91722,-1.481667 0.21167,-0.176389 1.12889,-0.176389 3.13973,0 3.95111,1.44639 0.21167,0.388055 0.21167,0.740833 0,0.352778 -0.3175,0.987779 -0.3175,0.599722 -0.3175,1.023056 v 8.607784 l 5.92667,-10.512785 q 0.35278,-0.917223 0.67028,-1.834446 0.45861,-0.952501 1.62278,-0.952501 1.12889,0 2.29306,0.81139 1.30527,0.917223 1.12889,1.975557 -0.14112,0.776111 -0.67028,1.058334 -0.67028,0.388056 -0.81139,0.635 l -7.12612,12.417786 8.18445,6.208893 q 0.74084,0.458612 1.51695,0.952501 0.81139,0.493889 1.02305,1.164168 z"
         style="font-family:'Marker Felt';-inkscape-font-specification:'Marker Felt';vector-effect:non-scaling-stroke"
         id="path2466" /></g><rect
       style="vector-effect:non-scaling-stroke;fill:none;stroke:#ffff00;stroke-width:0.264583;stroke-opacity:1;-inkscape-stroke:hairline;stop-color:#000000"
       id="rect716"
       width="57.903198"
       height="57.903198"
       x="93.402603"
       y="28.616199" /><rect
       style="vector-effect:non-scaling-stroke;fill:none;stroke:#ffff00;stroke-width:0.264582;stroke-opacity:1;-inkscape-stroke:hairline;stop-color:#000000"
       id="rect1272"
       width="166.58305"
       height="57.903198"
       x="151.3058"
       y="28.616199" /><path
       id="path2062"
       style="vector-effect:non-scaling-stroke;fill:none;stroke:#ff0000;stroke-width:0.264583;-inkscape-stroke:hairline;stop-color:#000000"
       d="m 121.84099,105.0678 -47.590998,47.50002 47.590998,47.49999 h 230.0005 V 105.0678 h -48.51057"
       sodipodi:nodetypes="cccccc" /><g
       aria-label="CAR PARK"
       id="text2066"
       style="font-size:35.2778px;line-height:1.25;text-align:center;text-anchor:middle;vector-effect:non-scaling-stroke;fill:none;stroke:#0000ff;stroke-width:0.264583;-inkscape-stroke:hairline"><path
         d="m 135.19472,158.93758 q -3.35139,8.36084 -6.70278,8.39612 -4.05695,0.0353 -5.92668,-4.19806 -1.44639,-3.24556 -1.48166,-8.50195 -0.0353,-5.92667 1.55222,-10.79501 1.83445,-5.67973 4.97417,-6.0325 0.45861,-0.0353 0.88195,-0.0353 2.92805,0 4.51555,2.61056 1.16417,1.97555 1.97556,6.27944 0.59972,1.72862 0.59972,2.11667 0,1.16417 -1.44639,1.79917 -0.3175,0.14111 -0.74083,0.14111 -1.02306,0 -2.25778,-0.67028 -1.44639,-0.77611 -1.44639,-1.69333 0,-0.14111 0.49389,-1.37584 -0.0706,-1.55222 -0.56444,-2.92805 -0.49389,-1.41112 -1.12889,-1.55223 -0.98778,-0.24694 -1.72862,3.91584 -0.635,3.45722 -0.77611,7.62 -0.10583,3.13973 0.35278,5.82084 0.52917,3.06917 1.5875,3.28084 0.635,0.10583 1.51695,-1.5875 0.84666,-1.55223 1.41111,-3.6689 -0.0706,-0.35277 -0.0706,-0.67027 0,-2.08139 2.54,-2.08139 0.56445,0 1.12889,0.10583 1.72862,0.35278 1.72862,1.72861 0,1.12889 -0.98778,1.97556 z"
         style="font-family:'Marker Felt';-inkscape-font-specification:'Marker Felt';vector-effect:non-scaling-stroke"
         id="path2469" /><path
         d="m 156.99636,159.18452 q -0.24695,0.45861 -1.09361,0.56445 -0.0706,0 -1.51695,0.0705 0.24695,1.58751 1.83445,3.95112 0.91722,0.67028 0.91722,1.76389 0,1.72861 -2.11667,1.72861 -2.01083,0 -2.75167,-1.02306 -0.24694,-0.35277 -0.3175,-0.9525 0,-0.38805 -0.0353,-0.81139 -0.3175,-0.3175 -1.90501,-4.09222 -2.89278,0.42333 -7.12611,1.19944 -0.42334,1.02306 -0.91722,2.96334 0.0705,0.35278 0.0705,0.67028 0,0.9525 -0.635,1.44639 -0.635,0.52916 -1.51694,0.52916 -0.98778,0 -1.83445,-0.74083 -0.84667,-0.74083 -0.84667,-1.72861 0,-0.88195 0.81139,-1.5875 2.64584,-13.44085 6.42056,-22.22502 -0.0705,-0.42333 -0.0705,-0.84666 0,-1.76389 1.19944,-2.32834 0.49389,-0.21167 1.27,-0.21167 1.48167,0 2.46945,0.45861 1.27,0.63501 1.27,1.90501 0,1.16416 -0.635,2.08139 0.67028,5.99722 2.89278,13.82889 0.21167,-0.0353 1.44639,-0.35277 0.74083,-0.21167 1.12889,-0.21167 0.45861,0 0.74083,0.21167 1.23472,0.9525 1.23472,2.32833 0,0.74084 -0.38805,1.41111 z m -8.46667,-2.68111 q -0.59973,-2.2225 -1.905,-8.53723 -2.50473,5.46806 -2.96334,9.3839 z"
         style="font-family:'Marker Felt';-inkscape-font-specification:'Marker Felt';vector-effect:non-scaling-stroke"
         id="path2471" /><path
         d="m 179.08022,164.05286 q 0.0353,0.21167 0.0353,0.38806 0,1.05833 -1.23472,1.79916 -1.23472,0.70556 -2.57528,0.70556 -0.81139,0 -1.30528,-0.3175 -0.35278,-0.21167 -0.635,-0.81139 -0.24694,-0.635 -0.56444,-0.84667 l -7.7964,-5.22111 0.3175,3.24556 q 0.0353,0.24694 0.52917,1.02305 0.52917,0.77611 0.52917,1.30528 0,0.77611 -0.98778,1.44639 -0.59972,0.42333 -1.51695,0.42333 -1.30528,0 -2.43417,-0.70555 -1.23472,-0.70556 -1.48166,-1.79917 -0.0353,-0.21167 -0.0353,-0.35278 0,-0.49389 0.45861,-0.84666 0.49389,-0.38806 0.49389,-0.70556 l -1.12889,-20.10835 q -0.0353,-0.45861 -0.38806,-1.19944 -0.35277,-0.77611 -0.35277,-1.12889 0,-0.91723 1.19944,-1.48167 0.98778,-0.49389 2.01084,-0.49389 0.67027,0 1.16416,0.21167 0.49389,0.17639 0.67028,0.59972 0.17639,0.38806 0.42333,0.38806 0.0353,0.0353 2.15195,-0.77612 2.46945,-0.91722 4.33917,-0.91722 2.71639,0 4.37445,1.905 0.45861,0.52917 0.45861,1.48167 0,2.57528 -2.96334,7.26723 -2.82222,4.40972 -5.82083,7.05556 l 9.10167,6.35 q 0.0353,0.0353 1.76389,0.84667 0.98778,0.45861 1.19944,1.27 z m -9.45445,-21.90751 q -0.77611,0 -2.46944,1.48166 -0.35278,0.28223 -2.61056,2.43417 l -0.0706,6.31473 q 2.18723,-2.39889 3.95112,-5.32695 1.76389,-2.96334 1.76389,-4.23334 0,-0.67027 -0.56445,-0.67027 z"
         style="font-family:'Marker Felt';-inkscape-font-specification:'Marker Felt';vector-effect:non-scaling-stroke"
         id="path2473" /><path
         d="m 202.92794,139.71118 q 0.52917,0.77611 0.52917,2.08139 0,3.06917 -3.35139,9.45445 -3.49251,6.73806 -5.71501,6.73806 -0.56444,0 -0.84666,-0.635 -0.10584,0.81139 -0.10584,2.04611 0,2.11667 0.24695,4.86834 0,0.24694 0.17639,0.81139 0.17638,0.56444 0.17638,0.84666 0,0.67028 -0.91722,1.12889 -0.42333,0.21167 -1.12889,0.21167 -1.16417,0 -2.18722,-0.52917 -1.16417,-0.56444 -1.34056,-1.48166 -0.0353,-0.24695 -0.0353,-0.42334 0,-0.52917 0.35278,-0.9525 0.38806,-0.45861 0.38806,-0.59972 l -0.635,-22.86002 q 0,-0.10583 -0.10584,-0.42333 -0.10583,-0.3175 -0.10583,-0.49389 0,-0.635 0.91722,-0.98778 0.70556,-0.28222 1.48167,-0.28222 0.24695,0 1.97556,0.21167 0.21166,0 2.08139,-0.74084 1.905,-0.77611 3.35139,-0.77611 2.82222,0 4.79778,2.78695 z m -5.25639,1.41111 q -0.84667,0 -2.18723,0.91722 -1.30527,0.88195 -2.29305,2.04611 l 0.14111,8.1139 q 1.55222,-1.16417 3.35139,-4.65667 1.83445,-3.52778 1.83445,-5.36223 0,-1.05833 -0.84667,-1.05833 z"
         style="font-family:'Marker Felt';-inkscape-font-specification:'Marker Felt';vector-effect:non-scaling-stroke"
         id="path2475" /><path
         d="m 220.31981,159.18452 q -0.24694,0.45861 -1.09361,0.56445 -0.0705,0 -1.51694,0.0705 0.24694,1.58751 1.83444,3.95112 0.91722,0.67028 0.91722,1.76389 0,1.72861 -2.11666,1.72861 -2.01084,0 -2.75167,-1.02306 -0.24695,-0.35277 -0.3175,-0.9525 0,-0.38805 -0.0353,-0.81139 -0.3175,-0.3175 -1.905,-4.09222 -2.89278,0.42333 -7.12612,1.19944 -0.42333,1.02306 -0.91722,2.96334 0.0706,0.35278 0.0706,0.67028 0,0.9525 -0.635,1.44639 -0.63501,0.52916 -1.51695,0.52916 -0.98778,0 -1.83445,-0.74083 -0.84666,-0.74083 -0.84666,-1.72861 0,-0.88195 0.81139,-1.5875 2.64583,-13.44085 6.42056,-22.22502 -0.0706,-0.42333 -0.0706,-0.84666 0,-1.76389 1.19945,-2.32834 0.49389,-0.21167 1.27,-0.21167 1.48166,0 2.46944,0.45861 1.27,0.63501 1.27,1.90501 0,1.16416 -0.635,2.08139 0.67028,5.99722 2.89278,13.82889 0.21167,-0.0353 1.44639,-0.35277 0.74084,-0.21167 1.12889,-0.21167 0.45861,0 0.74084,0.21167 1.23472,0.9525 1.23472,2.32833 0,0.74084 -0.38806,1.41111 z m -8.46667,-2.68111 q -0.59972,-2.2225 -1.905,-8.53723 -2.50472,5.46806 -2.96334,9.3839 z"
         style="font-family:'Marker Felt';-inkscape-font-specification:'Marker Felt';vector-effect:non-scaling-stroke"
         id="path2477" /><path
         d="m 242.40368,164.05286 q 0.0353,0.21167 0.0353,0.38806 0,1.05833 -1.23472,1.79916 -1.23473,0.70556 -2.57528,0.70556 -0.81139,0 -1.30528,-0.3175 -0.35278,-0.21167 -0.635,-0.81139 -0.24695,-0.635 -0.56445,-0.84667 l -7.79639,-5.22111 0.3175,3.24556 q 0.0353,0.24694 0.52916,1.02305 0.52917,0.77611 0.52917,1.30528 0,0.77611 -0.98778,1.44639 -0.59972,0.42333 -1.51694,0.42333 -1.30528,0 -2.43417,-0.70555 -1.23472,-0.70556 -1.48167,-1.79917 -0.0353,-0.21167 -0.0353,-0.35278 0,-0.49389 0.45862,-0.84666 0.49388,-0.38806 0.49388,-0.70556 l -1.12888,-20.10835 q -0.0353,-0.45861 -0.38806,-1.19944 -0.35278,-0.77611 -0.35278,-1.12889 0,-0.91723 1.19945,-1.48167 0.98778,-0.49389 2.01083,-0.49389 0.67028,0 1.16417,0.21167 0.49389,0.17639 0.67028,0.59972 0.17639,0.38806 0.42333,0.38806 0.0353,0.0353 2.15195,-0.77612 2.46944,-0.91722 4.33917,-0.91722 2.71639,0 4.37444,1.905 0.45861,0.52917 0.45861,1.48167 0,2.57528 -2.96333,7.26723 -2.82222,4.40972 -5.82084,7.05556 l 9.10168,6.35 q 0.0353,0.0353 1.76389,0.84667 0.98777,0.45861 1.19944,1.27 z m -9.45445,-21.90751 q -0.77611,0 -2.46945,1.48166 -0.35277,0.28223 -2.61055,2.43417 l -0.0706,6.31473 q 2.18722,-2.39889 3.95111,-5.32695 1.76389,-2.96334 1.76389,-4.23334 0,-0.67027 -0.56444,-0.67027 z"
         style="font-family:'Marker Felt';-inkscape-font-specification:'Marker Felt';vector-effect:non-scaling-stroke"
         id="path2479" /><path
         d="m 263.28812,162.57119 q 0.10583,0.38806 0.10583,0.81139 0,1.48167 -1.16417,2.75167 -1.16417,1.27 -2.50472,1.27 -0.42334,0 -0.81139,-0.14111 -1.27,-0.45861 -1.69334,-2.04611 -0.45861,-1.83445 -1.12889,-2.36362 l -6.35,-4.93889 0.42333,4.23334 q 0.0353,0.49389 0.35278,1.37583 0.3175,0.84667 0.3175,1.27 0,0.74084 -0.70555,1.37584 -0.67028,0.635 -1.65806,0.635 -1.09361,0 -2.32834,-0.81139 -1.34055,-0.91722 -1.34055,-1.94028 0,-0.38806 0.38805,-0.84667 0.38806,-0.45861 0.38806,-0.84666 l -0.91722,-20.81391 q -0.0353,-0.45861 -0.38806,-1.09361 -0.3175,-0.635 -0.3175,-0.9525 0,-0.67028 0.91722,-1.48167 0.21167,-0.17639 1.12889,-0.17639 3.13973,0 3.95112,1.44639 0.21166,0.38806 0.21166,0.74084 0,0.35278 -0.3175,0.98778 -0.3175,0.59972 -0.3175,1.02305 v 8.60779 l 5.92667,-10.51279 q 0.35278,-0.91722 0.67028,-1.83444 0.45861,-0.95251 1.62278,-0.95251 1.12889,0 2.29306,0.81139 1.30528,0.91723 1.12889,1.97556 -0.14111,0.77611 -0.67028,1.05833 -0.67028,0.38806 -0.81139,0.63501 l -7.12612,12.41778 8.18445,6.20889 q 0.74084,0.45862 1.51695,0.95251 0.81139,0.49388 1.02306,1.16416 z"
         style="font-family:'Marker Felt';-inkscape-font-specification:'Marker Felt';vector-effect:non-scaling-stroke"
         id="path2481" /></g><rect
       style="vector-effect:non-scaling-stroke;fill:none;stroke:#ffff00;stroke-width:0.264583;stroke-opacity:1;-inkscape-stroke:hairline;stop-color:#000000"
       id="rect2068"
       width="57.903198"
       height="57.903198"
       x="275.14191"
       y="123.61621" /><rect
       style="vector-effect:non-scaling-stroke;fill:none;stroke:#ffff00;stroke-width:0.264582;stroke-opacity:1;-inkscape-stroke:hairline;stop-color:#000000"
       id="rect2070"
       width="166.58305"
       height="57.903198"
       x="108.55883"
       y="123.61621" /><path
       style="fill:none;stroke-width:0.26458333;stroke:#0000ff;stroke-opacity:1;vector-effect:non-scaling-stroke;-inkscape-stroke:hairline;stroke-dasharray:none"
       d="m 103.16802,77.929402 c -0.84155,-0.130353 -1.44217,-0.350721 -1.87315,-0.687262 -0.30257,-0.236266 -0.73029,-1.125402 -0.95722,-1.989835 -0.32274,-1.229394 -0.925511,-4.454058 -1.303411,-6.972932 -0.0526,-0.350582 -0.16009,-1.062371 -0.23887,-1.58175 -0.18542,-1.222504 -0.24124,-3.014789 -0.11733,-3.767724 0.11616,-0.705825 0.41846,-1.219522 0.81522,-1.3853 0.20039,-0.08373 0.3339,-0.03067 0.545821,0.216916 0.21208,0.247765 0.28785,0.467135 0.38392,1.111578 0.12939,0.867905 0.63682,3.985781 0.83375,5.122981 0.19488,1.125307 0.3326,1.729169 0.7538,3.305149 0.23645,0.884682 0.8021,2.636712 1.05184,3.257933 0.0783,0.194768 0.19893,0.534727 0.26807,0.755462 l 0.12571,0.40134 0.23366,0.03182 c 1.15704,0.157565 4.0818,0.296434 4.0818,0.193808 0,-0.02667 -0.0336,-0.141469 -0.0746,-0.255103 -0.33135,-0.917241 -0.51295,-1.438537 -0.60653,-1.741139 -0.0602,-0.194768 -0.23008,-0.700166 -0.37743,-1.123106 -0.14735,-0.42294 -0.33064,-1.015679 -0.40731,-1.317198 -0.0767,-0.301517 -0.15818,-0.571649 -0.18111,-0.600293 -0.0229,-0.02864 -0.10226,-0.243305 -0.17627,-0.477026 -0.11366,-0.358927 -0.13469,-0.505642 -0.13538,-0.944329 -8.9e-4,-0.606779 0.0751,-0.811637 0.38112,-1.027128 0.2335,-0.164402 0.57853,-0.207801 1.95528,-0.245929 0.55833,-0.01547 1.14263,-0.03772 1.29845,-0.04945 0.42165,-0.03175 1.46678,-0.06474 3.7301,-0.117734 1.11666,-0.02615 2.76334,-0.06925 3.65927,-0.09578 1.54404,-0.04572 4.68302,-0.123077 9.75019,-0.240271 1.24651,-0.02883 4.63547,-0.05528 7.53102,-0.05878 5.81135,-0.007 5.54516,-0.02035 5.85855,0.293278 0.25292,0.253103 0.27935,0.448318 0.28103,2.075308 7.1e-4,0.7713 0.0212,1.667957 0.0454,1.992569 0.0242,0.324613 0.0588,1.23419 0.077,2.021283 l 0.0331,1.431078 1.56233,-0.03013 c 0.85929,-0.01658 1.58581,-0.03722 1.61451,-0.04589 0.06,-0.01811 0.0656,-0.04808 0.25415,-1.346036 0.25464,-1.753276 0.28494,-2.030718 0.42536,-3.895354 0.0254,-0.337597 0.068,-1.293729 0.0947,-2.124739 0.0267,-0.831009 0.0591,-1.627786 0.072,-1.770615 0.022,-0.242244 0.12019,-2.804063 0.18828,-4.910508 0.0315,-0.975994 -0.0398,-1.845061 -0.19176,-2.337212 -0.0864,-0.27982 -0.095,-0.880609 -0.0175,-1.22689 0.0827,-0.369554 -0.0159,-0.615673 -0.63756,-1.592106 -0.15371,-0.241417 -0.36273,-0.587669 -0.46447,-0.769453 -0.10175,-0.181782 -0.27989,-0.468623 -0.39588,-0.637421 -0.11598,-0.168799 -0.26235,-0.406111 -0.32526,-0.52736 -0.0629,-0.12125 -0.21615,-0.344348 -0.34054,-0.495773 -0.25566,-0.311238 -0.22089,-0.262423 -0.78986,-1.108919 -0.23294,-0.346559 -0.60477,-0.87098 -0.82629,-1.16538 -0.22151,-0.294399 -0.44278,-0.602486 -0.4917,-0.684638 -0.0489,-0.08215 -0.20678,-0.329969 -0.3508,-0.550706 -0.63382,-0.971456 -0.87793,-1.374825 -1.21441,-2.006698 -0.12446,-0.233721 -0.33702,-0.60555 -0.47234,-0.826287 -0.13533,-0.220736 -0.28308,-0.475705 -0.32834,-0.566596 -0.0453,-0.09089 -0.12197,-0.208774 -0.17047,-0.261961 -0.08,-0.08777 -0.19475,-0.285639 -0.68985,-1.189944 -0.0889,-0.162307 -0.17954,-0.295103 -0.2015,-0.295103 -0.022,0 -0.16799,-0.228409 -0.3245,-0.507576 -0.15651,-0.279167 -0.36022,-0.623721 -0.45268,-0.765675 -0.0925,-0.141954 -0.16812,-0.276034 -0.16812,-0.297956 0,-0.02192 -0.13574,-0.245737 -0.30165,-0.497365 -0.16592,-0.251628 -0.4461,-0.691227 -0.62264,-0.976887 -0.17654,-0.285659 -0.50293,-0.793355 -0.7253,-1.128213 -0.22238,-0.334858 -0.43798,-0.667808 -0.47913,-0.739889 -0.23579,-0.413112 -0.49928,-0.752121 -0.58622,-0.754246 -0.10165,-0.0025 -0.23537,-0.05034 -0.76466,-0.273671 -0.76008,-0.320703 -1.7323,-0.4856 -4.90131,-0.831303 -1.38291,-0.15086 -3.81015,-0.27657 -6.46865,-0.33502 -0.72714,-0.01599 -1.41768,-0.03883 -1.53454,-0.05076 -0.11686,-0.01193 -1.88039,-0.0346 -3.91896,-0.05038 -5.33195,-0.04128 -6.29324,0.07136 -6.93096,0.465491 -0.32185,0.198917 -0.72445,0.567517 -1.00376,0.919 -0.15451,0.194442 -0.28094,0.375807 -0.28094,0.403035 0,0.02723 -0.0937,0.201127 -0.2082,0.386442 -0.30984,0.501424 -0.8286,1.49539 -1.08764,2.083945 -0.12573,0.285659 -0.32204,0.717661 -0.43624,0.960004 -0.11421,0.242343 -0.33189,0.731073 -0.48373,1.086066 -0.15184,0.354992 -0.36115,0.815381 -0.46513,1.023085 -0.10398,0.207704 -0.25753,0.526375 -0.34124,0.708158 -0.0837,0.181784 -0.28983,0.617355 -0.45804,0.967937 -0.16822,0.350582 -0.36595,0.764906 -0.43941,0.92072 -0.0735,0.155813 -0.38934,0.803859 -0.70196,1.4401 -0.31263,0.636241 -0.58289,1.220545 -0.60058,1.298451 -0.0177,0.07791 -0.16613,0.396618 -0.32985,0.708247 -0.16372,0.311628 -0.40261,0.800318 -0.53085,1.085978 -0.12825,0.285659 -0.32147,0.706619 -0.42937,0.935467 -0.1079,0.228848 -0.23791,0.521953 -0.28891,0.651344 -0.051,0.129391 -0.282,0.632691 -0.513331,1.118446 -0.23133,0.485755 -0.49473,1.063793 -0.58533,1.28453 -0.0906,0.220737 -0.28095,0.645685 -0.42301,0.944329 -0.519469,2.324047 -2.309045,2.647388 -2.247444,0.849896 0.04956,-0.142831 0.129373,-0.34468 0.177369,-0.448558 0.048,-0.103875 0.165805,-0.390714 0.261798,-0.637421 0.096,-0.246706 0.22338,-0.565417 0.283081,-0.708246 0.330281,-0.79017 0.634141,-1.554553 1.144946,-2.880201 0.19304,-0.500963 0.53446,-1.313274 0.70549,-1.678471 0.0878,-0.187519 0.15966,-0.355846 0.15966,-0.374061 0,-0.01821 -0.56837,-0.02385 -1.263039,-0.01253 -1.552512,0.02531 -1.930924,-0.0043 -2.303041,-0.180359 -0.33494,-0.158453 -0.611231,-0.427409 -0.652854,-0.635524 -0.01679,-0.084 -0.03008,-0.39972 -0.02951,-0.70161 8.93e-4,-0.435182 0.01946,-0.589468 0.08997,-0.744758 0.169499,-0.373289 1.804036,-2.698691 2.353985,-3.348937 0.129554,-0.153181 0.297743,-0.246552 0.542441,-0.301141 0.336368,-0.07504 1.130138,-0.0658 1.658308,0.01931 0.256901,0.0414 0.745591,0.09483 1.085971,0.118752 0.34039,0.02392 0.68918,0.06476 0.7751,0.09076 0.15315,0.04635 0.15786,0.04341 0.24105,-0.15089 0.0467,-0.108989 0.1011,-0.251281 0.12098,-0.316204 0.0688,-0.224663 0.65133,-1.568394 1.13608,-2.620511 0.0957,-0.207752 0.20393,-0.461198 0.24047,-0.563212 0.13123,-0.366356 0.79898,-1.813903 1.22127,-2.647504 0.54632,-1.078414 1.0736,-1.907912 1.50409,-2.366196 0.36099,-0.384301 0.54425,-0.525962 1.13986,-0.881131 0.42058,-0.250792 0.68097,-0.33982 1.20441,-0.411791 0.19477,-0.02678 0.53473,-0.07927 0.75546,-0.116649 1.28098,-0.216907 2.2143,-0.388474 3.96618,-0.448691 3.812,-0.131029 8.65165,-0.09037 11.52081,0.0968 0.85953,0.05607 3.05606,0.251104 3.96618,0.352164 0.35058,0.03893 0.93489,0.09178 1.29845,0.117448 0.36357,0.02567 0.88413,0.07803 1.1568,0.116359 2.48468,0.349268 2.80832,0.409545 2.96001,0.551297 0.15148,0.141562 0.70317,0.923718 0.91032,1.290599 0.088,0.155814 0.19978,0.336417 0.24846,0.401339 0.15219,0.202969 0.30196,0.447693 0.50946,0.832496 0.11019,0.204337 0.23664,0.414018 0.281,0.465956 0.0444,0.05194 0.16666,0.253788 0.27179,0.448556 0.10512,0.194767 0.31277,0.534726 0.46143,0.755462 0.14866,0.220737 0.36507,0.589961 0.48091,0.820499 0.11584,0.230537 0.34184,0.617544 0.50222,0.860015 0.42211,0.638149 0.81041,1.285794 0.91745,1.530203 0.11024,0.251718 0.74292,1.225538 0.85126,1.310255 0.16174,0.126466 0.65091,0.03998 1.97613,-0.349373 0.597,-0.175402 0.6211,-0.178465 1.41006,-0.179238 0.70634,-6.96e-4 0.83697,0.01154 1.08838,0.101893 0.45137,0.162217 0.98834,0.489028 1.29617,0.78888 l 0.28318,0.275837 c 1.73228,2.093372 0.98058,2.923787 0,5.26731 l -0.24142,-0.06369 c -0.19112,-0.05042 -0.39525,-0.05422 -0.97974,-0.01823 -0.40608,0.025 -0.82862,0.05688 -0.93899,0.07085 -0.19632,0.02485 -0.20067,0.02929 -0.20067,0.204327 0,0.302891 0.12381,0.560546 0.55525,1.155474 0.46383,0.639593 1.02032,1.55413 1.36804,2.248261 1.12146,3.168107 0.85545,6.914604 1.09986,10.284732 0.43145,5.949369 -0.678,11.090322 -0.70328,11.303454 -0.0364,0.306624 -0.07,0.400911 -0.2122,0.594613 -0.0929,0.12661 -0.2493,0.285811 -0.34746,0.353774 -0.17618,0.121989 -0.19693,0.124501 -1.61857,0.196073 -1.9346,0.0974 -3.27726,0.09609 -3.75958,-0.0037 -0.69584,-0.143901 -1.08519,-0.458843 -1.32519,-1.071919 l -0.13265,-0.338859 -0.004,-2.006698 c -0.005,-2.576412 -0.0687,-3.259681 -0.35505,-3.83221 -0.19824,-0.396313 -0.15688,-0.389887 -2.28375,-0.354749 -0.98746,0.01631 -2.1672,0.05035 -2.62166,0.07564 -0.45446,0.02529 -1.71868,0.06839 -2.80938,0.09578 -1.09069,0.02739 -2.49302,0.07105 -3.11628,0.09703 -0.62326,0.02598 -2.55677,0.0688 -4.29669,0.09517 -1.73993,0.02636 -3.58845,0.06843 -4.10783,0.09347 -0.51938,0.02505 -2.08107,0.06655 -3.47041,0.09223 -3.47014,0.06415 -7.14925,0.15317 -7.17276,0.173563 -0.0391,0.03388 0.0897,0.25114 0.3435,0.579652 0.20017,0.259074 0.27249,0.398235 0.31543,0.606941 0.0707,0.343831 0.14956,0.658348 0.32822,1.309557 0.14294,0.521024 0.43352,1.675035 0.58851,2.337211 0.11069,0.472935 0.1479,1.208076 0.0758,1.496764 -0.0312,0.12465 -0.1207,0.326863 -0.19899,0.449363 -0.13735,0.214898 -0.22504,0.273203 -0.77193,0.51326 -0.20202,0.08868 -0.77799,0.140132 -2.06259,0.184257 -1.76907,0.06077 -2.8484,0.05152 -3.3673,-0.02886 z m -3.0129,-28.223644 c 0.0309,-0.02929 0.17193,-0.318854 0.31342,-0.643467 0.14148,-0.324613 0.334,-0.751379 0.4278,-0.948367 0.19804,-0.415875 0.20103,-0.441172 0.0764,-0.645584 -0.10093,-0.165541 -0.37182,-0.312172 -0.89739,-0.485752 -0.259211,-0.08561 -0.391291,-0.09876 -0.849901,-0.08459 -0.49077,0.01516 -0.55817,0.02808 -0.70094,0.1344 -0.163799,0.12198 -0.998331,1.117591 -1.164104,1.388795 -0.05194,0.08497 -0.163487,0.232848 -0.247888,0.328614 -0.09823,0.111465 -0.153452,0.223664 -0.153452,0.311803 0,0.126272 0.07372,0.554703 0.120162,0.698374 0.026,0.08044 2.988973,0.0282 3.075893,-0.05423 z m 44.11435,-0.345157 c 0.32436,-0.04026 0.63716,-0.09123 0.69511,-0.113258 0.14303,-0.05438 0.17287,-0.210211 0.14278,-0.745553 -0.0386,-0.686799 -0.27292,-1.225028 -0.78814,-1.810355 -0.20432,-0.232119 -0.73051,-0.513825 -1.17698,-0.630114 -0.50015,-0.130273 -1.31165,-0.04182 -1.54005,0.167869 -0.0519,0.04768 -0.23493,0.153493 -0.40666,0.235138 -0.17173,0.08164 -0.38261,0.221061 -0.46863,0.309813 l -0.15641,0.161369 0.2533,0.48499 c 0.13932,0.266743 0.32047,0.580602 0.40257,0.697462 0.0821,0.11686 0.26767,0.415679 0.41237,0.664039 0.14471,0.248361 0.29818,0.480678 0.34106,0.516262 0.22949,0.190461 1.07245,0.21341 2.28968,0.06234 z m -11.80366,14.820075 c -0.14283,-0.04806 -0.32606,-0.12205 -0.40717,-0.164424 -0.41171,-0.215064 -0.82459,-0.814142 -0.94034,-1.364394 -0.25771,-1.225108 0.20663,-2.395401 1.43992,-3.629077 0.6543,-0.654507 0.98933,-0.900398 2.03772,-1.495553 0.19218,-0.109098 1.27511,-0.575804 1.59997,-0.689532 0.7713,-0.270016 1.62275,-0.376285 3.04546,-0.3801 1.68351,-0.0045 2.70406,0.149758 3.46142,0.523243 0.50012,0.246635 1.10726,0.842559 1.3493,1.324383 0.263,0.523566 0.32479,0.861634 0.29979,1.640452 -0.0325,1.011987 -0.28326,1.918617 -0.84607,3.058928 -0.15106,0.306052 -0.27465,0.570502 -0.27465,0.587668 0,0.01717 -0.0541,0.109231 -0.12015,0.20459 -0.2344,0.338228 0.002,0.319491 -4.71954,0.374072 -2.33721,0.02702 -4.56819,0.05992 -4.95772,0.07312 -0.60681,0.02056 -0.74544,0.01149 -0.96794,-0.06338 z m 9.88721,-1.531861 c 0.0595,-0.136338 0.13357,-0.379631 0.16457,-0.540651 0.0549,-0.284896 0.32706,-1.377192 0.52126,-2.091664 0.17641,-0.649031 0.11416,-1.130155 -0.18918,-1.461999 l -0.18533,-0.202756 -0.34221,0.03324 c -0.18822,0.01828 -0.49762,0.06275 -0.68757,0.09883 -0.18994,0.03607 -0.50865,0.07761 -0.70824,0.09229 -1.54996,0.114066 -3.85537,0.389259 -4.32907,0.516757 -0.12985,0.03495 -0.33099,0.07745 -0.44698,0.09444 -0.43696,0.06402 -1.17652,0.364846 -1.67654,0.681947 -0.38862,0.246458 -0.91492,0.920595 -1.10381,1.413887 -0.1697,0.443165 -0.31662,1.087156 -0.26048,1.141751 0.0773,0.07513 1.02648,0.155528 3.62946,0.307401 2.09686,0.122344 2.83608,0.150087 4.19306,0.157366 l 1.31285,0.007 z m -34.605,0.553029 c -0.46745,-0.03282 -1.2536,-0.08393 -1.74701,-0.113576 -0.49341,-0.02965 -1.23707,-0.0744 -1.65257,-0.09945 -0.41551,-0.02505 -1.18042,-0.06501 -1.6998,-0.0888 -1.0216,-0.04679 -1.54129,-0.153431 -1.72441,-0.353839 -0.44949,-0.491926 -0.5206,-0.665485 -0.73667,-1.797833 -0.194121,-1.017371 -0.188671,-1.843403 0.02,-3.031012 0.13081,-0.744462 0.17263,-0.89606 0.31352,-1.136453 0.17378,-0.296502 0.4886,-0.615795 0.73053,-0.740905 0.5655,-0.29243 3.01482,-0.147781 5.59928,0.330673 0.49342,0.09134 1.00335,0.195502 1.1332,0.231461 0.12984,0.03596 0.31045,0.07882 0.40134,0.09524 0.62255,0.112498 1.6267,0.397085 2.43164,0.689151 1.13493,0.411801 1.40825,0.525058 2.19232,0.908449 1.399,0.684069 2.80448,2.367712 3.07638,3.685245 0.19208,0.930729 0.0787,1.385318 -0.36764,1.473875 -0.27954,0.05546 -0.78644,-0.314705 -1.00665,-0.735109 -0.034,-0.06492 -0.19798,-0.307078 -0.36438,-0.538124 -0.1664,-0.231047 -0.34504,-0.528511 -0.39696,-0.661031 -0.0519,-0.132519 -0.15131,-0.301679 -0.22086,-0.37591 -0.11678,-0.124662 -0.77486,-0.59689 -0.8318,-0.59689 -0.0137,0 -0.15812,-0.06501 -0.32084,-0.144465 -0.77245,-0.377182 -1.66971,-0.699693 -2.77472,-0.997336 -0.29864,-0.08044 -0.64922,-0.177356 -0.77907,-0.215364 -0.51208,-0.149892 -1.10595,-0.302025 -1.51092,-0.387054 -0.23373,-0.04907 -0.67992,-0.143498 -0.99155,-0.20983 -0.77347,-0.164644 -1.22252,-0.238915 -2.71494,-0.449049 -0.66107,-0.09308 -1.55525,-0.193804 -1.72047,-0.193804 -0.15026,0 -0.16866,0.01538 -0.21188,0.177062 -0.17688,0.661778 -0.20712,0.873833 -0.21041,1.475511 -0.003,0.555767 0.014,0.705796 0.13317,1.171155 0.0993,0.387879 0.16162,0.54709 0.22798,0.582609 0.0941,0.05038 0.34759,0.05979 3.67026,0.136313 1.07772,0.02482 2.46942,0.06639 3.09268,0.09237 1.01579,0.04235 1.17355,0.06008 1.52273,0.171171 0.45817,0.145761 0.63983,0.312378 0.69126,0.634016 0.027,0.168869 0.0101,0.248335 -0.0992,0.466754 -0.1079,0.215636 -0.17284,0.283624 -0.35909,0.375971 -0.49987,0.247854 -1.12817,0.285806 -2.79448,0.168801 z m 9.72658,-0.01722 c -0.17481,-0.05286 -0.38967,-0.189415 -0.41923,-0.266432 -0.0548,-0.142785 -0.0296,-0.355227 0.0638,-0.53836 0.15027,-0.294554 0.28993,-0.323662 1.81912,-0.379158 0.72713,-0.02639 1.71514,-0.06847 2.19556,-0.09351 1.64862,-0.08594 5.17077,-0.155993 6.24095,-0.12413 1.00984,0.03007 1.09042,0.03922 1.41649,0.161017 0.67702,0.252874 0.98317,0.477671 0.98317,0.721918 0,0.288465 0.10211,0.279683 -3.47659,0.298947 -1.78846,0.0096 -3.60233,0.03962 -4.03082,0.06665 -0.42849,0.02703 -1.46961,0.07138 -2.31361,0.09855 -0.84399,0.02717 -1.72576,0.05698 -1.95948,0.06624 -0.23372,0.0093 -0.46744,0.004 -0.51938,-0.01172 z m -0.78778,-4.01635 c -0.33552,-0.04304 -0.9526,-0.325318 -1.02517,-0.468955 -0.12645,-0.25027 0.27115,-0.725357 0.67081,-0.801547 0.73572,-0.140255 11.07926,-0.183563 12.46331,-0.05219 0.81502,0.07737 1.22042,0.313118 1.14936,0.668397 -0.0411,0.205625 -0.23608,0.447035 -0.44856,0.555431 -0.17219,0.08785 -0.37893,0.0916 -6.33606,0.115077 -3.38694,0.01335 -6.3001,0.0061 -6.47369,-0.01622 z M 106.4754,51.559502 c -0.66722,-0.09723 -1.30457,-0.441458 -1.29919,-0.701692 0.002,-0.110556 0.20206,-0.313297 0.41651,-0.422702 0.27121,-0.138357 0.63619,-0.225981 1.39983,-0.33607 0.36357,-0.05241 0.77789,-0.115725 0.92072,-0.140696 0.24956,-0.04363 2.28013,-0.282398 3.21072,-0.377538 0.24671,-0.02522 0.86288,-0.08843 1.36928,-0.140452 2.02655,-0.208202 1.39551,-0.234503 2.69133,-0.305216 0.74012,-0.04039 1.40941,-0.08342 1.48732,-0.09562 0.0779,-0.01221 1.06591,-0.05914 2.19556,-0.104306 1.50892,-0.06033 1.20515,-0.08255 4.08422,-0.08375 3.83474,-0.0016 4.27948,0.0089 8.00319,0.189232 0.76608,0.0371 2.21091,0.08845 3.21071,0.114116 2.83747,0.07284 3.25066,0.109095 3.80444,0.33386 0.29365,0.119184 0.35061,0.230385 0.35061,0.684492 0,0.478974 -0.11292,0.668974 -0.51938,0.873923 -0.38015,0.191685 -0.64066,0.233247 -1.46371,0.233527 -0.92417,3.57e-4 -2.97702,-0.07143 -4.037,-0.141092 -0.79874,-0.05249 -3.33801,-0.157104 -5.85484,-0.241205 -1.61074,-0.05382 -4.61221,-0.02005 -5.85484,0.05349 -0.38953,0.02305 -1.23943,0.06413 -1.88865,0.09128 -0.64923,0.02716 -1.55224,0.07142 -2.0067,0.09837 -0.45446,0.02695 -1.27249,0.06851 -1.81783,0.09235 -1.61518,0.07061 -2.8275,0.185865 -4.39113,0.285146 -1.50845,0.09578 -3.49443,0.115857 -4.01117,0.04056 z"
       id="path14726"
       sodipodi:nodetypes="csssssssssssscsscssssscscsssssscsscssssssssssssssssssssssssssssssssssssssssssssssssscssssssccsssssscsccsssssssssssssssssssssssssssssssssssccsssssccsssssscssssssssssssssssssccsssssssssssssssssssscssssssssssssssssssssssssscsssssssssscsssssssssssscssssssssssssssssscsssssssssssssssssssssssssssssssssssssssssssssssscssssssss" /><path
       style="vector-effect:non-scaling-stroke;fill:none;stroke:#0000ff;stroke-width:0.264583;stroke-dasharray:none;stroke-opacity:1;-inkscape-stroke:hairline"
       d="m 286.73855,174.0171 c -0.84155,-0.13035 -1.44217,-0.35072 -1.87315,-0.68726 -0.30257,-0.23626 -0.73029,-1.1254 -0.95722,-1.98983 -0.32274,-1.2294 -0.92551,-4.45406 -1.30341,-6.97294 -0.0526,-0.35058 -0.16009,-1.06237 -0.23887,-1.58175 -0.18542,-1.2225 -0.24124,-3.01478 -0.11733,-3.76772 0.11616,-0.70582 0.41846,-1.21952 0.81522,-1.3853 0.20039,-0.0837 0.3339,-0.0307 0.54582,0.21692 0.21208,0.24776 0.28785,0.46713 0.38392,1.11157 0.12939,0.86791 0.63682,3.98579 0.83375,5.12299 0.19488,1.1253 0.3326,1.72916 0.7538,3.30514 0.23645,0.88469 0.8021,2.63672 1.05184,3.25794 0.0783,0.19477 0.19893,0.53472 0.26807,0.75546 l 0.12571,0.40134 0.23366,0.0318 c 1.15704,0.15756 4.0818,0.29643 4.0818,0.19381 0,-0.0267 -0.0336,-0.14147 -0.0746,-0.25511 -0.33135,-0.91724 -0.51295,-1.43853 -0.60653,-1.74113 -0.0602,-0.19477 -0.23008,-0.70017 -0.37743,-1.12311 -0.14735,-0.42294 -0.33064,-1.01568 -0.40731,-1.3172 -0.0767,-0.30152 -0.15818,-0.57165 -0.18111,-0.60029 -0.0229,-0.0286 -0.10226,-0.24331 -0.17627,-0.47703 -0.11366,-0.35892 -0.13469,-0.50564 -0.13538,-0.94433 -8.9e-4,-0.60678 0.0751,-0.81163 0.38112,-1.02712 0.2335,-0.16441 0.57853,-0.20781 1.95528,-0.24593 0.55833,-0.0155 1.14263,-0.0377 1.29845,-0.0494 0.42165,-0.0318 1.46678,-0.0647 3.7301,-0.11774 1.11666,-0.0262 2.76334,-0.0693 3.65927,-0.0958 1.54404,-0.0457 4.68302,-0.12307 9.75019,-0.24027 1.24651,-0.0288 4.63547,-0.0553 7.53102,-0.0588 5.81135,-0.007 5.54516,-0.0204 5.85855,0.29328 0.25292,0.2531 0.27935,0.44832 0.28103,2.07531 7.1e-4,0.7713 0.0212,1.66795 0.0454,1.99257 0.0242,0.32461 0.0588,1.23419 0.077,2.02128 l 0.0331,1.43108 1.56233,-0.0301 c 0.85929,-0.0166 1.58581,-0.0372 1.61451,-0.0459 0.06,-0.0181 0.0656,-0.0481 0.25415,-1.34604 0.25464,-1.75327 0.28494,-2.03072 0.42536,-3.89535 0.0254,-0.3376 0.068,-1.29373 0.0947,-2.12474 0.0267,-0.83101 0.0591,-1.62779 0.072,-1.77062 0.022,-0.24224 0.12019,-2.80406 0.18828,-4.9105 0.0315,-0.976 -0.0398,-1.84507 -0.19176,-2.33722 -0.0864,-0.27982 -0.095,-0.88061 -0.0175,-1.22689 0.0827,-0.36955 -0.0159,-0.61567 -0.63756,-1.5921 -0.15371,-0.24142 -0.36273,-0.58767 -0.46447,-0.76946 -0.10175,-0.18178 -0.27989,-0.46862 -0.39588,-0.63742 -0.11598,-0.1688 -0.26235,-0.40611 -0.32526,-0.52736 -0.0629,-0.12125 -0.21615,-0.34434 -0.34054,-0.49577 -0.25566,-0.31124 -0.22089,-0.26242 -0.78986,-1.10892 -0.23294,-0.34656 -0.60477,-0.87098 -0.82629,-1.16538 -0.22151,-0.2944 -0.44278,-0.60248 -0.4917,-0.68464 -0.0489,-0.0822 -0.20678,-0.32997 -0.3508,-0.5507 -0.63382,-0.97146 -0.87793,-1.37483 -1.21441,-2.0067 -0.12446,-0.23372 -0.33702,-0.60555 -0.47234,-0.82629 -0.13533,-0.22073 -0.28308,-0.4757 -0.32834,-0.56659 -0.0453,-0.0909 -0.12197,-0.20878 -0.17047,-0.26196 -0.08,-0.0878 -0.19475,-0.28564 -0.68985,-1.18995 -0.0889,-0.16231 -0.17954,-0.2951 -0.2015,-0.2951 -0.022,0 -0.16799,-0.22841 -0.3245,-0.50758 -0.15651,-0.27916 -0.36022,-0.62372 -0.45268,-0.76567 -0.0925,-0.14196 -0.16812,-0.27604 -0.16812,-0.29796 0,-0.0219 -0.13574,-0.24574 -0.30165,-0.49736 -0.16592,-0.25163 -0.4461,-0.69123 -0.62264,-0.97689 -0.17654,-0.28566 -0.50293,-0.79336 -0.7253,-1.12821 -0.22238,-0.33486 -0.43798,-0.66781 -0.47913,-0.73989 -0.23579,-0.41311 -0.49928,-0.75212 -0.58622,-0.75425 -0.10165,-0.002 -0.23537,-0.0503 -0.76466,-0.27367 -0.76008,-0.3207 -1.7323,-0.4856 -4.90131,-0.8313 -1.38291,-0.15086 -3.81015,-0.27657 -6.46865,-0.33502 -0.72714,-0.016 -1.41768,-0.0388 -1.53454,-0.0508 -0.11686,-0.0119 -1.88039,-0.0346 -3.91896,-0.0504 -5.33195,-0.0413 -6.29324,0.0714 -6.93096,0.46549 -0.32185,0.19892 -0.72445,0.56752 -1.00376,0.919 -0.15451,0.19444 -0.28094,0.37581 -0.28094,0.40303 0,0.0272 -0.0937,0.20113 -0.2082,0.38645 -0.30984,0.50142 -0.8286,1.49539 -1.08764,2.08394 -0.12573,0.28566 -0.32204,0.71766 -0.43624,0.96 -0.11421,0.24235 -0.33189,0.73108 -0.48373,1.08607 -0.15184,0.35499 -0.36115,0.81538 -0.46513,1.02309 -0.10398,0.2077 -0.25753,0.52637 -0.34124,0.70815 -0.0837,0.18179 -0.28983,0.61736 -0.45804,0.96794 -0.16822,0.35058 -0.36595,0.76491 -0.43941,0.92072 -0.0735,0.15581 -0.38934,0.80386 -0.70196,1.4401 -0.31263,0.63624 -0.58289,1.22055 -0.60058,1.29845 -0.0177,0.0779 -0.16613,0.39662 -0.32985,0.70825 -0.16372,0.31163 -0.40261,0.80032 -0.53085,1.08598 -0.12825,0.28566 -0.32147,0.70662 -0.42937,0.93546 -0.1079,0.22885 -0.23791,0.52196 -0.28891,0.65135 -0.051,0.12939 -0.282,0.63269 -0.51333,1.11844 -0.23133,0.48576 -0.49473,1.0638 -0.58533,1.28453 -0.0906,0.22074 -0.28095,0.64569 -0.42301,0.94433 -0.51947,2.32405 -2.30904,2.64739 -2.24744,0.8499 0.0496,-0.14283 0.12937,-0.34468 0.17737,-0.44856 0.048,-0.10387 0.1658,-0.39071 0.2618,-0.63742 0.096,-0.24671 0.22338,-0.56542 0.28308,-0.70825 0.33028,-0.79017 0.63414,-1.55455 1.14494,-2.8802 0.19304,-0.50096 0.53446,-1.31327 0.70549,-1.67847 0.0878,-0.18752 0.15966,-0.35584 0.15966,-0.37406 0,-0.0182 -0.56837,-0.0238 -1.26304,-0.0125 -1.55251,0.0253 -1.93092,-0.004 -2.30304,-0.18036 -0.33494,-0.15845 -0.61123,-0.42741 -0.65285,-0.63552 -0.0168,-0.084 -0.0301,-0.39972 -0.0295,-0.70161 8.9e-4,-0.43518 0.0195,-0.58947 0.09,-0.74476 0.1695,-0.37329 1.80403,-2.69869 2.35398,-3.34894 0.12956,-0.15318 0.29775,-0.24655 0.54244,-0.30114 0.33637,-0.075 1.13014,-0.0658 1.65831,0.0193 0.2569,0.0414 0.74559,0.0948 1.08597,0.11875 0.34039,0.0239 0.68918,0.0648 0.7751,0.0908 0.15315,0.0463 0.15786,0.0434 0.24105,-0.15089 0.0467,-0.10899 0.1011,-0.25128 0.12098,-0.3162 0.0688,-0.22466 0.65133,-1.56839 1.13608,-2.62051 0.0957,-0.20775 0.20393,-0.4612 0.24047,-0.56321 0.13123,-0.36636 0.79898,-1.81391 1.22127,-2.64751 0.54632,-1.07841 1.0736,-1.90791 1.50409,-2.36619 0.36099,-0.3843 0.54425,-0.52597 1.13986,-0.88113 0.42058,-0.2508 0.68097,-0.33982 1.20441,-0.4118 0.19477,-0.0268 0.53473,-0.0793 0.75546,-0.11664 1.28098,-0.21691 2.2143,-0.38848 3.96618,-0.4487 3.812,-0.13102 8.65165,-0.0904 11.52081,0.0968 0.85953,0.0561 3.05606,0.25111 3.96618,0.35217 0.35058,0.0389 0.93489,0.0918 1.29845,0.11745 0.36357,0.0257 0.88413,0.078 1.1568,0.11636 2.48468,0.34926 2.80832,0.40954 2.96001,0.55129 0.15148,0.14156 0.70317,0.92372 0.91032,1.2906 0.088,0.15582 0.19978,0.33642 0.24846,0.40134 0.15219,0.20297 0.30196,0.44769 0.50946,0.8325 0.11019,0.20433 0.23664,0.41401 0.281,0.46595 0.0444,0.0519 0.16666,0.25379 0.27179,0.44856 0.10512,0.19477 0.31277,0.53472 0.46143,0.75546 0.14866,0.22074 0.36507,0.58996 0.48091,0.8205 0.11584,0.23054 0.34184,0.61754 0.50222,0.86001 0.42211,0.63815 0.81041,1.2858 0.91745,1.53021 0.11024,0.25172 0.74292,1.22554 0.85126,1.31025 0.16174,0.12647 0.65091,0.04 1.97613,-0.34937 0.597,-0.1754 0.6211,-0.17847 1.41006,-0.17924 0.70634,-6.9e-4 0.83697,0.0115 1.08838,0.10189 0.45137,0.16222 0.98834,0.48903 1.29617,0.78888 l 0.28318,0.27584 c 1.73228,2.09337 0.98058,2.92379 0,5.26731 l -0.24142,-0.0637 c -0.19112,-0.0504 -0.39525,-0.0542 -0.97974,-0.0182 -0.40608,0.025 -0.82862,0.0569 -0.93899,0.0709 -0.19632,0.0248 -0.20067,0.0293 -0.20067,0.20433 0,0.30289 0.12381,0.56054 0.55525,1.15547 0.46383,0.6396 1.02032,1.55413 1.36804,2.24826 1.12146,3.16811 0.85545,6.91461 1.09986,10.28474 0.43145,5.94936 -0.678,11.09032 -0.70328,11.30345 -0.0364,0.30662 -0.07,0.40091 -0.2122,0.59461 -0.0929,0.12661 -0.2493,0.28581 -0.34746,0.35378 -0.17618,0.12199 -0.19693,0.1245 -1.61857,0.19607 -1.9346,0.0974 -3.27726,0.0961 -3.75958,-0.004 -0.69584,-0.1439 -1.08519,-0.45884 -1.32519,-1.07192 l -0.13265,-0.33886 -0.004,-2.0067 c -0.005,-2.57641 -0.0687,-3.25968 -0.35505,-3.83221 -0.19824,-0.39631 -0.15688,-0.38988 -2.28375,-0.35475 -0.98746,0.0163 -2.1672,0.0503 -2.62166,0.0756 -0.45446,0.0253 -1.71868,0.0684 -2.80938,0.0958 -1.09069,0.0274 -2.49302,0.0711 -3.11628,0.097 -0.62326,0.026 -2.55677,0.0688 -4.29669,0.0952 -1.73993,0.0264 -3.58845,0.0684 -4.10783,0.0935 -0.51938,0.025 -2.08107,0.0666 -3.47041,0.0922 -3.47014,0.0641 -7.14925,0.15317 -7.17276,0.17357 -0.0391,0.0339 0.0897,0.25114 0.3435,0.57965 0.20017,0.25907 0.27249,0.39823 0.31543,0.60694 0.0707,0.34383 0.14956,0.65835 0.32822,1.30956 0.14294,0.52102 0.43352,1.67503 0.58851,2.33721 0.11069,0.47293 0.1479,1.20807 0.0758,1.49676 -0.0312,0.12465 -0.1207,0.32687 -0.19899,0.44937 -0.13735,0.21489 -0.22504,0.2732 -0.77193,0.51326 -0.20202,0.0887 -0.77799,0.14013 -2.06259,0.18425 -1.76907,0.0608 -2.8484,0.0515 -3.3673,-0.0289 z m -3.0129,-28.22364 c 0.0309,-0.0293 0.17193,-0.31885 0.31342,-0.64347 0.14148,-0.32461 0.334,-0.75138 0.4278,-0.94836 0.19804,-0.41588 0.20103,-0.44118 0.0764,-0.64559 -0.10093,-0.16554 -0.37182,-0.31217 -0.89739,-0.48575 -0.25921,-0.0856 -0.39129,-0.0988 -0.8499,-0.0846 -0.49077,0.0152 -0.55817,0.0281 -0.70094,0.1344 -0.1638,0.12198 -0.99833,1.11759 -1.1641,1.38879 -0.0519,0.085 -0.16349,0.23285 -0.24789,0.32862 -0.0982,0.11146 -0.15345,0.22366 -0.15345,0.3118 0,0.12627 0.0737,0.5547 0.12016,0.69838 0.026,0.0804 2.98897,0.0282 3.07589,-0.0542 z M 327.84,145.4483 c 0.32436,-0.0403 0.63716,-0.0912 0.69511,-0.11326 0.14303,-0.0544 0.17287,-0.21021 0.14278,-0.74555 -0.0386,-0.6868 -0.27292,-1.22503 -0.78814,-1.81035 -0.20432,-0.23212 -0.73051,-0.51383 -1.17698,-0.63012 -0.50015,-0.13027 -1.31165,-0.0418 -1.54005,0.16787 -0.0519,0.0477 -0.23493,0.15349 -0.40666,0.23514 -0.17173,0.0816 -0.38261,0.22106 -0.46863,0.30981 l -0.15641,0.16137 0.2533,0.48499 c 0.13932,0.26674 0.32047,0.5806 0.40257,0.69746 0.0821,0.11686 0.26767,0.41568 0.41237,0.66404 0.14471,0.24836 0.29818,0.48068 0.34106,0.51626 0.22949,0.19047 1.07245,0.21341 2.28968,0.0623 z m -11.80366,14.82008 c -0.14283,-0.0481 -0.32606,-0.12205 -0.40717,-0.16443 -0.41171,-0.21506 -0.82459,-0.81414 -0.94034,-1.36439 -0.25771,-1.22511 0.20663,-2.3954 1.43992,-3.62908 0.6543,-0.6545 0.98933,-0.9004 2.03772,-1.49555 0.19218,-0.1091 1.27511,-0.5758 1.59997,-0.68953 0.7713,-0.27002 1.62275,-0.37629 3.04546,-0.3801 1.68351,-0.005 2.70406,0.14976 3.46142,0.52324 0.50012,0.24664 1.10726,0.84256 1.3493,1.32438 0.263,0.52357 0.32479,0.86164 0.29979,1.64046 -0.0325,1.01198 -0.28326,1.91861 -0.84607,3.05892 -0.15106,0.30606 -0.27465,0.57051 -0.27465,0.58767 0,0.0172 -0.0541,0.10923 -0.12015,0.20459 -0.2344,0.33823 0.002,0.31949 -4.71954,0.37407 -2.33721,0.027 -4.56819,0.0599 -4.95772,0.0731 -0.60681,0.0206 -0.74544,0.0115 -0.96794,-0.0634 z m 9.88721,-1.53186 c 0.0595,-0.13634 0.13357,-0.37963 0.16457,-0.54065 0.0549,-0.2849 0.32706,-1.3772 0.52126,-2.09167 0.17641,-0.64903 0.11416,-1.13015 -0.18918,-1.462 l -0.18533,-0.20275 -0.34221,0.0332 c -0.18822,0.0183 -0.49762,0.0627 -0.68757,0.0988 -0.18994,0.0361 -0.50865,0.0776 -0.70824,0.0923 -1.54996,0.11406 -3.85537,0.38926 -4.32907,0.51675 -0.12985,0.0349 -0.33099,0.0774 -0.44698,0.0944 -0.43696,0.064 -1.17652,0.36485 -1.67654,0.68195 -0.38862,0.24646 -0.91492,0.9206 -1.10381,1.41389 -0.1697,0.44316 -0.31662,1.08715 -0.26048,1.14175 0.0773,0.0751 1.02648,0.15553 3.62946,0.3074 2.09686,0.12234 2.83608,0.15009 4.19306,0.15737 l 1.31285,0.007 z m -34.605,0.55303 c -0.46745,-0.0328 -1.2536,-0.0839 -1.74701,-0.11358 -0.49341,-0.0297 -1.23707,-0.0744 -1.65257,-0.0995 -0.41551,-0.025 -1.18042,-0.065 -1.6998,-0.0888 -1.0216,-0.0468 -1.54129,-0.15343 -1.72441,-0.35384 -0.44949,-0.49193 -0.5206,-0.66548 -0.73667,-1.79783 -0.19412,-1.01737 -0.18867,-1.84341 0.02,-3.03101 0.13081,-0.74447 0.17263,-0.89606 0.31352,-1.13646 0.17378,-0.2965 0.4886,-0.61579 0.73053,-0.7409 0.5655,-0.29243 3.01482,-0.14778 5.59928,0.33067 0.49342,0.0913 1.00335,0.1955 1.1332,0.23146 0.12984,0.036 0.31045,0.0788 0.40134,0.0952 0.62255,0.1125 1.6267,0.39709 2.43164,0.68915 1.13493,0.4118 1.40825,0.52506 2.19232,0.90845 1.399,0.68407 2.80448,2.36771 3.07638,3.68525 0.19208,0.93073 0.0787,1.38531 -0.36764,1.47387 -0.27954,0.0555 -0.78644,-0.3147 -1.00665,-0.73511 -0.034,-0.0649 -0.19798,-0.30708 -0.36438,-0.53812 -0.1664,-0.23105 -0.34504,-0.52851 -0.39696,-0.66103 -0.0519,-0.13252 -0.15131,-0.30168 -0.22086,-0.37591 -0.11678,-0.12466 -0.77486,-0.59689 -0.8318,-0.59689 -0.0137,0 -0.15812,-0.065 -0.32084,-0.14447 -0.77245,-0.37718 -1.66971,-0.69969 -2.77472,-0.99733 -0.29864,-0.0804 -0.64922,-0.17736 -0.77907,-0.21537 -0.51208,-0.14989 -1.10595,-0.30202 -1.51092,-0.38705 -0.23373,-0.0491 -0.67992,-0.1435 -0.99155,-0.20983 -0.77347,-0.16465 -1.22252,-0.23892 -2.71494,-0.44905 -0.66107,-0.0931 -1.55525,-0.1938 -1.72047,-0.1938 -0.15026,0 -0.16866,0.0154 -0.21188,0.17706 -0.17688,0.66178 -0.20712,0.87383 -0.21041,1.47551 -0.003,0.55577 0.014,0.70579 0.13317,1.17115 0.0993,0.38788 0.16162,0.54709 0.22798,0.58261 0.0941,0.0504 0.34759,0.0598 3.67026,0.13632 1.07772,0.0248 2.46942,0.0664 3.09268,0.0924 1.01579,0.0423 1.17355,0.0601 1.52273,0.17117 0.45817,0.14576 0.63983,0.31237 0.69126,0.63401 0.027,0.16887 0.0101,0.24834 -0.0992,0.46676 -0.1079,0.21563 -0.17284,0.28362 -0.35909,0.37597 -0.49987,0.24785 -1.12817,0.2858 -2.79448,0.1688 z m 9.72658,-0.0172 c -0.17481,-0.0529 -0.38967,-0.18942 -0.41923,-0.26644 -0.0548,-0.14278 -0.0296,-0.35522 0.0638,-0.53836 0.15027,-0.29455 0.28993,-0.32366 1.81912,-0.37915 0.72713,-0.0264 1.71514,-0.0685 2.19556,-0.0935 1.64862,-0.0859 5.17077,-0.156 6.24095,-0.12413 1.00984,0.0301 1.09042,0.0392 1.41649,0.16101 0.67702,0.25288 0.98317,0.47767 0.98317,0.72192 0,0.28847 0.10211,0.27968 -3.47659,0.29895 -1.78846,0.01 -3.60233,0.0396 -4.03082,0.0667 -0.42849,0.027 -1.46961,0.0714 -2.31361,0.0985 -0.84399,0.0272 -1.72576,0.057 -1.95948,0.0662 -0.23372,0.009 -0.46744,0.004 -0.51938,-0.0117 z m -0.78778,-4.01635 c -0.33552,-0.043 -0.9526,-0.32532 -1.02517,-0.46896 -0.12645,-0.25027 0.27115,-0.72536 0.67081,-0.80155 0.73572,-0.14025 11.07926,-0.18356 12.46331,-0.0522 0.81502,0.0774 1.22042,0.31312 1.14936,0.6684 -0.0411,0.20563 -0.23608,0.44704 -0.44856,0.55543 -0.17219,0.0879 -0.37893,0.0916 -6.33606,0.11508 -3.38694,0.0134 -6.3001,0.006 -6.47369,-0.0162 z m -10.21142,-7.60878 c -0.66722,-0.0972 -1.30457,-0.44145 -1.29919,-0.70169 0.002,-0.11055 0.20206,-0.3133 0.41651,-0.4227 0.27121,-0.13836 0.63619,-0.22598 1.39983,-0.33607 0.36357,-0.0524 0.77789,-0.11573 0.92072,-0.1407 0.24956,-0.0436 2.28013,-0.28239 3.21072,-0.37753 0.24671,-0.0252 0.86288,-0.0884 1.36928,-0.14046 2.02655,-0.2082 1.39551,-0.2345 2.69133,-0.30521 0.74012,-0.0404 1.40941,-0.0834 1.48732,-0.0956 0.0779,-0.0122 1.06591,-0.0591 2.19556,-0.10431 1.50892,-0.0603 1.20515,-0.0825 4.08422,-0.0838 3.83474,-0.002 4.27948,0.009 8.00319,0.18923 0.76608,0.0371 2.21091,0.0884 3.21071,0.11412 2.83747,0.0728 3.25066,0.10909 3.80444,0.33386 0.29365,0.11918 0.35061,0.23038 0.35061,0.68449 0,0.47898 -0.11292,0.66898 -0.51938,0.87392 -0.38015,0.19169 -0.64066,0.23325 -1.46371,0.23353 -0.92417,3.6e-4 -2.97702,-0.0714 -4.037,-0.14109 -0.79874,-0.0525 -3.33801,-0.1571 -5.85484,-0.24121 -1.61074,-0.0538 -4.61221,-0.02 -5.85484,0.0535 -0.38953,0.023 -1.23943,0.0641 -1.88865,0.0913 -0.64923,0.0272 -1.55224,0.0714 -2.0067,0.0984 -0.45446,0.0269 -1.27249,0.0685 -1.81783,0.0923 -1.61518,0.0706 -2.8275,0.18587 -4.39113,0.28515 -1.50845,0.0958 -3.49443,0.11586 -4.01117,0.0406 z"
       id="path14728"
       sodipodi:nodetypes="csssssssssssscsscssssscscsssssscsscssssssssssssssssssssssssssssssssssssssssssssssssscssssssccsssssscsccsssssssssssssssssssssssssssssssssssccsssssccsssssscssssssssssssssssssccsssssssssssssssssssscssssssssssssssssssssssssscsssssssssscsssssssssssscssssssssssssssssscsssssssssssssssssssssssssssssssssssssssssssssssscssssssss" /><g
       id="g1524"
       transform="translate(1.5449028,0.05698333)"><path
         id="path425"
         style="vector-effect:non-scaling-stroke;fill:none;fill-opacity:1;stroke:#0000ff;stroke-width:0.264583;stroke-opacity:1;-inkscape-stroke:hairline;stop-color:#000000"
         d="m 84.306641,20.654297 c 0,24.785807 0,49.571614 0,74.357422 71.929039,0 143.858069,0 215.787109,0 12.51407,-12.481368 25.02776,-24.963133 37.54297,-37.44336 C 325.12151,45.088133 312.60783,32.606368 300.09375,20.125 c -71.92904,0 -143.85807,0 -215.787109,0 0,0.176432 0,0.352865 0,0.529297 z" /><circle
         style="vector-effect:non-scaling-stroke;fill:none;fill-opacity:1;stroke:#ff0000;stroke-width:0.264583;stroke-opacity:1;-inkscape-stroke:hairline;stop-color:#000000"
         id="path1062"
         cx="205.64572"
         cy="15.17749"
         r="3" /><circle
         style="vector-effect:non-scaling-stroke;fill:none;fill-opacity:1;stroke:#ff0000;stroke-width:0.264583;stroke-opacity:1;-inkscape-stroke:hairline;stop-color:#000000"
         id="circle1484"
         cx="205.64572"
         cy="99.844139"
         r="3" /></g><g
       id="g1495"
       transform="translate(2.6032272,-0.19302493)"><path
         id="path1486"
         style="vector-effect:non-scaling-stroke;fill:none;fill-opacity:1;stroke:#0000ff;stroke-width:0.264583;stroke-opacity:1;-inkscape-stroke:hairline;stop-color:#000000"
         d="m 337.63672,115.90431 c 0,24.78582 0,49.57164 0,74.35747 -71.92904,0 -143.85807,0 -215.78711,0 -12.51407,-12.48138 -25.027759,-24.96315 -37.542969,-37.44339 12.51521,-12.48023 25.028889,-24.962 37.542969,-37.44338 71.92904,0 143.85807,0 215.78711,0 0,0.17643 0,0.35287 0,0.5293 z" /><circle
         style="vector-effect:non-scaling-stroke;fill:none;fill-opacity:1;stroke:#ff0000;stroke-width:0.264583;stroke-opacity:1;-inkscape-stroke:hairline;stop-color:#000000"
         id="circle1488"
         cx="-216.29764"
         cy="110.42747"
         r="3"
         transform="scale(-1,1)" /><circle
         style="vector-effect:non-scaling-stroke;fill:none;fill-opacity:1;stroke:#ff0000;stroke-width:0.264583;stroke-opacity:1;-inkscape-stroke:hairline;stop-color:#000000"
         id="circle1490"
         cx="-216.29764"
         cy="195.09419"
         r="3"
         transform="scale(-1,1)" /></g></g></svg>
