<?xml version="1.0" encoding="UTF-8" standalone="no"?>
<!-- Created with Inkscape (http://www.inkscape.org/) -->

<svg
   width="277.59152mm"
   height="190.00002mm"
   viewBox="0 0 277.59152 190.00002"
   version="1.1"
   id="svg5"
   inkscape:version="1.2.1 (9c6d41e, 2022-07-14)"
   sodipodi:docname="signage-bar.svg"
   xml:space="preserve"
   xmlns:inkscape="http://www.inkscape.org/namespaces/inkscape"
   xmlns:sodipodi="http://sodipodi.sourceforge.net/DTD/sodipodi-0.dtd"
   xmlns="http://www.w3.org/2000/svg"
   xmlns:svg="http://www.w3.org/2000/svg"><sodipodi:namedview
     id="namedview7"
     pagecolor="#ffffff"
     bordercolor="#666666"
     borderopacity="1.0"
     inkscape:showpageshadow="2"
     inkscape:pageopacity="0.0"
     inkscape:pagecheckerboard="0"
     inkscape:deskcolor="#d1d1d1"
     inkscape:document-units="mm"
     showgrid="false"
     inkscape:zoom="0.57753476"
     inkscape:cx="376.60071"
     inkscape:cy="392.18419"
     inkscape:window-width="1280"
     inkscape:window-height="701"
     inkscape:window-x="0"
     inkscape:window-y="25"
     inkscape:window-maximized="0"
     inkscape:current-layer="layer1" /><defs
     id="defs2" /><g
     inkscape:label="Layer 1"
     inkscape:groupmode="layer"
     id="layer1"
     transform="translate(-74.249992,-10.067796)"><path
       id="rect234"
       style="vector-effect:non-scaling-stroke;fill:none;stroke:#ff0000;stroke-width:0.264583;-inkscape-stroke:hairline;stop-color:#000000"
       d="m 74.25,10.067796 h 230.0005 l 47.591,47.500014 -47.591,47.49999 H 74.25 Z"
       sodipodi:nodetypes="cccccc" /><g
       aria-label="THE BAR"
       id="text664"
       style="font-size:35.2778px;line-height:1.25;text-align:center;text-anchor:middle;vector-effect:non-scaling-stroke;fill:none;stroke:#0000ff;stroke-width:0.264583;-inkscape-stroke:hairline"><path
         d="m 192.28211,47.039512 q -0.38806,0.740834 -1.65806,0.740834 -1.65806,0 -1.94028,0.105833 -1.30528,0.564445 -3.03389,1.270001 -0.10583,2.681113 -0.10583,5.891393 0,6.526393 0.38805,13.370287 0,0.493889 0.35278,1.305278 0.38806,0.776112 0.38806,1.12889 0,0.458611 -0.3175,0.846667 -0.77612,1.058334 -2.32834,1.058334 -1.34056,0 -2.57528,-0.740834 -1.19944,-0.705556 -1.37583,-1.693334 -0.10584,-0.529167 0.52916,-1.199445 0.67028,-0.670278 0.67028,-1.270001 -0.24694,-7.020283 -0.24694,-12.276675 0,-3.175002 0.10583,-5.080003 -0.0353,0 -0.98778,0.352778 -0.635,0.246944 -1.02305,0.246944 -0.56445,0 -1.02306,-0.388056 -1.12889,-0.9525 -1.41111,-1.27 -0.56445,-0.635001 -0.56445,-1.340557 0,-0.246945 0.0706,-0.564445 0.10583,-0.493889 5.15056,-2.010834 5.43278,-1.658057 5.85611,-1.94028 0.38806,-0.141111 0.84667,-0.635 0.49389,-0.493889 1.05833,-0.564445 0.77612,-0.07055 2.04612,1.023056 1.41111,1.234724 1.41111,2.57528 0,0.529167 -0.28222,1.058334 z"
         style="font-family:'Marker Felt';-inkscape-font-specification:'Marker Felt';vector-effect:non-scaling-stroke"
         id="path1785" /><path
         d="m 208.1571,59.668965 q -0.14111,2.822224 0.0706,8.113894 0,0.352778 0.24694,0.987779 0.24695,0.635 0.24695,0.917223 0,0.705556 -1.19945,1.199445 -0.24694,0.105833 -0.635,0.105833 -1.16417,0 -2.46945,-0.635 -1.55222,-0.740834 -1.55222,-1.76389 0,-0.458612 0.3175,-1.199446 0.35278,-0.740833 0.67028,-1.446389 v -6.067782 l -4.72723,0.987778 q 0,1.728612 0.0353,4.868337 0.0353,3.139724 0.0353,3.175002 0,0.423334 0.21167,1.305279 0.24694,0.881945 0.24694,1.27 0,0.705557 -0.49389,1.12889 -0.45861,0.458612 -1.27,0.458612 -0.84667,0 -1.72861,-0.458612 -0.88195,-0.458611 -1.19945,-0.952501 -0.28222,-0.458611 -0.28222,-0.670278 0,-0.07055 0.28222,-0.740834 0,-1.516945 -0.0353,-4.938892 -0.0353,-3.421947 -0.0353,-4.374447 -0.0353,-0.105834 -0.84667,-1.516946 -0.49389,-0.811389 -0.35278,-1.516945 0.0706,-0.388056 0.42334,-0.635001 0.35277,-0.246944 0.70555,-0.493889 -0.10583,-8.396117 0.0706,-11.359452 -0.3175,-0.635 -0.3175,-1.023056 0,-0.776112 1.09361,-1.305279 0.45861,-0.211667 1.30528,-0.211667 2.75167,0 3.35139,1.481668 0.10583,0.282223 0.10583,0.529167 0,0.493889 -0.635,1.481668 -0.59972,0.9525 -0.59972,1.587501 -0.21167,5.644448 -0.0706,8.396117 3.45723,-0.599723 4.58612,-0.917223 -0.3175,-4.303892 0.0705,-10.089451 -0.3175,-0.881945 -0.3175,-1.44639 0,-1.058334 1.30528,-1.728613 0.28222,-0.141111 0.81139,-0.141111 1.23472,0 2.39889,0.599723 1.34056,0.705556 1.37584,1.799168 0.0353,0.493889 -0.635,1.234723 -0.635,0.740834 -0.635,1.305278 -0.0706,5.080004 0.0706,8.537228 0.56445,0.458612 1.12889,1.340557 0.59972,0.881945 0.59972,1.44639 0,0.564445 -0.59972,0.846667 -0.59972,0.282222 -1.12889,0.529167 z"
         style="font-family:'Marker Felt';-inkscape-font-specification:'Marker Felt';vector-effect:non-scaling-stroke"
         id="path1787" /><path
         d="m 225.69008,46.616178 q -0.81139,0.670279 -2.08139,0.670279 -0.52916,0 -1.23472,-0.105834 -1.02306,0.3175 -1.83445,0.635001 -1.97555,0.740833 -2.61055,1.270001 -0.21167,3.668891 0,8.396116 0.21166,-0.141111 1.05833,-0.282222 0.42334,-0.740834 1.44639,-0.740834 1.02306,0 2.36361,0.987778 1.37584,0.987779 1.37584,1.94028 0,0.246944 -0.10584,0.493889 -0.42333,1.058334 -1.30527,1.340556 -0.52917,0.176389 -1.55223,0.105834 -1.02305,-0.105834 -1.30528,0.03528 -0.81139,0.388056 -1.97555,0.917223 0,3.175002 0.21166,4.092225 1.48167,-0.352778 2.46945,-0.846667 0.17639,-0.246945 0.35278,-0.458611 0.35278,-0.388056 1.27,-0.317501 0.98778,0.07056 2.04611,1.12889 1.05834,1.058334 1.05834,2.151946 0,0.952501 -0.81139,1.411112 -0.81139,0.458611 -2.71639,0.3175 l -3.31612,1.658057 q -0.21166,0.105833 -0.91722,0.705556 -0.52917,0.458611 -0.9525,0.458611 -0.14111,0 -0.3175,-0.03528 -1.86972,-0.564445 -3.38667,-2.928058 -0.10583,-0.176389 -0.10583,-0.423334 0,-0.105833 0.38805,-1.411112 -0.38805,-10.26584 -0.14111,-21.872237 -0.24694,-0.352778 -0.24694,-0.705556 0,-1.164167 2.15194,-1.481667 0.45861,-0.07056 1.16417,0.246944 0.45861,0.246945 0.88194,0.458612 l 4.23334,-1.340557 q 0.14111,-0.03528 0.81139,-0.423333 0.45861,-0.282223 1.05833,-0.282223 0.28223,0 0.67028,0.07056 0.77611,0.141111 1.51695,1.234723 0.77611,1.058334 0.77611,2.010835 0,0.599722 -0.38806,0.917222 z"
         style="font-family:'Marker Felt';-inkscape-font-specification:'Marker Felt';vector-effect:non-scaling-stroke"
         id="path1789" /><path
         d="m 251.83081,59.457298 q 0,2.222502 -2.29305,5.044726 -0.45861,0.529167 -4.58612,4.833059 -0.67028,1.27 -1.34055,2.504723 -0.88195,1.199446 -2.11667,1.058335 -2.39889,-0.282223 -4.02167,-2.504724 -0.56445,-0.740834 -0.56445,-1.375835 0,-0.705556 0.77612,-1.340556 -0.35278,-1.940279 -0.67028,-10.512785 -0.24695,-7.05556 -0.24695,-9.63084 -0.74083,-1.164167 -0.74083,-2.39889 0,-0.917223 0.52917,-1.481668 0.38805,-0.388056 1.12889,-0.388056 1.905,0 3.10444,1.44639 3.42195,-1.270001 5.5739,-1.270001 2.43416,0 3.24555,1.552224 0.52917,0.987778 0.52917,2.187223 0,3.704169 -3.98639,7.761117 1.62278,0.493889 3.24556,0.987778 1.51694,0.564445 1.97555,1.552223 0.45861,0.952501 0.45861,1.975557 z m -7.51417,-11.641674 q -0.88194,0 -3.24556,1.552223 0,0.3175 0.0706,2.08139 0.0706,1.728612 0.0706,2.293057 1.41111,-1.199445 2.57528,-2.857502 1.19944,-1.693334 1.19944,-2.504724 0,-0.564444 -0.67028,-0.564444 z m 1.19945,11.218341 q -2.04611,0 -3.88056,1.552223 l 0.14111,5.362226 q 5.04473,-3.986392 5.04473,-5.961949 0,-0.9525 -1.30528,-0.9525 z"
         style="font-family:'Marker Felt';-inkscape-font-specification:'Marker Felt';vector-effect:non-scaling-stroke"
         id="path1791" /><path
         d="m 271.79804,64.184524 q -0.24695,0.458611 -1.09362,0.564444 -0.0706,0 -1.51694,0.07056 0.24694,1.587501 1.83444,3.951114 0.91723,0.670278 0.91723,1.76389 0,1.728612 -2.11667,1.728612 -2.01084,0 -2.75167,-1.023056 -0.24694,-0.352778 -0.3175,-0.952501 0,-0.388056 -0.0353,-0.811389 -0.3175,-0.3175 -1.905,-4.092225 -2.89278,0.423333 -7.12612,1.199445 -0.42333,1.023056 -0.91722,2.963335 0.0706,0.352778 0.0706,0.670279 0,0.9525 -0.635,1.446389 -0.635,0.529168 -1.51695,0.529168 -0.98778,0 -1.83444,-0.740834 -0.84667,-0.740834 -0.84667,-1.728613 0,-0.881945 0.81139,-1.587501 2.64583,-13.440842 6.42056,-22.225015 -0.0706,-0.423333 -0.0706,-0.846667 0,-1.76389 1.19945,-2.328335 0.49389,-0.211667 1.27,-0.211667 1.48167,0 2.46944,0.458612 1.27001,0.635 1.27001,1.905001 0,1.164168 -0.63501,2.08139 0.67028,5.997227 2.89278,13.828899 0.21167,-0.03528 1.44639,-0.352778 0.74084,-0.211667 1.12889,-0.211667 0.45862,0 0.74084,0.211667 1.23472,0.9525 1.23472,2.328334 0,0.740834 -0.38805,1.411113 z m -8.46668,-2.681113 q -0.59972,-2.222502 -1.905,-8.537228 -2.50472,5.468059 -2.96333,9.383895 z"
         style="font-family:'Marker Felt';-inkscape-font-specification:'Marker Felt';vector-effect:non-scaling-stroke"
         id="path1793" /><path
         d="m 293.88189,69.05286 q 0.0353,0.211667 0.0353,0.388056 0,1.058334 -1.23472,1.799168 -1.23472,0.705556 -2.57528,0.705556 -0.81139,0 -1.30528,-0.3175 -0.35278,-0.211667 -0.635,-0.81139 -0.24694,-0.635 -0.56444,-0.846667 l -7.7964,-5.221115 0.3175,3.245558 q 0.0353,0.246945 0.52917,1.023056 0.52917,0.776112 0.52917,1.305279 0,0.776112 -0.98778,1.44639 -0.59973,0.423334 -1.51695,0.423334 -1.30528,0 -2.43417,-0.705557 -1.23472,-0.705556 -1.48166,-1.799167 -0.0353,-0.211667 -0.0353,-0.352778 0,-0.49389 0.45861,-0.846668 0.49389,-0.388055 0.49389,-0.705556 l -1.12889,-20.108347 q -0.0353,-0.458611 -0.38806,-1.199445 -0.35277,-0.776111 -0.35277,-1.128889 0,-0.917223 1.19944,-1.481668 0.98778,-0.493889 2.01084,-0.493889 0.67027,0 1.16416,0.211666 0.49389,0.176389 0.67028,0.599723 0.17639,0.388056 0.42333,0.388056 0.0353,0.03528 2.15195,-0.776112 2.46945,-0.917223 4.33917,-0.917223 2.71639,0 4.37445,1.905002 0.45861,0.529167 0.45861,1.481667 0,2.57528 -2.96334,7.267228 -2.82222,4.409725 -5.82083,7.05556 l 9.10167,6.350004 q 0.0353,0.03528 1.76389,0.846667 0.98778,0.458612 1.19944,1.270001 z m -9.45445,-21.907515 q -0.77611,0 -2.46944,1.481668 -0.35278,0.282223 -2.61056,2.434168 l -0.0706,6.314727 q 2.18723,-2.398891 3.95112,-5.326948 1.76389,-2.963335 1.76389,-4.233336 0,-0.670279 -0.56445,-0.670279 z"
         style="font-family:'Marker Felt';-inkscape-font-specification:'Marker Felt';vector-effect:non-scaling-stroke"
         id="path1795" /></g><rect
       style="vector-effect:non-scaling-stroke;fill:none;stroke:#ffff00;stroke-width:0.264583;stroke-opacity:1;-inkscape-stroke:hairline;stop-color:#000000"
       id="rect716"
       width="57.903198"
       height="57.903198"
       x="93.402603"
       y="28.616199" /><rect
       style="vector-effect:non-scaling-stroke;fill:none;stroke:#ffff00;stroke-width:0.264582;stroke-opacity:1;-inkscape-stroke:hairline;stop-color:#000000"
       id="rect1272"
       width="166.58305"
       height="57.903198"
       x="151.3058"
       y="28.616199" /><path
       id="path2062"
       style="vector-effect:non-scaling-stroke;fill:none;stroke:#ff0000;stroke-width:0.264583;-inkscape-stroke:hairline;stop-color:#000000"
       d="m 121.84099,105.0678 -47.590998,47.50002 47.590998,47.49999 h 230.0005 V 105.0678 h -48.51057"
       sodipodi:nodetypes="cccccc" /><g
       aria-label="THE BAR"
       id="text2066"
       style="font-size:35.2778px;line-height:1.25;text-align:center;text-anchor:middle;vector-effect:non-scaling-stroke;fill:none;stroke:#0000ff;stroke-width:0.264583;-inkscape-stroke:hairline"><path
         d="m 149.53513,142.03951 q -0.38806,0.74084 -1.65806,0.74084 -1.65806,0 -1.94028,0.10583 -1.30528,0.56444 -3.03389,1.27 -0.10583,2.68111 -0.10583,5.89139 0,6.5264 0.38805,13.37029 0,0.49389 0.35278,1.30528 0.38806,0.77611 0.38806,1.12889 0,0.45861 -0.3175,0.84667 -0.77611,1.05833 -2.32834,1.05833 -1.34055,0 -2.57528,-0.74083 -1.19944,-0.70556 -1.37583,-1.69334 -0.10584,-0.52917 0.52917,-1.19944 0.67027,-0.67028 0.67027,-1.27001 -0.24694,-7.02028 -0.24694,-12.27667 0,-3.175 0.10583,-5.08 -0.0353,0 -0.98778,0.35277 -0.635,0.24695 -1.02305,0.24695 -0.56445,0 -1.02306,-0.38806 -1.12889,-0.9525 -1.41111,-1.27 -0.56445,-0.635 -0.56445,-1.34055 0,-0.24695 0.0706,-0.56445 0.10583,-0.49389 5.15056,-2.01083 5.43278,-1.65806 5.85611,-1.94028 0.38806,-0.14111 0.84667,-0.635 0.49389,-0.49389 1.05834,-0.56445 0.77611,-0.0705 2.04611,1.02306 1.41111,1.23472 1.41111,2.57528 0,0.52917 -0.28222,1.05833 z"
         style="font-family:'Marker Felt';-inkscape-font-specification:'Marker Felt';vector-effect:non-scaling-stroke"
         id="path1772" /><path
         d="m 165.41012,154.66896 q -0.14111,2.82223 0.0706,8.1139 0,0.35278 0.24694,0.98778 0.24695,0.635 0.24695,0.91722 0,0.70556 -1.19945,1.19945 -0.24694,0.10583 -0.635,0.10583 -1.16417,0 -2.46945,-0.635 -1.55222,-0.74084 -1.55222,-1.76389 0,-0.45861 0.3175,-1.19945 0.35278,-0.74083 0.67028,-1.44639 v -6.06778 l -4.72723,0.98778 q 0,1.72861 0.0353,4.86834 0.0353,3.13972 0.0353,3.175 0,0.42333 0.21167,1.30528 0.24694,0.88194 0.24694,1.27 0,0.70555 -0.49389,1.12889 -0.45861,0.45861 -1.27,0.45861 -0.84667,0 -1.72861,-0.45861 -0.88195,-0.45861 -1.19945,-0.9525 -0.28222,-0.45861 -0.28222,-0.67028 0,-0.0706 0.28222,-0.74083 0,-1.51695 -0.0353,-4.9389 -0.0353,-3.42194 -0.0353,-4.37444 -0.0353,-0.10584 -0.84667,-1.51695 -0.49389,-0.81139 -0.35278,-1.51695 0.0706,-0.38805 0.42334,-0.635 0.35277,-0.24694 0.70555,-0.49388 -0.10583,-8.39612 0.0706,-11.35946 -0.3175,-0.635 -0.3175,-1.02305 0,-0.77611 1.09361,-1.30528 0.45861,-0.21167 1.30528,-0.21167 2.75167,0 3.35139,1.48167 0.10583,0.28222 0.10583,0.52917 0,0.49389 -0.635,1.48166 -0.59972,0.9525 -0.59972,1.5875 -0.21167,5.64445 -0.0706,8.39612 3.45723,-0.59972 4.58612,-0.91722 -0.3175,-4.30389 0.0705,-10.08945 -0.3175,-0.88195 -0.3175,-1.44639 0,-1.05834 1.30528,-1.72861 0.28223,-0.14112 0.81139,-0.14112 1.23473,0 2.39889,0.59973 1.34056,0.70555 1.37584,1.79916 0.0353,0.49389 -0.635,1.23473 -0.635,0.74083 -0.635,1.30528 -0.0706,5.08 0.0705,8.53722 0.56445,0.45862 1.12889,1.34056 0.59972,0.88195 0.59972,1.44639 0,0.56445 -0.59972,0.84667 -0.59972,0.28222 -1.12889,0.52916 z"
         style="font-family:'Marker Felt';-inkscape-font-specification:'Marker Felt';vector-effect:non-scaling-stroke"
         id="path1774" /><path
         d="m 182.9431,141.61618 q -0.81138,0.67028 -2.08139,0.67028 -0.52916,0 -1.23472,-0.10584 -1.02305,0.3175 -1.83444,0.635 -1.97556,0.74084 -2.61056,1.27 -0.21167,3.6689 0,8.39612 0.21167,-0.14111 1.05833,-0.28222 0.42334,-0.74083 1.44639,-0.74083 1.02306,0 2.36362,0.98777 1.37583,0.98778 1.37583,1.94028 0,0.24695 -0.10583,0.49389 -0.42334,1.05834 -1.30528,1.34056 -0.52917,0.17639 -1.55223,0.10583 -1.02305,-0.10583 -1.30527,0.0353 -0.81139,0.38806 -1.97556,0.91722 0,3.175 0.21167,4.09223 1.48166,-0.35278 2.46944,-0.84667 0.17639,-0.24694 0.35278,-0.45861 0.35278,-0.38806 1.27,-0.3175 0.98778,0.0705 2.04611,1.12889 1.05834,1.05833 1.05834,2.15194 0,0.9525 -0.81139,1.41112 -0.81139,0.45861 -2.71639,0.3175 l -3.31612,1.65805 q -0.21166,0.10584 -0.91722,0.70556 -0.52917,0.45861 -0.9525,0.45861 -0.14111,0 -0.3175,-0.0353 -1.86972,-0.56444 -3.38667,-2.92806 -0.10583,-0.17638 -0.10583,-0.42333 0,-0.10583 0.38805,-1.41111 -0.38805,-10.26584 -0.14111,-21.87224 -0.24694,-0.35278 -0.24694,-0.70555 0,-1.16417 2.15194,-1.48167 0.45861,-0.0706 1.16417,0.24694 0.45861,0.24695 0.88195,0.45861 l 4.23333,-1.34055 q 0.14111,-0.0353 0.81139,-0.42334 0.45861,-0.28222 1.05834,-0.28222 0.28222,0 0.67027,0.0706 0.77612,0.14111 1.51695,1.23472 0.77611,1.05833 0.77611,2.01084 0,0.59972 -0.38806,0.91722 z"
         style="font-family:'Marker Felt';-inkscape-font-specification:'Marker Felt';vector-effect:non-scaling-stroke"
         id="path1776" /><path
         d="m 209.08384,154.4573 q 0,2.2225 -2.29306,5.04472 -0.45861,0.52917 -4.58612,4.83306 -0.67027,1.27 -1.34055,2.50473 -0.88195,1.19944 -2.11667,1.05833 -2.39889,-0.28222 -4.02167,-2.50472 -0.56444,-0.74084 -0.56444,-1.37584 0,-0.70555 0.77611,-1.34055 -0.35278,-1.94028 -0.67028,-10.51279 -0.24695,-7.05556 -0.24695,-9.63084 -0.74083,-1.16417 -0.74083,-2.39889 0,-0.91722 0.52917,-1.48167 0.38805,-0.38805 1.12889,-0.38805 1.905,0 3.10444,1.44639 3.42195,-1.27 5.5739,-1.27 2.43416,0 3.24555,1.55222 0.52917,0.98778 0.52917,2.18722 0,3.70417 -3.98639,7.76112 1.62278,0.49389 3.24556,0.98778 1.51694,0.56444 1.97555,1.55222 0.45862,0.9525 0.45862,1.97556 z m -7.51418,-11.64168 q -0.88194,0 -3.24555,1.55223 0,0.3175 0.0705,2.08139 0.0706,1.72861 0.0706,2.29305 1.41111,-1.19944 2.57528,-2.8575 1.19944,-1.69333 1.19944,-2.50472 0,-0.56445 -0.67028,-0.56445 z m 1.19945,11.21834 q -2.04611,0 -3.88056,1.55223 l 0.14111,5.36222 q 5.04473,-3.98639 5.04473,-5.96194 0,-0.95251 -1.30528,-0.95251 z"
         style="font-family:'Marker Felt';-inkscape-font-specification:'Marker Felt';vector-effect:non-scaling-stroke"
         id="path1778" /><path
         d="m 229.05106,159.18452 q -0.24695,0.45861 -1.09362,0.56445 -0.0705,0 -1.51694,0.0705 0.24694,1.58751 1.83444,3.95112 0.91723,0.67028 0.91723,1.76389 0,1.72861 -2.11667,1.72861 -2.01084,0 -2.75167,-1.02306 -0.24694,-0.35277 -0.3175,-0.9525 0,-0.38805 -0.0353,-0.81139 -0.3175,-0.3175 -1.905,-4.09222 -2.89278,0.42333 -7.12611,1.19944 -0.42334,1.02306 -0.91723,2.96334 0.0706,0.35278 0.0706,0.67028 0,0.9525 -0.635,1.44639 -0.635,0.52916 -1.51695,0.52916 -0.98778,0 -1.83444,-0.74083 -0.84667,-0.74083 -0.84667,-1.72861 0,-0.88195 0.81139,-1.5875 2.64583,-13.44085 6.42056,-22.22502 -0.0706,-0.42333 -0.0706,-0.84666 0,-1.76389 1.19945,-2.32834 0.49389,-0.21167 1.27,-0.21167 1.48167,0 2.46945,0.45861 1.27,0.63501 1.27,1.90501 0,1.16416 -0.635,2.08139 0.67027,5.99722 2.89278,13.82889 0.21166,-0.0353 1.44639,-0.35277 0.74083,-0.21167 1.12889,-0.21167 0.45861,0 0.74083,0.21167 1.23472,0.9525 1.23472,2.32833 0,0.74084 -0.38805,1.41111 z m -8.46668,-2.68111 q -0.59972,-2.2225 -1.905,-8.53723 -2.50472,5.46806 -2.96333,9.3839 z"
         style="font-family:'Marker Felt';-inkscape-font-specification:'Marker Felt';vector-effect:non-scaling-stroke"
         id="path1780" /><path
         d="m 251.13492,164.05286 q 0.0353,0.21167 0.0353,0.38806 0,1.05833 -1.23472,1.79916 -1.23472,0.70556 -2.57528,0.70556 -0.81139,0 -1.30528,-0.3175 -0.35278,-0.21167 -0.635,-0.81139 -0.24694,-0.635 -0.56444,-0.84667 l -7.7964,-5.22111 0.3175,3.24556 q 0.0353,0.24694 0.52917,1.02305 0.52917,0.77611 0.52917,1.30528 0,0.77611 -0.98778,1.44639 -0.59972,0.42333 -1.51695,0.42333 -1.30528,0 -2.43417,-0.70555 -1.23472,-0.70556 -1.48166,-1.79917 -0.0353,-0.21167 -0.0353,-0.35278 0,-0.49389 0.45861,-0.84666 0.49389,-0.38806 0.49389,-0.70556 l -1.12889,-20.10835 q -0.0353,-0.45861 -0.38806,-1.19944 -0.35277,-0.77611 -0.35277,-1.12889 0,-0.91723 1.19944,-1.48167 0.98778,-0.49389 2.01084,-0.49389 0.67027,0 1.16416,0.21167 0.49389,0.17639 0.67028,0.59972 0.17639,0.38806 0.42334,0.38806 0.0353,0.0353 2.15194,-0.77612 2.46945,-0.91722 4.33917,-0.91722 2.71639,0 4.37445,1.905 0.45861,0.52917 0.45861,1.48167 0,2.57528 -2.96334,7.26723 -2.82222,4.40972 -5.82083,7.05556 l 9.10167,6.35 q 0.0353,0.0353 1.76389,0.84667 0.98778,0.45861 1.19945,1.27 z m -9.45446,-21.90751 q -0.77611,0 -2.46944,1.48166 -0.35278,0.28223 -2.61056,2.43417 l -0.0705,6.31473 q 2.18722,-2.39889 3.95111,-5.32695 1.76389,-2.96334 1.76389,-4.23334 0,-0.67027 -0.56445,-0.67027 z"
         style="font-family:'Marker Felt';-inkscape-font-specification:'Marker Felt';vector-effect:non-scaling-stroke"
         id="path1782" /></g><rect
       style="vector-effect:non-scaling-stroke;fill:none;stroke:#ffff00;stroke-width:0.264583;stroke-opacity:1;-inkscape-stroke:hairline;stop-color:#000000"
       id="rect2068"
       width="57.903198"
       height="57.903198"
       x="275.14191"
       y="123.61621" /><rect
       style="vector-effect:non-scaling-stroke;fill:none;stroke:#ffff00;stroke-width:0.264582;stroke-opacity:1;-inkscape-stroke:hairline;stop-color:#000000"
       id="rect2070"
       width="166.58305"
       height="57.903198"
       x="108.55883"
       y="123.61621" /><path
       style="fill:none;stroke-width:0.26458333;stroke:#0000ff;stroke-opacity:1;stroke-dasharray:none;vector-effect:non-scaling-stroke;-inkscape-stroke:hairline"
       d="m 130.53323,84.667075 c -0.30303,-0.02862 -0.6887,-0.08285 -0.85705,-0.120511 -0.16834,-0.03766 -0.48943,-0.105064 -0.71352,-0.149786 -0.61999,-0.123734 -1.59366,-0.578928 -1.93892,-0.90645 -0.22363,-0.212153 -0.37782,-0.521788 -0.37782,-0.758733 0,-0.302546 0.30983,-0.742735 0.7614,-1.081741 0.67456,-0.506415 1.18545,-0.733656 2.42191,-1.077245 0.62288,-0.173088 1.22205,-0.360294 1.33148,-0.416013 l 0.19895,-0.101307 0.009,-0.52173 c 0.0183,-1.013734 -0.0149,-3.358404 -0.0712,-5.021217 -0.0313,-0.925914 -0.0746,-2.364059 -0.0963,-3.19588 l -0.0393,-1.5124 -0.28399,-0.04137 c -0.33851,-0.04931 -1.42026,-0.42344 -1.72259,-0.595767 -0.11784,-0.06717 -0.27488,-0.154465 -0.34896,-0.193988 -0.1323,-0.07057 -0.49223,-0.387702 -1.20345,-1.060348 -0.82513,-0.78037 -1.4561,-1.693438 -2.12331,-3.072604 -0.19843,-0.410192 -0.60098,-1.687932 -0.74251,-2.356873 -0.12555,-0.593405 -0.14245,-0.840639 -0.14228,-2.081393 1.8e-4,-1.203681 0.0205,-1.519045 0.14045,-2.17322 0.22696,-1.238124 1.00641,-3.396918 1.35575,-3.754889 0.11316,-0.11596 0.23852,-0.176987 0.37724,-0.183652 0.18849,-0.0091 0.20581,0.0042 0.18674,0.143058 -0.0116,0.08417 -0.11458,0.37994 -0.22893,0.657259 -0.52049,1.262327 -0.76488,2.221283 -0.89,3.492155 -0.0919,0.933739 -0.0338,2.425998 0.127,3.259094 0.25163,1.303954 0.79052,2.616651 1.40327,3.418273 0.18936,0.247734 0.40653,0.536578 0.48259,0.641878 0.56661,0.784366 2.4191,1.82294 3.11092,1.744099 0.17684,-0.02015 0.17461,-0.02375 -0.18834,-0.303432 -0.51702,-0.398406 -1.30613,-1.238193 -1.59344,-1.695779 -0.1337,-0.212937 -0.29936,-0.474644 -0.36814,-0.581566 -0.28477,-0.442695 -0.70858,-1.705048 -0.90793,-2.704321 -0.10401,-0.521371 -0.22184,-1.648507 -0.22192,-2.122933 -7e-5,-0.486636 -0.0292,-0.478725 1.76432,-0.479394 3.29322,-0.0012 5.97069,-0.217627 7.82809,-0.632692 l 0.37924,-0.08475 0.0493,0.343707 c 0.0668,0.465772 0.0372,2.499986 -0.0447,3.067887 -0.083,0.575767 -0.43849,1.998394 -0.6808,2.724177 -0.10116,0.303025 -0.30605,0.798887 -0.4553,1.101914 l -0.27136,0.550958 0.32745,-0.34408 c 1.05507,-1.10862 1.80088,-2.486668 2.2655,-4.186013 0.40372,-1.476575 0.41841,-3.368526 0.0401,-5.160434 -0.20891,-0.989479 -0.64469,-2.66211 -0.73995,-2.84011 -0.0527,-0.09848 -0.0494,-0.119127 0.0156,-0.0975 0.11025,0.03668 0.68923,0.850565 0.90783,1.276155 0.0962,0.187301 0.21729,0.490328 0.26907,0.67339 0.0518,0.183065 0.16581,0.567001 0.25339,0.853191 0.34683,1.133332 0.54285,3.383852 0.40522,4.652528 -0.11438,1.054462 -0.31296,2.003782 -0.56597,2.705696 -0.13717,0.38053 -0.3007,0.836892 -0.36339,1.01414 -0.13096,0.370244 -0.44949,0.970374 -0.81996,1.544865 -0.14114,0.218853 -0.30003,0.466783 -0.35309,0.550957 -0.2458,0.389898 -1.16577,1.228225 -1.76264,1.60621 -0.35109,0.22234 -1.21843,0.504014 -1.74469,0.566603 -0.16835,0.02001 -0.39369,0.04985 -0.50077,0.06629 l -0.19467,0.02989 -0.003,1.145856 c -0.005,1.817619 -0.0644,6.353116 -0.10051,7.727313 -0.039,1.483048 -0.0385,1.484476 0.56502,1.558059 0.85253,0.103942 2.21236,0.489468 2.6846,0.761111 0.38397,0.220864 0.61389,0.453926 0.87828,0.890275 0.3735,0.616413 0.30491,1.235604 -0.19464,1.756955 -0.31998,0.333947 -1.03695,0.623897 -1.87986,0.760229 -0.31188,0.05044 -0.58765,0.104447 -0.61284,0.120016 -0.0928,0.05738 -2.64704,0.274251 -3.1357,0.266248 -0.27785,-0.0046 -0.75312,-0.03169 -1.05614,-0.06031 z m 2.54359,-0.975828 c 1.59003,-0.125392 3.00232,-0.42847 3.31494,-0.711386 0.0723,-0.06543 0.11017,-0.186857 0.11017,-0.35327 0,-0.213745 -0.0361,-0.287534 -0.22957,-0.469861 -0.35196,-0.331617 -1.32789,-0.71612 -2.24974,-0.886362 -1.75857,-0.324765 -4.7967,0.180922 -5.45329,0.907683 -0.11513,0.127434 -0.20932,0.285418 -0.20932,0.351074 0,0.609064 0.82684,0.953255 2.78539,1.159473 0.71022,0.07478 1.01151,0.07519 1.93142,0.0026 z m -18.67439,0.581224 c -0.0505,-0.01409 -0.82185,-0.09552 -1.71409,-0.180971 -0.89224,-0.08546 -1.82887,-0.182181 -2.08139,-0.21495 -1.45139,-0.188329 -2.70089,-0.382166 -2.96485,-0.459942 -0.16605,-0.04892 -0.35966,-0.08895 -0.43025,-0.08895 -0.21097,0 -0.96753,-0.398554 -1.17715,-0.620114 -0.10736,-0.113477 -0.2252,-0.285871 -0.26186,-0.383099 -0.0367,-0.09723 -0.0924,-0.84102 -0.12381,-1.652871 -0.12492,-3.226426 -0.27475,-6.01933 -0.36819,-6.863229 -0.0298,-0.269358 -0.0702,-0.875412 -0.0897,-1.346786 -0.0195,-0.471374 -0.0485,-0.95346 -0.0645,-1.071306 -0.0159,-0.117843 -0.084,-1.068242 -0.15123,-2.112001 -0.0672,-1.043758 -0.13562,-1.994158 -0.15196,-2.112003 -0.0163,-0.117843 -0.0575,-0.861636 -0.0915,-1.65287 -0.034,-0.791235 -0.0939,-2.074252 -0.13307,-2.851147 -0.0546,-1.080973 -0.0543,-1.835372 0.001,-3.213916 0.10125,-2.512372 0.18229,-3.846205 0.24893,-4.097037 0.0313,-0.117842 0.0887,-0.544835 0.12762,-0.94887 0.17503,-1.818798 0.52639,-3.106144 1.13617,-4.162786 0.6103,-1.057541 0.84391,-1.339916 2.35816,-2.850407 1.83698,-1.832423 1.86243,-1.879434 2.2518,-4.158992 0.19566,-1.145482 0.23135,-4.674298 0.0638,-6.305398 -0.0771,-0.750535 -0.10282,-0.857045 -0.2068,-0.857045 -0.0473,0 -0.17072,-0.07132 -0.27432,-0.158485 l -0.18835,-0.158486 v -2.45046 -2.450459 l 0.23095,-0.230945 c 0.12857,-0.128575 0.33887,-0.26091 0.47443,-0.298544 0.34118,-0.09472 3.98163,-0.09257 4.25437,0.0025 0.3567,0.124343 0.77125,0.692146 0.91185,1.248934 0.0515,0.204055 0.0942,1.279015 0.13099,3.302196 0.11778,6.472487 0.22226,9.410839 0.36184,10.176509 0.0951,0.521894 0.64879,1.120922 2.17541,2.353722 1.16025,0.936943 2.18391,2.124283 2.65279,3.07695 0.37779,0.76761 0.45427,1.057007 0.64802,2.451969 0.12373,0.890858 0.17087,1.629556 0.24614,3.8567 0.16363,4.841917 0.17333,6.367545 0.0715,11.233404 -0.0539,2.575724 -0.12664,6.115625 -0.16161,7.866444 -0.0584,2.92463 -0.11127,4.397745 -0.21821,6.082784 l -0.0403,0.63443 -0.34421,0.150973 c -0.18932,0.08303 -0.39931,0.17545 -0.46665,0.205367 -0.47669,0.211785 -2.13658,0.731109 -3.09148,0.967218 -0.82259,0.203393 -3.21958,0.43425 -3.55062,0.341963 z m 1.55858,-1.589931 c 1.14425,-0.134967 2.29146,-0.356613 3.53312,-0.682618 l 1.08195,-0.284073 0.0377,-0.525576 c 0.0207,-0.289068 0.0773,-0.952567 0.12575,-1.474445 0.0484,-0.521881 0.10063,-1.183029 0.11597,-1.469219 0.0153,-0.286193 0.0695,-0.961115 0.12037,-1.49983 0.0509,-0.538713 0.10914,-1.323827 0.12951,-1.744697 0.0204,-0.42087 0.0752,-1.205983 0.12174,-1.744696 0.0466,-0.538715 0.11672,-1.668177 0.15586,-2.509917 0.0391,-0.84174 0.095,-1.833463 0.12404,-2.203828 0.0758,-0.964849 0.0237,-5.049517 -0.0881,-6.909592 -0.0919,-1.529188 -0.27515,-3.675387 -0.40579,-4.752333 -0.0347,-0.286193 -0.10328,-0.961115 -0.15236,-1.499828 -0.15166,-1.664775 -0.47706,-3.783753 -0.65368,-4.25683 -0.18323,-0.490772 -0.68471,-1.226735 -1.05395,-1.546749 -0.58732,-0.509012 -1.27779,-1.056751 -1.44153,-1.143536 -0.0823,-0.04362 -0.31912,-0.223102 -0.5263,-0.39886 -0.20719,-0.175758 -0.5393,-0.430914 -0.73805,-0.567012 -0.72142,-0.49403 -1.332,-1.052331 -1.47686,-1.350411 -0.30209,-0.621596 -0.31972,-1.39367 -0.10924,-4.786009 0.047,-0.757566 0.10453,-2.217983 0.12785,-3.245371 0.0397,-1.749558 0.0354,-1.873746 -0.0671,-1.958958 -0.0906,-0.07527 -0.38004,-0.09098 -1.67657,-0.09098 -1.52862,0 -1.56687,0.003 -1.5599,0.122435 0.004,0.06734 0.0452,0.425461 0.0918,0.795827 0.0586,0.466336 0.083,1.322791 0.0792,2.785394 -0.005,1.881337 -0.0236,2.269122 -0.17176,3.550612 -0.25405,2.198127 -0.39317,2.726807 -0.90414,3.435932 -0.18908,0.26241 -0.97949,1.085374 -2.10921,2.196075 -0.59375,0.583762 -1.15177,1.313198 -1.348,1.762096 -0.0841,0.192449 -0.20447,0.460097 -0.26743,0.594775 -0.39628,0.84773 -0.72646,3.184987 -0.86479,6.121747 -0.0705,1.497347 -0.0323,4.871674 0.0725,6.397223 0.0335,0.488209 0.10031,1.604174 0.14838,2.479924 0.0481,0.875747 0.11618,1.839923 0.15136,2.142609 0.0352,0.30269 0.10546,1.221088 0.15619,2.040889 0.0507,0.819799 0.1033,1.508497 0.11684,1.530436 0.0135,0.02193 0.056,0.508204 0.0944,1.080589 0.0384,0.572382 0.0946,1.205983 0.12501,1.408 0.0304,0.202018 0.0845,0.959585 0.12025,1.683479 0.0358,0.723897 0.0941,1.64675 0.12954,2.050785 0.0355,0.404035 0.0835,1.340559 0.10662,2.081166 l 0.0421,1.346554 0.58157,0.169648 c 0.31985,0.09331 0.92591,0.236912 1.34678,0.319126 1.13227,0.221176 2.25221,0.367881 4.40765,0.577366 0.82237,0.07993 1.31399,0.07374 2.17076,-0.02732 z m -6.63963,-11.60721 c -0.61712,-0.05667 -1.35017,-0.244673 -1.45474,-0.373085 -0.1517,-0.186276 -0.32986,-0.976656 -0.38308,-1.699475 -0.069,-0.936998 -0.0707,-7.688532 -0.002,-9.458096 0.0554,-1.435813 0.12766,-1.729141 0.48917,-1.98656 0.2539,-0.180793 0.65378,-0.225966 2.7284,-0.308219 0.94275,-0.03738 2.23749,-0.1086 2.87722,-0.158275 1.06511,-0.08271 1.6892,-0.153463 3.79548,-0.430304 0.88814,-0.116732 1.52751,-0.0904 1.81437,0.07473 0.40602,0.23372 0.40365,0.215883 0.47867,3.604457 0.0373,1.68348 0.0738,4.396943 0.0811,6.029918 0.0154,3.421326 0.009,3.485476 -0.40625,3.816816 -0.48232,0.385276 -0.74516,0.448133 -2.45763,0.587739 -0.4377,0.03568 -1.11263,0.09249 -1.49983,0.126244 -2.42275,0.21119 -4.88614,0.28196 -6.06052,0.174111 z m 9.91506,-1.150693 c -0.001,-0.06117 -0.0336,-0.04048 -0.0897,0.05761 -0.11451,0.200305 -0.11315,0.308828 0.002,0.156647 0.0494,-0.06536 0.0889,-0.161774 0.0877,-0.214261 z m 0.046,-0.600473 c -0.014,-0.09259 -0.0255,-0.01684 -0.0255,0.168347 0,0.185184 0.0115,0.26094 0.0255,0.168349 0.014,-0.09259 0.014,-0.244105 0,-0.336696 z m 13.48523,-13.952889 c -1.59393,-0.08237 -4.07354,-0.539372 -4.81335,-0.887124 -0.19586,-0.09206 -0.26246,-0.162655 -0.29178,-0.309253 -0.0209,-0.104476 -0.028,-0.199939 -0.0158,-0.212134 0.0598,-0.0598 0.94951,-0.207283 1.63154,-0.270457 1.35231,-0.125261 5.52225,-0.0032 7.39723,0.216468 0.85478,0.100159 1.05078,0.186343 1.05078,0.46205 0,0.410585 -0.60002,0.66613 -2.0893,0.889817 -0.62202,0.09342 -2.09972,0.150401 -2.86931,0.110633 z m 3.8567,-1.305564 c -0.0505,-0.03264 -0.24334,-0.05563 -0.42853,-0.05109 l -0.33669,0.0083 0.27548,0.04283 c 0.44665,0.06944 0.59719,0.06944 0.48974,0 z"
       id="path9516" /><path
       style="vector-effect:non-scaling-stroke;fill:none;stroke:#0000ff;stroke-width:0.264583;stroke-dasharray:none;stroke-opacity:1;-inkscape-stroke:hairline"
       d="m 312.52961,179.42075 c -0.30303,-0.0286 -0.6887,-0.0829 -0.85705,-0.12051 -0.16834,-0.0377 -0.48943,-0.10507 -0.71352,-0.14979 -0.61999,-0.12373 -1.59366,-0.57893 -1.93892,-0.90645 -0.22363,-0.21215 -0.37782,-0.52179 -0.37782,-0.75873 0,-0.30255 0.30983,-0.74274 0.7614,-1.08174 0.67456,-0.50642 1.18545,-0.73366 2.42191,-1.07725 0.62288,-0.17309 1.22205,-0.36029 1.33148,-0.41601 l 0.19895,-0.10131 0.009,-0.52173 c 0.0183,-1.01373 -0.0149,-3.3584 -0.0712,-5.02122 -0.0313,-0.92591 -0.0746,-2.36405 -0.0963,-3.19588 l -0.0393,-1.5124 -0.28399,-0.0414 c -0.33851,-0.0493 -1.42026,-0.42344 -1.72259,-0.59576 -0.11784,-0.0672 -0.27488,-0.15447 -0.34896,-0.19399 -0.1323,-0.0706 -0.49223,-0.3877 -1.20345,-1.06035 -0.82513,-0.78037 -1.4561,-1.69344 -2.12331,-3.0726 -0.19843,-0.41019 -0.60098,-1.68793 -0.74251,-2.35688 -0.12555,-0.5934 -0.14245,-0.84063 -0.14228,-2.08139 1.8e-4,-1.20368 0.0205,-1.51904 0.14045,-2.17322 0.22696,-1.23812 1.00641,-3.39692 1.35575,-3.75489 0.11316,-0.11596 0.23852,-0.17698 0.37724,-0.18365 0.18849,-0.009 0.20581,0.004 0.18674,0.14306 -0.0116,0.0842 -0.11458,0.37994 -0.22893,0.65726 -0.52049,1.26232 -0.76488,2.22128 -0.89,3.49215 -0.0919,0.93374 -0.0338,2.426 0.127,3.2591 0.25163,1.30395 0.79052,2.61665 1.40327,3.41827 0.18936,0.24773 0.40653,0.53658 0.48259,0.64188 0.56661,0.78436 2.4191,1.82294 3.11092,1.7441 0.17684,-0.0202 0.17461,-0.0238 -0.18834,-0.30344 -0.51702,-0.3984 -1.30613,-1.23819 -1.59344,-1.69577 -0.1337,-0.21294 -0.29936,-0.47465 -0.36814,-0.58157 -0.28477,-0.4427 -0.70858,-1.70505 -0.90793,-2.70432 -0.10401,-0.52137 -0.22184,-1.64851 -0.22192,-2.12293 -7e-5,-0.48664 -0.0292,-0.47873 1.76432,-0.4794 3.29322,-0.001 5.97069,-0.21763 7.82809,-0.63269 l 0.37924,-0.0848 0.0493,0.34371 c 0.0668,0.46577 0.0372,2.49998 -0.0447,3.06788 -0.083,0.57577 -0.43849,1.9984 -0.6808,2.72418 -0.10116,0.30303 -0.30605,0.79889 -0.4553,1.10191 l -0.27136,0.55096 0.32745,-0.34408 c 1.05507,-1.10862 1.80088,-2.48667 2.2655,-4.18601 0.40372,-1.47658 0.41841,-3.36853 0.0401,-5.16043 -0.20891,-0.98948 -0.64469,-2.66211 -0.73995,-2.84011 -0.0527,-0.0985 -0.0494,-0.11913 0.0156,-0.0975 0.11025,0.0367 0.68923,0.85056 0.90783,1.27615 0.0962,0.1873 0.21729,0.49033 0.26907,0.67339 0.0518,0.18307 0.16581,0.567 0.25339,0.85319 0.34683,1.13333 0.54285,3.38385 0.40522,4.65253 -0.11438,1.05446 -0.31296,2.00378 -0.56597,2.7057 -0.13717,0.38053 -0.3007,0.83689 -0.36339,1.01414 -0.13096,0.37024 -0.44949,0.97037 -0.81996,1.54486 -0.14114,0.21885 -0.30003,0.46678 -0.35309,0.55096 -0.2458,0.3899 -1.16577,1.22822 -1.76264,1.60621 -0.35109,0.22234 -1.21843,0.50401 -1.74469,0.5666 -0.16835,0.02 -0.39369,0.0498 -0.50077,0.0663 l -0.19467,0.0299 -0.003,1.14586 c -0.005,1.81762 -0.0644,6.35311 -0.10051,7.72731 -0.039,1.48305 -0.0385,1.48448 0.56502,1.55806 0.85253,0.10394 2.21236,0.48947 2.6846,0.76111 0.38397,0.22086 0.61389,0.45393 0.87828,0.89027 0.3735,0.61642 0.30491,1.23561 -0.19464,1.75696 -0.31998,0.33395 -1.03695,0.6239 -1.87986,0.76023 -0.31188,0.0504 -0.58765,0.10445 -0.61284,0.12001 -0.0928,0.0574 -2.64704,0.27426 -3.1357,0.26625 -0.27785,-0.005 -0.75312,-0.0317 -1.05614,-0.0603 z m 2.54359,-0.97583 c 1.59003,-0.12539 3.00232,-0.42847 3.31494,-0.71139 0.0723,-0.0654 0.11017,-0.18685 0.11017,-0.35327 0,-0.21374 -0.0361,-0.28753 -0.22957,-0.46986 -0.35196,-0.33161 -1.32789,-0.71612 -2.24974,-0.88636 -1.75857,-0.32476 -4.7967,0.18092 -5.45329,0.90768 -0.11513,0.12744 -0.20932,0.28542 -0.20932,0.35108 0,0.60906 0.82684,0.95325 2.78539,1.15947 0.71022,0.0748 1.01151,0.0752 1.93142,0.003 z m -18.67439,0.58122 c -0.0505,-0.0141 -0.82185,-0.0955 -1.71409,-0.18097 -0.89224,-0.0855 -1.82887,-0.18218 -2.08139,-0.21495 -1.45139,-0.18833 -2.70089,-0.38216 -2.96485,-0.45994 -0.16605,-0.0489 -0.35966,-0.0889 -0.43025,-0.0889 -0.21097,0 -0.96753,-0.39855 -1.17715,-0.62011 -0.10736,-0.11348 -0.2252,-0.28587 -0.26186,-0.3831 -0.0367,-0.0972 -0.0924,-0.84102 -0.12381,-1.65287 -0.12492,-3.22643 -0.27475,-6.01933 -0.36819,-6.86323 -0.0298,-0.26936 -0.0702,-0.87541 -0.0897,-1.34679 -0.0195,-0.47137 -0.0485,-0.95346 -0.0645,-1.0713 -0.0159,-0.11785 -0.084,-1.06825 -0.15123,-2.11201 -0.0672,-1.04375 -0.13562,-1.99415 -0.15196,-2.112 -0.0163,-0.11784 -0.0575,-0.86163 -0.0915,-1.65287 -0.034,-0.79123 -0.0939,-2.07425 -0.13307,-2.85115 -0.0546,-1.08097 -0.0543,-1.83537 10e-4,-3.21391 0.10125,-2.51237 0.18229,-3.84621 0.24893,-4.09704 0.0313,-0.11784 0.0887,-0.54483 0.12762,-0.94887 0.17503,-1.8188 0.52639,-3.10614 1.13617,-4.16278 0.6103,-1.05755 0.84391,-1.33992 2.35816,-2.85041 1.83698,-1.83242 1.86243,-1.87944 2.2518,-4.15899 0.19566,-1.14549 0.23135,-4.6743 0.0638,-6.3054 -0.0771,-0.75054 -0.10282,-0.85705 -0.2068,-0.85705 -0.0473,0 -0.17072,-0.0713 -0.27432,-0.15848 l -0.18835,-0.15849 v -2.45046 -2.45046 l 0.23095,-0.23094 c 0.12857,-0.12858 0.33887,-0.26091 0.47443,-0.29855 0.34118,-0.0947 3.98163,-0.0926 4.25437,0.002 0.3567,0.12435 0.77125,0.69215 0.91185,1.24894 0.0515,0.20405 0.0942,1.27901 0.13099,3.30219 0.11778,6.47249 0.22226,9.41084 0.36184,10.17651 0.0951,0.5219 0.64879,1.12093 2.17541,2.35373 1.16025,0.93694 2.18391,2.12428 2.65279,3.07695 0.37779,0.76761 0.45427,1.057 0.64802,2.45196 0.12373,0.89086 0.17087,1.62956 0.24614,3.8567 0.16363,4.84192 0.17333,6.36755 0.0715,11.23341 -0.0539,2.57572 -0.12664,6.11562 -0.16161,7.86644 -0.0584,2.92463 -0.11127,4.39775 -0.21821,6.08279 l -0.0403,0.63443 -0.34421,0.15097 c -0.18932,0.083 -0.39931,0.17545 -0.46665,0.20537 -0.47669,0.21178 -2.13658,0.73111 -3.09148,0.96721 -0.82259,0.2034 -3.21958,0.43425 -3.55062,0.34197 z m 1.55858,-1.58993 c 1.14425,-0.13496 2.29146,-0.35661 3.53312,-0.68262 l 1.08195,-0.28407 0.0377,-0.52557 c 0.0207,-0.28907 0.0773,-0.95257 0.12575,-1.47445 0.0484,-0.52188 0.10063,-1.18303 0.11597,-1.46922 0.0153,-0.28619 0.0695,-0.96111 0.12037,-1.49983 0.0509,-0.53871 0.10914,-1.32383 0.12951,-1.7447 0.0204,-0.42087 0.0752,-1.20598 0.12174,-1.74469 0.0466,-0.53872 0.11672,-1.66818 0.15586,-2.50992 0.0391,-0.84174 0.095,-1.83346 0.12404,-2.20383 0.0758,-0.96485 0.0237,-5.04951 -0.0881,-6.90959 -0.0919,-1.52919 -0.27515,-3.67539 -0.40579,-4.75233 -0.0347,-0.28619 -0.10328,-0.96112 -0.15236,-1.49983 -0.15166,-1.66477 -0.47706,-3.78375 -0.65368,-4.25683 -0.18323,-0.49077 -0.68471,-1.22673 -1.05395,-1.54675 -0.58732,-0.50901 -1.27779,-1.05675 -1.44153,-1.14353 -0.0823,-0.0436 -0.31912,-0.22311 -0.5263,-0.39886 -0.20719,-0.17576 -0.5393,-0.43092 -0.73805,-0.56702 -0.72142,-0.49403 -1.332,-1.05233 -1.47686,-1.35041 -0.30209,-0.62159 -0.31972,-1.39367 -0.10924,-4.78601 0.047,-0.75756 0.10453,-2.21798 0.12785,-3.24537 0.0397,-1.74956 0.0354,-1.87374 -0.0671,-1.95896 -0.0906,-0.0753 -0.38004,-0.091 -1.67657,-0.091 -1.52862,0 -1.56687,0.003 -1.5599,0.12244 0.004,0.0673 0.0452,0.42546 0.0918,0.79583 0.0586,0.46633 0.083,1.32279 0.0792,2.78539 -0.005,1.88134 -0.0236,2.26912 -0.17176,3.55061 -0.25405,2.19813 -0.39317,2.72681 -0.90414,3.43593 -0.18908,0.26241 -0.97949,1.08538 -2.10921,2.19608 -0.59375,0.58376 -1.15177,1.3132 -1.348,1.7621 -0.0841,0.19244 -0.20447,0.46009 -0.26743,0.59477 -0.39628,0.84773 -0.72646,3.18499 -0.86479,6.12175 -0.0705,1.49734 -0.0323,4.87167 0.0725,6.39722 0.0335,0.48821 0.10031,1.60417 0.14838,2.47992 0.0481,0.87575 0.11618,1.83993 0.15136,2.14261 0.0352,0.30269 0.10546,1.22109 0.15619,2.04089 0.0507,0.8198 0.1033,1.5085 0.11684,1.53044 0.0135,0.0219 0.056,0.5082 0.0944,1.08059 0.0384,0.57238 0.0946,1.20598 0.12501,1.408 0.0304,0.20202 0.0845,0.95958 0.12025,1.68348 0.0358,0.72389 0.0941,1.64675 0.12954,2.05078 0.0355,0.40404 0.0835,1.34056 0.10662,2.08117 l 0.0421,1.34655 0.58157,0.16965 c 0.31985,0.0933 0.92591,0.23691 1.34678,0.31913 1.13227,0.22117 2.25221,0.36788 4.40765,0.57736 0.82237,0.0799 1.31399,0.0737 2.17076,-0.0273 z M 291.31776,165.829 c -0.61712,-0.0567 -1.35017,-0.24467 -1.45474,-0.37308 -0.1517,-0.18628 -0.32986,-0.97666 -0.38308,-1.69948 -0.069,-0.937 -0.0707,-7.68853 -0.002,-9.45809 0.0554,-1.43582 0.12766,-1.72914 0.48917,-1.98656 0.2539,-0.1808 0.65378,-0.22597 2.7284,-0.30822 0.94275,-0.0374 2.23749,-0.1086 2.87722,-0.15828 1.06511,-0.0827 1.6892,-0.15346 3.79548,-0.4303 0.88814,-0.11673 1.52751,-0.0904 1.81437,0.0747 0.40602,0.23372 0.40365,0.21588 0.47867,3.60446 0.0373,1.68348 0.0738,4.39694 0.0811,6.02991 0.0154,3.42133 0.009,3.48548 -0.40625,3.81682 -0.48232,0.38528 -0.74516,0.44813 -2.45763,0.58774 -0.4377,0.0357 -1.11263,0.0925 -1.49983,0.12624 -2.42275,0.21119 -4.88614,0.28196 -6.06052,0.17411 z m 9.91506,-1.15069 c -10e-4,-0.0612 -0.0336,-0.0405 -0.0897,0.0576 -0.11451,0.2003 -0.11315,0.30883 0.002,0.15665 0.0494,-0.0654 0.0889,-0.16178 0.0877,-0.21426 z m 0.046,-0.60047 c -0.014,-0.0926 -0.0255,-0.0168 -0.0255,0.16834 0,0.18519 0.0115,0.26094 0.0255,0.16835 0.014,-0.0926 0.014,-0.2441 0,-0.33669 z m 13.48523,-13.95289 c -1.59393,-0.0824 -4.07354,-0.53937 -4.81335,-0.88713 -0.19586,-0.0921 -0.26246,-0.16265 -0.29178,-0.30925 -0.0209,-0.10448 -0.028,-0.19994 -0.0158,-0.21213 0.0598,-0.0598 0.94951,-0.20729 1.63154,-0.27046 1.35231,-0.12526 5.52225,-0.003 7.39723,0.21647 0.85478,0.10016 1.05078,0.18634 1.05078,0.46205 0,0.41058 -0.60002,0.66613 -2.0893,0.88981 -0.62202,0.0934 -2.09972,0.15041 -2.86931,0.11064 z m 3.8567,-1.30557 c -0.0505,-0.0326 -0.24334,-0.0556 -0.42853,-0.0511 l -0.33669,0.008 0.27548,0.0428 c 0.44665,0.0694 0.59719,0.0694 0.48974,0 z"
       id="path9518" /><g
       id="g1524"
       transform="translate(1.037039,0.27209763)"><path
         id="path425"
         style="vector-effect:non-scaling-stroke;fill:none;fill-opacity:1;stroke:#0000ff;stroke-width:0.264583;stroke-opacity:1;-inkscape-stroke:hairline;stop-color:#000000"
         d="m 84.306641,20.654297 c 0,24.785807 0,49.571614 0,74.357422 71.929039,0 143.858069,0 215.787109,0 12.51407,-12.481368 25.02776,-24.963133 37.54297,-37.44336 C 325.12151,45.088133 312.60783,32.606368 300.09375,20.125 c -71.92904,0 -143.85807,0 -215.787109,0 0,0.176432 0,0.352865 0,0.529297 z" /><circle
         style="vector-effect:non-scaling-stroke;fill:none;fill-opacity:1;stroke:#ff0000;stroke-width:0.264583;stroke-opacity:1;-inkscape-stroke:hairline;stop-color:#000000"
         id="path1062"
         cx="205.64572"
         cy="15.17749"
         r="3" /><circle
         style="vector-effect:non-scaling-stroke;fill:none;fill-opacity:1;stroke:#ff0000;stroke-width:0.264583;stroke-opacity:1;-inkscape-stroke:hairline;stop-color:#000000"
         id="circle1484"
         cx="205.64572"
         cy="99.844139"
         r="3" /></g><g
       id="g1495"
       transform="translate(3.1111,0.07907263)"><path
         id="path1486"
         style="vector-effect:non-scaling-stroke;fill:none;fill-opacity:1;stroke:#0000ff;stroke-width:0.264583;stroke-opacity:1;-inkscape-stroke:hairline;stop-color:#000000"
         d="m 337.63672,115.90431 c 0,24.78582 0,49.57164 0,74.35747 -71.92904,0 -143.85807,0 -215.78711,0 -12.51407,-12.48138 -25.027759,-24.96315 -37.542969,-37.44339 12.51521,-12.48023 25.028889,-24.962 37.542969,-37.44338 71.92904,0 143.85807,0 215.78711,0 0,0.17643 0,0.35287 0,0.5293 z" /><circle
         style="vector-effect:non-scaling-stroke;fill:none;fill-opacity:1;stroke:#ff0000;stroke-width:0.264583;stroke-opacity:1;-inkscape-stroke:hairline;stop-color:#000000"
         id="circle1488"
         cx="-216.29764"
         cy="110.42747"
         r="3"
         transform="scale(-1,1)" /><circle
         style="vector-effect:non-scaling-stroke;fill:none;fill-opacity:1;stroke:#ff0000;stroke-width:0.264583;stroke-opacity:1;-inkscape-stroke:hairline;stop-color:#000000"
         id="circle1490"
         cx="-216.29764"
         cy="195.09419"
         r="3"
         transform="scale(-1,1)" /></g></g></svg>
