<?xml version="1.0" encoding="UTF-8" standalone="no"?>
<!-- Created with Inkscape (http://www.inkscape.org/) -->

<svg
   width="277.59152mm"
   height="190.00002mm"
   viewBox="0 0 277.59152 190.00002"
   version="1.1"
   id="svg5"
   inkscape:version="1.2.1 (9c6d41e, 2022-07-14)"
   sodipodi:docname="signage-campsite.svg"
   xml:space="preserve"
   xmlns:inkscape="http://www.inkscape.org/namespaces/inkscape"
   xmlns:sodipodi="http://sodipodi.sourceforge.net/DTD/sodipodi-0.dtd"
   xmlns="http://www.w3.org/2000/svg"
   xmlns:svg="http://www.w3.org/2000/svg"><sodipodi:namedview
     id="namedview7"
     pagecolor="#ffffff"
     bordercolor="#666666"
     borderopacity="1.0"
     inkscape:showpageshadow="2"
     inkscape:pageopacity="0.0"
     inkscape:pagecheckerboard="0"
     inkscape:deskcolor="#d1d1d1"
     inkscape:document-units="mm"
     showgrid="false"
     inkscape:zoom="0.62232995"
     inkscape:cx="503.75207"
     inkscape:cy="330.21069"
     inkscape:window-width="1280"
     inkscape:window-height="701"
     inkscape:window-x="0"
     inkscape:window-y="25"
     inkscape:window-maximized="0"
     inkscape:current-layer="layer1" /><defs
     id="defs2" /><g
     inkscape:label="Layer 1"
     inkscape:groupmode="layer"
     id="layer1"
     transform="translate(-74.249992,-10.067796)"><path
       id="rect234"
       style="vector-effect:non-scaling-stroke;fill:none;stroke:#ff0000;stroke-width:0.264583;-inkscape-stroke:hairline;stop-color:#000000"
       d="m 74.25,10.067796 h 230.0005 l 47.591,47.500014 -47.591,47.49999 H 74.25 Z"
       sodipodi:nodetypes="cccccc" /><g
       aria-label="CAMPSITE"
       id="text664"
       style="font-size:35.2778px;line-height:1.25;text-align:center;text-anchor:middle;vector-effect:non-scaling-stroke;fill:none;stroke:#0000ff;stroke-width:0.264583;-inkscape-stroke:hairline"><path
         d="m 176.51292,63.937579 q -3.35139,8.360839 -6.70278,8.396117 -4.05695,0.03528 -5.92667,-4.198059 -1.44639,-3.245557 -1.48167,-8.50195 -0.0353,-5.92667 1.55223,-10.795007 1.83444,-5.679726 4.97417,-6.032504 0.45861,-0.03528 0.88194,-0.03528 2.92806,0 4.51556,2.610557 1.16417,1.975557 1.97556,6.279449 0.59972,1.728612 0.59972,2.116668 0,1.164168 -1.44639,1.799168 -0.3175,0.141111 -0.74084,0.141111 -1.02305,0 -2.25777,-0.670278 -1.44639,-0.776112 -1.44639,-1.693335 0,-0.141111 0.49389,-1.375834 -0.0706,-1.552223 -0.56445,-2.928057 -0.49389,-1.411112 -1.12889,-1.552224 -0.98778,-0.246944 -1.72861,3.915836 -0.635,3.457225 -0.77611,7.620006 -0.10584,3.139724 0.35277,5.820837 0.52917,3.069169 1.58751,3.280835 0.635,0.105834 1.51694,-1.587501 0.84667,-1.552223 1.41111,-3.668891 -0.0706,-0.352778 -0.0706,-0.670278 0,-2.081391 2.54,-2.081391 0.56444,0 1.12889,0.105834 1.72861,0.352778 1.72861,1.728612 0,1.12889 -0.98778,1.975557 z"
         style="font-family:'Marker Felt';-inkscape-font-specification:'Marker Felt';vector-effect:non-scaling-stroke"
         id="path2195" /><path
         d="m 198.31456,64.184524 q -0.24694,0.458611 -1.09361,0.564444 -0.0705,0 -1.51694,0.07056 0.24694,1.587501 1.83444,3.951114 0.91723,0.670278 0.91723,1.76389 0,1.728612 -2.11667,1.728612 -2.01084,0 -2.75167,-1.023056 -0.24695,-0.352778 -0.3175,-0.952501 0,-0.388056 -0.0353,-0.811389 -0.3175,-0.3175 -1.905,-4.092225 -2.89278,0.423333 -7.12612,1.199445 -0.42333,1.023056 -0.91722,2.963335 0.0706,0.352778 0.0706,0.670279 0,0.9525 -0.635,1.446389 -0.635,0.529168 -1.51695,0.529168 -0.98778,0 -1.83445,-0.740834 -0.84666,-0.740834 -0.84666,-1.728613 0,-0.881945 0.81139,-1.587501 2.64583,-13.440842 6.42056,-22.225015 -0.0706,-0.423333 -0.0706,-0.846667 0,-1.76389 1.19945,-2.328335 0.49389,-0.211667 1.27,-0.211667 1.48166,0 2.46944,0.458612 1.27,0.635 1.27,1.905001 0,1.164168 -0.635,2.08139 0.67028,5.997227 2.89278,13.828899 0.21167,-0.03528 1.44639,-0.352778 0.74084,-0.211667 1.12889,-0.211667 0.45861,0 0.74084,0.211667 1.23472,0.9525 1.23472,2.328334 0,0.740834 -0.38806,1.411113 z m -8.46667,-2.681113 q -0.59972,-2.222502 -1.905,-8.537228 -2.50472,5.468059 -2.96334,9.383895 z"
         style="font-family:'Marker Felt';-inkscape-font-specification:'Marker Felt';vector-effect:non-scaling-stroke"
         id="path2197" /><path
         d="m 231.47566,71.310639 q -0.81139,1.164168 -2.36361,1.164168 -1.41112,0 -2.92806,-0.917223 -1.37583,-0.811389 -1.55222,-1.587501 -0.0706,-0.282222 -0.0706,-0.529167 0,-0.564445 0.45861,-1.270001 0.49389,-0.705556 0.45861,-1.234723 l -1.05833,-11.853341 -6.06778,13.687787 q -0.10584,0.282222 -0.10584,0.670278 0,0.282222 0.0706,0.881945 0.10583,0.599723 0.10583,0.917223 0,0.811389 -0.635,1.234723 -0.91722,0.635 -2.15194,0.635 -1.23473,0 -2.25778,-0.670278 -0.98778,-0.635 -1.23473,-1.693334 -0.0705,-0.317501 -0.0705,-0.564445 0,-0.246945 0.0705,-0.599723 0.0706,-0.352778 0.0706,-0.529167 0,-0.211667 -0.0706,-0.423333 l -5.08,-13.546676 0.49389,12.770564 q 0.0353,0.493889 0.24694,1.411112 0.21167,0.881945 0.21167,1.305279 0,1.305278 -1.94028,2.046112 -0.24694,0.07056 -0.59972,0.07056 -1.09361,0 -2.25778,-0.740834 -1.34056,-0.81139 -1.72861,-2.116668 -0.0706,-0.211667 -0.0706,-0.388056 0,-0.352778 0.42334,-0.776112 0.42333,-0.458611 0.42333,-0.811389 l -0.42333,-20.108347 q 0,-0.493889 -0.35278,-1.234723 -0.35278,-0.776112 -0.35278,-1.164167 0,-0.599723 0.635,-1.270001 0.635,-0.705556 2.2225,-0.705556 2.32834,0 3.70417,1.128889 0.77611,0.635001 0.77611,1.340557 0,0.105833 -0.0353,0.3175 0,0.211667 0,0.3175 0,0.3175 0.10583,0.564445 l 6.985,16.933345 7.83168,-17.991679 q 0.14111,-0.3175 0.14111,-0.740834 0,-0.141111 -0.0353,-0.423333 0,-0.282223 0,-0.423334 0,-0.81139 0.74083,-1.375834 0.59973,-0.458612 1.5875,-0.458612 1.51695,0 2.92806,0.917223 1.44639,0.917223 1.41111,2.08139 -0.0353,0.564445 -0.52916,0.952501 -0.49389,0.352778 -0.45862,0.670278 l 1.48167,20.813903 q 0.0353,0.352778 0.56445,1.234723 0.52916,0.846667 0.52916,1.375834 0,0.352778 -0.24694,0.705556 z"
         style="font-family:'Marker Felt';-inkscape-font-specification:'Marker Felt';vector-effect:non-scaling-stroke"
         id="path2199" /><path
         d="m 249.2556,44.711177 q 0.52917,0.776112 0.52917,2.08139 0,3.069169 -3.3514,9.454451 -3.4925,6.73806 -5.715,6.73806 -0.56444,0 -0.84667,-0.635 -0.10583,0.811389 -0.10583,2.046112 0,2.116668 0.24694,4.868337 0,0.246945 0.17639,0.811389 0.17639,0.564445 0.17639,0.846668 0,0.670278 -0.91722,1.128889 -0.42333,0.211667 -1.12889,0.211667 -1.16417,0 -2.18722,-0.529167 -1.16417,-0.564445 -1.34056,-1.481668 -0.0353,-0.246944 -0.0353,-0.423333 0,-0.529167 0.35278,-0.952501 0.38806,-0.458611 0.38806,-0.599722 l -0.635,-22.860016 q 0,-0.105833 -0.10584,-0.423333 -0.10583,-0.317501 -0.10583,-0.49389 0,-0.635 0.91722,-0.987778 0.70556,-0.282223 1.48167,-0.282223 0.24694,0 1.97556,0.211667 0.21166,0 2.08139,-0.740834 1.905,-0.776111 3.35139,-0.776111 2.82222,0 4.79778,2.786946 z m -5.25639,1.411112 q -0.84667,0 -2.18723,0.917223 -1.30528,0.881945 -2.29305,2.046113 l 0.14111,8.113894 q 1.55222,-1.164168 3.35139,-4.65667 1.83444,-3.52778 1.83444,-5.362226 0,-1.058334 -0.84666,-1.058334 z"
         style="font-family:'Marker Felt';-inkscape-font-specification:'Marker Felt';vector-effect:non-scaling-stroke"
         id="path2201" /><path
         d="m 265.90669,65.52508 q 0,2.751669 -1.76389,4.833059 -1.72862,2.046112 -4.30389,2.046112 -5.18584,0 -7.62001,-4.938892 -2.64584,-1.728612 -2.64584,-2.928057 0,-0.599723 0.74084,-0.987779 1.44639,-0.776112 2.64583,-0.776112 2.61056,0 3.49251,3.104447 0.42333,0.846667 0.88194,1.693335 0.45861,0.846667 1.23472,0.846667 2.08139,0 2.08139,-2.963336 0,-2.645835 -0.9525,-3.563058 -0.42333,-0.388055 -3.38666,-1.622778 -2.36362,-0.987779 -3.81001,-3.386669 -1.30528,-2.187224 -1.34055,-4.550837 -0.0353,-3.810002 1.905,-6.773338 2.04611,-3.175002 5.08,-3.175002 3.52778,0 5.15056,2.822224 1.05833,1.76389 1.19945,4.374448 0.38805,1.340556 0.38805,2.434168 0,0.705556 -0.17639,1.164167 -0.52917,1.305279 -2.08139,1.305279 -1.16417,0 -2.11667,-0.846667 -1.05833,-0.917223 -1.30528,-2.57528 -0.10583,-0.564444 0.21167,-1.128889 0.35278,-0.564445 0.35278,-0.635001 0,-0.07055 -0.0706,-0.141111 0.0353,-0.176389 0.0353,-0.352778 0,-1.058334 -1.23472,-0.987778 -1.19945,0.07055 -1.86972,1.587501 -0.59973,1.305278 -0.52917,2.998613 0.10583,2.998613 3.95111,4.797781 3.03389,1.411112 4.19806,2.786946 1.65806,1.975557 1.65806,5.538615 z"
         style="font-family:'Marker Felt';-inkscape-font-specification:'Marker Felt';vector-effect:non-scaling-stroke"
         id="path2203" /><path
         d="m 274.09112,71.098973 q -0.3175,0.881945 -1.83444,0.881945 -0.42334,0 -0.91722,-0.07056 -2.89278,-0.458611 -3.38667,-1.728612 -0.10584,-0.246945 -0.10584,-0.493889 0,-0.740834 0.81139,-1.481668 -0.14111,-5.29167 -0.635,-21.590015 0.0353,-0.458611 -0.24694,-1.058334 -0.28222,-0.635 -0.28222,-0.917222 0,-0.635001 0.81138,-1.340557 0.56445,-0.493889 1.58751,-0.493889 1.16416,0 2.46944,0.599722 1.55223,0.740834 1.55223,1.799168 0,0.246945 -0.74084,1.905002 l 0.35278,21.378347 q 0,0.423334 0.3175,1.093612 0.3175,0.635001 0.3175,1.023056 0,0.246945 -0.0706,0.49389 z"
         style="font-family:'Marker Felt';-inkscape-font-specification:'Marker Felt';vector-effect:non-scaling-stroke"
         id="path2205" /><path
         d="m 291.51835,47.039512 q -0.38805,0.740834 -1.65805,0.740834 -1.65806,0 -1.94028,0.105833 -1.30528,0.564445 -3.03389,1.270001 -0.10584,2.681113 -0.10584,5.891393 0,6.526393 0.38806,13.370287 0,0.493889 0.35278,1.305278 0.38805,0.776112 0.38805,1.12889 0,0.458611 -0.3175,0.846667 -0.77611,1.058334 -2.32833,1.058334 -1.34056,0 -2.57528,-0.740834 -1.19945,-0.705556 -1.37584,-1.693334 -0.10583,-0.529167 0.52917,-1.199445 0.67028,-0.670278 0.67028,-1.270001 -0.24695,-7.020283 -0.24695,-12.276675 0,-3.175002 0.10584,-5.080003 -0.0353,0 -0.98778,0.352778 -0.635,0.246944 -1.02306,0.246944 -0.56444,0 -1.02305,-0.388056 -1.12889,-0.9525 -1.41112,-1.27 -0.56444,-0.635001 -0.56444,-1.340557 0,-0.246945 0.0706,-0.564445 0.10583,-0.493889 5.15055,-2.010834 5.43279,-1.658057 5.85612,-1.94028 0.38806,-0.141111 0.84667,-0.635 0.49389,-0.493889 1.05833,-0.564445 0.77611,-0.07055 2.04611,1.023056 1.41112,1.234724 1.41112,2.57528 0,0.529167 -0.28223,1.058334 z"
         style="font-family:'Marker Felt';-inkscape-font-specification:'Marker Felt';vector-effect:non-scaling-stroke"
         id="path2207" /><path
         d="m 306.40557,46.616178 q -0.81139,0.670279 -2.08139,0.670279 -0.52917,0 -1.23473,-0.105834 -1.02305,0.3175 -1.83444,0.635001 -1.97556,0.740833 -2.61056,1.270001 -0.21167,3.668891 0,8.396116 0.21167,-0.141111 1.05833,-0.282222 0.42334,-0.740834 1.44639,-0.740834 1.02306,0 2.36362,0.987778 1.37583,0.987779 1.37583,1.94028 0,0.246944 -0.10583,0.493889 -0.42334,1.058334 -1.30528,1.340556 -0.52917,0.176389 -1.55222,0.105834 -1.02306,-0.105834 -1.30528,0.03528 -0.81139,0.388056 -1.97556,0.917223 0,3.175002 0.21167,4.092225 1.48167,-0.352778 2.46944,-0.846667 0.17639,-0.246945 0.35278,-0.458611 0.35278,-0.388056 1.27,-0.317501 0.98778,0.07056 2.04612,1.12889 1.05833,1.058334 1.05833,2.151946 0,0.952501 -0.81139,1.411112 -0.81139,0.458611 -2.71639,0.3175 l -3.31611,1.658057 q -0.21167,0.105833 -0.91723,0.705556 -0.52916,0.458611 -0.9525,0.458611 -0.14111,0 -0.3175,-0.03528 -1.86972,-0.564445 -3.38667,-2.928058 -0.10583,-0.176389 -0.10583,-0.423334 0,-0.105833 0.38806,-1.411112 -0.38806,-10.26584 -0.14112,-21.872237 -0.24694,-0.352778 -0.24694,-0.705556 0,-1.164167 2.15195,-1.481667 0.45861,-0.07056 1.16416,0.246944 0.45861,0.246945 0.88195,0.458612 l 4.23333,-1.340557 q 0.14112,-0.03528 0.81139,-0.423333 0.45862,-0.282223 1.05834,-0.282223 0.28222,0 0.67028,0.07056 0.77611,0.141111 1.51694,1.234723 0.77611,1.058334 0.77611,2.010835 0,0.599722 -0.38805,0.917222 z"
         style="font-family:'Marker Felt';-inkscape-font-specification:'Marker Felt';vector-effect:non-scaling-stroke"
         id="path2209" /></g><g
       id="g1482"><rect
         style="vector-effect:non-scaling-stroke;fill:none;stroke:#ffff00;stroke-width:0.264583;stroke-opacity:1;-inkscape-stroke:hairline;stop-color:#000000"
         id="rect716"
         width="57.903198"
         height="57.903198"
         x="93.402603"
         y="28.616199" /><rect
         style="vector-effect:non-scaling-stroke;fill:none;stroke:#ffff00;stroke-width:0.264582;stroke-opacity:1;-inkscape-stroke:hairline;stop-color:#000000"
         id="rect1272"
         width="166.58305"
         height="57.903198"
         x="151.3058"
         y="28.616199" /></g><path
       id="path2062"
       style="vector-effect:non-scaling-stroke;fill:none;stroke:#ff0000;stroke-width:0.264583;-inkscape-stroke:hairline;stop-color:#000000"
       d="m 121.84099,105.0678 -47.590998,47.50002 47.590998,47.49999 h 230.0005 V 105.0678 h -48.51057"
       sodipodi:nodetypes="cccccc" /><g
       aria-label="CAMPSITE"
       id="text2066"
       style="font-size:35.2778px;line-height:1.25;text-align:center;text-anchor:middle;vector-effect:non-scaling-stroke;fill:none;stroke:#0000ff;stroke-width:0.264583;-inkscape-stroke:hairline"><path
         d="m 133.76594,158.93758 q -3.35139,8.36084 -6.70278,8.39612 -4.05695,0.0353 -5.92667,-4.19806 -1.44639,-3.24556 -1.48167,-8.50195 -0.0353,-5.92667 1.55223,-10.79501 1.83444,-5.67973 4.97417,-6.0325 0.45861,-0.0353 0.88194,-0.0353 2.92806,0 4.51556,2.61056 1.16417,1.97555 1.97556,6.27944 0.59972,1.72862 0.59972,2.11667 0,1.16417 -1.44639,1.79917 -0.3175,0.14111 -0.74083,0.14111 -1.02306,0 -2.25778,-0.67028 -1.44639,-0.77611 -1.44639,-1.69333 0,-0.14111 0.49389,-1.37584 -0.0706,-1.55222 -0.56445,-2.92805 -0.49389,-1.41112 -1.12889,-1.55223 -0.98778,-0.24694 -1.72861,3.91584 -0.635,3.45722 -0.77611,7.62 -0.10584,3.13973 0.35278,5.82084 0.52916,3.06917 1.5875,3.28084 0.635,0.10583 1.51694,-1.5875 0.84667,-1.55223 1.41111,-3.6689 -0.0705,-0.35277 -0.0705,-0.67027 0,-2.08139 2.54,-2.08139 0.56445,0 1.12889,0.10583 1.72861,0.35278 1.72861,1.72861 0,1.12889 -0.98778,1.97556 z"
         style="font-family:'Marker Felt';-inkscape-font-specification:'Marker Felt';vector-effect:non-scaling-stroke"
         id="path2212" /><path
         d="m 155.56759,159.18452 q -0.24695,0.45861 -1.09362,0.56445 -0.0705,0 -1.51694,0.0705 0.24694,1.58751 1.83444,3.95112 0.91723,0.67028 0.91723,1.76389 0,1.72861 -2.11667,1.72861 -2.01084,0 -2.75167,-1.02306 -0.24694,-0.35277 -0.3175,-0.9525 0,-0.38805 -0.0353,-0.81139 -0.3175,-0.3175 -1.905,-4.09222 -2.89278,0.42333 -7.12612,1.19944 -0.42333,1.02306 -0.91722,2.96334 0.0706,0.35278 0.0706,0.67028 0,0.9525 -0.635,1.44639 -0.635,0.52916 -1.51695,0.52916 -0.98778,0 -1.83444,-0.74083 -0.84667,-0.74083 -0.84667,-1.72861 0,-0.88195 0.81139,-1.5875 2.64583,-13.44085 6.42056,-22.22502 -0.0706,-0.42333 -0.0706,-0.84666 0,-1.76389 1.19945,-2.32834 0.49389,-0.21167 1.27,-0.21167 1.48167,0 2.46944,0.45861 1.27001,0.63501 1.27001,1.90501 0,1.16416 -0.63501,2.08139 0.67028,5.99722 2.89278,13.82889 0.21167,-0.0353 1.44639,-0.35277 0.74084,-0.21167 1.12889,-0.21167 0.45862,0 0.74084,0.21167 1.23472,0.9525 1.23472,2.32833 0,0.74084 -0.38805,1.41111 z m -8.46668,-2.68111 q -0.59972,-2.2225 -1.905,-8.53723 -2.50472,5.46806 -2.96333,9.3839 z"
         style="font-family:'Marker Felt';-inkscape-font-specification:'Marker Felt';vector-effect:non-scaling-stroke"
         id="path2214" /><path
         d="m 188.72868,166.31064 q -0.81139,1.16417 -2.36361,1.16417 -1.41111,0 -2.92806,-0.91723 -1.37583,-0.81139 -1.55222,-1.5875 -0.0706,-0.28222 -0.0706,-0.52916 0,-0.56445 0.45861,-1.27 0.49389,-0.70556 0.45861,-1.23473 l -1.05833,-11.85334 -6.06778,13.68779 q -0.10583,0.28222 -0.10583,0.67028 0,0.28222 0.0706,0.88194 0.10583,0.59972 0.10583,0.91722 0,0.81139 -0.635,1.23473 -0.91722,0.635 -2.15194,0.635 -1.23473,0 -2.25778,-0.67028 -0.98778,-0.635 -1.23472,-1.69334 -0.0706,-0.3175 -0.0706,-0.56444 0,-0.24694 0.0706,-0.59972 0.0706,-0.35278 0.0706,-0.52917 0,-0.21167 -0.0706,-0.42333 l -5.08001,-13.54668 0.49389,12.77056 q 0.0353,0.49389 0.24695,1.41112 0.21166,0.88194 0.21166,1.30528 0,1.30527 -1.94028,2.04611 -0.24694,0.0706 -0.59972,0.0706 -1.09361,0 -2.25778,-0.74083 -1.34055,-0.81139 -1.72861,-2.11667 -0.0706,-0.21167 -0.0706,-0.38805 0,-0.35278 0.42334,-0.77612 0.42333,-0.45861 0.42333,-0.81139 l -0.42333,-20.10834 q 0,-0.49389 -0.35278,-1.23472 -0.35278,-0.77612 -0.35278,-1.16417 0,-0.59973 0.635,-1.27 0.635,-0.70556 2.2225,-0.70556 2.32834,0 3.70417,1.12889 0.77611,0.635 0.77611,1.34056 0,0.10583 -0.0353,0.3175 0,0.21166 0,0.3175 0,0.3175 0.10583,0.56444 l 6.985,16.93335 7.83168,-17.99168 q 0.14111,-0.3175 0.14111,-0.74084 0,-0.14111 -0.0353,-0.42333 0,-0.28222 0,-0.42333 0,-0.81139 0.74083,-1.37584 0.59973,-0.45861 1.5875,-0.45861 1.51695,0 2.92806,0.91722 1.44639,0.91723 1.41111,2.08139 -0.0353,0.56445 -0.52916,0.95251 -0.49389,0.35277 -0.45861,0.67027 l 1.48166,20.81391 q 0.0353,0.35277 0.56445,1.23472 0.52917,0.84667 0.52917,1.37583 0,0.35278 -0.24695,0.70556 z"
         style="font-family:'Marker Felt';-inkscape-font-specification:'Marker Felt';vector-effect:non-scaling-stroke"
         id="path2216" /><path
         d="m 206.50862,139.71118 q 0.52917,0.77611 0.52917,2.08139 0,3.06917 -3.35139,9.45445 -3.49251,6.73806 -5.71501,6.73806 -0.56444,0 -0.84667,-0.635 -0.10583,0.81139 -0.10583,2.04611 0,2.11667 0.24695,4.86834 0,0.24694 0.17638,0.81139 0.17639,0.56444 0.17639,0.84666 0,0.67028 -0.91722,1.12889 -0.42333,0.21167 -1.12889,0.21167 -1.16417,0 -2.18722,-0.52917 -1.16417,-0.56444 -1.34056,-1.48166 -0.0353,-0.24695 -0.0353,-0.42334 0,-0.52917 0.35278,-0.9525 0.38806,-0.45861 0.38806,-0.59972 l -0.635,-22.86002 q 0,-0.10583 -0.10584,-0.42333 -0.10583,-0.3175 -0.10583,-0.49389 0,-0.635 0.91722,-0.98778 0.70556,-0.28222 1.48167,-0.28222 0.24694,0 1.97556,0.21167 0.21166,0 2.08139,-0.74084 1.905,-0.77611 3.35139,-0.77611 2.82222,0 4.79778,2.78695 z m -5.25639,1.41111 q -0.84667,0 -2.18723,0.91722 -1.30528,0.88195 -2.29305,2.04611 l 0.14111,8.1139 q 1.55222,-1.16417 3.35139,-4.65667 1.83444,-3.52778 1.83444,-5.36223 0,-1.05833 -0.84666,-1.05833 z"
         style="font-family:'Marker Felt';-inkscape-font-specification:'Marker Felt';vector-effect:non-scaling-stroke"
         id="path2218" /><path
         d="m 223.15971,160.52508 q 0,2.75167 -1.76389,4.83306 -1.72861,2.04611 -4.30389,2.04611 -5.18584,0 -7.62001,-4.93889 -2.64583,-1.72861 -2.64583,-2.92806 0,-0.59972 0.74083,-0.98778 1.44639,-0.77611 2.64584,-0.77611 2.61055,0 3.4925,3.10445 0.42333,0.84667 0.88194,1.69333 0.45861,0.84667 1.23473,0.84667 2.08139,0 2.08139,-2.96334 0,-2.64583 -0.9525,-3.56305 -0.42334,-0.38806 -3.38667,-1.62278 -2.36362,-0.98778 -3.81001,-3.38667 -1.30527,-2.18723 -1.34055,-4.55084 -0.0353,-3.81 1.905,-6.77334 2.04611,-3.175 5.08,-3.175 3.52778,0 5.15056,2.82223 1.05834,1.76389 1.19945,4.37444 0.38805,1.34056 0.38805,2.43417 0,0.70556 -0.17639,1.16417 -0.52916,1.30528 -2.08139,1.30528 -1.16416,0 -2.11667,-0.84667 -1.05833,-0.91722 -1.30527,-2.57528 -0.10584,-0.56444 0.21166,-1.12889 0.35278,-0.56444 0.35278,-0.635 0,-0.0705 -0.0705,-0.14111 0.0353,-0.17639 0.0353,-0.35278 0,-1.05833 -1.23472,-0.98778 -1.19945,0.0706 -1.86972,1.5875 -0.59973,1.30528 -0.52917,2.99862 0.10583,2.99861 3.95111,4.79778 3.03389,1.41111 4.19806,2.78695 1.65806,1.97555 1.65806,5.53861 z"
         style="font-family:'Marker Felt';-inkscape-font-specification:'Marker Felt';vector-effect:non-scaling-stroke"
         id="path2220" /><path
         d="m 231.34415,166.09897 q -0.3175,0.88195 -1.83445,0.88195 -0.42333,0 -0.91722,-0.0706 -2.89278,-0.45861 -3.38667,-1.72861 -0.10584,-0.24694 -0.10584,-0.49389 0,-0.74083 0.81139,-1.48167 -0.14111,-5.29167 -0.635,-21.59001 0.0353,-0.45861 -0.24694,-1.05834 -0.28222,-0.635 -0.28222,-0.91722 0,-0.635 0.81139,-1.34055 0.56444,-0.49389 1.5875,-0.49389 1.16416,0 2.46944,0.59972 1.55223,0.74083 1.55223,1.79917 0,0.24694 -0.74084,1.905 l 0.35278,21.37835 q 0,0.42333 0.3175,1.09361 0.3175,0.635 0.3175,1.02305 0,0.24695 -0.0705,0.49389 z"
         style="font-family:'Marker Felt';-inkscape-font-specification:'Marker Felt';vector-effect:non-scaling-stroke"
         id="path2222" /><path
         d="m 248.77137,142.03951 q -0.38805,0.74084 -1.65805,0.74084 -1.65806,0 -1.94028,0.10583 -1.30528,0.56444 -3.03389,1.27 -0.10584,2.68111 -0.10584,5.89139 0,6.5264 0.38806,13.37029 0,0.49389 0.35278,1.30528 0.38805,0.77611 0.38805,1.12889 0,0.45861 -0.3175,0.84667 -0.77611,1.05833 -2.32833,1.05833 -1.34056,0 -2.57528,-0.74083 -1.19945,-0.70556 -1.37584,-1.69334 -0.10583,-0.52917 0.52917,-1.19944 0.67028,-0.67028 0.67028,-1.27001 -0.24694,-7.02028 -0.24694,-12.27667 0,-3.175 0.10583,-5.08 -0.0353,0 -0.98778,0.35277 -0.635,0.24695 -1.02306,0.24695 -0.56444,0 -1.02305,-0.38806 -1.12889,-0.9525 -1.41111,-1.27 -0.56445,-0.635 -0.56445,-1.34055 0,-0.24695 0.0706,-0.56445 0.10583,-0.49389 5.15056,-2.01083 5.43278,-1.65806 5.85611,-1.94028 0.38806,-0.14111 0.84667,-0.635 0.49389,-0.49389 1.05833,-0.56445 0.77611,-0.0705 2.04611,1.02306 1.41112,1.23472 1.41112,2.57528 0,0.52917 -0.28223,1.05833 z"
         style="font-family:'Marker Felt';-inkscape-font-specification:'Marker Felt';vector-effect:non-scaling-stroke"
         id="path2224" /><path
         d="m 263.65859,141.61618 q -0.81139,0.67028 -2.08139,0.67028 -0.52917,0 -1.23472,-0.10584 -1.02306,0.3175 -1.83445,0.635 -1.97556,0.74084 -2.61056,1.27 -0.21166,3.6689 0,8.39612 0.21167,-0.14111 1.05834,-0.28222 0.42333,-0.74083 1.44639,-0.74083 1.02305,0 2.36361,0.98777 1.37583,0.98778 1.37583,1.94028 0,0.24695 -0.10583,0.49389 -0.42333,1.05834 -1.30528,1.34056 -0.52917,0.17639 -1.55222,0.10583 -1.02306,-0.10583 -1.30528,0.0353 -0.81139,0.38806 -1.97556,0.91722 0,3.175 0.21167,4.09223 1.48167,-0.35278 2.46945,-0.84667 0.17638,-0.24694 0.35277,-0.45861 0.35278,-0.38806 1.27,-0.3175 0.98778,0.0705 2.04612,1.12889 1.05833,1.05833 1.05833,2.15194 0,0.9525 -0.81139,1.41112 -0.81139,0.45861 -2.71639,0.3175 l -3.31611,1.65805 q -0.21167,0.10584 -0.91723,0.70556 -0.52916,0.45861 -0.9525,0.45861 -0.14111,0 -0.3175,-0.0353 -1.86972,-0.56444 -3.38667,-2.92806 -0.10583,-0.17638 -0.10583,-0.42333 0,-0.10583 0.38806,-1.41111 -0.38806,-10.26584 -0.14111,-21.87224 -0.24695,-0.35278 -0.24695,-0.70555 0,-1.16417 2.15195,-1.48167 0.45861,-0.0706 1.16416,0.24694 0.45862,0.24695 0.88195,0.45861 l 4.23334,-1.34055 q 0.14111,-0.0353 0.81138,-0.42334 0.45862,-0.28222 1.05834,-0.28222 0.28222,0 0.67028,0.0706 0.77611,0.14111 1.51694,1.23472 0.77611,1.05833 0.77611,2.01084 0,0.59972 -0.38805,0.91722 z"
         style="font-family:'Marker Felt';-inkscape-font-specification:'Marker Felt';vector-effect:non-scaling-stroke"
         id="path2226" /></g><rect
       style="vector-effect:non-scaling-stroke;fill:none;stroke:#ffff00;stroke-width:0.264583;stroke-opacity:1;-inkscape-stroke:hairline;stop-color:#000000"
       id="rect2068"
       width="57.903198"
       height="57.903198"
       x="275.14191"
       y="123.61621" /><rect
       style="vector-effect:non-scaling-stroke;fill:none;stroke:#ffff00;stroke-width:0.264582;stroke-opacity:1;-inkscape-stroke:hairline;stop-color:#000000"
       id="rect2070"
       width="166.58305"
       height="57.903198"
       x="108.55883"
       y="123.61621" /><path
       style="fill:none;stroke-width:0.26458333;stroke:#0000ff;stroke-opacity:1;vector-effect:non-scaling-stroke;-inkscape-stroke:hairline;stroke-dasharray:none"
       d="m 96.730872,79.876165 c -0.179961,-0.03862 -0.34842,-0.104549 -0.374355,-0.146513 -0.256402,-0.414867 -0.353017,-3.491834 -0.221586,-7.057073 0.113347,-3.074746 0.163783,-4.918547 0.199228,-7.283194 0.04709,-3.141311 0.01323,-3.044545 1.100124,-3.144849 0.316917,-0.02925 0.722936,-0.06707 0.902268,-0.08405 0.423978,-0.04014 0.600143,0.03719 0.755245,0.33154 0.13351,0.25337 0.166721,0.561596 0.174716,1.621508 0.0044,0.58842 0.0077,0.603037 0.155301,0.69976 0.241965,0.158541 0.879797,0.166075 1.374017,0.01624 0.49699,-0.150685 0.9732,-0.381954 1.35454,-0.657826 0.44923,-0.324982 1.40913,-1.231526 1.67027,-1.577428 0.13049,-0.172836 0.30832,-0.389883 0.3952,-0.482323 0.21048,-0.223966 1.36995,-1.816081 2.29814,-3.155672 0.69025,-0.996195 2.62517,-3.908646 2.66772,-4.015472 0.0123,-0.03081 0.0942,-0.161412 0.18208,-0.290218 0.0879,-0.128805 0.15976,-0.251482 0.15976,-0.272617 0,-0.02113 0.0844,-0.155252 0.18748,-0.298041 0.10311,-0.14279 0.43477,-0.675599 0.73703,-1.184021 0.30226,-0.508424 0.60645,-1.012645 0.67598,-1.120492 0.22975,-0.356367 1.65485,-2.870538 1.88772,-3.330358 0.12571,-0.248215 0.28369,-0.526934 0.35107,-0.619375 0.0674,-0.09244 0.15957,-0.243707 0.20486,-0.336147 0.1456,-0.297151 1.17498,-2.18291 1.2245,-2.243194 0.0263,-0.03203 0.2092,-0.372379 0.40643,-0.756332 0.19722,-0.383953 0.55451,-1.076262 0.79398,-1.538465 0.65702,-1.268153 1.62366,-3.210044 1.77089,-3.55756 0.0718,-0.169475 0.3046,-0.66109 0.51734,-1.092479 0.21274,-0.431389 0.47467,-0.998638 0.58207,-1.260553 0.1074,-0.261915 0.22444,-0.506228 0.26009,-0.542918 0.0356,-0.03669 0.26342,-0.119617 0.50618,-0.184282 l 0.44138,-0.117573 0.0909,0.126566 c 0.0976,0.135928 0.39363,0.590111 0.55325,0.848751 0.13953,0.226084 0.89463,1.388039 1.4989,2.306525 0.28382,0.431389 0.55765,0.865523 0.60852,0.964741 0.0509,0.09922 0.38881,0.60344 0.75097,1.120492 0.36216,0.517052 0.83086,1.192204 1.04156,1.500339 0.78608,1.149653 1.53293,2.213146 1.94042,2.763143 0.2311,0.311916 0.54624,0.748754 0.70031,0.970751 0.15407,0.221998 0.43334,0.594581 0.62062,0.827963 0.18727,0.233382 0.39967,0.525175 0.472,0.648429 0.0723,0.123254 0.17122,0.264295 0.21975,0.313425 0.0485,0.04913 0.20546,0.250819 0.34872,0.448197 0.14326,0.197378 0.67838,0.900907 1.18915,1.563398 0.51077,0.662491 1.11207,1.443213 1.33623,1.734936 0.22415,0.291725 0.47058,0.594258 0.54762,0.672295 0.17245,0.174674 0.73455,0.857964 1.03644,1.259897 0.12326,0.1641 0.52791,0.660378 0.89923,1.102841 0.37133,0.442461 0.73283,0.88011 0.80334,0.97255 0.0705,0.09244 0.27032,0.319339 0.44402,0.504221 0.17369,0.18488 0.54137,0.600864 0.81706,0.924404 0.27569,0.323542 0.65807,0.752132 0.84973,0.952419 0.19166,0.200289 0.54655,0.589889 0.78865,0.86578 0.8588,0.978669 3.6337,3.845936 4.58408,4.736677 0.14795,0.13866 0.35679,0.359122 0.4641,0.489913 0.13833,0.168595 0.26251,0.255301 0.42671,0.297921 0.12738,0.03306 0.51707,0.151384 0.86598,0.262936 0.66973,0.214124 0.74061,0.215198 1.25645,0.01904 0.18582,-0.07066 0.19073,-0.145933 0.0723,-1.106682 -0.045,-0.364888 -0.12082,-1.020491 -0.1685,-1.456898 -0.0477,-0.436409 -0.10119,-0.865939 -0.11891,-0.954513 -0.0585,-0.292477 0.10147,-0.405625 0.73803,-0.522044 0.30854,-0.05643 0.80028,-0.120164 1.09274,-0.141633 l 0.53176,-0.03903 0.16862,0.19205 c 0.164,0.186788 0.17206,0.223414 0.29444,1.337395 0.23487,2.137927 0.33708,2.992093 0.48568,4.058622 0.13875,0.995894 0.21207,1.59517 0.36331,2.969303 0.0598,0.543216 0.18243,1.528072 0.3628,2.913277 0.0481,0.369762 0.12542,1.025251 0.17172,1.45664 0.0463,0.431389 0.12057,1.099483 0.16504,1.484652 0.12132,1.050865 0.11353,1.242106 -0.0572,1.402506 -0.12646,0.118801 -0.21423,0.137883 -0.79835,0.17359 -0.36095,0.02207 -0.82609,0.04203 -1.03364,0.04437 l -0.37736,0.0042 -0.16184,-0.32214 c -0.089,-0.177179 -0.20255,-0.502339 -0.25228,-0.722579 -0.10305,-0.456275 -0.33515,-2.143411 -0.42663,-3.101098 -0.0339,-0.354356 -0.12473,-1.072871 -0.20197,-1.596702 -0.0772,-0.523828 -0.1886,-1.406216 -0.24747,-1.960858 -0.16177,-1.523956 -0.26806,-2.387681 -0.29746,-2.417077 -0.0146,-0.01455 -0.0845,0.05694 -0.15543,0.15886 -0.0709,0.10192 -0.35844,0.450023 -0.63889,0.773565 -0.82937,0.956789 -1.37328,1.658273 -1.37333,1.771176 -2e-5,0.05811 0.0527,0.382969 0.11709,0.721918 0.0644,0.338949 0.17934,0.944014 0.25538,1.34459 0.076,0.400575 0.17144,0.854373 0.21202,1.008442 0.0406,0.154067 0.12819,0.532233 0.19468,0.840369 0.0665,0.308133 0.16792,0.766071 0.22537,1.017634 0.14203,0.621859 0.0849,0.896748 -0.25507,1.227153 -0.18729,0.182026 -0.35052,0.273373 -0.68001,0.380564 -0.53666,0.17458 -1.18227,0.297277 -1.80618,0.343253 -0.26191,0.01929 -0.82916,0.07 -1.26055,0.112662 -0.78353,0.07749 -1.08033,0.09637 -3.08135,0.196014 -1.60928,0.08013 -5.04642,0.273214 -5.99463,0.336744 -0.4622,0.03097 -1.29417,0.08052 -1.84881,0.110126 -0.55464,0.0296 -1.89083,0.104374 -2.9693,0.166163 -1.07848,0.06179 -2.85586,0.163183 -3.94973,0.225313 -1.09388,0.06213 -2.14015,0.125716 -2.32503,0.141301 -0.18488,0.01558 -1.04205,0.0541 -1.90483,0.08559 -0.86278,0.03149 -2.12333,0.08287 -2.80123,0.114176 -4.7842,0.22094 -13.01873,0.351924 -13.79342,0.219409 -0.772,-0.132053 -1.00619,-0.425227 -1.05508,-1.320806 -0.0473,-0.866018 0.28561,-3.304625 0.81747,-5.988454 0.0672,-0.338949 0.13238,-0.717115 0.14492,-0.840369 l 0.0228,-0.224097 -0.63049,-0.504221 c -0.34676,-0.277323 -0.85931,-0.737424 -1.138999,-1.02245 -0.279688,-0.285025 -0.522332,-0.518226 -0.53921,-0.518226 -0.01688,0 -0.04842,1.216433 -0.07009,2.703185 -0.02167,1.486752 -0.06275,3.257829 -0.0913,3.935726 -0.02854,0.677898 -0.07794,1.888029 -0.109775,2.68918 -0.08874,2.233527 -0.102058,2.371729 -0.23534,2.44306 -0.165513,0.08858 -1.028507,0.218385 -1.417432,0.2132 -0.184883,-0.0025 -0.48339,-0.03608 -0.663351,-0.0747 z m 13.761318,-5.39157 1.09871,-0.0368 0.27687,-0.84559 c 0.24304,-0.742267 0.57023,-1.774848 0.90703,-2.862475 0.24097,-0.778162 0.45385,-1.427855 0.93621,-2.857254 0.78579,-2.328563 0.9156,-2.747439 1.27602,-4.117805 0.10131,-0.385169 0.32385,-1.217135 0.49455,-1.848811 0.17069,-0.631678 0.3766,-1.451037 0.45758,-1.820799 0.21398,-0.977123 0.92022,-3.576474 1.11879,-4.117805 0.0396,-0.107847 0.22743,-0.700307 0.41749,-1.316578 0.4792,-1.553844 0.72889,-2.322456 1.08678,-3.345293 0.40115,-1.146509 0.65429,-2.046052 0.93672,-3.328592 0.30407,-1.380871 0.29276,-1.357506 0.41445,-0.855889 0.14788,0.60953 0.46035,1.610572 0.71122,2.278452 0.2255,0.600342 1.00498,2.205514 1.15489,2.378234 0.0848,0.0977 0.21181,0.330737 0.75986,1.394109 0.16836,0.326661 0.36799,0.692222 0.44363,0.812356 0.0756,0.120135 0.18787,0.332571 0.24941,0.472083 0.0615,0.139511 0.26323,0.505072 0.44821,0.812356 0.18497,0.307285 0.46995,0.810809 0.63329,1.118945 0.16333,0.308135 0.3647,0.661091 0.44747,0.784345 0.0828,0.123253 0.38538,0.652687 0.67245,1.176516 0.28708,0.523829 0.61476,1.103683 0.72819,1.288566 0.20278,0.330508 0.2687,0.447712 0.88226,1.568687 0.16866,0.308133 0.32588,0.585456 0.34939,0.616269 0.0235,0.03081 0.10579,0.169476 0.18285,0.308136 0.077,0.13866 0.34882,0.61767 0.60394,1.064466 0.25511,0.446797 0.64505,1.1401 0.86653,1.540677 0.5738,1.037825 0.87263,1.555998 0.95312,1.652724 0.0385,0.04622 0.24017,0.411781 0.44823,0.812356 0.20806,0.400576 0.39769,0.753532 0.42141,0.784345 0.0411,0.0534 0.13537,0.227268 0.71389,1.316578 0.1391,0.261913 0.31251,0.563997 0.38536,0.671293 0.0729,0.107297 0.13246,0.221197 0.13246,0.253111 0,0.03191 0.0609,0.1476 0.13525,0.257078 0.0744,0.109477 0.27899,0.474585 0.45465,0.811355 0.17567,0.336768 0.35066,0.650121 0.38886,0.696343 0.0382,0.04622 0.20363,0.343054 0.3676,0.65963 0.16396,0.316578 0.3284,0.600727 0.36541,0.631441 0.0445,0.03692 0.30223,0.03752 0.76045,0.0017 1.33016,-0.10375 2.32604,-0.170065 3.46638,-0.230825 0.63168,-0.03366 1.40954,-0.07584 1.72858,-0.09375 l 0.58008,-0.03255 -0.036,-0.229762 c -0.0198,-0.126368 -0.0587,-0.305394 -0.0863,-0.397836 -0.0276,-0.09244 -0.0922,-0.558843 -0.14353,-1.036454 -0.12082,-1.124727 -0.33475,-2.887533 -0.44534,-3.669608 -0.0479,-0.338949 -0.10079,-0.723582 -0.11746,-0.85474 -0.0239,-0.187863 -0.0632,-0.255449 -0.18504,-0.318483 -0.14005,-0.07242 -2.57638,-2.541735 -3.59621,-3.644891 -0.22788,-0.246509 -0.58065,-0.612068 -0.78392,-0.812357 -0.20327,-0.200287 -0.43441,-0.452398 -0.51364,-0.560245 -0.0792,-0.107847 -0.35094,-0.407485 -0.60378,-0.665862 -0.25285,-0.258375 -0.54753,-0.586121 -0.65483,-0.728319 -0.10731,-0.142198 -0.38608,-0.468499 -0.6195,-0.725111 -0.23341,-0.256611 -0.47633,-0.533933 -0.53981,-0.616271 -0.0635,-0.08234 -0.41946,-0.502658 -0.79106,-0.934047 -1.21854,-1.414585 -1.80981,-2.132255 -2.67712,-3.249425 -0.31099,-0.400575 -0.683,-0.866981 -0.82671,-1.036454 -0.1437,-0.169476 -0.54626,-0.686302 -0.89457,-1.148504 -0.34831,-0.462203 -0.6985,-0.918323 -0.7782,-1.013601 -0.0797,-0.09528 -0.32139,-0.420804 -0.53708,-0.723387 -0.2157,-0.302585 -0.57109,-0.779273 -0.78977,-1.059308 -0.21868,-0.280035 -0.55328,-0.736054 -0.74354,-1.013375 -0.19027,-0.277322 -0.4749,-0.665442 -0.63251,-0.86249 -0.25421,-0.317802 -0.50697,-0.676917 -1.16741,-1.658616 -0.10365,-0.154068 -0.30608,-0.431389 -0.44985,-0.61627 -0.14376,-0.184881 -0.54683,-0.739525 -0.89571,-1.232541 -0.34888,-0.493016 -0.65498,-0.920013 -0.68022,-0.948881 -0.0261,-0.02985 -0.0747,0.03028 -0.11278,0.13939 -0.0828,0.237582 -1.14288,2.340013 -1.80642,3.582707 -0.27148,0.508423 -0.61464,1.151305 -0.76259,1.428627 -0.32067,0.601073 -0.92742,1.673192 -1.18598,2.095592 -0.10194,0.166542 -0.20506,0.353695 -0.22916,0.415893 -0.0241,0.0622 -0.17815,0.341918 -0.34236,0.621599 -0.16421,0.279683 -0.5198,0.899285 -0.79021,1.376894 -0.27041,0.477611 -0.57178,0.994437 -0.66972,1.148504 -0.29936,0.47092 -0.59097,0.9673 -0.59097,1.005952 0,0.02016 -0.0957,0.180228 -0.21269,0.355715 -0.11697,0.175487 -0.34813,0.558572 -0.51368,0.851301 -0.16555,0.292729 -0.36896,0.633078 -0.45203,0.756333 -0.16167,0.239873 -0.53627,0.847981 -0.81047,1.315648 -0.0924,0.157667 -0.32002,0.518656 -0.50573,0.8022 -0.18572,0.283545 -0.43567,0.679356 -0.55546,0.879582 -0.1198,0.200223 -0.31619,0.490099 -0.43644,0.644166 -0.12025,0.154067 -0.34049,0.469205 -0.48942,0.700307 -0.46048,0.714557 -2.3158,2.719616 -3.11365,3.364949 -0.0938,0.07586 -0.18921,0.168157 -0.21204,0.205096 -0.0371,0.06008 -0.14708,0.697234 -0.31687,1.836326 -0.0322,0.215696 -0.14729,0.972026 -0.25587,1.680738 -0.10857,0.708711 -0.23451,1.55328 -0.27985,1.876822 -0.0453,0.323543 -0.1083,0.714314 -0.1399,0.868381 -0.0316,0.154069 -0.14379,0.77174 -0.24932,1.372602 -0.26936,1.533798 -0.30777,1.747981 -0.33903,1.89083 l -0.0276,0.126055 h 2.31708 c 1.27439,0 2.8115,-0.01656 3.41579,-0.0368 z m 9.33067,-2.008131 -0.0188,-1.764803 0.19609,1.9e-5 c 0.20676,2.2e-5 0.72174,-0.09247 1.51266,-0.271672 0.26191,-0.05934 0.83818,-0.18823 1.28059,-0.286413 0.67205,-0.149145 2.05064,-0.579863 2.24968,-0.702873 0.1254,-0.0775 0.0563,-0.407322 -0.39327,-1.876378 -0.1273,-0.415982 -0.34446,-1.147103 -0.48259,-1.624712 -0.21643,-0.748331 -0.57338,-1.888236 -0.83332,-2.661167 -0.14304,-0.425325 -0.41177,-1.445369 -1.04056,-3.949732 -0.25144,-1.00144 -0.47797,-1.860402 -0.5034,-1.908807 -0.0254,-0.0484 -0.0957,-0.275302 -0.15624,-0.504221 -0.0605,-0.228917 -0.22453,-0.832196 -0.36452,-1.34062 -0.32996,-1.19837 -0.54544,-2.069897 -0.76879,-3.109363 -0.0993,-0.462202 -0.20578,-0.865579 -0.2366,-0.896392 -0.0374,-0.03736 -0.044,-0.02186 -0.0198,0.04651 0.0199,0.05639 0.0637,0.711883 0.0973,1.456639 0.0632,1.402626 0.042,2.25157 -0.0935,3.73515 -0.15995,1.751893 -0.19215,2.179765 -0.24881,3.305449 -0.0318,0.631678 -0.0814,2.335277 -0.11015,3.78578 -0.0491,2.472466 -0.0924,3.378152 -0.22369,4.67393 -0.0297,0.292729 -0.0935,0.960823 -0.14195,1.484652 -0.0484,0.523829 -0.11316,1.154107 -0.14387,1.400613 -0.0307,0.246509 -0.0713,0.932532 -0.0903,1.524496 -0.039,1.217587 -0.0308,1.248722 0.33065,1.248722 h 0.22204 z m 6.37742,1.371617 c 1.97671,-0.08815 5.67853,-0.369694 5.7411,-0.43665 0.0198,-0.0212 -0.12061,-0.315865 -0.31204,-0.654814 -0.34434,-0.609702 -0.3501,-0.616103 -0.54024,-0.600646 -0.22019,0.01789 -1.04569,0.207905 -2.27755,0.524225 -0.46905,0.120446 -1.16236,0.281678 -1.54068,0.358296 -0.89262,0.180777 -1.41183,0.299471 -1.7243,0.394189 -0.13866,0.04203 -0.55464,0.142857 -0.9244,0.224058 -0.36977,0.0812 -0.69625,0.170305 -0.72552,0.19801 -0.0704,0.06663 0.71053,0.06437 2.30363,-0.0067 z m -5.93777,-22.475342 c -0.0179,-0.04469 -0.0312,-0.03142 -0.0339,0.03385 -0.002,0.05906 0.0108,0.09215 0.0294,0.07353 0.0186,-0.01861 0.0206,-0.06694 0.004,-0.107381 z"
       id="path11758"
       sodipodi:nodetypes="cssssssccsssssccscsssccsscssscsccsscscsssccssssssssssssssssccssscsssscssssccccccsccsssccsssssssssssssssccscssssssscccccsssssccsscssssccsscsssscsscssscscsssscsscssccccsscssssssssssssssssscsssssssscsscsssssccscscccsccccssssssssccscccccscccscscccssssssssccccscc" /><path
       style="vector-effect:non-scaling-stroke;fill:none;stroke:#0000ff;stroke-width:0.264583;stroke-dasharray:none;stroke-opacity:1;-inkscape-stroke:hairline"
       d="m 278.6431,172.21459 c -0.17996,-0.0386 -0.34842,-0.10455 -0.37436,-0.14651 -0.2564,-0.41487 -0.35301,-3.49184 -0.22158,-7.05708 0.11334,-3.07474 0.16378,-4.91854 0.19922,-7.28319 0.0471,-3.14131 0.0132,-3.04455 1.10013,-3.14485 0.31692,-0.0293 0.72293,-0.0671 0.90227,-0.0841 0.42397,-0.0401 0.60014,0.0372 0.75524,0.33154 0.13351,0.25337 0.16672,0.5616 0.17472,1.62151 0.004,0.58842 0.008,0.60304 0.1553,0.69976 0.24196,0.15854 0.8798,0.16607 1.37402,0.0162 0.49699,-0.15069 0.9732,-0.38196 1.35454,-0.65783 0.44923,-0.32498 1.40913,-1.23152 1.67027,-1.57743 0.13049,-0.17283 0.30832,-0.38988 0.3952,-0.48232 0.21048,-0.22396 1.36995,-1.81608 2.29814,-3.15567 0.69025,-0.9962 2.62517,-3.90865 2.66772,-4.01547 0.0123,-0.0308 0.0942,-0.16141 0.18208,-0.29022 0.0879,-0.12881 0.15976,-0.25148 0.15976,-0.27262 0,-0.0211 0.0844,-0.15525 0.18748,-0.29804 0.10311,-0.14279 0.43477,-0.6756 0.73703,-1.18402 0.30226,-0.50842 0.60645,-1.01264 0.67598,-1.12049 0.22975,-0.35637 1.65485,-2.87054 1.88772,-3.33036 0.12571,-0.24821 0.28369,-0.52693 0.35107,-0.61937 0.0674,-0.0924 0.15957,-0.24371 0.20486,-0.33615 0.1456,-0.29715 1.17498,-2.18291 1.2245,-2.2432 0.0263,-0.032 0.2092,-0.37237 0.40643,-0.75633 0.19722,-0.38395 0.55451,-1.07626 0.79398,-1.53846 0.65702,-1.26816 1.62366,-3.21005 1.77089,-3.55756 0.0718,-0.16948 0.3046,-0.66109 0.51734,-1.09248 0.21274,-0.43139 0.47467,-0.99864 0.58207,-1.26055 0.1074,-0.26192 0.22444,-0.50623 0.26009,-0.54292 0.0356,-0.0367 0.26342,-0.11962 0.50618,-0.18428 l 0.44138,-0.11758 0.0909,0.12657 c 0.0976,0.13593 0.39363,0.59011 0.55325,0.84875 0.13953,0.22608 0.89463,1.38804 1.4989,2.30652 0.28382,0.43139 0.55765,0.86553 0.60852,0.96475 0.0509,0.0992 0.38881,0.60344 0.75097,1.12049 0.36216,0.51705 0.83086,1.1922 1.04156,1.50034 0.78608,1.14965 1.53293,2.21314 1.94042,2.76314 0.2311,0.31192 0.54624,0.74875 0.70031,0.97075 0.15407,0.222 0.43334,0.59458 0.62062,0.82796 0.18727,0.23339 0.39967,0.52518 0.472,0.64843 0.0723,0.12326 0.17122,0.2643 0.21975,0.31343 0.0485,0.0491 0.20546,0.25082 0.34872,0.44819 0.14326,0.19738 0.67838,0.90091 1.18915,1.5634 0.51077,0.66249 1.11207,1.44322 1.33623,1.73494 0.22415,0.29172 0.47058,0.59426 0.54762,0.67229 0.17245,0.17468 0.73455,0.85797 1.03644,1.2599 0.12326,0.1641 0.52791,0.66038 0.89923,1.10284 0.37133,0.44246 0.73283,0.88011 0.80334,0.97255 0.0705,0.0924 0.27032,0.31934 0.44402,0.50422 0.17369,0.18488 0.54137,0.60087 0.81706,0.92441 0.27569,0.32354 0.65807,0.75213 0.84973,0.95242 0.19166,0.20028 0.54655,0.58988 0.78865,0.86578 0.8588,0.97866 3.6337,3.84593 4.58408,4.73667 0.14795,0.13866 0.35679,0.35912 0.4641,0.48992 0.13833,0.16859 0.26251,0.2553 0.42671,0.29792 0.12738,0.0331 0.51707,0.15138 0.86598,0.26293 0.66973,0.21413 0.74061,0.2152 1.25645,0.019 0.18582,-0.0707 0.19073,-0.14593 0.0723,-1.10668 -0.045,-0.36489 -0.12082,-1.02049 -0.1685,-1.4569 -0.0477,-0.43641 -0.10119,-0.86594 -0.11891,-0.95451 -0.0585,-0.29248 0.10147,-0.40563 0.73803,-0.52204 0.30854,-0.0564 0.80028,-0.12017 1.09274,-0.14164 l 0.53176,-0.039 0.16862,0.19205 c 0.164,0.18679 0.17206,0.22342 0.29444,1.3374 0.23487,2.13792 0.33708,2.99209 0.48568,4.05862 0.13875,0.99589 0.21207,1.59517 0.36331,2.9693 0.0598,0.54322 0.18243,1.52807 0.3628,2.91328 0.0481,0.36976 0.12542,1.02525 0.17172,1.45664 0.0463,0.43139 0.12057,1.09948 0.16504,1.48465 0.12132,1.05087 0.11353,1.24211 -0.0572,1.40251 -0.12646,0.1188 -0.21423,0.13788 -0.79835,0.17359 -0.36095,0.0221 -0.82609,0.042 -1.03364,0.0444 l -0.37736,0.004 -0.16184,-0.32214 c -0.089,-0.17718 -0.20255,-0.50234 -0.25228,-0.72258 -0.10305,-0.45628 -0.33515,-2.14341 -0.42663,-3.1011 -0.0339,-0.35436 -0.12473,-1.07287 -0.20197,-1.5967 -0.0772,-0.52383 -0.1886,-1.40622 -0.24747,-1.96086 -0.16177,-1.52396 -0.26806,-2.38768 -0.29746,-2.41708 -0.0146,-0.0145 -0.0845,0.0569 -0.15543,0.15886 -0.0709,0.10192 -0.35844,0.45003 -0.63889,0.77357 -0.82937,0.95679 -1.37328,1.65827 -1.37333,1.77117 -2e-5,0.0581 0.0527,0.38297 0.11709,0.72192 0.0644,0.33895 0.17934,0.94402 0.25538,1.34459 0.076,0.40058 0.17144,0.85438 0.21202,1.00844 0.0406,0.15407 0.12819,0.53224 0.19468,0.84037 0.0665,0.30814 0.16792,0.76607 0.22537,1.01764 0.14203,0.62186 0.0849,0.89675 -0.25507,1.22715 -0.18729,0.18203 -0.35052,0.27337 -0.68001,0.38056 -0.53666,0.17458 -1.18227,0.29728 -1.80618,0.34326 -0.26191,0.0193 -0.82916,0.07 -1.26055,0.11266 -0.78353,0.0775 -1.08033,0.0964 -3.08135,0.19601 -1.60928,0.0801 -5.04642,0.27322 -5.99463,0.33675 -0.4622,0.031 -1.29417,0.0805 -1.84881,0.11012 -0.55464,0.0296 -1.89083,0.10438 -2.9693,0.16617 -1.07848,0.0618 -2.85586,0.16318 -3.94973,0.22531 -1.09388,0.0621 -2.14015,0.12572 -2.32503,0.1413 -0.18488,0.0156 -1.04205,0.0541 -1.90483,0.0856 -0.86278,0.0315 -2.12333,0.0829 -2.80123,0.11418 -4.7842,0.22094 -13.01873,0.35192 -13.79342,0.21941 -0.772,-0.13206 -1.00619,-0.42523 -1.05508,-1.32081 -0.0473,-0.86602 0.28561,-3.30463 0.81747,-5.98845 0.0672,-0.33895 0.13238,-0.71712 0.14492,-0.84037 l 0.0228,-0.2241 -0.63049,-0.50422 c -0.34676,-0.27732 -0.85931,-0.73743 -1.139,-1.02245 -0.27969,-0.28503 -0.52234,-0.51823 -0.53921,-0.51823 -0.0169,0 -0.0484,1.21644 -0.0701,2.70319 -0.0217,1.48675 -0.0627,3.25783 -0.0913,3.93572 -0.0285,0.6779 -0.0779,1.88803 -0.10978,2.68918 -0.0887,2.23353 -0.10206,2.37173 -0.23534,2.44306 -0.16551,0.0886 -1.02851,0.21839 -1.41743,0.2132 -0.18488,-0.003 -0.48339,-0.0361 -0.66335,-0.0747 z m 13.76132,-5.39157 1.09871,-0.0368 0.27687,-0.84559 c 0.24304,-0.74227 0.57023,-1.77485 0.90703,-2.86248 0.24097,-0.77816 0.45385,-1.42785 0.93621,-2.85725 0.78579,-2.32856 0.9156,-2.74744 1.27602,-4.1178 0.10131,-0.38517 0.32385,-1.21714 0.49455,-1.84882 0.17069,-0.63167 0.3766,-1.45103 0.45758,-1.82079 0.21398,-0.97713 0.92022,-3.57648 1.11879,-4.11781 0.0396,-0.10785 0.22743,-0.70031 0.41749,-1.31658 0.4792,-1.55384 0.72889,-2.32245 1.08678,-3.34529 0.40115,-1.14651 0.65429,-2.04605 0.93672,-3.32859 0.30407,-1.38087 0.29276,-1.35751 0.41445,-0.85589 0.14788,0.60953 0.46035,1.61057 0.71122,2.27845 0.2255,0.60034 1.00498,2.20551 1.15489,2.37823 0.0848,0.0977 0.21181,0.33074 0.75986,1.39411 0.16836,0.32666 0.36799,0.69223 0.44363,0.81236 0.0756,0.12013 0.18787,0.33257 0.24941,0.47208 0.0615,0.13951 0.26323,0.50507 0.44821,0.81236 0.18497,0.30728 0.46995,0.81081 0.63329,1.11894 0.16333,0.30814 0.3647,0.66109 0.44747,0.78435 0.0828,0.12325 0.38538,0.65269 0.67245,1.17651 0.28708,0.52383 0.61476,1.10369 0.72819,1.28857 0.20278,0.33051 0.2687,0.44771 0.88226,1.56869 0.16866,0.30813 0.32588,0.58545 0.34939,0.61627 0.0235,0.0308 0.10579,0.16947 0.18285,0.30813 0.077,0.13866 0.34882,0.61767 0.60394,1.06447 0.25511,0.4468 0.64505,1.1401 0.86653,1.54068 0.5738,1.03782 0.87263,1.55599 0.95312,1.65272 0.0385,0.0462 0.24017,0.41178 0.44823,0.81236 0.20806,0.40057 0.39769,0.75353 0.42141,0.78434 0.0411,0.0534 0.13537,0.22727 0.71389,1.31658 0.1391,0.26191 0.31251,0.564 0.38536,0.67129 0.0729,0.1073 0.13246,0.2212 0.13246,0.25311 0,0.0319 0.0609,0.1476 0.13525,0.25708 0.0744,0.10948 0.27899,0.47459 0.45465,0.81136 0.17567,0.33676 0.35066,0.65012 0.38886,0.69634 0.0382,0.0462 0.20363,0.34305 0.3676,0.65963 0.16396,0.31658 0.3284,0.60073 0.36541,0.63144 0.0445,0.0369 0.30223,0.0375 0.76045,0.002 1.33016,-0.10375 2.32604,-0.17007 3.46638,-0.23083 0.63168,-0.0337 1.40954,-0.0758 1.72858,-0.0937 l 0.58008,-0.0326 -0.036,-0.22976 c -0.0198,-0.12637 -0.0587,-0.30539 -0.0863,-0.39783 -0.0276,-0.0924 -0.0922,-0.55885 -0.14353,-1.03646 -0.12082,-1.12472 -0.33475,-2.88753 -0.44534,-3.66961 -0.0479,-0.33894 -0.10079,-0.72358 -0.11746,-0.85474 -0.0239,-0.18786 -0.0632,-0.25544 -0.18504,-0.31848 -0.14005,-0.0724 -2.57638,-2.54173 -3.59621,-3.64489 -0.22788,-0.24651 -0.58065,-0.61207 -0.78392,-0.81236 -0.20327,-0.20028 -0.43441,-0.45239 -0.51364,-0.56024 -0.0792,-0.10785 -0.35094,-0.40749 -0.60378,-0.66586 -0.25285,-0.25838 -0.54753,-0.58612 -0.65483,-0.72832 -0.10731,-0.1422 -0.38608,-0.4685 -0.6195,-0.72511 -0.23341,-0.25661 -0.47633,-0.53394 -0.53981,-0.61627 -0.0635,-0.0823 -0.41946,-0.50266 -0.79106,-0.93405 -1.21854,-1.41459 -1.80981,-2.13226 -2.67712,-3.24943 -0.31099,-0.40057 -0.683,-0.86698 -0.82671,-1.03645 -0.1437,-0.16948 -0.54626,-0.6863 -0.89457,-1.1485 -0.34831,-0.46221 -0.6985,-0.91833 -0.7782,-1.01361 -0.0797,-0.0953 -0.32139,-0.4208 -0.53708,-0.72338 -0.2157,-0.30259 -0.57109,-0.77928 -0.78977,-1.05931 -0.21868,-0.28004 -0.55328,-0.73605 -0.74354,-1.01338 -0.19027,-0.27732 -0.4749,-0.66544 -0.63251,-0.86249 -0.25421,-0.3178 -0.50697,-0.67691 -1.16741,-1.65861 -0.10365,-0.15407 -0.30608,-0.43139 -0.44985,-0.61627 -0.14376,-0.18488 -0.54683,-0.73953 -0.89571,-1.23254 -0.34888,-0.49302 -0.65498,-0.92002 -0.68022,-0.94888 -0.0261,-0.0298 -0.0747,0.0303 -0.11278,0.13939 -0.0828,0.23758 -1.14288,2.34001 -1.80642,3.5827 -0.27148,0.50843 -0.61464,1.15131 -0.76259,1.42863 -0.32067,0.60107 -0.92742,1.67319 -1.18598,2.09559 -0.10194,0.16654 -0.20506,0.3537 -0.22916,0.4159 -0.0241,0.0622 -0.17815,0.34191 -0.34236,0.62159 -0.16421,0.27969 -0.5198,0.89929 -0.79021,1.3769 -0.27041,0.47761 -0.57178,0.99444 -0.66972,1.1485 -0.29936,0.47092 -0.59097,0.9673 -0.59097,1.00595 0,0.0202 -0.0957,0.18023 -0.21269,0.35572 -0.11697,0.17549 -0.34813,0.55857 -0.51368,0.8513 -0.16555,0.29273 -0.36896,0.63308 -0.45203,0.75633 -0.16167,0.23988 -0.53627,0.84798 -0.81047,1.31565 -0.0924,0.15767 -0.32002,0.51866 -0.50573,0.8022 -0.18572,0.28355 -0.43567,0.67936 -0.55546,0.87958 -0.1198,0.20023 -0.31619,0.4901 -0.43644,0.64417 -0.12025,0.15407 -0.34049,0.4692 -0.48942,0.70031 -0.46048,0.71455 -2.3158,2.71961 -3.11365,3.36495 -0.0938,0.0759 -0.18921,0.16815 -0.21204,0.20509 -0.0371,0.0601 -0.14708,0.69724 -0.31687,1.83633 -0.0322,0.21569 -0.14729,0.97202 -0.25587,1.68074 -0.10857,0.70871 -0.23451,1.55328 -0.27985,1.87682 -0.0453,0.32354 -0.1083,0.71431 -0.1399,0.86838 -0.0316,0.15407 -0.14379,0.77174 -0.24932,1.3726 -0.26936,1.5338 -0.30777,1.74798 -0.33903,1.89083 l -0.0276,0.12606 h 2.31708 c 1.27439,0 2.8115,-0.0166 3.41579,-0.0368 z m 9.33067,-2.00813 -0.0188,-1.7648 0.19609,10e-6 c 0.20676,3e-5 0.72174,-0.0925 1.51266,-0.27167 0.26191,-0.0593 0.83818,-0.18823 1.28059,-0.28641 0.67205,-0.14915 2.05064,-0.57986 2.24968,-0.70287 0.1254,-0.0775 0.0563,-0.40733 -0.39327,-1.87638 -0.1273,-0.41598 -0.34446,-1.1471 -0.48259,-1.62471 -0.21643,-0.74833 -0.57338,-1.88824 -0.83332,-2.66117 -0.14304,-0.42533 -0.41177,-1.44537 -1.04056,-3.94973 -0.25144,-1.00144 -0.47797,-1.8604 -0.5034,-1.90881 -0.0254,-0.0484 -0.0957,-0.2753 -0.15624,-0.50422 -0.0605,-0.22892 -0.22453,-0.8322 -0.36452,-1.34062 -0.32996,-1.19837 -0.54544,-2.0699 -0.76879,-3.10936 -0.0993,-0.46221 -0.20578,-0.86558 -0.2366,-0.8964 -0.0374,-0.0374 -0.044,-0.0219 -0.0198,0.0465 0.0199,0.0564 0.0637,0.71189 0.0973,1.45664 0.0632,1.40263 0.042,2.25157 -0.0935,3.73515 -0.15995,1.7519 -0.19215,2.17977 -0.24881,3.30545 -0.0318,0.63168 -0.0814,2.33528 -0.11015,3.78578 -0.0491,2.47247 -0.0924,3.37815 -0.22369,4.67393 -0.0297,0.29273 -0.0935,0.96083 -0.14195,1.48465 -0.0484,0.52383 -0.11316,1.15411 -0.14387,1.40062 -0.0307,0.24651 -0.0713,0.93253 -0.0903,1.52449 -0.039,1.21759 -0.0308,1.24873 0.33065,1.24873 h 0.22204 z m 6.37742,1.37162 c 1.97671,-0.0881 5.67853,-0.3697 5.7411,-0.43665 0.0198,-0.0212 -0.12061,-0.31587 -0.31204,-0.65482 -0.34434,-0.6097 -0.3501,-0.6161 -0.54024,-0.60064 -0.22019,0.0179 -1.04569,0.2079 -2.27755,0.52422 -0.46905,0.12045 -1.16236,0.28168 -1.54068,0.3583 -0.89262,0.18077 -1.41183,0.29947 -1.7243,0.39419 -0.13866,0.042 -0.55464,0.14285 -0.9244,0.22405 -0.36977,0.0812 -0.69625,0.17031 -0.72552,0.19801 -0.0704,0.0666 0.71053,0.0644 2.30363,-0.007 z m -5.93777,-22.47535 c -0.0179,-0.0447 -0.0312,-0.0314 -0.0339,0.0339 -0.002,0.0591 0.0108,0.0922 0.0294,0.0735 0.0186,-0.0186 0.0206,-0.0669 0.004,-0.10738 z"
       id="path11760"
       sodipodi:nodetypes="cssssssccsssssccscsssccsscssscsccsscscsssccssssssssssssssssccssscsssscssssccccccsccsssccsssssssssssssssccscssssssscccccsssssccsscssssccsscsssscsscssscscsssscsscssccccsscssssssssssssssssscsssssssscsscsssssccscscccsccccssssssssccscccccscccscscccssssssssccccscc" /><g
       id="g1524"><path
         id="path425"
         style="vector-effect:non-scaling-stroke;fill:none;stroke:#0000ff;stroke-width:0.264583;-inkscape-stroke:hairline;stop-color:#000000;fill-opacity:1;stroke-opacity:1"
         d="m 84.306641,20.654297 c 0,24.785807 0,49.571614 0,74.357422 71.929039,0 143.858069,0 215.787109,0 12.51407,-12.481368 25.02776,-24.963133 37.54297,-37.44336 C 325.12151,45.088133 312.60783,32.606368 300.09375,20.125 c -71.92904,0 -143.85807,0 -215.787109,0 0,0.176432 0,0.352865 0,0.529297 z" /><circle
         style="vector-effect:non-scaling-stroke;fill:none;fill-opacity:1;stroke:#ff0000;stroke-width:0.264583;stroke-opacity:1;-inkscape-stroke:hairline;stop-color:#000000"
         id="path1062"
         cx="205.64572"
         cy="15.17749"
         r="3" /><circle
         style="vector-effect:non-scaling-stroke;fill:none;fill-opacity:1;stroke:#ff0000;stroke-width:0.264583;stroke-opacity:1;-inkscape-stroke:hairline;stop-color:#000000"
         id="circle1484"
         cx="205.64572"
         cy="99.844139"
         r="3" /></g><g
       id="g1495"
       transform="translate(2.0740605,-0.19302493)"><path
         id="path1486"
         style="vector-effect:non-scaling-stroke;fill:none;fill-opacity:1;stroke:#0000ff;stroke-width:0.264583;stroke-opacity:1;-inkscape-stroke:hairline;stop-color:#000000"
         d="m 337.63672,115.90431 c 0,24.78582 0,49.57164 0,74.35747 -71.92904,0 -143.85807,0 -215.78711,0 -12.51407,-12.48138 -25.027759,-24.96315 -37.542969,-37.44339 12.51521,-12.48023 25.028889,-24.962 37.542969,-37.44338 71.92904,0 143.85807,0 215.78711,0 0,0.17643 0,0.35287 0,0.5293 z" /><circle
         style="vector-effect:non-scaling-stroke;fill:none;fill-opacity:1;stroke:#ff0000;stroke-width:0.264583;stroke-opacity:1;-inkscape-stroke:hairline;stop-color:#000000"
         id="circle1488"
         cx="-216.29764"
         cy="110.42747"
         r="3"
         transform="scale(-1,1)" /><circle
         style="vector-effect:non-scaling-stroke;fill:none;fill-opacity:1;stroke:#ff0000;stroke-width:0.264583;stroke-opacity:1;-inkscape-stroke:hairline;stop-color:#000000"
         id="circle1490"
         cx="-216.29764"
         cy="195.09419"
         r="3"
         transform="scale(-1,1)" /></g></g></svg>
